<svg width="1140" height="329" viewBox="0 0 1140 329" fill="none" xmlns="http://www.w3.org/2000/svg">
<rect x="686" y="93.9492" width="58" height="10" rx="5" transform="rotate(-45 686 93.9492)" fill="#0095D7"/>
<rect x="737.504" y="41.0117" width="58" height="10" rx="5" transform="rotate(-45 737.504 41.0117)" fill="#0095D7"/>
<rect x="734" y="320.971" width="24" height="10" rx="5" transform="rotate(-45 734 320.971)" fill="#544274"/>
<rect x="755.43" y="300.971" width="24" height="10" rx="5" transform="rotate(-45 755.43 300.971)" fill="#544274"/>
<rect x="851" y="144.883" width="96" height="10" rx="5" transform="rotate(-45 851 144.883)" fill="#663A86"/>
<rect x="-16" y="89.0117" width="58" height="10" rx="5" transform="rotate(-45 -16 89.0117)" fill="#CF4239"/>
<rect x="908" y="315.012" width="58" height="10" rx="5" transform="rotate(-45 908 315.012)" fill="#CF4239"/>
<rect x="959.504" y="262.012" width="58" height="10" rx="5" transform="rotate(-45 959.504 262.012)" fill="#CF4239"/>
<rect x="414" y="88.0117" width="58" height="10" rx="5" transform="rotate(-45 414 88.0117)" fill="#544274"/>
<rect x="188" y="51.9707" width="24" height="10" rx="5" transform="rotate(-45 188 51.9707)" fill="#0095D7"/>
<rect x="-4" y="320.996" width="24" height="10" rx="5" transform="rotate(-45 -4 320.996)" fill="#0095D7"/>
<rect x="15.5688" y="300.971" width="24" height="10" rx="5" transform="rotate(-45 15.5688 300.971)" fill="#0095D7"/>
<rect x="1023" y="109.947" width="24" height="10" rx="5" transform="rotate(-45 1023 109.947)" fill="#0095D7"/>
<rect x="1042.57" y="89.9219" width="24" height="10" rx="5" transform="rotate(-45 1042.57 89.9219)" fill="#0095D7"/>
<rect x="1094.29" y="36.9961" width="24" height="10" rx="5" transform="rotate(-45 1094.29 36.9961)" fill="#0095D7"/>
<rect x="1113.86" y="16.9707" width="24" height="10" rx="5" transform="rotate(-45 1113.86 16.9707)" fill="#0095D7"/>
<rect x="1099" y="315.012" width="58" height="10" rx="5" transform="rotate(-45 1099 315.012)" fill="#CF4239"/>
</svg>
