<svg width="1064" height="301" viewBox="0 0 1064 301" fill="none" xmlns="http://www.w3.org/2000/svg">
<rect x="642.196" y="85.9463" width="53.059" height="9.1481" rx="4.57405" transform="rotate(-45 642.196 85.9463)" fill="#0095D7"/>
<rect x="689.313" y="37.5186" width="53.059" height="9.1481" rx="4.57405" transform="rotate(-45 689.313 37.5186)" fill="#0095D7"/>
<rect x="686.107" y="293.628" width="21.9554" height="9.1481" rx="4.57405" transform="rotate(-45 686.107 293.628)" fill="#544274"/>
<rect x="705.712" y="275.332" width="21.9554" height="9.1481" rx="4.57405" transform="rotate(-45 705.712 275.332)" fill="#544274"/>
<rect x="793.14" y="132.541" width="87.8217" height="9.1481" rx="4.57405" transform="rotate(-45 793.14 132.541)" fill="#663A86"/>
<rect y="81.4297" width="53.059" height="9.1481" rx="4.57405" transform="rotate(-45 0 81.4297)" fill="#CF4239"/>
<rect x="845.284" y="288.177" width="53.059" height="9.1481" rx="4.57405" transform="rotate(-45 845.284 288.177)" fill="#CF4239"/>
<rect x="892.401" y="239.692" width="53.059" height="9.1481" rx="4.57405" transform="rotate(-45 892.401 239.692)" fill="#CF4239"/>
<rect x="393.368" y="80.5146" width="53.059" height="9.1481" rx="4.57405" transform="rotate(-45 393.368 80.5146)" fill="#544274"/>
<rect x="186.621" y="47.5439" width="21.9554" height="9.1481" rx="4.57405" transform="rotate(-45 186.621 47.5439)" fill="#0095D7"/>
<rect x="10.9775" y="293.652" width="21.9554" height="9.1481" rx="4.57405" transform="rotate(-45 10.9775 293.652)" fill="#0095D7"/>
<rect x="28.8794" y="275.332" width="21.9554" height="9.1481" rx="4.57405" transform="rotate(-45 28.8794 275.332)" fill="#0095D7"/>
<rect x="950.487" y="100.582" width="21.9554" height="9.1481" rx="4.57405" transform="rotate(-45 950.487 100.582)" fill="#0095D7"/>
<rect x="968.39" y="82.2627" width="21.9554" height="9.1481" rx="4.57405" transform="rotate(-45 968.39 82.2627)" fill="#0095D7"/>
<rect x="1015.7" y="33.8447" width="21.9554" height="9.1481" rx="4.57405" transform="rotate(-45 1015.7 33.8447)" fill="#0095D7"/>
<rect x="1033.61" y="15.5264" width="21.9554" height="9.1481" rx="4.57405" transform="rotate(-45 1033.61 15.5264)" fill="#0095D7"/>
<rect x="1020.01" y="288.177" width="53.059" height="9.1481" rx="4.57405" transform="rotate(-45 1020.01 288.177)" fill="#CF4239"/>
</svg>
