<svg width="9" height="15" viewBox="0 0 9 15" fill="none" xmlns="http://www.w3.org/2000/svg">
<path d="M1.35206 14.04C1.19413 14.0409 1.03757 14.0106 0.89137 13.9509C0.745165 13.8912 0.612185 13.8032 0.500057 13.692C0.276556 13.4672 0.151106 13.163 0.151106 12.846C0.151106 12.529 0.276556 12.2248 0.500057 12L5.50006 7L0.445008 2.05267C0.219044 1.8283 0.0914648 1.52335 0.0903395 1.20491C0.0892143 0.886478 0.214634 0.580647 0.439007 0.354683C0.66338 0.128718 0.968327 0.00113272 1.28676 7.50627e-06C1.6052 -0.00111771 1.91104 0.124304 2.13701 0.348677L8.00006 6C8.11253 6.11156 8.24276 6.24192 8.30368 6.38815C8.3646 6.53439 8.39596 6.84159 8.39596 7C8.39596 7.15841 8.3646 7.41993 8.30368 7.56616C8.24276 7.71239 8.15348 7.84512 8.041 7.95667L2.19206 13.692C1.96854 13.9137 1.66686 14.0387 1.35206 14.04Z" fill="#9AA0A6"/>
</svg>
