<svg width="24" height="24" viewBox="0 0 24 24"  xmlns="http://www.w3.org/2000/svg">
<path d="M4.96 9.352C4.95909 9.19407 4.98937 9.03752 5.04908 8.89131C5.1088 8.74511 5.1968 8.61213 5.30801 8.5C5.53285 8.2765 5.83698 8.15105 6.154 8.15105C6.47102 8.15105 6.77517 8.2765 7 8.5L12 13.5L16.9473 8.44495C17.1717 8.21899 17.4766 8.09141 17.7951 8.09028C18.1135 8.08916 18.4194 8.21458 18.6453 8.43895C18.8713 8.66332 18.9989 8.96827 19 9.28671C19.0011 9.60514 18.8757 9.91099 18.6513 10.137L13 16C12.8884 16.1125 12.7581 16.2427 12.6118 16.3036C12.4656 16.3645 12.1584 16.3959 12 16.3959C11.8416 16.3959 11.5801 16.3645 11.4338 16.3036C11.2876 16.2427 11.1549 16.1534 11.0433 16.0409L5.30801 10.192C5.08632 9.96849 4.96133 9.66681 4.96 9.352Z" />
</svg>
