<svg width="64" height="64" viewBox="0 0 64 64" fill="none" xmlns="http://www.w3.org/2000/svg">
<path d="M36.5 44.5709C51.6878 44.5709 64 43.7716 64 42.7855C64 41.7994 51.6878 41 36.5 41C21.3122 41 9 41.7994 9 42.7855C9 43.7716 21.3122 44.5709 36.5 44.5709Z" fill="#E5E5E5"/>
<g clip-path="url(#clip0)">
<path d="M61.7323 7.17578H9.25635V31.7393H61.7323V7.17578Z" fill="white"/>
<path d="M61.7324 32.002H9.25645C9.11038 32.002 8.98926 31.8832 8.98926 31.7398V7.17627C8.98926 7.03293 9.11038 6.91406 9.25645 6.91406H61.7324C61.8785 6.91406 61.9996 7.03293 61.9996 7.17627V31.7398C61.9996 31.8832 61.8785 32.002 61.7324 32.002ZM9.52364 31.4776H61.4652V7.43848H9.52364V31.4776Z" fill="#7C3AA6"/>
<path d="M26.6598 7.17578H9.25684V31.7393H26.6598V7.17578Z" fill="#7C3AA6"/>
<path d="M52.5342 14.5216C51.5795 14.5216 51.0985 14.193 50.6318 13.8748C50.1651 13.5567 49.727 13.2595 48.8256 13.2595C47.9243 13.2595 47.4861 13.5602 47.0194 13.8748C46.5528 14.193 46.0683 14.5216 45.1171 14.5216C44.1659 14.5216 43.6814 14.193 43.2147 13.8748C42.748 13.5567 42.3098 13.2595 41.4085 13.2595C40.5072 13.2595 40.069 13.5602 39.6023 13.8748C39.1356 14.193 38.6511 14.5216 37.6999 14.5216C36.7487 14.5216 36.2642 14.193 35.7975 13.8748C35.3308 13.5567 34.8926 13.2595 33.9913 13.2595C33.09 13.2595 32.6518 13.5602 32.1851 13.8748C31.7184 14.193 31.2339 14.5216 30.2827 14.5216V14.2699C31.184 14.2699 31.6222 13.9692 32.0889 13.6546C32.5556 13.3364 33.0401 13.0078 33.9913 13.0078C34.9425 13.0078 35.427 13.3364 35.8937 13.6546C36.3604 13.9727 36.7986 14.2699 37.6999 14.2699C38.6012 14.2699 39.0394 13.9692 39.5061 13.6546C39.9728 13.3364 40.4573 13.0078 41.4085 13.0078C42.3597 13.0078 42.8442 13.3364 43.3109 13.6546C43.7775 13.9727 44.2157 14.2699 45.1171 14.2699C46.0184 14.2699 46.4566 13.9692 46.9233 13.6546C47.3899 13.3364 47.8745 13.0078 48.8256 13.0078C49.7804 13.0078 50.2613 13.3364 50.728 13.6546C51.1947 13.9727 51.6329 14.2699 52.5342 14.2699C53.4355 14.2699 53.8737 13.9692 54.3404 13.6546C54.8071 13.3364 55.2916 13.0078 56.2428 13.0078V13.2595C55.3415 13.2595 54.9033 13.5602 54.4366 13.8748C53.9699 14.193 53.4854 14.5216 52.5342 14.5216Z" fill="#7C3AA6"/>
<path d="M52.5342 26.4552C51.5795 26.4552 51.0985 26.1266 50.6318 25.8084C50.1651 25.4903 49.727 25.1931 48.8256 25.1931C47.9243 25.1931 47.4861 25.4938 47.0194 25.8084C46.5528 26.1266 46.0683 26.4552 45.1171 26.4552C44.1659 26.4552 43.6814 26.1266 43.2147 25.8084C42.748 25.4903 42.3098 25.1931 41.4085 25.1931C40.5072 25.1931 40.069 25.4938 39.6023 25.8084C39.1356 26.1266 38.6511 26.4552 37.6999 26.4552C36.7487 26.4552 36.2642 26.1266 35.7975 25.8084C35.3308 25.4903 34.8926 25.1931 33.9913 25.1931C33.09 25.1931 32.6518 25.4938 32.1851 25.8084C31.7184 26.1266 31.2339 26.4552 30.2827 26.4552V26.2035C31.184 26.2035 31.6222 25.9028 32.0889 25.5882C32.5556 25.27 33.0401 24.9414 33.9913 24.9414C34.9425 24.9414 35.427 25.27 35.8937 25.5882C36.3604 25.9063 36.7986 26.2035 37.6999 26.2035C38.6012 26.2035 39.0394 25.9028 39.5061 25.5882C39.9728 25.27 40.4573 24.9414 41.4085 24.9414C42.3597 24.9414 42.8442 25.27 43.3109 25.5882C43.7775 25.9063 44.2157 26.2035 45.1171 26.2035C46.0184 26.2035 46.4566 25.9028 46.9233 25.5882C47.3899 25.27 47.8745 24.9414 48.8256 24.9414C49.7804 24.9414 50.2613 25.27 50.728 25.5882C51.1947 25.9063 51.6329 26.2035 52.5342 26.2035C53.4355 26.2035 53.8737 25.9028 54.3404 25.5882C54.8071 25.27 55.2916 24.9414 56.2428 24.9414V25.1931C55.3415 25.1931 54.9033 25.4938 54.4366 25.8084C53.9699 26.1231 53.4854 26.4552 52.5342 26.4552Z" fill="#7C3AA6"/>
<path d="M52.5342 20.4865C51.5795 20.4865 51.0985 20.1578 50.6318 19.8397C50.1651 19.5215 49.727 19.2244 48.8256 19.2244C47.9243 19.2244 47.4861 19.525 47.0194 19.8397C46.5528 20.1578 46.0683 20.4865 45.1171 20.4865C44.1659 20.4865 43.6814 20.1578 43.2147 19.8397C42.748 19.5215 42.3098 19.2244 41.4085 19.2244C40.5072 19.2244 40.069 19.525 39.6023 19.8397C39.1356 20.1578 38.6511 20.4865 37.6999 20.4865C36.7487 20.4865 36.2642 20.1578 35.7975 19.8397C35.3308 19.5215 34.8926 19.2244 33.9913 19.2244C33.09 19.2244 32.6518 19.525 32.1851 19.8397C31.7184 20.1578 31.2339 20.4865 30.2827 20.4865V20.2347C31.184 20.2347 31.6222 19.9341 32.0889 19.6194C32.5556 19.3013 33.0401 18.9727 33.9913 18.9727C34.9425 18.9727 35.427 19.3013 35.8937 19.6194C36.3604 19.9376 36.7986 20.2347 37.6999 20.2347C38.6012 20.2347 39.0394 19.9341 39.5061 19.6194C39.9728 19.3013 40.4573 18.9727 41.4085 18.9727C42.3597 18.9727 42.8442 19.3013 43.3109 19.6194C43.7775 19.9376 44.2157 20.2347 45.1171 20.2347C46.0184 20.2347 46.4566 19.9341 46.9233 19.6194C47.3899 19.3013 47.8745 18.9727 48.8256 18.9727C49.7804 18.9727 50.2613 19.3013 50.728 19.6194C51.1947 19.9376 51.6329 20.2347 52.5342 20.2347C53.4355 20.2347 53.8737 19.9341 54.3404 19.6194C54.8071 19.3013 55.2916 18.9727 56.2428 18.9727V19.2244C55.3415 19.2244 54.9033 19.525 54.4366 19.8397C53.9699 20.1578 53.4854 20.4865 52.5342 20.4865Z" fill="#7C3AA6"/>
<path d="M61.7323 2.26172H9.25635V7.95336H61.7323V2.26172Z" fill="#D2BCE1"/>
<path d="M61.7324 8.21606H9.25645C9.11038 8.21606 8.98926 8.09719 8.98926 7.95385V2.26221C8.98926 2.11887 9.11038 2 9.25645 2H61.7324C61.8785 2 61.9996 2.11887 61.9996 2.26221V7.95385C61.9996 8.09719 61.8785 8.21606 61.7324 8.21606ZM9.52364 7.69164H61.4652V2.52441H9.52364V7.69164Z" fill="#7C3AA6"/>
<path d="M24.5973 3.90138C23.7672 3.35948 22.6486 3.58323 22.1 4.39782L10.3935 21.7315L5.24925 14.9141C4.65787 14.131 3.53211 13.9666 2.73411 14.547C1.92898 15.1273 1.76154 16.2356 2.35648 17.0187L9.02552 25.8604C9.36753 26.3114 9.9019 26.5771 10.4719 26.5771C10.4862 26.5771 10.504 26.5771 10.5182 26.5771C11.106 26.5631 11.6475 26.2659 11.9717 25.7869L25.1032 6.35214C25.6554 5.53755 25.4274 4.43978 24.5973 3.90138Z" fill="#A8D600"/>
</g>
<defs>
<clipPath id="clip0">
<rect width="60" height="30" fill="white" transform="translate(2 2)"/>
</clipPath>
</defs>
</svg>
