<svg width="64" height="64" viewBox="0 0 64 64" fill="none" xmlns="http://www.w3.org/2000/svg">
<path d="M32.5813 58.5905C40.7405 58.5905 47.3549 57.7911 47.3549 56.805C47.3549 55.8189 40.7405 55.0195 32.5813 55.0195C24.422 55.0195 17.8076 55.8189 17.8076 56.805C17.8076 57.7911 24.422 58.5905 32.5813 58.5905Z" fill="#E5E5E5"/>
<g clip-path="url(#clip0)">
<path d="M21.9199 22.278C21.9199 22.278 22.9199 19.178 30.0499 18.338C33.0599 17.978 40.0399 13.408 40.9899 10.578C41.9399 7.74796 42.6799 3.50796 43.1499 2.26796C43.6199 1.02796 48.5399 1.91796 48.8499 5.98796C49.1699 10.058 48.5299 12.538 47.8999 14.668C47.2699 16.798 46.1599 18.388 46.1599 18.388C46.1599 18.388 47.7399 18.428 52.0199 18.388C57.3899 18.348 53.2499 27.948 53.2499 27.948C53.2499 27.948 54.9499 28.918 54.1199 32.468C53.2899 36.008 51.5899 36.368 51.5899 36.368C51.5899 36.368 52.7399 38.578 51.1899 40.968C49.6499 43.358 48.6599 43.538 48.6599 43.538C48.6599 43.538 49.0999 46.058 45.9299 47.168C42.7599 48.278 37.2999 47.508 30.4799 45.268C26.6499 44.008 21.9299 40.708 21.9299 40.708V22.278H21.9199Z" fill="#D2BCE1"/>
<path d="M42.4299 48.4092C38.5999 48.4092 33.9299 47.1892 30.2399 45.9692C26.3499 44.6892 21.6899 41.4492 21.4899 41.3092C21.2899 41.1692 21.1699 40.9392 21.1699 40.6992V22.2792C21.1699 22.1992 21.1799 22.1192 21.2099 22.0492C21.2599 21.8992 22.4499 18.4792 29.9599 17.5992C32.7899 17.2692 39.4299 12.8692 40.2699 10.3492C40.7899 8.80916 41.2499 6.77916 41.6299 5.13916C41.9599 3.71916 42.2199 2.59916 42.4499 1.99916C42.7499 1.22916 43.7099 0.859159 44.9699 1.04916C47.0399 1.34916 49.3699 3.00916 49.5999 5.92916C49.9199 10.0792 49.2899 12.6192 48.6199 14.8792C48.2899 15.9892 47.8399 16.9492 47.4699 17.6492C48.3999 17.6492 49.8699 17.6492 52.0199 17.6392C53.5799 17.6392 54.4499 18.3692 54.8699 18.9892C56.4399 21.3592 54.7899 26.1292 54.1499 27.7492C54.7299 28.4092 55.5099 29.8692 54.8599 32.6392C54.2699 35.1392 53.2499 36.2492 52.5299 36.7292C52.8099 37.6892 53.0499 39.4792 51.8299 41.3692C50.8099 42.9392 49.9899 43.6692 49.4399 43.9992C49.3999 45.1992 48.6899 46.9892 46.1799 47.8692C45.0899 48.2492 43.8099 48.4092 42.4299 48.4092ZM22.6699 40.2992C23.7899 41.0492 27.5899 43.5192 30.7099 44.5492C37.5899 46.8092 42.7699 47.4692 45.6699 46.4592C48.1299 45.5992 47.9399 43.8492 47.9099 43.6592C47.8499 43.2592 48.1199 42.8692 48.5199 42.7992C48.4999 42.7992 49.2999 42.5092 50.5599 40.5592C51.8499 38.5592 50.9299 36.7292 50.9199 36.7092C50.8099 36.4992 50.8099 36.2492 50.9099 36.0392C51.0099 35.8292 51.1999 35.6792 51.4399 35.6292C51.4299 35.6292 52.7099 35.2192 53.3999 32.2992C54.0799 29.4192 52.9199 28.6292 52.8699 28.5992C52.5699 28.3992 52.4299 27.9992 52.5699 27.6592C53.5199 25.4492 54.6499 21.3692 53.6199 19.8192C53.4199 19.5192 53.0499 19.1692 52.0299 19.1392C47.7899 19.1792 46.2099 19.1392 46.1499 19.1392C45.8699 19.1292 45.6199 18.9792 45.4999 18.7292C45.3799 18.4792 45.3899 18.1892 45.5499 17.9592C45.5599 17.9392 46.5999 16.4292 47.1899 14.4492C47.8199 12.3292 48.4099 9.92916 48.1099 6.03916C47.9499 3.95916 46.3999 3.08916 45.7399 2.80916C44.7299 2.37916 43.9499 2.47916 43.8099 2.59916C43.6599 3.03916 43.3899 4.21916 43.0999 5.46916C42.7199 7.12916 42.2399 9.20916 41.6999 10.8192C40.5899 14.1292 33.2399 18.7192 30.1399 19.0892C24.3599 19.7692 22.9199 21.9792 22.6699 22.4392V40.2992Z" fill="#7C3AA6"/>
<path d="M17.37 45.2598H13.67C10.4 45.2598 7.75 42.6098 7.75 39.3398V24.2598C7.75 20.9898 10.4 18.3398 13.67 18.3398H17.37C20.64 18.3398 23.29 20.9898 23.29 24.2598V39.3398C23.29 42.6098 20.64 45.2598 17.37 45.2598Z" fill="#D4D6D7"/>
<path d="M17.37 46.0098H13.67C9.99 46.0098 7 43.0198 7 39.3398V24.2598C7 20.5798 9.99 17.5898 13.67 17.5898H17.37C21.05 17.5898 24.04 20.5798 24.04 24.2598V39.3398C24.04 43.0198 21.04 46.0098 17.37 46.0098ZM13.67 19.0898C10.82 19.0898 8.5 21.4098 8.5 24.2598V39.3398C8.5 42.1898 10.82 44.5098 13.67 44.5098H17.37C20.22 44.5098 22.54 42.1898 22.54 39.3398V24.2598C22.54 21.4098 20.22 19.0898 17.37 19.0898H13.67Z" fill="#7C3AA6"/>
<path d="M53.2499 28.4297H43.9399C43.5299 28.4297 43.1899 28.0897 43.1899 27.6797C43.1899 27.2697 43.5299 26.9297 43.9399 26.9297H53.2499C53.6599 26.9297 53.9999 27.2697 53.9999 27.6797C53.9999 28.0897 53.6599 28.4297 53.2499 28.4297Z" fill="#7C3AA6"/>
<path d="M51.5799 36.8906H43.9399C43.5299 36.8906 43.1899 36.5506 43.1899 36.1406C43.1899 35.7306 43.5299 35.3906 43.9399 35.3906H51.5799C51.9899 35.3906 52.3299 35.7306 52.3299 36.1406C52.3299 36.5506 51.9999 36.8906 51.5799 36.8906Z" fill="#7C3AA6"/>
<path d="M48.7499 44.3711H43.9399C43.5299 44.3711 43.1899 44.0311 43.1899 43.6211C43.1899 43.2111 43.5299 42.8711 43.9399 42.8711H48.7499C49.1599 42.8711 49.4999 43.2111 49.4999 43.6211C49.4999 44.0311 49.1699 44.3711 48.7499 44.3711Z" fill="#7C3AA6"/>
</g>
<defs>
<clipPath id="clip0">
<rect width="48.52" height="47.41" fill="white" transform="translate(7 1)"/>
</clipPath>
</defs>
</svg>
