<svg width="24" height="24" viewBox="0 0 24 24" xmlns="http://www.w3.org/2000/svg">
<path d="M19.3388 10.227C19.206 10.0983 19.0284 10.0263 18.8435 10.0263C18.6586 10.0263 18.4809 10.0983 18.3482 10.227L10.3951 18.1801C10.173 18.4062 9.90813 18.5858 9.61586 18.7084C9.3236 18.831 9.00984 18.8942 8.6929 18.8942C8.37595 18.8942 8.06219 18.831 7.76993 18.7084C7.47766 18.5858 7.21275 18.4062 6.99067 18.1801L6.64185 17.8312C6.41573 17.6092 6.23612 17.3443 6.11351 17.052C5.99091 16.7597 5.92778 16.446 5.92778 16.129C5.92778 15.8121 5.99091 15.4983 6.11351 15.206C6.23612 14.9138 6.41573 14.6489 6.64185 14.4268L15.0972 5.95751C15.2438 5.79354 15.4233 5.66236 15.6241 5.57254C15.8248 5.48272 16.0423 5.43629 16.2622 5.43629C16.4822 5.43629 16.6996 5.48272 16.9004 5.57254C17.1012 5.66236 17.2807 5.79354 17.4273 5.95751C17.5967 6.11368 17.7313 6.30367 17.8227 6.51517C17.914 6.72667 17.9599 6.95498 17.9575 7.18534C17.9423 7.63068 17.7518 8.05197 17.4273 8.35737L9.37658 16.2965C8.80452 16.8685 8.49756 16.5616 8.38593 16.4499C8.33845 16.4117 8.30095 16.3625 8.27665 16.3067C8.25235 16.2508 8.24198 16.1898 8.24642 16.129C8.31128 15.9007 8.44239 15.6968 8.62315 15.543L16.1157 8.05041C16.1811 7.98556 16.233 7.9084 16.2684 7.82338C16.3039 7.73837 16.3221 7.64719 16.3221 7.5551C16.3221 7.463 16.3039 7.37181 16.2684 7.2868C16.233 7.20179 16.1811 7.12463 16.1157 7.05977C15.9853 6.93195 15.81 6.86035 15.6274 6.86035C15.4448 6.86035 15.2695 6.93195 15.1391 7.05977L7.64644 14.5524C7.24093 14.9199 6.96657 15.4098 6.8651 15.9476C6.82516 16.2242 6.85391 16.5063 6.94881 16.7691C7.04371 17.0319 7.20184 17.2673 7.40925 17.4545C7.60681 17.6518 7.84357 17.8054 8.1042 17.9054C8.36484 18.0054 8.64355 18.0496 8.92234 18.0351C9.20113 18.0206 9.47379 17.9478 9.72268 17.8214C9.97156 17.6949 10.1912 17.5177 10.3672 17.301L18.3761 9.2922C18.9516 8.73373 19.2869 7.973 19.3109 7.1714C19.3204 6.75453 19.2421 6.34033 19.081 5.95571C18.92 5.57109 18.6798 5.22467 18.3761 4.93897C18.1005 4.64275 17.7669 4.40648 17.396 4.24493C17.0251 4.08338 16.6249 4 16.2204 4C15.8158 4 15.4156 4.08338 15.0447 4.24493C14.6738 4.40648 14.3402 4.64275 14.0647 4.93897L5.60936 13.3943C4.89876 14.1104 4.5 15.0783 4.5 16.0872C4.5 17.096 4.89876 18.0639 5.60936 18.78L5.95818 19.1288C6.67248 19.8428 7.64108 20.2439 8.65104 20.2439C9.661 20.2439 10.6296 19.8428 11.3439 19.1288L19.2969 11.1758C19.4195 11.0506 19.4916 10.8845 19.4993 10.7094C19.507 10.5344 19.4499 10.3626 19.3388 10.227Z" />
</svg>
