<svg width="22" height="23" viewBox="0 0 22 23" fill="none" xmlns="http://www.w3.org/2000/svg">
    <path d="M20.4398 11.05L11.2498 20.24C10.124 21.3659 8.59699 21.9983 7.0048 21.9983C5.41262 21.9983 3.88565 21.3659 2.7598 20.24C1.63396 19.1142 1.00146 17.5872 1.00146 15.995C1.00146 14.4028 1.63396 12.8759 2.7598 11.75L11.9498 2.56001C12.7004 1.80945 13.7183 1.38779 14.7798 1.38779C15.8413 1.38779 16.8592 1.80945 17.6098 2.56001C18.3604 3.31057 18.782 4.32855 18.782 5.39001C18.782 6.45147 18.3604 7.46945 17.6098 8.22001L8.4098 17.41C8.03452 17.7853 7.52553 17.9961 6.9948 17.9961C6.46407 17.9961 5.95508 17.7853 5.5798 17.41C5.20452 17.0347 4.99369 16.5257 4.99369 15.995C4.99369 15.4643 5.20452 14.9553 5.5798 14.58L14.0698 6.10001" stroke="#9AA0A6" stroke-width="2" stroke-linecap="round" stroke-linejoin="round"/>
</svg>
