<svg width="24" height="24" viewBox="0 0 24 24"  xmlns="http://www.w3.org/2000/svg">
<path d="M16.975 18.163C16.8171 18.1639 16.6605 18.1336 16.5143 18.0739C16.3681 18.0142 16.2351 17.9262 16.123 17.815L6.39099 8.07098C6.27911 7.95909 6.19036 7.82625 6.1298 7.68006C6.06925 7.53388 6.03809 7.3772 6.03809 7.21897C6.03809 7.06074 6.06925 6.90406 6.1298 6.75787C6.19036 6.61169 6.27911 6.47886 6.39099 6.36698C6.50288 6.25509 6.63571 6.16633 6.7819 6.10578C6.92808 6.04523 7.08476 6.01406 7.24299 6.01406C7.40122 6.01406 7.5579 6.04523 7.70409 6.10578C7.85028 6.16633 7.98311 6.25509 8.09499 6.36698L17.875 16.123C18.0985 16.3478 18.2239 16.6519 18.2239 16.969C18.2239 17.286 18.0985 17.5901 17.875 17.815C17.7572 17.9321 17.6164 18.0235 17.4615 18.0834C17.3066 18.1433 17.1409 18.1704 16.975 18.163Z" />
<path d="M7.19497 18.1869C6.95764 18.186 6.72594 18.1146 6.52916 17.9819C6.33238 17.8493 6.17936 17.6612 6.08945 17.4416C5.99954 17.2219 5.97677 16.9806 6.02404 16.748C6.0713 16.5154 6.18646 16.3021 6.35497 16.135L16.099 6.35495C16.2105 6.24248 16.3432 6.15321 16.4895 6.09229C16.6357 6.03136 16.7926 6 16.951 6C17.1094 6 17.2662 6.03136 17.4125 6.09229C17.5587 6.15321 17.6914 6.24248 17.803 6.35495C18.0265 6.57978 18.1519 6.88393 18.1519 7.20095C18.1519 7.51797 18.0265 7.82212 17.803 8.04695L8.04697 17.839C7.93484 17.9502 7.80187 18.0382 7.65566 18.0979C7.50946 18.1576 7.35289 18.1879 7.19497 18.1869Z" />
</svg>
