<svg width="44" height="44" viewBox="0 0 44 44" fill="none" xmlns="http://www.w3.org/2000/svg">
<circle cx="22" cy="22" r="22" fill="white"/>
<path d="M21.9324 29.5392V31.7731" stroke="#424242" stroke-width="2.4" stroke-linecap="round" stroke-linejoin="round"/>
<path d="M28.38 22.2285C28.38 23.9385 27.7007 25.5785 26.4915 26.7877C25.2823 27.9968 23.6423 28.6761 21.9323 28.6761C20.2223 28.6761 18.5823 27.9968 17.3731 26.7877C16.1639 25.5785 15.4846 23.9385 15.4846 22.2285" stroke="#424242" stroke-width="2.6" stroke-linecap="round" stroke-linejoin="round"/>
<path d="M22.0085 12.6923H21.8562C20.2159 12.6923 18.8862 14.022 18.8862 15.6623V21.9069C18.8862 23.5472 20.2159 24.8769 21.8562 24.8769H22.0085C23.6488 24.8769 24.9785 23.5472 24.9785 21.9069V15.6623C24.9785 14.022 23.6488 12.6923 22.0085 12.6923Z" stroke="#424242" stroke-width="2.6" stroke-linecap="round" stroke-linejoin="round"/>
<rect x="36.6252" y="5.41541" width="1.69231" height="44" transform="rotate(45 36.6252 5.41541)" fill="#FF6B00"/>
</svg>
