<svg width="40" height="40" viewBox="0 0 40 40" fill="none" xmlns="http://www.w3.org/2000/svg">
<circle cx="20" cy="20" r="20" fill="white"/>
<path d="M19.9385 26.8538V28.8846" stroke="#424242" stroke-width="2.4" stroke-linecap="round" stroke-linejoin="round"/>
<path d="M25.8 20.2077C25.8 21.7622 25.1824 23.2532 24.0832 24.3524C22.9839 25.4517 21.493 26.0692 19.9384 26.0692C18.3839 26.0692 16.893 25.4517 15.7937 24.3524C14.6945 23.2532 14.0769 21.7622 14.0769 20.2077" stroke="#424242" stroke-width="2.6" stroke-linecap="round" stroke-linejoin="round"/>
<path d="M20.0076 11.5385H19.8692C18.378 11.5385 17.1692 12.7473 17.1692 14.2385V19.9154C17.1692 21.4065 18.378 22.6154 19.8692 22.6154H20.0076C21.4988 22.6154 22.7076 21.4065 22.7076 19.9154V14.2385C22.7076 12.7473 21.4988 11.5385 20.0076 11.5385Z" stroke="#424242" stroke-width="2.6" stroke-linecap="round" stroke-linejoin="round"/>
</svg>
