<svg width="24" height="24" viewBox="0 0 24 24" xmlns="http://www.w3.org/2000/svg">
<path d="M1.95506 16.1355C2.06661 16.2479 2.19933 16.3372 2.34556 16.3981C2.49179 16.459 2.64864 16.4904 2.80706 16.4904C2.96547 16.4904 3.12232 16.459 3.26855 16.3981C3.41478 16.3372 3.5475 16.2479 3.65906 16.1355L4.85906 14.9355C6.47733 16.4248 8.52906 17.3581 10.7151 17.5995V19.5315C10.7151 19.8497 10.8415 20.1549 11.0665 20.38C11.2916 20.605 11.5968 20.7315 11.9151 20.7315C12.2333 20.7315 12.5385 20.605 12.7636 20.38C12.9886 20.1549 13.1151 19.8497 13.1151 19.5315V17.5995C15.3624 17.3581 17.4694 16.3889 19.1151 14.8395L20.4111 16.1355C20.5226 16.2479 20.6553 16.3372 20.8016 16.3981C20.9478 16.459 21.1046 16.4904 21.2631 16.4904C21.4215 16.4904 21.5783 16.459 21.7245 16.3981C21.8708 16.3372 22.0035 16.2479 22.1151 16.1355C22.3386 15.9106 22.464 15.6065 22.464 15.2895C22.464 14.9724 22.3386 14.6683 22.1151 14.4435L20.6271 12.9915C20.881 12.5819 21.1094 12.1571 21.3111 11.7195C21.4892 11.3233 21.5813 10.8938 21.5813 10.4595C21.5813 10.0251 21.4892 9.59562 21.3111 9.19946C20.4911 7.39917 19.1676 5.87469 17.5003 4.81002C15.833 3.74534 13.8932 3.18598 11.9151 3.19946C9.93688 3.18598 7.99708 3.74534 6.3298 4.81002C4.66252 5.87469 3.33902 7.39917 2.51906 9.19946C2.33837 9.59706 2.24488 10.0287 2.24488 10.4655C2.24488 10.9022 2.33837 11.3339 2.51906 11.7315C2.73407 12.2131 2.99106 12.6749 3.28706 13.1115L1.95506 14.4315C1.84258 14.543 1.75331 14.6757 1.69239 14.822C1.63146 14.9682 1.6001 15.125 1.6001 15.2835C1.6001 15.4419 1.63146 15.5987 1.69239 15.7449C1.75331 15.8912 1.84258 16.0239 1.95506 16.1355ZM4.71505 10.1355C5.34597 8.76075 6.36184 7.59839 7.63969 6.78908C8.91754 5.97978 10.4026 5.55823 11.9151 5.57546C13.4278 5.55671 14.9135 5.97765 16.1917 6.78713C17.4698 7.59661 18.4854 8.75982 19.1151 10.1355C19.1565 10.2216 19.1781 10.3159 19.1781 10.4115C19.1781 10.507 19.1565 10.6014 19.1151 10.6875C18.4817 12.0603 17.4653 13.221 16.188 14.0299C14.9107 14.8389 13.4269 15.2617 11.9151 15.2475C10.4032 15.2617 8.91944 14.8389 7.64215 14.0299C6.36485 13.221 5.34842 12.0603 4.71505 10.6875C4.68071 10.6079 4.663 10.5221 4.663 10.4355C4.663 10.3488 4.68071 10.263 4.71505 10.1835V10.1355Z"/>
</svg>
