<svg width="40" height="40" viewBox="0 0 40 40" fill="none" xmlns="http://www.w3.org/2000/svg">
  <path d="M22.588 15.4H23.632C23.9503 15.4 24.2555 15.2736 24.4805 15.0485C24.7056 14.8235 24.832 14.5183 24.832 14.2C24.832 13.8817 24.7056 13.5765 24.4805 13.3515C24.2555 13.1264 23.9503 13 23.632 13H22.588C19.864 13 18.232 14.788 18.232 17.8H17.2C16.8817 17.8 16.5765 17.9264 16.3515 18.1515C16.1264 18.3765 16 18.6817 16 19C16 19.3183 16.1264 19.6235 16.3515 19.8485C16.5765 20.0736 16.8817 20.2 17.2 20.2H18.22V26.392C18.22 26.7103 18.3464 27.0155 18.5715 27.2405C18.7965 27.4656 19.1017 27.592 19.42 27.592C19.7383 27.592 20.0435 27.4656 20.2685 27.2405C20.4936 27.0155 20.62 26.7103 20.62 26.392V20.2H22.732C23.0503 20.2 23.3555 20.0736 23.5805 19.8485C23.8056 19.6235 23.932 19.3183 23.932 19C23.932 18.6817 23.8056 18.3765 23.5805 18.1515C23.3555 17.9264 23.0503 17.8 22.732 17.8H20.632C20.632 15.688 21.568 15.4 22.588 15.4Z" fill="#4858CC"/>
  <circle cx="20" cy="20" r="19.5" stroke="#9E58CC"/>
  <circle cx="20" cy="20" r="19.5" stroke="url(#paint0_linear)"/>
  <defs>
    <linearGradient id="paint0_linear" x1="6" y1="6.2" x2="33.8" y2="34" gradientUnits="userSpaceOnUse">
      <stop stop-color="#0A58CC"/>
      <stop offset="1" stop-color="#9E58CC"/>
    </linearGradient>
  </defs>
</svg>
