<svg width="24" height="24" viewBox="-3 -3 36 36" xmlns="http://www.w3.org/2000/svg">
<path d="M17.008 9.78401L12.664 5.2C11.8781 4.4764 10.8631 4.0517 9.796 4H5.704C5.25304 4.00314 4.82145 4.18369 4.50256 4.50257C4.18368 4.82145 4.00314 5.25304 4 5.704V18.388C4.00314 18.839 4.18368 19.2706 4.50256 19.5894C4.82145 19.9083 5.25304 20.0889 5.704 20.092H16.504C16.955 20.0889 17.3866 19.9083 17.7054 19.5894C18.0243 19.2706 18.2049 18.839 18.208 18.388V12.664C18.1302 11.5994 17.7091 10.5889 17.008 9.78401ZM12.28 8.28401L14.308 10.42H12.28V8.28401ZM6.4 17.656V6.364H9.796H9.88V12.796H15.772V17.596L6.4 17.656Z" />
</svg>
