<svg width="24" height="24" viewBox="0 0 24 24" xmlns="http://www.w3.org/2000/svg">
<path d="M18.544 10.672H11.908C11.5897 10.672 11.2845 10.7984 11.0595 11.0235C10.8344 11.2485 10.708 11.5538 10.708 11.872C10.708 12.1903 10.8344 12.4955 11.0595 12.7205C11.2845 12.9456 11.5897 13.072 11.908 13.072H17.212C16.9398 14.2782 16.2688 15.3574 15.3075 16.1352C14.3461 16.9129 13.1506 17.3437 11.9141 17.358C10.6777 17.3722 9.47253 16.9691 8.49351 16.2137C7.51448 15.4584 6.81879 14.3949 6.51888 13.1953C6.21897 11.9957 6.33238 10.73 6.84076 9.60275C7.34914 8.47554 8.2228 7.55271 9.32051 6.98342C10.4182 6.41413 11.6758 6.23165 12.8901 6.46548C14.1043 6.69931 15.2042 7.33578 16.012 8.27202C16.2235 8.50117 16.516 8.63898 16.8273 8.65625C17.1387 8.67351 17.4446 8.56888 17.6801 8.36451C17.9157 8.16015 18.0625 7.87211 18.0893 7.56141C18.1162 7.25072 18.021 6.94177 17.824 6.70002C16.6096 5.30846 14.9451 4.38745 13.121 4.09766C11.2969 3.80787 9.42895 4.16771 7.84303 5.11438C6.25712 6.06106 5.0539 7.53448 4.4433 9.27761C3.83269 11.0207 3.85347 12.9229 4.50198 14.6523C5.1505 16.3817 6.3856 17.8285 7.99181 18.7403C9.59801 19.6521 11.4734 19.9711 13.2907 19.6415C15.108 19.312 16.752 18.3548 17.9358 16.9371C19.1195 15.5193 19.768 13.731 19.768 11.884C19.7696 11.7234 19.739 11.5641 19.6779 11.4155C19.6168 11.2669 19.5266 11.1321 19.4124 11.0191C19.2983 10.9061 19.1626 10.8171 19.0134 10.7575C18.8642 10.6979 18.7046 10.6688 18.544 10.672Z" />
</svg>
