<svg width="24" height="24" viewBox="0 0 24 24"  >
<path d="M19.1402 17.466C20.4287 15.9285 21.1378 13.9881 21.1442 11.982C21.0597 9.52031 20.0008 7.193 18.2005 5.51195C16.4002 3.83091 14.0059 2.93381 11.5442 3.018C10.32 2.94036 9.09296 3.11443 7.93871 3.52949C6.78447 3.94454 5.72754 4.59178 4.83317 5.43122C3.9388 6.27066 3.22597 7.28449 2.73869 8.41015C2.2514 9.5358 2 10.7494 2 11.976C2 13.2026 2.2514 14.4162 2.73869 15.5418C3.22597 16.6675 3.9388 17.6814 4.83317 18.5208C5.72754 19.3602 6.78447 20.0074 7.93871 20.4225C9.09296 20.8376 10.32 21.0117 11.5442 20.934C12.8516 20.9395 14.1476 20.6909 15.3602 20.202L18.5882 21.27C18.7035 21.2869 18.8208 21.2869 18.9362 21.27V21.27C19.0748 21.2716 19.2125 21.2458 19.3412 21.1942C19.4699 21.1426 19.5872 21.0661 19.6864 20.9692C19.7856 20.8723 19.8647 20.7567 19.9192 20.6292C19.9737 20.5017 20.0026 20.3647 20.0042 20.226C20.0064 20.04 19.9565 19.8571 19.8602 19.698L19.1402 17.466ZM17.2922 15.942L16.4402 16.962L16.8482 18.162L16.1402 17.934L15.3002 17.658L14.4842 17.982C13.5636 18.3622 12.5761 18.554 11.5802 18.546C10.6662 18.6335 9.74412 18.529 8.87294 18.2393C8.00177 17.9495 7.20077 17.4809 6.52134 16.8634C5.84191 16.2459 5.29903 15.4932 4.92755 14.6537C4.55607 13.8141 4.36417 12.9061 4.36417 11.988C4.36417 11.0699 4.55607 10.1619 4.92755 9.32234C5.29903 8.48275 5.84191 7.73008 6.52134 7.11261C7.20077 6.49513 8.00177 6.02647 8.87294 5.73671C9.74412 5.44695 10.6662 5.34248 11.5802 5.42999C12.484 5.38806 13.3872 5.5246 14.2382 5.8318C15.0892 6.13901 15.8714 6.61086 16.54 7.22042C17.2086 7.82998 17.7506 8.56529 18.135 9.38436C18.5193 10.2034 18.7386 11.0902 18.7802 11.994C18.7546 13.4423 18.2289 14.8372 17.2922 15.942V15.942Z"  />
<path d="M11.6282 14.958C11.3099 14.958 11.0047 15.0844 10.7797 15.3094C10.5546 15.5345 10.4282 15.8397 10.4282 16.158C10.4282 16.4762 10.5546 16.7814 10.7797 17.0065C11.0047 17.2315 11.3099 17.358 11.6282 17.358C11.9465 17.358 12.2517 17.2315 12.4767 17.0065C12.7018 16.7814 12.8282 16.4762 12.8282 16.158C12.8282 15.8397 12.7018 15.5345 12.4767 15.3094C12.2517 15.0844 11.9465 14.958 11.6282 14.958Z"  />
<path d="M12.7922 6.71403C11.9904 6.44804 11.1175 6.49724 10.3508 6.85164C9.58407 7.20603 8.98101 7.83903 8.66415 8.62203C8.58645 8.76184 8.53749 8.91578 8.52014 9.07479C8.50279 9.2338 8.51741 9.39468 8.56313 9.54796C8.60885 9.70124 8.68476 9.84384 8.78639 9.96736C8.88801 10.0909 9.01331 10.1928 9.15491 10.2672C9.29651 10.3416 9.45155 10.387 9.61093 10.4006C9.7703 10.4142 9.93079 10.3958 10.083 10.3465C10.2351 10.2972 10.3759 10.218 10.497 10.1135C10.6181 10.009 10.7171 9.88134 10.7882 9.73804C10.7882 9.73804 11.3642 8.73004 11.8562 8.93404C11.9642 8.96968 12.062 9.03081 12.1414 9.11228C12.2207 9.19374 12.2793 9.29314 12.3122 9.40204C12.3412 9.49635 12.3487 9.59597 12.3342 9.69358C12.3197 9.79119 12.2834 9.88427 12.2282 9.96602C12.0213 10.2364 11.7881 10.4856 11.5322 10.71C11.2265 10.9206 10.9719 11.197 10.7871 11.5188C10.6022 11.8407 10.4919 12.1999 10.4642 12.57V13.29C10.4642 13.6083 10.5906 13.9135 10.8156 14.1386C11.0407 14.3636 11.3459 14.49 11.6642 14.49C11.9824 14.49 12.2876 14.3636 12.5127 14.1386C12.7377 13.9135 12.8642 13.6083 12.8642 13.29V12.75C12.9503 12.6561 13.0425 12.5679 13.1402 12.486C13.5281 12.149 13.8781 11.7708 14.1842 11.358C14.4474 10.9821 14.6238 10.5524 14.7006 10.1C14.7774 9.64757 14.7526 9.18373 14.6282 8.74204C14.4947 8.28752 14.2602 7.86906 13.9423 7.51788C13.6244 7.16671 13.2312 6.89191 12.7922 6.71403V6.71403Z"  />
</svg>
