<svg width="24" height="24" viewBox="0 0 24 24" xmlns="http://www.w3.org/2000/svg">
<path d="M12.0599 9.07201C12.3637 9.07201 12.6607 8.98191 12.9133 8.81314C13.1659 8.64436 13.3627 8.40447 13.479 8.1238C13.5952 7.84313 13.6257 7.5343 13.5664 7.23634C13.5071 6.93839 13.3608 6.6647 13.146 6.44989C12.9312 6.23507 12.6575 6.08878 12.3596 6.02951C12.0616 5.97025 11.7528 6.00067 11.4721 6.11693C11.1915 6.23318 10.9516 6.43006 10.7828 6.68265C10.614 6.93524 10.5239 7.23222 10.5239 7.53601C10.5239 7.94339 10.6857 8.33406 10.9738 8.62212C11.2619 8.91018 11.6526 9.07201 12.0599 9.07201Z" />
<path d="M12.06 10.584C11.7533 10.5817 11.4529 10.6704 11.1967 10.8391C10.9406 11.0077 10.7403 11.2486 10.6213 11.5313C10.5023 11.8139 10.4699 12.1255 10.5283 12.4266C10.5867 12.7277 10.7331 13.0046 10.9491 13.2223C11.1652 13.44 11.441 13.5886 11.7416 13.6493C12.0422 13.7101 12.354 13.6801 12.6376 13.5633C12.9212 13.4465 13.1636 13.2481 13.3343 12.9933C13.5049 12.7385 13.596 12.4387 13.596 12.132C13.5976 11.9293 13.559 11.7283 13.4826 11.5405C13.4061 11.3528 13.2932 11.1821 13.1504 11.0382C13.0076 10.8942 12.8377 10.78 12.6506 10.7021C12.4635 10.6242 12.2627 10.584 12.06 10.584Z" />
<path d="M12.0599 15.1797C11.7561 15.1797 11.4592 15.2698 11.2066 15.4385C10.954 15.6073 10.7571 15.8472 10.6408 16.1279C10.5246 16.4085 10.4942 16.7174 10.5534 17.0153C10.6127 17.3133 10.759 17.587 10.9738 17.8018C11.1886 18.0166 11.4623 18.1629 11.7603 18.2222C12.0582 18.2814 12.3671 18.251 12.6477 18.1348C12.9284 18.0185 13.1683 17.8216 13.3371 17.569C13.5058 17.3165 13.5959 17.0195 13.5959 16.7157C13.5959 16.3083 13.4341 15.9176 13.146 15.6296C12.858 15.3415 12.4673 15.1797 12.0599 15.1797Z" />
</svg>
