<svg width="44" height="44" viewBox="0 0 44 44" fill="none" xmlns="http://www.w3.org/2000/svg">
<circle cx="22" cy="22" r="22" fill="#FF6B00"/>
<path d="M21.9321 29.5391V31.7729" stroke="white" stroke-width="2.4" stroke-linecap="round" stroke-linejoin="round"/>
<path d="M28.3798 22.2285C28.3798 23.9386 27.7004 25.5785 26.4913 26.7877C25.2821 27.9969 23.6421 28.6762 21.9321 28.6762C20.222 28.6762 18.582 27.9969 17.3729 26.7877C16.1637 25.5785 15.4844 23.9386 15.4844 22.2285" stroke="white" stroke-width="2.6" stroke-linecap="round" stroke-linejoin="round"/>
<path d="M22.0081 12.6914H21.8557C20.2155 12.6914 18.8857 14.0211 18.8857 15.6614V21.906C18.8857 23.5463 20.2155 24.876 21.8557 24.876H22.0081C23.6483 24.876 24.9781 23.5463 24.9781 21.906V15.6614C24.9781 14.0211 23.6483 12.6914 22.0081 12.6914Z" stroke="white" stroke-width="2.6" stroke-linecap="round" stroke-linejoin="round"/>
<rect x="36.6255" y="5.41602" width="1.69231" height="44" transform="rotate(45 36.6255 5.41602)" fill="white"/>
</svg>
