<svg width="22" height="18" viewBox="0 0 22 18" xmlns="http://www.w3.org/2000/svg">
<path d="M1.98425 17.3946C1.53561 17.3946 1.08697 17.1895 0.80283 16.8232C0.399056 16.2959 0.399056 15.5634 0.80283 15.0507L4.72094 10.0259C5.21444 9.38134 6.15658 9.26417 6.81458 9.7476C7.47259 10.231 7.59222 11.1539 7.09872 11.7985L6.50053 12.5457L16.0565 8.72211L6.53044 4.88401L7.21836 5.76297C7.72681 6.40755 7.59222 7.33046 6.93422 7.81389C6.27622 8.31196 5.33408 8.18012 4.84058 7.53554L0.80283 2.36431C0.399056 1.83693 0.399056 1.10445 0.80283 0.577079C1.20661 0.0497005 1.92443 -0.140741 2.55252 0.108298L20.5728 7.34511C21.1411 7.56484 21.5 8.10687 21.5 8.70746C21.5 9.30814 21.1261 9.83554 20.5728 10.0699L2.55252 17.2921C2.37306 17.3653 2.17865 17.3946 1.98425 17.3946Z" />
</svg>
