<svg width="16" height="16" viewBox="0 0 16 16" fill="none" xmlns="http://www.w3.org/2000/svg">
<path d="M15.4256 0.59961L15.3588 0.532986C15.0252 0.19987 14.558 0 14.0242 0H13.9574H13.8907H7.75135C6.55018 0 5.54919 0.932726 5.54919 1.9987C5.54919 3.06467 6.55018 3.9974 7.75135 3.9974H8.95253L0.744479 12.0588C-0.189771 12.9915 -0.256503 14.4573 0.611015 15.39C1.47853 16.2561 2.94664 16.1895 3.88089 15.2567L11.9555 7.19532L11.9555 7.79493C11.9555 8.99415 12.8897 10.1267 13.9574 10.1267C15.0919 10.1267 15.9594 9.21251 15.9594 8.01329V2.26519C16.0929 1.66558 15.8927 1.06597 15.4256 0.59961Z" fill="#F6C435"/>
</svg>
