<svg width="24" height="24" viewBox="0 0 24 24" xmlns="http://www.w3.org/2000/svg">
<path d="M16.628 5H5.396C4.4952 5.00632 3.63327 5.36777 2.99741 6.00587C2.36156 6.64397 2.00314 7.50718 2 8.40799V14.78C2.00316 15.6797 2.36197 16.5416 2.99816 17.1778C3.63435 17.814 4.4963 18.1728 5.396 18.176H16.628C17.5287 18.176 18.3925 17.8182 19.0293 17.1813C19.6662 16.5445 20.024 15.6807 20.024 14.78V8.468C20.032 8.01644 19.9501 7.5678 19.7831 7.14816C19.6162 6.72852 19.3675 6.34626 19.0515 6.02358C18.7355 5.70089 18.3585 5.44422 17.9425 5.26851C17.5265 5.09279 17.0796 5.00152 16.628 5ZM17.624 14.78C17.6209 15.0432 17.515 15.2947 17.3288 15.4808C17.1427 15.6669 16.8912 15.7729 16.628 15.776H5.396C5.13281 15.7729 4.88128 15.6669 4.69517 15.4808C4.50905 15.2947 4.40312 15.0432 4.4 14.78V8.468C4.40304 8.20367 4.50858 7.95084 4.69438 7.7628C4.88018 7.57477 5.13173 7.46621 5.396 7.46H16.628C16.8923 7.46621 17.1438 7.57477 17.3296 7.7628C17.5154 7.95084 17.621 8.20367 17.624 8.468V14.78Z" />
<path d="M13.7478 11.1904L9.69178 9.13839C9.59914 9.06901 9.48774 9.02915 9.37211 9.02401C9.25649 9.01886 9.14199 9.04868 9.04355 9.10955C8.94511 9.17043 8.86728 9.25955 8.82023 9.3653C8.77319 9.47105 8.7591 9.58852 8.77979 9.70239V13.6144C8.76208 13.7273 8.77837 13.843 8.82659 13.9466C8.87481 14.0503 8.95277 14.1372 9.05056 14.1964C9.14836 14.2556 9.26156 14.2843 9.37574 14.279C9.48993 14.2736 9.59994 14.2345 9.69178 14.1664L13.7478 12.0664C14.2278 11.8624 14.2278 11.4424 13.7478 11.1904Z" />
<path d="M22.256 16.3878C22.256 17.2208 22.009 18.0352 21.5462 18.7278C21.0834 19.4205 20.4255 19.9604 19.6559 20.2792C18.8863 20.598 18.0394 20.6814 17.2223 20.5189C16.4053 20.3563 15.6548 19.9552 15.0657 19.3661C14.4766 18.7771 14.0755 18.0265 13.913 17.2095C13.7504 16.3924 13.8339 15.5456 14.1527 14.7759C14.4714 14.0063 15.0113 13.3485 15.704 12.8856C16.3966 12.4228 17.211 12.1758 18.044 12.1758C19.1611 12.1758 20.2325 12.6196 21.0224 13.4095C21.8123 14.1994 22.256 15.2707 22.256 16.3878Z" fill="#FF4A00"/>
</svg>
