<svg width="40" height="40" viewBox="0 0 40 40" fill="none" xmlns="http://www.w3.org/2000/svg">
  <path d="M28.8804 23.672L25.6884 18.8L28.3884 15.956C28.5208 15.8458 28.6279 15.7084 28.7024 15.5531C28.777 15.3978 28.8172 15.2283 28.8204 15.056C28.785 14.7633 28.6431 14.4939 28.4218 14.2991C28.2005 14.1044 27.9152 13.9979 27.6204 14C27.4148 14.0135 27.2146 14.0722 27.0342 14.1717C26.8538 14.2712 26.6975 14.4093 26.5764 14.576L22.4364 19.148V15.32C22.4317 15.0953 22.3785 14.8743 22.2804 14.672C22.2405 14.6053 22.1964 14.5412 22.1484 14.48C22.1117 14.4223 22.0672 14.3698 22.0164 14.324L21.7884 14.168L21.5844 14.084C21.4807 14.0726 21.3761 14.0726 21.2724 14.084H21.1164H21.0444C20.8888 14.0866 20.7347 14.115 20.5884 14.168C20.383 14.2485 20.2038 14.3841 20.0704 14.5598C19.937 14.7355 19.8547 14.9446 19.8324 15.164C19.8376 15.1878 19.8376 15.2123 19.8324 15.236L16.1484 23.12L13.0644 15.236C12.8244 14.456 12.4404 14.036 11.7324 14.036C11.0244 14.036 10.4004 14.324 10.4004 15.236C10.41 15.4988 10.4627 15.7583 10.5564 16.004L14.5044 25.136C14.7804 25.892 15.2964 26.048 16.1124 26.048C16.9284 26.048 17.4444 25.892 17.7204 25.136L19.8444 20.864V24.728C19.8444 25.0781 19.9835 25.4139 20.231 25.6614C20.4786 25.909 20.8143 26.048 21.1644 26.048C21.5145 26.048 21.8502 25.909 22.0978 25.6614C22.3453 25.4139 22.4844 25.0781 22.4844 24.728V22.112L23.9244 20.66L26.9724 25.364C27.0776 25.5878 27.2493 25.7736 27.4641 25.896C27.6789 26.0184 27.9263 26.0715 28.1724 26.048C28.3488 26.0716 28.5282 26.0556 28.6977 26.0013C28.8672 25.9469 29.0224 25.8556 29.1522 25.7338C29.282 25.612 29.3831 25.4629 29.4482 25.2973C29.5132 25.1316 29.5406 24.9536 29.5284 24.776C29.4235 24.3532 29.1985 23.9697 28.8804 23.672Z" fill="#4758CC"/>
  <circle cx="20" cy="20" r="19.5" stroke="#9E58CC"/>
  <circle cx="20" cy="20" r="19.5" stroke="url(#paint0_linear)"/>
  <defs>
    <linearGradient id="paint0_linear" x1="6" y1="6.2" x2="33.8" y2="34" gradientUnits="userSpaceOnUse">
      <stop stop-color="#0A58CC"/>
      <stop offset="1" stop-color="#9E58CC"/>
    </linearGradient>
  </defs>
</svg>
