
<svg width="20" height="20" viewBox="0 0 20 20" fill="none" xmlns="http://www.w3.org/2000/svg">
    <path d="M10.0001 19.6C11.8988 19.6 13.7549 19.037 15.3336 17.9821C16.9123 16.9272 18.1427 15.4279 18.8693 13.6737C19.5959 11.9196 19.7861 9.98934 19.4156 8.12712C19.0452 6.2649 18.1309 4.55435 16.7883 3.21176C15.4457 1.86918 13.7352 0.954872 11.873 0.584454C10.0107 0.214035 8.0805 0.404148 6.32633 1.13075C4.57216 1.85735 3.07284 3.0878 2.01798 4.66652C0.96312 6.24523 0.400091 8.10127 0.400091 9.99998C0.400091 12.5461 1.41152 14.9879 3.21187 16.7882C5.01222 18.5886 7.45401 19.6 10.0001 19.6ZM10.0001 2.79997C11.4241 2.79997 12.8162 3.22225 14.0002 4.0134C15.1842 4.80454 16.1071 5.92903 16.652 7.24466C17.197 8.56029 17.3396 10.008 17.0617 11.4046C16.7839 12.8013 16.0982 14.0842 15.0913 15.0911C14.0843 16.0981 12.8014 16.7838 11.4047 17.0616C10.0081 17.3395 8.5604 17.1969 7.24477 16.6519C5.92914 16.107 4.80465 15.1841 4.01351 14.0001C3.22236 12.8161 2.80009 11.424 2.80009 9.99998C2.79535 9.05143 2.97808 8.1113 3.33779 7.2336C3.6975 6.3559 4.22709 5.55793 4.89615 4.88553C5.5652 4.21313 6.36053 3.67955 7.23643 3.31547C8.11233 2.95139 9.05154 2.76396 10.0001 2.76398V2.79997Z" fill="#FF6B00"/>
    <path d="M10.0002 11.632C10.3185 11.632 10.6237 11.5055 10.8487 11.2805C11.0738 11.0554 11.2002 10.7502 11.2002 10.432V5.63196C11.2002 5.3137 11.0738 5.00847 10.8487 4.78343C10.6237 4.55838 10.3185 4.43196 10.0002 4.43196C9.68193 4.43196 9.37671 4.55838 9.15166 4.78343C8.92662 5.00847 8.80019 5.3137 8.80019 5.63196V10.432C8.80019 10.7502 8.92662 11.0554 9.15166 11.2805C9.37671 11.5055 9.68193 11.632 10.0002 11.632Z" fill="#FF6B00"/>
    <path d="M10.0002 15.316C10.3296 15.316 10.6455 15.1851 10.8784 14.9522C11.1113 14.7193 11.2422 14.4034 11.2422 14.074C11.2422 13.7446 11.1113 13.4287 10.8784 13.1957C10.6455 12.9628 10.3296 12.832 10.0002 12.832C9.67079 12.832 9.35488 12.9628 9.12196 13.1957C8.88904 13.4287 8.75819 13.7446 8.75819 14.074C8.75819 14.4034 8.88904 14.7193 9.12196 14.9522C9.35488 15.1851 9.67079 15.316 10.0002 15.316Z" fill="#FF6B00"/>
</svg>
