<svg width="120" height="120" viewBox="0 0 120 120" fill="none" xmlns="http://www.w3.org/2000/svg">
<g clip-path="url(#clip0)">
<path d="M24.5339 82.2016L18.0109 112.284H0V117.823H58.1688V112.284L64.1087 82.2016H24.5339Z" fill="#2F2C41"/>
<path d="M106.508 0.683273H19.933C12.8544 0.683273 7.12402 6.41361 7.12402 13.4923V61.8767C7.12402 68.9554 12.8544 74.6857 19.933 74.6857H78.1565L70.4584 84.6796L95.466 74.6857H106.508C113.586 74.6857 119.317 68.9554 119.317 61.8767V13.4923C119.317 6.42272 113.577 0.683273 106.508 0.683273Z" fill="#7C3AA6"/>
<path d="M70.4585 85.3629C70.249 85.3629 70.0486 85.2627 69.9119 85.0896C69.7297 84.8436 69.7297 84.5065 69.9119 84.2605L76.7628 75.369H19.9332C12.4901 75.369 6.44092 69.3198 6.44092 61.8767V13.4923C6.44092 6.0492 12.4901 0 19.9332 0H106.508C113.951 0 120 6.0492 120 13.4923V61.8767C120 69.3198 113.951 75.369 106.508 75.369H95.5937L70.7136 85.3173C70.6316 85.3447 70.5405 85.3629 70.4585 85.3629ZM19.9332 1.36653C13.2463 1.36653 7.80745 6.80534 7.80745 13.4923V61.8767C7.80745 68.5636 13.2463 74.0024 19.9332 74.0024H78.1567C78.4209 74.0024 78.6577 74.1482 78.7671 74.3851C78.8764 74.6219 78.8582 74.8952 78.6942 75.1048L72.5174 83.1218L95.2019 74.0571C95.2839 74.0206 95.3659 74.0115 95.457 74.0115H106.499C113.186 74.0115 118.624 68.5727 118.624 61.8858V13.4923C118.624 6.80534 113.186 1.36653 106.499 1.36653H19.9332Z" fill="#7C3AA6"/>
<path d="M48.2751 31.2301C48.2751 31.2301 54.4973 27.0667 63.2523 26.1739C66.951 25.8004 71.8068 19.4324 72.982 16.4351C74.1481 13.4378 73.7564 11.3789 74.3394 10.067C74.9225 8.75517 80.9535 9.69352 81.3452 14.0027C81.7369 18.3118 80.9444 20.9264 80.17 23.1767C79.3956 25.4269 78.0291 27.1123 78.0291 27.1123C78.0291 27.1123 79.9787 27.1123 85.2262 27.1123C90.4737 27.1123 86.7293 37.2246 86.7293 37.2246C86.7293 37.2246 88.8247 38.2541 87.7952 41.9984C86.7749 45.7427 84.6795 46.1162 84.6795 46.1162C84.6795 46.1162 86.0916 48.4576 84.1967 50.9902C82.3018 53.5229 81.081 53.7051 81.081 53.7051C81.081 53.7051 81.6185 56.3744 77.7284 57.5496C73.8384 58.7248 67.1241 57.9049 58.7609 55.5362C54.0601 54.2061 48.2568 50.7169 48.2568 50.7169V31.2301H48.2751Z" fill="#FEAA61"/>
<path d="M50.3064 55.5363H40.6587C39.3103 55.5363 38.208 54.443 38.208 53.0856V29.5174C38.208 28.1691 39.3012 27.0668 40.6587 27.0668H50.2973C51.6456 27.0668 52.7479 28.16 52.7479 29.5174V53.0947C52.7571 54.443 51.6547 55.5363 50.3064 55.5363Z" fill="#CDCDCD"/>
<path d="M50.3066 56.2195H40.6588C38.9279 56.2195 37.5249 54.8165 37.5249 53.0856V29.5174C37.5249 27.7865 38.9279 26.3835 40.6588 26.3835H50.2975C52.0284 26.3835 53.4314 27.7865 53.4314 29.5174V53.0947C53.4405 54.8165 52.0284 56.2195 50.3066 56.2195ZM40.6588 27.75C39.684 27.75 38.8914 28.5426 38.8914 29.5174V53.0947C38.8914 54.0695 39.684 54.8621 40.6588 54.8621H50.2975C51.2722 54.8621 52.0648 54.0695 52.0648 53.0947V29.5174C52.0648 28.5426 51.2722 27.75 50.2975 27.75H40.6588Z" fill="#7C3AA6"/>
<path d="M86.6607 37.6238H75.3005C74.9293 37.6238 74.6216 37.3141 74.6216 36.9406C74.6216 36.567 74.9293 36.2573 75.3005 36.2573H86.6516C87.0228 36.2573 87.3305 36.567 87.3305 36.9406C87.3305 37.3141 87.0318 37.6238 86.6607 37.6238Z" fill="#EB8F40"/>
<path d="M84.6884 46.5718H75.3048C74.9313 46.5718 74.6216 46.262 74.6216 45.8885C74.6216 45.515 74.9313 45.2052 75.3048 45.2052H84.6884C85.0619 45.2052 85.3717 45.515 85.3717 45.8885C85.3717 46.262 85.071 46.5718 84.6884 46.5718Z" fill="#EB8F40"/>
<path d="M81.2174 54.4884H75.3048C74.9313 54.4884 74.6216 54.1787 74.6216 53.8052C74.6216 53.4316 74.9313 53.1219 75.3048 53.1219H81.2174C81.5909 53.1219 81.9007 53.4316 81.9007 53.8052C81.9007 54.1787 81.5909 54.4884 81.2174 54.4884Z" fill="#EB8F40"/>
<path d="M66.769 93.5076C66.4502 93.5076 66.1678 93.2889 66.104 92.9609C66.0311 92.5874 66.268 92.2321 66.6324 92.1501L86.602 87.9959C86.9664 87.923 87.3308 88.1599 87.4128 88.5243C87.4948 88.8887 87.2488 89.2531 86.8844 89.3351L66.9148 93.4893C66.8601 93.4985 66.8146 93.5076 66.769 93.5076Z" fill="black"/>
<path d="M98.837 102.873C98.8279 102.873 98.8279 102.873 98.8187 102.873L68.1628 101.98C67.7893 101.971 67.4887 101.652 67.4978 101.278C67.5069 100.905 67.8257 100.577 68.1993 100.613L98.8552 101.506C99.2287 101.515 99.5293 101.834 99.5202 102.208C99.5111 102.581 99.2014 102.873 98.837 102.873Z" fill="black"/>
<path d="M89.0432 119.791C88.9795 119.791 88.9157 119.781 88.8519 119.763L67.9895 113.823C67.6251 113.723 67.4155 113.341 67.5157 112.976C67.616 112.612 67.9986 112.402 68.363 112.502L89.2254 118.442C89.5898 118.542 89.7994 118.925 89.6992 119.29C89.6172 119.599 89.3347 119.791 89.0432 119.791Z" fill="black"/>
<path d="M42.3718 102.016C44.3793 102.016 46.0068 100.389 46.0068 98.3814C46.0068 96.3739 44.3793 94.7464 42.3718 94.7464C40.3643 94.7464 38.7368 96.3739 38.7368 98.3814C38.7368 100.389 40.3643 102.016 42.3718 102.016Z" fill="#F8F8F9"/>
</g>
<defs>
<clipPath id="clip0">
<rect width="120" height="119.79" fill="white"/>
</clipPath>
</defs>
</svg>
