<svg width="18" height="17" viewBox="0 0 18 17" fill="none" xmlns="http://www.w3.org/2000/svg">
<path d="M17.3484 5.96149C17.2112 5.53272 16.9561 5.15119 16.6123 4.86048C16.2686 4.56977 15.85 4.38161 15.4044 4.3175L12.4764 3.89749L11.1804 1.3175C10.9801 0.921265 10.6739 0.58833 10.2958 0.355737C9.9176 0.123145 9.48235 0 9.03839 0C8.59443 0 8.15918 0.123145 7.78102 0.355737C7.40287 0.58833 7.09663 0.921265 6.89639 1.3175L5.58839 3.89749L2.66039 4.3175C2.21478 4.38161 1.79618 4.56977 1.45242 4.86048C1.10867 5.15119 0.853618 5.53272 0.716394 5.96149C0.577677 6.39055 0.562635 6.84999 0.672998 7.2872C0.78336 7.7244 1.01467 8.12168 1.3404 8.43349L3.42839 10.4135L2.93638 13.2215C2.85945 13.662 2.90713 14.1153 3.07404 14.5302C3.24095 14.945 3.52046 15.305 3.88104 15.5695C4.24162 15.834 4.66894 15.9925 5.11479 16.0272C5.56064 16.0618 6.00731 15.9712 6.4044 15.7655L9.03238 14.4095L11.6604 15.7655C12.0575 15.9712 12.5041 16.0618 12.95 16.0272C13.3959 15.9925 13.8231 15.834 14.1837 15.5695C14.5443 15.305 14.8238 14.945 14.9907 14.5302C15.1576 14.1153 15.2053 13.662 15.1284 13.2215L14.6364 10.4255L16.7244 8.43349C17.0501 8.12168 17.2814 7.7244 17.3918 7.2872C17.5022 6.84999 17.4871 6.39055 17.3484 5.96149ZM12.0564 9.56149L12.7644 13.6175L9.03238 11.6975L5.30038 13.6175L6.02039 9.56149L3.0084 6.6815L7.1724 6.0815L9.03238 2.3855L10.9044 6.0815L15.0684 6.6815L12.0564 9.56149Z" fill="#FFC574"/>
</svg>
