<svg width="24" height="24" viewBox="0 0 24 24" fill="none" xmlns="http://www.w3.org/2000/svg">
<path d="M12.0001 3.59961C10.3387 3.59961 8.71468 4.09225 7.33331 5.01525C5.95193 5.93826 4.87529 7.25017 4.23951 8.78506C3.60374 10.32 3.43739 12.0089 3.76151 13.6384C4.08562 15.2678 4.88564 16.7645 6.0604 17.9393C7.23517 19.1141 8.7319 19.9141 10.3613 20.2382C11.9908 20.5623 13.6797 20.396 15.2146 19.7602C16.7495 19.1244 18.0614 18.0478 18.9844 16.6664C19.9074 15.285 20.4001 13.661 20.4001 11.9996C20.4001 9.77179 19.5151 7.63521 17.9398 6.05991C16.3645 4.4846 14.2279 3.59961 12.0001 3.59961V3.59961ZM12.0001 17.9996C10.8134 17.9996 9.65338 17.6477 8.66668 16.9884C7.67999 16.3291 6.91095 15.3921 6.45683 14.2957C6.0027 13.1994 5.88388 11.993 6.11539 10.8291C6.3469 9.66518 6.91835 8.59608 7.75746 7.75696C8.59658 6.91785 9.66567 6.3464 10.8296 6.11489C11.9934 5.88338 13.1998 6.0022 14.2962 6.45633C15.3926 6.91045 16.3296 7.6795 16.9889 8.66619C17.6482 9.65289 18.0001 10.8129 18.0001 11.9996C17.9843 13.5805 17.3452 15.0912 16.2217 16.2035C15.0982 17.3158 13.5811 17.9397 12.0001 17.9396V17.9996Z" fill="#4858CC"/>
</svg>
