<svg width="36" height="36" viewBox="0 0 36 36" fill="none" xmlns="http://www.w3.org/2000/svg">
<circle cx="18" cy="18" r="18" fill="#93DE66"/>
<path d="M12.375 5.5C13.038 5.5 13.6739 5.76339 14.1428 6.23223C14.6116 6.70107 14.875 7.33696 14.875 8C14.875 8.66304 14.6116 9.29893 14.1428 9.76777C13.6739 10.2366 13.038 10.5 12.375 10.5C11.712 10.5 11.0761 10.2366 10.6072 9.76777C10.1384 9.29893 9.875 8.66304 9.875 8C9.875 7.33696 10.1384 6.70107 10.6072 6.23223C11.0761 5.76339 11.712 5.5 12.375 5.5ZM10.5 11.75H14.25C14.913 11.75 15.5489 12.0134 16.0178 12.4822C16.4866 12.9511 16.75 13.587 16.75 14.25V21.125H14.875V30.5H9.875V21.125H8V14.25C8 13.587 8.26339 12.9511 8.73223 12.4822C9.20107 12.0134 9.83696 11.75 10.5 11.75ZM21.125 18C21.125 17.337 21.3884 16.7011 21.8572 16.2322C22.3261 15.7634 22.962 15.5 23.625 15.5C24.288 15.5 24.9239 15.7634 25.3928 16.2322C25.8616 16.7011 26.125 17.337 26.125 18C26.125 18.663 25.8616 19.2989 25.3928 19.7678C24.9239 20.2366 24.288 20.5 23.625 20.5C22.962 20.5 22.3261 20.2366 21.8572 19.7678C21.3884 19.2989 21.125 18.663 21.125 18ZM21.75 21.75H25.5L27.375 26.75H25.5V30.5H21.75V26.75H19.875L21.75 21.75Z" fill="white"/>
</svg>
