<svg width="36" height="36" viewBox="0 0 36 36" fill="none" xmlns="http://www.w3.org/2000/svg">
<circle cx="18" cy="18" r="18" fill="#41D6A4"/>
<g clip-path="url(#clip0)">
<path d="M22.5 5.85C21.375 5.85 20.475 6.75 20.475 7.875C20.475 9 21.375 9.9 22.5 9.9C23.625 9.9 24.525 9 24.525 7.875C24.525 6.75 23.625 5.85 22.5 5.85ZM18.45 9.1125C17.9212 9.1125 17.4375 9.32625 17.1 9.675L12.9375 13.8263C12.5887 14.175 12.375 14.625 12.375 15.1875C12.375 15.8963 12.7463 16.4925 13.3313 16.8413L17.1 19.125V24.75H19.125V17.4375L16.5938 15.5813L19.2037 12.9375L21.15 15.75H25.875V13.725H22.275L20.0925 10.0463C19.7662 9.48375 19.125 9.1125 18.45 9.1125ZM15.75 7.875H10.575C9.95625 7.875 9.45 7.36875 9.45 6.75C9.45 6.13125 9.95625 5.625 10.575 5.625H18.8887C18.6525 6.0075 18.4613 6.42375 18.36 6.87375C17.3925 6.89625 16.4812 7.25625 15.75 7.875ZM10.125 18C7.02 18 4.5 20.52 4.5 23.625C4.5 26.73 7.02 29.25 10.125 29.25C13.23 29.25 15.75 26.73 15.75 23.625C15.75 20.52 13.23 18 10.125 18ZM10.125 27.5625C7.95375 27.5625 6.1875 25.7963 6.1875 23.625C6.1875 21.4538 7.95375 19.6875 10.125 19.6875C12.2962 19.6875 14.0625 21.4538 14.0625 23.625C14.0625 25.7963 12.2962 27.5625 10.125 27.5625ZM25.875 18C22.77 18 20.25 20.52 20.25 23.625C20.25 26.73 22.77 29.25 25.875 29.25C28.98 29.25 31.5 26.73 31.5 23.625C31.5 20.52 28.98 18 25.875 18ZM25.875 27.5625C23.7038 27.5625 21.9375 25.7963 21.9375 23.625C21.9375 21.4538 23.7038 19.6875 25.875 19.6875C28.0462 19.6875 29.8125 21.4538 29.8125 23.625C29.8125 25.7963 28.0462 27.5625 25.875 27.5625ZM10.485 16.875H8.325C7.704 16.875 7.2 16.3688 7.2 15.75C7.2 15.1313 7.704 14.625 8.325 14.625H10.1813C10.1588 14.805 10.125 14.9963 10.125 15.1875C10.125 15.7838 10.26 16.3575 10.485 16.875ZM11.25 12.375H9.45C8.83125 12.375 8.325 11.8688 8.325 11.25C8.325 10.6313 8.83125 10.125 9.45 10.125H13.4662L11.3512 12.2288C11.3063 12.2738 11.25 12.33 11.25 12.375Z" fill="white"/>
</g>
<defs>
<clipPath id="clip0">
<path d="M4.5 4.5H31.5V31.5H4.5V4.5Z" fill="white"/>
</clipPath>
</defs>
</svg>
