<svg width="36" height="36" viewBox="0 0 36 36" fill="none" xmlns="http://www.w3.org/2000/svg">
<path fill-rule="evenodd" clip-rule="evenodd" d="M15.041 20.6702V24.1602L15.741 23.8203L17.741 22.8203C17.7799 22.8009 17.8227 22.7908 17.866 22.7908C17.9094 22.7908 17.9522 22.8009 17.991 22.8203C18.791 23.2203 19.571 23.6303 20.361 24.0403L20.611 24.1501V20.7402L21.001 20.8801L23.501 21.8801C23.831 22.0201 24.161 22.1503 24.501 22.3003L24.751 22.3801H24.881L25.081 22.4602C25.311 22.5502 25.531 22.6803 25.761 22.7703L26.631 23.1201L27.111 23.3203C27.484 23.4613 27.848 23.6249 28.201 23.8103C28.5905 24.0342 28.9179 24.3517 29.1537 24.7341C29.3894 25.1165 29.526 25.5517 29.551 26.0002V26.0903C29.5534 26.1169 29.5534 26.1436 29.551 26.1702H28.551C28.551 26.1702 28.481 26.1703 28.471 26.0803C28.4419 25.7325 28.3077 25.4018 28.0863 25.1321C27.8648 24.8624 27.5665 24.6665 27.231 24.5703L24.991 23.6602C24.897 23.6142 24.8001 23.5742 24.701 23.5403C24.6141 23.5084 24.5304 23.4681 24.451 23.4202L24.251 23.3403C24.0839 23.2874 23.9202 23.2238 23.761 23.1501C23.6177 23.0824 23.4708 23.0224 23.321 22.9702L22.851 22.7803L21.911 22.3901H21.781V25.9702L19.911 24.9702C19.831 25.2602 19.781 25.5503 19.681 25.8303C19.581 26.1103 19.741 26.5303 19.851 26.8303C20.061 27.5103 20.301 28.1703 20.531 28.8303L19.531 29.1902C19.531 29.1202 19.471 29.0703 19.451 29.0103C19.181 28.2203 18.941 27.4201 18.641 26.6401C18.5061 26.279 18.5061 25.8814 18.641 25.5203C18.741 25.1803 18.801 24.8303 18.881 24.5203C18.8909 24.5023 18.8963 24.4822 18.8969 24.4617C18.8974 24.4412 18.8932 24.4209 18.8844 24.4023C18.8756 24.3838 18.8626 24.3675 18.8464 24.355C18.8301 24.3425 18.8112 24.3341 18.791 24.3303C18.561 24.2103 18.331 24.0802 18.091 23.9802C18.0045 23.9452 17.9076 23.9452 17.821 23.9802C17.5874 24.0829 17.3603 24.1999 17.141 24.3303C17.1125 24.3501 17.09 24.3774 17.0759 24.4092C17.0618 24.4409 17.0567 24.4758 17.061 24.5103C17.0914 24.6988 17.1315 24.8858 17.181 25.0703C17.251 25.3903 17.341 25.7103 17.401 26.0703C17.43 26.175 17.43 26.2854 17.401 26.3901L16.351 29.1702C16.3474 29.1892 16.3392 29.207 16.3272 29.2222C16.3151 29.2373 16.2996 29.2495 16.2819 29.2573C16.2642 29.2652 16.2449 29.2686 16.2256 29.2673C16.2063 29.2661 16.1876 29.2603 16.171 29.2502L15.341 28.9302C15.3277 28.902 15.3208 28.8715 15.3208 28.8403C15.3208 28.8092 15.3277 28.7784 15.341 28.7502C15.521 28.2602 15.711 27.7503 15.901 27.2803C16.091 26.8103 16.191 26.5402 16.321 26.1602C16.3499 26.0419 16.3499 25.9186 16.321 25.8003C16.261 25.5203 16.191 25.2502 16.121 24.9302L14.121 25.9302V22.2803L13.201 22.6702L10.741 23.6702C9.96104 23.9902 9.17104 24.3002 8.40104 24.6702C8.1553 24.7783 7.94307 24.9503 7.78652 25.1685C7.62997 25.3866 7.53484 25.6427 7.51104 25.9102C7.51104 26.0902 7.43104 26.1702 7.23104 26.1602C7.03104 26.1502 6.75105 26.1602 6.50105 26.1602C6.25105 26.1602 6.34104 26.1603 6.35104 26.0103C6.38167 25.4767 6.56602 24.9634 6.88186 24.5322C7.1977 24.1011 7.63153 23.7705 8.13104 23.5803L10.831 22.4402L13.501 21.3303L15.111 20.6602C15.0879 20.665 15.0646 20.6683 15.041 20.6702Z" fill="#4858CC"/>
<path fill-rule="evenodd" clip-rule="evenodd" d="M17.7411 20.7398C17.4411 20.7398 17.1411 20.7397 16.8411 20.6897C16.4693 20.6613 16.1175 20.5101 15.8411 20.2598C15.3411 19.8398 14.8411 19.4097 14.3611 18.9597C14.0912 18.6454 13.8842 18.2821 13.7511 17.8897C13.5311 17.4497 13.3311 16.9998 13.1111 16.5598C13.0783 16.4985 13.03 16.4467 12.9711 16.4097L12.1711 15.9597C12.1112 15.9284 12.0587 15.8846 12.0172 15.8311C11.9758 15.7776 11.9464 15.7156 11.9311 15.6497C11.8111 15.1897 11.7211 14.7298 11.5611 14.2898C11.4978 14.0623 11.5116 13.8202 11.6002 13.6013C11.6888 13.3825 11.8474 13.1992 12.0511 13.0799C12.1073 13.0614 12.1543 13.0219 12.1822 12.9697C12.2101 12.9176 12.2169 12.8568 12.2011 12.7998C12.1109 12.1144 12.1312 11.4188 12.2611 10.7398C12.4596 9.74954 12.9194 8.83049 13.5929 8.0779C14.2664 7.32531 15.1289 6.76657 16.0911 6.45974C17.2978 6.09209 18.5928 6.13949 19.7693 6.5945C20.9458 7.04951 21.9358 7.88587 22.5811 8.96975C23.1866 9.98777 23.4592 11.1695 23.3611 12.3499C23.3611 12.5099 23.3611 12.6799 23.3611 12.8399C23.3508 12.8797 23.3552 12.9217 23.3736 12.9585C23.392 12.9953 23.4231 13.0242 23.4611 13.0398C23.6925 13.1663 23.8735 13.3684 23.9736 13.6123C24.0737 13.8563 24.087 14.1271 24.0111 14.3797C23.8911 14.7997 23.8411 15.2497 23.7411 15.6797C23.7145 15.78 23.65 15.8661 23.5611 15.9197C23.2511 16.0897 22.9311 16.2497 22.6211 16.3997C22.5581 16.4253 22.5009 16.4634 22.4528 16.5115C22.4047 16.5596 22.3668 16.6167 22.3411 16.6797C22.0311 17.3297 21.7311 17.9899 21.3411 18.6099C21.132 18.9357 20.8759 19.2288 20.5811 19.4798C20.2642 19.7756 19.9303 20.0529 19.5811 20.3098C19.2221 20.5765 18.7883 20.7234 18.3411 20.7298H17.7111L17.7411 20.7398ZM12.6811 14.0398C12.676 14.0797 12.676 14.1199 12.6811 14.1597C12.7611 14.4497 12.8411 14.7398 12.9311 15.0298C12.9639 15.0911 13.0122 15.1427 13.0711 15.1797L13.7011 15.5398C13.842 15.6044 13.9579 15.7133 14.0311 15.8499C14.2111 16.2599 14.4111 16.6799 14.6111 17.0899C14.7912 17.6171 15.0848 18.0983 15.4711 18.4998C15.7511 18.7298 16.0411 18.9597 16.3211 19.2197C16.4598 19.3571 16.6259 19.4638 16.8085 19.5327C16.9911 19.6017 17.1862 19.6311 17.3811 19.6196C17.7011 19.6196 18.0111 19.6196 18.3811 19.6196C18.6251 19.6176 18.8613 19.5331 19.0511 19.3797C19.3011 19.1697 19.5511 18.9798 19.7811 18.7498C20.0386 18.5249 20.264 18.2658 20.4511 17.9798C20.8011 17.3498 21.1011 16.6698 21.4511 15.9798C21.5411 15.8098 21.5911 15.6198 21.8011 15.5398C21.9833 15.4686 22.1603 15.3851 22.3311 15.2898C22.4811 15.2098 22.7011 15.1498 22.7411 15.0198C22.8366 14.6911 22.9134 14.3572 22.9711 14.0198H22.0911V13.9097C22.1611 13.3997 22.2611 12.9099 22.3011 12.3599C22.4383 11.2329 22.1415 10.0958 21.4711 9.17971C21.126 8.6853 20.6804 8.26945 20.1634 7.95925C19.6464 7.64905 19.0697 7.45146 18.4711 7.37966C17.8016 7.27926 17.1181 7.33066 16.4711 7.52981C15.7009 7.76232 15.0091 8.2016 14.4711 8.79983C13.8547 9.46105 13.4658 10.3019 13.3611 11.1997C13.2727 11.9427 13.2997 12.6949 13.4411 13.4297C13.4755 13.6283 13.4988 13.8287 13.5111 14.0298L12.6811 14.0398Z" fill="#4858CC"/>
<path fill-rule="evenodd" clip-rule="evenodd" d="M32.901 20.14C32.3543 20.14 31.8199 19.9776 31.3656 19.6734C30.9113 19.3692 30.5576 18.9372 30.3493 18.4317C30.141 17.9262 30.0875 17.3702 30.1956 16.8343C30.3038 16.2984 30.5686 15.8066 30.9566 15.4215C31.3446 15.0363 31.8383 14.775 32.375 14.6707C32.9117 14.5665 33.4672 14.624 33.9712 14.836C34.4751 15.048 34.9048 15.4047 35.2057 15.8612C35.5065 16.3177 35.665 16.8533 35.661 17.4C35.6558 18.1285 35.3627 18.8254 34.8456 19.3387C34.3286 19.852 33.6296 20.14 32.901 20.14ZM34.531 17.39C34.5324 17.1772 34.4918 16.9664 34.4116 16.7694C34.3314 16.5723 34.2131 16.3929 34.0636 16.2415C33.9141 16.0902 33.7363 15.9699 33.5402 15.8873C33.3442 15.8047 33.1338 15.7614 32.921 15.7601C32.6969 15.7425 32.4716 15.7714 32.2592 15.845C32.0468 15.9187 31.852 16.0357 31.6869 16.1883C31.5218 16.3409 31.3901 16.526 31.3 16.732C31.21 16.938 31.1635 17.1603 31.1635 17.3851C31.1635 17.6099 31.21 17.8322 31.3 18.0382C31.3901 18.2441 31.5218 18.4292 31.6869 18.5819C31.852 18.7345 32.0468 18.8514 32.2592 18.9251C32.4716 18.9988 32.6969 19.0277 32.921 19.0101C33.3482 19.0049 33.7561 18.8321 34.0572 18.5291C34.3583 18.2262 34.5285 17.8171 34.531 17.39Z" fill="#4858CC"/>
<path fill-rule="evenodd" clip-rule="evenodd" d="M17.821 35.7403C17.2771 35.7403 16.7455 35.5791 16.2932 35.277C15.841 34.9748 15.4885 34.5453 15.2804 34.0428C15.0722 33.5403 15.0178 32.9874 15.1239 32.454C15.23 31.9205 15.4919 31.4304 15.8765 31.0458C16.2611 30.6612 16.7511 30.3992 17.2845 30.2931C17.818 30.187 18.3709 30.2414 18.8734 30.4496C19.3759 30.6577 19.8054 31.0103 20.1076 31.4625C20.4098 31.9147 20.571 32.4464 20.571 32.9903C20.5724 33.3518 20.5021 33.7101 20.3644 34.0443C20.2267 34.3785 20.0242 34.6822 19.7685 34.9379C19.5129 35.1935 19.2092 35.3961 18.875 35.5338C18.5407 35.6715 18.1826 35.7417 17.821 35.7403ZM17.821 34.6202C18.1439 34.6202 18.4594 34.5244 18.7277 34.3448C18.9959 34.1653 19.2048 33.9101 19.3279 33.6117C19.451 33.3133 19.4827 32.985 19.419 32.6686C19.3553 32.3521 19.199 32.0619 18.97 31.8343C18.7411 31.6068 18.4497 31.4522 18.1329 31.3905C17.816 31.3287 17.488 31.3625 17.1903 31.4874C16.8926 31.6123 16.6388 31.8228 16.4609 32.0921C16.283 32.3615 16.1891 32.6775 16.191 33.0004C16.204 33.4239 16.3815 33.8258 16.6858 34.1207C16.9901 34.4157 17.3973 34.5806 17.821 34.5804V34.6202Z" fill="#4858CC"/>
<path fill-rule="evenodd" clip-rule="evenodd" d="M9.90112 7.17969C9.90112 7.72359 9.73984 8.25528 9.43767 8.70752C9.13549 9.15975 8.706 9.51232 8.20351 9.72046C7.70101 9.9286 7.14807 9.98306 6.61462 9.87695C6.08118 9.77084 5.59117 9.50886 5.20657 9.12427C4.82198 8.73967 4.56007 8.24976 4.45396 7.71631C4.34785 7.18286 4.40232 6.62994 4.61046 6.12744C4.8186 5.62494 5.17107 5.19548 5.62331 4.89331C6.07554 4.59114 6.60722 4.42969 7.15112 4.42969C7.88047 4.42969 8.57995 4.71938 9.09567 5.23511C9.6114 5.75083 9.90112 6.45034 9.90112 7.17969ZM7.14113 5.5498C6.71148 5.5498 6.29941 5.72036 5.99561 6.02417C5.6918 6.32798 5.52112 6.74003 5.52112 7.16968C5.52112 7.59933 5.6918 8.01138 5.99561 8.31519C6.29941 8.61899 6.71148 8.78979 7.14113 8.78979C7.3537 8.79255 7.56464 8.75232 7.76132 8.67163C7.95801 8.59094 8.13639 8.47132 8.28578 8.32007C8.43517 8.16881 8.5525 7.98893 8.63074 7.79126C8.70898 7.59359 8.74652 7.3822 8.74112 7.16968C8.73607 6.74504 8.56648 6.33901 8.26807 6.03687C7.96965 5.73472 7.56567 5.56013 7.14113 5.5498Z" fill="#4858CC"/>
<path fill-rule="evenodd" clip-rule="evenodd" d="M25.741 7.16958C25.743 6.62568 25.9062 6.09458 26.2101 5.64345C26.5139 5.19232 26.9447 4.84146 27.4479 4.63515C27.9512 4.42884 28.5043 4.37647 29.0373 4.48452C29.5704 4.59257 30.0594 4.8561 30.4426 5.24209C30.8258 5.62808 31.086 6.11915 31.1901 6.65298C31.2943 7.1868 31.2378 7.73962 31.0279 8.24135C30.8179 8.74309 30.4639 9.17129 30.0105 9.47182C29.5572 9.77235 29.0249 9.93156 28.481 9.92959C28.1195 9.9296 27.7616 9.85808 27.4279 9.71914C27.0941 9.58019 26.7912 9.37657 26.5365 9.12002C26.2818 8.86346 26.0804 8.55901 25.9438 8.22426C25.8073 7.88952 25.7384 7.53108 25.741 7.16958ZM30.131 7.16958C30.1233 6.95329 30.0729 6.74079 29.9826 6.54409C29.8923 6.34739 29.764 6.17046 29.6051 6.02358C29.4461 5.87671 29.2596 5.76285 29.0564 5.68838C28.8532 5.6139 28.6373 5.58037 28.421 5.58974C28.2083 5.59748 27.9991 5.6471 27.8055 5.73574C27.6119 5.82438 27.4377 5.95031 27.2928 6.10634C27.1479 6.26238 27.0352 6.44529 26.9611 6.64492C26.887 6.84455 26.853 7.0569 26.861 7.26967C26.8617 7.49035 26.908 7.70838 26.997 7.9103C27.086 8.11222 27.2159 8.29369 27.3783 8.44301C27.5408 8.59234 27.7324 8.70651 27.9411 8.77822C28.1498 8.84993 28.3711 8.87769 28.591 8.85976C28.8093 8.85826 29.0249 8.81089 29.2238 8.72085C29.4226 8.6308 29.6004 8.49987 29.7456 8.33681C29.8907 8.17375 30 7.98227 30.0664 7.77431C30.1328 7.56635 30.1548 7.34654 30.131 7.12954V7.16958Z" fill="#4858CC"/>
<path fill-rule="evenodd" clip-rule="evenodd" d="M17.8111 5.43996C17.2731 5.43996 16.7472 5.28059 16.2999 4.98171C15.8526 4.68283 15.504 4.25802 15.2981 3.76101C15.0922 3.26399 15.0384 2.7171 15.1433 2.18947C15.2483 1.66184 15.5073 1.17705 15.8877 0.79665C16.2681 0.416251 16.7528 0.157217 17.2804 0.0522649C17.808 -0.0526869 18.3549 0.00117967 18.852 0.20705C19.349 0.41292 19.7738 0.761457 20.0727 1.20876C20.3715 1.65606 20.5311 2.18202 20.5311 2.71999C20.5324 3.07756 20.4629 3.43187 20.3267 3.76247C20.1905 4.09307 19.9902 4.39342 19.7373 4.64626C19.4845 4.8991 19.1841 5.09939 18.8535 5.23561C18.5229 5.37184 18.1686 5.44128 17.8111 5.43996ZM17.8111 1.13991C17.4984 1.14582 17.1943 1.24383 16.9371 1.42165C16.6798 1.59947 16.4807 1.84924 16.3646 2.13967C16.2486 2.4301 16.2207 2.7483 16.2846 3.05446C16.3485 3.36062 16.5013 3.64133 16.7238 3.8611C16.9463 4.08088 17.2287 4.22998 17.5356 4.29006C17.8426 4.35014 18.1604 4.3184 18.4494 4.19875C18.7383 4.0791 18.9856 3.87692 19.1602 3.61745C19.3348 3.35798 19.429 3.05276 19.4311 2.74001C19.4338 2.52829 19.3939 2.3181 19.3138 2.12209C19.2338 1.92608 19.1151 1.74839 18.9649 1.59914C18.8148 1.44989 18.6361 1.33229 18.4396 1.25344C18.2431 1.17459 18.0328 1.13587 17.8211 1.13991H17.8111Z" fill="#4858CC"/>
<path fill-rule="evenodd" clip-rule="evenodd" d="M4.8911 19.8101L4.79109 19.9199C4.66295 20.0677 4.51082 20.1929 4.34109 20.29C4.19968 20.3994 4.04913 20.4965 3.8911 20.5801C3.74234 20.659 3.5845 20.7194 3.4211 20.76C3.09615 20.852 2.75569 20.8759 2.4211 20.8301C1.93691 20.7925 1.47326 20.6184 1.08389 20.3281C0.694528 20.0379 0.395369 19.6432 0.221085 19.1899C-0.0167903 18.6435 -0.0642771 18.0332 0.0862274 17.4565C0.236732 16.8799 0.57651 16.3705 1.05109 16.01C1.35501 15.772 1.70645 15.6019 2.08171 15.5112C2.45697 15.4205 2.84731 15.4112 3.22641 15.4841C3.60551 15.5571 3.96456 15.7106 4.27933 15.9341C4.5941 16.1576 4.85726 16.4462 5.05109 16.78C5.24521 17.105 5.36634 17.4683 5.40605 17.8447C5.44577 18.2212 5.40313 18.6017 5.2811 18.96V19.0701C5.27136 19.1095 5.27136 19.1505 5.2811 19.1899C5.28371 19.2166 5.28371 19.2434 5.2811 19.27L5.22108 19.3999C5.18451 19.4948 5.13756 19.5854 5.08109 19.6699L4.99109 19.79L4.8911 19.8101ZM1.10109 18.1399C1.10109 18.5616 1.2686 18.9662 1.56679 19.2644C1.86497 19.5626 2.26939 19.73 2.69109 19.73C3.11278 19.73 3.5172 19.5626 3.81538 19.2644C4.11357 18.9662 4.2811 18.5616 4.2811 18.1399C4.27597 17.7189 4.1071 17.3165 3.8103 17.0178C3.5135 16.7192 3.11208 16.5478 2.69109 16.54C2.26847 16.5427 1.86408 16.7124 1.56618 17.0122C1.26828 17.312 1.10108 17.7173 1.10109 18.1399Z" fill="#4858CC"/>
<path d="M15.9005 33.5C15.8905 33.5276 15.8746 33.5525 15.8539 33.5732C15.8331 33.594 15.8081 33.6099 15.7805 33.6199C15.6556 33.65 15.5254 33.65 15.4005 33.6199C15.0505 33.5599 14.7005 33.4999 14.3505 33.4199L14.6505 32.02C14.6505 32.02 15.4905 32.1799 15.5705 32.1899C15.6716 32.1963 15.7691 32.2306 15.852 32.2888C15.9349 32.3471 16.0002 32.4271 16.0405 32.52C16.08 32.6945 16.08 32.8756 16.0405 33.05C16.0171 33.1481 15.9801 33.2423 15.9305 33.3301C15.9264 33.3876 15.9164 33.4445 15.9005 33.5ZM20.2405 33.5901L20.0205 32.1699C20.6121 32.0804 21.1968 31.9501 21.7705 31.78L22.1705 33.1699C21.5366 33.3501 20.892 33.4905 20.2405 33.5901ZM13.3905 33.1699C12.7547 32.9909 12.1303 32.7739 11.5205 32.52L12.0805 31.2C12.6341 31.4323 13.202 31.6295 13.7805 31.79L13.3905 33.1699ZM23.1105 32.8699L22.6305 31.51C23.1948 31.312 23.7459 31.0782 24.2805 30.8101L24.9305 32.0901C24.3413 32.389 23.7333 32.6494 23.1105 32.8699ZM10.6205 32.1101C10.0339 31.806 9.46315 31.4723 8.91051 31.1101L9.71051 29.9099C10.2086 30.2408 10.7262 30.5415 11.2605 30.8101L10.6205 32.1101ZM25.8005 31.6299L25.0705 30.3799C25.5902 30.077 26.0911 29.7431 26.5705 29.3799L27.4405 30.52C26.917 30.9232 26.3693 31.2937 25.8005 31.6299ZM8.1105 30.55C7.58595 30.153 7.08509 29.7256 6.6105 29.27L7.6105 28.27C8.04133 28.6893 8.49897 29.08 8.98051 29.4399L8.1105 30.55ZM28.2105 29.9099L27.2705 28.8201C27.7272 28.4318 28.1581 28.0143 28.5605 27.5701L29.6305 28.5701C29.1838 29.0442 28.7097 29.4915 28.2105 29.9099ZM5.92052 28.5601C5.47475 28.0737 5.06056 27.5593 4.68051 27.02L5.85051 26.1899C6.1995 26.6783 6.57682 27.1459 6.98051 27.5901L5.92052 28.5601ZM30.2705 27.79L29.1505 26.8899C29.5094 26.4178 29.8432 25.9271 30.1505 25.4199L31.3705 26.1799C31.0308 26.7345 30.6637 27.272 30.2705 27.79ZM4.13051 26.2C3.78201 25.6396 3.46809 25.0586 3.19051 24.46L4.50052 23.8601C4.75017 24.4042 5.03406 24.9318 5.35051 25.4399L4.13051 26.2ZM31.9005 25.3201L30.6405 24.6399C30.9267 24.114 31.1773 23.5695 31.3905 23.01L32.7305 23.53C32.4886 24.1422 32.2115 24.7399 31.9005 25.3201ZM2.81052 23.5601C2.56824 22.9433 2.36452 22.3119 2.20052 21.6699L3.60051 21.3201C3.74564 21.9005 3.92598 22.4715 4.14052 23.03L2.81052 23.5601ZM33.0605 22.5601L31.6905 22.1299C31.8723 21.556 32.0193 20.9716 32.1305 20.3799L33.5405 20.6499C33.4219 21.3061 33.2616 21.9543 33.0605 22.5901V22.5601ZM3.43051 15.0801L2.02051 14.8201C2.14173 14.1719 2.29864 13.5308 2.49051 12.8999L3.87051 13.3301C3.68404 13.9027 3.53703 14.4874 3.43051 15.0801ZM31.9605 14.0801C31.812 13.4995 31.6283 12.9282 31.4105 12.3699L32.7505 11.8401C32.9895 12.457 33.1899 13.0881 33.3505 13.73L31.9605 14.0801ZM4.16051 12.45L2.82051 11.9299C3.05903 11.3179 3.33283 10.7202 3.64052 10.1399L4.91051 10.8201C4.61366 11.3568 4.34984 11.9111 4.12051 12.48L4.16051 12.45ZM31.0605 11.54C30.8016 11.002 30.5146 10.4778 30.2005 9.96997L31.4205 9.19995C31.7652 9.76246 32.079 10.3433 32.3605 10.9399L31.0605 11.54ZM5.3605 10.04L4.14052 9.28003C4.4816 8.71684 4.86257 8.17868 5.28052 7.66992L6.40051 8.57007C6.00422 9.04291 5.64324 9.54426 5.32051 10.0701L5.3605 10.04ZM8.9705 6.04004L8.10051 4.8999C8.62427 4.50019 9.17196 4.13298 9.74051 3.80005L10.4605 5.04004C9.9308 5.36041 9.41995 5.71104 8.93051 6.09009L8.9705 6.04004ZM25.8405 5.46997C25.3385 5.14285 24.8176 4.84578 24.2805 4.58008L24.9105 3.29004C25.5026 3.59006 26.0769 3.92395 26.6305 4.29004L25.8405 5.46997ZM11.2505 4.61011L10.6105 3.33008C11.2018 3.03856 11.8095 2.78145 12.4305 2.56006L12.9105 3.90991C12.3307 4.12904 11.7632 4.37941 11.2105 4.65991L11.2505 4.61011ZM23.4605 4.19995C22.9057 3.97065 22.3381 3.77382 21.7605 3.61011L22.1505 2.22998C22.7849 2.40317 23.4064 2.62026 24.0105 2.87988L23.4605 4.19995ZM13.7605 3.62988L13.3705 2.25C14.0013 2.07091 14.6425 1.93072 15.2905 1.83008L15.5205 3.25C14.9124 3.35695 14.3113 3.50048 13.7205 3.67993L13.7605 3.62988ZM20.8805 3.3999C20.7005 3.3499 20.5005 3.33003 20.3305 3.28003C20.1605 3.23003 20.0605 3.27989 19.9705 3.13989C19.9104 3.0326 19.8761 2.9129 19.8705 2.79004C19.8205 2.56004 19.7805 1.99011 20.0405 1.86011C20.428 1.85068 20.8149 1.8943 21.1905 1.98999L20.8805 3.3999Z" fill="#4858CC"/>
</svg>
