<svg width="36" height="36" viewBox="0 0 36 36" fill="none" xmlns="http://www.w3.org/2000/svg">
<circle cx="18" cy="18" r="18" fill="#67B3FF"/>
<path d="M16.7499 10.5006H20.4999L24.6124 6.37561C24.7286 6.25845 24.8669 6.16545 25.0192 6.10199C25.1715 6.03853 25.3349 6.00586 25.4999 6.00586C25.6649 6.00586 25.8283 6.03853 25.9806 6.10199C26.133 6.16545 26.2712 6.25845 26.3874 6.37561L29.6124 9.61311C29.8452 9.84731 29.9759 10.1641 29.9759 10.4944C29.9759 10.8246 29.8452 11.1414 29.6124 11.3756L26.7499 14.2506H16.7499V16.7506C16.7499 17.0821 16.6182 17.4001 16.3838 17.6345C16.1494 17.8689 15.8314 18.0006 15.4999 18.0006C15.1684 18.0006 14.8505 17.8689 14.616 17.6345C14.3816 17.4001 14.2499 17.0821 14.2499 16.7506V13.0006C14.2499 12.3376 14.5133 11.7017 14.9822 11.2328C15.451 10.764 16.0869 10.5006 16.7499 10.5006ZM9.24992 16.7506V21.7506L6.38742 24.6131C6.1546 24.8473 6.02393 25.1641 6.02393 25.4944C6.02393 25.8246 6.1546 26.1414 6.38742 26.3756L9.61242 29.6131C9.72862 29.7303 9.86687 29.8233 10.0192 29.8867C10.1715 29.9502 10.3349 29.9829 10.4999 29.9829C10.6649 29.9829 10.8283 29.9502 10.9806 29.8867C11.133 29.8233 11.2712 29.7303 11.3874 29.6131L16.7499 24.2506H21.7499C22.0814 24.2506 22.3994 24.1189 22.6338 23.8845C22.8682 23.6501 22.9999 23.3321 22.9999 23.0006V21.7506H24.2499C24.5814 21.7506 24.8994 21.6189 25.1338 21.3845C25.3682 21.1501 25.4999 20.8321 25.4999 20.5006V19.2506H26.7499C27.0814 19.2506 27.3994 19.1189 27.6338 18.8845C27.8682 18.6501 27.9999 18.3321 27.9999 18.0006V16.7506H19.2499V18.0006C19.2499 18.6636 18.9865 19.2995 18.5177 19.7684C18.0488 20.2372 17.413 20.5006 16.7499 20.5006H14.2499C13.5869 20.5006 12.951 20.2372 12.4822 19.7684C12.0133 19.2995 11.7499 18.6636 11.7499 18.0006V14.2506L9.24992 16.7506Z" fill="white"/>
</svg>
