<svg width="35" height="37" viewBox="0 0 35 37" fill="none" xmlns="http://www.w3.org/2000/svg">
<path d="M34.2095 20.6611C33.6495 19.5511 33.0495 18.4313 32.4695 17.3513L31.6295 15.7712L31.5595 15.6413C31.258 15.1393 31.0386 14.5923 30.9095 14.0212L30.8195 13.4411C30.7395 12.9511 30.6595 12.4411 30.5495 11.9411C29.6861 8.32191 27.5582 5.13016 24.5495 2.94111C23.2468 1.99807 21.802 1.26899 20.2695 0.781194C19.1651 0.408001 18.0205 0.166361 16.8595 0.0612233C15.6868 -0.0416843 14.5063 -0.0147771 13.3395 0.141301C12.0087 0.306902 10.7046 0.642993 9.45951 1.1413H9.34953C9.20748 1.17248 9.07395 1.23413 8.95823 1.32221C8.84251 1.41029 8.74736 1.5227 8.67948 1.65131C8.67948 1.65131 8.6095 1.73131 8.5095 1.65131C8.41554 1.61334 8.31168 1.60734 8.21403 1.63447C8.11638 1.66159 8.03043 1.72022 7.96952 1.80121C7.9125 1.86129 7.87725 1.93873 7.86948 2.02118C7.77257 1.98604 7.66641 1.98604 7.5695 2.02118C7.41517 2.07623 7.27512 2.16507 7.15952 2.28119L6.99949 2.40131L6.85954 2.50116C6.80394 2.51321 6.7521 2.53855 6.70853 2.57514C6.66497 2.61173 6.631 2.65844 6.60954 2.71113V2.78119C6.44754 2.80373 6.29349 2.86572 6.16099 2.96161C6.02849 3.0575 5.92157 3.18441 5.84953 3.33124C5.80116 3.31395 5.74872 3.31122 5.69889 3.32367C5.64906 3.33613 5.60403 3.36329 5.5695 3.40131C5.54662 3.46602 5.54662 3.53656 5.5695 3.60126C5.50275 3.59999 5.43697 3.61735 5.37949 3.65131C5.35288 3.67505 5.33193 3.70438 5.31809 3.73725C5.30425 3.77011 5.29792 3.80563 5.29954 3.84125C5.18831 3.85583 5.08567 3.9088 5.0095 3.99115C4.94065 4.05597 4.89202 4.13931 4.86948 4.23115C4.77839 4.24978 4.69487 4.29515 4.62949 4.36127L4.09953 4.97114C3.62953 5.51114 3.09952 6.06131 2.71952 6.65131C1.73871 8.03944 1.01084 9.58977 0.569496 11.2311C0.282225 12.2667 0.101311 13.329 0.0295182 14.4013C-0.0778274 16.1433 0.108079 17.8908 0.579506 19.5712C0.946458 20.8939 1.49502 22.1593 2.20951 23.3312C2.76225 24.1784 3.15226 25.1212 3.35954 26.1113C3.54428 27.0787 3.49628 28.076 3.21952 29.0212C3.07952 29.5212 2.90948 30.0212 2.73948 30.5012C2.67948 30.6812 2.60954 30.8712 2.54954 31.0612C2.09954 32.4012 1.63948 33.7512 1.17948 35.0612C1.09386 35.2729 1.09386 35.5095 1.17948 35.7211C1.25763 35.8688 1.39047 35.9801 1.54954 36.0312C1.63559 36.0457 1.72343 36.0457 1.80949 36.0312C1.9697 36.0241 2.12316 35.9643 2.24607 35.8613C2.36898 35.7582 2.45449 35.6176 2.48948 35.4611C2.63948 35.0011 2.7995 34.5412 2.9495 34.0812C3.0995 33.6212 3.30953 33.0812 3.47953 32.5312L3.6995 31.8713C3.9995 30.9813 4.30951 30.0711 4.57951 29.1711C4.91128 28.0117 4.94565 26.7875 4.67948 25.6113C4.47006 24.5716 4.05903 23.5828 3.46952 22.7011L3.27952 22.4511C3.18278 22.3316 3.09582 22.2047 3.01951 22.0712C2.94747 21.9263 2.88728 21.7759 2.83952 21.6213L2.68949 21.2512C2.12166 20.0478 1.73421 18.7674 1.53953 17.4511C1.35134 16.2771 1.32104 15.0834 1.4495 13.9013C1.57892 12.6164 1.88169 11.355 2.34953 10.1513C3.23571 7.92046 4.67103 5.9495 6.52238 4.42158C8.37372 2.89365 10.581 1.85804 12.9395 1.41108C13.7446 1.26567 14.5614 1.19541 15.3795 1.20112C15.6495 1.20112 15.9195 1.20112 16.1995 1.20112C17.9767 1.27929 19.7221 1.70034 21.3395 2.44111C23.396 3.37116 25.1972 4.78477 26.5895 6.56122C27.5798 7.77304 28.3329 9.16066 28.8095 10.6513C29.1083 11.5983 29.3455 12.5636 29.5195 13.5412C29.608 14.2587 29.8106 14.9576 30.1195 15.6113L30.4995 16.3312C31.2895 17.8212 32.0995 19.3313 32.9195 20.8713C33.0152 21.037 33.0655 21.2249 33.0655 21.4162C33.0655 21.6075 33.0152 21.7954 32.9195 21.9611C32.8286 22.1067 32.7016 22.2265 32.551 22.3088C32.4004 22.3911 32.2311 22.4331 32.0595 22.4311H31.9995C31.6095 22.4311 31.2295 22.4311 30.8395 22.4311H30.4495C30.3433 22.4172 30.2355 22.4252 30.1324 22.4543C30.0294 22.4834 29.9333 22.5329 29.8501 22.6003C29.7668 22.6676 29.6982 22.7512 29.6482 22.8459C29.5983 22.9406 29.5681 23.0446 29.5595 23.1513L28.8095 26.9111C28.8095 27.1211 28.7295 27.3312 28.6995 27.5412C28.6095 28.0012 28.5295 28.4811 28.3995 28.9311C28.1954 29.5803 27.7896 30.1474 27.2411 30.5502C26.6926 30.9531 26.03 31.1705 25.3495 31.1711H21.4295C21.0136 31.1791 20.6007 31.1007 20.2168 30.9406C19.8329 30.7805 19.4864 30.5423 19.1995 30.2412C18.5195 29.5412 17.8095 28.8411 17.1295 28.1711L16.9295 27.9811C16.799 27.8354 16.6287 27.731 16.4395 27.6811H16.2695C16.1446 27.685 16.0235 27.7249 15.9206 27.7958C15.8178 27.8668 15.7375 27.9659 15.6895 28.0812C15.617 28.2187 15.5953 28.3772 15.6283 28.529C15.6612 28.6808 15.7466 28.816 15.8695 28.9111L18.4895 31.5112C18.5595 31.5812 18.5695 31.6111 18.4895 31.7011C18.2095 32.5111 17.9395 33.3113 17.6795 34.1213L17.3595 35.0612C17.3236 35.1465 17.3048 35.2382 17.3045 35.3308C17.3041 35.4233 17.3221 35.515 17.3575 35.6005C17.3928 35.6861 17.4448 35.7637 17.5104 35.829C17.5759 35.8944 17.6538 35.9461 17.7395 35.9811C17.8339 36.0241 17.9365 36.0464 18.0403 36.0466C18.144 36.0468 18.2467 36.0249 18.3413 35.9824C18.4359 35.9398 18.5204 35.8776 18.5891 35.7997C18.6578 35.7219 18.709 35.6304 18.7395 35.5312L19.0695 34.5312L19.4595 33.3212C19.5695 33.0112 19.6695 32.7013 19.7695 32.4013C19.7695 32.3413 19.7695 32.3312 19.7695 32.3312H19.8695C20.2703 32.4473 20.6829 32.5177 21.0995 32.5412C22.4395 32.5412 23.7695 32.5412 25.0995 32.5412C25.3204 32.5297 25.5359 32.4682 25.7295 32.3613C25.7706 32.3392 25.8143 32.3223 25.8595 32.3112C25.8595 32.3112 25.8595 32.3112 25.9395 32.3112C26.0184 32.3585 26.1076 32.386 26.1995 32.3913H26.3395L26.6495 32.4611L26.5595 32.2712C26.6395 32.2712 26.6695 32.2713 26.7395 32.1513C26.8995 32.2313 27.0595 32.1512 27.1795 32.0212V31.9711C27.2455 31.9796 27.3126 31.969 27.3728 31.9406C27.433 31.9123 27.4839 31.8675 27.5195 31.8112L27.5795 31.7211H27.7295V31.6513H27.8295C28.0695 31.5513 28.1495 31.4911 28.0795 31.2211C28.0664 31.1788 28.0664 31.1336 28.0795 31.0913V31.0412H28.1395C28.1395 31.0412 28.1995 31.0412 28.2195 31.0412C28.4795 31.1112 28.5695 31.0412 28.6195 31.0412C28.6435 31.0145 28.6607 30.9823 28.6694 30.9475C28.6781 30.9126 28.6782 30.8761 28.6695 30.8413C28.7595 30.8413 28.8595 30.7613 28.8895 30.6513C28.9153 30.5883 28.9526 30.5305 28.9995 30.4811C29.0548 30.4246 29.1019 30.3607 29.1395 30.2912C29.3464 29.8319 29.5169 29.3572 29.6495 28.8713C29.7495 28.4713 29.8295 28.0513 29.8995 27.6513C29.8995 27.4613 29.9695 27.2713 30.0095 27.0913L30.2195 26.0212C30.3595 25.3612 30.4895 24.6912 30.6195 24.0212C30.6195 23.8712 30.6895 23.8713 30.7995 23.8613C31.1495 23.8613 31.5095 23.8613 31.8595 23.8613H32.0295C32.4175 23.8447 32.7952 23.7317 33.1286 23.5327C33.4621 23.3336 33.7407 23.0547 33.9395 22.7211C34.1475 22.4251 34.2808 22.0831 34.3278 21.7243C34.3748 21.3656 34.3342 21.0007 34.2095 20.6611Z" fill="#4858CC"/>
<path fill-rule="evenodd" clip-rule="evenodd" d="M21.6696 9.04111C20.5845 9.10686 19.5124 9.31198 18.4796 9.65121C18.3372 9.68127 18.1889 9.66532 18.056 9.60605C17.9231 9.54678 17.8123 9.44715 17.7395 9.32114C17.7114 9.25818 17.6961 9.19012 17.6945 9.12119C17.6929 9.05225 17.705 8.98374 17.7301 8.91953C17.7552 8.85532 17.7929 8.79669 17.8408 8.74716C17.8888 8.69764 17.9462 8.65835 18.0095 8.6312C18.2981 8.51898 18.5959 8.43198 18.8996 8.37119C19.9568 8.09538 21.0472 7.96737 22.1395 7.99106C22.8381 8.02007 23.5213 8.20459 24.1395 8.5311C24.6177 8.78798 25.0027 9.18923 25.2397 9.67758C25.4767 10.1659 25.5536 10.7165 25.4596 11.2511C25.4525 11.317 25.4585 11.3836 25.4774 11.4471C25.4963 11.5106 25.5276 11.5699 25.5695 11.6212C25.7617 11.8407 25.891 12.108 25.9438 12.3949C25.9966 12.6818 25.9709 12.9775 25.8695 13.2511C25.769 13.5533 25.5777 13.8173 25.3219 14.0069C25.066 14.1966 24.7579 14.3028 24.4395 14.3111C24.0487 14.3404 23.6608 14.2252 23.3493 13.9874C23.0378 13.7496 22.8244 13.4058 22.7495 13.0211C22.6723 12.6393 22.7362 12.2425 22.9293 11.9041C23.1224 11.5658 23.4316 11.3088 23.7996 11.181C23.8815 11.1409 23.9692 11.114 24.0595 11.1012C24.3595 11.1012 24.3695 10.931 24.3695 10.701C24.3555 10.3553 24.2224 10.0252 23.9928 9.76645C23.7631 9.50766 23.4511 9.33617 23.1096 9.2811C22.6796 9.1611 22.1696 9.12111 21.6696 9.04111ZM24.3895 13.211C24.4582 13.2137 24.5266 13.2025 24.5908 13.1781C24.655 13.1536 24.7137 13.1166 24.7632 13.0689C24.8127 13.0213 24.8521 12.9642 24.8789 12.901C24.9058 12.8378 24.9196 12.7697 24.9196 12.701C24.9417 12.6236 24.9455 12.5424 24.9307 12.4632C24.916 12.3841 24.8831 12.3095 24.8347 12.2452C24.7862 12.181 24.7235 12.1288 24.6514 12.0929C24.5794 12.057 24.5001 12.0382 24.4196 12.0382C24.3391 12.0382 24.2597 12.057 24.1876 12.0929C24.1156 12.1288 24.0529 12.181 24.0044 12.2452C23.9559 12.3095 23.9231 12.3841 23.9083 12.4632C23.8936 12.5424 23.8975 12.6236 23.9196 12.701C23.9192 12.8296 23.9674 12.9536 24.0545 13.0482C24.1417 13.1428 24.2613 13.2009 24.3895 13.211Z" fill="#4858CC"/>
<path fill-rule="evenodd" clip-rule="evenodd" d="M15.0198 25.6413C14.4178 25.6094 13.8393 25.3967 13.3598 25.0312C13.234 24.9454 13.0806 24.9096 12.9298 24.9311C12.5457 24.9901 12.153 24.9149 11.8179 24.7182C11.4827 24.5215 11.2256 24.2154 11.0898 23.8513C10.9526 23.4468 10.9806 23.0043 11.1679 22.6203C11.3552 22.2364 11.6865 21.9421 12.0898 21.8012C12.3751 21.6901 12.6869 21.6658 12.9859 21.7317C13.2849 21.7975 13.5576 21.9504 13.7698 22.1711C13.992 22.3759 14.1485 22.6421 14.2197 22.9358C14.2909 23.2294 14.2735 23.5375 14.1698 23.8213C14.0498 24.2013 14.1698 24.3812 14.6798 24.4812C14.9281 24.5308 15.1848 24.5205 15.4283 24.4509C15.6718 24.3813 15.8952 24.2546 16.0798 24.0813C16.719 23.513 17.207 22.7948 17.4998 21.9912C17.7998 21.2312 18.0198 20.4411 18.2798 19.6711C18.3153 19.5311 18.4044 19.4107 18.5279 19.3359C18.6514 19.2611 18.7993 19.2379 18.9398 19.2712C19.085 19.3173 19.2063 19.4187 19.2774 19.5534C19.3485 19.6882 19.3637 19.8453 19.3198 19.9912C19.0963 20.9698 18.7608 21.9195 18.3198 22.8213C18.0018 23.5015 17.5763 24.126 17.0598 24.6711C16.6811 25.0571 16.2145 25.3454 15.6998 25.5112C15.4764 25.5702 15.2492 25.6138 15.0198 25.6413ZM12.6298 23.8413C12.6981 23.8426 12.766 23.8303 12.8296 23.8054C12.8932 23.7805 12.9513 23.7434 13.0005 23.696C13.0497 23.6486 13.0891 23.5921 13.1164 23.5295C13.1438 23.4669 13.1585 23.3996 13.1598 23.3313C13.1613 23.2622 13.1485 23.1935 13.1221 23.1296C13.0958 23.0657 13.0564 23.0079 13.0066 22.9599C12.9568 22.912 12.8976 22.8749 12.8328 22.851C12.7679 22.8271 12.6988 22.8171 12.6298 22.8213C12.5608 22.8171 12.4917 22.8271 12.4269 22.851C12.362 22.8749 12.3028 22.912 12.253 22.9599C12.2032 23.0079 12.1639 23.0657 12.1375 23.1296C12.1111 23.1935 12.0983 23.2622 12.0998 23.3313C12.105 23.4683 12.1631 23.598 12.2619 23.6931C12.3608 23.7882 12.4926 23.8414 12.6298 23.8413Z" fill="#4858CC"/>
<path fill-rule="evenodd" clip-rule="evenodd" d="M9.26967 6.21122C9.6454 6.20412 10.0116 6.3296 10.3042 6.56547C10.5967 6.80134 10.7969 7.13258 10.8696 7.50126C10.9341 7.84439 10.8875 8.19921 10.7364 8.51396C10.5853 8.82871 10.3377 9.08696 10.0297 9.25126C9.69901 9.42638 9.31714 9.47933 8.95131 9.40068C8.58549 9.32203 8.25916 9.11688 8.02968 8.82133C7.89968 8.66133 7.80965 8.62125 7.61965 8.74125C7.3688 8.87981 7.16463 9.08952 7.03292 9.34404C6.90121 9.59855 6.84789 9.88638 6.87966 10.1712C6.96171 10.8909 7.22303 11.5786 7.63967 12.1712C8.18121 13.0061 8.82265 13.7718 9.5497 14.4512C9.9097 14.8012 9.8697 15.2112 9.4797 15.4512C9.38311 15.5111 9.26806 15.5341 9.1559 15.5157C9.04375 15.4973 8.94205 15.439 8.86965 15.3514C7.74567 14.3549 6.83124 13.1447 6.17965 11.7913C5.90795 11.2306 5.77102 10.6142 5.77968 9.99125C5.78801 9.50283 5.93922 9.02749 6.21468 8.62407C6.49015 8.22064 6.87779 7.90679 7.32967 7.72123C7.43337 7.67949 7.5276 7.61717 7.60665 7.53813C7.6857 7.45908 7.74795 7.36497 7.78969 7.26127C7.89207 6.95124 8.09091 6.68213 8.3572 6.49321C8.62348 6.30429 8.94323 6.20543 9.26967 6.21122ZM9.78969 7.80131C9.78969 7.6687 9.73698 7.54156 9.64321 7.4478C9.54944 7.35403 9.4223 7.30131 9.28969 7.30131C9.2207 7.29715 9.15161 7.30721 9.08675 7.3311C9.0219 7.35499 8.96267 7.39206 8.91286 7.43998C8.86306 7.48791 8.82375 7.54577 8.79738 7.60966C8.77102 7.67355 8.75816 7.74222 8.75966 7.81132C8.75673 7.87994 8.76825 7.94837 8.79348 8.01225C8.81871 8.07612 8.85712 8.13408 8.90615 8.18217C8.95518 8.23026 9.01373 8.26732 9.07808 8.2913C9.14244 8.31529 9.21114 8.3256 9.27968 8.32133C9.35293 8.33124 9.42749 8.32397 9.49752 8.30033C9.56755 8.2767 9.63117 8.23736 9.68343 8.1851C9.7357 8.13284 9.77515 8.0691 9.79879 7.99907C9.82242 7.92903 9.82957 7.85454 9.81966 7.78129L9.78969 7.80131Z" fill="#4858CC"/>
<path fill-rule="evenodd" clip-rule="evenodd" d="M16.8399 5.10142C16.5898 4.87044 16.2664 4.73482 15.9263 4.71837C15.5862 4.70191 15.2512 4.80558 14.98 5.01133C14.4094 5.45354 13.9532 6.02617 13.6499 6.68126C13.2076 7.55452 12.8718 8.47782 12.6499 9.43126C12.6366 9.55492 12.5852 9.67159 12.5028 9.76475C12.4204 9.85791 12.311 9.92297 12.1899 9.95128C12.0898 9.98203 11.982 9.97703 11.8853 9.93687C11.7885 9.89671 11.7089 9.82393 11.6599 9.73131C11.5764 9.57884 11.5448 9.40332 11.5699 9.23131C11.8919 7.58909 12.6055 6.04883 13.6499 4.74131C14.1439 4.12171 14.8628 3.72281 15.6499 3.63145C16.3367 3.56349 17.0227 3.76803 17.5599 4.20128C17.6124 4.25109 17.6764 4.28731 17.7461 4.3065C17.8159 4.32569 17.8894 4.32735 17.9599 4.31138C18.2315 4.25321 18.5134 4.2654 18.779 4.34678C19.0445 4.42817 19.2849 4.57612 19.4772 4.77647C19.6695 4.97682 19.8075 5.22292 19.878 5.49156C19.9484 5.7602 19.9491 6.04241 19.8799 6.31138C19.7922 6.63333 19.6101 6.92157 19.357 7.13902C19.1039 7.35647 18.7914 7.49314 18.4599 7.53135C18.1106 7.5698 17.7582 7.49292 17.4567 7.31236C17.1552 7.1318 16.921 6.85747 16.79 6.53135C16.6932 6.30385 16.6475 6.05798 16.6561 5.81089C16.6647 5.56381 16.7275 5.32161 16.8399 5.10142ZM18.7799 5.90147C18.7813 5.83281 18.7688 5.76449 18.7431 5.70079C18.7175 5.63708 18.6792 5.57918 18.6306 5.53062C18.5821 5.48206 18.5242 5.44372 18.4605 5.41807C18.3968 5.39242 18.3286 5.38009 18.2599 5.38145C18.1908 5.37994 18.1222 5.39268 18.0583 5.41905C17.9944 5.44542 17.9367 5.48472 17.8888 5.53453C17.8408 5.58433 17.8037 5.6435 17.7798 5.70836C17.7559 5.77321 17.7457 5.84225 17.7499 5.91124C17.7485 5.97814 17.7608 6.04483 17.786 6.10679C17.8113 6.16876 17.849 6.22474 17.8968 6.27159C17.9445 6.31844 18.0014 6.35499 18.0639 6.37901C18.1263 6.40304 18.1931 6.41398 18.2599 6.41124C18.3281 6.41398 18.3961 6.40281 18.4598 6.37828C18.5235 6.35375 18.5814 6.31643 18.6302 6.26866C18.6789 6.22088 18.7173 6.16363 18.743 6.10045C18.7688 6.03727 18.7814 5.96969 18.7799 5.90147Z" fill="#4858CC"/>
<path fill-rule="evenodd" clip-rule="evenodd" d="M9.26944 21.2414C8.37086 21.2841 7.47705 21.0873 6.67941 20.6713C6.24401 20.4441 5.88772 20.0905 5.65744 19.6567C5.42715 19.2229 5.3337 18.7293 5.38943 18.2414C5.40867 18.0985 5.39914 17.9533 5.36136 17.8141C5.32357 17.675 5.25833 17.5448 5.16946 17.4313C4.98007 17.1919 4.87046 16.8991 4.85611 16.5942C4.84176 16.2892 4.92337 15.9875 5.08944 15.7314C5.23906 15.4498 5.47237 15.2218 5.75717 15.0785C6.04197 14.9352 6.36417 14.8837 6.67941 14.9313C6.9841 14.9506 7.27566 15.0625 7.5151 15.2519C7.75455 15.4413 7.93049 15.6993 8.01944 15.9914C8.09909 16.2062 8.13135 16.4358 8.11404 16.6642C8.09673 16.8927 8.03021 17.1147 7.91909 17.3151C7.80798 17.5155 7.65487 17.6897 7.47024 17.8254C7.28561 17.9611 7.07388 18.0553 6.84945 18.1015C6.45945 18.1715 6.42945 18.2115 6.46945 18.6115C6.49539 18.8841 6.59855 19.1437 6.76681 19.3598C6.93508 19.5759 7.16149 19.7395 7.41946 19.8315C8.22547 20.1533 9.10616 20.2399 9.95944 20.0815C10.7894 19.9415 11.6294 19.7615 12.4594 19.5815C12.5323 19.5603 12.6087 19.5537 12.6841 19.5624C12.7595 19.5711 12.8325 19.5947 12.8986 19.632C12.9647 19.6693 13.0227 19.7195 13.0692 19.7795C13.1158 19.8395 13.1498 19.908 13.1695 19.9814C13.1988 20.1137 13.1783 20.2522 13.1119 20.3703C13.0455 20.4884 12.9377 20.5779 12.8094 20.6215C11.6619 20.9834 10.4716 21.1918 9.26944 21.2414ZM5.97946 16.4914C5.97402 16.56 5.98249 16.629 6.00442 16.6943C6.02635 16.7595 6.06124 16.8196 6.10702 16.871C6.1528 16.9224 6.20856 16.9641 6.27084 16.9933C6.33312 17.0226 6.40067 17.0389 6.46945 17.0414C6.53572 17.0484 6.60272 17.0415 6.66616 17.0212C6.72961 17.0008 6.78812 16.9675 6.83798 16.9233C6.88783 16.8791 6.92792 16.8249 6.95572 16.7643C6.98352 16.7038 6.99839 16.6381 6.99942 16.5715C7.00924 16.5026 7.00461 16.4326 6.98581 16.3657C6.967 16.2987 6.93445 16.2364 6.89022 16.1828C6.846 16.1292 6.79109 16.0853 6.72897 16.0541C6.66685 16.0229 6.59888 16.0049 6.52945 16.0014C6.39045 15.9931 6.2538 16.0398 6.14901 16.1315C6.04422 16.2232 5.97971 16.3525 5.96945 16.4914H5.97946Z" fill="#4858CC"/>
<path fill-rule="evenodd" clip-rule="evenodd" d="M22.9991 20.5913C23.3686 20.4636 23.6736 20.1964 23.8492 19.8472C24.0247 19.4979 24.057 19.0939 23.9391 18.7212C23.7602 17.92 23.3935 17.1729 22.8691 16.5413C22.3691 15.9213 21.8192 15.3412 21.2892 14.7512C21.2285 14.7021 21.1786 14.6412 21.1425 14.572C21.1064 14.5029 21.0848 14.4272 21.0792 14.3494C21.0736 14.2716 21.084 14.1933 21.1098 14.1196C21.1356 14.046 21.1762 13.9784 21.2292 13.9211C21.278 13.8624 21.339 13.8152 21.4082 13.7827C21.4773 13.7503 21.5528 13.7334 21.6291 13.7334C21.7055 13.7334 21.7809 13.7503 21.8501 13.7827C21.9192 13.8152 21.9803 13.8624 22.0291 13.9211C23.1033 14.882 23.9885 16.0353 24.6391 17.3213C25.0317 18.0668 25.1654 18.9215 25.0191 19.7512C24.932 20.157 24.7445 20.5344 24.4737 20.8489C24.2029 21.1634 23.8575 21.4049 23.4691 21.5513C23.3783 21.5794 23.2959 21.6299 23.2295 21.698C23.1632 21.7661 23.1149 21.8496 23.0891 21.9412C22.9692 22.2545 22.7566 22.5238 22.4796 22.7131C22.2027 22.9025 21.8746 23.0031 21.5392 23.0012C21.2065 22.9785 20.8876 22.8596 20.6213 22.6589C20.355 22.4583 20.1528 22.1848 20.0392 21.8713C19.9124 21.4834 19.9366 21.0617 20.1072 20.6909C20.2778 20.3201 20.582 20.0275 20.9591 19.8713C21.2606 19.7441 21.5938 19.7121 21.9139 19.78C22.2339 19.848 22.5254 20.0125 22.7491 20.2512L22.9991 20.5913ZM21.5791 21.9211C21.7166 21.919 21.8483 21.8656 21.9482 21.7712C22.0482 21.6768 22.1091 21.5483 22.1191 21.4111C22.1191 21.2679 22.0622 21.1306 21.961 21.0293C21.8597 20.928 21.7224 20.8713 21.5791 20.8713C21.4359 20.8713 21.2986 20.928 21.1973 21.0293C21.096 21.1306 21.0392 21.2679 21.0392 21.4111C21.0468 21.5491 21.1071 21.6791 21.2076 21.7739C21.308 21.8688 21.441 21.9214 21.5791 21.9211Z" fill="#4858CC"/>
<path fill-rule="evenodd" clip-rule="evenodd" d="M28.0996 31.1411L28.1896 31.0811L28.4596 31.261L28.2296 31.4709L28.0996 31.1411Z" fill="#4858CC" stroke="#4858CC" stroke-width="0.5" stroke-miterlimit="10"/>
<path fill-rule="evenodd" clip-rule="evenodd" d="M20.6994 15.831L19.5994 15.1908L18.5994 14.621C18.6286 14.5923 18.6624 14.5686 18.6994 14.551L20.6294 13.4308C20.9594 13.2408 21.0894 12.9508 20.9394 12.6808C20.5894 12.0508 20.2294 11.431 19.8594 10.811C19.825 10.7453 19.7767 10.6879 19.7179 10.6427C19.6591 10.5976 19.5912 10.5659 19.5188 10.5497C19.4465 10.5335 19.3715 10.5332 19.299 10.549C19.2266 10.5648 19.1585 10.5963 19.0994 10.641L17.9494 11.311C17.6494 11.491 17.3394 11.661 16.9494 11.851V11.5009C16.9494 10.8109 16.9494 10.1108 16.9494 9.42082C16.9577 9.34085 16.9478 9.26005 16.9203 9.1845C16.8928 9.10894 16.8484 9.04067 16.7906 8.98479C16.7328 8.92891 16.663 8.88692 16.5866 8.86199C16.5101 8.83706 16.429 8.82994 16.3494 8.84099H14.4494C13.9494 8.84099 13.7494 9.05096 13.7494 9.56096C13.7494 10.071 13.7494 10.8609 13.7494 11.5109C13.7494 11.6009 13.7494 11.691 13.7494 11.841L11.6894 10.6608C11.6252 10.6112 11.5507 10.5768 11.4714 10.56C11.3921 10.5431 11.31 10.5444 11.2312 10.5636C11.1525 10.5829 11.079 10.6196 11.0164 10.6711C10.9537 10.7225 10.9035 10.7875 10.8694 10.861L9.86936 12.591C9.8209 12.6586 9.78841 12.7363 9.77432 12.8183C9.76023 12.9003 9.76495 12.9842 9.78806 13.0641C9.81116 13.144 9.85209 13.2177 9.90775 13.2795C9.96341 13.3413 10.0324 13.3895 10.1094 13.4208L11.3094 14.101L12.1694 14.621L10.0994 15.821C10.0212 15.8511 9.95119 15.8992 9.89523 15.9616C9.83928 16.024 9.79891 16.0989 9.77744 16.1799C9.75597 16.2609 9.75404 16.3458 9.77176 16.4277C9.78948 16.5096 9.82634 16.5862 9.87937 16.651C10.1994 17.231 10.5294 17.811 10.8794 18.381C10.9125 18.4476 10.9594 18.5064 11.0168 18.5536C11.0742 18.6009 11.1409 18.6356 11.2126 18.6554C11.2842 18.6753 11.3593 18.6797 11.4328 18.6686C11.5064 18.6575 11.5767 18.6311 11.6394 18.591C11.9994 18.401 12.3494 18.1909 12.6994 17.9809L13.6994 17.391C13.6994 17.541 13.6994 17.6309 13.6994 17.7209C13.6994 18.4009 13.6994 19.0809 13.6994 19.7209C13.6887 19.8036 13.6966 19.8877 13.7225 19.967C13.7484 20.0462 13.7917 20.1185 13.8492 20.1789C13.9067 20.2393 13.977 20.2861 14.0548 20.3158C14.1327 20.3456 14.2163 20.3576 14.2994 20.351C14.9661 20.351 15.6327 20.351 16.2994 20.351C16.3847 20.3617 16.4713 20.352 16.5523 20.3232C16.6333 20.2943 16.7063 20.247 16.7657 20.1847C16.825 20.1225 16.8689 20.047 16.8938 19.9648C16.9188 19.8825 16.9241 19.7956 16.9094 19.7109V17.361L17.1694 17.4909L18.9694 18.4909C19.0369 18.5477 19.1171 18.5876 19.2032 18.6069C19.2893 18.6262 19.3788 18.6245 19.4641 18.602C19.5494 18.5794 19.6281 18.5366 19.6934 18.4772C19.7587 18.4179 19.8088 18.3437 19.8394 18.2609C20.1694 17.7009 20.4894 17.141 20.8394 16.581C20.8807 16.523 20.9099 16.4572 20.9253 16.3876C20.9406 16.3181 20.9417 16.2462 20.9287 16.1762C20.9156 16.1062 20.8886 16.0395 20.8492 15.9802C20.8098 15.9208 20.7588 15.8702 20.6994 15.831ZM19.3094 17.2309C19.2194 17.4009 19.0894 17.3009 18.9894 17.2309L17.2894 16.2309L16.7794 15.9408C16.6905 15.8807 16.5862 15.8475 16.4789 15.8449C16.3715 15.8423 16.2658 15.8706 16.1741 15.9264C16.0824 15.9823 16.0088 16.0633 15.9618 16.1598C15.9149 16.2564 15.8967 16.3643 15.9094 16.4709C15.9094 17.2009 15.9094 17.9308 15.9094 18.6608C15.9094 19.3908 16.0094 19.2509 15.3094 19.2609C14.9394 19.2609 14.9394 19.261 14.9394 18.881V16.5009C14.9394 15.9409 14.5394 15.6909 14.0494 15.9609C13.3294 16.3509 12.6194 16.7608 11.9094 17.1908C11.6894 17.3208 11.5594 17.301 11.4494 17.081C11.3394 16.861 11.2594 16.7009 11.1494 16.4909L12.5594 15.6608L13.5594 15.111C13.6656 15.069 13.7568 14.9958 13.821 14.9013C13.8853 14.8068 13.9196 14.6953 13.9196 14.581C13.9196 14.4667 13.8853 14.3549 13.821 14.2604C13.7568 14.1659 13.6656 14.093 13.5594 14.051C12.8294 13.631 12.0994 13.2009 11.3694 12.7909C11.2194 12.7009 11.1794 12.6309 11.2694 12.4809L11.6594 11.821L13.4194 12.821C13.6694 12.971 13.9194 13.1209 14.1794 13.2509C14.2648 13.2959 14.3608 13.3171 14.4573 13.3124C14.5538 13.3077 14.6473 13.2774 14.7279 13.2243C14.8086 13.1712 14.8736 13.0974 14.916 13.0107C14.9585 12.9239 14.9769 12.8272 14.9694 12.7309C14.9694 11.9109 14.9694 11.0909 14.9694 10.2709C14.9694 9.88092 14.9694 9.88103 15.3594 9.88103C15.9394 9.88103 15.9394 9.88086 15.9394 10.4609C15.9394 11.1909 15.9394 11.921 15.9394 12.651C15.9394 13.001 16.0594 13.2309 16.3594 13.2809C16.5548 13.2933 16.7495 13.2483 16.9194 13.151C17.6994 12.721 18.4594 12.271 19.2594 11.811L19.7594 12.651L18.5094 13.381L17.3094 14.071C16.8694 14.341 16.9094 14.851 17.3994 15.131L19.7594 16.4809L19.3094 17.2309Z" fill="#4858CC"/>
</svg>
