<svg width="36" height="36" viewBox="0 0 36 36" fill="none" xmlns="http://www.w3.org/2000/svg">
<circle cx="18" cy="18" r="18" fill="#FFD756"/>
<path d="M24.875 18C24.3777 18 23.9008 17.8025 23.5492 17.4508C23.1975 17.0992 23 16.6223 23 16.125C23 15.6277 23.1975 15.1508 23.5492 14.7992C23.9008 14.4475 24.3777 14.25 24.875 14.25C25.3723 14.25 25.8492 14.4475 26.2008 14.7992C26.5525 15.1508 26.75 15.6277 26.75 16.125C26.75 16.6223 26.5525 17.0992 26.2008 17.4508C25.8492 17.8025 25.3723 18 24.875 18ZM21.125 13C20.6277 13 20.1508 12.8025 19.7992 12.4508C19.4475 12.0992 19.25 11.6223 19.25 11.125C19.25 10.6277 19.4475 10.1508 19.7992 9.79917C20.1508 9.44754 20.6277 9.25 21.125 9.25C21.6223 9.25 22.0992 9.44754 22.4508 9.79917C22.8025 10.1508 23 10.6277 23 11.125C23 11.6223 22.8025 12.0992 22.4508 12.4508C22.0992 12.8025 21.6223 13 21.125 13ZM14.875 13C14.3777 13 13.9008 12.8025 13.5492 12.4508C13.1975 12.0992 13 11.6223 13 11.125C13 10.6277 13.1975 10.1508 13.5492 9.79917C13.9008 9.44754 14.3777 9.25 14.875 9.25C15.3723 9.25 15.8492 9.44754 16.2008 9.79917C16.5525 10.1508 16.75 10.6277 16.75 11.125C16.75 11.6223 16.5525 12.0992 16.2008 12.4508C15.8492 12.8025 15.3723 13 14.875 13ZM11.125 18C10.6277 18 10.1508 17.8025 9.79917 17.4508C9.44754 17.0992 9.25 16.6223 9.25 16.125C9.25 15.6277 9.44754 15.1508 9.79917 14.7992C10.1508 14.4475 10.6277 14.25 11.125 14.25C11.6223 14.25 12.0992 14.4475 12.4508 14.7992C12.8025 15.1508 13 15.6277 13 16.125C13 16.6223 12.8025 17.0992 12.4508 17.4508C12.0992 17.8025 11.6223 18 11.125 18ZM18 6.75C15.0163 6.75 12.1548 7.93526 10.045 10.045C7.93526 12.1548 6.75 15.0163 6.75 18C6.75 20.9837 7.93526 23.8452 10.045 25.955C12.1548 28.0647 15.0163 29.25 18 29.25C18.4973 29.25 18.9742 29.0525 19.3258 28.7008C19.6775 28.3492 19.875 27.8723 19.875 27.375C19.875 26.8875 19.6875 26.45 19.3875 26.125C19.1 25.7875 18.9125 25.35 18.9125 24.875C18.9125 24.3777 19.11 23.9008 19.4617 23.5492C19.8133 23.1975 20.2902 23 20.7875 23H23C24.6576 23 26.2473 22.3415 27.4194 21.1694C28.5915 19.9973 29.25 18.4076 29.25 16.75C29.25 11.225 24.2125 6.75 18 6.75Z" fill="white"/>
</svg>
