<svg width="29" height="33" viewBox="0 0 29 33" fill="none" xmlns="http://www.w3.org/2000/svg">
<path d="M6.95497 29.4062C4.86497 26.0363 2.86496 22.5862 1.19496 19.6462C1.05367 19.4266 0.959451 19.18 0.918226 18.9221C0.877002 18.6642 0.889685 18.4005 0.955458 18.1477C1.02123 17.895 1.13866 17.6587 1.30037 17.4536C1.46207 17.2485 1.66454 17.079 1.89497 16.9561C2.16807 16.7849 2.48275 16.6915 2.80501 16.686C3.16134 16.7133 3.5047 16.8317 3.80232 17.0295C4.09995 17.2274 4.34185 17.4982 4.50496 17.8162C5.14496 18.8162 7.505 22.8763 8.295 24.1663L8.675 24.8362L9.10499 24.196C9.72499 23.256 10.995 21.3562 12.555 19.0562C12.467 18.9346 12.4245 18.786 12.435 18.6362C12.4542 18.0279 12.7087 17.4506 13.145 17.0261C13.471 16.7609 13.8604 16.5851 14.275 16.5161L15.965 14.0161C15.7075 13.7913 15.5287 13.49 15.455 13.1562C12.745 17.1562 10.075 21.0962 8.76497 23.0562C7.76497 21.3562 5.91498 18.1962 5.34498 17.3262C5.17415 16.9853 4.93528 16.6829 4.64308 16.438C4.35088 16.193 4.01154 16.0106 3.64607 15.9019C3.2806 15.7932 2.89672 15.7607 2.51814 15.8062C2.13957 15.8516 1.77432 15.9742 1.44496 16.1663C1.10888 16.3558 0.814984 16.6118 0.581129 16.9187C0.347275 17.2256 0.17837 17.5769 0.0847914 17.9512C-0.00878726 18.3255 -0.0251065 18.7149 0.0368178 19.0957C0.0987421 19.4765 0.237609 19.8409 0.44496 20.1663C2.12496 23.1063 4.12499 26.5761 6.22499 29.9561C6.45811 30.3927 6.80131 30.7608 7.22053 31.0239C7.63976 31.287 8.12046 31.436 8.615 31.4561C9.10001 31.4351 9.57268 31.2968 9.99244 31.053C10.4122 30.8091 10.7665 30.4671 11.025 30.0562C11.345 29.6262 12.695 27.6461 14.515 24.9761C14.4331 24.8374 14.3981 24.6762 14.415 24.5161C14.415 24.2761 14.465 24.0462 14.485 23.8162C14.4936 23.7014 14.5241 23.5893 14.575 23.4861C14.575 23.3161 14.675 23.1461 14.725 22.9761C12.415 26.3661 10.625 28.9761 10.255 29.4961C10.1064 29.8137 9.86832 30.081 9.56996 30.2651C9.2716 30.4493 8.92594 30.5423 8.57545 30.5327C8.22497 30.5232 7.88494 30.4116 7.59706 30.2114C7.30918 30.0113 7.086 29.7315 6.95497 29.4062Z" fill="#4858CC"/>
<path d="M27.4048 0.48639C27.0868 0.269542 26.7274 0.120586 26.3491 0.0488902C25.9709 -0.0228054 25.5819 -0.0155135 25.2065 0.0698862C24.8312 0.155286 24.4774 0.316958 24.1674 0.545228C23.8574 0.773498 23.5978 1.06343 23.4048 1.39655C23.0348 1.91655 20.8448 5.1264 18.2148 8.9964C18.3433 8.98557 18.4726 9.00125 18.5948 9.04254C18.7169 9.08383 18.8293 9.14983 18.9249 9.23639L18.9849 9.28644L19.0948 9.40656C21.6748 5.60656 23.8249 2.45634 24.1849 1.93634C24.306 1.70786 24.4739 1.50767 24.6777 1.34845C24.8814 1.18923 25.1164 1.07479 25.3674 1.01251C25.6184 0.950238 25.8797 0.941379 26.1343 0.986878C26.3888 1.03238 26.631 1.13107 26.8448 1.27643C27.0661 1.4289 27.2543 1.62431 27.3983 1.85114C27.5423 2.07796 27.6391 2.33167 27.683 2.59674C27.7269 2.86181 27.7169 3.13298 27.6536 3.3941C27.5904 3.65523 27.4751 3.9009 27.3148 4.11652C26.0848 5.98652 22.7348 10.9664 19.3148 16.0264C19.4326 16.0361 19.5477 16.0667 19.6548 16.1165C19.843 16.203 20.0208 16.3101 20.1849 16.4363C23.5849 11.4363 26.8949 6.49654 28.1049 4.63654C28.3361 4.31979 28.5016 3.95988 28.5917 3.57819C28.6817 3.1965 28.6946 2.80059 28.6293 2.41388C28.5641 2.02717 28.4221 1.6575 28.2119 1.32648C28.0016 0.995453 27.7272 0.709764 27.4048 0.48639Z" fill="#4858CC"/>
<path fill-rule="evenodd" clip-rule="evenodd" d="M17.255 27.9765V30.6166C17.259 30.8283 17.2205 31.0385 17.1417 31.2351C17.0628 31.4316 16.9453 31.6103 16.796 31.7604C16.6468 31.9106 16.4688 32.0292 16.2728 32.1093C16.0768 32.1894 15.8667 32.2292 15.655 32.2265C15.3206 32.2507 14.9873 32.1666 14.7045 31.9865C14.4217 31.8064 14.2045 31.5398 14.085 31.2265C14.0073 31.0119 13.9701 30.7848 13.975 30.5566C13.975 28.9366 13.975 27.3165 13.975 25.7065C13.99 25.6035 13.9653 25.4987 13.9059 25.4133C13.8465 25.3279 13.7568 25.2683 13.655 25.2465C13.3524 25.164 13.0735 25.0116 12.8407 24.8015C12.6079 24.5913 12.4278 24.3292 12.315 24.0366C12.2025 23.763 12.1382 23.4722 12.125 23.1767C12.125 21.5267 12.125 19.8767 12.125 18.1767C12.1395 17.601 12.3432 17.0459 12.7048 16.5976C13.0663 16.1493 13.5654 15.8326 14.125 15.6965L15.325 15.4267C15.4278 15.4131 15.5241 15.3685 15.601 15.2988C15.6778 15.2291 15.7315 15.1376 15.755 15.0366C15.7991 14.9275 15.8084 14.8074 15.7816 14.6928C15.7547 14.5782 15.6931 14.4748 15.605 14.3967C15.2777 14.1272 15.0172 13.7857 14.8437 13.3989C14.6702 13.012 14.5886 12.5903 14.605 12.1667C14.5832 11.6922 14.6066 11.2166 14.675 10.7465C14.7766 10.1914 15.0441 9.68013 15.4422 9.28022C15.8403 8.8803 16.3504 8.61059 16.905 8.50654C17.2817 8.4171 17.6725 8.40466 18.0541 8.46967C18.4357 8.53468 18.8003 8.67586 19.126 8.88495C19.4518 9.09405 19.7321 9.36661 19.9501 9.68647C20.1682 10.0063 20.3195 10.3669 20.395 10.7465C20.6026 11.6064 20.5469 12.5089 20.235 13.3366C20.0704 13.7592 19.7939 14.1292 19.4351 14.4067C19.3556 14.4778 19.2989 14.5706 19.2722 14.6738C19.2455 14.777 19.25 14.8858 19.285 14.9865C19.3058 15.0912 19.3565 15.1878 19.4311 15.2641C19.5057 15.3405 19.6008 15.3935 19.705 15.4167L20.925 15.6965C21.4871 15.8279 21.9891 16.1434 22.3514 16.5927C22.7138 17.042 22.9157 17.5996 22.925 18.1767V23.1066C22.9306 23.5694 22.788 24.0219 22.5181 24.3979C22.2483 24.7739 21.8653 25.0536 21.425 25.1965C21.3195 25.216 21.2257 25.2763 21.164 25.3642C21.1023 25.4521 21.0775 25.5607 21.095 25.6667C21.095 27.2767 21.095 28.8865 21.095 30.4965C21.1121 30.8637 21.0006 31.2256 20.7798 31.5195C20.5589 31.8133 20.2425 32.0209 19.885 32.1066C19.4982 32.2317 19.0786 32.2076 18.7086 32.0392C18.3386 31.8709 18.0449 31.5702 17.885 31.1965C17.7889 30.9688 17.7412 30.7236 17.7451 30.4765C17.7451 28.7565 17.7451 27.0266 17.7451 25.3066V25.0566C17.7451 24.8866 17.655 24.7866 17.485 24.7966C17.4503 24.7945 17.4156 24.8004 17.3835 24.8137C17.3514 24.827 17.3227 24.8475 17.2996 24.8735C17.2765 24.8995 17.2596 24.9303 17.2501 24.9638C17.2407 24.9973 17.2389 25.0324 17.2451 25.0666V27.8967L17.255 27.9765ZM21.075 24.2766C21.3115 24.2092 21.5182 24.0639 21.6616 23.8642C21.805 23.6645 21.8767 23.4223 21.8651 23.1767V18.2966C21.8801 18.0152 21.8099 17.7357 21.6636 17.4948C21.5173 17.254 21.3017 17.0628 21.045 16.9465C20.6228 16.7532 20.1748 16.622 19.715 16.5566C19.3762 16.5166 19.0571 16.3763 18.7987 16.1535C18.5403 15.9308 18.3544 15.6358 18.265 15.3066C18.265 15.1366 18.135 15.1567 18.015 15.1667C17.682 15.1863 17.3481 15.1863 17.015 15.1667C16.855 15.1667 16.805 15.1666 16.765 15.3366C16.6919 15.6248 16.54 15.8868 16.3263 16.0934C16.1126 16.3001 15.8455 16.4432 15.5551 16.5065C15.2551 16.5865 14.945 16.6465 14.645 16.6965C14.2182 16.7465 13.8259 16.9553 13.5461 17.2814C13.2663 17.6076 13.1195 18.0271 13.135 18.4565C13.135 19.9765 13.135 21.4565 13.135 23.0165C13.1396 23.2457 13.1836 23.4722 13.265 23.6865C13.3227 23.836 13.4156 23.9695 13.5356 24.0756C13.6557 24.1818 13.7995 24.2576 13.955 24.2966C13.955 24.1666 13.955 24.0565 13.955 23.9565V18.7866C13.9495 18.7211 13.9576 18.6552 13.9786 18.593C13.9996 18.5307 14.0332 18.4735 14.0773 18.4247C14.1213 18.376 14.1749 18.3367 14.2347 18.3095C14.2946 18.2823 14.3593 18.2677 14.425 18.2665C14.4933 18.2652 14.5612 18.2775 14.6248 18.3024C14.6884 18.3273 14.7464 18.3644 14.7957 18.4118C14.8449 18.4592 14.8843 18.5157 14.9116 18.5783C14.939 18.6409 14.9537 18.7083 14.955 18.7766V19.0165C14.955 22.8065 14.955 26.5967 14.955 30.3767C14.955 31.0767 15.245 31.2165 15.595 31.2265C15.945 31.2365 16.215 30.9867 16.215 30.3967V27.3967C16.215 26.6567 16.215 25.9167 16.215 25.1767C16.213 24.8852 16.3112 24.6018 16.4933 24.3742C16.6754 24.1466 16.9302 23.9887 17.215 23.9267C17.4814 23.8703 17.7591 23.9045 18.0037 24.0241C18.2484 24.1437 18.4459 24.3417 18.565 24.5866C18.6653 24.8203 18.7164 25.0722 18.715 25.3266C18.715 27.0666 18.715 28.8066 18.715 30.5466C18.7113 30.7388 18.7671 30.9275 18.875 31.0866C18.9684 31.1874 19.0918 31.2552 19.2269 31.2805C19.3619 31.3057 19.5015 31.2868 19.625 31.2265C19.7376 31.1769 19.8318 31.0935 19.8946 30.9877C19.9573 30.882 19.9855 30.7592 19.975 30.6367V18.8366C19.9602 18.7626 19.9619 18.6862 19.9801 18.613C19.9983 18.5397 20.0326 18.4714 20.0804 18.413C20.1283 18.3546 20.1885 18.3074 20.2568 18.2751C20.325 18.2428 20.3995 18.226 20.475 18.226C20.5505 18.226 20.6251 18.2428 20.6933 18.2751C20.7615 18.3074 20.8217 18.3546 20.8696 18.413C20.9174 18.4714 20.9517 18.5397 20.9699 18.613C20.9881 18.6862 20.9899 18.7626 20.975 18.8366V24.0065C21.055 24.0565 21.065 24.1466 21.075 24.2766ZM19.485 11.8666C19.4612 11.5305 19.4144 11.1964 19.345 10.8666C19.2406 10.5152 19.0377 10.2009 18.7604 9.96113C18.483 9.7213 18.1428 9.56596 17.7799 9.51337C17.417 9.46078 17.0467 9.51303 16.7127 9.66425C16.3787 9.81547 16.0949 10.0593 15.895 10.3666C15.5123 11.0964 15.4297 11.9467 15.665 12.7365C15.7318 13.079 15.9017 13.3928 16.1519 13.6359C16.4022 13.879 16.7208 14.0398 17.065 14.0966C17.3856 14.181 17.723 14.1772 18.0416 14.0856C18.3602 13.9941 18.6481 13.8183 18.875 13.5766C19.0859 13.3469 19.2487 13.0771 19.3535 12.7834C19.4582 12.4897 19.503 12.178 19.485 11.8666Z" fill="#4858CC"/>
</svg>
