<svg width="328" height="278" viewBox="0 0 328 278" fill="none" xmlns="http://www.w3.org/2000/svg">
<path d="M86.5259 232.919L77.5392 250.044L74.7664 243.007C74.7664 243.007 69.9553 253.922 59.7849 262.3C49.6146 270.677 44.5295 274.73 44.5295 274.73L47.9817 257.55L19.1913 277.116L36.1236 244.554L0.242531 252.866C0.242531 252.866 29.6466 228.049 33.1865 226.535C36.7154 225.021 7.17985 226.208 7.17985 226.208C7.17985 226.208 24.3751 216.545 35.8606 213.331C47.346 210.118 47.5652 210.815 47.5652 210.815L24.145 208.298C24.145 208.298 50.4585 204.082 55.1601 203.897C59.8507 203.712 66.8537 204.573 66.8537 204.573L86.5259 232.919Z" fill="#FF6B00"/>
<path d="M152.887 94.9564L137.687 152.967L123.648 150.363L123.889 84.3457L145.512 86.1977L152.887 94.9564Z" fill="#7D36A8"/>
<path fill-rule="evenodd" clip-rule="evenodd" d="M174.104 132.376L181.293 139.196C204.341 124.947 268.892 87.8745 267.73 87.0357C262.579 83.3099 253.428 75.9129 247.97 71.8059C274.601 67.5463 300.794 63.3522 327.283 59.1035C316.784 84.6281 306.417 109.837 295.895 135.416C292.947 127.648 290.142 120.262 287.227 112.593C284.684 115.153 181.249 203.841 181.249 203.841L162.684 186.334L99.8428 235.553L69.3756 192.969L174.104 132.376Z" fill="#4858CC"/>
<path d="M186.213 69.4006C186.213 69.4006 194.071 67.0366 197.644 52.8418C201.217 38.6469 200.976 32.2522 200.976 28.7116C200.976 25.1602 200.734 22.0881 200.734 22.0881L184.076 20.6719L178.597 51.6652C178.597 51.6652 174.596 41.5556 161.938 35.1064C152.656 30.3784 143.132 31.3153 136.71 32.5027C127.668 34.1695 113.618 38.8866 104.818 57.5807C96.4558 75.3379 100.653 88.476 105.059 95.6769C113.147 108.924 125.531 107.747 125.531 107.747L128.15 97.8121L122.441 75.5666L154.332 63.4961L186.213 69.4006Z" fill="#919BE0"/>
<path d="M155.748 66.0874C155.748 66.0874 159.32 62.2963 174.795 64.4315C190.27 66.5558 195.267 71.055 200.024 80.0426C202.161 84.0733 202.533 93.66 199.76 102.408C197.185 110.546 195.3 114.74 195.3 114.74L181.108 122.279L178.401 87.1672L154.564 87.1346L155.748 66.0874Z" fill="#7D36A8"/>
<path d="M131.85 23.5027C129.883 16.6468 133.969 9.47824 140.977 7.49122C147.984 5.5042 155.26 9.45119 157.227 16.3071C159.195 23.1629 155.109 30.3315 148.101 32.3185C141.093 34.3055 133.818 30.3585 131.85 23.5027Z" fill="#E4C6B0"/>
<path d="M196.187 112.18L193.239 120.699L211.892 120.873L182.444 138.358L180.296 112.267L196.187 112.18Z" fill="#111310"/>
<path d="M140.075 144.688L137.685 154.852L151.976 154.143L152.919 156.747L123.657 171.465L123.646 148.228L140.075 144.688Z" fill="#111310"/>
<path d="M157.554 18.8075C155.629 18.8075 154.069 17.2565 154.069 15.3432C154.069 13.4299 155.629 11.8789 157.554 11.8789C159.479 11.8789 161.039 13.4299 161.039 15.3432C161.039 17.2565 159.479 18.8075 157.554 18.8075Z" fill="#E4C6B0"/>
<path d="M130.507 27.7626C128.582 27.7626 127.022 26.2115 127.022 24.2983C127.022 22.385 128.582 20.834 130.507 20.834C132.432 20.834 133.992 22.385 133.992 24.2983C133.992 26.2115 132.432 27.7626 130.507 27.7626Z" fill="#E4C6B0"/>
<path d="M147.264 15.9697C146.907 15.1076 146.929 14.2804 147.315 14.122C147.701 13.9636 148.305 14.5341 148.663 15.3961C149.02 16.2582 148.998 17.0854 148.612 17.2438C148.225 17.4022 147.622 16.8317 147.264 15.9697Z" fill="black" stroke="black" stroke-width="0.5" stroke-miterlimit="10"/>
<path d="M140.751 18.6376C140.393 17.7756 140.416 16.9483 140.802 16.79C141.188 16.6316 141.791 17.202 142.149 18.0641C142.507 18.9262 142.484 19.7534 142.098 19.9118C141.712 20.0701 141.109 19.4997 140.751 18.6376Z" fill="black" stroke="black" stroke-width="0.5" stroke-miterlimit="10"/>
<path d="M152.667 9.67743L131.439 18.5342C132.03 13.4685 135.658 9.00201 140.973 7.48775C145.182 6.28941 149.478 7.24808 152.667 9.67743Z" fill="#111310"/>
<path d="M144.174 15.7793L148.722 22.0869L144.886 23.8517" stroke="black" stroke-miterlimit="10" stroke-linecap="round" stroke-linejoin="round"/>
<path d="M151.308 23.0547C151.308 23.0547 150.146 26.4318 146.311 26.9547C142.475 27.4776 140.601 26.0723 140.601 26.0723" stroke="black" stroke-miterlimit="10" stroke-linecap="round" stroke-linejoin="round"/>
<path d="M196.745 22.6096C196.833 22.3481 196.745 19.1453 196.745 19.1453C196.745 19.1453 200.318 20.0277 201.03 17.1953C201.743 14.3628 201.03 14.1776 201.03 14.1776C201.03 14.1776 202.28 14.0033 202.455 12.5762C202.575 11.5958 202.006 10.3539 202.006 10.3539C202.006 10.3539 202.488 8.70887 201.743 7.51053C200.406 5.38621 192.723 6.00717 192.723 6.00717C192.723 6.00717 192.635 3.07669 190.761 1.21382C188.887 -0.649053 185.49 -0.115248 185.676 1.12667C185.851 2.36858 186.75 4.93956 186.75 4.93956C186.75 4.93956 184.788 7.95719 184.613 11.1491C184.438 14.3411 185.501 21.7054 185.501 21.7054L196.745 22.6096Z" fill="#E4C6B0"/>
<path d="M129.882 23.3281L132.917 24.2977L130.868 26.0734" stroke="black" stroke-miterlimit="10" stroke-linecap="round" stroke-linejoin="round"/>
<path d="M158.903 16.4017L155.506 15.5192L157.117 13.2969" stroke="black" stroke-miterlimit="10" stroke-linecap="round" stroke-linejoin="round"/>
<path d="M199.244 7.07441C199.244 7.07441 190.4 6.58418 190.137 8.5342C189.907 10.2554 192.592 10.2554 195.452 10.7239C198.313 11.1923 199.507 11.5083 199.507 11.5083C199.507 11.5083 190.751 10.3971 190.126 12.0856C189.501 13.7742 197.458 15.1468 197.458 15.1468C197.458 15.1468 190.499 13.8178 190.312 15.6806C190.126 17.5435 195.222 18.2516 195.222 18.2516" stroke="black" stroke-width="0.75" stroke-miterlimit="10" stroke-linecap="round" stroke-linejoin="round"/>
<path d="M114.702 55.2332L164.25 65.4961L156.38 103.038L106.832 92.7747L114.702 55.2332Z" fill="white"/>
<path d="M166.355 69.7256L164.251 65.4987L153.697 64.8887V69.1482L166.355 69.7256Z" fill="white"/>
<path d="M108.95 97.0047L106.846 92.7778L110.671 87.418L116.742 89.1937L108.95 97.0047Z" fill="white"/>
<path d="M116.806 59.4597L166.354 69.7227L158.484 107.264L108.937 97.0013L116.806 59.4597Z" fill="#A5C5CC"/>
<path d="M128.129 97.8016C128.129 97.8016 132.206 97.6818 133.368 96.527C134.53 95.3723 134.88 93.5094 136.579 94.0432C138.278 94.577 138.99 97.2352 138.004 98.5642C137.017 99.8933 136.393 100.689 136.393 100.689C136.393 100.689 138.278 100.83 140.776 100.939C143.275 101.048 143.264 101.048 143.264 101.048C143.264 101.048 144.601 104.066 142.278 105.308C139.954 106.55 139.154 106.016 139.154 106.016C139.154 106.016 138.168 107.966 136.294 108.238C134.42 108.5 124.863 108.238 124.863 108.238L128.129 97.8016Z" fill="#E4C6B0"/>
<path d="M138.408 86.0015C136.041 86.0015 134.123 84.0944 134.123 81.742C134.123 79.3895 136.041 77.4824 138.408 77.4824C140.774 77.4824 142.693 79.3895 142.693 81.742C142.693 84.0944 140.774 86.0015 138.408 86.0015Z" fill="white"/>
</svg>
