<svg width="289" height="181" viewBox="0 0 289 181" fill="none" xmlns="http://www.w3.org/2000/svg">
<path d="M106.213 26.2852H27.8979V135.519H106.213V26.2852Z" fill="#4858CC"/>
<path d="M289 26.2852H106.212V135.519H289V26.2852Z" fill="#F3F3F3"/>
<path d="M288.997 0H27.8975V26.2854H288.997V0Z" fill="#E1E6EA"/>
<path d="M47.7868 18.2305C50.5917 18.2305 52.8656 15.9526 52.8656 13.1426C52.8656 10.3326 50.5917 8.05469 47.7868 8.05469C44.9819 8.05469 42.708 10.3326 42.708 13.1426C42.708 15.9526 44.9819 18.2305 47.7868 18.2305Z" fill="#4858CC"/>
<path d="M118.624 18.2305H84.6247C81.819 18.2305 79.5459 15.9533 79.5459 13.1426C79.5459 10.3319 81.819 8.05469 84.6247 8.05469H118.624C121.43 8.05469 123.703 10.3319 123.703 13.1426C123.703 15.9501 121.43 18.2305 118.624 18.2305Z" fill="white"/>
<path d="M266.994 18.2305H135.312C132.507 18.2305 130.233 15.9533 130.233 13.1426C130.233 10.3319 132.507 8.05469 135.312 8.05469H266.994C269.799 8.05469 272.072 10.3319 272.072 13.1426C272.072 15.9501 269.799 18.2305 266.994 18.2305Z" fill="white"/>
<path d="M248.497 75.021C245.448 75.021 243.905 74.1751 242.408 73.3554C240.921 72.5388 239.515 71.7678 236.635 71.7678C233.751 71.7678 232.348 72.5388 230.861 73.3554C229.367 74.1751 227.821 75.021 224.775 75.021C221.726 75.021 220.184 74.1751 218.69 73.3554C217.203 72.5388 215.797 71.7678 212.916 71.7678C210.036 71.7678 208.63 72.5388 207.143 73.3554C205.649 74.1751 204.103 75.021 201.057 75.021C198.008 75.021 196.465 74.1751 194.972 73.3554C193.484 72.5388 192.078 71.7678 189.198 71.7678C186.318 71.7678 184.912 72.5388 183.424 73.3554C181.931 74.1751 180.388 75.021 177.339 75.021V74.3703C180.219 74.3703 181.625 73.5993 183.113 72.7828C184.606 71.963 186.149 71.1172 189.198 71.1172C192.247 71.1172 193.79 71.963 195.283 72.7828C196.771 73.5993 198.177 74.3703 201.057 74.3703C203.941 74.3703 205.344 73.5993 206.831 72.7828C208.325 71.963 209.87 71.1172 212.916 71.1172C215.966 71.1172 217.508 71.963 219.002 72.7828C220.489 73.5993 221.895 74.3703 224.775 74.3703C227.659 74.3703 229.062 73.5993 230.549 72.7828C232.043 71.963 233.589 71.1172 236.635 71.1172C239.684 71.1172 241.226 71.963 242.723 72.7828C244.211 73.5993 245.617 74.3703 248.497 74.3703C251.377 74.3703 252.783 73.5993 254.271 72.7828C255.764 71.963 257.31 71.1172 260.359 71.1172V71.7678C257.476 71.7678 256.073 72.5388 254.586 73.3554C253.092 74.1719 251.546 75.021 248.497 75.021Z" fill="#76777A"/>
<path d="M248.497 105.701C245.448 105.701 243.905 104.855 242.408 104.035C240.921 103.218 239.515 102.448 236.635 102.448C233.751 102.448 232.348 103.218 230.861 104.035C229.367 104.855 227.821 105.701 224.775 105.701C221.726 105.701 220.184 104.855 218.69 104.035C217.203 103.218 215.797 102.448 212.916 102.448C210.036 102.448 208.63 103.218 207.143 104.035C205.649 104.855 204.103 105.701 201.057 105.701C198.008 105.701 196.465 104.855 194.972 104.035C193.484 103.218 192.078 102.448 189.198 102.448C186.318 102.448 184.912 103.218 183.424 104.035C181.931 104.855 180.388 105.701 177.339 105.701V105.05C180.219 105.05 181.625 104.279 183.113 103.462C184.606 102.643 186.149 101.797 189.198 101.797C192.247 101.797 193.79 102.643 195.283 103.462C196.771 104.279 198.177 105.05 201.057 105.05C203.941 105.05 205.344 104.279 206.831 103.462C208.325 102.643 209.87 101.797 212.916 101.797C215.966 101.797 217.508 102.643 219.002 103.462C220.489 104.279 221.895 105.05 224.775 105.05C227.659 105.05 229.062 104.279 230.549 103.462C232.043 102.643 233.589 101.797 236.635 101.797C239.684 101.797 241.226 102.643 242.723 103.462C244.211 104.279 245.617 105.05 248.497 105.05C251.377 105.05 252.783 104.279 254.271 103.462C255.764 102.643 257.31 101.797 260.359 101.797V102.448C257.476 102.448 256.073 103.218 254.586 104.035C253.092 104.855 251.546 105.701 248.497 105.701Z" fill="#76777A"/>
<path d="M248.497 90.3628C245.448 90.3628 243.905 89.517 242.408 88.6972C240.921 87.8806 239.515 87.1096 236.635 87.1096C233.751 87.1096 232.348 87.8806 230.861 88.6972C229.367 89.517 227.821 90.3628 224.775 90.3628C221.726 90.3628 220.184 89.517 218.69 88.6972C217.203 87.8806 215.797 87.1096 212.916 87.1096C210.036 87.1096 208.63 87.8806 207.143 88.6972C205.649 89.517 204.103 90.3628 201.057 90.3628C198.008 90.3628 196.465 89.517 194.972 88.6972C193.484 87.8806 192.078 87.1096 189.198 87.1096C186.318 87.1096 184.912 87.8806 183.424 88.6972C181.931 89.517 180.388 90.3628 177.339 90.3628V89.7121C180.219 89.7121 181.625 88.9412 183.113 88.1246C184.606 87.3048 186.149 86.459 189.198 86.459C192.247 86.459 193.79 87.3048 195.283 88.1246C196.771 88.9412 198.177 89.7121 201.057 89.7121C203.941 89.7121 205.344 88.9412 206.831 88.1246C208.325 87.3048 209.87 86.459 212.916 86.459C215.966 86.459 217.508 87.3048 219.002 88.1246C220.489 88.9412 221.895 89.7121 224.775 89.7121C227.659 89.7121 229.062 88.9412 230.549 88.1246C232.043 87.3048 233.589 86.459 236.635 86.459C239.684 86.459 241.226 87.3048 242.723 88.1246C244.211 88.9412 245.617 89.7121 248.497 89.7121C251.377 89.7121 252.783 88.9412 254.271 88.1246C255.764 87.3048 257.31 86.459 260.359 86.459V87.1096C257.476 87.1096 256.073 87.8806 254.586 88.6972C253.092 89.5137 251.546 90.3628 248.497 90.3628Z" fill="#76777A"/>
<path d="M248.497 121.042C245.448 121.042 243.905 120.197 242.408 119.377C240.921 118.56 239.515 117.789 236.635 117.789C233.751 117.789 232.348 118.56 230.861 119.377C229.367 120.197 227.821 121.042 224.775 121.042C221.726 121.042 220.184 120.197 218.69 119.377C217.203 118.56 215.797 117.789 212.916 117.789C210.036 117.789 208.63 118.56 207.143 119.377C205.649 120.197 204.103 121.042 201.057 121.042C198.008 121.042 196.465 120.197 194.972 119.377C193.484 118.56 192.078 117.789 189.198 117.789C186.318 117.789 184.912 118.56 183.424 119.377C181.931 120.197 180.388 121.042 177.339 121.042V120.392C180.219 120.392 181.625 119.621 183.113 118.804C184.606 117.985 186.149 117.139 189.198 117.139C192.247 117.139 193.79 117.985 195.283 118.804C196.771 119.621 198.177 120.392 201.057 120.392C203.941 120.392 205.344 119.621 206.831 118.804C208.325 117.985 209.87 117.139 212.916 117.139C215.966 117.139 217.508 117.985 219.002 118.804C220.489 119.621 221.895 120.392 224.775 120.392C227.659 120.392 229.062 119.621 230.549 118.804C232.043 117.985 233.589 117.139 236.635 117.139C239.684 117.139 241.226 117.985 242.723 118.804C244.211 119.621 245.617 120.392 248.497 120.392C251.377 120.392 252.783 119.621 254.271 118.804C255.764 117.985 257.31 117.139 260.359 117.139V117.789C257.476 117.789 256.073 118.56 254.586 119.377C253.092 120.197 251.546 121.042 248.497 121.042Z" fill="#76777A"/>
<path d="M288.999 26.2852H272.071V135.519H288.999V26.2852Z" fill="#CFD2D3"/>
<path d="M274.939 37.4124L280.723 30.6426L286.506 37.4124H274.939Z" fill="#9AA0A6"/>
<path d="M288.999 45.4668H272.071V74.4816H288.999V45.4668Z" fill="#9AA0A6"/>
<path d="M158.356 105.936H132.806L127 123.997H124.886L144.415 63.541H146.779L166.308 123.997H164.194L158.356 105.936ZM133.524 103.695H157.641L145.6 66.2411L133.524 103.695Z" fill="#76777A"/>
<path d="M20.9418 47.718C25.4989 47.718 29.1932 44.0171 29.1932 39.4518C29.1932 34.8865 25.4989 31.1855 20.9418 31.1855C16.3847 31.1855 12.6904 34.8865 12.6904 39.4518C12.6904 44.0171 16.3847 47.718 20.9418 47.718Z" fill="#F6C462"/>
<path d="M13.6809 43.3777C13.0509 42.2098 12.6904 40.8695 12.6904 39.4479C12.6904 34.8837 16.3859 31.1816 20.9418 31.1816C22.9941 31.1816 24.8711 31.9331 26.3129 33.1758C24.8678 34.4185 22.9941 35.17 20.9418 35.17C20.9418 39.4023 17.7692 42.8897 13.6809 43.3777Z" fill="#1C1C21"/>
<path d="M45.2838 47.9297C45.2838 47.9297 25.7123 47.9297 18.8345 47.9297C8.36197 47.9297 0.00341797 57.045 0.00341797 69.1272C0.00341797 80.1488 0.00341797 91.2779 0.00341797 91.2779H33.2233V64.0393H45.391L45.2838 47.9297Z" fill="#9BA9B4"/>
<path d="M27.2968 137.062L21.2666 153.279H62.4976L59.6692 146.07L49.6188 142.785L48.0341 137.062H27.2968Z" fill="#424242"/>
<path d="M20.3151 110.25V166.207H0V90.3242L18.1979 100.393L20.3151 110.25Z" fill="#6D2C91"/>
<path d="M0 166.207V180.511H27.6151L26.2382 175.745L20.3151 171.718V166.207H0Z" fill="#424242"/>
<path d="M0.00321164 91.2773C0.00321164 91.2773 47.5047 91.2773 54.0643 91.2773C60.6239 91.2773 64.2219 97.4258 61.6825 103.148C59.1431 108.87 48.0341 137.062 48.0341 137.062H27.2968L37.5583 111.945C37.5583 111.945 29.9401 111.837 20.2079 111.837C10.4758 111.837 2.43544 103.041 1.16575 97.7413C-0.103949 92.442 0.00321164 91.2773 0.00321164 91.2773Z" fill="#7C3AA6"/>
<path d="M45.167 48.0207C45.167 48.0207 45.167 29.79 45.167 24.4907C45.167 19.1913 51.0901 16.6473 52.9962 20.8862C54.9024 25.125 55.1135 28.3066 59.9779 26.397C64.8457 24.4907 61.6698 18.7424 58.9193 18.7554C56.1689 18.7684 53.6197 17.4964 53.8373 13.8919C54.0549 10.2874 58.6888 9.86453 62.5076 11.1365C66.3264 12.4085 69.0769 17.285 69.0769 17.285C69.0769 17.285 70.4537 15.8015 72.7788 13.7878C75.1039 11.7741 83.2514 14.6369 79.3384 19.0872C75.4254 23.5375 71.6163 26.8232 71.6163 26.8232C71.6163 26.8232 73.5192 26.9305 76.799 27.0346C80.0788 27.142 81.4524 35.1968 76.2697 35.1968C71.087 35.1968 63.2577 35.1968 63.2577 35.1968C63.2577 35.1968 63.2577 39.7544 63.2577 46.2184C63.2577 52.6824 52.0448 64.1302 48.6578 64.1302C45.2709 64.1302 45.2709 64.1302 45.2709 64.1302L45.167 48.0207Z" fill="#F6C462"/>
</svg>
