<svg width="24" height="24" viewBox="4 4 16 16" fill="none" xmlns="http://www.w3.org/2000/svg">
<path d="M4.96 9.35157C4.95909 9.19364 4.98937 9.03709 5.04908 8.89088C5.1088 8.74468 5.1968 8.6117 5.30801 8.49957C5.53285 8.27607 5.83698 8.15062 6.154 8.15062C6.47102 8.15062 6.77517 8.27607 7 8.49957L12 13.4996L16.9473 8.44452C17.1717 8.21856 17.4766 8.09098 17.7951 8.08985C18.1135 8.08873 18.4194 8.21415 18.6453 8.43852C18.8713 8.66289 18.9989 8.96784 19 9.28628C19.0011 9.60471 18.8757 9.91055 18.6513 10.1365L13 15.9996C12.8884 16.112 12.7581 16.2423 12.6118 16.3032C12.4656 16.3641 12.1584 16.3955 12 16.3955C11.8416 16.3955 11.5801 16.3641 11.4338 16.3032C11.2876 16.2423 11.1549 16.153 11.0433 16.0405L5.30801 10.1916C5.08632 9.96806 4.96133 9.66638 4.96 9.35157Z" fill="#4858CC"/>
</svg>
