<svg width="32" height="25" viewBox="0 0 32 25" fill="none" xmlns="http://www.w3.org/2000/svg">
<path d="M11.6621 4.62109H20.3059V20.1825H11.6621V4.62109Z" fill="#FF5F00"/>
<path d="M12.2111 12.4016C12.2111 9.2399 13.6929 6.43549 15.9704 4.62087C14.2966 3.30119 12.1837 2.50391 9.87875 2.50391C4.41787 2.50391 0 6.93032 0 12.4016C0 17.8728 4.41787 22.2993 9.87862 22.2993C12.1836 22.2993 14.2965 21.5021 15.9704 20.1823C13.6929 18.3952 12.2111 15.5633 12.2111 12.4016Z" fill="#EB001B"/>
<path d="M31.9684 12.4016C31.9684 17.8728 27.5505 22.2993 22.0898 22.2993C19.7848 22.2993 17.6719 21.5021 15.998 20.1823C18.303 18.3678 19.7574 15.5633 19.7574 12.4016C19.7574 9.2399 18.2755 6.43549 15.998 4.62087C17.6718 3.30119 19.7848 2.50391 22.0898 2.50391C27.5505 2.50391 31.9685 6.95787 31.9685 12.4016H31.9684Z" fill="#F79E1B"/>
</svg>
