<svg width="33" height="33" viewBox="0 0 33 33" fill="none" xmlns="http://www.w3.org/2000/svg">
<path fill-rule="evenodd" clip-rule="evenodd" d="M6.20512 31.6285C5.93228 31.9051 5.5848 32.0963 5.20512 32.1786C4.97089 32.2107 4.7326 32.1956 4.5043 32.1341C4.276 32.0727 4.06232 31.9661 3.8759 31.8207C3.68947 31.6752 3.53408 31.4939 3.41887 31.2875C3.30366 31.081 3.23098 30.8535 3.20512 30.6185C3.20512 29.2085 3.20512 27.7885 3.20512 26.3685C3.20512 26.0385 3.20513 26.0384 2.85513 26.0384H2.05513C1.9742 26.045 1.89289 26.0318 1.81822 25.9999C1.74356 25.968 1.67779 25.9186 1.62659 25.8556C1.57539 25.7926 1.5403 25.7179 1.52437 25.6383C1.50843 25.5587 1.51212 25.4764 1.53512 25.3985L1.89513 23.6085L1.17512 23.5084C0.865708 23.4279 0.588505 23.2543 0.381026 23.0111C0.173547 22.7678 0.0458241 22.4668 0.0151357 22.1485C-0.00504522 21.9023 -0.00504522 21.6548 0.0151357 21.4086C0.265136 20.1686 0.51513 18.9286 0.77513 17.6886C0.94513 16.9186 1.08513 16.1485 1.30513 15.3985C1.45345 14.89 1.70133 14.416 2.03436 14.004C2.36739 13.592 2.77895 13.2503 3.24513 12.9986C3.95512 12.5892 4.76612 12.3881 5.58513 12.4186C6.25513 12.4186 6.92513 12.4186 7.58513 12.4186C8.279 12.4898 8.94555 12.7268 9.52858 13.1097C10.1116 13.4926 10.594 14.0101 10.9351 14.6185C11.9351 16.1185 12.9351 17.6185 13.9351 19.0985C13.9736 19.1662 14.031 19.2212 14.1003 19.2567C14.1696 19.2922 14.2477 19.3067 14.3251 19.2984C15.4718 19.2984 16.6218 19.2984 17.7751 19.2984C17.8653 19.3071 17.9559 19.2878 18.0347 19.243C18.1134 19.1983 18.1764 19.1303 18.2151 19.0484C18.9551 17.8284 19.6851 16.6085 20.4351 15.3985C20.7832 14.7873 21.1707 14.1994 21.5951 13.6385C21.9229 13.2414 22.3357 12.9227 22.803 12.7064C23.2703 12.4901 23.7802 12.3815 24.2951 12.3885C25.3851 12.3885 26.4851 12.3885 27.5751 12.3885C28.1774 12.3454 28.7826 12.3825 29.3751 12.4986C29.8986 12.6355 30.3858 12.8855 30.8022 13.2311C31.2186 13.5766 31.5541 14.0093 31.7851 14.4986C32.0549 15.0522 32.1853 15.663 32.1651 16.2784C32.1651 18.0884 32.1651 19.8886 32.1651 21.6986C32.1605 22.1512 32.0171 22.5914 31.7542 22.9598C31.4913 23.3282 31.1216 23.6069 30.6951 23.7584C30.1951 23.9884 30.1851 23.9684 30.1851 24.5084C30.1851 26.3184 30.1851 28.1186 30.1851 29.9186C30.1962 30.3576 30.0762 30.79 29.8404 31.1605C29.6046 31.531 29.2638 31.8229 28.8614 31.9989C28.459 32.1749 28.0132 32.227 27.5811 32.1485C27.149 32.0701 26.75 31.8646 26.4351 31.5585C26.3513 31.4894 26.2712 31.416 26.1951 31.3385C26.1583 31.4187 26.1148 31.4956 26.0651 31.5685C25.865 31.7726 25.6261 31.9348 25.3625 32.0455C25.099 32.1562 24.816 32.213 24.5301 32.213C24.2443 32.213 23.9613 32.1562 23.6977 32.0455C23.4341 31.9348 23.1953 31.7726 22.9951 31.5685C22.7798 31.3572 22.6088 31.1052 22.492 30.827C22.3753 30.5489 22.3151 30.2503 22.3151 29.9486C22.3151 26.2486 22.3151 22.5585 22.3151 18.8585V18.6385L21.9351 19.1986L20.2751 21.8685C20.2118 21.9889 20.1775 22.1224 20.1751 22.2584C20.1751 23.5084 20.1751 24.7584 20.1751 26.0184C20.1913 26.3553 20.0862 26.6869 19.8789 26.953C19.6716 27.219 19.3758 27.402 19.0451 27.4686C18.9751 27.4686 18.8951 27.6286 18.8951 27.7186C18.8951 28.4086 18.8951 29.1084 18.8951 29.7984V30.6485C18.8892 30.9486 18.8 31.2409 18.6376 31.4933C18.4752 31.7456 18.2458 31.9479 17.9752 32.0775C17.7045 32.2071 17.4032 32.259 17.1048 32.2274C16.8064 32.1958 16.5226 32.082 16.2851 31.8985C16.2637 31.8765 16.238 31.859 16.2097 31.847C16.1814 31.835 16.1509 31.8287 16.1201 31.8287C16.0894 31.8287 16.0589 31.835 16.0306 31.847C16.0022 31.859 15.9766 31.8765 15.9551 31.8985C15.7146 32.0824 15.4277 32.1957 15.1264 32.2257C14.8252 32.2557 14.5216 32.2011 14.2496 32.0682C13.9775 31.9353 13.7479 31.7293 13.5864 31.4732C13.4249 31.2172 13.3379 30.9212 13.3351 30.6185C13.3351 29.6185 13.3351 28.6886 13.3351 27.7286C13.3351 27.5586 13.3351 27.4786 13.1051 27.4386C12.8127 27.3694 12.5533 27.2011 12.371 26.9623C12.1887 26.7234 12.0948 26.4288 12.1051 26.1285C12.1051 24.8619 12.1051 23.5918 12.1051 22.3185C12.1102 22.0998 12.0435 21.8857 11.9151 21.7086C11.2651 20.8186 10.6351 19.9184 9.98512 19.0184C9.98512 19.0184 9.98513 19.0186 9.89513 18.9486C9.88404 19.0382 9.88404 19.129 9.89513 19.2186C10.1151 20.2986 10.3351 21.3786 10.5651 22.4686C10.7951 23.5586 10.9551 24.3985 11.1551 25.3585C11.2451 25.8385 11.0451 26.0785 10.5551 26.0885C10.3051 26.0885 10.0451 26.0885 9.79513 26.0885C9.54513 26.0885 9.50513 26.1585 9.50513 26.3785C9.50513 27.7185 9.50513 29.0485 9.50513 30.3785C9.51882 30.7002 9.44402 31.0195 9.28886 31.3016C9.1337 31.5837 8.90412 31.8179 8.62512 31.9786C8.30155 32.1836 7.91939 32.2759 7.53789 32.2416C7.15639 32.2072 6.79688 32.0479 6.51514 31.7884L6.20512 31.6285ZM19.8051 20.4586C19.8313 20.4383 19.8548 20.4147 19.8751 20.3885L21.0551 18.5084C21.4451 17.8684 21.8451 17.2285 22.2451 16.5985C22.2803 16.5249 22.3337 16.4616 22.4002 16.4144C22.4666 16.3672 22.5441 16.3375 22.6251 16.3285C22.7062 16.3195 22.7882 16.3314 22.8634 16.3629C22.9387 16.3944 23.0046 16.4444 23.0551 16.5084C23.1413 16.6532 23.183 16.8203 23.1751 16.9886C23.1751 19.3286 23.1751 21.6786 23.1751 23.9886C23.1751 25.9886 23.1751 27.9085 23.1751 29.8685C23.1595 30.0822 23.201 30.2962 23.2951 30.4886C23.4198 30.7452 23.6291 30.9507 23.8878 31.0709C24.1464 31.1911 24.4386 31.2186 24.7151 31.1485C24.9845 31.0803 25.2225 30.9221 25.3898 30.7003C25.5571 30.4785 25.6436 30.2063 25.6351 29.9286C25.6351 29.5486 25.6851 29.1684 25.7151 28.7784C25.7151 28.7184 25.7151 28.6585 25.7151 28.5985C25.7102 28.5386 25.7102 28.4785 25.7151 28.4186C25.7151 28.3086 25.7151 28.2085 25.7151 28.0985C25.7151 27.9885 25.6551 27.7785 25.6551 27.6185C25.6551 26.0785 25.6551 24.5286 25.6551 22.9886C25.6404 22.8758 25.6404 22.7614 25.6551 22.6485C25.6768 22.5365 25.7384 22.4362 25.8286 22.3663C25.9187 22.2964 26.0312 22.2615 26.1451 22.2684C26.4251 22.2684 26.5951 22.4885 26.5951 22.8285C26.5951 24.1785 26.5951 25.5285 26.5951 26.8785C26.5951 27.2485 26.5951 27.6086 26.5951 27.9786C26.5951 28.6186 26.5951 29.2585 26.5951 29.8985C26.585 30.1601 26.6593 30.4178 26.8069 30.6339C26.9546 30.85 27.1678 31.0129 27.4151 31.0985C27.6264 31.1924 27.8606 31.2216 28.0885 31.1825C28.3163 31.1433 28.5274 31.0375 28.6951 30.8785C28.8331 30.7428 28.9396 30.5783 29.007 30.3968C29.0744 30.2154 29.1011 30.0214 29.0851 29.8285V16.8785C29.0752 16.7587 29.0752 16.6382 29.0851 16.5184C29.0913 16.4595 29.1092 16.4025 29.1379 16.3507C29.1666 16.2989 29.2055 16.2536 29.2521 16.2171C29.2988 16.1807 29.3524 16.154 29.4096 16.1388C29.4668 16.1235 29.5265 16.1201 29.5851 16.1285C29.8951 16.1285 30.0651 16.3486 30.0651 16.7386V22.8785C30.1751 22.8285 30.2551 22.8184 30.3251 22.7784C30.5646 22.6495 30.7624 22.455 30.8952 22.2176C31.0281 21.9803 31.0905 21.7101 31.0751 21.4386C31.0751 19.6986 31.0751 17.9586 31.0751 16.2186C31.068 15.7679 30.9729 15.3228 30.7951 14.9086C30.6252 14.4751 30.3319 14.101 29.9515 13.8326C29.5712 13.5642 29.1204 13.4134 28.6551 13.3985C27.0951 13.3385 25.5251 13.3485 23.9651 13.3985C23.5537 13.4227 23.155 13.5498 22.8056 13.7682C22.4561 13.9866 22.1671 14.2893 21.9651 14.6485C21.3351 15.6485 20.7251 16.6485 20.1051 17.6485C19.7551 18.2185 19.4051 18.7885 19.1051 19.3685C19.0551 19.4485 18.9751 19.5386 19.1051 19.6586C19.2351 19.7786 19.5451 20.2086 19.8051 20.4586ZM12.9451 19.5785L12.8251 19.3685L11.7251 17.7186C11.0451 16.7186 10.3851 15.6686 9.67512 14.6686C9.44231 14.3256 9.13727 14.0378 8.7814 13.8253C8.42553 13.6128 8.02745 13.4809 7.61513 13.4386C6.84912 13.3936 6.08113 13.3936 5.31512 13.4386C4.95932 13.4504 4.60649 13.5075 4.26514 13.6085C3.75314 13.7559 3.28795 14.0332 2.91473 14.4134C2.54152 14.7937 2.27297 15.2638 2.13513 15.7784C1.87513 16.6684 1.73513 17.5886 1.54513 18.4986C1.35513 19.4086 1.17512 20.2986 0.985122 21.1986C0.906805 21.4868 0.853288 21.7811 0.825133 22.0785C0.825133 22.3185 1.15513 22.6085 1.41513 22.6285C1.56636 22.6388 1.7165 22.5965 1.84033 22.5091C1.96416 22.4217 2.05413 22.2945 2.09512 22.1485C2.23512 21.5385 2.36513 20.9285 2.49513 20.3185C2.62513 19.7085 2.67513 19.3184 2.77513 18.7884C2.87513 18.2584 3.01513 17.6084 3.13513 17.0084C3.13513 16.8584 3.19512 16.7085 3.23512 16.5585C3.24998 16.4954 3.27771 16.4362 3.31656 16.3844C3.3554 16.3326 3.40454 16.2894 3.46088 16.2574C3.51721 16.2255 3.57953 16.2055 3.64394 16.1988C3.70834 16.1921 3.77343 16.199 3.83513 16.2186C3.89347 16.2302 3.9488 16.2537 3.99759 16.2877C4.04638 16.3217 4.08758 16.3654 4.11859 16.4161C4.1496 16.4669 4.16975 16.5234 4.17776 16.5824C4.18577 16.6413 4.18148 16.7012 4.16513 16.7584C3.97513 17.7584 3.76512 18.7584 3.56512 19.7584L3.14513 21.8385L2.57513 24.6185C2.57513 24.7785 2.57514 24.9285 2.51514 25.0985H9.89513C9.89513 25.0185 9.89513 24.9485 9.89513 24.8785C9.70513 23.9585 9.51513 23.0485 9.33513 22.1285C9.15513 21.2085 8.98513 20.3686 8.80513 19.4886C8.62513 18.6086 8.43513 17.7686 8.27513 16.9086C8.22985 16.7552 8.22985 16.592 8.27513 16.4386C8.32165 16.3684 8.3848 16.3109 8.45895 16.2711C8.53311 16.2313 8.61597 16.2106 8.70013 16.2106C8.78429 16.2106 8.86714 16.2313 8.9413 16.2711C9.01545 16.3109 9.0786 16.3684 9.12512 16.4386C9.77512 17.3786 10.4551 18.2986 11.1251 19.2286L12.0651 20.5384L12.9451 19.5785ZM19.0251 23.7186C19.0251 22.9986 19.0251 22.2785 19.0251 21.5585C19.0295 21.3915 19.0023 21.2253 18.9451 21.0685C18.8526 20.8225 18.6825 20.6135 18.4606 20.4728C18.2387 20.332 17.977 20.2673 17.7151 20.2884H14.2951H14.0251C13.7104 20.3163 13.4183 20.4633 13.2083 20.6993C12.9982 20.9353 12.8862 21.2427 12.8951 21.5585C12.8951 22.9585 12.8951 24.3584 12.8951 25.7584C12.8951 26.4084 12.8951 26.4086 13.5651 26.4286C13.6445 26.4208 13.7247 26.4307 13.7998 26.4576C13.8749 26.4845 13.9431 26.5277 13.9995 26.5841C14.0559 26.6405 14.0992 26.7087 14.1261 26.7838C14.153 26.8589 14.1629 26.939 14.1551 27.0184V29.0184C14.1551 29.4884 14.1551 30.0186 14.1551 30.4486C14.1458 30.5501 14.1609 30.6524 14.1991 30.7469C14.2374 30.8415 14.2976 30.9255 14.3749 30.992C14.4522 31.0586 14.5443 31.1058 14.6435 31.1295C14.7427 31.1532 14.8461 31.1528 14.9451 31.1285C15.2751 31.1285 15.4851 30.8085 15.4851 30.3785V27.5384C15.4851 27.3884 15.4851 27.2485 15.4851 27.0985C15.4986 26.9937 15.5477 26.8969 15.6241 26.8241C15.7006 26.7512 15.7998 26.7069 15.9051 26.6986C16.011 26.6887 16.117 26.7149 16.206 26.7731C16.295 26.8312 16.3617 26.9175 16.3951 27.0184C16.4099 27.138 16.4099 27.259 16.3951 27.3785V30.3185C16.3798 30.4279 16.3798 30.5391 16.3951 30.6485C16.4312 30.808 16.5269 30.9476 16.6627 31.0387C16.7984 31.1298 16.9639 31.1656 17.1251 31.1385C17.2754 31.1215 17.4143 31.05 17.5156 30.9376C17.6169 30.8253 17.6736 30.6797 17.6751 30.5284C17.6801 30.4485 17.6801 30.3684 17.6751 30.2884V27.1085C17.6751 26.5685 17.8551 26.3885 18.3851 26.3885H18.4751C18.8351 26.3885 18.9251 26.2886 18.9251 25.9386C19.0251 25.2386 19.0251 24.4786 19.0251 23.7186ZM4.02513 28.3185C4.02513 28.9685 4.02513 29.6184 4.02513 30.2584C4.03065 30.4758 4.08899 30.6887 4.19513 30.8785C4.29491 31.0217 4.43929 31.1278 4.60573 31.1803C4.77216 31.2327 4.95128 31.2286 5.11513 31.1686C5.2859 31.1036 5.43189 30.9867 5.53241 30.8341C5.63292 30.6815 5.68285 30.501 5.67512 30.3185C5.67512 28.9685 5.67512 27.6184 5.67512 26.2584C5.67512 26.0984 5.61513 26.0284 5.44513 26.0284H4.35513C4.00513 26.0284 4.00513 26.0285 4.00513 26.3685L4.02513 28.3185ZM6.66513 28.3185C6.66513 29.0085 6.66513 29.7085 6.66513 30.3985C6.66489 30.5743 6.72401 30.745 6.83292 30.8829C6.94182 31.0209 7.09413 31.118 7.26514 31.1586C7.36362 31.1915 7.46763 31.2047 7.57121 31.1974C7.67479 31.19 7.77591 31.1623 7.86879 31.1158C7.96167 31.0694 8.04448 31.0051 8.11249 30.9266C8.1805 30.8481 8.23237 30.7571 8.26514 30.6586C8.3273 30.4102 8.35422 30.1544 8.34512 29.8985C8.34512 28.6985 8.34512 27.4884 8.34512 26.2884C8.34512 26.0584 8.26513 25.9886 8.05513 25.9986C7.69207 26.0186 7.32819 26.0186 6.96513 25.9986C6.74513 25.9986 6.68513 26.0684 6.68513 26.2784C6.69513 26.9884 6.69513 27.6685 6.69513 28.3485L6.66513 28.3185ZM26.5151 27.9386C26.3928 27.8276 26.2587 27.7303 26.1151 27.6485C26.0651 27.6485 25.8951 27.8285 25.9051 27.8485C25.9744 27.9744 26.0741 28.0811 26.1951 28.1586C26.1951 28.1586 26.4051 28.0686 26.5551 27.9686L26.5151 27.9386Z" fill="#4858CC"/>
<path fill-rule="evenodd" clip-rule="evenodd" d="M21.6949 3.32857C21.662 4.49936 21.2672 5.6312 20.5649 6.56856C19.5574 7.93551 18.2813 9.0824 16.8149 9.93868C16.6149 10.0487 16.4349 10.1885 16.2249 10.2785C16.1537 10.3085 16.0772 10.3239 15.9999 10.3239C15.9226 10.3239 15.8462 10.3085 15.7749 10.2785C13.8946 9.31187 12.2962 7.87544 11.1349 6.1086C10.7966 5.63601 10.5552 5.10104 10.4247 4.53463C10.2943 3.96822 10.2774 3.38154 10.3749 2.80855C10.4936 2.16934 10.7947 1.57813 11.2418 1.10616C11.689 0.63419 12.2631 0.301696 12.8949 0.148642C13.3879 -0.00185601 13.9085 -0.0386978 14.4178 0.0409758C14.927 0.120649 15.4115 0.314726 15.8349 0.608603C15.8814 0.646793 15.9397 0.667685 15.9999 0.667685C16.0601 0.667685 16.1184 0.646793 16.1649 0.608603C16.6095 0.301928 17.1203 0.104915 17.6557 0.0336516C18.191 -0.0376118 18.7356 0.0189888 19.2449 0.198691C19.7923 0.355791 20.2902 0.650468 20.6912 1.05489C21.0921 1.45932 21.3826 1.95979 21.5349 2.50851C21.6032 2.77872 21.6566 3.05253 21.6949 3.32857ZM20.6949 3.32857C20.6281 3.00679 20.531 2.69212 20.4049 2.38863C20.2145 2.04108 19.9478 1.74122 19.6247 1.51168C19.3017 1.28214 18.9308 1.1289 18.5399 1.06344C18.1491 0.997975 17.7485 1.02199 17.3683 1.13375C16.9881 1.24551 16.6382 1.44216 16.3449 1.7087C16.3011 1.76669 16.2445 1.81376 16.1794 1.84615C16.1143 1.87854 16.0426 1.89522 15.9699 1.89522C15.8972 1.89522 15.8256 1.87854 15.7605 1.84615C15.6954 1.81376 15.6387 1.76669 15.5949 1.7087C15.1841 1.33202 14.6634 1.0967 14.1092 1.03731C13.5549 0.977932 12.9963 1.09753 12.5149 1.37862C12.1818 1.55441 11.896 1.80798 11.6819 2.11788C11.4677 2.42778 11.3315 2.78486 11.2849 3.15865C11.1996 4.05175 11.4373 4.94586 11.9549 5.67867C12.8504 7.02955 14.0358 8.16381 15.4249 8.99874C15.5737 9.12685 15.7636 9.19723 15.9599 9.19723C16.1563 9.19723 16.3461 9.12685 16.4949 8.99874C17.8007 8.20214 18.9331 7.15126 19.8249 5.90865C20.369 5.14126 20.6719 4.22895 20.6949 3.28853V3.32857Z" fill="#4858CC"/>
<path fill-rule="evenodd" clip-rule="evenodd" d="M9.55535 8.69851C9.58241 9.29724 9.49064 9.89542 9.28535 10.4585C9.17575 10.7379 9.00469 10.9889 8.78484 11.1931C8.565 11.3974 8.30201 11.5496 8.01536 11.6384C6.97668 11.9725 5.86606 12.0139 4.80535 11.7583C4.46771 11.7078 4.14646 11.5794 3.86703 11.3833C3.58759 11.1872 3.35763 10.9288 3.19535 10.6284C2.99174 10.1783 2.87956 9.69232 2.86535 9.19851C2.78623 8.62525 2.8215 8.04199 2.96911 7.48244C3.11672 6.92289 3.37375 6.39813 3.72535 5.9385C4.04788 5.47435 4.49498 5.11058 5.01513 4.88942C5.53527 4.66827 6.10731 4.59874 6.66535 4.6885C7.06251 4.75052 7.44355 4.89005 7.78672 5.09938C8.12989 5.30872 8.42845 5.58372 8.66535 5.90847C9.29791 6.69582 9.61513 7.69029 9.55535 8.69851ZM6.14535 10.9885C6.65535 10.9185 7.14536 10.8783 7.51536 10.7883C7.72578 10.7591 7.92337 10.67 8.08468 10.5318C8.24598 10.3935 8.36421 10.2118 8.42534 10.0083C8.6002 9.35648 8.63765 8.67541 8.53535 8.00832C8.46191 7.40289 8.19947 6.83615 7.78535 6.38845C7.49226 6.02078 7.079 5.76809 6.61815 5.67482C6.15731 5.58156 5.67834 5.65366 5.26536 5.87844C4.87612 6.09655 4.54604 6.40633 4.30379 6.78103C4.06155 7.15572 3.91447 7.58388 3.87534 8.02834C3.82533 8.53711 3.82533 9.0496 3.87534 9.55837C3.86584 9.8149 3.94097 10.0675 4.08915 10.2771C4.23733 10.4867 4.45034 10.6419 4.69535 10.7185C5.17386 10.8327 5.6578 10.9229 6.14535 10.9885Z" fill="#4858CC"/>
<path fill-rule="evenodd" clip-rule="evenodd" d="M22.7656 8.70842C22.7365 8.16244 22.8161 7.61598 22.9998 7.101C23.1835 6.58601 23.4676 6.11275 23.8356 5.70842C24.1427 5.33643 24.535 5.044 24.9791 4.85588C25.4233 4.66776 25.9063 4.58934 26.3871 4.62761C26.868 4.66588 27.3325 4.81959 27.7413 5.07561C28.1502 5.33162 28.4912 5.68243 28.7356 6.09831C29.3288 6.94943 29.5919 7.98732 29.4756 9.01823C29.4625 9.3548 29.419 9.6895 29.3456 10.0182C29.2866 10.3087 29.1671 10.5837 28.9948 10.8249C28.8225 11.0661 28.6013 11.2684 28.3456 11.4184C27.4339 11.8631 26.4086 12.02 25.4056 11.8683C24.8965 11.8452 24.3984 11.7123 23.9456 11.4784C23.6434 11.3053 23.3869 11.0624 23.1973 10.7702C23.0078 10.478 22.8906 10.1448 22.8556 9.79826C22.8056 9.43826 22.7956 9.07842 22.7656 8.70842ZM26.1356 10.9784L27.4356 10.7883C27.6526 10.7734 27.8588 10.6884 28.023 10.5458C28.1872 10.4033 28.3004 10.2112 28.3456 9.99846C28.4394 9.59136 28.493 9.1758 28.5056 8.75822C28.5424 8.33945 28.495 7.91766 28.3662 7.5175C28.2374 7.11734 28.0298 6.74707 27.7556 6.42839C27.5481 6.15133 27.2722 5.93283 26.9549 5.79436C26.6377 5.65588 26.2899 5.60213 25.9456 5.63835C25.4811 5.69962 25.0446 5.89489 24.6894 6.20036C24.3342 6.50584 24.0757 6.90826 23.9456 7.35832C23.6859 8.14588 23.6445 8.98902 23.8256 9.79826C23.8454 9.99645 23.9206 10.185 24.0426 10.3425C24.1647 10.4999 24.3286 10.6199 24.5156 10.6884C25.0365 10.8714 25.5835 10.9694 26.1356 10.9784Z" fill="#4858CC"/>
<path fill-rule="evenodd" clip-rule="evenodd" d="M18.5749 16.239C18.6179 16.7734 18.525 17.3099 18.3049 17.7988C18.1929 18.0118 18.0369 18.1989 17.8473 18.3471C17.6577 18.4954 17.4387 18.6016 17.2049 18.6589C16.3841 18.889 15.5158 18.889 14.6949 18.6589C14.3581 18.5733 14.055 18.3881 13.8249 18.1276C13.5948 17.8672 13.4485 17.5437 13.4049 17.1989C13.2882 16.703 13.2732 16.1886 13.3609 15.6867C13.4486 15.1849 13.637 14.7058 13.9149 14.2788C14.177 13.8725 14.5529 13.5527 14.9957 13.3588C15.4386 13.165 15.9287 13.1059 16.4049 13.1889C16.8184 13.2846 17.2033 13.4766 17.5283 13.7495C17.8533 14.0223 18.1092 14.3681 18.2749 14.7588C18.5106 15.2146 18.6145 15.7273 18.5749 16.239ZM17.5749 16.3689C17.6059 15.8646 17.4839 15.3628 17.2249 14.9289C17.1112 14.7233 16.9521 14.5462 16.7598 14.4111C16.5675 14.276 16.347 14.1862 16.1149 14.1489C15.8127 14.1104 15.5058 14.1653 15.2358 14.3066C14.9658 14.4479 14.7456 14.6686 14.6049 14.9389C14.2878 15.5256 14.1752 16.2011 14.2849 16.8588C14.283 16.9875 14.3082 17.1152 14.3587 17.2336C14.4093 17.352 14.484 17.4585 14.5783 17.5461C14.6725 17.6338 14.7841 17.7006 14.9059 17.7424C15.0276 17.7842 15.1567 17.8 15.2849 17.7888C15.7444 17.8188 16.2054 17.8188 16.6649 17.7888C16.7828 17.797 16.9011 17.7809 17.0125 17.7414C17.1239 17.7019 17.2259 17.64 17.3122 17.5593C17.3985 17.4786 17.4673 17.3809 17.5142 17.2724C17.5612 17.164 17.5852 17.0471 17.5849 16.9289C17.5849 16.7389 17.6049 16.5489 17.6149 16.3689H17.5749Z" fill="#4858CC"/>
<path fill-rule="evenodd" clip-rule="evenodd" d="M26.5553 27.9691C26.4053 28.0691 26.2753 28.209 26.2353 28.189C26.1143 28.1116 26.0146 28.0049 25.9453 27.879C25.9453 27.879 26.1053 27.659 26.1553 27.679C26.2988 27.7608 26.433 27.8581 26.5553 27.9691Z" fill="#4858CC"/>
</svg>
