<svg width="34" height="34" viewBox="0 0 34 34" fill="none" xmlns="http://www.w3.org/2000/svg">
<path fill-rule="evenodd" clip-rule="evenodd" d="M30.7899 23.6546C30.0888 22.7282 29.137 22.0223 28.047 21.62C26.9571 21.2177 25.7748 21.1359 24.6399 21.3846C23.7455 21.5452 22.9042 21.923 22.1899 22.4847C22.0899 22.5647 21.9999 22.5947 21.8899 22.4847C21.4999 22.0647 21.0999 21.6447 20.7199 21.2147C20.688 21.1744 20.666 21.1271 20.6556 21.0768C20.6451 21.0264 20.6466 20.9743 20.6599 20.9247C20.8199 20.4447 20.9899 19.9647 21.1699 19.4847C21.3499 19.0047 21.3599 19.0147 21.8699 19.0047H22.0199C22.0939 19.0196 22.1703 19.0178 22.2436 18.9996C22.3168 18.9814 22.3852 18.9471 22.4436 18.8993C22.502 18.8514 22.549 18.7912 22.5813 18.723C22.6136 18.6548 22.6304 18.5802 22.6304 18.5047C22.6304 18.4292 22.6136 18.3547 22.5813 18.2865C22.549 18.2182 22.502 18.158 22.4436 18.1102C22.3852 18.0624 22.3168 18.0281 22.2436 18.0099C22.1703 17.9916 22.0939 17.9899 22.0199 18.0047H19.7499C19.6829 18.0021 19.6161 18.0126 19.5532 18.0357C19.4903 18.0589 19.4326 18.0942 19.3833 18.1397C19.3341 18.1853 19.2943 18.2402 19.2663 18.3011C19.2382 18.362 19.2225 18.4277 19.2199 18.4947C19.2171 18.5638 19.2286 18.6327 19.2538 18.6971C19.2789 18.7615 19.3171 18.8199 19.3659 18.8687C19.4148 18.9176 19.4733 18.9557 19.5376 18.9808C19.602 19.0059 19.6709 19.0176 19.7399 19.0147H20.2299C20.2363 19.0846 20.2363 19.1548 20.2299 19.2247L19.1099 22.2848L18.2699 24.5948C18.0099 25.3148 17.7499 26.0247 17.4999 26.7447C17.4786 26.8253 17.4276 26.8948 17.3571 26.9393C17.2866 26.9838 17.2018 27.0001 17.1199 26.9847C16.8999 26.9847 16.6799 26.9847 16.4699 26.9847C15.7899 26.9847 15.7799 26.9848 15.7399 26.3148C15.6494 24.9229 15.2822 23.5631 14.6599 22.3148C14.2005 21.3072 13.4197 20.4806 12.4399 19.9647C12.2999 19.8947 12.2999 19.8046 12.3199 19.6646C12.3999 18.7946 12.4799 17.9248 12.5399 17.0548C12.5399 16.5548 12.3499 16.3548 11.8499 16.3548C10.8499 16.3548 9.84989 16.3548 8.84989 16.3548C8.56755 16.345 8.28608 16.3906 8.02146 16.4896C7.75684 16.5885 7.51426 16.7388 7.30765 16.9315C6.89038 17.3206 6.6448 17.8596 6.62491 18.4298C6.60502 19 6.81243 19.5547 7.20157 19.972C7.59071 20.3893 8.12971 20.6347 8.69992 20.6546C8.78226 20.6616 8.865 20.6477 8.94046 20.6141C9.01593 20.5805 9.08167 20.5281 9.13156 20.4622C9.18146 20.3964 9.21391 20.3192 9.22586 20.2374C9.23781 20.1556 9.22888 20.0721 9.19992 19.9947C9.12992 19.7447 8.94993 19.6746 8.70993 19.6446C8.55613 19.6398 8.40491 19.6038 8.2656 19.5384C8.12628 19.4731 8.00175 19.3799 7.89969 19.2647C7.79763 19.1496 7.72021 19.0147 7.67209 18.8685C7.62398 18.7223 7.60621 18.5679 7.61991 18.4146C7.64782 18.1235 7.78955 17.8551 8.01426 17.6678C8.23896 17.4806 8.52849 17.3896 8.81992 17.4146C9.59992 17.4146 10.3899 17.4146 11.1799 17.4146C11.3999 17.4146 11.4799 17.4647 11.4699 17.6947C11.4184 18.8321 11.2509 19.9614 10.9699 21.0648C10.8999 21.3648 10.7899 21.6546 10.7099 21.9046C10.2399 21.7546 9.81992 21.5947 9.37992 21.4847C7.92057 21.1031 6.37102 21.2852 5.03989 21.9947C3.69068 22.6822 2.64028 23.8404 2.08744 25.2501C1.5346 26.6598 1.51768 28.2233 2.03989 29.6446C2.41181 30.6981 3.06685 31.6289 3.93302 32.3346C4.79918 33.0402 5.843 33.4934 6.94992 33.6446C8.3806 33.8895 9.85133 33.5977 11.0799 32.8248C12.1994 32.1582 13.0809 31.1563 13.5995 29.961C14.1182 28.7658 14.2478 27.4376 13.9699 26.1646C13.6985 24.8662 12.9932 23.699 11.9699 22.8548C11.6299 22.5648 11.4799 22.3348 11.6899 21.8548C11.8141 21.5301 11.911 21.1956 11.9799 20.8548C12.1099 20.9248 12.1999 20.9647 12.2899 21.0247C12.8695 21.468 13.3384 22.0396 13.6599 22.6947C14.3234 24.1265 14.6648 25.6866 14.6599 27.2647C14.6599 27.7847 14.7999 27.9146 15.3199 27.9146C16.6499 27.9146 17.9699 27.9146 19.3199 27.9146C19.5199 27.9146 19.5999 27.9746 19.6299 28.1646C19.7125 28.635 19.8261 29.0994 19.9699 29.5548C20.4203 30.8344 21.2909 31.9235 22.4399 32.6446C22.7474 32.8312 23.0645 33.0015 23.3899 33.1546C23.8699 33.3249 24.3611 33.462 24.8599 33.5648C26.1918 33.8033 27.5651 33.566 28.7399 32.8946C29.6556 32.4205 30.4355 31.721 31.0058 30.8619C31.5762 30.0028 31.9183 29.0127 31.9999 27.9847C32.096 27.2188 32.0385 26.4413 31.8307 25.6978C31.623 24.9544 31.2691 24.2598 30.7899 23.6546ZM12.1999 24.5247C12.9522 25.5601 13.2715 26.8477 13.0899 28.1146C12.9938 29.0012 12.6659 29.847 12.1393 30.5667C11.6126 31.2864 10.9059 31.8547 10.0899 32.2147C8.94495 32.7694 7.62954 32.859 6.41989 32.4647C5.69422 32.2528 5.02501 31.8817 4.46103 31.3783C3.89705 30.8748 3.45251 30.2518 3.15989 29.5548C2.79374 28.7578 2.64869 27.877 2.7399 27.0047C2.8086 26.2662 3.03391 25.5507 3.40079 24.9061C3.76768 24.2615 4.26775 23.7024 4.86765 23.2662C5.46755 22.83 6.15346 22.5268 6.87979 22.3766C7.60613 22.2263 8.35619 22.2323 9.07993 22.3946C9.44099 22.4905 9.79513 22.6109 10.1399 22.7547C10.3199 22.8247 10.3799 22.9248 10.2799 23.0948C10.1799 23.2648 10.1899 23.2946 10.1399 23.3846C10.0899 23.4746 9.76992 24.1346 9.75992 24.1446C9.6498 24.3718 9.52625 24.5923 9.38993 24.8048C8.89589 25.6228 8.30495 26.3783 7.62992 27.0548C7.53424 27.1249 7.4666 27.2267 7.43912 27.3421C7.41164 27.4575 7.42609 27.5789 7.47989 27.6847C7.52448 27.792 7.6081 27.8786 7.71384 27.9268C7.81958 27.9751 7.93962 27.9814 8.0499 27.9447C8.18598 27.8919 8.30884 27.81 8.40988 27.7047C9.18119 26.9128 9.85283 26.0297 10.4099 25.0748V25.0147C10.4099 25.0147 10.9499 23.9047 11.0299 23.7647C11.1099 23.6247 11.1199 23.5846 11.2099 23.3946C11.5597 23.7395 11.8902 24.1035 12.1999 24.4847V24.5247ZM19.7499 26.5247C19.7499 26.9247 19.7499 26.9247 19.3099 26.9247H18.5799H18.4699L20.1999 22.1446L21.1999 23.2647C20.9299 23.6647 20.6499 24.0447 20.4199 24.4447C20.0489 25.0959 19.8205 25.8186 19.7499 26.5648V26.5247ZM21.9599 24.0147L22.0499 24.0848C22.3199 24.3348 23.0499 25.2547 23.1099 25.2147L24.6999 26.9046C24.6999 26.9046 21.1499 26.9546 20.9699 26.9046H20.6899C20.8064 25.8456 21.2504 24.8495 21.9599 24.0548V24.0147ZM30.9599 28.4747C30.8109 29.2504 30.4842 29.9809 30.0053 30.609C29.5264 31.2371 28.9084 31.7458 28.1999 32.0948C27.3342 32.5496 26.3509 32.7307 25.3799 32.6146C24.7111 32.5532 24.0598 32.3668 23.4599 32.0648C23.0988 31.886 22.7626 31.6606 22.4599 31.3946C21.4755 30.5795 20.8359 29.4219 20.6699 28.1546C20.6699 28.0046 20.6699 27.9347 20.8399 27.9347H25.7199C25.842 27.9507 25.9659 27.9261 26.0725 27.8646C26.1792 27.8031 26.2626 27.7085 26.3099 27.5948C26.4199 27.3448 26.3099 27.1647 26.1199 26.9947C25.3699 26.2047 22.9399 23.6846 22.7499 23.4046C22.5599 23.1246 22.8199 23.1746 22.8999 23.1246C23.5485 22.685 24.2877 22.3972 25.0628 22.2823C25.8378 22.1674 26.6288 22.2283 27.377 22.4608C28.1253 22.6932 28.8116 23.0912 29.3851 23.6251C29.9586 24.1589 30.4046 24.8151 30.6899 25.5448C31.096 26.4688 31.2044 27.4963 30.9999 28.4847L30.9599 28.4747Z" fill="#4858CC"/>
<path fill-rule="evenodd" clip-rule="evenodd" d="M17.2793 0.00454951C18.415 0.0578336 19.5149 0.417919 20.4623 1.04654C21.4096 1.67516 22.1688 2.54889 22.6592 3.57462C23.2025 4.60277 23.4353 5.76647 23.3293 6.92447C23.2445 7.72006 23.0317 8.49678 22.6993 9.22452C21.5401 11.7464 20.0172 14.0846 18.1792 16.1645L17.3393 17.1645C17.2932 17.2367 17.2296 17.2963 17.1545 17.3376C17.0793 17.3788 16.9949 17.4003 16.9092 17.4003C16.8235 17.4003 16.7392 17.3788 16.664 17.3376C16.5889 17.2963 16.5253 17.2367 16.4792 17.1645C14.6226 15.1362 13.0146 12.8937 11.6892 10.4845C11.2185 9.6059 10.8591 8.67201 10.6192 7.7045C10.4155 6.77541 10.443 5.81044 10.6993 4.89444C10.9009 4.05872 11.271 3.27314 11.7868 2.58536C12.3027 1.89758 12.9534 1.32207 13.6993 0.894442C14.785 0.266607 16.0259 -0.0417877 17.2793 0.00454951ZM22.3393 6.39444C22.318 5.29764 21.9698 4.23234 21.3393 3.33463C20.8833 2.68179 20.2878 2.13839 19.596 1.74405C18.9042 1.34972 18.1333 1.11428 17.3393 1.0546C16.4609 0.959616 15.5729 1.09029 14.7592 1.43448C13.4983 1.95145 12.4799 2.92688 11.9092 4.16446C11.4933 5.014 11.3268 5.9641 11.4292 6.90445C11.5768 7.88549 11.8949 8.83317 12.3692 9.7045C13.0399 11.0323 13.8334 12.2945 14.7392 13.4745C15.3692 14.3045 16.0392 15.1045 16.6892 15.9245C16.8092 16.0745 16.8892 16.0745 16.9992 15.9245C17.1092 15.7745 17.2693 15.6045 17.3993 15.4445C19.075 13.531 20.4874 11.4021 21.5992 9.11441C22.0419 8.27279 22.2945 7.34432 22.3393 6.39444Z" fill="#4858CC"/>
<path fill-rule="evenodd" clip-rule="evenodd" d="M20.3799 6.48492C20.3799 7.17405 20.1753 7.84776 19.792 8.42047C19.4088 8.99318 18.864 9.43917 18.227 9.70196C17.5899 9.96476 16.8892 10.0324 16.2136 9.89654C15.538 9.76064 14.918 9.42722 14.4321 8.93853C13.9462 8.44984 13.6164 7.82779 13.4844 7.15142C13.3524 6.47506 13.4241 5.77475 13.6906 5.13922C13.9571 4.50369 14.4062 3.96157 14.9811 3.5816C15.556 3.20163 16.2308 3.00098 16.9199 3.00494C17.8394 3.01022 18.7194 3.37925 19.3677 4.03131C20.016 4.68336 20.38 5.56542 20.3799 6.48492ZM19.3799 6.59503C19.4075 6.2594 19.3661 5.92165 19.2584 5.6026C19.1506 5.28354 18.9787 4.98976 18.7533 4.73956C18.528 4.48936 18.2538 4.28788 17.9477 4.14752C17.6416 4.00716 17.31 3.93091 16.9733 3.9234C16.6366 3.91589 16.302 3.97725 15.9899 4.10382C15.6779 4.23038 15.395 4.41958 15.1586 4.65948C14.9223 4.89938 14.7375 5.18491 14.6157 5.49884C14.4938 5.81277 14.4374 6.1484 14.4499 6.48492C14.4499 6.85385 14.5329 7.21808 14.6927 7.55059C14.8526 7.88311 15.0851 8.17535 15.3732 8.40582C15.6612 8.63629 15.9975 8.79897 16.357 8.88189C16.7165 8.96482 17.09 8.96581 17.4499 8.88482C17.8794 8.76547 18.276 8.55015 18.6099 8.25494C18.8509 8.04462 19.0435 7.78466 19.1747 7.49298C19.3058 7.20129 19.3725 6.88481 19.3699 6.565L19.3799 6.59503Z" fill="#4858CC"/>
<path d="M4.57971 4.91461C3.7375 4.88682 2.9038 5.091 2.16967 5.5047C1.66279 5.78984 1.21951 6.17543 0.866998 6.638C0.514485 7.10056 0.260184 7.63029 0.119683 8.19464C-0.0398944 8.82131 -0.0398944 9.47813 0.119683 10.1048C0.267304 10.7552 0.506369 11.3813 0.829705 11.9647C1.70181 13.5564 2.76278 15.037 3.98968 16.3746C4.03863 16.4341 4.09954 16.4827 4.16845 16.5171C4.23736 16.5516 4.31274 16.5713 4.3897 16.5748C4.46773 16.5714 4.54406 16.5508 4.61321 16.5145C4.68236 16.4782 4.74258 16.4269 4.78967 16.3646L5.33972 15.7347C6.56075 14.3648 7.57176 12.8213 8.33972 11.1546C8.5654 10.6686 8.70738 10.1479 8.7597 9.61456C8.83506 8.82695 8.67864 8.03469 8.30969 7.33478C7.96571 6.63118 7.43697 6.03424 6.77996 5.60797C6.12295 5.18171 5.3624 4.94199 4.57971 4.91461ZM7.71972 9.2547C7.70537 9.84521 7.56197 10.4254 7.29968 10.9546C6.57956 12.4332 5.6648 13.8089 4.57971 15.0447L4.47967 15.1646L4.33972 15.3348L3.91967 14.8148C3.63967 14.4648 3.35966 14.1248 3.09966 13.8148C2.51057 13.0518 1.99496 12.2346 1.55969 11.3746C1.26596 10.8206 1.06339 10.2232 0.95971 9.6048C0.903618 9.02036 1.01094 8.43163 1.26971 7.9046C1.6226 7.13385 2.25531 6.52617 3.03967 6.20465C3.44116 6.03331 3.87316 5.94487 4.30969 5.94464H4.64971C5.48282 6.02133 6.25786 6.40424 6.82494 7.01935C7.39203 7.63446 7.71087 8.43814 7.71972 9.27472V9.2547Z" fill="#4858CC"/>
<path d="M4.33954 6.85449C3.72071 6.89417 3.14016 7.16783 2.71594 7.62012C2.29172 8.07241 2.05566 8.6692 2.05566 9.28931C2.05566 9.90941 2.29172 10.5062 2.71594 10.9585C3.14016 11.4108 3.72071 11.6847 4.33954 11.7244C4.95837 11.6847 5.53886 11.4108 5.96307 10.9585C6.38729 10.5062 6.62341 9.90941 6.62341 9.28931C6.62341 8.6692 6.38729 8.07241 5.96307 7.62012C5.53886 7.16783 4.95837 6.89417 4.33954 6.85449ZM3.33954 10.2944C3.08618 10.0226 2.9435 9.66598 2.93951 9.29443C2.93951 8.90987 3.09227 8.54097 3.3642 8.26904C3.63612 7.99712 4.00496 7.84448 4.38953 7.84448V7.68433V7.84448C4.58341 7.84699 4.77484 7.88828 4.95245 7.96606C5.13007 8.04385 5.29026 8.15633 5.42358 8.29712C5.55691 8.43791 5.66063 8.60406 5.72864 8.78564C5.79665 8.96723 5.82756 9.16076 5.81952 9.35449C5.82521 9.54341 5.78864 9.73105 5.71252 9.90405C5.6364 10.0771 5.52265 10.2311 5.37952 10.3545C5.18408 10.5304 4.95173 10.6601 4.69952 10.7344C4.44664 10.7941 4.18231 10.7847 3.93427 10.7073C3.68622 10.6299 3.46353 10.4874 3.28949 10.2944H3.33954Z" fill="#4858CC"/>
<path d="M32.7797 7.33457C32.4414 6.6411 31.9234 6.05068 31.2798 5.6251C30.6361 5.19953 29.8903 4.95416 29.1197 4.91441C28.2744 4.88785 27.4379 5.09189 26.6997 5.5045C26.2043 5.79745 25.7722 6.18617 25.4288 6.64805C25.0854 7.10993 24.8376 7.63564 24.6997 8.19444C24.529 8.81772 24.5118 9.47324 24.6497 10.1046C24.8056 10.754 25.0477 11.3794 25.3697 11.9645C26.2418 13.5562 27.3028 15.0368 28.5297 16.3744C28.5787 16.4339 28.6395 16.4825 28.7084 16.5169C28.7773 16.5514 28.8527 16.5711 28.9297 16.5746C29.0077 16.5712 29.084 16.5506 29.1532 16.5143C29.2223 16.478 29.2826 16.4267 29.3297 16.3644L29.8797 15.7345C31.1007 14.3646 32.1117 12.821 32.8797 11.1544C33.1054 10.6684 33.2474 10.1477 33.2997 9.61436C33.3537 8.81981 33.1729 8.02713 32.7797 7.33457ZM32.2597 9.2545C32.2453 9.84501 32.102 10.4252 31.8397 10.9544C31.1196 12.433 30.2048 13.8087 29.1197 15.0445L29.0197 15.1644C28.9682 15.2169 28.9213 15.274 28.8797 15.3346L28.4597 14.8146C28.1797 14.4646 27.8997 14.1246 27.6297 13.8146C27.0471 13.0491 26.5349 12.2322 26.0997 11.3744C25.8059 10.8204 25.6034 10.223 25.4997 9.60459C25.4436 9.02015 25.5509 8.43142 25.8097 7.9044C26.1601 7.13186 26.7937 6.52337 27.5797 6.20445C27.9812 6.03311 28.4131 5.94467 28.8497 5.94444H29.1897C30.0228 6.02112 30.7978 6.40403 31.3649 7.01914C31.932 7.63426 32.2508 8.43793 32.2597 9.27452V9.2545Z" fill="#4858CC"/>
<path d="M28.8794 6.85449C28.2349 6.85449 27.6168 7.11045 27.1611 7.56616C26.7054 8.02188 26.4494 8.63995 26.4494 9.28442C26.4456 9.60419 26.5065 9.92145 26.6285 10.217C26.7505 10.5126 26.9311 10.7804 27.1593 11.0044C27.383 11.231 27.6492 11.4111 27.9426 11.5347C28.236 11.6582 28.551 11.7227 28.8694 11.7244C29.4882 11.6847 30.0687 11.4108 30.4929 10.9585C30.9171 10.5062 31.1532 9.90941 31.1532 9.28931C31.1532 8.6692 30.9171 8.07241 30.4929 7.62012C30.0687 7.16783 29.4882 6.89417 28.8694 6.85449H28.8794ZM27.8294 10.2944C27.5717 10.0254 27.4283 9.66696 27.4294 9.29443C27.4267 9.10327 27.4624 8.91347 27.5343 8.73633C27.6062 8.55919 27.7129 8.39837 27.8481 8.26318C27.9833 8.128 28.1442 8.02113 28.3213 7.94922C28.4985 7.8773 28.6882 7.84179 28.8794 7.84448V7.68433V7.84448C29.0733 7.84699 29.2647 7.88828 29.4423 7.96606C29.6199 8.04385 29.7801 8.15633 29.9134 8.29712C30.0468 8.43791 30.1505 8.60406 30.2185 8.78564C30.2865 8.96723 30.3174 9.16076 30.3094 9.35449C30.3151 9.54341 30.2785 9.73105 30.2024 9.90405C30.1263 10.0771 30.0125 10.2311 29.8694 10.3545C29.6739 10.5304 29.4416 10.6601 29.1894 10.7344C28.944 10.7848 28.6897 10.7707 28.4514 10.6936C28.2131 10.6165 27.9988 10.479 27.8294 10.2944Z" fill="#4858CC"/>
</svg>
