<svg width="30" height="34" viewBox="0 0 30 34" fill="none" xmlns="http://www.w3.org/2000/svg">
<path fill-rule="evenodd" clip-rule="evenodd" d="M27.0485 22.3399V25.8001C27.0485 27.8001 27.0485 29.8001 27.0485 31.8001C27.0535 32.1437 26.9457 32.4793 26.7415 32.7557C26.5374 33.0321 26.2483 33.2339 25.9185 33.3302C25.5645 33.4394 25.1829 33.4165 24.8445 33.2657C24.5061 33.1149 24.234 32.8464 24.0785 32.5101C23.9786 32.2759 23.9242 32.0247 23.9185 31.7701C23.9185 30.9201 23.9185 30.0801 23.9185 29.2301C23.9185 28.9001 23.9185 28.5801 23.9185 28.2301C23.9185 27.8801 23.9185 27.4101 23.9185 27.0101C23.9185 25.8501 23.9185 24.7001 23.9185 23.5501C23.9299 23.4428 23.9082 23.3343 23.8564 23.2396C23.8046 23.1449 23.7251 23.0684 23.6285 23.0201C23.5511 22.9799 23.4644 22.9606 23.3773 22.9642C23.2901 22.9679 23.2055 22.9944 23.1317 23.0409C23.0579 23.0874 22.9975 23.1523 22.9566 23.2293C22.9157 23.3064 22.8956 23.3929 22.8985 23.4801C22.8985 23.8501 22.8985 24.2102 22.8985 24.5802C22.8985 25.8602 22.8985 27.15 22.8985 28.44C22.8985 28.71 22.8985 28.9701 22.8985 29.2401C22.8985 30.0601 22.8985 30.88 22.8985 31.7C22.8926 31.9495 22.8453 32.1961 22.7585 32.43C22.6133 32.7481 22.3665 33.0091 22.0571 33.172C21.7477 33.3348 21.3929 33.3905 21.0485 33.3302C20.6782 33.2532 20.3465 33.0489 20.1109 32.753C19.8753 32.4571 19.7506 32.0882 19.7585 31.7101C19.7585 30.7101 19.7585 29.7101 19.7585 28.7101C19.7647 28.5955 19.7313 28.4824 19.6639 28.3895C19.5965 28.2966 19.4993 28.2297 19.3885 28.2C19.2804 28.1684 19.1646 28.1751 19.0608 28.2188C18.957 28.2626 18.8715 28.3406 18.8185 28.44C18.7649 28.5592 18.7408 28.6897 18.7485 28.8202C18.7485 29.8202 18.7485 30.7701 18.7485 31.7501C18.7659 32.0758 18.678 32.3983 18.498 32.6703C18.3179 32.9422 18.0551 33.149 17.7485 33.2601C17.5434 33.3442 17.3226 33.3833 17.1011 33.3748C16.8796 33.3664 16.6624 33.3105 16.4643 33.211C16.2662 33.1115 16.0918 32.9706 15.9528 32.7979C15.8138 32.6253 15.7134 32.4248 15.6585 32.2101C15.6237 32.0286 15.6036 31.8447 15.5985 31.66C15.5985 31.33 15.5985 31 15.5985 30.66C15.5811 30.5372 15.5177 30.4255 15.4212 30.3475C15.3247 30.2696 15.2023 30.2313 15.0785 30.2401C14.9493 30.2475 14.8273 30.3029 14.7367 30.3954C14.6461 30.4878 14.5932 30.6107 14.5885 30.7401V31.7401C14.5898 31.9449 14.5508 32.148 14.4736 32.3377C14.3964 32.5275 14.2826 32.7002 14.1386 32.846C13.9947 32.9918 13.8235 33.108 13.6347 33.1876C13.446 33.2672 13.2433 33.3088 13.0385 33.3101H1.63852C1.25536 33.3295 0.878484 33.2067 0.579988 32.9657C0.281493 32.7247 0.0822849 32.3821 0.0204179 32.0035C-0.041449 31.6249 0.0384035 31.2369 0.244661 30.9134C0.450919 30.5899 0.769144 30.3538 1.13852 30.2501C1.3478 30.1701 1.57921 30.1701 1.78848 30.2501C1.90093 30.2945 1.99443 30.3767 2.05283 30.4825C2.11123 30.5884 2.13089 30.7114 2.10849 30.8302C2.08443 30.9383 2.02887 31.0368 1.94876 31.1134C1.86866 31.1899 1.76761 31.241 1.65848 31.2601C1.53326 31.2705 1.41115 31.3043 1.29849 31.36C1.20717 31.4189 1.13757 31.5062 1.10019 31.6082C1.06281 31.7103 1.05969 31.8216 1.09134 31.9256C1.12299 32.0296 1.18764 32.1205 1.27554 32.1844C1.36345 32.2484 1.46984 32.282 1.57852 32.2801H8.64847C10.0785 32.2801 11.5085 32.2801 12.9385 32.2801C13.0188 32.2861 13.0995 32.2747 13.175 32.2467C13.2505 32.2186 13.3191 32.1745 13.376 32.1175C13.433 32.0606 13.477 31.9921 13.505 31.9166C13.5331 31.8411 13.5445 31.7603 13.5385 31.68C13.525 31.2427 13.5417 30.805 13.5885 30.37C13.6588 30.0604 13.8219 29.7797 14.056 29.5653C14.2901 29.3509 14.584 29.213 14.8985 29.17C15.2298 29.1222 15.5676 29.1842 15.8603 29.3468C16.1529 29.5093 16.3841 29.7636 16.5185 30.0702C16.6083 30.2722 16.6591 30.4892 16.6685 30.7101C16.6685 31.0601 16.6685 31.4101 16.6685 31.7101C16.6536 31.7841 16.6554 31.8604 16.6736 31.9337C16.6919 32.0069 16.7261 32.0752 16.774 32.1336C16.8218 32.192 16.882 32.2393 16.9502 32.2716C17.0185 32.3039 17.093 32.3206 17.1685 32.3206C17.244 32.3206 17.3185 32.3039 17.3868 32.2716C17.455 32.2393 17.5152 32.192 17.5631 32.1336C17.6109 32.0752 17.6452 32.0069 17.6634 31.9337C17.6817 31.8604 17.6834 31.7841 17.6685 31.7101V28.65C17.659 28.2838 17.7762 27.9258 18.0003 27.6361C18.2244 27.3464 18.5417 27.143 18.8985 27.0601C19.3015 26.9706 19.7237 27.0445 20.0724 27.2657C20.421 27.4869 20.6678 27.8373 20.7585 28.2401C20.79 28.4016 20.8067 28.5656 20.8085 28.7301V31.65C20.803 31.7385 20.8182 31.8272 20.8529 31.9088C20.8876 31.9904 20.9409 32.0626 21.0085 32.12C21.0771 32.1769 21.1603 32.2138 21.2486 32.2262C21.3369 32.2385 21.4269 32.226 21.5085 32.19C21.6067 32.1515 21.6909 32.0839 21.7498 31.9964C21.8088 31.9089 21.8397 31.8056 21.8385 31.7C21.8385 31.2 21.8385 30.7001 21.8385 30.2101C21.8385 27.9601 21.8385 25.7 21.8385 23.44C21.8342 23.0997 21.9386 22.767 22.1364 22.4901C22.3342 22.2131 22.6152 22.0063 22.9385 21.9C23.1597 21.83 23.3939 21.8109 23.6235 21.8441C23.8531 21.8773 24.0723 21.9621 24.2646 22.0919C24.4569 22.2217 24.6174 22.3933 24.7341 22.5938C24.8508 22.7944 24.9207 23.0187 24.9385 23.2501C24.9385 24.2501 24.9385 25.1499 24.9385 26.0999V31.5999C24.931 31.6969 24.946 31.7944 24.9825 31.8846C25.0189 31.9748 25.0757 32.0554 25.1485 32.12C25.2161 32.175 25.2974 32.2107 25.3838 32.223C25.4701 32.2353 25.5582 32.224 25.6385 32.19C25.7283 32.1595 25.8072 32.1034 25.8658 32.0289C25.9243 31.9543 25.96 31.8645 25.9685 31.7701V25.91C25.9685 23.16 25.9685 20.41 25.9685 17.66C25.9685 15.95 25.9685 14.2401 25.9685 12.5301C25.9531 12.2023 26.0414 11.8781 26.221 11.6034C26.4005 11.3287 26.6621 11.1175 26.9685 11.0001C27.1651 10.9286 27.3743 10.8978 27.5832 10.9098C27.7921 10.9218 27.9964 10.9763 28.1836 11.0699C28.3707 11.1635 28.5369 11.2943 28.6718 11.4542C28.8068 11.6141 28.9077 11.7999 28.9685 12.0001C29.0278 12.2014 29.0581 12.4101 29.0585 12.62C29.0585 16.4466 29.0585 20.2699 29.0585 24.0899V31.0899C29.0693 31.2013 29.0477 31.3136 28.9962 31.4129C28.9448 31.5123 28.8657 31.5946 28.7685 31.65C28.6941 31.6916 28.6106 31.7144 28.5253 31.7162C28.44 31.7179 28.3557 31.6988 28.2796 31.6602C28.2036 31.6217 28.1381 31.565 28.0891 31.4952C28.0401 31.4254 28.009 31.3447 27.9985 31.2601C27.9935 31.1969 27.9935 31.1334 27.9985 31.0702C27.9985 29.3302 27.9985 27.5802 27.9985 25.8302C27.9985 25.3902 27.9985 24.9401 27.9985 24.5001C27.9985 24.2601 27.9985 24.0201 27.9985 23.7901V12.61C28.0138 12.4986 27.9976 12.3853 27.9516 12.2828C27.9057 12.1803 27.8318 12.0927 27.7385 12.0301C27.6619 11.9879 27.576 11.9656 27.4886 11.9654C27.4011 11.9652 27.3151 11.987 27.2383 12.0289C27.1616 12.0708 27.0966 12.1313 27.0494 12.2049C27.0023 12.2785 26.9744 12.3628 26.9685 12.45C26.9635 12.5166 26.9635 12.5834 26.9685 12.65L27.0485 22.3399Z" fill="#4858CC"/>
<path fill-rule="evenodd" clip-rule="evenodd" d="M20.6585 21.98C20.7585 21.98 20.8085 21.88 20.7385 21.77C20.6685 21.66 20.5385 21.5599 20.4185 21.6199C20.2985 21.6799 20.3385 21.76 20.3585 21.79C20.3785 21.82 20.4785 22.04 20.6585 21.98ZM21.3185 21.3899C21.2275 21.3107 21.1267 21.2435 21.0185 21.1899C21.0185 21.1899 20.9285 21.2601 20.8885 21.3101C20.9704 21.3951 21.0571 21.4752 21.1484 21.55C21.1484 21.55 21.2385 21.4599 21.3185 21.3899Z" fill="#FF9037"/>
<path fill-rule="evenodd" clip-rule="evenodd" d="M28.0785 32.88C28.0784 32.8104 28.0924 32.7415 28.1199 32.6776C28.1474 32.6137 28.1877 32.5562 28.2383 32.5084C28.2888 32.4607 28.3487 32.4238 28.414 32.4C28.4794 32.3763 28.549 32.3659 28.6184 32.37C28.7557 32.3774 28.8851 32.436 28.9814 32.5341C29.0776 32.6322 29.1337 32.7627 29.1385 32.9C29.1285 33.0398 29.0664 33.1707 28.9646 33.267C28.8628 33.3633 28.7285 33.4179 28.5884 33.4201C28.4496 33.4148 28.3184 33.3553 28.223 33.2543C28.1276 33.1533 28.0758 33.0189 28.0785 32.88Z" fill="#4858CC"/>
<path fill-rule="evenodd" clip-rule="evenodd" d="M19.5885 22.7202C19.5885 22.8202 19.5885 22.8801 19.5085 22.9301H19.4285C19.3664 22.8576 19.3097 22.7808 19.2585 22.7002C19.2585 22.7002 19.3085 22.6001 19.3185 22.6101C19.4016 22.6312 19.4821 22.6615 19.5585 22.7002C19.5585 22.7002 19.5785 22.7102 19.5885 22.7202Z" fill="#4858CC"/>
<path fill-rule="evenodd" clip-rule="evenodd" d="M21.3185 21.3899C21.2385 21.4699 21.1585 21.56 21.1485 21.55C21.0572 21.4752 20.9704 21.3951 20.8885 21.3101C20.8885 21.3101 20.9986 21.1699 21.0186 21.1899C21.1267 21.2435 21.2275 21.3107 21.3185 21.3899Z" fill="#4858CC"/>
<path fill-rule="evenodd" clip-rule="evenodd" d="M20.4185 21.6196C20.5385 21.5596 20.6385 21.6198 20.7385 21.7698C20.8385 21.9198 20.7384 21.9398 20.6584 21.9798C20.7684 21.7998 20.6585 21.6196 20.4185 21.6096V21.6196Z" fill="#4858CC"/>
<path fill-rule="evenodd" clip-rule="evenodd" d="M20.6586 21.9802C20.4786 22.0402 20.4286 21.8903 20.3586 21.7903C20.2886 21.6903 20.3586 21.6801 20.4186 21.6201C20.4186 21.7801 20.4186 21.8902 20.6586 21.9902V21.9802Z" fill="#4858CC"/>
<path fill-rule="evenodd" clip-rule="evenodd" d="M20.6584 21.9902C20.4384 21.8902 20.3684 21.7801 20.4184 21.6201C20.6584 21.6301 20.7384 21.8102 20.6584 21.9902Z" fill="#4858CC"/>
<path d="M3.02832 31.51C2.92212 31.5241 2.81452 31.5241 2.70831 31.51L2.31836 31.3398L2.39832 30.9099C2.42941 30.767 2.51161 30.6405 2.62946 30.554C2.7473 30.4674 2.8927 30.4268 3.03833 30.4399H3.18835C4.63835 30.3699 13.9983 29.5299 19.8483 21.9299C23.8483 16.7899 24.2384 12.4799 24.3884 7.38989C24.3884 6.59989 24.3884 5.89989 24.3884 5.38989H21.8083L24.9083 0L27.5684 4.19995C27.6466 4.32328 27.6726 4.47271 27.6407 4.61523C27.6089 4.75776 27.5216 4.88172 27.3983 4.95996C27.275 5.0382 27.1257 5.06435 26.9832 5.03247C26.8406 5.00059 26.7166 4.91336 26.6384 4.79004L24.9583 2.12988L23.7183 4.29004H25.4583V4.82007C25.4583 4.82007 25.4583 5.97988 25.4583 7.37988C25.3083 12.4899 24.8484 17.16 20.6984 22.55C14.6984 30.39 4.97837 31.55 3.01837 31.49L3.02832 31.51Z" fill="#4858CC"/>
</svg>
