<svg width="157" height="240" viewBox="0 0 157 240" fill="none" xmlns="http://www.w3.org/2000/svg">
<g clip-path="url(#clip0)">
<path fill-rule="evenodd" clip-rule="evenodd" d="M19.0844 160.638C16.6097 160.638 14.1216 160.476 11.6335 160.638C10.06 160.638 9.80445 160.248 10.1138 158.755C12.306 147.996 14.4041 137.236 16.5559 126.477C18.6405 116.054 20.7252 105.631 22.8905 95.2212C23.0449 94.6532 23.0319 94.0527 22.8529 93.4919C22.6739 92.9312 22.3367 92.4341 21.8818 92.0606C17.847 88.0259 13.8123 83.8835 9.69685 79.8488C8.4329 78.6723 7.57967 77.1214 7.26256 75.424C5.81005 67.8522 4.2634 60.2803 2.68985 52.7219C2.35362 50.57 3.28161 49.6824 5.37968 49.9513C5.83072 49.9721 6.28258 49.9359 6.72459 49.8438C7.08856 49.9313 7.42466 50.109 7.70198 50.3605C7.97929 50.612 8.18893 50.9291 8.31159 51.2828C10.0331 55.3982 11.8891 59.4599 13.6912 63.535C14.1076 64.2891 14.4499 65.0819 14.7134 65.902C15.3724 68.6994 17.2553 70.0578 19.8644 70.9589C23.4957 72.1962 27.0732 73.6487 30.6237 75.1819C31.8341 75.7199 32.7352 76.1234 33.6229 74.8592C38.6581 75.1349 43.7046 75.1349 48.7397 74.8592L49.5601 74.6709C49.7888 74.6709 51.174 74.6709 51.3892 74.6709H51.6985C51.9137 74.6709 52.102 74.6709 52.3306 74.6709C53.0247 74.6916 53.7181 74.61 54.3884 74.4288C54.8331 74.246 55.2569 74.0161 55.6526 73.7429C56.6948 73.2075 57.7787 72.7577 58.8938 72.398C59.9563 71.9676 61.0322 71.5103 62.0678 70.9724C63.0887 70.4456 64.0379 69.7902 64.8921 69.0222C65.793 68.1948 66.5358 67.2105 67.0844 66.1172C67.1651 65.9827 68.9941 63.0239 69.0614 62.876C70.0892 60.2154 71.3399 57.6465 72.8002 55.1965C73.6341 53.623 73.7551 51.5383 75.9877 51.0273C77.3326 51.7535 79.74 50.18 80.0224 53.0446C77.6419 60.5224 75.3152 68.3767 73.123 76.2041C72.6989 77.7864 71.7915 79.1969 70.5273 80.2388C66.4926 83.7625 62.4579 87.3669 58.2886 90.8771C57.8318 91.1782 57.4918 91.6267 57.3254 92.1479C57.159 92.6691 57.1762 93.2316 57.3741 93.7418C63.48 114.023 65.0804 135.138 68.8865 155.85C69.2766 158.015 69.1286 159.427 66.3043 159.32C63.2245 159.212 60.1311 159.495 57.0513 159.616C45.216 159.333 33.4077 160.113 21.5725 160.275C20.7349 160.331 19.9031 160.453 19.0844 160.638Z" fill="#9933CC"/>
<path fill-rule="evenodd" clip-rule="evenodd" d="M53.0434 215.616L53.2317 215.536C53.7966 215.32 54.3211 215.051 54.859 214.823L56.0695 214.298C56.372 214.18 56.682 214.081 56.9975 214.002C57.0959 214.01 57.1948 214.01 57.2933 214.002C57.4492 213.943 57.6019 213.876 57.7506 213.801L59.6738 213.021L60.7363 212.617C62.2695 212.012 63.8296 211.447 65.3763 210.896L70.0431 209.241L70.5945 209.04C77.8167 206.471 85.0255 203.862 92.288 201.414C101.692 198.259 111.299 195.743 121.042 193.882C126.234 192.901 131.479 192.336 136.764 191.852C141.697 191.594 146.642 192.006 151.464 193.076C154.652 193.64 156.844 196.371 156.118 198.899C155.487 200.59 154.391 202.067 152.957 203.162C146.121 209.097 138.472 214.024 130.241 217.795C125.817 219.826 121.58 222.301 117.048 224.035C111.507 226.147 106.114 228.649 100.384 230.357C95.1527 231.917 89.9344 233.571 84.6086 234.795C77.0971 236.412 69.5057 237.633 61.866 238.453C53.7202 239.479 45.5182 239.996 37.3079 240C33.5521 239.927 29.8166 239.43 26.172 238.52C25.385 238.353 24.6338 238.048 23.9529 237.619C23.4391 237.288 23.0252 236.823 22.7559 236.274C22.5402 235.765 22.4749 235.205 22.5676 234.66C22.6492 234.07 22.8604 233.505 23.1863 233.006C23.6867 232.323 24.3232 231.75 25.0557 231.325L25.3516 231.137C25.9299 230.733 26.5217 230.37 27.1 229.967C27.6859 229.562 28.3019 229.202 28.9425 228.891C29.7341 228.502 30.494 228.053 31.2154 227.546C33.0311 226.201 34.9005 224.977 36.7565 223.699L38.1014 222.865C38.5587 222.57 38.9756 222.193 39.4463 221.884L40.0515 221.494C40.2068 221.376 40.3857 221.293 40.576 221.251C41.0393 221.153 41.4903 221.004 41.921 220.808C42.2062 220.699 42.4847 220.573 42.7548 220.431C43.2255 220.189 43.7097 219.974 44.1804 219.745C45.3505 219.194 46.5206 218.656 47.6906 218.091C48.8607 217.526 49.8291 217.015 50.9184 216.531C51.5774 216.248 52.3037 215.912 53.0434 215.616Z" fill="#9BA9B4"/>
<path fill-rule="evenodd" clip-rule="evenodd" d="M34.013 228.516C34.1384 229.096 34.2104 229.685 34.2282 230.278C34.2313 230.575 34.1705 230.869 34.0498 231.141C33.9291 231.412 33.7515 231.655 33.5288 231.851C33.0254 232.229 32.4735 232.536 31.888 232.766C31.229 233.089 30.5431 233.438 29.911 233.748C29.5318 233.919 29.1408 234.063 28.7409 234.178C28.1098 234.401 27.4465 234.519 26.7774 234.528C26.5188 234.526 26.2611 234.558 26.0108 234.622C25.6406 234.676 25.2646 234.676 24.8945 234.622H24.4641C24.2686 234.577 24.079 234.509 23.8993 234.42C23.5854 234.32 23.3089 234.128 23.1058 233.869C22.9444 233.627 23.1058 233.237 23.173 232.995C23.2695 232.811 23.3868 232.64 23.5227 232.484C23.6511 232.322 23.7904 232.169 23.9396 232.026C24.2576 231.731 24.5945 231.457 24.9483 231.206C25.6394 230.668 26.1965 229.978 26.5756 229.189C26.9035 228.475 27.1081 227.711 27.1808 226.929C27.2346 226.113 27.2076 225.293 27.1001 224.481C27.006 223.634 26.8715 222.787 26.737 221.939C26.7306 221.836 26.7306 221.733 26.737 221.63C24.6793 208.181 22.6216 194.651 20.806 181.121C20.0393 175.432 19.8645 169.663 19.461 163.92C19.6738 163.148 19.5973 162.326 19.2458 161.607C19.2458 161.27 19.2458 160.921 19.2458 160.584C20.0635 160.386 20.8954 160.251 21.7339 160.181C33.5692 160.02 45.3775 159.24 57.2128 159.522C56.6076 177.625 54.9399 195.646 53.0435 213.641C53.0435 214.072 53.0435 214.502 53.0435 214.986C52.4652 220.231 51.9004 225.49 51.2952 230.749C51.0934 232.511 52.8418 232.82 53.5143 233.923C53.6353 234.124 53.8236 234.245 53.9446 234.434C54.3888 235.167 54.7885 235.926 55.1416 236.707C55.424 237.298 56.1369 238.576 55.3165 239.033C54.894 239.219 54.4309 239.293 53.9715 239.249C53.5143 239.249 53.0436 239.249 52.6266 239.249C51.8575 239.133 51.1306 238.823 50.5151 238.347L49.5333 237.729L48.6726 237.191C48.3942 237.053 48.1286 236.891 47.8791 236.707C47.6523 236.521 47.3983 236.371 47.1259 236.263L46.2114 235.832C45.1758 235.389 45.2834 234.582 45.2027 233.721C44.8799 230.157 44.4899 226.593 44.1268 223.029C42.3918 205.37 40.9931 187.658 37.8998 170.16C37.2274 177.719 36.7835 185.25 36.259 192.768C36.1783 193.938 36.1111 195.108 36.0169 196.265L35.7748 199.762L35.5328 203.259L35.2907 206.742C35.1965 207.912 35.1158 209.069 35.0351 210.239C34.9544 211.409 34.8738 212.565 34.7796 213.735L34.5375 217.219C34.4568 218.389 34.3627 219.559 34.282 220.716L34.0399 224.212C34.0399 224.791 33.9323 225.369 33.9054 225.961C33.9054 226.162 33.9054 226.351 33.9054 226.553C33.9054 226.754 33.9054 227.131 33.9054 227.413C33.9129 227.693 33.9399 227.971 33.9861 228.247C33.9912 228.337 34.0002 228.427 34.013 228.516Z" fill="#4858CC"/>
<path fill-rule="evenodd" clip-rule="evenodd" d="M13.6777 63.5332C11.862 59.4984 10.006 55.3965 8.298 51.281C8.17795 50.9296 7.97058 50.6143 7.69534 50.365C7.4201 50.1156 7.08602 49.9403 6.72445 49.8554C6.26718 48.3491 8.06936 47.3135 7.74658 46.0358C7.06068 43.5343 7.23552 40.3065 3.60425 39.6609C3.75219 22.0291 12.1041 8.92965 27.3285 2.68925C29.7277 1.54872 32.3182 0.864616 34.9677 0.671875H47.5964C55.2413 1.74471 62.3135 5.32575 67.7029 10.8529C75.6244 19.03 79.6054 28.8075 78.8119 40.3469C78.8119 40.8579 78.8119 41.369 78.8119 41.8801C78.287 44.9573 77.3317 47.9455 75.9741 50.7565C73.7415 51.2676 73.6205 53.3522 72.7867 54.9257C70.971 58.436 70.0968 62.0403 66.6673 66.5861C57.7236 72.571 56.419 73.0955 50.3938 74.3867L48.6858 74.7767C43.6506 75.0524 38.6041 75.0524 33.5689 74.7767C31.1346 73.1762 28.1893 73.0014 25.4995 71.7641C21.2442 69.5025 17.2753 66.7392 13.6777 63.5332ZM71.1324 24.8938C66.9363 15.2776 59.9158 8.8893 49.6138 6.32052C35.8015 2.83719 24.2083 6.81813 15.426 17.9137C6.83204 28.673 6.49581 44.664 14.2022 55.4099C16.8461 60.2668 21.0415 64.0976 26.1181 66.2903L27.194 66.7879C27.5572 67.0031 27.8934 67.272 28.27 67.4469C43.9651 74.427 63.6816 67.5276 70.8903 51.1196C73.3612 45.707 74.292 39.7178 73.5802 33.8106C73.2036 30.7711 73.1229 27.5298 71.1324 24.8938Z" fill="#4858CC"/>
<path fill-rule="evenodd" clip-rule="evenodd" d="M3.38918 39.2585C3.5493 39.1759 3.72683 39.1328 3.90698 39.1328C4.08712 39.1328 4.26466 39.1759 4.42477 39.2585C4.83349 39.4823 5.22068 39.7435 5.5814 40.0385C5.92371 40.2687 6.22016 40.5606 6.45559 40.8993C6.83503 41.5019 7.09103 42.1739 7.20874 42.8763C7.30486 43.1948 7.35469 43.5254 7.35668 43.8581C7.3067 44.2116 7.36287 44.5721 7.51807 44.8937C7.75124 45.1979 7.94972 45.5272 8.10983 45.8754C8.13557 45.9996 8.13557 46.1278 8.10983 46.252C8.09822 46.3728 8.09822 46.4944 8.10983 46.6151C8.12965 46.7354 8.12965 46.858 8.10983 46.9783C8.10983 47.1666 8.10983 47.3548 8.01569 47.5431C7.94828 47.7616 7.90763 47.9874 7.89465 48.2156C7.83757 48.4323 7.75162 48.6404 7.63911 48.8343C7.57128 49.0195 7.48094 49.1956 7.37013 49.3588C7.24565 49.5917 7.04681 49.7764 6.80527 49.8833C6.58356 49.9301 6.35452 49.9301 6.13281 49.8833H5.12412C4.20958 49.8833 3.13365 49.8833 2.74363 50.9054C2.54357 51.4915 2.52482 52.1242 2.68983 52.7211C2.16915 50.2228 1.44496 47.7714 0.524517 45.3913C0.203388 44.7608 0.0243489 44.0676 0 43.3605C0.0109124 42.8584 0.0694546 42.3586 0.174839 41.8676C0.234606 41.36 0.461748 40.8868 0.820398 40.5227C1.22387 40.1865 1.66769 40.2806 2.16531 40.2537C2.66293 40.2268 2.81087 39.8099 3.0933 39.5274C3.1802 39.4257 3.27961 39.3353 3.38918 39.2585Z" fill="#F1AC88"/>
<path fill-rule="evenodd" clip-rule="evenodd" d="M75.8935 50.8914L75.6783 50.7973C75.4712 50.689 75.2918 50.5343 75.1542 50.3454C75.0166 50.1564 74.9244 49.9383 74.8848 49.7079C74.6922 49.0305 74.6463 48.3198 74.7503 47.6233C74.7503 47.2736 74.8848 46.9374 74.9251 46.5877C75.0004 46.0645 75.2633 45.5865 75.6648 45.2428C75.9361 45.0386 76.256 44.9088 76.5928 44.8662C76.7542 44.8662 76.8484 44.8662 76.8618 44.6241C76.8753 44.382 76.8618 44.1938 76.8618 43.992C76.8709 43.7609 76.9209 43.5332 77.0098 43.3196C77.1656 42.9436 77.4047 42.6079 77.7091 42.3378C77.8474 42.2013 77.9958 42.0754 78.1529 41.9612C78.3578 41.8789 78.578 41.8422 78.7985 41.8536C82.2549 42.2033 83.7478 44.5434 82.0801 47.4484C81.8918 47.7981 81.7035 48.1478 81.5421 48.5109C81.2462 49.143 80.9907 49.7752 80.7486 50.4342C80.6276 50.7569 80.52 51.0932 80.3989 51.4025C80.2779 51.7118 80.2779 51.9001 80.0627 51.9808C80.0236 52.0008 79.9801 52.0108 79.9362 52.0101C79.8922 52.0094 79.8491 51.9979 79.8106 51.9767C79.7721 51.9555 79.7394 51.9251 79.7154 51.8883C79.6913 51.8515 79.6767 51.8094 79.6727 51.7656C79.4441 51.0528 78.664 50.9183 77.9915 50.9183H76.9156C76.732 50.9309 76.5478 50.9309 76.3642 50.9183C76.2069 50.9372 76.0476 50.928 75.8935 50.8914Z" fill="#F1AC88"/>
<path fill-rule="evenodd" clip-rule="evenodd" d="M47.6369 0.686038H34.9678C39.1413 -0.228679 43.4634 -0.228679 47.6369 0.686038Z" fill="#323886"/>
<path fill-rule="evenodd" clip-rule="evenodd" d="M19.1382 161.66C19.4896 162.379 19.5661 163.202 19.3534 163.973C19.0273 163.247 18.9516 162.434 19.1382 161.66Z" fill="#D77087"/>
<path fill-rule="evenodd" clip-rule="evenodd" d="M48.6995 74.765L50.4075 74.375L48.6995 74.765Z" fill="#EAEAEA"/>
<path fill-rule="evenodd" clip-rule="evenodd" d="M69.2631 40.2271H68.2409L42.4993 39.0033C42.6069 37.8466 42.7683 36.7169 44.2208 36.4883L66.4522 37.2952C67.2029 37.4334 67.9624 37.5188 68.7251 37.5508C70.5945 37.5508 71.0249 38.3577 70.2449 39.9851L69.2631 40.2271Z" fill="#76777A"/>
<path fill-rule="evenodd" clip-rule="evenodd" d="M43.9651 37.3366C43.9922 37.5959 43.9922 37.8574 43.9651 38.1167C43.9445 38.3661 43.904 38.6134 43.8441 38.8564C43.8139 39.0014 43.7544 39.1386 43.6693 39.2599C43.6693 39.3406 43.5348 39.3674 43.4675 39.4347C43.4003 39.5019 43.1313 39.8785 42.8758 40.0265C42.664 40.1582 42.4385 40.2664 42.2033 40.3492C41.9394 40.4233 41.6602 40.4233 41.3964 40.3492C41.1709 40.3348 40.9464 40.3079 40.7239 40.2685C40.5625 40.2685 40.4146 40.0937 40.2532 40.0265C39.861 39.8482 39.5191 39.5756 39.2579 39.233C38.2358 37.888 38.8276 36.6642 39.648 35.4672C40.0617 34.6112 40.2026 33.6488 40.0514 32.7101C40.0514 28.5947 40.0514 24.4792 40.0514 20.3638C40.0514 19.4358 39.8901 18.2523 41.2888 18.2657C42.6875 18.2792 42.6337 19.3686 42.6337 20.3369C42.6337 24.7213 42.6337 29.0923 42.6337 33.4633C42.6177 33.9512 42.6629 34.4391 42.7682 34.9158C42.7682 35.0772 42.7682 35.252 42.8489 35.4134C42.8971 35.5566 42.9858 35.6828 43.1044 35.7765C43.3019 35.9759 43.4819 36.1919 43.6424 36.4221C43.7989 36.6848 43.9125 36.9708 43.9786 37.2694C43.9786 37.2694 43.9651 37.3097 43.9651 37.3366Z" fill="#FF6B00"/>
</g>
<defs>
<clipPath id="clip0">
<rect width="156.225" height="240" fill="white"/>
</clipPath>
</defs>
</svg>
