<svg width="195" height="154" viewBox="0 0 195 154" fill="none" xmlns="http://www.w3.org/2000/svg">
<g clip-path="url(#clip0)">
<path fill-rule="evenodd" clip-rule="evenodd" d="M73.0151 61.8399C72.4689 61.7861 71.7615 62.1354 71.5466 61.2489L68.9498 61.0071C68.8513 60.828 68.7259 60.8549 68.5826 60.9534C68.0023 60.942 67.4265 60.8485 66.8723 60.6758C66.7738 60.6758 66.7469 60.6758 66.7738 60.7743C66.7681 60.8247 66.7461 60.8718 66.7111 60.9086C66.3815 60.7881 66.0199 60.7881 65.6903 60.9086H64.6158C64.1591 60.828 64.1859 61.2489 64.0248 61.4817C63.2392 62.6988 62.5477 63.974 61.9563 65.2963C61.8578 65.4844 61.4279 65.941 61.5085 66.1918C61.5891 66.4425 62.1801 65.9769 62.3324 65.762C62.4846 65.547 62.6905 65.0814 62.8875 64.759C63.3263 64.0337 63.7114 63.2815 64.1322 62.5473C64.2823 62.2427 64.4997 61.9763 64.768 61.7682C64.8934 61.6966 65.7978 61.3653 65.8694 61.5802C65.941 61.7951 66.0664 62.216 66.5499 62.2607C67.6513 62.3503 68.7438 62.5204 69.8363 62.6906C70.3377 62.7711 70.7854 62.9144 71.2511 62.4667C71.4347 62.3465 71.6494 62.2825 71.8689 62.2825C72.0884 62.2825 72.3031 62.3465 72.4868 62.4667C72.8718 62.8696 72.2719 63.5144 72.048 63.8188C71.6361 64.383 71.4302 65.0725 71.0809 65.6635C70.5493 66.3272 70.1317 67.0746 69.8452 67.8752C69.2327 68.8391 68.6766 69.8378 68.1797 70.866C68.1797 70.866 68.1797 70.9287 68.2334 70.9466C68.26 70.9519 68.2874 70.9519 68.314 70.9466L69.7646 68.699C69.9437 68.3767 70.1765 68.0722 70.3108 67.8036L70.4183 67.723C70.603 67.4997 70.7622 67.2564 70.8929 66.9977C71.1973 66.4694 71.4481 65.9231 71.7883 65.4127C72.2361 64.7053 72.6838 63.9531 73.0688 63.2278C73.2658 62.8249 73.9374 61.9384 73.0151 61.8399Z" fill="#472461"/>
<path fill-rule="evenodd" clip-rule="evenodd" d="M65.556 72.4421C65.1338 72.7033 64.6275 72.7931 64.1412 72.6928C64.0785 72.5495 63.8816 72.5137 63.7293 72.6928C62.3593 72.4062 60.9892 72.066 59.6102 71.8958H59.3953C59.3794 71.8622 59.354 71.8341 59.3221 71.815C59.2902 71.7958 59.2534 71.7866 59.2162 71.7884H58.9655L58.7864 71.7347C58.9207 71.475 58.6073 71.269 58.3477 71.5377C58.2965 71.5776 58.2541 71.6276 58.223 71.6845C58.1919 71.7415 58.1729 71.8042 58.167 71.8688C58.1611 71.9334 58.1686 71.9986 58.1888 72.0602C58.2091 72.1218 58.2418 72.1787 58.285 72.2272C58.5129 72.3683 58.7783 72.437 59.0461 72.4241H59.3416C60.6579 72.5674 61.8578 73.1853 63.1921 73.1942C63.3412 73.2031 63.4907 73.2031 63.6398 73.1942C63.6477 73.229 63.6669 73.2602 63.6945 73.2829C63.722 73.3056 63.7563 73.3185 63.792 73.3196C64.4945 73.4496 65.22 73.3019 65.8157 72.9077C66.0933 72.6391 65.9142 72.1645 65.556 72.4421Z" fill="#472461"/>
<path fill-rule="evenodd" clip-rule="evenodd" d="M159.283 26.7203C157.308 26.8409 155.328 26.8259 153.355 26.6755C149.326 26.6755 145.296 26.8188 141.257 26.8367C133.736 26.8814 126.223 26.8367 118.701 26.8367C118.423 26.8871 118.138 26.8712 117.867 26.7902C117.597 26.7093 117.35 26.5657 117.146 26.371C116.941 26.1764 116.786 25.9362 116.692 25.6701C116.598 25.404 116.569 25.1195 116.606 24.8398C116.458 23.4199 116.458 21.9884 116.606 20.5685C117.206 17.1747 120.931 14.3809 124.36 16.0912C125.649 16.6699 126.821 17.4803 127.817 18.4821C127.951 18.6254 128.023 18.885 128.273 18.7865C128.524 18.688 128.408 18.4284 128.452 18.2403C129.079 15.3211 129.079 12.2766 130.172 9.44696C131.533 5.93679 133.44 2.84747 136.95 1.11029C138.058 0.514224 139.276 0.150407 140.529 0.0410917C141.783 -0.0682241 143.045 0.0792589 144.239 0.474521C146.85 1.19688 149.103 2.85425 150.57 5.13088C152.612 8.50674 153.552 12.1423 152.298 16.0912C152.08 16.534 152.041 17.0444 152.191 17.515C154.877 15.4823 157.761 14.2645 160.626 16.7897C162.775 18.6791 164.933 23.3175 162.157 25.592C161.32 26.224 160.326 26.6142 159.283 26.7203Z" fill="#92C0E9"/>
<path d="M174.354 11.82V11.7305C174.352 11.7603 174.352 11.7902 174.354 11.82L174.3 11.9096L174.354 11.82Z" fill="#FEFEFE"/>
<path fill-rule="evenodd" clip-rule="evenodd" d="M165.48 18.9746C168.13 18.0039 170.692 16.8055 173.136 15.3928C175.074 14.6904 176.959 13.8495 178.777 12.8765C183.595 10.6648 188.385 8.39927 193.176 6.14273C193.453 6.00841 193.713 5.84723 194.071 5.63232C194.029 6.83674 193.883 8.0352 193.633 9.21414C193.185 12.9571 192.737 16.6822 192.218 20.4163C191.922 22.7086 191.457 24.9831 191.367 27.2933C190.848 29.5141 190.722 31.7706 190.382 34.0361C189.97 36.7225 189.657 39.5073 189.29 42.2474C189.209 42.8115 189.003 43.0444 188.394 42.5877C187.4 41.7907 186.344 41.0833 185.332 40.3043C185.128 40.1204 184.871 40.0073 184.597 39.9819C183.485 38.9447 182.287 38.0041 181.016 37.1702C180.613 36.8657 180.523 36.9553 180.237 37.3134C179.099 38.7283 177.837 39.9998 176.735 41.4773C175.374 43.2682 173.754 44.7905 172.563 46.6888C170.709 48.6351 168.969 50.6861 167.351 52.8317C162.748 58.276 158.262 63.8278 153.704 69.3169C149.469 74.4389 145.198 79.543 140.944 84.6561C140.774 84.8955 140.546 85.0878 140.281 85.2147C140.017 85.3416 139.724 85.399 139.431 85.3814C138.285 85.3814 137.138 85.3814 135.992 85.3814C134.658 85.068 133.306 85.3814 131.972 85.2291C132.213 82.0055 132.966 78.8356 132.867 75.5851C133.001 75.5851 133.145 75.4508 133.261 75.4777C135.428 75.9343 136.27 74.3763 137.246 72.9435C140.076 68.7886 142.95 64.6606 145.797 60.5146C148.645 56.3687 151.43 52.2586 154.251 48.1305C156.391 45.0054 158.54 41.8624 160.689 38.782C163.08 35.3166 165.48 31.8691 167.852 28.4037C168.067 28.0813 168.327 27.7411 167.781 27.356C165.856 25.977 163.957 24.5532 162.041 23.1563C161.885 23.0853 161.719 23.0399 161.548 23.022C161.249 22.6825 160.887 22.403 160.483 22.1982C160.483 22.0102 160.483 21.8221 160.42 21.6251C160.485 21.6422 160.553 21.6422 160.617 21.6251C160.895 21.6699 161.029 21.5177 161.092 21.2669C161.191 21.2903 161.294 21.2929 161.394 21.2744C161.494 21.2559 161.589 21.2168 161.674 21.1595C161.758 21.1023 161.829 21.0281 161.883 20.9418C161.937 20.8554 161.973 20.7588 161.987 20.658C162.029 20.6667 162.071 20.6667 162.113 20.658L162.533 20.6043C163.586 20.1993 164.577 19.6509 165.48 18.9746Z" fill="#7C3AA6"/>
<path fill-rule="evenodd" clip-rule="evenodd" d="M39.2388 111.493C39.3552 113.812 39.4626 116.131 39.579 118.45C35.5137 118.45 31.4573 118.45 27.3919 118.343C26.9977 118.324 26.6044 118.395 26.2416 118.55C25.8787 118.705 25.5556 118.941 25.2965 119.238C23.443 121.146 21.5446 123.008 19.6552 124.88L0.895453 143.416C0.680544 143.63 0.528317 143.935 0 143.738C0.94918 142.413 1.8715 141.114 2.81172 139.825L13.4318 125.363C16.5957 121.065 19.7477 116.77 22.8878 112.478C23.0101 112.293 23.1784 112.142 23.3762 112.042C23.574 111.942 23.7945 111.894 24.016 111.905L39.2388 111.493Z" fill="#7C3AA6"/>
<path fill-rule="evenodd" clip-rule="evenodd" d="M42.3102 56.4673C41.7639 53.3959 42.1937 50.611 44.6652 48.4082C45.7827 47.423 47.2069 46.8552 48.6957 46.8013C50.1845 46.7475 51.646 47.2108 52.8317 48.1127C53.4464 48.5722 53.883 49.2303 54.0675 49.9752C54.0675 50.602 54.0675 51.2289 54.0675 51.8646C53.9331 52.1243 53.8078 52.384 53.6735 52.6347C53.0729 53.2953 52.3409 53.8229 51.5244 54.1839C51.1035 54.3719 50.6289 54.8823 50.0648 54.4794C49.5006 54.0764 49.0708 54.0495 48.6679 54.6316C48.5649 54.7475 48.4885 54.8845 48.4439 55.0331C48.3993 55.1816 48.3877 55.3381 48.4099 55.4916C48.4321 55.645 48.4875 55.7918 48.5723 55.9217C48.657 56.0515 48.7691 56.1613 48.9007 56.2434C48.7485 56.5747 48.444 56.8971 48.9007 57.2463C48.6562 58.1357 48.1967 58.9512 47.5627 59.6211C46.9287 60.291 46.1397 60.7947 45.2651 61.0878C43.9099 59.8185 42.894 58.23 42.3102 56.4673Z" fill="black"/>
<path fill-rule="evenodd" clip-rule="evenodd" d="M45.2294 61.0878C46.1039 60.7948 46.893 60.2911 47.527 59.6212C48.161 58.9513 48.6204 58.1357 48.8649 57.2464C49.2141 57.2464 49.5992 57.3807 49.644 56.8703C49.6887 56.3599 49.3306 56.2434 48.9007 56.2434C48.7692 56.1614 48.6571 56.0516 48.5723 55.9217C48.4875 55.7919 48.4321 55.6451 48.41 55.4916C48.3878 55.3381 48.3994 55.1817 48.444 55.0331C48.4885 54.8846 48.5649 54.7476 48.6679 54.6316C49.0709 54.0496 49.5634 54.0944 50.0648 54.4794C50.5663 54.8644 51.1036 54.3719 51.5244 54.1839C52.3409 53.823 53.073 53.2953 53.6735 52.6348C53.8437 54.272 53.8437 55.9225 53.6735 57.5598C53.5941 58.8147 53.1899 60.0274 52.5005 61.0789C52.2897 61.4231 51.9575 61.6756 51.5696 61.7867C51.1816 61.8978 50.7661 61.8593 50.4051 61.6788C49.044 61.1416 49.044 61.1326 48.9903 62.5743C48.9903 62.7444 48.9903 62.9235 48.9903 63.0937C48.4806 62.5841 47.8591 62.2006 47.175 61.9736C46.491 61.7466 45.7635 61.6825 45.0503 61.7863C45.113 61.5803 45.1757 61.3386 45.2294 61.0878Z" fill="#F1AC88"/>
<path fill-rule="evenodd" clip-rule="evenodd" d="M53.727 153.167C52.0111 153.853 50.1082 153.91 48.3543 153.328C48.1125 153.266 47.9155 153.015 47.6111 153.266C46.4917 154.161 45.1665 154.027 43.877 153.928C43.0442 153.857 42.0861 154 41.4951 153.194V151.922C42.3906 152.066 42.9278 152.818 43.7696 153.024C44.6113 153.23 45.453 153.212 45.856 152.191C46.5902 152.191 47.6469 152.943 47.7454 151.376C48.2279 151.727 48.7302 152.05 49.2497 152.343C50.5034 153.033 51.4257 152.863 51.9361 151.887C53.5837 151.967 53.727 152.057 53.727 153.167Z" fill="#7C3AA6"/>
<path fill-rule="evenodd" clip-rule="evenodd" d="M45.919 152.227C45.516 153.248 44.7817 153.328 43.8326 153.06C42.8834 152.791 42.4177 152.102 41.5581 151.958C42.0148 150.087 41.5581 148.215 41.5581 146.344C42.0058 146.603 42.6327 146.344 43.0177 146.827C43.1784 147.495 43.3039 148.17 43.3938 148.851C43.4037 149.608 43.6534 150.343 44.1071 150.95C44.5608 151.556 45.1952 152.003 45.919 152.227Z" fill="#F1AC88"/>
<path fill-rule="evenodd" clip-rule="evenodd" d="M123.438 106.299L125.677 105.672L125.784 107.526C125.462 108.421 125.65 109.46 125.399 110.436C125.092 111.703 124.321 112.808 123.238 113.534C122.156 114.26 120.841 114.554 119.552 114.358C117.421 113.973 116.561 112.173 117.43 109.881C117.976 108.466 118.54 107.069 119.095 105.663C119.545 105.682 119.981 105.821 120.358 106.066C120.224 106.353 119.624 106.066 119.695 106.568C119.771 106.883 119.767 107.212 119.682 107.525C119.598 107.838 119.436 108.125 119.212 108.359C119.184 108.38 119.162 108.408 119.15 108.441C119.137 108.474 119.134 108.509 119.14 108.544C119.147 108.578 119.163 108.61 119.186 108.636C119.21 108.662 119.241 108.681 119.274 108.69C119.462 108.762 119.722 108.762 119.382 109.039C118.549 109.72 119.382 109.791 119.758 109.863C120.707 110.024 121.683 110.096 122.641 110.212C123.08 110.212 123.537 110.508 123.922 110.141C123.59 109.675 123.582 109.666 123.922 109.317C124.146 109.12 124.056 108.941 123.922 108.797C123.787 108.654 123.34 108.556 123.922 108.439C124.325 108.35 124.352 108.171 124.137 107.866C124.038 107.732 123.922 107.544 124.199 107.472C124.898 107.284 124.522 107.051 124.199 106.827C123.877 106.604 123.716 106.496 123.438 106.299Z" fill="#76777A"/>
<path fill-rule="evenodd" clip-rule="evenodd" d="M97.6044 52.6616C98.5 53.3405 99.5014 53.8669 100.568 54.2197C101.043 54.4346 101.195 54.6406 101.195 55.1152C101.195 59.0999 101.195 63.0847 101.285 67.0605C101.285 67.5351 101.052 67.4814 100.783 67.4814C100.192 67.4814 99.6013 67.4814 98.9924 67.4814C98.3746 67.4215 97.7556 67.5834 97.2462 67.9381C97.0671 67.6246 96.709 67.6336 96.4403 67.5441C94.9718 67.0516 94.6494 65.9501 94.6494 64.5801C94.6494 64.1592 94.6494 63.7384 94.6494 63.3265C95.1333 60.2294 95.913 57.1859 96.9776 54.2376C97.1746 53.7272 97.0403 53.0377 97.6044 52.6616Z" fill="#F1AC88"/>
<path fill-rule="evenodd" clip-rule="evenodd" d="M110.141 35.3346C109.876 35.1811 109.622 35.0106 109.38 34.8242C109.164 34.6917 109.009 34.4792 108.95 34.2332C108.841 33.6215 108.79 33.0008 108.798 32.3796C108.681 31.1501 108.901 29.912 109.433 28.7978C109.774 28.1782 110.275 27.6616 110.884 27.3024C111.43 26.9854 112.039 26.7942 112.669 26.7427C113.298 26.6912 113.93 26.7806 114.521 27.0045C115.111 27.2284 115.644 27.5811 116.08 28.0369C116.517 28.4927 116.846 29.0402 117.045 29.6395C117.297 30.4805 117.385 31.362 117.304 32.2363C117.304 32.6482 117.188 33.0601 117.197 33.472C117.197 33.7317 117.358 34.0899 117.251 34.3675C117.143 34.6451 117.098 34.7346 117.027 34.9227C117.027 34.8331 116.615 35.1197 116.606 35.1286C116.418 35.2808 116.319 35.4868 116.104 35.6122C115.558 35.9166 115.307 35.5584 115.325 35.0301C115.325 34.1347 115.469 33.1944 114.609 32.6572C114.277 32.4628 113.909 32.338 113.527 32.2903C113.145 32.2426 112.758 32.2729 112.388 32.3796C111.916 32.5848 111.535 32.9537 111.314 33.4183C111.135 33.7048 110.991 34.0093 110.803 34.3137C110.741 34.4122 110.374 35.2987 110.463 35.2629L110.141 35.3346Z" fill="black"/>
<path fill-rule="evenodd" clip-rule="evenodd" d="M67.9736 73.078C67.8572 72.4512 67.1677 72.1109 67.1498 71.4393C67.0771 71.0755 67.0263 70.7077 66.9976 70.3379C66.9976 70.0872 67.0423 69.7469 67.3557 69.6932C67.6691 69.6394 67.7497 69.926 67.7945 70.1678C67.8409 70.4332 67.9693 70.6775 68.1616 70.8662C68.1616 70.8662 68.1616 70.9289 68.2154 70.9468C68.242 70.9521 68.2694 70.9521 68.296 70.9468L69.7466 68.6992C70.9286 70.32 70.7853 71.1169 69.1198 72.2184C68.7258 72.5318 68.3586 72.8004 67.9736 73.078Z" fill="#F28795"/>
<path fill-rule="evenodd" clip-rule="evenodd" d="M60.5773 68.5469L59.9326 68.3051C60.1923 67.4097 60.4609 66.5142 61.5534 66.2456H62.0548C62.2966 66.3172 62.6727 66.1471 62.7443 66.5232C62.816 66.8993 62.422 66.8903 62.1892 66.9709C61.7056 67.1321 61.2937 67.2933 61.2937 67.9201C61.2668 68.2335 60.8908 68.4395 60.5773 68.5469Z" fill="#F28795"/>
<path fill-rule="evenodd" clip-rule="evenodd" d="M67.159 71.4393C66.1114 71.7795 65.4935 72.7735 64.4727 73.2302C62.6818 74.833 60.6491 76.1135 58.7328 77.5463C58.1597 77.9761 57.5508 78.3701 56.9419 78.8178C56.333 79.2655 56.1987 79.1491 56.0465 78.5134C55.554 76.5702 54.8376 74.6987 54.1571 72.8183C53.1741 70.3732 52.0622 67.982 50.826 65.6547C50.5484 65.6547 50.6021 65.3233 50.4409 65.2069C50.0201 64.4547 49.25 63.9533 48.9366 63.1295C48.4361 62.6213 47.8249 62.2357 47.1508 62.0027C46.4766 61.7698 45.7578 61.6957 45.0503 61.7863C43.7698 62.0728 43.2594 63.0847 42.7938 64.1503C41.47 67.5336 40.5853 71.0726 40.1611 74.6808C39.2657 80.8057 39.0239 86.9664 38.7016 93.1361C38.7016 93.4764 38.6299 93.8346 39.015 94.0316C42.4365 94.5581 45.9092 94.6693 49.3574 94.3629C50.5354 94.3275 51.6998 94.1007 52.8049 93.6913C52.8175 93.7046 52.8246 93.7222 52.8246 93.7405C52.8246 93.7589 52.8175 93.7765 52.8049 93.7898H53.2079L53.7183 93.7092C53.9021 93.6208 54.0502 93.4723 54.1381 93.2883C54.226 93.1043 54.2485 92.8958 54.2018 92.6973C54.0452 91.5973 54.0002 90.4843 54.0675 89.3752V88.7573L53.9869 87.5127C53.9869 87.2351 54.0407 86.9485 54.0586 86.6709V86.465C54.0586 86.0352 54.0586 85.6143 53.9869 85.1934H54.0586C54.0586 84.9248 54.0586 84.6472 54.0586 84.3696C54.6259 84.6284 55.261 84.6994 55.8714 84.5721C56.4818 84.4449 57.0357 84.1261 57.4523 83.6622C60.5417 80.546 63.6578 77.4657 66.765 74.3674C66.7847 74.3535 66.8082 74.3461 66.8322 74.3461C66.8563 74.3461 66.8797 74.3535 66.8994 74.3674C66.9531 74.2331 67.0247 74.1435 67.1859 74.1794C67.1859 73.5884 68.0276 73.6869 67.9829 73.0959C67.9381 72.5049 67.159 72.1109 67.159 71.4393Z" fill="#FF6B00"/>
<path fill-rule="evenodd" clip-rule="evenodd" d="M50.8706 65.6458L50.8796 65.6547L50.8706 65.6458Z" fill="#472461"/>
<path fill-rule="evenodd" clip-rule="evenodd" d="M55.3302 73.9823C55.5361 74.636 55.8674 74.5644 56.2883 74.2062L58.0165 72.7556C58.0777 72.6993 58.1437 72.6484 58.2135 72.6034C58.5001 72.2004 58.706 71.7079 58.9657 71.3318C59.0127 71.1863 59.0789 71.0478 59.1627 70.9199C59.6104 70.114 60.1029 69.3349 60.5775 68.547L59.9328 68.3052C58.8941 68.6454 58.0703 69.4245 56.9957 69.6931C56.5151 70.133 55.9291 70.4414 55.2944 70.5886H55.0794C55.0577 70.6012 55.033 70.6078 55.0078 70.6078C54.9827 70.6078 54.958 70.6012 54.9362 70.5886C54.8118 70.6564 54.7035 70.7504 54.6187 70.8639C54.5339 70.9774 54.4746 71.108 54.4448 71.2465C54.4151 71.3851 54.4155 71.5284 54.4463 71.6668C54.477 71.8051 54.5372 71.9352 54.6228 72.0482C54.9195 72.6689 55.1564 73.3166 55.3302 73.9823Z" fill="#FF6B00"/>
<path fill-rule="evenodd" clip-rule="evenodd" d="M82.0234 86.5544C82.0234 86.9843 81.9518 87.3872 81.3608 87.3066C81.3495 87.2127 81.3581 87.1173 81.3861 87.0269C81.4142 86.9365 81.461 86.8531 81.5236 86.7821C81.5862 86.7111 81.6631 86.6541 81.7492 86.6148C81.8353 86.5756 81.9288 86.555 82.0234 86.5544Z" fill="#77C2FA"/>
<path fill-rule="evenodd" clip-rule="evenodd" d="M80.7787 88.023C80.7787 88.4439 80.5369 88.614 80.125 88.5692C80.2593 88.2917 80.3936 88.0051 80.7787 88.023Z" fill="#77C2FA"/>
<path fill-rule="evenodd" clip-rule="evenodd" d="M81.3518 87.3066C81.378 87.3867 81.3844 87.472 81.3704 87.5551C81.3563 87.6381 81.3223 87.7166 81.2711 87.7836C81.22 87.8505 81.1534 87.9041 81.0769 87.9396C81.0005 87.975 80.9166 87.9914 80.8324 87.9872C80.8145 87.6111 81.0742 87.4499 81.3518 87.3066Z" fill="#77C2FA"/>
<path fill-rule="evenodd" clip-rule="evenodd" d="M80.1162 88.5781C80.1162 88.8647 80.1162 89.1512 79.758 89.2139C79.7377 89.1486 79.7309 89.0799 79.7381 89.012C79.7454 88.944 79.7664 88.8783 79.7999 88.8187C79.8335 88.7592 79.8788 88.7071 79.9332 88.6658C79.9876 88.6244 80.0499 88.5946 80.1162 88.5781Z" fill="#77C2FA"/>
<path fill-rule="evenodd" clip-rule="evenodd" d="M128.291 67.5887C128.05 67.5887 127.808 67.6604 127.584 67.7141C126.491 67.9917 124.665 68.2693 124.181 66.8724C123.704 65.124 123.544 63.3045 123.707 61.4996C123.77 60.4044 123.893 59.3134 124.074 58.2312C124.244 57.0313 124.029 54.5151 125.542 54.0763C126.529 53.7567 127.464 53.2952 128.318 52.7063C129.175 54.8046 129.846 56.9739 130.324 59.1894C130.611 60.2102 130.897 61.24 131.139 62.2787C131.413 63.5321 131.351 64.8356 130.96 66.0575C130.584 67.4096 129.411 67.4455 128.291 67.5887Z" fill="#F1AC88"/>
<path fill-rule="evenodd" clip-rule="evenodd" d="M47.8081 151.376C48.1753 149.702 47.8081 148.036 47.7275 146.371L49.4289 146.299C49.3483 148.582 49.6349 150.705 51.9809 151.887C51.4258 152.863 50.5034 153.033 49.2946 152.343C48.7811 152.05 48.2848 151.727 47.8081 151.376Z" fill="#F1AC88"/>
<path fill-rule="evenodd" clip-rule="evenodd" d="M52.8315 96.2701V93.8434C52.8441 93.8301 52.8511 93.8124 52.8511 93.7941C52.8511 93.7758 52.8441 93.7582 52.8315 93.7449C51.7264 94.1543 50.562 94.3811 49.384 94.4165C45.9357 94.7229 42.4631 94.6117 39.0415 94.0851V98.849C39.0415 103.067 39.0415 107.284 39.2654 111.493C39.3818 113.812 39.4892 116.131 39.6056 118.45C39.6773 120.009 39.74 121.567 39.8116 123.116C39.6062 123.781 39.6672 124.5 39.9817 125.122V125.363C39.9286 125.449 39.9005 125.549 39.9005 125.65C39.9005 125.751 39.9286 125.85 39.9817 125.936C39.9817 126.456 40.0444 126.975 40.0802 127.495C39.9285 127.776 39.8637 128.097 39.894 128.416C39.9243 128.734 40.0483 129.037 40.2504 129.285C40.4384 134.989 40.904 140.667 41.5667 146.299C42.0144 146.559 42.6412 146.299 43.0263 146.783C43.5725 146.38 44.4859 147.006 44.8172 146.299C44.9877 145.7 45.0573 145.076 45.0231 144.454C45.3395 140.652 45.638 136.849 45.9186 133.046C46.0243 131.631 46.2096 130.223 46.4738 128.829C46.617 131.014 46.7782 133.199 46.8946 135.383C47.0737 138.706 47.208 142.037 47.3782 145.359C47.3782 145.708 47.2259 146.156 47.7184 146.362L49.4198 146.29C49.8738 144.599 50.1381 142.863 50.2078 141.114C50.9152 133.87 51.4704 126.608 51.7659 119.337C51.798 119.064 51.8519 118.795 51.9271 118.531C51.8107 116.051 52.1778 113.588 52.1868 111.117C52.1087 109.964 52.1931 108.807 52.4375 107.678C52.4375 106.657 52.4912 105.628 52.5091 104.598C52.5091 104.463 52.5091 104.32 52.5091 104.186C52.4703 102.543 52.5571 100.899 52.7688 99.2698C52.7688 98.7863 52.7688 98.2938 52.7688 97.8013C52.7688 97.649 52.7688 97.4879 52.7688 97.3267V96.7088C52.8315 96.5476 52.8315 96.4133 52.8315 96.2701Z" fill="#FEAA61"/>
<path fill-rule="evenodd" clip-rule="evenodd" d="M106.917 105.663C107.553 107.329 108.179 109.003 108.815 110.669C109.29 112.63 108.69 113.543 106.371 114.394C102.493 114.34 100.371 112.218 100.317 108.278C100.317 107.383 100.317 106.55 100.317 105.69L102.458 106.299C101.902 106.765 101.911 106.765 101.992 107.633C101.992 107.732 101.84 107.839 101.759 107.947C101.678 108.054 101.428 108.377 101.849 108.457C102.269 108.538 102.18 108.681 101.974 108.923C101.768 109.165 101.759 109.353 102.162 109.397C102.278 109.397 102.502 109.308 102.449 109.639C102.314 110.418 102.332 110.418 103.165 110.284C103.854 110.185 104.535 110.087 105.224 110.006C105.914 109.926 106.55 110.006 107.078 109.523C106.85 109.272 106.682 108.972 106.589 108.645C106.496 108.319 106.479 107.976 106.541 107.642C106.595 107.239 106.012 107.329 106.039 106.98C106.084 106.344 106.039 106.29 105.529 106.084L106.917 105.663Z" fill="#76777A"/>
<path fill-rule="evenodd" clip-rule="evenodd" d="M121.674 77.5461C122.015 76.8119 121.468 76.7044 120.994 76.6507C119.031 76.2234 117.046 75.9065 115.048 75.7015C112.138 75.5184 109.216 75.7505 106.371 76.391C106.273 76.7492 106.076 76.785 105.789 76.5701C105.561 76.5213 105.324 76.563 105.126 76.6865C105.106 76.7316 105.076 76.7718 105.039 76.8045C105.001 76.8371 104.958 76.8615 104.91 76.8759C104.863 76.8903 104.813 76.8944 104.764 76.888C104.714 76.8816 104.667 76.8648 104.625 76.8387C104.159 76.8387 104.07 77.1342 104.213 77.5282C104.043 80.1432 104.043 82.7664 104.213 85.3814C104.586 85.3175 104.963 85.2756 105.341 85.256H121.656C121.912 82.6927 121.918 80.1106 121.674 77.5461Z" fill="#7C3AA6"/>
<path fill-rule="evenodd" clip-rule="evenodd" d="M132.841 75.594C132.581 73.4298 131.718 71.3821 130.351 69.684C129.689 68.9497 128.981 68.2602 128.292 67.5528H128.059C126.617 67.6961 125.462 67.9558 124.853 66.5947C124.388 65.547 124.54 63.8278 124.522 62.7084C124.477 60.237 124.746 57.7655 124.737 55.303C124.737 54.6404 124.898 54.2822 125.543 54.0942C126.53 53.7746 127.465 53.3131 128.319 52.7241C127.809 51.1276 126.998 49.644 125.928 48.3543C123.902 45.5706 120.856 43.7031 117.457 43.1607C117.345 44.402 116.876 45.5842 116.105 46.5634C114.645 48.4528 113.481 48.4707 111.627 48.0588C110.436 47.7902 109.756 46.5813 109.201 45.5336C108.743 44.7565 108.493 43.8745 108.475 42.9727C107.915 43.2159 107.341 43.4252 106.756 43.5995C104.583 44.1151 102.616 45.2763 101.115 46.9306C99.5177 48.5441 98.3162 50.5057 97.6045 52.6615C98.5001 53.3403 99.5015 53.8667 100.568 54.2195C101.043 54.4345 101.195 54.6404 101.195 55.115C101.195 59.0998 101.195 63.0845 101.285 67.0603C101.285 67.5349 101.052 67.4812 100.783 67.4812C100.192 67.4812 99.6014 67.4812 98.9925 67.4812C98.3747 67.4214 97.7557 67.5832 97.2464 67.9379L95.4554 69.7288L94.3003 71.3406C93.7119 72.5568 93.3537 73.8714 93.2437 75.2179L93.1631 75.603C93.1631 76.6417 93.1631 77.6894 93.1631 78.737C93.3601 78.7997 93.4049 78.952 93.4138 79.14C93.6255 81.7233 93.9723 84.2938 94.4525 86.8409C94.945 88.7393 95.348 90.6555 95.8942 92.5539C96.5389 94.9179 97.3359 97.2281 98.0702 99.5563C98.6164 101.302 99.1895 103.031 99.7626 104.768C99.8504 105.128 100.063 105.445 100.363 105.663L102.503 106.272L105.574 106.048L106.926 105.636C107.338 105.368 107.096 105.045 107.025 104.741C105.486 98.3688 104.551 91.866 104.231 85.3186C104.061 82.7037 104.061 80.0804 104.231 77.4655C104.088 77.0715 104.177 76.8118 104.643 76.776C104.741 76.6506 104.84 76.5342 104.983 76.5611C104.84 76.5611 104.741 76.6506 104.643 76.776C104.685 76.8021 104.732 76.8189 104.781 76.8253C104.831 76.8317 104.88 76.8275 104.928 76.8131C104.975 76.7987 105.019 76.7744 105.056 76.7418C105.094 76.7091 105.124 76.6689 105.144 76.6238C105.342 76.5003 105.579 76.4586 105.807 76.5074C106.093 76.7223 106.29 76.6865 106.389 76.3283C109.234 75.6878 112.155 75.4557 115.066 75.6388C117.064 75.8438 119.049 76.1607 121.012 76.588C121.486 76.6865 122.032 76.7939 121.692 77.4834C121.938 80.0325 121.938 82.5994 121.692 85.1485C121.692 85.7037 121.647 86.2678 121.63 86.823C121.647 87.169 121.647 87.5157 121.63 87.8617C121.251 93.1111 120.467 98.3233 119.283 103.452C119.131 104.159 118.746 104.884 119.113 105.636C119.563 105.655 119.999 105.794 120.376 106.039L123.456 106.236L125.695 105.61C126.08 105.502 126.071 105.117 126.161 104.857C127.441 101.007 129.098 97.2819 130.208 93.3777C130.902 91.1002 131.376 88.7613 131.623 86.3932C131.66 85.9662 131.785 85.5515 131.99 85.1754C132.214 82.0144 132.966 78.8445 132.841 75.594Z" fill="#4858CC"/>
<path fill-rule="evenodd" clip-rule="evenodd" d="M127.844 67.5349H128.059C127.969 67.6603 127.906 67.6334 127.844 67.5349Z" fill="#472461"/>
<path fill-rule="evenodd" clip-rule="evenodd" d="M93.4045 79.1399C93.4045 78.9519 93.3508 78.7997 93.1538 78.737C93.1538 77.6893 93.1538 76.6416 93.1538 75.6029L91.3629 75.5312C90.915 75.7138 90.5315 76.0255 90.2615 76.4267C88.6496 78.5937 86.8587 80.5906 85.0678 82.6949C83.9842 83.7778 83.026 84.9793 82.2113 86.2767C82.1487 86.3752 82.086 86.4558 82.0143 86.5543C82.0143 86.9841 81.9427 87.3871 81.3517 87.3065C81.378 87.3865 81.3843 87.4718 81.3703 87.5549C81.3562 87.638 81.3222 87.7164 81.2711 87.7834C81.2199 87.8504 81.1533 87.9039 81.0768 87.9394C81.0004 87.9749 80.9165 87.9912 80.8323 87.987H80.7786C80.7786 88.4079 80.5368 88.578 80.1249 88.5332C80.1249 88.8198 80.1249 89.1063 79.7668 89.169C78.5251 90.6137 77.2834 92.0195 76.0417 93.3866C74.954 94.9707 73.7089 96.4407 72.3255 97.7743C71.5862 98.9118 70.7078 99.9525 69.7108 100.873C69.7121 100.992 69.6701 101.107 69.5928 101.198C69.5154 101.288 69.4078 101.348 69.29 101.365L69.0661 101.687C69.0662 101.751 69.0423 101.812 68.9991 101.859C68.9559 101.905 68.8966 101.934 68.8333 101.938C68.1589 102.904 67.3944 103.803 66.5499 104.625C66.5499 104.983 66.138 105.09 66.1111 105.421C66.1111 105.529 66.1111 105.627 66.1111 105.717C66.1111 105.627 66.1111 105.529 66.1111 105.421C65.3826 105.966 64.801 106.683 64.4187 107.508C64.3634 107.515 64.3109 107.537 64.2665 107.571L64.0516 107.741L63.6217 108.135C63.4417 108.5 63.1663 108.809 62.8248 109.03C62.828 109.15 62.7868 109.266 62.709 109.357C62.6313 109.448 62.5226 109.507 62.4039 109.523L62.2517 109.684C62.2309 109.799 62.175 109.904 62.0916 109.986C62.0082 110.068 61.9014 110.122 61.7861 110.141C61.3115 111.099 60.4339 110.803 59.6638 110.821C59.1818 110.915 58.6862 110.915 58.2042 110.821C56.4185 110.989 54.625 111.061 52.8315 111.036L52.2405 111.143C52.2405 113.615 51.8644 116.077 51.9809 118.558C56.0731 118.558 60.1653 118.558 64.2575 118.647C64.5487 118.641 64.8345 118.568 65.0925 118.433C65.3504 118.298 65.5734 118.104 65.744 117.868L75.8357 106.926L88.5064 93.1269C90.351 91.133 92.1897 89.1332 94.0224 87.1274C94.1355 87.003 94.2813 86.913 94.4432 86.8677C93.962 84.3117 93.6153 81.7322 93.4045 79.1399Z" fill="#7C3AA6"/>
<path fill-rule="evenodd" clip-rule="evenodd" d="M112.433 35.603L112.218 35.809L112.424 35.603H112.433Z" fill="#E23666"/>
<path fill-rule="evenodd" clip-rule="evenodd" d="M116.409 42.7489C116.122 42.6683 115.854 42.5967 115.8 42.2653C115.57 40.5478 115.9 38.802 116.74 37.2866C116.975 36.9399 117.124 36.542 117.174 36.126C117.224 35.7101 117.173 35.2882 117.027 34.8958C116.794 34.8958 116.454 34.8958 116.337 35.0301C116.06 35.3524 115.594 35.9255 115.442 35.2629C115.254 34.4391 115.692 33.6332 115.28 32.8004C114.645 31.5378 112.764 31.7079 111.618 32.0661C110.723 32.3527 110.723 33.1138 110.642 33.857C110.665 34.2392 110.55 34.617 110.32 34.9226C109.854 35.4868 109.684 34.8152 109.156 34.7794C108.878 35.2987 108.144 35.827 108.618 36.4091C109.289 37.3345 109.75 38.3948 109.97 39.5163C110.526 40.2774 110.499 42.2027 109.97 42.731C109.513 42.9029 109.027 42.988 108.538 42.9817C108.555 43.8835 108.805 44.7656 109.263 45.5427C109.818 46.5904 110.499 47.7992 111.69 48.0679C113.481 48.4798 114.689 48.4619 116.167 46.5725C116.935 45.5983 117.404 44.4227 117.519 43.1877C117.098 42.9817 116.749 42.8474 116.409 42.7489ZM113.024 39.3103C112.675 39.3103 112.299 39.1671 112.272 38.7462C112.272 38.1821 112.711 38.3522 113.033 38.2985C113.355 38.2448 113.83 38.1283 113.83 38.6656C113.824 38.7652 113.797 38.8625 113.75 38.9508C113.704 39.0391 113.639 39.1164 113.56 39.1774C113.481 39.2385 113.39 39.282 113.293 39.3049C113.196 39.3279 113.095 39.3297 112.997 39.3103H113.024Z" fill="#F1AC88"/>
<path fill-rule="evenodd" clip-rule="evenodd" d="M112.209 35.8181L112.415 35.6121C112.63 34.6361 112.29 34.1794 111.26 34.3406C111.09 34.3495 110.919 34.3495 110.749 34.3406C110.619 34.4455 110.52 34.5851 110.464 34.7434C110.409 34.9017 110.399 35.0724 110.436 35.236C110.641 35.4971 110.919 35.6917 111.234 35.7952C111.55 35.8988 111.889 35.9067 112.209 35.8181Z" fill="#F28795"/>
<path fill-rule="evenodd" clip-rule="evenodd" d="M17.1298 43.9309C17.4254 42.4836 17.6198 41.0175 17.7119 39.5431C17.8065 38.3073 18.1093 37.0963 18.6073 35.9613C19.1584 34.3405 20.0224 32.8436 21.1504 31.5557C22.1715 30.3077 23.4513 29.2963 24.9015 28.5913C26.3517 27.8863 27.9376 27.5046 29.5497 27.4724C31.3446 27.2931 33.157 27.4945 34.8687 28.0634C37.3342 28.9907 39.4244 30.7063 40.8145 32.9437C41.3635 33.8853 41.8337 34.8707 42.2204 35.8897C42.8557 37.6985 43.0401 39.6349 42.7577 41.5311C42.5906 42.9007 42.2382 44.2412 41.71 45.5158C42.6006 44.707 43.5906 44.0149 44.656 43.4563C47.4946 41.8982 51.2376 41.9519 53.5568 44.5935C54.2885 45.3361 54.7 46.3359 54.703 47.3784C54.6582 48.6499 54.703 49.9214 54.703 51.193C54.7084 51.2801 54.6924 51.3672 54.6565 51.4468C54.6206 51.5264 54.5659 51.596 54.4971 51.6497C54.3448 51.0945 54.8642 50.3871 54.112 49.9752C53.916 49.2238 53.4629 48.5647 52.8315 48.1126C51.643 47.2109 50.1785 46.7493 48.6877 46.8064C47.1969 46.8636 45.7721 47.436 44.656 48.426C42.1846 50.611 41.7548 53.3958 42.301 56.4851C41.2533 56.1538 40.2146 56.5478 39.1669 56.4851C29.8721 56.1896 20.5683 56.1896 11.2646 56.2254C11.0245 56.1849 10.7793 56.1849 10.5393 56.2254C9.06178 56.7627 8.12155 56.0463 7.38728 54.8733C6.65301 53.7003 5.68592 52.6615 5.37251 51.399C5.10332 50.5581 5.02953 49.667 5.15678 48.7934C5.28402 47.9197 5.60894 47.0866 6.10679 46.3575C6.90606 45.1445 7.99567 44.1503 9.27669 43.4652C11.0676 42.5698 14.7748 43.0533 16.1985 44.4323C16.4403 44.6562 16.5925 45.1935 16.9328 45.0502C17.2731 44.9069 17.0134 44.3159 17.1298 43.9309Z" fill="#92C0E9"/>
<path d="M122.991 53.3779H103.013C101.91 53.3779 101.016 54.272 101.016 55.3748V67.2843C101.016 68.3871 101.91 69.2812 103.013 69.2812H122.991C124.093 69.2812 124.987 68.3871 124.987 67.2843V55.3748C124.987 54.272 124.093 53.3779 122.991 53.3779Z" fill="#76777A"/>
<path fill-rule="evenodd" clip-rule="evenodd" d="M111.986 59.0998C112.783 59.0998 113.58 59.0998 114.376 59.0998C115.173 59.0998 115.012 59.5565 115.021 59.9953C115.03 60.434 115.021 60.8907 114.403 60.828C113.92 60.828 113.436 60.828 112.944 60.828C112.639 60.828 112.317 60.828 112.048 60.828C111.413 60.8818 111.019 60.828 111.027 59.9326C111.036 59.0371 111.314 59.0998 111.986 59.0998Z" fill="white"/>
</g>
<defs>
<clipPath id="clip0">
<rect width="194.116" height="154" fill="white"/>
</clipPath>
</defs>
</svg>
