<svg width="100" height="172" viewBox="0 0 100 172" fill="none" xmlns="http://www.w3.org/2000/svg">
<g clip-path="url(#clip0)">
<path fill-rule="evenodd" clip-rule="evenodd" d="M92.7367 169.218C92.7367 170.64 77.5759 171.8 58.871 171.8C40.1662 171.8 25.0054 170.64 25.0054 169.218C25.0054 167.796 40.1662 166.637 58.871 166.637C77.5759 166.637 92.7367 167.796 92.7367 169.218Z" fill="#9BA9B4"/>
<path fill-rule="evenodd" clip-rule="evenodd" d="M37.8363 167.205C35.0908 167.796 32.0389 167.96 29.5559 166.943C25.8149 165.411 34.5438 159.975 36.2612 160.052C37.891 160.128 40.3084 162.852 41.7414 163.803C42.693 164.438 43.7213 164.908 44.7495 165.401C43.6994 165.893 42.1133 165.947 40.9101 166.352C39.9693 166.68 38.9302 166.976 37.8363 167.205Z" fill="#FF6B00"/>
<path fill-rule="evenodd" clip-rule="evenodd" d="M67.1408 115.403C67.6659 115.939 67.7315 116.585 67.3268 117.252C66.583 118.477 65.4016 119.144 64.4828 120.129C63.7499 120.851 63.017 121.583 62.2951 122.305C61.595 121.912 60.8512 122.152 60.1402 122.218C57.7775 122.415 55.8742 121.485 54.2224 119.91C52.6145 118.368 51.4878 116.486 50.4377 114.539C49.6173 114.736 48.7969 114.944 47.9765 115.119C44.7606 115.808 41.3259 117.635 38.7444 119.407C32.1813 123.892 29.1076 132.139 30.2343 139.895C30.989 140.977 36.1411 140.595 37.574 141.579C38.8319 142.454 42.4635 145.965 43.7652 143.275C45.0122 140.693 44.0934 137.236 44.0387 134.48C43.984 131.756 44.1809 129.011 44.1152 126.265C44.0934 125.226 44.9247 124.854 45.8326 124.624C50.0767 123.541 53.8505 124.438 57.1758 127.282C57.4384 127.348 57.69 127.425 57.9525 127.49C58.0837 127.512 58.2259 127.534 58.3572 127.545C59.0135 127.447 59.6808 127.348 60.3371 127.239C63.5858 124.438 67.283 123.531 71.4616 124.581C72.457 124.832 73.2117 125.237 73.2117 126.396C73.2117 130.498 73.2117 134.611 73.2117 138.713C75.4869 139.194 77.434 140.146 78.4841 142.389C80.7374 141.667 83.0017 140.956 85.266 140.234C85.441 138.91 85.5832 137.587 85.8129 136.274C87.6725 125.653 78.0137 115.042 67.1408 115.403Z" fill="#4858CC"/>
<path fill-rule="evenodd" clip-rule="evenodd" d="M61.6933 111.442C62.4809 114.045 64.4826 115.008 66.9438 115.358C67.611 115.872 67.9173 116.277 67.3376 117.239C66.5938 118.464 65.4124 119.143 64.4936 120.116C63.7607 120.838 63.0278 121.571 62.3059 122.293C61.6058 121.899 60.862 122.14 60.151 122.205C57.7882 122.402 55.8849 121.472 54.2332 119.897C52.6253 118.355 51.4986 116.474 50.4485 114.527C52.8331 113.433 55.7537 113.181 57.0444 110.359C57.1976 109.714 57.3398 109.068 57.4929 108.423C57.7664 107.22 57.5585 106.388 56.3334 105.644C54.2223 104.354 53.3144 102.155 52.8331 99.7923C52.5815 98.5125 52.7018 97.2218 52.0236 95.9529C51.4111 94.7934 52.7128 93.4699 54.3317 93.5792C57.0554 93.7761 59.5056 93.0214 61.7042 91.5228C62.5137 90.9759 62.9622 91.1509 63.5638 91.7197C64.6467 92.7479 65.9265 93.437 67.3376 93.9183C69.9409 94.8262 69.9191 96.478 68.7815 98.8516C67.1735 102.177 65.2811 104.846 62.1199 106.87C61.026 107.57 61.3433 109.845 61.6933 111.442ZM61.6714 102.669C60.676 102.932 59.6587 102.768 58.6524 102.68C59.6806 103.544 60.676 103.577 61.6714 102.669Z" fill="#F1AC88"/>
<path fill-rule="evenodd" clip-rule="evenodd" d="M78.473 142.409C80.7373 141.687 82.9906 140.976 85.2549 140.254C86.5784 140.32 87.902 140.232 89.2256 140.549C93.8744 141.676 96.5544 146.281 95.3621 150.985C94.3339 155.043 92.0586 158.193 88.8318 160.731C88.3833 159.976 87.7817 159.44 86.9941 158.97C83.3953 156.815 79.5778 157.285 75.7493 157.941C72.4677 158.499 69.3393 158.521 66.2 157.066C64.056 156.071 62.3934 154.397 60.2822 153.413C60.9714 153.008 61.6605 152.625 62.3387 152.21C64.5592 150.81 67.086 149.891 68.9237 147.911C72.0958 146.073 75.2899 144.236 78.473 142.409Z" fill="#7C3AA6"/>
<path fill-rule="evenodd" clip-rule="evenodd" d="M60.2713 153.414C62.3824 154.399 64.0451 156.072 66.189 157.068C69.3284 158.522 72.4568 158.5 75.7384 157.943C79.5559 157.286 83.3734 156.816 86.9832 158.971C87.7707 159.441 88.3724 159.977 88.8208 160.732C88.4052 161.312 87.9348 161.815 87.2129 162.012C86.3925 161.169 85.3861 160.721 84.2157 160.71C80.9889 160.677 77.9698 161.421 75.2133 163.16C68.158 162.646 62.5684 158.96 57.1538 154.88C58.193 154.377 59.2321 153.895 60.2713 153.414Z" fill="#6025A6"/>
<path fill-rule="evenodd" clip-rule="evenodd" d="M75.2023 163.072C75.6289 162.645 76.8431 162.273 77.2478 162.076C79.4027 161.07 81.842 160.676 84.2047 160.709C85.3751 160.72 86.3815 161.168 87.2019 162.011C87.0925 162.536 86.9831 163.061 86.8737 163.586C85.747 165.248 84.0953 166.222 82.3452 167.086C80.3653 168.071 77.8823 168.563 75.6836 168.694C74.9179 168.738 72.2598 168.475 72.2161 167.392C72.1723 166.123 74.9179 166.955 75.3445 166.025C75.5414 165.587 75.4648 165.106 75.3664 164.647C75.3008 164.33 74.9288 163.575 75.0382 163.279C75.0929 163.192 75.1367 163.126 75.2023 163.072Z" fill="#FF6B00"/>
<path fill-rule="evenodd" clip-rule="evenodd" d="M75.2134 163.149C75.4103 163.543 75.7603 163.729 76.1759 163.827C76.2744 164.79 76.2635 165.742 76.0009 166.682C75.8478 166.704 75.6947 166.715 75.5415 166.737C74.4039 167.842 72.8616 167.94 71.4505 168.181C60.5448 170.062 49.825 169.34 39.6303 164.921C33.5048 162.263 28.9762 157.614 26.4166 151.336C25.4868 149.06 25.6181 146.566 26.0666 144.204C26.4932 141.972 27.8824 140.386 30.2451 139.872C33.6579 139.577 36.7863 140.703 39.9038 141.852C42.5619 143.624 45.2856 145.297 47.6264 147.507L47.7686 147.616C47.9655 147.627 48.1515 147.649 48.3483 147.66C50.6345 150.854 53.927 152.823 57.1648 154.847C62.5684 158.949 68.158 162.635 75.2134 163.149Z" fill="#7C3AA6"/>
<path fill-rule="evenodd" clip-rule="evenodd" d="M61.6714 102.668C60.6869 103.576 59.6806 103.532 58.6523 102.679C59.6587 102.777 60.665 102.93 61.6714 102.668Z" fill="#3F3F76"/>
<path fill-rule="evenodd" clip-rule="evenodd" d="M71.4614 124.59C67.2939 123.54 63.6076 124.437 60.3588 127.226C60.0854 127.204 59.8119 127.193 59.5384 127.182C59.44 127.182 59.3306 127.182 59.2322 127.171C58.6962 127.16 58.1602 127.15 57.6351 127.095C56.9132 127.029 56.6725 126.832 56.0928 126.417C55.1083 125.717 54.0364 125.148 52.8878 124.765C50.6017 123.999 48.1624 124.021 45.8434 124.612C44.9355 124.841 44.1042 125.213 44.1261 126.253C44.2136 130.048 43.6448 133.702 43.1416 137.443C43.0213 138.296 42.8463 139.16 42.89 140.013C42.9338 140.713 42.5728 141.402 42.6275 142.081C42.6712 142.715 43.2619 142.781 43.8198 142.934C44.6511 143.164 45.4934 143.36 46.3466 143.546C47.5279 143.798 48.6437 144.203 49.8141 144.52C51.4221 144.968 52.8878 144.421 54.4958 144.596C56.7491 144.837 58.4555 146.194 60.7198 145.045C61.9012 144.443 63.0169 144.039 64.3186 143.798C65.2155 143.634 65.9484 142.781 66.2328 141.906C66.4188 141.337 66.6375 140.779 66.8673 140.221C66.8891 140.232 66.911 140.243 66.9329 140.254C68.0924 140.659 69.2628 140.626 70.1488 139.827C71.0786 138.985 72.1177 138.832 73.2335 138.712C73.2335 134.61 73.2335 130.497 73.2335 126.395C73.2116 125.246 72.4568 124.841 71.4614 124.59Z" fill="#FF6B00"/>
<path fill-rule="evenodd" clip-rule="evenodd" d="M60.7746 133.022C60.2057 132.737 59.6479 132.333 59.0681 133C58.8931 133.404 58.729 133.809 58.554 134.214C59.0244 131.72 57.5258 129.62 57.1758 127.29C57.4383 127.355 57.6899 127.421 57.9524 127.498C58.0837 127.52 58.2259 127.541 58.3571 127.552C59.0134 127.454 59.6807 127.355 60.337 127.246C60.337 127.574 60.3808 127.913 60.3261 128.231C60.0635 129.871 59.2103 131.567 60.7746 133.022Z" fill="#171449"/>
<path fill-rule="evenodd" clip-rule="evenodd" d="M58.3461 127.555C58.2149 127.533 58.0727 127.522 57.9414 127.5C58.0836 127.522 58.2149 127.533 58.3461 127.555Z" fill="#221D6E"/>
<path fill-rule="evenodd" clip-rule="evenodd" d="M48.3374 147.668C49.3547 146.64 50.3829 145.601 51.4002 144.573C51.8159 144.157 53.1941 144.157 53.741 144.168C54.4849 144.19 55.174 144.332 55.8959 144.518C57.4711 144.923 59.079 145.338 60.687 144.868C61.3324 144.682 61.8793 144.31 62.5247 144.168C62.8638 144.091 64.3733 143.555 64.6249 143.796C66.0578 145.163 67.4798 146.531 68.9128 147.898C67.0751 149.878 64.5483 150.808 62.3278 152.197C61.6605 152.612 60.9605 153.006 60.2713 153.4C59.2322 153.881 58.193 154.374 57.1539 154.855C53.9161 152.831 50.6236 150.873 48.3374 147.668Z" fill="#4858CC"/>
<path fill-rule="evenodd" clip-rule="evenodd" d="M76.0666 166.661C76.0119 166.475 76.0994 166.268 76.1541 165.939C76.187 165.775 76.2307 163.817 76.176 163.828C77.8605 163.38 79.4138 162.33 81.2952 162.811C82.8485 163.205 83.111 163.992 82.0281 165.174C80.8686 166.443 78.1668 168.061 76.4276 167.044C76.2088 166.913 76.0994 166.793 76.0666 166.661Z" fill="#F1AC88"/>
<path fill-rule="evenodd" clip-rule="evenodd" d="M47.6155 147.517C47.703 147.495 47.7577 147.539 47.7577 147.627L47.6155 147.517Z" fill="#4949B6"/>
<path fill-rule="evenodd" clip-rule="evenodd" d="M57.8647 135.965C57.9085 135.779 57.9413 135.593 57.9851 135.418C58.0507 135.626 58.1054 135.834 58.171 136.052C58.0726 136.02 57.9741 135.998 57.8647 135.965Z" fill="#171449"/>
<path fill-rule="evenodd" clip-rule="evenodd" d="M57.5366 145.285C58.6305 145.548 59.7243 145.668 60.8182 145.143V127.116C60.8182 127.16 60.5666 127.193 60.5228 127.226C60.2494 127.204 59.8884 127.193 59.6149 127.182C59.5165 127.182 59.3634 127.182 59.2649 127.171C58.7289 127.16 58.3023 127.149 57.7663 127.095C57.646 127.084 57.5366 127.062 57.5366 127.051V145.285Z" fill="black"/>
<path fill-rule="evenodd" clip-rule="evenodd" d="M60.7744 133.025C61.3214 133.769 61.8683 134.513 62.4043 135.245C62.9403 135.016 62.6668 133.977 63.4434 134.261C64.0341 134.48 63.9357 135.18 63.9028 135.672C63.7497 137.969 64.7232 139.501 66.9109 140.255C68.0704 140.66 69.2408 140.627 70.1269 139.829C71.0566 138.986 72.0958 138.833 73.2115 138.713C75.4867 139.194 77.4338 140.146 78.473 142.388C75.2898 144.226 72.0958 146.053 68.9127 147.89C67.4797 146.523 66.0577 145.156 64.6248 143.788C63.6622 142.148 62.7215 140.529 61.3651 139.129C59.7681 137.477 58.9149 135.388 59.0571 133.003C59.6478 132.336 60.2056 132.741 60.7744 133.025Z" fill="#F1AC88"/>
<path fill-rule="evenodd" clip-rule="evenodd" d="M42.5291 140.812C44.498 140.32 46.9811 139.86 47.2764 139.817C49.6938 139.489 52.7457 139.51 52.8988 136.535C52.9644 135.244 53.0629 135.343 54.2989 135.693C55.1084 135.923 55.3053 134.883 55.8522 134.511C56.3444 134.183 56.771 133.647 57.4164 133.855C58.1821 134.107 57.8539 134.862 57.9852 135.408C57.9415 135.594 57.9086 135.769 57.8649 135.955C56.8914 137.76 55.6006 139.248 54.0145 140.604C52.866 141.589 52.2534 143.219 51.4002 144.553C50.3829 145.581 49.3547 146.62 48.3374 147.649C48.1405 147.638 47.9546 147.616 47.7577 147.605C47.7577 147.517 47.703 147.474 47.6155 147.495C47.0139 147.616 40.5711 142.409 40.1007 141.731C39.9366 141.534 41.0961 141.173 42.5291 140.812Z" fill="#F1AC88"/>
<path fill-rule="evenodd" clip-rule="evenodd" d="M27.587 57.3178C28.8449 55.8411 29.9825 54.2879 30.4638 52.3518C31.2952 49.0374 29.3372 46.3574 25.9353 45.9855C22.9163 45.6683 20.3019 46.7294 17.7314 48.0857C16.4953 48.742 15.2484 49.3874 13.9576 49.9343C9.99786 51.6189 5.97248 50.7985 2.89876 47.7357C-0.0655852 44.7932 -0.765651 41.1179 0.886067 37.2457C2.52685 33.3844 5.89591 31.2185 10.1948 31.1857C13.7388 31.1638 16.8235 32.4983 19.8425 34.1501C23.2335 36.0096 26.5041 38.1426 30.2998 39.149C35.0471 40.396 40.4507 39.4662 42.5837 34.4891C44.0714 31.0216 43.0869 27.7182 39.6084 26.154C37.2457 25.093 34.697 24.9398 32.1702 24.6663C28.9215 24.3054 25.6399 24.3382 22.4131 23.6053C19.5691 22.9599 16.8891 21.8551 14.8327 19.8425C10.0963 15.2702 10.8292 7.30691 16.1891 3.32529C21.8662 -0.886046 28.0574 -0.656337 34.3033 1.57512C41.1945 4.04723 46.7513 8.76173 52.6144 12.9512C54.8458 14.5482 57.121 16.0359 59.615 17.2063C63.6623 19.1096 67.6767 19.3502 71.8115 17.5344C73.846 16.6375 75.99 16.1781 78.2543 16.3531C82.4218 16.6703 84.347 20.0612 82.3671 23.7694C81.8093 24.8195 81.0655 25.7821 80.3435 26.7337C79.5341 27.7948 78.5715 28.7464 77.8386 29.8512C75.6728 33.1 76.4166 36.1956 79.7638 38.1864C82.3781 39.7396 85.2659 40.5928 88.1864 41.3257C92.89 42.5071 96.3247 45.187 98.3046 49.6499C100.766 55.4145 100.503 61.0916 97.703 66.6703C94.8589 72.3255 90.3851 76.4712 85.2658 80.0153C82.7937 81.7217 80.2669 83.3625 78.0683 85.4299C74.9946 88.3286 73.5069 91.7414 74.2726 96.0512C74.5899 97.8779 74.9618 99.7265 74.6555 101.619C73.7038 107.548 68.4752 111.54 61.6824 111.474C61.3324 109.877 61.0261 107.602 62.0981 106.902C65.2593 104.879 67.1626 102.21 68.7596 98.8842C69.8972 96.5106 69.9191 94.8589 67.3157 93.951C65.9047 93.4587 64.6249 92.7696 63.5419 91.7523C62.9403 91.1835 62.4918 91.0085 61.6824 91.5554C59.4837 93.0649 57.0445 93.8088 54.3098 93.6119C52.6909 93.4916 51.3892 94.826 52.0018 95.9855C52.669 97.2544 52.5487 98.5452 52.8112 99.825C53.2816 102.177 54.2004 104.375 56.3116 105.666C57.5367 106.41 57.7445 107.241 57.4711 108.445C57.3179 109.09 57.1757 109.735 57.0226 110.381C53.4566 109.418 50.4813 107.46 47.8233 104.955C46.8826 104.069 46.2044 103.008 45.6793 101.849C43.9292 97.9763 44.3339 94.2135 46.1716 90.4725C47.3967 87.9676 48.9171 85.5939 49.6719 82.8593C51.3236 76.865 48.4796 72.7084 42.2665 72.0958C40.1991 71.888 38.1427 72.1067 36.0753 72.3146C33.2203 72.599 30.3763 72.8505 27.5651 71.8333C22.6756 70.0503 21.1989 65.7514 24.1523 61.4635C25.1805 60.0087 26.4385 58.707 27.587 57.3178Z" fill="#92C0E9"/>
<path fill-rule="evenodd" clip-rule="evenodd" d="M67.261 70.2266C67.1188 68.8921 67.6329 67.7545 68.3439 66.6825C69.1534 65.4683 70.0503 64.2979 70.8051 63.0509C71.9974 61.082 71.8114 59.124 70.5535 57.2316C68.9674 54.858 64.767 53.3047 61.7261 55.0439C58.8055 56.7175 57.2851 60.3272 58.4117 63.3791C58.9258 64.7792 59.9322 65.8731 60.6213 67.1638C61.1245 68.1045 62.0105 68.9577 61.5511 70.2047C60.5447 69.8219 59.8884 69.8219 59.5384 71.1673C59.0571 73.005 59.0134 74.3832 60.9057 75.5755C61.8574 76.1771 62.0433 77.8179 63.5857 77.9382C65.2155 78.0695 65.4452 76.21 66.3859 75.8709C68.4205 75.138 68.508 73.6066 68.8252 72.0096C69.0877 70.686 68.6174 70.0844 67.261 70.2266Z" fill="white"/>
<path fill-rule="evenodd" clip-rule="evenodd" d="M57.9414 67.6562C55.5786 70.3471 53.555 70.7081 52.2314 68.6735C54.3754 69.1111 56.2349 68.7501 57.9414 67.6562Z" fill="white"/>
<path fill-rule="evenodd" clip-rule="evenodd" d="M70.1488 83.474C70.641 83.5178 70.9473 83.9006 71.0129 84.6116C71.0895 85.4648 70.3238 85.443 69.9519 85.4976C69.2846 85.5961 68.9018 84.9288 68.9455 84.3929C68.9783 84.0209 69.1534 83.2771 70.1488 83.474Z" fill="white"/>
<path fill-rule="evenodd" clip-rule="evenodd" d="M35.9986 63.6302C36.108 64.6147 35.3423 64.7131 34.8501 64.7241C34.325 64.735 33.9094 64.1115 34.0297 63.6411C34.1172 63.302 34.0844 62.4817 34.9376 62.6785C35.5392 62.7989 36.1408 62.8864 35.9986 63.6302Z" fill="white"/>
<path fill-rule="evenodd" clip-rule="evenodd" d="M21.9537 39.9805C22.5991 40.2102 23.1351 40.2102 23.1898 41.0962C23.2445 41.9385 22.7632 41.9603 22.3038 42.0807C21.5053 42.3104 21.2318 41.5556 21.1662 41.1071C21.1224 40.7134 21.5162 40.1774 21.9537 39.9805Z" fill="white"/>
<path fill-rule="evenodd" clip-rule="evenodd" d="M87.7706 54.6822C88.7989 54.5182 89.0286 55.1635 89.1051 55.6995C89.2145 56.3777 88.6457 56.8043 88.055 56.8262C87.4644 56.8481 86.9174 56.5418 86.9065 55.7761C86.9065 55.0542 87.2347 54.6713 87.7706 54.6822Z" fill="white"/>
<path fill-rule="evenodd" clip-rule="evenodd" d="M57.6787 24.3834C57.0443 24.1428 56.5739 23.6177 56.6833 23.2567C56.7927 22.8848 56.8802 22.0207 57.8209 22.2832C58.4007 22.4473 58.6851 22.5785 58.7288 23.2677C58.7945 24.2084 57.9631 23.9787 57.6787 24.3834Z" fill="white"/>
<path fill-rule="evenodd" clip-rule="evenodd" d="M56.0162 60.2398C55.6333 60.8086 55.2833 60.6774 54.9989 60.5898C54.1238 60.3383 53.0846 60.1742 52.7893 59.2116C52.6033 58.599 53.194 58.785 53.5441 58.9819C54.0035 59.2335 54.441 59.5069 54.9004 59.7366C55.2395 59.9117 55.5896 60.0539 56.0162 60.2398Z" fill="white"/>
<path fill-rule="evenodd" clip-rule="evenodd" d="M34.9705 11.7288C35.5174 11.8273 35.9222 11.9476 35.944 12.6805C35.9769 13.4571 35.5065 13.5446 35.0033 13.6103C34.347 13.6978 34.0079 13.1399 34.0298 12.6805C34.0407 12.2758 34.2595 11.6304 34.9705 11.7288Z" fill="white"/>
<path fill-rule="evenodd" clip-rule="evenodd" d="M23.9007 12.9414C24.4914 13.0289 24.9289 13.3133 24.907 13.9696C24.8852 14.6041 24.4367 14.9213 23.846 14.9541C23.2116 14.9869 22.8178 14.6369 22.8725 13.9806C22.9162 13.368 23.2772 13.007 23.9007 12.9414Z" fill="white"/>
<path fill-rule="evenodd" clip-rule="evenodd" d="M45.2198 44.1803C45.9855 44.3225 46.3465 44.5631 46.3902 45.2413C46.4449 46.0945 45.7777 46.0836 45.3401 46.1164C44.8479 46.1601 44.4541 45.6351 44.476 45.2085C44.4978 44.7709 44.6947 44.1584 45.2198 44.1803Z" fill="white"/>
<path fill-rule="evenodd" clip-rule="evenodd" d="M81.6123 70.9718C81.7655 71.7922 81.0545 71.9235 80.6497 71.9563C80.1466 72 79.6215 71.5297 79.7309 70.9718C79.8075 70.5671 79.9387 69.9217 80.7372 70.0421C81.3607 70.1405 81.7217 70.3155 81.6123 70.9718Z" fill="white"/>
<path fill-rule="evenodd" clip-rule="evenodd" d="M63.4654 83.1546C62.82 83.1546 62.47 82.8045 62.4481 82.2139C62.4262 81.6888 62.7325 81.3607 63.2794 81.3279C63.7826 81.295 64.1983 81.481 64.2749 82.0279C64.3624 82.6405 64.0451 83.0124 63.4654 83.1546Z" fill="white"/>
<path fill-rule="evenodd" clip-rule="evenodd" d="M35.8126 48.6896C35.7361 49.3241 35.397 49.5756 34.8719 49.5319C34.3578 49.4881 33.9968 49.1709 34.0297 48.6459C34.0625 48.0443 34.4234 47.6833 35.0688 47.7817C35.6048 47.8583 35.7689 48.2849 35.8126 48.6896Z" fill="white"/>
<path fill-rule="evenodd" clip-rule="evenodd" d="M25.2462 4.37625C25.2571 4.94505 24.9727 5.27321 24.4477 5.31696C23.9117 5.36072 23.5835 5.03256 23.5179 4.51845C23.4632 3.98246 23.7476 3.64337 24.2945 3.61055C24.8305 3.58867 25.1477 3.87308 25.2462 4.37625Z" fill="white"/>
<path fill-rule="evenodd" clip-rule="evenodd" d="M46.8497 27.2695C47.4076 27.2805 47.7576 27.5539 47.8123 28.0899C47.856 28.6368 47.5388 28.9759 47.0028 29.0306C46.4668 29.0744 46.0949 28.79 46.0621 28.2321C46.0184 27.7071 46.3356 27.3789 46.8497 27.2695Z" fill="white"/>
<path fill-rule="evenodd" clip-rule="evenodd" d="M67.8517 60.2612C67.6658 59.8674 67.1079 59.6705 66.8454 60.0096C66.1563 60.9175 65.1718 60.644 64.2967 60.8191C63.5748 60.9613 61.9012 60.6659 62.3606 61.8363C62.7325 62.7771 63.3669 62.6895 63.2685 63.8818C63.1591 65.107 63.0278 66.3321 62.8966 67.5572C62.8309 68.2573 62.1637 70.5215 62.6122 71.0685C63.0388 71.5716 63.2685 69.1761 63.2794 68.8042C63.3232 67.6666 63.5857 66.5618 63.6295 65.4351C63.6623 64.5163 63.3232 63.3568 64.0123 62.5911C64.2748 62.3067 64.7889 61.9457 65.128 62.3176C65.3687 62.5802 65.0624 63.0943 65.2046 63.4115C64.592 64.4397 64.4061 65.5117 64.4936 66.7368C64.592 68.0713 64.7999 69.5042 63.9357 70.7403C64.3405 70.9153 64.7561 71.0575 65.2046 70.9044C64.8874 68.4213 65.1608 65.9602 65.4015 63.499C65.5109 62.438 66.2656 62.1754 67.1517 61.902C67.8408 61.6832 68.2018 61.005 67.8517 60.2612Z" fill="#CFD2D3"/>
<path fill-rule="evenodd" clip-rule="evenodd" d="M57.9414 67.6992C56.2459 68.7931 54.3863 69.154 52.2314 68.7165C53.555 70.7511 55.5786 70.401 57.9414 67.6992Z" fill="white"/>
<path fill-rule="evenodd" clip-rule="evenodd" d="M70.1488 83.5278C69.1534 83.3199 68.9784 84.0747 68.9456 84.4357C68.9019 84.9717 69.2738 85.6499 69.952 85.5405C70.3129 85.4858 71.0896 85.5077 71.013 84.6544C70.9474 83.9434 70.6301 83.5606 70.1488 83.5278Z" fill="white"/>
<path fill-rule="evenodd" clip-rule="evenodd" d="M35.9986 63.6724C36.1408 62.9286 35.5392 62.8411 34.9376 62.7098C34.0844 62.5129 34.1172 63.3333 34.0297 63.6724C33.9094 64.1537 34.325 64.7662 34.8501 64.7553C35.3423 64.7553 36.108 64.6569 35.9986 63.6724Z" fill="white"/>
<path fill-rule="evenodd" clip-rule="evenodd" d="M21.9537 40.0234C21.5053 40.2203 21.1224 40.7563 21.1771 41.161C21.2427 41.6095 21.5053 42.3533 22.3147 42.1346C22.7741 42.0033 23.2554 41.9814 23.2007 41.1392C23.1351 40.2641 22.5991 40.2531 21.9537 40.0234Z" fill="white"/>
<path fill-rule="evenodd" clip-rule="evenodd" d="M87.7707 54.7359C87.2456 54.714 86.9066 55.0969 86.9175 55.8188C86.9284 56.5845 87.4754 56.9017 88.066 56.8798C88.6567 56.858 89.2255 56.4314 89.1161 55.7532C89.0177 55.2172 88.7989 54.5609 87.7707 54.7359Z" fill="white"/>
<path fill-rule="evenodd" clip-rule="evenodd" d="M57.6789 24.4381C57.9523 24.0224 58.7837 24.2631 58.729 23.3224C58.6852 22.6332 58.3899 22.502 57.8211 22.3379C56.8804 22.0754 56.7819 22.9395 56.6835 23.3114C56.585 23.6724 57.0444 24.1974 57.6789 24.4381Z" fill="white"/>
<path fill-rule="evenodd" clip-rule="evenodd" d="M56.0162 60.2824C55.5896 60.0964 55.2395 59.9542 54.9004 59.7792C54.441 59.5386 53.9925 59.2761 53.5441 59.0245C53.194 58.8385 52.6033 58.6526 52.7893 59.2542C53.0846 60.2168 54.1347 60.3808 54.9989 60.6324C55.2942 60.7199 55.6333 60.8512 56.0162 60.2824Z" fill="white"/>
<path fill-rule="evenodd" clip-rule="evenodd" d="M34.9705 11.7719C34.2595 11.6735 34.0407 12.3079 34.0298 12.7127C34.0079 13.183 34.347 13.7299 35.0033 13.6424C35.5065 13.5768 35.9769 13.4893 35.944 12.7127C35.9112 11.9907 35.5174 11.8704 34.9705 11.7719Z" fill="white"/>
<path fill-rule="evenodd" clip-rule="evenodd" d="M23.9007 12.9844C23.2772 13.05 22.9162 13.411 22.8725 14.0126C22.8178 14.6798 23.2116 15.0189 23.846 14.9861C24.4367 14.9642 24.8852 14.647 24.907 14.0017C24.9289 13.3563 24.5023 13.0719 23.9007 12.9844Z" fill="white"/>
<path fill-rule="evenodd" clip-rule="evenodd" d="M45.2198 44.235C44.6947 44.2131 44.4978 44.8147 44.476 45.2741C44.4541 45.7007 44.8479 46.2258 45.3401 46.182C45.7777 46.1492 46.4449 46.1492 46.3902 45.3069C46.3355 44.6178 45.9745 44.3772 45.2198 44.235Z" fill="white"/>
<path fill-rule="evenodd" clip-rule="evenodd" d="M81.6124 71.0148C81.7218 70.3585 81.3608 70.1835 80.7373 70.085C79.9388 69.9647 79.8075 70.6101 79.731 71.0148C79.6325 71.5617 80.1466 72.043 80.6498 71.9993C81.0545 71.9665 81.7655 71.8352 81.6124 71.0148Z" fill="white"/>
<path fill-rule="evenodd" clip-rule="evenodd" d="M63.4654 83.1976C64.0451 83.0554 64.3623 82.6834 64.2748 82.0709C64.1983 81.524 63.7935 81.338 63.2794 81.3708C62.7434 81.4036 62.4262 81.7318 62.4481 82.2568C62.4809 82.8585 62.82 83.2085 63.4654 83.1976Z" fill="white"/>
<path fill-rule="evenodd" clip-rule="evenodd" d="M35.8127 48.7326C35.7689 48.3169 35.5939 47.9013 35.0579 47.8247C34.4235 47.7262 34.0516 48.0872 34.0188 48.6888C33.9969 49.2139 34.3579 49.5311 34.861 49.5749C35.408 49.6296 35.7361 49.367 35.8127 48.7326Z" fill="white"/>
<path fill-rule="evenodd" clip-rule="evenodd" d="M25.2462 4.43094C25.1478 3.92776 24.8306 3.64336 24.3055 3.66524C23.7586 3.68712 23.4742 4.02621 23.5289 4.5622C23.5836 5.07631 23.9227 5.40446 24.4477 5.36071C24.9728 5.31696 25.2572 4.9888 25.2462 4.43094Z" fill="white"/>
<path fill-rule="evenodd" clip-rule="evenodd" d="M46.8498 27.3242C46.3357 27.4336 46.0294 27.7618 46.0622 28.2868C46.095 28.8337 46.4669 29.1291 47.0029 29.0853C47.5389 29.0416 47.8561 28.7025 47.8124 28.1555C47.7577 27.6086 47.4077 27.3352 46.8498 27.3242Z" fill="white"/>
<path fill-rule="evenodd" clip-rule="evenodd" d="M59.604 85.9026C59.604 87.259 58.5102 88.3528 57.1538 88.3528C55.7974 88.3528 54.6926 87.259 54.6926 85.9026C54.6926 84.5462 55.7974 83.4414 57.1538 83.4414C58.5102 83.4414 59.604 84.5462 59.604 85.9026Z" fill="white"/>
<path fill-rule="evenodd" clip-rule="evenodd" d="M61.5621 70.1502C62.3606 70.3471 63.1591 70.544 63.9467 70.7299C64.3514 70.9049 64.7671 71.0471 65.2156 70.894C65.9266 70.7299 66.8563 71.1893 67.272 70.1721C68.6284 70.0299 69.0987 70.6315 68.8362 71.9441C68.519 73.5411 68.4315 75.0725 66.3969 75.8054C65.4562 76.1445 65.2265 78.004 63.5967 77.8728C62.0543 77.7415 61.8574 76.1007 60.9167 75.5101C59.0244 74.3178 59.0681 72.9395 59.5494 71.1018C59.8885 69.7673 60.5558 69.7673 61.5621 70.1502Z" fill="#9BA9B4"/>
<path fill-rule="evenodd" clip-rule="evenodd" d="M73.3647 59.5826C74.1851 59.3529 75.0055 59.0903 75.8369 58.8934C76.2963 58.7841 76.6026 59.0903 76.6901 59.506C76.8104 60.1295 76.3072 60.031 75.9462 60.042C75.1149 60.0529 74.2726 60.042 73.4413 60.042C73.4194 59.8888 73.3976 59.7357 73.3647 59.5826Z" fill="white"/>
<path fill-rule="evenodd" clip-rule="evenodd" d="M69.8752 52.9755C70.1159 52.4724 70.3456 51.9583 70.6191 51.466C70.7613 51.1926 71.0566 51.1707 71.2972 51.3129C71.6582 51.5317 71.3957 51.7285 71.2316 51.9145C70.8706 52.3302 70.4987 52.7349 70.1378 53.1506C70.0503 53.0849 69.9628 53.0302 69.8752 52.9755Z" fill="white"/>
<path fill-rule="evenodd" clip-rule="evenodd" d="M69.908 27.1619C69.908 28.2667 69.0111 29.1637 67.9063 29.1637C66.8015 29.1637 65.9045 28.2667 65.9045 27.1619C65.9045 26.0571 66.8015 25.1602 67.9063 25.1602C69.0111 25.1602 69.908 26.0571 69.908 27.1619Z" fill="white"/>
<path fill-rule="evenodd" clip-rule="evenodd" d="M13.2247 39.9939C13.2247 41.0987 12.3277 41.9957 11.2229 41.9957C10.1182 41.9957 9.22119 41.0987 9.22119 39.9939C9.22119 38.8891 10.1182 37.9922 11.2229 37.9922C12.3277 37.9922 13.2247 38.8891 13.2247 39.9939Z" fill="white"/>
</g>
<defs>
<clipPath id="clip0">
<rect width="100" height="171.811" fill="white"/>
</clipPath>
</defs>
</svg>
