<svg width="24" height="24" viewBox="0 0 24 24" fill="none" xmlns="http://www.w3.org/2000/svg">
<path d="M20.4466 18.9226L15.2146 13.5106C15.1422 13.4477 15.0615 13.3952 14.9746 13.3546C15.8086 12.1178 16.152 10.6148 15.9379 9.13856C15.7237 7.66234 14.9673 6.31881 13.8162 5.37005C12.6652 4.42129 11.2019 3.93531 9.71198 4.00692C8.22201 4.07853 6.81215 4.7026 5.75737 5.75737C4.7026 6.81215 4.07853 8.22201 4.00692 9.71198C3.93531 11.2019 4.42129 12.6651 5.37005 13.8162C6.31881 14.9673 7.66234 15.7237 9.13856 15.9378C10.6148 16.152 12.1179 15.8086 13.3546 14.9746C13.3941 15.0519 13.4425 15.1244 13.4986 15.1906L18.7306 20.5666C18.9555 20.7901 19.2596 20.9156 19.5766 20.9156C19.8936 20.9156 20.1978 20.7901 20.4226 20.5666C20.6351 20.3471 20.756 20.0548 20.7604 19.7494C20.7649 19.4439 20.6526 19.1482 20.4466 18.9226ZM9.98261 13.6306C9.27059 13.6306 8.57458 13.4195 7.98256 13.0239C7.39055 12.6283 6.92912 12.0661 6.65664 11.4083C6.38417 10.7505 6.31288 10.0266 6.45178 9.32828C6.59069 8.62995 6.93357 7.9885 7.43704 7.48503C7.94051 6.98156 8.58196 6.63868 9.28029 6.49978C9.97862 6.36087 10.7025 6.43216 11.3603 6.70463C12.0181 6.97711 12.5803 7.43854 12.9759 8.03056C13.3715 8.62257 13.5826 9.3186 13.5826 10.0306C13.5826 10.9854 13.2033 11.9011 12.5282 12.5762C11.8531 13.2513 10.9374 13.6306 9.98261 13.6306Z" fill="#5B6670"/>
</svg>
