<svg width="32" height="33" viewBox="0 0 32 33" fill="none" xmlns="http://www.w3.org/2000/svg">
<g clip-path="url(#clip0)">
<path d="M15.9716 26.3915C22.9886 26.3915 28.6771 20.703 28.6771 13.686C28.6771 6.66892 22.9886 0.980469 15.9716 0.980469C8.9545 0.980469 3.26605 6.66892 3.26605 13.686C3.26605 20.703 8.9545 26.3915 15.9716 26.3915Z" fill="#4858CC" stroke="#F4F5F7"/>
<path d="M5.67878 21.1133L1.30713 28.6913L6.40949 28.4204L8.7276 32.9747L12.7717 25.9637C9.87406 25.2141 7.38587 23.4692 5.67878 21.1133Z" fill="#4858CC"/>
<path d="M26.29 21.0781C24.5955 23.4403 22.1073 25.1915 19.2159 25.9537L23.2726 32.9773L25.5907 28.423L30.6931 28.6939L26.29 21.0781Z" fill="#4858CC"/>
<path d="M15.9715 22.8955C21.0578 22.8955 25.181 18.7722 25.181 13.686C25.181 8.59977 21.0578 4.47656 15.9715 4.47656C10.8853 4.47656 6.76208 8.59977 6.76208 13.686C6.76208 18.7722 10.8853 22.8955 15.9715 22.8955Z" fill="#919BE0"/>
<path d="M22.2833 12.6881C22.5668 12.4109 22.4093 11.9259 22.0188 11.8692L18.3841 11.3401C18.2266 11.3149 18.0943 11.2204 18.0251 11.0755L16.3999 7.78101C16.2235 7.42196 15.7132 7.42196 15.5369 7.78101L13.918 11.0755C13.8487 11.2141 13.7101 11.3149 13.5589 11.3401L9.92427 11.8692C9.53372 11.9259 9.37624 12.4109 9.6597 12.6881L12.2865 15.2519C12.3999 15.3653 12.4503 15.5227 12.4251 15.6739L11.8077 19.2897C11.7384 19.6802 12.1542 19.9826 12.5069 19.7936L15.7573 18.0865C15.8959 18.0109 16.066 18.0109 16.2046 18.0865L19.455 19.7936C19.8077 19.9763 20.2172 19.6802 20.1542 19.2897L19.5306 15.6739C19.5054 15.5164 19.5558 15.359 19.6691 15.2519L22.2833 12.6881Z" fill="#F4F5F7"/>
</g>
<defs>
<clipPath id="clip0">
<rect width="32" height="32" fill="white" transform="translate(0 0.980469)"/>
</clipPath>
</defs>
</svg>
