<svg width="89" height="91" viewBox="0 0 89 91" fill="none" xmlns="http://www.w3.org/2000/svg">
<path d="M2.17186 43.4999C1.83646 47.9571 2.19686 52.5429 3.33736 57.1172C9.07426 80.1269 32.3779 94.1289 55.3874 88.3919C78.397 82.6549 92.3992 59.3517 86.6622 36.342C85.5217 31.7677 83.6867 27.5495 81.2983 23.7715" stroke="#D3D7F3" stroke-width="2" stroke-linecap="round"/>
<path d="M10.9869 30.5971C10.5989 31.4102 10.0612 32.0138 9.37402 32.408C8.68882 32.7978 7.91192 32.9793 7.04332 32.9524C6.17032 32.9234 5.26462 32.685 4.32612 32.2371L4.18992 32.172C3.25142 31.7242 2.49752 31.1732 1.92822 30.5192C1.35662 29.8588 1.00792 29.1375 0.882018 28.3552C0.751918 27.571 0.880818 26.7723 1.26892 25.9592C1.67962 25.0986 2.22862 24.4765 2.91612 24.0931C3.60132 23.7032 4.37632 23.5315 5.24092 23.5777C6.10132 23.622 7.00072 23.868 7.93922 24.3159L8.07542 24.3809C9.01392 24.8288 9.77312 25.3743 10.3529 26.0174C10.9284 26.6585 11.2802 27.3679 11.4081 28.1458C11.538 28.9193 11.3976 29.7365 10.9869 30.5971ZM9.92302 30.0893C10.2222 29.4623 10.308 28.8819 10.1803 28.3484C10.0547 27.8106 9.75632 27.3177 9.28512 26.8698C8.80952 26.4198 8.20202 26.0184 7.46242 25.6654L7.31322 25.5942C6.57802 25.2433 5.88922 25.0287 5.24682 24.9505C4.60232 24.8659 4.03142 24.9439 3.53422 25.1846C3.03272 25.4231 2.63442 25.8516 2.33922 26.4701C2.06882 27.0367 1.99762 27.5921 2.12552 28.1363C2.25342 28.6805 2.54782 29.1874 3.00872 29.6569C3.46532 30.1244 4.05902 30.5326 4.78992 30.8814L4.93912 30.9526C5.67432 31.3035 6.37162 31.5115 7.03092 31.5765C7.68582 31.6395 8.26502 31.5495 8.76862 31.3067C9.26782 31.0617 9.65262 30.6559 9.92302 30.0893Z" fill="#4858CC"/>
<path d="M14.8546 23.3348L14.1662 22.7463L14.7745 21.7249L10.5398 18.1051L9.47488 19.3509L10.3283 20.2222L9.54358 21.1402L7.78418 19.6362L12.5669 14.041L14.3263 15.545L13.537 16.4684L12.5435 15.761L11.46 17.0287L15.6946 20.6485L16.6089 19.8886L17.2974 20.4771L14.8546 23.3348Z" fill="#4858CC"/>
<path d="M19.6949 17.6004L19.1745 16.8591L20.0178 16.0211L16.8253 11.4733L15.7506 11.9818L15.2261 11.2346L18.6914 8.80196C19.5308 8.21266 20.2851 7.90276 20.9544 7.87206C21.621 7.83736 22.1594 8.11226 22.5697 8.69666C22.7789 8.99476 22.876 9.32486 22.8608 9.68676C22.8427 10.0449 22.7117 10.4004 22.4676 10.7532C22.9326 10.5732 23.3719 10.54 23.7854 10.6537C24.1962 10.7635 24.5227 10.991 24.765 11.3361C25.1836 11.9323 25.2825 12.5362 25.0619 13.1477C24.8452 13.7565 24.3466 14.3348 23.5661 14.8828L19.6949 17.6004ZM19.2316 12.4364L20.5847 11.4866C21.5731 10.7927 21.8622 10.1536 21.4519 9.56906C21.0252 8.96116 20.3156 9.00546 19.3233 9.70216L17.976 10.6479L19.2316 12.4364ZM21.1851 15.2193L22.9383 13.9886C23.8091 13.3773 24.0228 12.7559 23.5795 12.1244C23.3675 11.8224 23.0938 11.6662 22.7585 11.6556C22.4232 11.645 22.0399 11.7912 21.6084 12.0941L19.8552 13.3249L21.1851 15.2193Z" fill="#4858CC"/>
<path d="M30.8154 11.0218C30.1449 11.281 29.5028 11.3545 28.8892 11.2424C28.2738 11.1258 27.7244 10.8475 27.2409 10.4076C26.7619 9.96602 26.3841 9.38762 26.1076 8.67252L25.9936 8.37752C25.7275 7.68912 25.6307 7.02012 25.7032 6.37042C25.7784 5.71452 25.9902 5.13942 26.3386 4.64502C26.6897 4.14452 27.1446 3.78622 27.7033 3.57022C28.6777 3.19352 29.5293 3.20342 30.258 3.59982C30.9912 3.99462 31.5478 4.68362 31.9281 5.66692L32.2468 6.49172L27.5402 8.31132L27.533 8.35262C27.816 9.04472 28.2146 9.55082 28.7289 9.87092C29.2414 10.1866 29.8038 10.226 30.4162 9.98922C30.8632 9.81642 31.2301 9.60272 31.5169 9.34792C31.8065 9.08702 32.031 8.79722 32.1904 8.47872L33.0385 9.13732C32.876 9.48782 32.6139 9.83322 32.2522 10.1734C31.8933 10.5074 31.4143 10.7902 30.8154 11.0218ZM27.1813 7.26322L30.5269 5.96982L30.4595 5.79552C30.259 5.27692 29.9528 4.89702 29.5409 4.65542C29.129 4.41392 28.6504 4.39862 28.1051 4.60942C27.6626 4.78052 27.3574 5.11432 27.1897 5.61072C27.0203 6.10262 27.0087 6.64403 27.1549 7.23493L27.1813 7.26322Z" fill="#4858CC"/>
<path d="M40.3798 8.30504L40.2763 7.40524L41.4172 7.07134L41.2266 5.41454C40.7092 5.61404 40.134 5.75014 39.5008 5.82304C38.5677 5.93044 37.8087 5.76934 37.2238 5.33984C36.6389 4.91034 36.2912 4.21474 36.1805 3.25304L36.0457 2.08184L34.8587 2.01594L34.7551 1.11614L38.4899 0.686237L38.5935 1.58604L37.4525 1.91994L37.5873 3.09114C37.6585 3.71004 37.8418 4.14954 38.137 4.40984C38.4371 4.66964 38.8489 4.76924 39.3726 4.70904C39.9772 4.63944 40.5522 4.50084 41.0975 4.29344L40.7819 1.55124L39.5949 1.48524L39.4905 0.578337L43.2253 0.148438L43.3297 1.05534L42.1887 1.38924L42.824 6.90944L44.011 6.97534L44.1146 7.87514L40.3798 8.30504Z" fill="#4858CC"/>
<path d="M48.3322 8.20972C47.5305 8.09402 46.9491 7.81162 46.5879 7.36242C46.2273 6.90852 46.0984 6.32582 46.2011 5.61442C46.3065 4.88402 46.6898 4.34132 47.3511 3.98652C48.0131 3.62682 48.8753 3.52382 49.9377 3.67712L51.3109 3.87532L51.4197 3.12112C51.4868 2.65632 51.3965 2.27532 51.1489 1.97812C50.906 1.68162 50.5285 1.49642 50.0162 1.42242C49.6937 1.37592 49.408 1.37582 49.1593 1.42222C48.9111 1.46392 48.68 1.53942 48.4656 1.64892L48.1612 2.70162L47.0798 2.54562L47.3344 0.781221C48.1138 0.312621 49.0679 0.159922 50.1967 0.322822C51.1311 0.457622 51.8318 0.786322 52.2984 1.30892C52.7656 1.83132 52.9393 2.50752 52.8194 3.33762L52.2843 7.04432C52.2698 7.14392 52.2558 7.24122 52.2421 7.33602C52.2332 7.43152 52.2266 7.52742 52.2224 7.62372L52.9581 7.80972L52.8288 8.70622L50.8153 8.41562C50.7908 8.01502 50.792 7.65452 50.8189 7.33402C50.4986 7.64122 50.1177 7.88152 49.6762 8.05512C49.2403 8.22452 48.7922 8.27612 48.3322 8.20972ZM48.7079 7.06562C49.1727 7.13272 49.6133 7.08252 50.0297 6.91502C50.446 6.74762 50.7598 6.51922 50.971 6.23022L51.1722 4.83572L49.7493 4.63042C49.1043 4.53732 48.5982 4.62162 48.2312 4.88332C47.8642 5.14512 47.6533 5.46562 47.5985 5.84512C47.4986 6.53762 47.8684 6.94442 48.7079 7.06562Z" fill="#4858CC"/>
<path d="M58.1858 10.4725C57.5182 10.2061 56.9973 9.82321 56.6242 9.32331C56.2526 8.81911 56.0396 8.24121 55.9847 7.58991C55.9346 6.94031 56.0512 6.25951 56.3351 5.54731L56.4528 5.2535C56.7263 4.568 57.1105 4.01201 57.6059 3.58531C58.1071 3.15601 58.6537 2.87881 59.2458 2.75361C59.8436 2.62581 60.4205 2.67301 60.9772 2.89491C61.9474 3.28211 62.5646 3.86891 62.8284 4.65541C63.097 5.44361 63.036 6.32731 62.6454 7.30651L62.3179 8.1276L57.6306 6.2577L57.5971 6.28311C57.3334 6.98281 57.2811 7.62491 57.4401 8.20941C57.6012 8.78931 57.9864 9.20101 58.5958 9.44441C59.0409 9.62201 59.4554 9.71501 59.8388 9.72371C60.2284 9.72961 60.5903 9.67001 60.9239 9.54511L61.0971 10.6049C60.7391 10.7512 60.3121 10.8258 59.8159 10.8288C59.3255 10.8293 58.7819 10.7106 58.1858 10.4725ZM58.0812 5.24541L61.4123 6.57481L61.4815 6.40121C61.6879 5.88491 61.722 5.3981 61.5846 4.9408C61.4472 4.4835 61.1071 4.14651 60.5638 3.92991C60.1236 3.75401 59.6726 3.79091 59.212 4.04051C58.7528 4.28561 58.3762 4.67431 58.081 5.20671L58.0812 5.24541Z" fill="#4858CC"/>
<path d="M63.0005 11.8328L63.5578 11.1193L64.6053 11.6822L68.0269 7.30448L67.2278 6.42428L67.79 5.70508L70.1518 7.55098L68.4975 13.7759L68.5313 13.8025L74.1784 10.6986L76.5003 12.5137L75.9381 13.2329L74.8911 12.6699L71.4689 17.0477L72.2681 17.9279L71.7102 18.6415L68.7483 16.3262L69.3062 15.6126L70.3532 16.1756L72.996 12.7946L72.9714 12.7566L67.7573 15.5514L66.9871 14.9494L68.4772 9.09798L68.4343 9.08278L65.7205 12.5544L66.5196 13.4346L65.9623 14.148L63.0005 11.8328Z" fill="#4858CC"/>
<path d="M13.1211 64.0075C12.8946 63.5942 12.7538 63.1792 12.6987 62.7631C12.6437 62.3469 12.6911 61.9683 12.8408 61.6267C12.994 61.283 13.2627 61.0129 13.6466 60.8161L13.6839 60.8093L14.2223 61.7915C13.9561 61.9375 13.7884 62.1797 13.7189 62.5182C13.6496 62.8573 13.7146 63.2083 13.9143 63.5726C14.1197 63.9475 14.3648 64.1911 14.6496 64.3034C14.938 64.4142 15.2117 64.3984 15.4707 64.2561C15.7754 64.0891 15.948 63.8767 15.9882 63.6175C16.0304 63.3624 15.9469 63.0437 15.7377 62.6622L15.1964 61.6744L16.0369 61.2139L16.5781 62.2011C16.7777 62.5654 16.9881 62.7873 17.209 62.8662C17.4355 62.9469 17.6801 62.9157 17.9428 62.7718C18.1808 62.641 18.3334 62.4417 18.4 62.1729C18.4667 61.904 18.4002 61.5874 18.2006 61.2231C18.022 60.8972 17.7866 60.6714 17.4941 60.5448C17.2015 60.4182 16.9327 60.4221 16.6876 60.5565L16.1492 59.5742L16.1749 59.5464C16.493 59.3539 16.8254 59.2832 17.1723 59.3345C17.5245 59.3873 17.8609 59.54 18.1814 59.7923C18.5019 60.0447 18.7745 60.3758 18.9991 60.7857C19.3638 61.4509 19.5052 62.0497 19.4234 62.5815C19.3452 63.1118 19.0416 63.5219 18.5128 63.8118C18.2572 63.952 17.9803 64.0034 17.6822 63.9664C17.3842 63.9295 17.098 63.8061 16.8239 63.597C16.9516 64.3781 16.6916 64.9467 16.0438 65.3017C15.5115 65.5937 14.9824 65.6169 14.4567 65.3725C13.9329 65.1314 13.4876 64.676 13.1211 64.0075Z" fill="#4858CC"/>
<path d="M18.0678 71.3201C17.5957 70.8373 17.354 70.3557 17.3425 69.8756C17.3338 69.3929 17.5435 68.9417 17.9718 68.5233C18.4115 68.0931 18.9399 67.9279 19.5573 68.0281C20.1775 68.1257 20.8003 68.4939 21.4257 69.1332L22.2341 69.9602L22.688 69.5158C22.9679 69.2424 23.101 68.9443 23.0878 68.6227C23.0772 68.3036 22.9212 67.9897 22.6196 67.6812C22.4297 67.487 22.2406 67.342 22.0525 67.2467C21.8672 67.1487 21.676 67.082 21.4787 67.0458L20.744 67.5881L20.1074 66.937L21.1695 65.8984C21.9226 65.9831 22.6314 66.3652 23.2959 67.0447C23.846 67.6074 24.1432 68.1794 24.1876 68.7619C24.2318 69.3439 24.0042 69.8792 23.5045 70.3679L21.2733 72.5502C21.2134 72.6088 21.1549 72.6663 21.0976 72.7217C21.0434 72.7807 20.9905 72.8407 20.939 72.9022L21.3316 73.3979L20.792 73.9257L19.6067 72.7135C19.7934 72.4362 19.9768 72.1983 20.1569 71.9998C19.7893 72.0408 19.4155 72.007 19.0355 71.8982C18.6611 71.7898 18.3386 71.5971 18.0678 71.3201ZM18.8959 70.7533C19.1694 71.0328 19.4863 71.2225 19.8468 71.3229C20.2071 71.4227 20.5304 71.4306 20.8166 71.3466L21.656 70.5254L20.8183 69.669C20.4386 69.2807 20.061 69.0802 19.6856 69.0676C19.3101 69.055 19.0081 69.1601 18.7797 69.3833C18.3629 69.7913 18.4015 70.2476 18.8959 70.7533Z" fill="#4858CC"/>
<path d="M28.9436 79.7216L29.201 79.012L30.1761 79.1874L31.755 74.8344L30.8944 74.3441L31.1538 73.6289L34.0989 74.697L33.8395 75.4121L32.8644 75.2368L32.2475 76.9375L32.8331 77.1499L34.7247 75.9052C35.0695 75.6694 35.3807 75.5083 35.6584 75.422C35.9398 75.3373 36.2175 75.3446 36.4915 75.4438C36.6642 75.5063 36.7987 75.5809 36.8951 75.6668C36.9926 75.7487 37.0964 75.8606 37.2064 76.0026L36.7751 76.7C36.6231 76.6153 36.5346 76.5659 36.5099 76.5531C36.4886 76.5407 36.4405 76.5211 36.3655 76.4943C36.2265 76.4436 36.0711 76.4444 35.8991 76.4968C35.731 76.5507 35.5711 76.6285 35.4194 76.7308L33.6888 77.8298L34.7594 80.8692L35.4911 81.2934L35.2337 82.0034L33.7527 81.4664L32.6292 78.1338L31.9085 77.8723L31.2854 79.5898L32.1462 80.0806L31.8887 80.7897L28.9436 79.7216Z" fill="#4858CC"/>
<path d="M40.9464 83.1923C40.2728 83.1533 39.77 82.9603 39.4382 82.6123C39.1066 82.2613 38.9581 81.7863 38.993 81.1883C39.0287 80.5742 39.3086 80.0967 39.8325 79.7549C40.3566 79.4093 41.0653 79.263 41.9583 79.3147L43.1125 79.3822L43.1493 78.7478C43.172 78.3571 43.0701 78.0475 42.8435 77.8183C42.6207 77.5893 42.2941 77.4621 41.8636 77.4373C41.5925 77.4215 41.3552 77.4414 41.152 77.4978C40.9489 77.5497 40.7623 77.6291 40.5922 77.7354L40.414 78.6307L39.505 78.5779L39.5913 77.0948C40.2052 76.6503 40.9866 76.4561 41.9354 76.511C42.7209 76.5573 43.3258 76.7801 43.7506 77.1811C44.1753 77.5816 44.3674 78.1312 44.3267 78.8285L44.1453 81.9443C44.1405 82.0283 44.1357 82.1093 44.131 82.1893C44.1305 82.2693 44.1318 82.3493 44.1351 82.4293L44.7592 82.5323L44.7154 83.2853L43.0229 83.1873C42.9743 82.8563 42.9496 82.5563 42.9492 82.2883C42.705 82.5663 42.4059 82.7933 42.0515 82.9683C41.7016 83.1403 41.3333 83.2153 40.9464 83.1923ZM41.1774 82.2153C41.5681 82.2383 41.9303 82.1653 42.2641 81.9963C42.598 81.8283 42.8424 81.6163 42.9972 81.3613L43.0654 80.1892L41.8694 80.1195C41.3273 80.0884 40.9131 80.1942 40.6269 80.4375C40.3407 80.6808 40.1882 80.9616 40.1698 81.2813C40.1358 81.8633 40.4717 82.1743 41.1774 82.2153Z" fill="#4858CC"/>
<path d="M53.0775 82.271L52.8921 81.5389L53.7974 81.1369L53.4559 79.7897C53.0509 80.012 52.5909 80.188 52.076 80.3183C51.3172 80.5107 50.6725 80.4621 50.1418 80.1722C49.611 79.8822 49.2466 79.3466 49.0484 78.5647L48.807 77.6121L47.8194 77.6896L47.634 76.9582L50.6709 76.1884L50.8562 76.9198L49.951 77.3225L50.1923 78.2745C50.3199 78.7781 50.52 79.1208 50.7928 79.3031C51.0693 79.4839 51.4207 79.5209 51.8464 79.4128C52.3381 79.2884 52.7976 79.1099 53.2249 78.8781L52.6598 76.6484L51.6722 76.7258L51.4852 75.9879L54.5222 75.2188L54.709 75.956L53.8037 76.3581L54.9412 80.8468L55.9289 80.7693L56.1144 81.5009L53.0775 82.271Z" fill="#4858CC"/>
<path d="M62.5298 78.6922C62.0147 78.9983 61.4973 79.1475 60.9774 79.14C60.4556 79.1291 59.9656 78.9763 59.5075 78.6815C59.0529 78.3851 58.6625 77.9616 58.3365 77.4126L58.202 77.1857C57.8882 76.657 57.7161 76.1202 57.686 75.5764C57.6571 75.0267 57.7518 74.5252 57.9697 74.0707C58.1891 73.6108 58.5134 73.2536 58.9427 72.9987C59.6915 72.5547 60.3926 72.445 61.0463 72.6702C61.7033 72.8932 62.256 73.3826 62.7043 74.1381L63.0804 74.772L59.4639 76.9178L59.4637 76.9526C59.7918 77.4821 60.1894 77.8432 60.6563 78.0353C61.121 78.2235 61.5887 78.1784 62.0592 77.8992C62.4026 77.6954 62.6745 77.4689 62.875 77.2198C63.077 76.9652 63.2216 76.6965 63.3085 76.4125L64.0965 76.8368C64.0113 77.147 63.8436 77.4669 63.5935 77.7967C63.3447 78.1211 62.9901 78.4194 62.5298 78.6922ZM59.024 76.1058L61.5947 74.5804L61.5152 74.4466C61.2789 74.0485 60.9748 73.7785 60.6028 73.6367C60.231 73.4955 59.8355 73.5486 59.4165 73.7972C59.0765 73.9989 58.8719 74.3154 58.8027 74.7468C58.7313 75.1742 58.7966 75.6207 58.9984 76.0862L59.024 76.1058Z" fill="#4858CC"/>
<path d="M69.8858 73.1367C69.4751 73.5558 69.0207 73.8265 68.5222 73.9476C68.0208 74.0663 67.5123 74.0408 66.9964 73.871C66.4806 73.7018 65.9942 73.3933 65.5377 72.947L65.3577 72.7706C64.9182 72.341 64.6053 71.8727 64.419 71.366C64.2327 70.8599 64.1905 70.3522 64.2922 69.8426C64.394 69.3336 64.6557 68.863 65.0774 68.4316C65.4432 68.0578 65.8245 67.7915 66.2208 67.6313C66.6201 67.4692 67.0202 67.3966 67.4214 67.4148L68.5555 68.483L67.9105 69.1421L66.9589 68.4961C66.764 68.4954 66.5654 68.5386 66.3631 68.6257C66.1606 68.7122 65.9631 68.8544 65.7703 69.051C65.5247 69.3025 65.3825 69.5966 65.3438 69.9331C65.3078 70.2664 65.3623 70.6075 65.5074 70.9563C65.6523 71.3045 65.8776 71.6282 66.183 71.9269L66.3629 72.1033C66.8709 72.6 67.3823 72.8853 67.8972 72.9592C68.409 73.0295 68.8507 72.8752 69.2221 72.4956C69.5013 72.2104 69.655 71.8964 69.6823 71.5545C69.7096 71.2126 69.6073 70.8861 69.3748 70.5749L70.1165 69.8172L70.1504 69.8341C70.4019 70.1077 70.5737 70.4289 70.6651 70.798C70.7565 71.1672 70.7442 71.554 70.6272 71.9593C70.5098 72.3584 70.2626 72.7513 69.8858 73.1367Z" fill="#4858CC"/>
<path d="M74.8583 66.9314L74.1977 66.5664L74.5232 65.6305L70.4593 63.3855L69.799 64.5812L70.6418 65.1493L70.1552 66.0299L68.4668 65.0974L71.4326 59.7285L73.1211 60.661L72.6315 61.5473L71.7021 61.1362L71.0299 62.3525L75.0938 64.5975L75.7127 63.8243L76.3733 64.1894L74.8583 66.9314Z" fill="#4858CC"/>
<path d="M78.7675 59.1847L78.03 59.0235L78.0747 58.0336L73.5514 57.0443L73.179 57.9622L72.4355 57.7998L73.1895 54.353C73.3719 53.518 73.6603 52.9024 74.0533 52.506C74.4429 52.1086 74.9283 51.9737 75.5095 52.1012C75.8062 52.1657 76.0518 52.3137 76.2464 52.544C76.4371 52.774 76.5573 53.0658 76.6064 53.4202C76.7904 53.0475 77.0415 52.7794 77.3593 52.6161C77.6728 52.4513 78.0018 52.4065 78.3449 52.4821C78.938 52.6118 79.3395 52.9264 79.5488 53.4261C79.759 53.9218 79.7797 54.5577 79.6098 55.3341L78.7675 59.1847ZM75.571 56.2778L75.865 54.9319C76.0802 53.9489 75.8968 53.3934 75.3158 53.2665C74.7113 53.134 74.3008 53.562 74.0848 54.5489L73.7918 55.8888L75.571 56.2778ZM78.3384 56.8831L78.7204 55.1392C78.9097 54.2733 78.6905 53.7716 78.062 53.6343C77.7617 53.5682 77.5058 53.627 77.2939 53.8094C77.0823 53.9924 76.9296 54.2979 76.8356 54.7272L76.4542 56.471L78.3384 56.8831Z" fill="#4858CC"/>
<path d="M80.5454 45.9455C80.5899 46.5426 80.4892 47.069 80.2436 47.5241C79.9932 47.9753 79.6295 48.3372 79.1536 48.6088C78.6735 48.8815 78.1147 49.0417 77.4774 49.0893L77.3458 49.0994C76.7091 49.1469 76.1347 49.072 75.6234 48.8745C75.1076 48.6769 74.6924 48.3733 74.3774 47.9645C74.0621 47.5519 73.8821 47.0505 73.8383 46.4614C73.793 45.8641 73.8956 45.3399 74.1465 44.8884C74.3965 44.4331 74.7597 44.0694 75.2356 43.7974C75.712 43.5253 76.2702 43.3653 76.9118 43.317L77.0428 43.3072C77.6844 43.2589 78.2625 43.3337 78.7777 43.5313C79.2891 43.7291 79.7005 44.0326 80.0117 44.4417C80.323 44.8508 80.5005 45.3523 80.5454 45.9455ZM79.625 46.0144C79.5834 45.4571 79.3282 45.0498 78.8608 44.7925C78.3927 44.5353 77.8164 44.4325 77.1313 44.484L76.9998 44.4938C76.5462 44.5279 76.1466 44.6241 75.8022 44.7821C75.4532 44.9365 75.1869 45.1487 75.0032 45.4187C74.8153 45.6892 74.7356 46.0135 74.7641 46.3918C74.7917 46.7662 74.9195 47.0732 75.1453 47.3121C75.3676 47.5519 75.6628 47.7217 76.0305 47.8222C76.3945 47.923 76.8037 47.9569 77.2579 47.9227L77.3888 47.9128C78.074 47.8615 78.6287 47.6751 79.0533 47.3549C79.4777 47.031 79.6678 46.5841 79.625 46.0144Z" fill="#4858CC"/>
</svg>
