<svg width="466" height="434" viewBox="0 0 466 434" fill="none" xmlns="http://www.w3.org/2000/svg">
<path d="M232.059 341.022L262.498 382.356L266.873 362.755C266.873 362.755 283.877 389.464 313.84 407.347C343.803 425.229 358.741 433.809 358.741 433.809L342.733 390.089L425.881 429.812L368.406 351.159L465.476 358.441C465.476 358.441 378.583 305.186 368.739 302.643C358.895 300.099 436.492 291.229 436.492 291.229C436.492 291.229 387.647 272.822 356.371 269.051C325.083 265.282 324.775 267.191 324.775 267.191L384.877 251.092C384.877 251.092 314.456 250.692 302.12 252.1C289.796 253.506 271.874 258.621 271.874 258.621L232.059 341.022Z" fill="#FF6B00"/>
<path d="M208.085 151.1L243.186 232.142L262.925 225.197L247.662 129.135L216.784 136.701L208.085 151.1Z" fill="#979797"/>
<path fill-rule="evenodd" clip-rule="evenodd" d="M185.33 224.598L176.955 221.906L92.822 188.815L117.972 162.204L0.334961 161.521L63.2245 256.906L73.4667 222.859L198.064 316.412L231.191 341.481L251.922 302.564L274.408 256.799L185.33 224.598Z" fill="#8B58CC"/>
<path d="M154.076 121.381C154.076 121.381 142.176 119.698 133.793 99.8335C125.42 79.9685 124.315 70.6145 123.513 65.4505C122.711 60.2856 122.363 55.7459 122.363 55.7459L146.159 49.9375L161.092 93.8385C161.092 93.8385 164.586 78.2275 181.463 65.9785C193.832 57.0025 207.824 56.2392 217.393 56.5195C230.859 56.9087 252.255 60.6323 269.222 85.8705C285.345 109.849 282.223 129.911 277.484 141.384C268.766 162.494 250.583 163.551 250.583 163.551L244.548 149.674L247.786 116.009L198.899 105.61L154.076 121.381Z" fill="#8B58CC"/>
<path d="M251.69 164.027C251.03 164.129 250.649 164.16 250.62 164.155C250.368 164.166 250.13 164.025 250.029 163.796L243.994 149.918C243.951 149.822 243.936 149.721 243.949 149.625L247.137 116.494L198.941 106.241L154.279 121.96C154.19 121.992 154.088 121.999 153.992 121.985C153.492 121.913 141.654 120.031 133.239 100.078C125.3 81.2538 123.9 71.9928 123.059 66.4588L122.918 65.5508C122.122 60.4226 121.759 55.8476 121.761 55.8003C121.734 55.5039 121.928 55.239 122.217 55.1659L146.012 49.3575C146.311 49.283 146.628 49.4499 146.721 49.7454L161.046 91.8528C162.567 87.3048 167.649 75.2608 181.105 65.4868C193.727 56.3222 207.862 55.6399 217.403 55.9153C239.635 56.5591 256.752 66.2458 269.714 85.5298C286.69 110.766 282.215 131.499 278.037 141.617C270.499 159.866 255.772 163.393 251.69 164.027ZM250.962 162.909C253.693 162.588 269.19 159.9 276.931 141.15C281.014 131.263 285.378 110.97 268.719 86.2008C255.981 67.2668 239.192 57.7553 217.363 57.1145C208.002 56.8395 194.128 57.5186 181.81 66.4578C165.33 78.4208 161.707 93.8068 161.675 93.9628C161.612 94.2258 161.387 94.4108 161.119 94.4338C160.848 94.4478 160.606 94.2788 160.52 94.0288L145.763 50.6551L123.008 56.2079C123.12 57.5339 123.483 61.2634 124.118 65.3548L124.259 66.2628C125.091 71.7418 126.477 80.9118 134.359 99.6038C142.005 117.75 152.717 120.492 154.037 120.766L198.707 105.038C198.814 105.002 198.926 104.994 199.032 105.015L247.919 115.415C248.22 115.481 248.423 115.759 248.395 116.064L245.172 149.576L250.962 162.909Z" fill="#783D9D"/>
<path d="M197.423 109.72C197.423 109.72 191.402 105.009 169.492 111.586C147.582 118.163 141.362 125.837 136.505 139.996C134.333 146.336 135.943 160.394 141.937 172.502C147.51 183.765 151.184 189.46 151.184 189.46L173.427 197.251L169.408 145.531L203.899 140.119L197.423 109.72Z" fill="#979797"/>
<path d="M222.376 42.3286C223.673 31.9097 216.138 22.3947 205.546 21.0763C194.954 19.7579 185.316 27.1353 184.019 37.5542C182.722 47.9731 190.257 57.4881 200.849 58.8065C211.441 60.1249 221.079 52.7475 222.376 42.3286Z" fill="#E4C6B0"/>
<path d="M149.309 185.907L155.5 197.647L128.544 202.095L175.122 220.923L172.326 182.465L149.309 185.907Z" fill="#111310"/>
<path d="M237.874 220.619L243.615 234.9L222.787 237.072L221.999 241.074L267.678 255.927L262.444 222.094L237.874 220.619Z" fill="#111310"/>
<path d="M188.362 35.4426C188.794 38.222 186.887 40.829 184.108 41.2605C181.329 41.6921 178.713 39.7873 178.281 37.0079C177.849 34.2284 179.756 31.6215 182.535 31.1899C185.314 30.7584 187.931 32.6632 188.362 35.4426Z" fill="#E4C6B0"/>
<path d="M229.443 44.3943C230.109 41.6594 228.431 38.9029 225.696 38.2374C222.961 37.572 220.205 39.2497 219.539 41.9846C218.874 44.7195 220.552 47.476 223.286 48.1415C226.021 48.8069 228.778 47.1292 229.443 44.3943Z" fill="#E4C6B0"/>
<path d="M198.366 34.8372C198.047 36.1737 197.295 37.136 196.7 36.9936C196.105 36.8511 195.881 35.6552 196.2 34.3187C196.519 32.9822 197.271 32.0199 197.866 32.1624C198.47 32.3034 198.685 33.5008 198.366 34.8372Z" fill="black"/>
<path d="M196.969 37.3942C196.849 37.4127 196.727 37.4129 196.609 37.3749C196.16 37.2662 195.839 36.8368 195.717 36.17C195.612 35.6133 195.655 34.9209 195.818 34.2191C195.981 33.5174 196.269 32.8902 196.622 32.4409C197.036 31.8976 197.516 31.6633 197.965 31.7721C198.932 32.0071 199.095 33.5413 198.756 34.9279C198.583 35.6311 198.304 36.2568 197.951 36.7061C197.648 37.1102 197.308 37.3415 196.969 37.3942ZM197.72 32.5523C197.61 32.5694 197.439 32.6804 197.253 32.9347C196.979 33.2873 196.735 33.8325 196.6 34.4171C196.456 35.0031 196.425 35.5903 196.504 36.0384C196.571 36.4038 196.703 36.59 196.8 36.6124C196.898 36.6349 197.097 36.5287 197.325 36.2398C197.599 35.8872 197.843 35.342 197.978 34.7574C198.28 33.4986 198.023 32.6274 197.778 32.5621C197.757 32.5466 197.747 32.548 197.72 32.5523Z" fill="black"/>
<path d="M208.4 37.2787C208.082 38.6151 207.329 39.5774 206.734 39.435C206.139 39.2925 205.916 38.0966 206.234 36.7601C206.553 35.4236 207.305 34.4613 207.9 34.6038C208.505 34.7448 208.728 35.9408 208.4 37.2787Z" fill="black"/>
<path d="M207.022 39.8297C206.903 39.8482 206.772 39.8498 206.644 39.8133C206.195 39.7045 205.875 39.2751 205.751 38.5992C205.646 38.0425 205.689 37.3501 205.852 36.6483C206.015 35.9465 206.303 35.3194 206.656 34.8701C207.071 34.3359 207.55 34.0925 207.999 34.2012C208.966 34.4363 209.129 35.9704 208.79 37.3571C208.5 38.5763 207.83 39.7044 207.022 39.8297ZM207.764 34.9892C207.654 35.0063 207.484 35.1173 207.298 35.3717C207.025 35.7334 206.78 36.2694 206.645 36.854C206.501 37.44 206.47 38.0272 206.549 38.4753C206.615 38.8408 206.747 39.0269 206.845 39.0494C207.079 39.1069 207.72 38.4532 208.022 37.1944C208.325 35.9356 208.067 35.0643 207.822 34.999C207.801 34.9835 207.783 34.9864 207.764 34.9892Z" fill="black"/>
<path d="M189.119 26.8969L221.841 35.0151C219.835 27.783 213.575 22.0757 205.547 21.0768C199.197 20.2874 193.194 22.6474 189.119 26.8969Z" fill="#111310"/>
<path d="M203.712 46.5804C203.602 46.5975 203.478 46.5885 203.37 46.5583L197.41 44.8346C197.183 44.7665 196.988 44.5995 196.899 44.3879C196.808 44.1671 196.808 43.9229 196.916 43.7089L202.078 33.5132C202.279 33.1156 202.761 32.9561 203.159 33.1574C203.557 33.3587 203.716 33.8412 203.515 34.2389L198.791 43.568L203.818 45.0233C204.241 45.1456 204.489 45.5955 204.367 46.0184C204.272 46.315 204.015 46.5334 203.712 46.5804Z" fill="black"/>
<path d="M204.798 51.2117C204.028 51.3314 203.175 51.4074 202.238 51.4214C196.137 51.5138 193.511 46.642 193.403 46.4333C193.202 46.0418 193.352 45.5582 193.742 45.3473C194.133 45.1456 194.617 45.296 194.828 45.686C194.921 45.8595 197.134 49.8934 202.224 49.8172C207.444 49.7394 209.709 47.5088 209.725 47.4876C210.034 47.1766 210.539 47.1639 210.859 47.4712C211.179 47.7785 211.183 48.2852 210.875 48.6054C210.786 48.6944 208.935 50.5694 204.798 51.2117Z" fill="black"/>
<path d="M128.254 55.632C128.065 55.2667 127.472 50.596 127.472 50.596C127.472 50.596 122.508 52.6913 120.829 48.7152C119.15 44.7391 120.147 44.3213 120.147 44.3213C120.147 44.3213 118.3 44.345 117.723 42.321C117.317 40.9184 117.863 38.9923 117.863 38.9923C117.863 38.9923 116.793 36.6972 117.606 34.7955C119.06 31.3945 130.31 30.5778 130.31 30.5778C130.31 30.5778 129.776 26.2924 132.071 23.1648C134.366 20.0371 139.394 20.0457 139.417 21.8926C139.441 23.7396 138.73 27.6922 138.73 27.6922C138.73 27.6922 142.256 31.6446 143.235 36.2554C144.214 40.8663 144.329 51.8303 144.329 51.8303L128.254 55.632Z" fill="#E4C6B0"/>
<path d="M224.495 46.6585C224.312 46.687 224.118 46.6512 223.942 46.547L220.569 44.4217C220.32 44.2724 220.183 43.9932 220.194 43.7003C220.204 43.4074 220.372 43.1558 220.633 43.0214L224.806 40.9173C225.198 40.7156 225.683 40.8753 225.886 41.2759C226.087 41.6673 225.928 42.1523 225.527 42.3554L222.626 43.8203L224.792 45.1845C225.167 45.4176 225.282 45.9163 225.039 46.2921C224.929 46.4878 224.724 46.6229 224.495 46.6585Z" fill="black"/>
<path d="M181.746 38.8753C181.397 38.9294 181.039 38.7407 180.884 38.4078C180.708 38.003 180.889 37.5334 181.302 37.3472L184.944 35.7577L182.937 33.7208C182.624 33.4029 182.63 32.8947 182.948 32.5824C183.266 32.27 183.774 32.2756 184.086 32.5935L186.909 35.4621C187.097 35.6488 187.177 35.9183 187.123 36.1802C187.07 36.4421 186.897 36.6569 186.659 36.7596L181.952 38.815C181.882 38.8447 181.819 38.8639 181.746 38.8753Z" fill="black"/>
<path d="M129.556 49.5537C129.263 49.5993 128.973 49.4281 128.889 49.1311C128.794 48.8172 128.976 48.4789 129.29 48.3832C131.461 47.7266 135.812 45.858 135.404 44.2586C135.38 44.1683 135.325 44.0548 135.119 43.9365C133.757 43.2086 129.268 44.3095 126.357 45.2875C126.091 45.3853 125.876 45.4561 125.724 45.5079C125.412 45.6128 125.067 45.4502 124.962 45.1377C124.858 44.8252 125.02 44.4805 125.333 44.3756C125.431 44.3416 125.636 44.2722 125.912 44.173C129.332 42.9656 134.381 40.7538 134.924 39.3542C134.978 39.2144 134.951 39.1622 134.927 39.1283C134.3 37.995 127.685 39.0128 121.903 40.6808C121.598 40.775 121.281 40.6082 121.169 40.3063C121.057 40.0136 121.203 39.6809 121.493 39.5514C121.563 39.5216 123.226 38.7938 127.239 37.4755C127.945 37.2437 128.636 37.0332 129.31 36.8346C132.513 35.8675 134.45 35.2098 134.047 33.8257C133.65 32.4782 127.102 32.903 121.238 34.1611C120.92 34.2293 120.597 34.0257 120.528 33.6983C120.458 33.371 120.663 33.0573 120.99 32.9877C124.101 32.3263 134.296 30.4052 135.208 33.4952C135.862 35.7139 133.725 36.7127 131.075 37.5563C133.428 37.3413 135.41 37.522 135.983 38.551C136.193 38.9318 136.221 39.3594 136.055 39.7987C135.701 40.7272 134.349 41.6981 132.727 42.5699C133.931 42.4581 135.002 42.5173 135.689 42.8897C136.15 43.1375 136.453 43.5133 136.571 43.974C137.349 47.0472 130.931 49.1523 129.64 49.55C129.61 49.536 129.584 49.5494 129.556 49.5537Z" fill="black"/>
<path d="M183.349 95.6651L209.426 165.054L262.321 145.176L236.245 75.7871L183.349 95.6651Z" fill="#EBEBEC"/>
<path d="M209.527 165.653C209.408 165.671 209.292 165.651 209.181 165.603C209.04 165.54 208.927 165.417 208.866 165.267L182.789 95.8809C182.675 95.5699 182.829 95.227 183.138 95.104L236.031 75.2229C236.182 75.1629 236.343 75.175 236.494 75.236C236.635 75.299 236.748 75.4219 236.809 75.5719L262.885 144.958C262.999 145.269 262.846 145.612 262.536 145.736L209.643 165.616C209.608 165.631 209.563 165.647 209.527 165.653ZM184.135 96.02L209.783 164.279L261.55 144.827L235.902 76.568L184.135 96.02Z" fill="#5B6670"/>
<path d="M218.951 118.167C226.307 117.025 231.345 110.136 230.203 102.78C229.061 95.4239 222.171 90.3859 214.815 91.5289C207.459 92.6709 202.422 99.5599 203.564 106.916C204.706 114.272 211.595 119.309 218.951 118.167Z" fill="#76777A"/>
<path d="M244.749 114.758L202.464 130.648L204.688 136.566L246.972 120.676L244.749 114.758Z" fill="#76777A"/>
<path d="M248.07 122.893L205.785 138.784L208.009 144.702L250.294 128.811L248.07 122.893Z" fill="#76777A"/>
<path d="M251.59 130.988L209.305 146.879L211.529 152.797L253.814 136.906L251.59 130.988Z" fill="#76777A"/>
<path d="M244.548 149.674C244.548 149.674 238.622 150.416 236.683 148.998C234.744 147.58 233.809 144.945 231.471 146.106C229.132 147.258 228.708 151.298 230.43 153.013C232.152 154.727 233.232 155.753 233.232 155.753C233.232 155.753 230.531 156.388 226.95 157.104C223.37 157.82 223.37 157.82 223.37 157.82C223.37 157.82 222.116 162.514 225.754 163.8C229.392 165.086 230.438 164.134 230.438 164.134C230.438 164.134 232.301 166.757 235.076 166.721C237.851 166.684 251.615 164.153 251.615 164.153L244.548 149.674Z" fill="#E4C6B0"/>
<path d="M194.845 13.5564L171.735 1.39062L211.774 1.75923L245.926 18.7865L221.862 20.2026L194.845 13.5564Z" fill="#8B58CC"/>
<path d="M246.019 19.3806C246 19.3835 245.982 19.3863 245.964 19.3892L221.889 20.7974C221.833 20.7968 221.767 20.7976 221.708 20.7786L194.701 14.1311C194.652 14.1198 194.611 14.098 194.561 14.0776L171.441 1.91328C171.195 1.78228 171.067 1.50158 171.139 1.23688C171.209 0.96288 171.452 0.774779 171.725 0.779379L211.774 1.14658C211.868 1.15068 211.955 1.16538 212.037 1.20898L246.199 18.2441C246.444 18.3658 246.57 18.6374 246.517 18.8993C246.473 19.1598 246.267 19.3422 246.019 19.3806ZM221.918 19.5905L243.647 18.321L211.632 2.35218L174.209 2.00958L195.057 12.9766L221.918 19.5905Z" fill="#783D9D"/>
<path d="M223.545 20.0743L194.14 12.8359L191.501 23.5541L220.906 30.7925L223.545 20.0743Z" fill="#8B58CC"/>
<path d="M220.986 31.3783C220.912 31.3897 220.827 31.3842 220.749 31.368L191.35 24.1338C191.193 24.0923 191.066 23.9993 190.979 23.8625C190.892 23.7258 190.875 23.5592 190.907 23.4039L193.546 12.6887C193.628 12.3661 193.953 12.1652 194.276 12.2466L223.676 19.4809C223.833 19.5223 223.96 19.6153 224.047 19.7521C224.134 19.8889 224.15 20.0554 224.118 20.2108L221.479 30.9259C221.423 31.1695 221.224 31.3413 220.986 31.3783ZM192.223 23.1056L220.451 30.0522L222.802 20.509L194.574 13.5625L192.223 23.1056Z" fill="#783D9D"/>
<path d="M245.207 35.3816L251.731 42.4289L241.989 43.9415L245.207 35.3816L242.65 18.916L245.207 35.3816Z" fill="#8B58CC"/>
<path d="M251.823 43.028L242.091 44.5391C241.88 44.5719 241.67 44.4917 241.531 44.3254C241.393 44.159 241.359 43.9388 241.439 43.7291L244.594 35.3105L242.062 19.0008C242.01 18.6706 242.235 18.3633 242.565 18.312C242.896 18.2607 243.203 18.4855 243.254 18.8157L245.782 35.0978L252.173 42.0154C252.321 42.1804 252.377 42.416 252.296 42.6257C252.216 42.8355 252.044 42.9938 251.823 43.028ZM242.916 43.1991L250.511 42.0198L245.42 36.5163L242.916 43.1991Z" fill="#783D9D"/>
</svg>
