<svg width="905" height="424" viewBox="0 0 905 424" fill="none" xmlns="http://www.w3.org/2000/svg">
<path d="M904.51 114.322H0V387.652H904.51V114.322Z" fill="#4858CC"/>
<path d="M49.6599 147.183C49.6599 148.298 49.3291 149.388 48.7094 150.316C48.0896 151.243 47.2088 151.967 46.1782 152.394C45.1477 152.82 44.0136 152.932 42.9196 152.714C41.8255 152.497 40.8206 151.96 40.0318 151.171C39.243 150.382 38.7059 149.377 38.4883 148.283C38.2706 147.189 38.3823 146.055 38.8092 145.024C39.2361 143.994 39.959 143.113 40.8865 142.493C41.814 141.873 42.9044 141.543 44.0199 141.543C44.7605 141.543 45.494 141.689 46.1782 141.972C46.8625 142.256 47.4842 142.671 48.008 143.195C48.5317 143.719 48.9471 144.34 49.2306 145.024C49.514 145.709 49.6599 146.442 49.6599 147.183Z" fill="#FCCD06"/>
<path d="M476.91 183.693C476.91 184.808 476.579 185.899 475.959 186.826C475.34 187.754 474.459 188.476 473.428 188.903C472.398 189.33 471.264 189.442 470.17 189.224C469.075 189.007 468.071 188.469 467.282 187.681C466.493 186.892 465.956 185.887 465.738 184.793C465.521 183.699 465.632 182.565 466.059 181.534C466.486 180.504 467.209 179.623 468.136 179.003C469.064 178.384 470.154 178.053 471.27 178.053C472.766 178.053 474.2 178.647 475.258 179.705C476.316 180.762 476.91 182.197 476.91 183.693Z" fill="#FF6B00"/>
<path d="M725.9 294.933C725.9 296.002 725.583 297.046 724.99 297.935C724.396 298.823 723.552 299.515 722.565 299.923C721.577 300.332 720.491 300.438 719.443 300.229C718.395 300.019 717.433 299.504 716.678 298.748C715.924 297.992 715.41 297.029 715.203 295.98C714.996 294.932 715.104 293.846 715.514 292.86C715.924 291.873 716.618 291.031 717.508 290.438C718.397 289.846 719.442 289.531 720.51 289.533C721.219 289.533 721.921 289.673 722.575 289.944C723.23 290.216 723.825 290.614 724.325 291.115C724.826 291.617 725.223 292.213 725.493 292.868C725.763 293.523 725.902 294.224 725.9 294.933Z" fill="#FCCD06"/>
<path d="M646.36 195.193C646.362 196.261 646.047 197.306 645.455 198.195C644.863 199.085 644.02 199.779 643.034 200.189C642.047 200.599 640.961 200.707 639.913 200.5C638.865 200.293 637.902 199.779 637.146 199.024C636.389 198.27 635.874 197.308 635.665 196.26C635.456 195.212 635.562 194.126 635.97 193.139C636.379 192.151 637.071 191.307 637.959 190.713C638.847 190.12 639.892 189.803 640.96 189.803C642.391 189.803 643.763 190.37 644.775 191.381C645.788 192.391 646.358 193.762 646.36 195.193Z" fill="#26A7FF"/>
<path d="M616.78 332.052C617.054 331.274 617.388 330.518 617.78 329.792C619.29 326.682 620.9 323.542 620.94 319.952C620.94 318.622 622.13 317.952 622.46 316.662C623.65 312.102 625.1 307.602 626.55 303.112C626.78 302.382 627.01 301.662 627.3 300.962C627.497 300.472 627.771 300.017 628.11 299.612C628.387 299.317 628.73 299.09 629.11 298.952C629.598 298.78 630.114 298.702 630.63 298.722C630.988 298.722 631.345 298.742 631.7 298.782L632.23 298.852C632.296 298.841 632.364 298.841 632.43 298.852C632.49 298.852 632.5 298.952 632.54 299.002L632.64 299.062C632.708 299.103 632.771 299.15 632.83 299.202C633.003 299.382 633.16 299.576 633.3 299.782C633.415 300.014 633.499 300.259 633.55 300.512C633.76 301.122 633.94 301.742 634.14 302.352C634.34 302.962 634.53 303.582 634.7 304.202C634.871 304.824 635.008 305.455 635.11 306.092C635.219 306.737 635.272 307.389 635.27 308.042C635.281 308.119 635.281 308.196 635.27 308.272L635.85 308.042L637.36 306.512C639.88 303.402 643.05 300.852 645 297.242C645.78 295.792 646.8 294.432 645.87 292.802C645.761 292.608 645.63 292.427 645.48 292.262C645.25 292.012 644.971 291.811 644.66 291.672C644.352 291.552 644.034 291.455 643.71 291.382L643.51 291.332C643.373 291.295 643.232 291.278 643.09 291.282H642.59C642.414 291.302 642.236 291.302 642.06 291.282C641.891 291.267 641.72 291.267 641.55 291.282C641.394 291.267 641.237 291.267 641.08 291.282C641.012 291.299 640.945 291.323 640.88 291.352C640.802 291.366 640.725 291.386 640.65 291.412C640.58 291.412 640.52 291.472 640.46 291.482C640.426 291.477 640.391 291.479 640.358 291.49C640.325 291.5 640.295 291.518 640.27 291.542C640.27 291.542 640.33 291.432 640.35 291.392C640.37 291.352 640.41 291.242 640.43 291.182C640.475 291.026 640.528 290.872 640.59 290.722C640.75 290.362 640.86 289.972 640.99 289.612C640.99 289.472 641.09 289.342 641.13 289.192C641.162 289.086 641.202 288.982 641.25 288.882C641.268 288.797 641.291 288.714 641.32 288.632C641.32 288.522 641.38 288.412 641.42 288.312C641.52 288.042 641.63 287.762 641.71 287.492C641.774 287.229 641.817 286.962 641.84 286.692C641.864 286.209 641.781 285.727 641.597 285.28C641.414 284.832 641.135 284.43 640.78 284.102C639.44 282.782 637.78 283.212 636.28 283.932C635.266 284.503 634.294 285.144 633.37 285.852L632.55 286.592L632.01 287.112C631.85 287.302 631.68 287.502 631.53 287.702L630.98 288.232C630.8 288.392 630.52 288.722 630.47 288.692C629.94 288.352 630.47 288.182 630.62 287.932L631.16 287.372L631.74 286.812L632.11 286.312L632.87 285.312C632.87 285.132 632.87 284.962 632.95 284.782C633.3 282.912 634.45 280.782 632.51 279.322C630.4 277.722 628.39 279.322 626.66 280.432C624.2 281.952 621.95 283.822 619.66 285.542L618.66 286.442C618.648 286.517 618.608 286.583 618.549 286.629C618.49 286.676 618.415 286.698 618.34 286.692L616.52 288.342V288.182C616.524 288.263 616.512 288.345 616.484 288.421C616.455 288.497 616.412 288.567 616.356 288.626C616.299 288.685 616.232 288.732 616.157 288.764C616.082 288.796 616.002 288.812 615.92 288.812H616.04C615.77 289.162 615.55 289.612 614.97 289.452L615.17 289.512L615.11 289.712L613.31 291.462L610.49 294.352C610.398 294.444 610.312 294.541 610.23 294.642L608.1 297.072C607.39 297.882 606.68 298.702 605.96 299.512L603.83 301.942L601.69 304.392C601.33 304.792 600.98 305.202 600.62 305.612L600.09 306.212C599.993 306.303 599.906 306.403 599.83 306.512C599.83 306.592 599.77 306.702 599.65 306.712C599.53 306.722 599.55 306.712 599.5 306.662H599.37C599.319 306.653 599.273 306.626 599.24 306.585C599.207 306.545 599.189 306.494 599.19 306.442C599.183 306.403 599.185 306.362 599.197 306.323C599.209 306.285 599.231 306.25 599.26 306.222C599.338 306.089 599.401 305.948 599.45 305.802C599.58 305.532 599.7 305.252 599.83 304.972C600.27 303.972 600.72 302.972 601.17 301.972C601.62 300.972 602.05 299.972 602.5 298.972C602.64 297.822 602.84 296.692 602.93 295.532C603.01 294.742 603.04 293.947 603.02 293.152C603.008 292.598 602.913 292.049 602.74 291.522C602.616 291.108 602.346 290.753 601.98 290.522C601.581 290.277 601.141 290.108 600.68 290.022C599.965 289.949 599.241 290.031 598.56 290.262C598.458 290.279 598.358 290.306 598.26 290.342C598.057 290.442 597.868 290.57 597.7 290.722C597.424 290.948 597.167 291.196 596.93 291.462C596.863 291.576 596.789 291.686 596.71 291.792L596.49 292.052C596.28 292.322 596.12 292.642 595.92 292.922L595.33 293.802C594.93 294.372 594.54 294.962 594.14 295.542C593.74 296.122 593.37 296.722 593.01 297.322C592.642 297.93 592.308 298.557 592.01 299.202L591.9 299.442C588.59 306.772 585.01 313.982 581.54 321.242C591.3 326.902 601.04 332.602 610.84 338.242C612.71 336.075 614.692 334.009 616.78 332.052Z" fill="#FEAA61"/>
<path fill-rule="evenodd" clip-rule="evenodd" d="M649.32 218.523L589.79 209.603C589.53 209.603 589.26 209.543 589 209.493C585.75 208.973 585.78 208.983 587.39 206.093C610.41 164.686 633.41 123.276 656.39 81.8628L679.13 41.0527C679.75 41.8327 680.13 41.6827 680.37 40.7627C681.65 40.9227 682.89 41.1429 684.06 40.2329C684.384 40.0016 684.772 39.877 685.17 39.877C685.568 39.877 685.956 40.0016 686.28 40.2329C686.534 53.2529 686.777 66.2529 687.01 79.2329C687.01 81.6429 687.01 84.0529 687.01 86.4629C685.01 85.9329 683.2 86.0427 681.94 87.9727C681.378 88.5564 681.021 89.3076 680.924 90.1123C680.826 90.917 680.994 91.7315 681.4 92.4326C682.62 94.6926 684.72 95.0526 687.07 94.6826C687.04 94.9361 686.989 95.1868 686.92 95.4326C685.82 97.7626 684.7 100.083 683.61 102.433C682.73 104.283 681.04 106.233 681.24 107.963C681.38 109.163 682.57 109.683 683.56 110.073C684.682 110.532 685.768 111.073 686.81 111.693C686.41 112.263 685.05 112.473 684.45 112.783C683.17 113.443 681.85 114.043 680.56 114.663C677.9 115.933 675.24 117.233 672.56 118.553C667.29 121.193 662.08 123.963 657.01 126.953C654.19 128.613 651.4 130.333 648.68 132.133C643.98 135.253 639.32 138.473 635.82 142.993C632.82 146.853 631.82 151.273 633.67 155.863C635.43 160.223 639.4 161.733 643.75 162.383C644.28 162.463 644.82 162.463 645.35 162.503C647.25 163.193 649.22 162.923 651.16 162.833C658.16 162.513 665.01 160.613 671.88 159.223L668.82 167.633C666.67 171.993 665.45 176.703 663.68 181.213C661.72 186.16 659.764 191.113 657.81 196.073C657.62 196.573 657.41 197.073 657.24 197.573C655.66 202.303 653.45 206.803 652.24 211.663C651.307 213.923 650.334 216.21 649.32 218.523Z" fill="#FF6B00"/>
<path fill-rule="evenodd" clip-rule="evenodd" d="M770.2 95.1133C772.798 102.27 774.419 109.743 775.02 117.333C778.02 148.453 769.44 176.833 754.71 203.843C751.93 208.933 748.54 211.843 742.71 212.473C737.84 213.023 733.09 214.563 728.29 215.663C726.53 214.663 724.82 213.483 723.01 212.533C721.47 211.723 721.18 210.753 721.66 209.083C722.98 204.563 724.07 199.973 725.26 195.423C727.06 191.223 727.79 186.703 729.2 182.423C731.34 175.853 733.04 169.253 731.54 162.233C730.54 157.733 728.69 153.923 724.54 151.733C721.7 150.253 718.64 149.183 715.74 147.813C712.84 146.443 709.58 145.483 706.8 143.683C707.04 137.243 707.49 130.813 707.3 124.363C708.08 123.943 708.83 123.473 709.64 123.103C724.18 116.323 738.727 109.557 753.28 102.803L770.2 95.1133Z" fill="#FF6B00"/>
<path fill-rule="evenodd" clip-rule="evenodd" d="M716.77 29.3027C727.552 33.9729 737.247 40.8312 745.24 49.4429C753.462 58.23 760.091 68.3816 764.83 79.4429C764.29 80.5929 762.83 80.4425 762.12 81.3325C761.2 81.6725 760.27 81.9825 759.37 82.3325C741.824 89.7592 724.284 97.1959 706.75 104.643C706.23 96.4626 705.15 88.4125 703.96 80.3125C703.14 74.6725 702.32 69.0228 701.39 63.4028C700.02 55.1028 698.45 46.8327 696.98 38.5527C698.06 38.5527 698.86 37.7327 699.98 37.8027C702.22 37.9227 704.98 37.4627 705.98 35.8027C707.63 33.0927 710.59 33.1326 712.57 31.3926C713.94 30.1826 714.26 32.6028 715.24 32.1528C716.47 31.6328 714.67 29.4627 716.77 29.3027Z" fill="#FF6B00"/>
<path fill-rule="evenodd" clip-rule="evenodd" d="M581.77 303.113L581.82 303.313L581.63 303.273L581.77 303.113Z" fill="#B6BBDB"/>
<path fill-rule="evenodd" clip-rule="evenodd" d="M811.46 329.782L834.4 343.632C834.381 343.794 834.323 343.948 834.23 344.082C833.18 345.182 830.99 342.352 830.45 345.182C829.06 345.122 828.2 346.442 827.51 347.072C823.86 350.402 819.76 353.072 815.92 356.072C812.08 359.072 807.84 362.012 805.4 366.562C805.11 367.112 804.68 367.772 805.02 368.322C805.36 368.872 806.14 368.452 806.72 368.322C809.06 367.942 810.87 365.942 812.07 364.672C814.52 362.092 817.82 362.212 820.36 360.472C821.14 359.942 822.13 360.702 821.71 361.312C820.03 363.752 819.27 366.682 817.11 368.912C815.92 370.152 813.89 370.252 813.4 373.022C812.99 375.392 811.47 378.952 807.75 379.642C806.99 379.782 806.07 380.862 806.47 381.642C807.28 383.262 806.2 383.012 805.3 383.372C803.75 384.002 801.19 383.972 802.36 386.912H798.79C798.37 385.912 797.97 386.012 797.56 386.912H770.23C770.22 386.648 770.257 386.384 770.34 386.132C775.847 375.992 781.364 365.852 786.89 355.712C787.33 354.902 788.54 353.952 786.89 353.052C788.89 352.282 789.58 350.382 790.52 348.702L803.78 325.162L809.97 328.902C810.109 328.977 810.263 329.018 810.42 329.022L811.46 329.782Z" fill="#0071CE"/>
<path fill-rule="evenodd" clip-rule="evenodd" d="M723.85 197.853C724.115 198.001 724.322 198.233 724.44 198.513C725.24 200.343 722.22 207.133 721.65 209.083C721.17 210.753 721.46 211.723 723 212.533C724.81 213.533 726.52 214.613 728.28 215.663L732.18 218.453C728.66 220.103 724.79 220.453 721.08 221.283C714.08 222.933 707.08 224.503 700.08 225.863C696.02 226.653 696.67 223.563 697.16 220.253C698.16 213.683 700.71 207.503 702.9 201.253C704.72 202.043 706.59 198.483 708.18 197.863C711.18 196.703 709.76 199.183 710.35 201.233C713.7 200.533 716.82 199.053 720.12 198.183C721.13 197.953 722.86 197.303 723.85 197.853Z" fill="#151740"/>
<path fill-rule="evenodd" clip-rule="evenodd" d="M649.32 218.523C650.327 216.243 651.327 213.956 652.32 211.662C654.9 211.762 657.03 210.743 657.98 208.403C658.539 207.003 659.559 205.835 660.87 205.093C662.174 204.309 663.426 203.444 664.62 202.503C665.83 201.503 667.29 200.093 668.47 201.673C669.35 202.873 667.6 204.073 666.66 205.093C663.086 208.702 659.707 212.501 656.54 216.472C656.54 216.592 656.54 216.712 656.46 216.832L656.82 216.742C659.959 216.223 663.057 215.481 666.09 214.523C668.59 213.773 671.41 213.873 673.4 211.753C673.2 215.243 671.15 218.202 670.59 221.582C670.35 222.972 671.66 223.053 672.35 223.533C675.28 225.533 678.29 227.453 681.26 229.403C672.99 231.223 664.73 233.113 656.44 234.843C651.74 235.843 647.09 237.132 642.29 237.662C644.637 231.256 646.98 224.876 649.32 218.523Z" fill="#151740"/>
<path fill-rule="evenodd" clip-rule="evenodd" d="M692.74 2.16241C692.74 0.582413 692.37 -0.0472546 690.64 0.00274538C688.91 0.0527454 688.97 1.08255 688.99 2.30255C689.324 22.8025 689.657 43.2995 689.99 63.7928C690.13 72.1128 690.33 80.4328 690.5 88.7928C691.827 87.8901 693.313 87.2485 694.88 86.9026C694.52 73.2926 694.09 59.3627 693.82 45.7527C693.68 39.8327 692.81 8.16241 692.74 2.16241Z" fill="#2D3190"/>
<path fill-rule="evenodd" clip-rule="evenodd" d="M716.77 29.3032C710.049 25.9093 702.805 23.6712 695.34 22.6831L695.07 22.623C695.095 24.363 695.015 26.1028 694.83 27.833V27.8931C694.825 27.9496 694.825 28.0064 694.83 28.063C694.813 28.1836 694.753 28.2939 694.66 28.373C695.42 31.673 696.21 35.123 697 38.583C698.08 38.583 698.88 37.763 700 37.833C702.24 37.953 705 37.493 706 35.833C707.65 33.123 710.61 33.1633 712.59 31.4233C713.96 30.2133 714.28 32.6331 715.26 32.1831C716.47 31.6331 714.67 29.4632 716.77 29.3032Z" fill="#FF6B00"/>
<path fill-rule="evenodd" clip-rule="evenodd" d="M830.45 345.182C830.99 342.352 833.18 345.182 834.23 344.082L816.07 376.262L810.07 387.002H802.41C801.24 384.062 803.8 384.092 805.35 383.462C806.25 383.102 807.35 383.352 806.52 381.732C806.12 380.942 807.04 379.862 807.8 379.732C811.52 379.042 813.04 375.482 813.45 373.112C813.94 370.342 815.97 370.242 817.16 369.002C819.32 366.772 820.08 363.842 821.76 361.402C822.18 360.792 821.19 360.032 820.41 360.562C817.87 362.302 814.57 362.182 812.12 364.762C810.92 366.032 809.12 368.032 806.77 368.412C806.19 368.502 805.5 369.062 805.07 368.412C804.64 367.762 805.16 367.202 805.45 366.652C807.89 362.102 812.1 359.212 815.97 356.162C819.84 353.112 823.91 350.452 827.56 347.162C828.25 346.532 829.11 345.212 830.5 345.272L830.67 345.382L830.45 345.182Z" fill="#0071CE"/>
<path fill-rule="evenodd" clip-rule="evenodd" d="M661.95 21.7134C661.84 21.6534 661.81 21.5731 661.9 21.4731C662.26 21.12 662.663 20.8141 663.1 20.563C663.52 20.283 663.91 19.9731 664.31 19.6831C666.31 18.2831 668.31 16.9632 670.21 15.5732C672.63 13.8232 668.47 13.0934 667.06 12.2334C665 10.9834 662.84 9.12313 662.24 6.70312C665.255 6.73834 668.268 6.50074 671.24 5.99316C675.24 5.24316 678.99 3.99316 682.88 2.99316C684.38 2.62316 685.88 2.11305 687.42 1.87305C685.97 2.10305 685.5 7.58328 685.5 8.61328C685.506 11.3974 685.958 14.1626 686.84 16.8032C680.84 20.6732 674.35 22.0535 667.25 22.0435C666.7 22.0535 662.66 22.1334 661.95 21.7134Z" fill="#B6BBDB"/>
<path fill-rule="evenodd" clip-rule="evenodd" d="M613.26 291.443C613.265 291.463 613.265 291.484 613.26 291.503V291.443Z" fill="#2D3190"/>
<path fill-rule="evenodd" clip-rule="evenodd" d="M587.79 280.343L587.35 280.273L587.79 280.343Z" fill="#2D3190"/>
<path fill-rule="evenodd" clip-rule="evenodd" d="M686.3 40.1924C685.976 39.9611 685.588 39.8364 685.19 39.8364C684.792 39.8364 684.404 39.9611 684.08 40.1924C682.91 41.1024 681.67 40.8822 680.39 40.7222C680.21 40.5422 680.03 40.3524 679.84 40.1724L679.7 40.0522L685.7 28.6523L686.29 28.832L686.3 40.1924Z" fill="#FF6B00"/>
<path fill-rule="evenodd" clip-rule="evenodd" d="M826.34 253.893C825.61 252.193 826.62 252.063 827.9 252.163C827.553 252.875 827.013 253.474 826.34 253.893Z" fill="#151740"/>
<path fill-rule="evenodd" clip-rule="evenodd" d="M680.39 40.7222C680.17 41.6422 679.77 41.7922 679.15 41.0122L679.71 40.0723L679.85 40.1924C680.04 40.3724 680.22 40.5622 680.4 40.7422L680.39 40.7222Z" fill="#FF6B00"/>
<path fill-rule="evenodd" clip-rule="evenodd" d="M727.85 304.833L746.52 315.773C748.919 317.437 751.443 318.911 754.07 320.183C754.89 321.103 754.44 321.963 753.97 322.843C752.39 325.797 750.824 328.753 749.27 331.713C746.05 337.607 742.834 343.497 739.62 349.383C732.76 361.953 712.94 399.073 706.09 411.643C690.7 411.643 675.21 407.953 659.82 407.923C660.05 407.363 673.71 385.663 673.53 385.353C672.35 383.353 673.4 383.163 675.06 382.983C675.91 382.883 677.2 381.793 676.86 381.243C675.5 378.993 677.62 379.113 678.46 378.943C679.61 378.703 679.92 378.503 679.22 377.493C679.1 377.307 679.024 377.096 678.998 376.875C678.972 376.655 678.997 376.432 679.07 376.223C679.86 373.013 683.45 372.673 685.07 370.343C685.3 370.382 685.51 370.494 685.67 370.663C686.04 371.283 686.16 371.463 686.61 370.663C688.19 367.663 688.97 364.003 693.08 363.153C693.45 363.083 693.74 362.363 693.99 361.903C698.77 353.11 703.54 344.313 708.3 335.513C713.18 327.943 717.3 319.933 721.37 311.943C723.31 309.463 724.03 306.183 726.47 304.033C726.613 304.274 726.814 304.474 727.056 304.614C727.297 304.754 727.571 304.829 727.85 304.833ZM691.55 364.833L691.75 364.913C691.75 364.843 691.82 364.763 691.75 364.733C691.68 364.703 691.62 364.673 691.56 364.653L691.55 364.833Z" fill="#76777A"/>
<path fill-rule="evenodd" clip-rule="evenodd" d="M635.26 308.293C635.26 308.583 635.26 308.863 635.26 309.153C635.26 313.168 634.973 317.178 634.4 321.153C637.03 317.533 640.63 314.783 642.86 310.863H642.78C643 311.063 643.19 311.023 643.34 310.773C648.69 305.243 653.81 299.463 659.75 294.543C663.07 291.793 666.08 288.543 670.38 287.153C671.077 286.846 671.829 286.688 672.59 286.688C673.351 286.688 674.104 286.846 674.8 287.153C676.17 289.403 675.4 291.693 674.94 293.973C674.8 294.183 675.43 294.803 675.47 294.673C676.35 294.073 677.2 293.413 678.13 292.883C682.05 290.623 684.58 291.883 685.23 296.323C685.47 298.383 683.37 299.693 683.37 301.873C683.746 301.824 684.118 301.744 684.48 301.633C686.37 300.833 688.32 300.683 689.59 302.463C690.86 304.243 690.28 306.223 689.23 308.013C688.149 309.762 686.946 311.433 685.63 313.013C685.31 313.423 684.97 313.813 684.63 314.193C684.227 314.532 683.861 314.914 683.54 315.333C683.37 315.694 683.151 316.03 682.89 316.333C682.6 316.623 682.27 316.873 681.98 317.163C681.69 317.453 681.17 318.043 680.76 318.493C680.53 318.771 680.32 319.065 680.13 319.373C679.83 319.773 679.43 320.103 679.13 320.483C678.31 321.393 677.57 322.413 676.81 323.383C675.88 324.563 675.11 325.873 674.24 327.103C673.76 327.783 673.33 328.513 672.83 329.193C672.06 330.243 671.12 331.193 670.3 332.193C668.95 333.873 667.68 335.633 666.42 337.373C665.42 338.723 664.6 340.183 663.53 341.463C662.3 342.963 661.03 344.463 659.94 346.083C658.94 347.503 657.64 348.663 656.57 350.013C656.18 350.646 655.745 351.25 655.27 351.823C654.952 352.098 654.595 352.323 654.21 352.493C653.722 352.738 653.176 352.845 652.632 352.803C652.087 352.76 651.565 352.57 651.12 352.253C650.12 351.673 649.12 351.323 648.12 350.812C645.87 349.682 643.73 348.393 641.57 347.103C640.38 346.393 639.17 345.703 637.94 345.103C631.64 341.903 625.57 338.273 619.39 334.863C616.16 333.073 616.26 333.083 617.85 329.863C619.44 326.643 620.97 323.613 621.01 320.023C621.01 318.693 622.2 318.023 622.53 316.733C623.72 312.173 625.17 307.673 626.62 303.183C626.84 302.483 627.08 301.783 627.35 301.113C627.519 300.636 627.766 300.19 628.08 299.793C628.341 299.493 628.661 299.251 629.02 299.083C629.437 298.901 629.886 298.802 630.34 298.793C630.988 298.793 631.634 298.853 632.27 298.973C632.359 298.973 632.448 298.99 632.53 299.023L632.76 299.173C632.886 299.264 632.992 299.379 633.07 299.513C633.244 299.728 633.398 299.959 633.53 300.203C633.602 300.408 633.659 300.619 633.7 300.833C633.84 301.443 634.08 302.033 634.27 302.623C634.46 303.213 634.64 303.813 634.8 304.423C634.961 305.026 635.091 305.637 635.19 306.253C635.29 306.878 635.34 307.51 635.34 308.143C635.311 308.191 635.285 308.242 635.26 308.293Z" fill="#B6BBDB"/>
<path fill-rule="evenodd" clip-rule="evenodd" d="M572.24 336.102C574.59 330.952 578.01 326.412 580.7 321.452C580.77 321.312 581.19 321.372 581.45 321.332C591.27 327.032 601.08 332.762 610.93 338.392C612.38 339.222 612.72 339.752 611.83 341.392C603.83 356.022 596.03 370.712 588.18 385.392C587.59 386.492 578.6 402.832 577.18 402.812C563.75 402.712 549.68 399.362 536.25 399.322C542.49 387.772 557.88 363.912 564.07 352.322C566.89 347.052 570.13 342.002 572.35 336.422C572.321 336.399 572.298 336.369 572.281 336.335C572.265 336.302 572.257 336.264 572.257 336.227C572.257 336.19 572.265 336.153 572.281 336.119C572.298 336.085 572.321 336.056 572.35 336.032L572.24 336.102Z" fill="#2D3190"/>
<path d="M786.93 353.163C786.762 353.176 786.595 353.2 786.43 353.233C780.74 350.343 775.32 346.933 769.82 343.723C762.97 339.723 756.1 335.723 749.27 331.723C746.05 337.616 742.834 343.506 739.62 349.393C732.76 361.963 712.94 399.083 706.09 411.653C718.51 411.653 742.09 399.593 754.52 399.583C759.16 399.583 765.59 387.053 770.23 387.033C770.22 386.768 770.257 386.504 770.34 386.253C775.847 376.113 781.364 365.973 786.89 355.833C787.33 355.053 788.54 354.053 786.93 353.163ZM760.69 378.803C761.06 378.903 761.13 379.233 761.06 379.583C760.72 379.643 760.37 379.583 760.25 379.243C760.226 379.181 760.221 379.114 760.235 379.05C760.248 378.985 760.28 378.926 760.327 378.879C760.373 378.833 760.433 378.801 760.497 378.787C760.562 378.774 760.629 378.779 760.69 378.803ZM767.69 371.062C767.679 370.996 767.679 370.929 767.69 370.863C767.69 370.863 767.81 370.863 767.87 370.863C767.893 370.928 767.919 370.991 767.95 371.053L767.69 371.062ZM780.45 357.562L780.62 357.643L780.45 357.562Z" fill="#0095DA"/>
<path d="M512.27 387.173C511.64 387.088 511.006 387.045 510.37 387.043C510.37 385.353 533.14 337.343 533.07 335.713C531.47 333.713 510.35 323.083 501.72 319.223C501.33 319.803 464.32 387.493 464.28 387.703H511.94C512.05 387.513 512.13 387.333 512.27 387.173Z" fill="#0095DA"/>
<path d="M638.44 384.053C638.44 383.823 638.32 383.563 638.44 383.403C641.84 377.157 645.25 370.913 648.67 364.673C649.584 362.74 650.5 360.81 651.42 358.883C652.925 356.526 654.217 354.039 655.281 351.453C654.071 350.833 652.741 350.393 651.901 349.223H651.37C646.5 347.563 642.431 344.403 637.901 342.103C636.567 341.436 635.234 340.73 633.901 339.984C631.481 338.674 629.08 337.324 626.68 335.984C625.682 335.308 624.604 334.757 623.471 334.343C622.335 333.855 621.255 333.245 620.25 332.524C619.63 332.204 618.951 332.034 618.331 331.714C617.711 331.394 617.331 330.963 616.701 330.953C616.07 330.943 615.491 331.523 615.031 331.953C614.371 332.583 613.791 333.283 613.151 333.953C612.689 334.347 612.248 334.764 611.831 335.203C611.391 335.743 611.631 336.073 612.141 336.423C612.027 336.616 611.926 336.817 611.841 337.024C611.841 337.184 611.841 337.353 611.841 337.513C611.841 337.673 611.71 337.673 611.67 337.823C611.66 337.997 611.66 338.17 611.67 338.343C611.596 338.565 611.509 338.782 611.411 338.993C611.356 339.217 611.289 339.437 611.211 339.653C611.021 340.163 610.86 340.653 610.63 341.173C610.435 341.496 610.258 341.83 610.1 342.173C610.048 342.438 609.931 342.685 609.76 342.893C609.544 343.054 609.363 343.259 609.23 343.493L608.68 344.493L607.6 346.493L605.44 350.493L601.13 358.493C599.7 361.163 598.27 363.813 596.85 366.493L592.56 374.493L588.271 382.493C588.151 382.713 578.131 398.703 577.271 399.913C594.391 399.913 609.4 406.913 626.51 406.913C626.55 406.553 638.25 384.233 638.44 384.053Z" fill="#0095DA"/>
<path fill-rule="evenodd" clip-rule="evenodd" d="M610.73 285.952C609.25 284.422 607.47 284.833 605.73 285.513L604.73 285.923C604.13 286.173 603.55 286.442 602.97 286.722C602.68 286.852 602.39 286.992 602.11 287.142C601.971 287.198 601.84 287.272 601.72 287.363C601.628 287.45 601.523 287.524 601.41 287.582L601.13 287.702L600.49 287.993C600.31 288.083 600.14 288.203 599.97 288.303L599.61 288.533C599.45 288.653 599.25 288.722 599.08 288.832C598.91 288.942 598.67 289.062 598.47 289.202C598.27 289.342 598.32 289.322 598.23 289.372C598.14 289.422 597.94 289.503 597.79 289.573C597.513 289.694 597.251 289.849 597.01 290.033C596.86 290.143 596.69 290.232 596.54 290.352C596.39 290.472 596.16 290.633 595.98 290.783C595.843 290.907 595.7 291.024 595.55 291.133L594.95 291.573L592.78 293.142L590.61 294.713C590.42 295.013 590.19 295.293 589.84 294.963C589.84 294.913 590.03 294.553 590.14 294.343C591.85 292.613 593.33 290.653 595.32 289.213C595.316 289.138 595.327 289.063 595.354 288.993C595.381 288.923 595.422 288.86 595.475 288.807C595.527 288.754 595.591 288.713 595.661 288.686C595.731 288.66 595.806 288.648 595.88 288.653L596.48 287.852C596.489 287.81 596.505 287.769 596.529 287.733C596.554 287.696 596.585 287.666 596.621 287.641C596.657 287.617 596.698 287.6 596.741 287.592C596.783 287.584 596.827 287.584 596.87 287.593L597.51 286.993C598.92 285.393 600.51 283.882 601.71 282.162C602.91 280.442 604.27 278.602 602.61 276.602C600.95 274.602 598.94 275.772 597.21 276.602C594.97 277.662 592.84 278.992 590.67 280.202L590.07 280.622L582.02 286.622L581.43 287.113L580.88 287.622L580.36 288.182C580.36 288.182 580.3 288.513 580.2 288.423C580.1 288.333 579.87 288.152 580.07 287.932C580.27 287.712 580.5 287.542 580.69 287.332L581.16 286.793L581.65 286.263C583.53 284.263 585.4 282.343 587.29 280.383L587.34 280.273L587.78 280.343C587.46 279.703 587.83 279.543 588.36 279.493H588.26C588.26 279.333 588.33 279.163 588.36 278.993C589.15 277.503 589.95 275.993 590.7 274.523C591.068 273.851 591.196 273.074 591.064 272.319C590.931 271.565 590.545 270.878 589.97 270.372C588.88 269.282 587.48 269.783 586.24 270.283C583.593 271.513 581.077 273.007 578.73 274.743L576.58 276.432C576.457 276.691 576.273 276.916 576.046 277.09C575.818 277.264 575.552 277.381 575.27 277.432C575.207 277.598 575.097 277.742 574.953 277.845C574.809 277.948 574.637 278.006 574.46 278.013C574.22 278.313 573.97 278.593 573.71 278.863C573.45 279.133 573.49 279.103 573.39 279.233C573.327 279.295 573.257 279.348 573.18 279.392L572.94 279.553L571.07 280.903L570.07 281.682C569.553 282.063 569.062 282.477 568.6 282.923C568.4 283.103 568.23 283.323 568.03 283.493C567.856 283.625 567.668 283.738 567.47 283.832C567.4 283.832 567.13 283.963 567.19 284.073C567.25 284.183 567.31 284.172 567.36 284.202L567.72 284.352L568.41 284.633C568.588 284.697 568.756 284.784 568.91 284.892C569.097 285.026 569.271 285.177 569.43 285.343C569.574 285.47 569.684 285.632 569.75 285.812C569.795 286.05 569.795 286.295 569.75 286.533C569.75 286.873 569.68 287.223 569.61 287.533C569.566 287.758 569.485 287.974 569.37 288.173C569.243 288.363 569.139 288.568 569.06 288.783C568.976 288.994 568.976 289.231 569.06 289.443C569.16 289.623 569.42 289.623 569.6 289.673C569.848 289.755 570.076 289.888 570.27 290.062C570.48 290.242 570.85 290.463 570.85 290.783C570.832 290.895 570.795 291.003 570.74 291.102C570.68 291.252 570.65 291.413 570.59 291.553C570.517 291.745 570.423 291.93 570.31 292.102C570.18 292.302 570.05 292.513 569.91 292.713C569.857 292.806 569.79 292.891 569.71 292.963C569.63 293.022 569.559 293.093 569.5 293.173L569.17 293.573L568.98 293.783C568.891 293.874 568.794 293.958 568.69 294.033C568.46 294.233 568.29 294.493 568.04 294.673C567.79 294.853 567.77 294.863 567.62 294.943C567.47 295.023 567.47 295.032 567.44 295.102C567.396 295.258 567.329 295.407 567.24 295.543C567.121 295.666 566.986 295.773 566.84 295.863C566.49 296.113 566.2 296.422 565.84 296.682L564.84 297.483C564.53 297.753 564.2 298.003 563.84 298.273L562.84 299.062C562.51 299.312 562.19 299.583 561.84 299.843L560.84 300.613C560.52 300.873 560.18 301.122 559.84 301.372C559.5 301.622 559.18 301.872 558.84 302.122C558.5 302.372 558.19 302.632 557.84 302.872L556.84 303.622L555.84 304.343L554.84 305.073L553.84 305.793C553.49 306.023 553.16 306.263 552.84 306.503L551.84 307.202L550.84 307.892L549.84 308.582L548.79 309.263L547.79 309.943L547.28 310.263C546.032 310.955 544.967 311.935 544.172 313.121C543.378 314.307 542.877 315.665 542.71 317.082C544.04 318.082 545.37 319.082 546.71 320.142L546.79 320.222C547.18 320.256 547.558 320.377 547.896 320.576C548.233 320.775 548.522 321.047 548.74 321.372L549.67 321.932C556.697 326.486 563.734 331.026 570.78 335.553C571.251 335.785 571.748 335.96 572.26 336.073C574.61 330.923 578.03 326.383 580.72 321.423C580.79 321.283 581.21 321.343 581.47 321.303C584.94 314.043 588.47 306.833 591.83 299.503C592.322 298.43 592.897 297.396 593.55 296.412C594.18 295.412 594.85 294.483 595.55 293.513L596.09 292.702C596.236 292.445 596.403 292.201 596.59 291.972C596.71 291.842 596.84 291.742 596.96 291.622C597.08 291.502 597.21 291.342 597.35 291.222C597.396 291.178 597.439 291.131 597.48 291.082C597.607 290.987 597.727 290.884 597.84 290.773C597.994 290.576 598.188 290.416 598.41 290.303L598.82 290.162C598.907 290.152 598.994 290.152 599.08 290.162C599.39 290.162 599.71 290.162 600.02 290.162C600.298 290.159 600.575 290.176 600.85 290.213C601.286 290.261 601.701 290.427 602.05 290.693C602.348 290.943 602.576 291.267 602.71 291.633C602.891 292.116 602.989 292.626 603 293.142C603.017 293.876 602.993 294.611 602.93 295.343C602.93 295.443 602.93 295.543 602.93 295.633C602.84 296.793 602.64 297.923 602.5 299.073L602.69 298.903L604.25 297.463C604.78 296.993 605.25 296.513 605.81 296.043L607.37 294.613C607.63 294.373 607.87 294.132 608.14 293.912C608.302 293.782 608.476 293.668 608.66 293.573C608.833 293.452 608.991 293.311 609.13 293.153C609.35 292.923 609.6 292.733 609.82 292.523C609.881 292.478 609.938 292.428 609.99 292.372C610.016 292.317 610.046 292.264 610.08 292.213C610.16 292.083 610.26 291.953 610.34 291.823C610.42 291.693 610.48 291.573 610.55 291.443C610.633 291.333 610.709 291.22 610.78 291.102C610.807 291.033 610.841 290.966 610.88 290.903C610.99 290.753 611.14 290.662 611.21 290.472C611.279 290.297 611.332 290.117 611.37 289.932C611.602 289.292 611.711 288.613 611.69 287.932C611.624 287.177 611.282 286.472 610.73 285.952Z" fill="#B6BBDB"/>
<path fill-rule="evenodd" clip-rule="evenodd" d="M797.58 386.992C797.99 386.092 798.39 385.992 798.81 386.992H797.58Z" fill="#2D3190"/>
<path fill-rule="evenodd" clip-rule="evenodd" d="M705.52 285.053L704.72 285.743C704.749 285.551 704.845 285.376 704.992 285.25C705.139 285.123 705.326 285.053 705.52 285.053Z" fill="#151740"/>
<path fill-rule="evenodd" clip-rule="evenodd" d="M706.53 283.873L705.66 284.703L706.53 283.873Z" fill="#151740"/>
<path fill-rule="evenodd" clip-rule="evenodd" d="M570.13 273.642L570.21 273.482L570.12 273.632L570.13 273.642Z" fill="#151740"/>
<path fill-rule="evenodd" clip-rule="evenodd" d="M595.89 288.683L596.49 287.883L595.89 288.683Z" fill="#151740"/>
<path fill-rule="evenodd" clip-rule="evenodd" d="M691.31 159.983C690.052 162.98 689.048 166.077 688.31 169.243C688.057 169.49 687.841 169.773 687.67 170.083C684.34 180.083 681.11 190.083 677.67 200.003C676.3 203.933 675.67 208.133 673.44 211.753C671.44 213.873 668.63 213.753 666.13 214.523C664.13 215.123 654.75 219.173 656.31 214.413C657.87 209.653 655.03 212.583 651.83 213.603C653.51 208.203 655.56 202.953 657.36 197.603C657.53 197.103 657.74 196.603 657.93 196.103C658.66 196.103 659.01 195.623 659.41 195.103C661.86 192.103 664.35 189.213 666.79 186.243C669.97 182.37 673.124 178.486 676.25 174.593C676.62 174.133 677.25 173.453 676.75 172.933C676.06 172.193 675.46 172.983 674.95 173.423C672.15 175.863 668.26 176.903 666.19 180.293C665.67 181.163 664.71 181.203 663.8 181.223C665.57 176.713 666.8 172.003 668.94 167.643C671.21 167.703 672.62 166.413 673.74 164.643C674.07 164.133 674.28 163.333 674.74 163.163C676.179 162.566 677.381 161.511 678.16 160.163C678.76 159.253 680.24 157.363 679.96 156.253C681.61 156.253 683.03 154.313 684.08 153.253C685.43 151.853 687.01 150.803 688.44 149.483C689.419 148.593 690.347 147.648 691.22 146.653C691.83 145.953 693.03 145.163 693.34 144.293C694.262 144.082 695.168 143.804 696.05 143.463C699.26 142.593 702.84 141.903 706.05 143.063C706.85 143.463 707.601 143.953 708.29 144.523C708.951 144.886 709.648 145.177 710.37 145.393C712.19 146.123 713.98 146.953 715.75 147.793C718.65 149.163 721.75 150.233 724.55 151.713C728.73 153.903 730.62 157.713 731.55 162.213C733.05 169.213 731.35 175.833 729.21 182.403C727.35 188.103 726.21 194.063 724.12 199.633C721.2 196.333 716.75 199.903 713.73 201.163C711.87 201.933 710.35 202.333 708.44 201.633C707.35 201.243 707.25 200.373 705.95 200.393C705.39 200.393 702.84 201.733 702.75 202.173C703.9 196.603 706.44 190.993 708.23 185.573C709.098 182.412 710.191 179.317 711.5 176.313L712.16 175.193V175.243C713.392 172.369 715.458 169.931 718.09 168.243C719.075 167.686 719.937 166.936 720.625 166.037C721.312 165.138 721.811 164.109 722.09 163.013C722.34 161.823 721.99 161.083 720.74 161.753C719.05 162.663 718.74 161.923 718.63 160.423C718.626 160.255 718.584 160.089 718.508 159.939C718.432 159.788 718.323 159.656 718.19 159.553C717.68 159.283 717.3 159.743 717.19 160.133C716.33 162.733 713.5 163.963 712.77 166.633C710.25 166.243 708.15 164.443 705.5 164.493C702.726 162.911 699.734 161.745 696.62 161.033C694.76 160.693 693.41 158.453 691.31 159.983Z" fill="#2D3190"/>
<path fill-rule="evenodd" clip-rule="evenodd" d="M663.78 181.213C664.69 181.213 665.65 181.153 666.17 180.283C668.24 176.893 672.17 175.853 674.93 173.413C675.44 172.973 676.04 172.183 676.73 172.923C677.2 173.443 676.6 174.123 676.23 174.583C673.097 178.483 669.944 182.366 666.77 186.233C664.33 189.233 661.84 192.133 659.39 195.093C658.99 195.593 658.64 196.093 657.91 196.093C659.864 191.12 661.82 186.16 663.78 181.213Z" fill="#151740"/>
<path fill-rule="evenodd" clip-rule="evenodd" d="M764.96 89.332C762.96 85.622 761.41 81.592 762.12 81.332C761.2 81.672 760.27 81.982 759.37 82.332C741.824 89.7587 724.284 97.1954 706.75 104.642L702.42 106.542C702.42 108.862 702.42 111.182 702.42 113.542C702.42 115.472 701.63 115.652 700.11 114.872C696.94 113.242 693.74 111.652 690.55 110.042C690.106 110.277 689.645 110.477 689.17 110.642C688.77 110.852 688.51 111.252 688.17 111.492C688.109 111.538 688.042 111.575 687.97 111.602C687.511 111.708 687.042 111.769 686.57 111.782C685.791 112.073 685.047 112.448 684.35 112.902C672.14 118.682 660.06 124.682 648.78 132.152C644.08 135.272 639.42 138.492 635.92 143.012C632.92 146.872 631.92 151.292 633.77 155.882C635.53 160.242 639.5 161.752 643.85 162.402C644.38 162.482 644.92 162.482 645.45 162.522C647.35 163.212 649.32 162.942 651.26 162.852C658.26 162.532 665.11 160.632 671.98 159.242L673.43 158.512C672.595 158.021 671.639 157.772 670.67 157.792C671.642 157.773 672.601 158.022 673.44 158.512C675.662 158.068 677.808 157.303 679.81 156.242C678.26 153.512 675.81 151.512 673.89 149.082C673.035 148.187 672.308 147.177 671.73 146.082L660.52 146.902C657.326 147.475 654.085 147.749 650.84 147.722C648.24 149.582 648.93 145.372 652.08 146.952C656.58 145.492 660.68 143.002 665.27 141.752C669.83 139.162 674.8 137.502 679.93 135.092C679.45 136.572 679.11 137.622 678.76 138.662C680.55 138.262 681.84 136.902 683.49 136.232C684.49 135.832 685.49 135.162 686.43 136.152C687.37 137.142 686.67 137.982 686.25 138.852C685.883 139.361 685.69 139.975 685.7 140.602C686.46 140.142 687.2 139.602 687.99 139.252C688.59 138.942 689.31 138.372 689.92 139.062C690.53 139.752 689.92 140.362 689.6 141.002C689.28 141.642 688.34 142.052 688.43 143.002C689.26 143.692 689.9 142.892 690.58 142.672C692.1 142.202 693.01 142.552 693.1 144.262L703.52 142.532C703.52 141.212 703.08 131.092 703.06 130.462C702.94 125.952 702.94 125.952 707.26 124.362C708.04 123.942 708.79 123.472 709.6 123.102L733.43 112.012C740.43 108.742 748.28 106.092 755.04 102.422C759.72 99.8824 764.75 97.7622 769.46 95.5522C768.4 95.1522 766.56 92.352 764.96 89.332ZM699.56 136.482C698.66 136.482 697.92 136.192 697.87 135.202C697.848 134.976 697.875 134.748 697.95 134.534C698.025 134.32 698.145 134.125 698.303 133.962C698.461 133.799 698.653 133.673 698.865 133.592C699.077 133.511 699.304 133.477 699.53 133.492C700.41 133.492 700.96 134.102 701.07 135.052C701.085 135.251 701.056 135.45 700.984 135.636C700.912 135.822 700.8 135.989 700.655 136.126C700.511 136.263 700.337 136.367 700.148 136.428C699.958 136.49 699.758 136.508 699.56 136.482ZM699.56 127.422C699.361 127.439 699.16 127.414 698.971 127.351C698.781 127.288 698.606 127.187 698.457 127.054C698.307 126.921 698.186 126.76 698.101 126.579C698.015 126.398 697.968 126.202 697.96 126.002C697.86 125.002 698.51 124.402 699.48 124.202C700.48 124.342 701.16 124.902 701.11 125.932C701.109 126.135 701.067 126.336 700.986 126.522C700.905 126.709 700.787 126.876 700.639 127.016C700.492 127.155 700.317 127.263 700.126 127.333C699.936 127.402 699.733 127.433 699.53 127.422H699.56Z" fill="#E7E8E3"/>
<path fill-rule="evenodd" clip-rule="evenodd" d="M671.98 159.223L673.43 158.493C675.656 158.05 677.805 157.285 679.81 156.223L680.38 156.273C678.72 158.743 677.95 161.923 674.72 163.143C674.26 163.313 674.05 164.143 673.72 164.623C672.6 166.403 671.19 167.693 668.92 167.623L671.98 159.223Z" fill="#151740"/>
<path fill-rule="evenodd" clip-rule="evenodd" d="M696.48 86.7932C697.905 86.7259 699.298 87.2214 700.36 88.1731C701.43 89.1731 703.75 87.7431 704.44 89.1731C704.79 89.8931 704.16 90.9727 704.44 91.8127C704.86 93.3427 705.7 94.3929 705.61 96.0529C705.616 97.6904 704.989 99.2667 703.86 100.453C701.86 102.283 702 104.303 702.47 106.533C702.47 108.853 702.47 111.173 702.47 113.533C702.47 115.463 701.68 115.643 700.16 114.863C696.99 113.233 693.79 111.643 690.6 110.033L692.4 104.913C692.48 104.693 692.57 104.473 692.65 104.263L692.03 104.353C691.772 104.489 691.485 104.564 691.193 104.572C690.901 104.581 690.611 104.523 690.345 104.403C690.079 104.282 689.843 104.102 689.657 103.877C689.471 103.652 689.339 103.387 689.27 103.103C689.147 102.834 689.078 102.544 689.07 102.249C689.061 101.953 689.111 101.659 689.219 101.383C689.326 101.108 689.488 100.858 689.694 100.646C689.901 100.435 690.148 100.267 690.42 100.153C693.94 98.933 693.1 96.6928 691.99 94.3728C691.772 93.9939 691.688 93.5522 691.754 93.1198C691.819 92.6874 692.029 92.2901 692.35 91.9929C693.77 90.3029 695.13 88.5332 696.48 86.7932Z" fill="#FEAA61"/>
<path fill-rule="evenodd" clip-rule="evenodd" d="M875.47 287.933C873.56 285.603 871.06 286.883 868.82 287.883C868.745 287.928 868.677 287.986 868.62 288.053L868.27 288.183C867.353 288.547 866.461 288.971 865.6 289.453C864.74 289.923 863.9 290.453 863.07 290.963C862.24 291.473 861.44 292.053 860.63 292.613C859.82 293.173 859 293.723 858.18 294.253C857.89 294.443 857.62 294.703 857.32 294.863C857.149 294.966 856.948 295.008 856.75 294.983C856.59 294.983 856.36 294.773 856.36 294.593C856.36 294.413 856.74 293.963 856.91 293.743C857.08 293.523 857.46 293.093 857.74 292.743C858.74 291.613 859.87 290.563 860.98 289.533L862.65 287.983L863.48 287.193L863.89 286.793C863.89 286.743 864.28 286.473 864.28 286.413C865.945 285.066 867.184 283.268 867.85 281.233C868.039 280.754 868.094 280.234 868.012 279.726C867.929 279.218 867.711 278.742 867.38 278.348C867.049 277.954 866.618 277.656 866.133 277.486C865.647 277.316 865.125 277.281 864.62 277.383C863.541 277.459 862.504 277.828 861.62 278.453L861.26 278.603C860.26 279.033 859.32 279.513 858.39 280.033C857.46 280.553 856.57 281.113 855.68 281.693C854.79 282.273 853.93 282.893 853.07 283.513C852.21 284.133 851.36 284.763 850.51 285.393C849.66 286.023 848.86 286.603 848.03 287.193C847.93 287.193 847.83 287.193 847.73 287.193C847.63 287.193 847.53 287.343 847.4 287.363C847.27 287.383 847.08 287.363 847.13 287.183C847.18 287.003 847.3 286.963 847.39 286.853C847.48 286.743 847.58 286.613 847.68 286.503C848.59 285.503 849.5 284.443 850.4 283.393C852.306 281.374 853.901 279.082 855.13 276.593C855.495 275.917 855.643 275.145 855.556 274.381C855.468 273.618 855.149 272.899 854.64 272.323C853.49 270.993 852.07 271.433 850.64 271.963C848.818 272.71 847.098 273.684 845.52 274.863C838.882 279.728 832.724 285.216 827.13 291.253C828.68 292.833 828.52 294.463 827.54 296.333C825.16 300.903 821.36 304.283 818.02 308.053C816.3 309.743 814.6 311.453 812.83 313.053C809.08 316.573 805.83 320.413 803.83 325.233L810.02 328.973C810.159 329.048 810.313 329.089 810.47 329.093C810.685 329.08 810.898 329.136 811.078 329.253C811.258 329.37 811.396 329.542 811.47 329.743L834.41 343.593C839.03 335.5 843.644 327.406 848.25 319.313C849.201 317.591 850.427 316.038 851.88 314.713C858.6 308.653 865.25 302.523 871.88 296.423C872.616 295.776 873.301 295.074 873.93 294.323C875.37 292.433 877.46 290.363 875.47 287.933Z" fill="#FEAA61"/>
<path fill-rule="evenodd" clip-rule="evenodd" d="M572.29 336.053V336.113C571.778 336.001 571.281 335.826 570.81 335.593C563.764 331.073 556.727 326.533 549.7 321.973L548.77 321.413C548.552 321.088 548.263 320.816 547.926 320.617C547.588 320.418 547.211 320.297 546.82 320.263L546.55 320.623C546.2 320.303 546.55 320.283 546.73 320.183C545.41 319.183 544.08 318.133 542.73 317.123C540.17 320.533 539.03 324.663 537.04 328.363C535.71 330.813 535.21 333.703 533.13 335.743C533.2 337.373 531.96 338.463 531.45 339.853C531.67 341.253 527.39 349.153 527.23 349.503C527.37 349.863 527.09 350.673 526.79 350.713C521.87 361.333 516.95 371.953 512.03 382.573C511.36 384.013 510.43 385.383 510.43 387.073C522.09 387.073 527.37 399.613 539.02 399.603C545.26 388.043 557.91 363.943 564.1 352.363C566.92 347.093 570.16 342.043 572.38 336.463C572.373 336.323 572.342 336.184 572.29 336.053ZM545.29 324.553V324.383L545.46 324.483L545.29 324.553Z" fill="#76777A"/>
<path fill-rule="evenodd" clip-rule="evenodd" d="M811.46 329.783L810.46 329.133C810.675 329.119 810.888 329.175 811.068 329.292C811.248 329.41 811.385 329.581 811.46 329.783Z" fill="#B6BBDB"/>
<path fill-rule="evenodd" clip-rule="evenodd" d="M581.77 303.113L581.63 303.273L581.82 303.313L581.77 303.113Z" fill="#151740"/>
<path fill-rule="evenodd" clip-rule="evenodd" d="M549.65 321.962L548.72 321.402L549.65 321.962Z" fill="#2D3190"/>
<path fill-rule="evenodd" clip-rule="evenodd" d="M587.3 280.383C587.344 280.432 587.391 280.479 587.44 280.523L587.29 280.383H587.3Z" fill="#2D3190"/>
<path d="M573.86 294.633H573.8C573.81 294.628 573.82 294.626 573.83 294.626C573.841 294.626 573.851 294.628 573.86 294.633Z" fill="#151740"/>
<path d="M573.33 295.193H573.28C573.28 295.193 573.32 295.163 573.33 295.193Z" fill="#151740"/>
<path d="M572.76 295.773L572.82 295.703H572.75C572.75 295.703 572.76 295.733 572.76 295.773Z" fill="#151740"/>
<path fill-rule="evenodd" clip-rule="evenodd" d="M588.92 278.162L588.86 278.272L588.92 278.192V278.162Z" fill="#2D3190"/>
<path fill-rule="evenodd" clip-rule="evenodd" d="M793.23 269.053C791.232 269.767 789.273 270.585 787.36 271.503L785.36 272.653L776.12 279.553L775.55 280.053L775.02 280.593C774.91 280.703 774.82 280.813 774.71 280.913C774.6 281.013 774.5 281.103 774.41 281.203C774.342 281.274 774.285 281.355 774.24 281.443C774.213 281.508 774.172 281.566 774.12 281.613C774.09 281.628 774.057 281.637 774.024 281.639C773.99 281.641 773.956 281.636 773.925 281.625C773.893 281.614 773.864 281.597 773.839 281.574C773.814 281.551 773.794 281.523 773.78 281.493C773.73 281.353 773.88 281.223 773.96 281.133L774.22 280.853L774.71 280.343C774.92 280.143 775.14 279.953 775.35 279.743L775.78 279.203L782.92 271.953L784.15 270.793L785.15 269.893C786.64 267.893 788.57 266.223 789.53 263.893C790.11 262.443 790.17 260.973 788.73 260.053C787.49 259.273 786.25 258.713 784.61 259.853C782.06 261.633 779.22 262.983 776.51 264.503L776.18 264.743L774.83 265.743L773.5 266.743L772.17 267.743L770.87 268.743C770.44 269.093 770 269.443 769.58 269.803C769.16 270.163 768.74 270.513 768.33 270.883C767.92 271.253 767.51 271.633 767.1 272.003C766.69 272.373 766.3 272.773 765.91 273.173L765.33 273.763C765.14 273.973 764.93 274.163 764.76 274.373C764.59 274.583 764.35 274.773 764.19 274.993C764.03 275.213 763.98 275.423 763.73 275.423C763.67 275.423 763.59 275.423 763.57 275.423C763.55 275.423 763.65 275.223 763.72 275.173C763.79 275.123 763.83 275.033 763.9 274.963L764.19 274.663C764.37 274.453 764.57 274.263 764.76 274.053C765.13 273.653 765.52 273.253 765.89 272.843L767.03 271.623L768.16 270.413L769.3 269.203C769.67 268.793 770.06 268.393 770.43 267.983L771.57 266.773C771.95 266.373 772.33 265.963 772.7 265.553L773.84 264.343L774.41 263.733L774.69 263.433L774.83 263.283C774.884 263.24 774.931 263.19 774.97 263.133C775.79 261.483 776.67 259.863 777.4 258.133C777.726 257.473 777.827 256.726 777.688 256.003C777.549 255.281 777.177 254.624 776.63 254.133C775.55 253.053 774.28 253.403 773.13 253.923C771.572 254.588 770.074 255.384 768.65 256.303C759.25 262.623 751.48 270.753 743.81 278.973C744.159 279.684 744.437 280.427 744.64 281.193C744.692 281.902 744.547 282.611 744.22 283.243C743.54 284.553 741.88 285.643 740.8 286.673C738.11 289.223 735.48 291.833 732.93 294.533C731.152 296.343 729.483 298.256 727.93 300.263C726.39 302.343 724.93 303.653 727.62 305.313C730.31 306.973 733.16 308.083 735.84 309.523C739.43 311.453 742.9 313.663 746.42 315.723C749.11 317.303 752.35 320.823 755.27 319.083C759.42 316.603 759.8 308.313 760.94 304.193C762.17 299.733 763.08 295.193 764.82 290.883C765.37 289.523 765.99 287.833 767.82 287.883C769.82 287.883 770.94 289.323 771.75 291.043C772.75 293.043 772.75 295.333 773.25 297.483C773.25 297.483 773.45 297.293 773.47 297.273L773.71 297.063L774.18 296.633L775.11 295.783C775.42 295.493 775.73 295.203 776.05 294.923L776.98 294.063L777.92 293.213L778.85 292.353L779.79 291.503L780.72 290.643L781.66 289.783L782.59 288.933L783.53 288.073L784.46 287.223L785.4 286.363L786.33 285.503L787.27 284.653L788.21 283.793L789.14 282.943C789.45 282.653 789.76 282.363 790.08 282.083L791.01 281.233C791.33 280.953 791.64 280.663 791.95 280.373C792.01 280.323 792.07 280.223 792.16 280.193C792.25 280.163 792.29 280.193 792.36 280.193C792.543 280.07 792.714 279.929 792.87 279.773C792.937 279.711 793.011 279.657 793.09 279.613L793.19 279.533C793.242 279.481 793.289 279.424 793.33 279.363L793.47 279.193C793.56 279.083 793.65 278.963 793.75 278.853C793.85 278.743 794.12 278.403 794.31 278.183C794.69 277.733 795.08 277.293 795.47 276.843C795.86 276.393 796.23 275.953 796.58 275.483C796.951 275.02 797.285 274.528 797.58 274.013C797.841 273.471 798.049 272.905 798.2 272.323C798.2 272.273 798.27 272.153 798.26 272.113C797.45 269.143 796.13 268.223 793.23 269.053Z" fill="#FDC99A"/>
<path fill-rule="evenodd" clip-rule="evenodd" d="M696.94 184.273C697.16 193.113 698.42 219.273 698.63 228.153C696.81 230.763 695.63 228.763 692.22 230.393C691.95 215.553 691.94 189.183 691.68 174.343C691.68 172.113 691.68 169.883 691.68 167.643C691.91 167.763 692.33 167.873 692.34 168.013C692.65 172.013 695.21 175.353 695.2 179.473C695.2 181.053 695.34 183.053 696.94 184.273Z" fill="#2D3190"/>
<path fill-rule="evenodd" clip-rule="evenodd" d="M700.89 206.593C702.19 194.953 703.484 183.316 704.77 171.683C705.03 169.283 705.17 166.873 705.37 164.473C708.02 164.423 710.12 166.223 712.64 166.613C713.93 167.053 714.29 167.773 713.78 169.153C713.07 171.153 712.03 173.033 712.1 175.223V175.173L711.45 176.293C710.141 179.298 709.048 182.392 708.18 185.553C706.647 190.219 705.107 194.863 703.56 199.483C702.64 201.833 702.13 204.363 700.89 206.593Z" fill="#FF6B00"/>
<path fill-rule="evenodd" clip-rule="evenodd" d="M673.42 211.752C675.65 208.132 676.28 203.932 677.65 200.002C681.1 190.072 684.33 180.052 687.65 170.082C687.821 169.772 688.037 169.489 688.29 169.242C688.464 180.102 688.637 190.962 688.81 201.822C688.81 203.172 688.81 204.532 688.87 205.882C686.64 207.022 686.24 209.942 683.87 211.012C683.521 211.36 683.291 211.81 683.214 212.297C683.137 212.784 683.216 213.283 683.44 213.722C684.44 215.442 683.55 216.312 682.22 217.122C681.941 217.275 681.686 217.468 681.46 217.692C683.08 220.782 679.88 221.272 678.71 222.842L670.65 221.582C671.13 218.202 673.22 215.242 673.42 211.752Z" fill="#FF6B00"/>
<path fill-rule="evenodd" clip-rule="evenodd" d="M656.84 216.743L656.48 216.833C656.48 216.713 656.48 216.593 656.56 216.473L656.84 216.743Z" fill="#2D3190"/>
<path fill-rule="evenodd" clip-rule="evenodd" d="M773.55 92.0527C771.6 91.3627 771.49 90.6027 773.11 89.0527C774.99 87.2327 777.68 86.8529 779.69 85.2329C777.75 85.7829 775.89 86.5829 773.98 87.2329C772.69 87.6729 771.67 87.5427 771.87 85.8027C771.98 85.247 772.239 84.7316 772.62 84.3125C773.953 82.8143 775.603 81.6323 777.45 80.8525C775.116 81.0999 772.906 82.0325 771.1 83.5327L769.89 84.6128C768.6 87.3228 769.02 88.0727 772.21 88.7427C770.77 91.6627 770.97 92.2827 773.55 92.7427C774.33 92.8927 775.78 92.0027 776.48 91.7427C777.657 91.3985 778.791 90.9222 779.86 90.3228C780.099 90.1901 780.299 89.997 780.44 89.7627C778.22 89.9027 775.67 91.2827 773.55 92.0527Z" fill="#151740"/>
<path fill-rule="evenodd" clip-rule="evenodd" d="M785.4 75.4521C785.389 75.1282 785.307 74.811 785.16 74.5224C783.88 71.7924 780.04 73.8021 778.16 74.6821C776.75 75.3521 775.37 76.1321 773.9 76.6821C772.43 77.2321 771.37 77.4724 771.99 75.5424C772.42 74.1824 773.4 72.2023 772.21 70.9623C768.78 67.4123 766.02 77.752 764.52 79.162C763.28 80.312 761.43 81.0222 761.73 83.0522C762.131 86.183 763.129 89.208 764.67 91.9623C765.49 93.2723 766.97 95.3422 768.67 95.5522C770.05 95.7422 773.83 93.5523 774.56 92.4423L773.56 92.7021C770.98 92.2421 770.78 91.6221 772.22 88.7021C769.03 88.0321 768.61 87.2822 769.9 84.5722L771.11 83.4921C771.947 82.7716 772.892 82.1877 773.91 81.7621C774.379 81.5346 774.872 81.3602 775.38 81.2421C775.38 81.2421 776.58 81.0021 776.38 81.2421C775.973 81.5516 775.53 81.8103 775.06 82.0121L772.37 83.3022C771.1 83.9122 769.57 84.982 769.91 86.622C770.52 89.532 775.38 86.3519 777.04 86.8119C776.461 87.0277 775.893 87.275 775.34 87.5522C774.28 88.1022 771.99 89.3324 772.02 90.7524C772.02 91.8124 773.11 92.2019 774.02 92.0619C775.054 91.7524 776.058 91.3511 777.02 90.8622C778.262 90.5367 779.476 90.112 780.65 89.5922C782.51 88.5322 782.65 87.2424 781.17 85.7324C779.95 84.4624 781.45 83.6224 780.85 82.0424C780.61 81.4324 779.62 80.8823 779.6 80.2123C779.6 79.2123 780.87 79.0121 781.6 78.7021C782.91 78.0521 785.47 77.2421 785.4 75.4521Z" fill="#FEAA61"/>
<path fill-rule="evenodd" clip-rule="evenodd" d="M830.45 345.182L830.64 345.272L830.47 345.162L830.45 345.182Z" fill="#151740"/>
<path fill-rule="evenodd" clip-rule="evenodd" d="M822.92 255.893L823.08 255.983L822.95 255.873L822.92 255.893Z" fill="#2D3190"/>
<path fill-rule="evenodd" clip-rule="evenodd" d="M680.4 40.7432C680.22 40.5632 680.04 40.3734 679.85 40.1934C680.04 40.3734 680.22 40.5632 680.4 40.7432Z" fill="#FF6B00"/>
<path fill-rule="evenodd" clip-rule="evenodd" d="M743.87 279.053C741.7 277.673 739.66 278.772 737.65 279.602C737.76 277.752 739.45 277.082 739.92 275.602C740.39 274.122 740.71 272.442 739.38 271.122C738.05 269.802 736.56 270.123 735.12 270.783C734.77 270.91 734.435 271.074 734.12 271.273C733.94 271.393 733.82 271.613 733.64 271.723C733.571 271.756 733.496 271.776 733.419 271.778C733.343 271.781 733.266 271.766 733.195 271.737C733.124 271.708 733.06 271.664 733.008 271.608C732.955 271.552 732.915 271.485 732.89 271.412C732.765 271.053 732.727 270.67 732.78 270.293C732.86 269.923 733.04 269.593 733.1 269.223C733.217 268.785 733.237 268.327 733.159 267.881C733.081 267.435 732.906 267.012 732.647 266.64C732.388 266.269 732.051 265.958 731.659 265.731C731.268 265.503 730.831 265.364 730.38 265.323C729.689 265.252 728.992 265.391 728.38 265.723C727.3 266.223 726.19 266.633 725.14 267.213C724.62 267.519 724.116 267.853 723.63 268.213C723.14 268.573 722.72 268.992 722.25 269.372C720.25 271.052 717.91 272.312 716.08 274.372C713.08 277.742 709.69 280.793 706.46 283.973L705.59 284.803V285.013L705.41 285.133L704.61 285.823H704.73L697.07 294.823C696.98 294.753 696.89 294.693 696.8 294.613L697.37 293.432C697.7 292.742 698.02 292.032 698.37 291.352C698.486 291.151 698.62 290.96 698.77 290.783C698.934 290.5 699.068 290.202 699.17 289.892C699.38 289.422 699.73 289.023 699.93 288.553C700.02 288.333 700.17 288.122 700.25 287.892C700.45 287.372 700.48 286.793 700.7 286.293C700.875 285.982 700.996 285.644 701.06 285.293C701.13 284.753 701.23 284.222 701.34 283.682C701.628 282.631 701.763 281.543 701.74 280.452C701.63 278.902 701.11 277.572 699.52 277.182C698.832 276.918 698.078 276.872 697.362 277.051C696.647 277.23 696.004 277.625 695.52 278.182C693.689 280.207 692.191 282.509 691.08 285.003L689.47 287.223C688.28 290.407 686.835 293.49 685.15 296.443C685.39 298.503 683.29 299.813 683.29 301.993C683.666 301.944 684.038 301.864 684.4 301.753C686.29 300.953 688.24 300.802 689.51 302.582C690.78 304.362 690.2 306.343 689.15 308.133C688.069 309.882 686.866 311.553 685.55 313.133C683.73 315.443 681.22 317.133 679.79 319.753C685.07 322.693 690.34 325.663 695.66 328.533C696.34 328.903 696.98 329.333 697.66 329.723C698.321 330.14 699.029 330.476 699.77 330.723C699.86 330.742 699.948 330.772 700.03 330.812L700.3 330.993C700.489 331.112 700.667 331.25 700.83 331.403C700.89 331.473 700.97 331.503 701.03 331.573C701.09 331.643 701.17 331.693 701.24 331.763C701.356 331.843 701.48 331.91 701.61 331.963C702.015 332.214 702.444 332.425 702.89 332.593C703.026 332.625 703.159 332.665 703.29 332.713C703.509 332.805 703.72 332.915 703.92 333.043C704.84 333.593 705.78 334.122 706.7 334.662C706.83 334.742 708.25 335.583 708.25 335.573C713.13 328.003 717.25 319.993 721.32 312.003C724.227 306.542 727.935 301.546 732.32 297.182C735.08 294.332 737.82 291.383 740.44 288.403C742.65 285.813 746.39 282.613 743.87 279.053Z" fill="#FEAA61"/>
<path fill-rule="evenodd" clip-rule="evenodd" d="M691.55 364.863L691.61 364.683C691.67 364.683 691.76 364.683 691.8 364.763C691.84 364.843 691.8 364.873 691.8 364.943L691.55 364.863Z" fill="#2D3190"/>
<path d="M702.54 331.783L702.41 331.713C702.26 331.603 702.09 331.533 701.94 331.443C701.722 331.298 701.495 331.168 701.26 331.053L700.84 330.823L700.48 330.613C700.27 330.463 700.03 330.363 699.82 330.213C699.73 330.16 699.636 330.113 699.54 330.073L699.37 329.973C699.16 329.863 698.91 329.833 698.7 329.743C698.299 329.529 697.877 329.359 697.44 329.233C697.202 329.194 696.97 329.123 696.75 329.023L696.53 328.913C696.05 328.663 695.6 328.363 695.13 328.103L693.36 327.103C692.77 326.783 692.18 326.463 691.6 326.103L689.83 325.103L688.09 324.103C686.81 323.393 685.54 322.673 684.26 321.973C683.09 321.236 681.878 320.568 680.63 319.973C680.2 319.795 679.734 319.723 679.27 319.763C678.54 319.833 678.35 320.263 677.87 320.703C677.39 321.143 677.32 321.373 677.01 321.703C676.01 322.773 674.86 323.703 674.01 324.833C673.56 325.433 673.01 325.993 672.62 326.613C672.43 326.903 672.14 327.083 671.94 327.373C671.74 327.663 671.6 327.823 671.41 328.043C670.99 328.533 670.66 329.043 670.22 329.563C669.53 330.323 668.95 331.173 668.22 331.903C667.745 332.434 667.304 332.995 666.9 333.583C666.48 334.143 666.04 334.723 665.59 335.263C665.205 335.773 664.795 336.264 664.36 336.733C664.132 336.902 663.924 337.097 663.74 337.313C663.23 337.963 662.74 338.633 662.15 339.243C661.15 340.323 660.21 341.403 659.25 342.513C658.76 343.083 658.25 343.673 657.8 344.253C657.408 344.754 657.072 345.297 656.8 345.873C656.707 346.031 656.593 346.176 656.46 346.303C656.378 346.452 656.28 346.593 656.17 346.723C656.052 346.802 655.945 346.897 655.85 347.003C655.75 347.123 655.68 347.273 655.58 347.403C655.34 347.713 655.12 348.053 654.85 348.353C654.561 348.615 654.312 348.918 654.11 349.253C653.904 349.62 653.649 349.956 653.35 350.253C653.14 350.493 652.97 350.743 652.75 350.973C652.53 351.203 652.46 351.293 652.31 351.453C652.16 351.613 651.91 351.753 651.75 351.933C651.59 352.113 651.63 352.323 651.52 352.503C651.7 352.643 651.82 352.843 651.99 353.003C652.445 353.411 652.937 353.776 653.46 354.093C653.8 354.293 654.22 354.373 654.54 354.593C654.86 354.813 654.82 355.343 654.68 355.733C654.406 356.405 654.071 357.051 653.68 357.663C653.28 358.383 652.89 359.103 652.48 359.823C652.07 360.543 651.7 361.023 651.4 361.663C650.48 363.596 649.564 365.526 648.65 367.453L646.56 371.263L644.48 375.073C643.79 376.343 643.09 377.613 642.39 378.883L640.32 382.703L639.32 384.603L638.8 385.603C638.66 385.863 638.72 386.063 638.64 386.333C638.584 386.48 638.517 386.624 638.44 386.763C638.37 386.903 626.37 407.193 626.44 407.333C626.51 407.473 632.3 412.933 632.5 412.903C632.7 412.873 633.5 413.903 633.66 413.953C634.66 414.853 635.66 415.823 636.61 416.723C641.26 420.953 647.17 424.723 653.67 423.723C658.06 423.023 659.5 419.053 661.53 415.613C662.765 413.634 664.17 411.767 665.73 410.033C667.55 407.903 669.05 405.593 670.67 403.313C671.39 402.313 672.13 401.313 672.74 400.313C673.35 399.313 673.81 398.313 674.38 397.313C675.19 395.99 675.927 394.625 676.59 393.223C677.23 391.853 677.74 390.373 678.45 389.083C678.93 388.233 679.45 387.393 680.03 386.563C680.39 385.993 680.71 385.243 681.1 384.723C682.697 382.796 683.735 380.468 684.1 377.993C684.37 376.604 685.005 375.314 685.94 374.253C686.94 372.833 687.88 371.363 688.89 369.953C689.47 369.133 690.02 368.303 690.61 367.493C690.99 366.963 691.42 366.493 691.82 365.963C692.05 365.663 692.27 365.343 692.47 365.023C692.81 364.453 693.12 363.873 693.47 363.283C693.82 362.693 693.88 362.283 694.14 361.793C698.92 353 703.69 344.203 708.45 335.403L707.45 334.793C707.27 334.703 707.11 334.583 706.93 334.493C706.879 334.468 706.825 334.448 706.77 334.433L706.62 334.293L706.38 334.143C706.24 334.063 706.08 333.993 705.94 333.903C705.679 333.747 705.428 333.573 705.19 333.383C705.07 333.303 704.97 333.203 704.85 333.123C704.73 333.043 704.69 333.023 704.62 332.963L704.44 332.843L704.02 332.553C703.7 332.326 703.366 332.119 703.02 331.933L702.77 331.773L702.54 331.783Z" fill="#FF6B00"/>
<path fill-rule="evenodd" clip-rule="evenodd" d="M675.47 294.742L675.01 294.072C675.17 294.282 675.32 294.502 675.48 294.722L675.47 294.742Z" fill="#2D3190"/>
<path fill-rule="evenodd" clip-rule="evenodd" d="M572.32 336.433C572.34 336.303 572.34 336.172 572.32 336.043C572.291 336.066 572.267 336.096 572.251 336.129C572.235 336.163 572.227 336.2 572.227 336.238C572.227 336.275 572.235 336.312 572.251 336.346C572.267 336.379 572.291 336.409 572.32 336.433Z" fill="#B6BBDB"/>
<path fill-rule="evenodd" clip-rule="evenodd" d="M545.34 324.373L545.51 324.473L545.32 324.543L545.34 324.373Z" fill="#2D3190"/>
<path fill-rule="evenodd" clip-rule="evenodd" d="M761.13 379.582C760.78 379.642 760.42 379.632 760.29 379.242C760.266 379.181 760.261 379.114 760.274 379.049C760.288 378.985 760.32 378.926 760.367 378.879C760.413 378.832 760.473 378.8 760.537 378.787C760.602 378.773 760.669 378.778 760.73 378.802C761.12 378.912 761.18 379.252 761.09 379.622L761.13 379.582Z" fill="#4753B1"/>
<path fill-rule="evenodd" clip-rule="evenodd" d="M767.87 370.822C767.893 370.887 767.919 370.951 767.95 371.012L767.65 371.062C767.639 370.996 767.639 370.928 767.65 370.862C767.65 370.862 767.81 370.832 767.87 370.822Z" fill="#B6BBDB"/>
<path fill-rule="evenodd" clip-rule="evenodd" d="M780.41 357.563L780.61 357.613L780.44 357.533L780.41 357.563Z" fill="#B6BBDB"/>
<path fill-rule="evenodd" clip-rule="evenodd" d="M578.29 265.363L596.74 261.553C623.62 255.959 650.504 250.373 677.39 244.793C695.624 241.013 713.854 237.253 732.08 233.513C756.347 228.493 780.614 223.459 804.88 218.413C821.96 214.886 839.047 211.373 856.14 207.873C857.01 207.693 857.86 207.263 858.72 207.873L872.46 189.093L847.53 194.393C814.77 201.319 782.004 208.236 749.23 215.143C743.64 216.313 738.13 217.943 732.4 218.413C728.89 220.063 725.01 220.363 721.31 221.243C713.57 223.073 705.74 224.523 697.99 226.243C695.79 226.743 693.99 227.113 693.46 224.243C693.41 223.973 692.98 223.773 692.72 223.543C693.23 226.443 691.94 227.663 689.08 227.933C686.534 228.281 684.008 228.758 681.51 229.363C673.23 231.183 664.97 233.063 656.69 234.793C651.98 235.793 647.33 237.093 642.53 237.623C640.96 237.983 639.4 238.363 637.83 238.693C611.83 244.206 585.83 249.7 559.83 255.173C558.03 255.553 557.24 256.173 557.5 258.173C557.953 262.805 558.677 267.406 559.67 271.953C560.06 273.723 560.46 275.483 560.86 277.253L561.86 276.843C563.98 275.963 566.11 275.173 567.86 277.433C569.52 279.533 568.62 281.433 567.13 283.143C566.9 283.413 566.59 283.543 566.93 283.933C567.56 284.643 568.25 283.983 568.53 283.733C570.23 282.203 572.07 280.813 573.65 279.143C575.23 277.473 577.21 276.473 578.89 274.973C581.131 272.981 583.694 271.385 586.47 270.253C587.72 269.753 589.11 269.253 590.21 270.343C590.782 270.851 591.166 271.537 591.298 272.291C591.431 273.044 591.305 273.82 590.94 274.493L590.56 275.233C590.43 275.483 590.3 275.723 590.18 275.973L589.78 276.723L589.66 276.953L589.6 277.062C589.602 277.086 589.602 277.109 589.6 277.133C589.522 277.278 589.435 277.418 589.34 277.553C589.15 277.823 588.96 278.093 588.76 278.353L588.42 278.793L587.94 279.453L587.47 280.123C587.433 280.19 587.389 280.253 587.34 280.312C587.34 280.363 587.26 280.413 587.23 280.473L587.13 280.603C587.04 280.693 586.96 280.793 586.87 280.893V280.943L586.81 281.013L586.65 281.193C586.51 281.343 586.4 281.533 586.26 281.703C586.162 281.798 586.058 281.888 585.95 281.973C585.77 282.133 585.62 282.313 585.45 282.483L584.95 283.013L583.95 284.013L582.95 285.062L581.95 286.062L581.83 286.193L581.34 286.723L580.87 287.263C580.79 287.353 580.69 287.433 580.6 287.523C580.53 287.601 580.449 287.668 580.36 287.723C580.307 287.741 580.259 287.771 580.22 287.812C580.183 287.854 580.153 287.902 580.13 287.953C580.098 287.998 580.081 288.052 580.081 288.108C580.081 288.163 580.098 288.217 580.13 288.263C580.151 288.284 580.176 288.302 580.203 288.314C580.231 288.326 580.26 288.332 580.29 288.332C580.32 288.332 580.35 288.326 580.377 288.314C580.405 288.302 580.43 288.284 580.45 288.263L580.54 288.153C580.542 288.126 580.542 288.099 580.54 288.073C580.587 287.967 580.655 287.871 580.74 287.793C580.84 287.713 580.931 287.623 581.01 287.523L581.56 287.013L582.15 286.523L590.15 280.523C590.34 280.523 590.48 280.353 590.65 280.263L590.95 280.083L591.21 279.893C591.281 279.85 591.354 279.813 591.43 279.783L591.68 279.623L591.82 279.513L592.03 279.393L592.61 279.062L593.76 278.403L594.91 277.753C595.304 277.533 595.694 277.323 596.08 277.123C596.48 276.913 596.87 276.713 597.27 276.523C597.32 276.506 597.367 276.482 597.41 276.453C599.15 275.633 601.19 274.523 602.81 276.453C604.43 278.383 603.11 280.383 601.91 282.013C601.392 282.708 600.838 283.375 600.25 284.013C599.67 284.673 599.06 285.323 598.47 286.013C598.16 286.343 597.86 286.683 597.56 287.013C597.465 287.111 597.365 287.205 597.26 287.293C596.995 287.522 596.714 287.732 596.42 287.923C596.251 288.012 596.104 288.139 595.99 288.293L595.88 288.453C595.826 288.53 595.766 288.604 595.7 288.673C595.59 288.783 595.5 288.903 595.39 289.003C595.244 289.176 595.087 289.339 594.92 289.493L594.65 289.693C594.49 289.813 594.39 289.983 594.24 290.113C594.09 290.243 593.99 290.273 593.87 290.383C593.56 290.673 593.27 290.983 592.98 291.283C592.39 291.903 591.82 292.543 591.25 293.163C591.09 293.343 590.93 293.513 590.76 293.683C590.682 293.774 590.599 293.861 590.51 293.943C590.44 294.013 590.31 294.103 590.27 294.193C590.23 294.283 589.92 294.762 589.97 294.812C590.32 295.143 590.55 294.863 590.74 294.562L592.74 293.133L594.74 291.713C595.034 291.482 595.341 291.268 595.66 291.073C595.872 290.962 596.073 290.831 596.26 290.683C596.33 290.623 596.42 290.593 596.5 290.533C596.58 290.473 596.64 290.393 596.73 290.333L597.48 289.833C597.97 289.483 598.48 289.223 599 288.833C599.155 288.699 599.322 288.582 599.5 288.483C599.618 288.427 599.731 288.364 599.84 288.293L600.18 288.043C600.303 287.955 600.434 287.877 600.57 287.812C600.7 287.743 600.82 287.643 600.96 287.573C601.051 287.529 601.15 287.505 601.25 287.503C601.374 287.481 601.492 287.436 601.6 287.373C602.2 287.043 602.8 286.723 603.42 286.433L604.42 285.953L605.96 285.312L606.15 285.243C606.658 285.04 607.183 284.886 607.72 284.783C608.218 284.678 608.732 284.678 609.23 284.783C609.76 284.911 610.253 285.161 610.67 285.513C610.969 285.743 611.175 286.073 611.25 286.443C611.25 286.653 611.31 286.873 611.35 287.083C611.39 287.293 611.35 287.353 611.43 287.493C611.475 287.643 611.505 287.797 611.52 287.953C611.474 288.519 611.356 289.076 611.17 289.613C611.103 289.888 611.009 290.155 610.89 290.413C610.822 290.549 610.738 290.677 610.64 290.793C610.49 290.993 610.33 291.193 610.19 291.393C609.906 291.809 609.595 292.206 609.26 292.583C609.05 292.823 608.79 293.023 608.56 293.253C608.362 293.518 608.141 293.765 607.9 293.993C607.777 294.073 607.659 294.163 607.55 294.263L607.16 294.613L605.67 295.983L604.18 297.353L602.69 298.713C602.69 298.713 602.54 298.823 602.52 298.873C602.11 299.773 601.7 300.683 601.3 301.583L600.08 304.283C599.97 304.543 599.86 304.793 599.74 305.043C599.62 305.293 599.52 305.453 599.43 305.663C599.364 305.795 599.317 305.937 599.29 306.083C599.29 306.213 599.18 306.433 599.29 306.533C599.4 306.633 599.68 306.533 599.79 306.383C599.9 306.233 600.14 305.973 600.32 305.773C600.7 305.363 601.06 304.943 601.42 304.523L603.62 302.013L605.81 299.513L608.01 297.003L608.61 296.323C608.97 295.903 609.34 295.493 609.7 295.083C609.831 294.902 609.99 294.744 610.17 294.613C610.367 294.468 610.539 294.292 610.68 294.093C610.78 293.973 610.9 293.863 611 293.733C611.123 293.577 611.257 293.43 611.4 293.293C611.47 293.223 611.55 293.173 611.61 293.103C611.64 293.057 611.674 293.014 611.71 292.973L611.94 292.723C612 292.643 612.07 292.573 612.14 292.493C612.276 292.307 612.434 292.139 612.61 291.993C612.877 291.773 613.115 291.521 613.32 291.243C613.32 291.173 613.47 291.133 613.53 291.073L613.64 290.943C613.692 290.888 613.749 290.838 613.81 290.793L614.21 290.413C614.32 290.313 614.41 290.213 614.53 290.123L614.71 289.963L615.05 289.643C615.24 289.443 615.4 289.223 615.6 289.043C615.8 288.863 615.73 288.903 615.8 288.843C615.87 288.783 615.94 288.743 615.99 288.683C616.105 288.559 616.232 288.449 616.37 288.353C616.44 288.293 616.48 288.223 616.55 288.163C616.614 288.124 616.674 288.081 616.73 288.033L617.12 287.693C617.31 287.523 617.46 287.313 617.65 287.163C617.8 287.038 617.96 286.927 618.13 286.833C618.333 286.677 618.517 286.499 618.68 286.303C618.779 286.21 618.882 286.124 618.99 286.043C619.16 285.903 619.29 285.723 619.47 285.593L619.72 285.403C619.82 285.323 619.89 285.223 620 285.143L620.39 284.853L621.16 284.263C622.09 283.563 623.01 282.853 623.94 282.173C624.87 281.493 625.82 280.813 626.82 280.173C628.54 279.103 630.55 277.463 632.66 279.062C633.006 279.31 633.287 279.638 633.479 280.018C633.67 280.397 633.767 280.817 633.76 281.243C633.706 282.093 633.545 282.933 633.28 283.743C633.178 284.112 633.041 284.47 632.87 284.812C632.806 284.961 632.726 285.102 632.63 285.233C632.51 285.393 632.41 285.563 632.29 285.723C632.17 285.883 632.02 286.093 631.88 286.263C631.61 286.603 631.31 286.893 631.03 287.213L630.74 287.543C630.66 287.633 630.53 287.713 630.47 287.823C630.377 287.949 630.318 288.097 630.3 288.253C630.3 288.433 630.45 288.333 630.53 288.253C630.61 288.173 630.92 287.813 631.16 287.633C631.4 287.453 631.58 287.303 631.79 287.133C632 286.963 632.09 286.763 632.3 286.673C632.36 286.673 632.43 286.623 632.49 286.583C632.582 286.501 632.669 286.414 632.75 286.323L633.08 285.993C633.411 285.637 633.78 285.318 634.18 285.043C634.45 284.873 634.72 284.673 634.98 284.483C635.24 284.293 635.25 284.323 635.38 284.213C635.52 284.085 635.688 283.992 635.87 283.943C636.067 283.881 636.256 283.793 636.43 283.683C637.91 282.963 639.59 282.533 640.93 283.853C641.476 284.39 641.828 285.093 641.93 285.853C641.987 286.608 641.874 287.367 641.6 288.073C641.46 288.543 641.27 288.983 641.1 289.443C640.99 289.753 640.84 290.043 640.72 290.343C640.646 290.535 640.559 290.722 640.46 290.903C640.4 291.003 640.18 291.193 640.27 291.323C640.36 291.453 640.44 291.323 640.51 291.323C640.648 291.266 640.793 291.229 640.94 291.213C641.065 291.186 641.193 291.169 641.32 291.163C641.404 291.168 641.487 291.168 641.57 291.163C641.73 291.163 641.9 291.163 642.07 291.163C642.39 291.163 642.71 291.313 643.07 291.253C643.339 291.218 643.611 291.218 643.88 291.253C644.419 291.284 644.936 291.479 645.36 291.812C645.628 292.032 645.851 292.3 646.02 292.603C646.95 294.233 645.93 295.603 645.15 297.053C644.777 297.75 644.352 298.418 643.88 299.053C643.43 299.693 642.93 300.303 642.42 300.893C641.91 301.483 641.37 302.073 640.83 302.643C640.29 303.213 639.75 303.783 639.22 304.363C638.69 304.943 638.22 305.543 637.67 306.113L637.47 306.312C637.38 306.423 637.3 306.553 637.2 306.663C637.1 306.773 636.69 307.113 636.47 307.363C636.25 307.613 636.12 307.703 635.95 307.873C635.866 307.984 635.764 308.082 635.65 308.163C635.54 308.233 635.39 308.163 635.27 308.243C635.15 308.323 635.18 308.293 635.22 308.373C635.295 308.553 635.326 308.748 635.31 308.943V309.393C635.305 309.469 635.305 309.546 635.31 309.623C635.349 309.756 635.372 309.894 635.38 310.033C635.39 310.219 635.39 310.406 635.38 310.593C635.38 310.963 635.38 311.333 635.38 311.703C635.38 312.453 635.3 313.193 635.26 313.943C635.22 314.693 635.15 315.433 635.08 316.173C635.01 316.913 634.93 317.673 634.85 318.423C634.77 319.173 634.67 319.933 634.57 320.683V320.973L634.74 320.733C635.22 320.093 635.74 319.473 636.26 318.863C636.78 318.253 637.33 317.673 637.87 317.083C638.41 316.493 638.97 315.923 639.5 315.323C639.77 315.033 640.04 314.733 640.29 314.423C640.552 314.148 640.792 313.854 641.01 313.543C641.07 313.453 641.1 313.343 641.16 313.243C641.239 313.115 641.333 312.998 641.44 312.893C641.7 312.593 642 312.353 642.26 312.073C642.52 311.793 642.71 311.663 642.94 311.473C643.17 311.283 643.2 311.233 643.32 311.103C643.44 310.973 643.62 310.693 643.78 310.503L643.9 310.373C643.9 310.323 643.9 310.283 643.9 310.243C643.976 310.133 644.063 310.033 644.16 309.943C644.42 309.673 644.7 309.403 644.96 309.123L646.53 307.473C647.05 306.923 647.53 306.363 648.1 305.812L649.68 304.163C650.2 303.613 650.73 303.063 651.26 302.523L652.86 300.903C653.4 300.363 653.94 299.823 654.49 299.293C655.04 298.763 655.58 298.243 656.14 297.723C656.7 297.203 657.26 296.723 657.82 296.193C658.38 295.663 658.97 295.193 659.55 294.693L659.98 294.333C663.3 291.583 666.31 288.333 670.62 286.943C671.418 286.665 672.256 286.52 673.1 286.513C673.621 286.459 674.146 286.535 674.63 286.733C674.98 286.953 675.07 287.433 675.19 287.783C675.374 288.251 675.495 288.742 675.55 289.243C675.621 290.25 675.537 291.261 675.3 292.243L675.12 293.073C675.035 293.336 674.978 293.608 674.95 293.883C674.81 294.093 675.44 294.713 675.47 294.603L675.01 293.933C675.17 294.143 675.32 294.363 675.48 294.583C676.36 293.983 677.21 293.323 678.14 292.793C682.06 290.533 684.59 291.793 685.24 296.233C685.24 296.113 685.49 295.763 685.55 295.653L685.87 295.053C686.25 294.343 686.63 293.633 686.99 292.913C687.17 292.619 687.302 292.298 687.38 291.963C687.439 291.694 687.544 291.436 687.69 291.203C687.89 290.813 688.09 290.423 688.31 290.043C688.53 289.663 688.71 289.403 688.89 289.043C689.07 288.683 689.11 288.613 689.25 288.403C689.416 288.149 689.566 287.885 689.7 287.613C689.97 287.093 690.34 286.613 690.62 286.093C690.9 285.573 691.17 284.903 691.52 284.343C691.87 283.783 692.09 283.273 692.38 282.743C692.67 282.213 693.04 281.603 693.38 281.053C694.113 279.952 694.925 278.906 695.81 277.923C696.295 277.368 696.938 276.974 697.653 276.795C698.369 276.617 699.121 276.661 699.81 276.923C700.439 277.07 700.991 277.444 701.36 277.973C701.542 278.237 701.683 278.527 701.78 278.833C701.83 279.1 701.83 279.375 701.78 279.643C701.78 280.093 701.78 280.553 701.78 280.993C701.762 281.882 701.669 282.769 701.5 283.643C701.258 284.652 700.882 285.624 700.38 286.533C699.46 288.393 698.65 290.303 697.71 292.143C697.52 292.605 697.303 293.056 697.06 293.493C696.949 293.685 696.862 293.889 696.8 294.103C696.768 294.314 696.703 294.52 696.61 294.713C696.74 294.943 696.78 295.013 696.99 294.763C697.2 294.513 697.26 294.503 697.38 294.353C697.628 294.046 697.896 293.756 698.18 293.483L699.12 292.483C699.51 292.073 699.96 291.713 700.31 291.273C700.51 291.023 700.74 290.803 700.93 290.543C701.12 290.283 701.32 289.973 701.53 289.713C701.74 289.453 702.04 288.953 702.33 288.603C702.62 288.253 702.77 287.893 703.01 287.603C703.404 287.107 703.839 286.645 704.31 286.223C704.76 285.763 705.14 285.223 705.56 284.753C705.8 284.473 705.98 284.173 706.23 283.913C706.519 283.591 706.833 283.293 707.17 283.023C707.72 282.603 708.17 282.023 708.72 281.683C709.04 281.436 709.338 281.162 709.61 280.863L710.61 279.953C711.87 278.733 713.13 277.513 714.35 276.253C715.03 275.553 715.7 274.843 716.35 274.123C718.17 272.123 720.48 270.833 722.51 269.123C724.057 267.666 725.894 266.551 727.9 265.853C728.98 265.463 730.72 265.063 731.59 266.103C731.867 266.474 732.086 266.886 732.24 267.323C732.558 267.92 732.68 268.602 732.59 269.273C732.53 269.483 732.484 269.697 732.45 269.913C732.435 270.152 732.435 270.393 732.45 270.633C732.477 270.783 732.538 270.925 732.628 271.048C732.718 271.171 732.835 271.272 732.97 271.343C733.38 271.653 733.64 271.403 734.03 271.193C734.448 270.952 734.879 270.736 735.32 270.543C736.75 269.923 738.32 269.633 739.57 270.893C740.82 272.153 740.63 273.743 740.12 275.373C739.61 277.003 737.95 277.543 737.84 279.373C739.84 278.543 741.84 277.443 744.06 278.833C751.73 270.613 759.5 262.483 768.9 256.163C770.328 255.243 771.83 254.444 773.39 253.773C774.53 253.263 775.81 252.913 776.88 253.993C777.233 254.322 777.513 254.722 777.703 255.167C777.892 255.611 777.987 256.09 777.98 256.573C777.962 257.019 777.878 257.461 777.73 257.883C777.49 258.384 777.216 258.868 776.91 259.333C776.56 259.913 776.23 260.523 775.91 261.113C775.54 261.807 775.122 262.476 774.66 263.113C774.292 263.645 773.877 264.143 773.42 264.603C772.987 264.977 772.595 265.396 772.25 265.853C771.85 266.373 771.32 266.733 770.89 267.213C770.762 267.334 770.666 267.485 770.61 267.653L770.53 267.733L769.41 268.933L768.28 270.133L767.17 271.333L766.05 272.533L764.92 273.733L763.8 274.933C763.739 275.011 763.672 275.084 763.6 275.153C763.6 275.153 763.54 275.153 763.52 275.243C763.5 275.333 763.65 275.243 763.69 275.243H763.84C763.878 275.24 763.915 275.229 763.948 275.209C763.981 275.19 764.009 275.164 764.03 275.133C764.09 275.053 764.13 274.963 764.18 274.883C764.242 274.775 764.316 274.674 764.4 274.583C764.79 274.153 765.19 273.723 765.59 273.312L766.82 272.093C767.23 271.693 767.65 271.303 768.08 270.913C768.51 270.523 768.94 270.153 769.38 269.783L770.71 268.693C771.157 268.326 771.607 267.966 772.06 267.613L773.43 266.613L774.82 265.613C775.17 265.363 775.52 265.093 775.88 264.843C776.24 264.593 776.43 264.543 776.71 264.373C777.22 264.053 777.78 263.703 778.32 263.373C778.576 263.19 778.851 263.036 779.14 262.913C779.364 262.848 779.581 262.765 779.79 262.663C780.9 262.063 782.01 261.463 783.09 260.803C783.7 260.443 784.29 260.063 784.87 259.653C786.51 258.513 787.75 259.073 788.99 259.853C790.43 260.773 790.37 262.243 789.79 263.683C789.266 264.899 788.55 266.023 787.67 267.013C786.87 268.013 786.04 268.903 785.15 269.793L784.15 270.663L782.92 271.823C782.784 271.939 782.657 272.066 782.54 272.203L782.16 272.593L781.4 273.363C780.9 273.883 780.4 274.363 779.88 274.913L778.36 276.463L776.83 278.013L776.06 278.793C775.83 279.033 775.57 279.253 775.33 279.493L775.15 279.683C774.96 279.893 774.78 280.103 774.58 280.293C774.38 280.483 773.72 280.863 773.58 281.343C773.58 281.503 773.58 281.663 773.81 281.623C774.084 281.521 774.325 281.348 774.51 281.123C774.756 280.87 775.016 280.633 775.29 280.413C775.49 280.253 775.72 280.103 775.91 279.923C776.055 279.773 776.192 279.616 776.32 279.453C776.52 279.223 776.8 279.062 776.98 278.812C777.193 278.575 777.439 278.37 777.71 278.203L779.55 276.823L781.39 275.443L783.24 274.062L785.08 272.683L785.31 272.523L785.4 272.463C786.32 271.943 787.26 271.463 788.2 270.973C788.47 270.843 788.73 270.673 789.02 270.553C789.31 270.433 789.41 270.473 789.59 270.403C790.18 270.153 790.75 269.873 791.34 269.633C791.994 269.351 792.661 269.104 793.34 268.893C793.88 268.711 794.442 268.604 795.01 268.573C795.446 268.528 795.885 268.615 796.27 268.823C796.495 268.982 796.691 269.178 796.85 269.403C797.02 269.623 797.21 269.813 797.39 270.023C797.548 270.193 797.661 270.399 797.72 270.623C797.72 270.673 797.72 270.703 797.72 270.783C797.768 270.929 797.801 271.08 797.82 271.233C797.845 271.553 797.895 271.87 797.97 272.183C798.046 272.434 798.046 272.701 797.97 272.953C797.86 273.183 797.73 273.393 797.62 273.623C797.371 274.151 797.07 274.654 796.72 275.123C796.03 276.073 795.23 276.923 794.46 277.812C794.04 278.312 793.61 278.813 793.23 279.353C794.15 279.923 794.74 279.103 795.35 278.753C802.055 275.05 808.379 270.696 814.23 265.753C814.99 265.103 815.74 264.463 816.49 263.803C817.24 263.143 817.91 262.483 818.66 261.883C819.18 261.463 819.83 261.243 820.37 260.883C820.767 260.581 821.139 260.246 821.48 259.883C821.98 259.383 822.48 258.883 823.01 258.403C823.407 258.007 823.827 257.636 824.27 257.293C824.719 256.864 825.14 256.406 825.53 255.923C825.905 255.516 826.24 255.074 826.53 254.603C827.03 253.833 827.77 253.273 828.28 252.513C828.64 251.983 828.95 251.423 829.28 250.873C829.44 250.623 829.52 250.333 829.68 250.073C829.866 249.793 830.07 249.526 830.29 249.273C830.48 249.023 830.67 248.803 830.86 248.562C831.138 248.153 831.442 247.763 831.77 247.393C832.019 247.2 832.25 246.987 832.46 246.753C833.06 245.923 833.61 245.053 834.18 244.193C834.5 243.723 834.81 243.253 835.18 242.793C843.03 231.413 850.59 219.793 858.26 208.333C851.26 209.693 844.2 210.983 837.19 212.423C817.65 216.423 798.12 220.486 778.6 224.613C754.24 229.679 729.884 234.74 705.53 239.793C688.45 243.333 671.37 246.859 654.29 250.373C640.19 253.283 626.03 255.933 612 259.133C600.8 261.693 589.44 263.523 578.29 266.333C575.18 267.123 572.01 267.583 568.87 268.243C567.87 268.443 562 270.553 561.23 269.653C561.152 269.564 561.097 269.457 561.069 269.342C561.041 269.227 561.041 269.107 561.07 268.993C566.23 267.163 572.85 266.483 578.29 265.363ZM823 255.893L823.1 255.983L822.96 255.913L823 255.893ZM769.34 237.143C770.778 237.222 772.128 237.856 773.109 238.909C774.09 239.963 774.625 241.355 774.601 242.794C774.578 244.234 773.999 245.608 772.984 246.629C771.97 247.651 770.599 248.24 769.16 248.273C767.716 248.211 766.354 247.585 765.366 246.531C764.377 245.477 763.84 244.078 763.87 242.633C763.919 241.199 764.508 239.837 765.519 238.819C766.529 237.801 767.887 237.202 769.32 237.143H769.34ZM734.91 244.562C736.349 244.612 737.71 245.225 738.702 246.269C739.693 247.312 740.235 248.703 740.21 250.143C740.175 251.206 739.825 252.236 739.206 253.102C738.587 253.968 737.726 254.632 736.731 255.01C735.736 255.388 734.652 255.464 733.614 255.227C732.576 254.991 731.631 254.452 730.898 253.681C730.165 252.909 729.676 251.938 729.493 250.889C729.311 249.841 729.442 248.761 729.871 247.787C730.299 246.813 731.007 245.987 731.903 245.413C732.8 244.839 733.846 244.543 734.91 244.562ZM699.06 252.163C701.79 252.233 704.32 255.093 704.19 257.973C704.182 258.7 704.028 259.418 703.736 260.084C703.444 260.751 703.021 261.352 702.492 261.851C701.962 262.35 701.338 262.736 700.655 262.988C699.973 263.24 699.247 263.352 698.52 263.317C697.794 263.282 697.082 263.101 696.427 262.785C695.772 262.468 695.188 262.023 694.709 261.476C694.23 260.928 693.866 260.29 693.64 259.599C693.413 258.907 693.328 258.177 693.39 257.453C693.496 256.022 694.135 254.685 695.182 253.705C696.229 252.724 697.606 252.174 699.04 252.163H699.06ZM662.76 259.053C663.474 259.043 664.183 259.177 664.843 259.447C665.504 259.717 666.104 260.118 666.607 260.625C667.11 261.131 667.506 261.734 667.771 262.396C668.036 263.059 668.165 263.769 668.15 264.483C668.15 265.915 667.581 267.289 666.569 268.301C665.556 269.314 664.182 269.883 662.75 269.883C661.318 269.883 659.945 269.314 658.932 268.301C657.919 267.289 657.35 265.915 657.35 264.483C657.341 263.769 657.474 263.06 657.743 262.398C658.011 261.737 658.409 261.135 658.913 260.629C659.417 260.124 660.017 259.723 660.677 259.453C661.338 259.182 662.046 259.046 662.76 259.053Z" fill="#2D3190"/>
<path fill-rule="evenodd" clip-rule="evenodd" d="M609.89 292.383L609.33 292.703C609.52 293.143 609.71 293.593 609.91 294.033C609.9 293.483 609.9 292.933 609.89 292.383Z" fill="#2D3190"/>
<path fill-rule="evenodd" clip-rule="evenodd" d="M678.67 222.843C679.84 221.273 683.04 220.783 681.42 217.693C681.645 217.468 681.901 217.276 682.18 217.123C683.51 216.313 684.42 215.443 683.4 213.723C683.176 213.284 683.097 212.785 683.174 212.298C683.251 211.811 683.481 211.361 683.83 211.013C686.25 209.943 686.65 207.013 688.83 205.883C688.94 211.433 689.02 216.983 689.2 222.533C689.26 224.243 688.55 224.453 687.1 224.183C684.34 223.673 681.5 223.283 678.67 222.843Z" fill="#FF6B00"/>
<path fill-rule="evenodd" clip-rule="evenodd" d="M696.94 184.273C695.34 183.053 695.2 181.063 695.2 179.473C695.2 175.353 692.65 171.973 692.34 168.013C692.34 167.873 691.91 167.763 691.68 167.643C691.56 165.093 691.43 162.533 691.31 159.983C693.41 158.453 694.76 160.693 696.49 160.983C696.65 168.756 696.8 176.52 696.94 184.273Z" fill="#151740"/>
<path fill-rule="evenodd" clip-rule="evenodd" d="M701.13 286.513C701.55 286.513 702.02 286.453 702.13 287.033C702.126 287.074 702.112 287.113 702.09 287.148C702.067 287.183 702.036 287.212 702 287.233C701.42 287.353 701.39 286.763 701.1 286.513H701.13Z" fill="#2D3190"/>
<path fill-rule="evenodd" clip-rule="evenodd" d="M650.83 147.673C649.57 148.413 648.3 149.093 646.99 149.773C646.46 150.043 642.82 152.083 644.08 149.913C643.08 149.913 639.62 151.553 639.15 150.103C638.68 148.653 641.86 147.983 642.73 147.863C643.81 147.713 647.11 148.293 645.15 146.753C644.15 145.933 641.7 146.503 641.09 145.133C639.55 141.693 652.01 146.963 652.09 146.923C651.66 147.183 651.25 147.433 650.83 147.673Z" fill="#B6BBDB"/>
<path d="M689 149.332H688.94V149.392L689 149.332Z" fill="#FEAA61"/>
<path d="M681.46 155.763H681.41C681.405 155.789 681.405 155.816 681.41 155.843L681.46 155.763Z" fill="#FEAA61"/>
<path d="M688.57 143.052L688.46 142.912L688.57 143.052Z" fill="#FEAA61"/>
<path d="M690.57 142.682C690.069 142.963 689.484 143.055 688.92 142.942C689.38 141.832 692.37 138.862 689.2 138.662C688.12 138.592 684.76 141.842 686.2 138.822C686.62 137.952 687.2 137.012 686.38 136.122C685.56 135.232 684.44 135.802 683.44 136.202C681.79 136.872 680.5 138.202 678.71 138.632C677.08 141.782 673.61 143.192 671.71 146.052C672.288 147.148 673.015 148.157 673.87 149.052C675.55 151.182 677.54 152.982 679.1 155.202C680.28 156.872 681.9 155.362 683.19 154.472C684.112 153.784 684.99 153.039 685.82 152.242C687.16 151.032 688.65 149.992 690 148.802C691 147.912 693.18 146.383 693.45 144.983C693.495 144.508 693.405 144.03 693.191 143.604C692.977 143.177 692.648 142.82 692.24 142.572C691.97 142.469 691.681 142.425 691.393 142.444C691.105 142.463 690.824 142.544 690.57 142.682Z" fill="#FEAA61"/>
<path fill-rule="evenodd" clip-rule="evenodd" d="M701.07 135.052C701.085 135.251 701.056 135.45 700.984 135.636C700.912 135.822 700.8 135.989 700.655 136.126C700.511 136.263 700.337 136.366 700.148 136.428C699.959 136.49 699.758 136.508 699.56 136.482C698.66 136.482 697.92 136.192 697.87 135.202C697.848 134.976 697.875 134.748 697.95 134.534C698.025 134.32 698.145 134.125 698.303 133.962C698.461 133.799 698.653 133.673 698.865 133.592C699.077 133.51 699.304 133.476 699.53 133.492C700.41 133.472 700.96 134.102 701.07 135.052Z" fill="#FF6B00"/>
<path fill-rule="evenodd" clip-rule="evenodd" d="M699.45 124.203C700.45 124.343 701.13 124.903 701.08 125.933C701.079 126.134 701.038 126.332 700.959 126.516C700.88 126.7 700.764 126.866 700.62 127.005C700.475 127.144 700.305 127.253 700.117 127.325C699.93 127.396 699.731 127.43 699.53 127.423C699.331 127.44 699.131 127.415 698.941 127.352C698.751 127.289 698.576 127.188 698.427 127.055C698.277 126.922 698.156 126.761 698.071 126.58C697.986 126.399 697.938 126.203 697.93 126.003C697.83 124.973 698.48 124.403 699.45 124.203Z" fill="#FF6B00"/>
<path fill-rule="evenodd" clip-rule="evenodd" d="M695.53 115.952L694.96 115.552C693.7 114.622 692.33 113.953 690.96 113.153C690.18 112.673 689.41 112.242 688.6 111.812C687.79 111.382 687.66 111.812 686.82 111.812C688.373 112.529 689.882 113.338 691.34 114.233C692.92 115.123 694.56 115.942 696.09 116.912C696.7 117.312 701.18 119.972 701.49 119.562C701.8 119.152 695.94 116.222 695.53 115.952Z" fill="#FF6B00"/>
<path fill-rule="evenodd" clip-rule="evenodd" d="M712.13 175.222C712.06 173.032 713.13 171.122 713.81 169.152C714.32 167.772 713.96 167.052 712.67 166.612C713.4 163.942 716.23 162.712 717.09 160.112C717.22 159.722 717.6 159.262 718.09 159.532C718.223 159.636 718.332 159.767 718.408 159.918C718.484 160.068 718.526 160.234 718.53 160.402C718.59 161.902 718.95 162.642 720.64 161.732C721.89 161.062 722.24 161.802 721.99 162.992C721.711 164.088 721.212 165.117 720.525 166.016C719.837 166.915 718.975 167.665 717.99 168.222C715.384 169.92 713.343 172.358 712.13 175.222Z" fill="#151740"/>
<path fill-rule="evenodd" clip-rule="evenodd" d="M711.48 176.293L712.13 175.173L711.48 176.293Z" fill="#151740"/>
<path fill-rule="evenodd" clip-rule="evenodd" d="M704.36 93.8525C703.18 95.3625 701.84 96.0928 699.36 94.5728C701.061 94.7859 702.788 94.537 704.36 93.8525Z" fill="#2D3190"/>
<path fill-rule="evenodd" clip-rule="evenodd" d="M690.41 100.143C693.93 98.9227 693.09 96.6829 691.98 94.3629C691.762 93.9841 691.678 93.5424 691.744 93.11C691.809 92.6776 692.019 92.2802 692.34 91.983C693.837 90.4215 695.177 88.7163 696.34 86.8927C694.47 86.6527 691.71 87.183 690.49 88.753C689.27 90.323 689.27 88.9128 688.83 87.8028C686.83 82.8028 678.97 87.883 681.46 92.443C682.68 94.703 684.78 95.063 687.13 94.693C687.099 94.9464 687.049 95.1972 686.98 95.443C685.88 97.773 684.76 100.093 683.67 102.443C682.79 104.293 681.1 106.243 681.3 107.973C681.5 109.703 683.67 110.023 684.87 110.643C685.68 111.063 686.7 112.103 687.7 111.793C688.11 111.673 688.32 111.163 688.7 110.923C689.29 110.523 690.05 110.453 690.63 110.033L692.43 104.913C692.51 104.693 692.6 104.473 692.68 104.263L692.06 104.353C691.802 104.489 691.515 104.564 691.223 104.572C690.931 104.581 690.641 104.523 690.375 104.402C690.109 104.282 689.873 104.102 689.687 103.877C689.501 103.652 689.369 103.387 689.3 103.103C689.174 102.836 689.102 102.547 689.09 102.253C689.078 101.958 689.125 101.664 689.228 101.388C689.332 101.112 689.49 100.859 689.693 100.645C689.896 100.431 690.14 100.26 690.41 100.143Z" fill="#151740"/>
<path fill-rule="evenodd" clip-rule="evenodd" d="M546.74 320.232L546.47 320.592C546.12 320.272 546.47 320.252 546.65 320.152L546.74 320.232Z" fill="#151740"/>
<path fill-rule="evenodd" clip-rule="evenodd" d="M827.13 291.302L826.83 291.102C826.382 290.826 825.853 290.71 825.33 290.773C824.67 290.843 824.02 290.882 823.33 290.922C823.183 290.957 823.032 290.977 822.88 290.983C822.787 290.973 822.693 290.973 822.6 290.983C822.49 290.983 822.38 290.983 822.26 290.983C821.916 291.037 821.58 291.135 821.26 291.273C821.12 291.333 820.63 291.613 820.75 291.273C820.87 290.933 821.02 290.722 821.13 290.452C821.231 290.229 821.363 290.02 821.52 289.832C821.747 289.549 821.951 289.248 822.13 288.932C822.497 288.31 822.812 287.658 823.07 286.983C823.484 286.184 823.624 285.272 823.468 284.387C823.313 283.501 822.871 282.692 822.21 282.082C820.78 280.752 819.12 280.872 817.49 281.632C817.1 281.812 816.71 282.012 816.32 282.202C815.93 282.392 815.62 282.552 815.32 282.742L814.81 283.012C814.702 283.072 814.588 283.123 814.47 283.162C814.432 283.192 814.388 283.213 814.34 283.222H814.13C814.096 283.246 814.059 283.266 814.02 283.282C813.816 283.335 813.619 283.409 813.43 283.503L813.15 283.662C813.07 283.722 813 283.832 812.88 283.802C812.897 283.677 812.934 283.556 812.99 283.443L813.07 283.262C813.103 283.221 813.127 283.173 813.14 283.122C813.14 283.122 813.14 283.062 813.14 283.032C813.14 282.92 813.16 282.808 813.2 282.702C813.29 282.372 813.32 282.032 813.39 281.702C813.419 281.457 813.462 281.213 813.52 280.972C813.563 280.838 813.596 280.701 813.62 280.562C813.635 280.503 813.635 280.442 813.62 280.382C813.611 280.316 813.611 280.249 813.62 280.182C813.99 276.842 812.14 275.263 808.92 276.273C806.81 277.02 804.84 278.115 803.09 279.512C795.2 285.322 788.46 292.352 781.93 299.582C778.79 303.062 775.75 306.582 772.66 310.142C773.04 305.792 773.07 301.603 773.36 297.443C772.86 295.293 772.83 293.043 771.86 291.003C771.05 289.283 769.92 287.862 767.93 287.842C766.11 287.842 765.49 289.512 764.93 290.842C759.47 304.312 756.22 318.502 749.28 331.622C756.11 335.622 762.98 339.622 769.83 343.622C775.33 346.832 780.75 350.242 786.44 353.132C786.605 353.099 786.772 353.076 786.94 353.062C788.94 352.292 789.63 350.393 790.57 348.713L803.83 325.172C805.83 320.352 809.1 316.512 812.83 312.992C814.6 311.352 816.3 309.642 818.02 307.992C821.36 304.222 825.16 300.843 827.54 296.273C827.911 295.64 828.152 294.939 828.25 294.213C828.316 293.643 828.255 293.066 828.07 292.523C827.871 292.04 827.546 291.618 827.13 291.302Z" fill="#FDC99A"/>
<path fill-rule="evenodd" clip-rule="evenodd" d="M698.13 90.0525C697.2 89.3725 696.06 90.2926 695.69 91.1526C695.04 92.6526 696.77 93.0125 697.75 92.0725C698.25 91.4825 698.96 90.6725 698.13 90.0525Z" fill="#151740"/>
<path d="M572.77 295.652L578.82 289.992" stroke="#2D3190" stroke-width="1.23" stroke-linecap="round" stroke-linejoin="round"/>
<path d="M581.63 303.273L589.41 295.773" stroke="#2D3190" stroke-width="1.23" stroke-linecap="round" stroke-linejoin="round"/>
<path d="M569.38 289.053V288.983C569.59 288.611 569.771 288.223 569.92 287.823C570.058 287.503 570.155 287.167 570.21 286.823C570.207 286.418 570.082 286.025 569.85 285.693C569.694 285.392 569.499 285.113 569.27 284.863C569.009 284.674 568.701 284.559 568.38 284.533L567.26 284.233C567.146 284.214 567.038 284.164 566.951 284.088C566.863 284.012 566.798 283.913 566.762 283.802C566.727 283.691 566.723 283.573 566.751 283.46C566.779 283.347 566.837 283.244 566.92 283.163C567.62 282.393 568.134 281.473 568.42 280.473C568.521 279.944 568.501 279.399 568.361 278.88C568.221 278.36 567.964 277.879 567.61 277.473C565.83 275.223 563.69 276.003 561.61 276.883C561.28 277.023 559.2 278.503 558.13 278.553C559.13 272.713 557.29 271.143 551.68 272.863C551.01 273.063 548.68 273.863 548.21 274.103C537.63 278.713 527.76 284.533 519.36 292.473C511.43 299.963 507.11 309.983 501.72 319.243C510.35 323.103 518.52 327.863 526.83 332.333C528.91 333.453 531.47 333.733 533.07 335.733C535.15 333.733 535.65 330.803 536.98 328.353C538.98 324.653 540.11 320.523 542.67 317.113C542.836 315.695 543.338 314.337 544.132 313.152C544.927 311.966 545.992 310.986 547.24 310.293C554.422 305.782 561.243 300.72 567.64 295.153C568.65 294.281 569.532 293.271 570.26 292.153C570.553 291.725 570.717 291.221 570.73 290.703C570.73 290.313 570.57 289.703 570.11 289.593C569.82 289.503 569.23 289.463 569.38 289.053Z" fill="#FDC99A"/>
<path d="M538.96 289.992L556.33 279.322" stroke="#2D3190" stroke-width="1.23" stroke-linecap="round" stroke-linejoin="round"/>
<path d="M543.91 297.302L564.42 284.232" stroke="#2D3190" stroke-width="1.23" stroke-linecap="round" stroke-linejoin="round"/>
<path d="M549.34 302.912L567.85 289.992" stroke="#2D3190" stroke-width="1.23" stroke-linecap="round" stroke-linejoin="round"/>
<path d="M619.1 298.402L629.22 289.492" stroke="#2D3190" stroke-width="1.23" stroke-linecap="round" stroke-linejoin="round"/>
<path d="M632.45 298.103L639.32 292.053" stroke="#2D3190" stroke-width="1.23" stroke-linecap="round" stroke-linejoin="round"/>
<path d="M671.29 313.952L682.77 302.912" stroke="#2D3190" stroke-width="1.23" stroke-linecap="round" stroke-linejoin="round"/>
<path d="M654.82 312.362L674.03 295.652" stroke="#2D3190" stroke-width="1.23" stroke-linecap="round" stroke-linejoin="round"/>
<path d="M713.73 291.323L731.62 273.193" stroke="#2D3190" stroke-width="1.23" stroke-linecap="round" stroke-linejoin="round"/>
<path d="M724.42 293.012L737.84 279.412" stroke="#2D3190" stroke-width="1.23" stroke-linecap="round" stroke-linejoin="round"/>
<path d="M794.13 302.303L812.02 284.183" stroke="#2D3190" stroke-width="1.23" stroke-linecap="round" stroke-linejoin="round"/>
<path d="M803.08 309.063L819.82 291.953" stroke="#2D3190" stroke-width="1.23" stroke-linecap="round" stroke-linejoin="round"/>
<path d="M413.72 345.523C413.438 345.804 413.104 346.026 412.736 346.178C412.368 346.33 411.974 346.408 411.576 346.408C411.178 346.407 410.784 346.328 410.417 346.176C410.05 346.023 409.716 345.799 409.435 345.518C409.154 345.236 408.931 344.902 408.779 344.534C408.627 344.166 408.549 343.772 408.55 343.374C408.55 342.976 408.629 342.582 408.782 342.215C408.934 341.847 409.158 341.514 409.44 341.233L429.6 321.183C430.169 320.615 430.94 320.297 431.743 320.298C432.547 320.299 433.317 320.619 433.885 321.188C434.452 321.756 434.771 322.527 434.77 323.331C434.769 324.135 434.449 324.905 433.88 325.473L413.72 345.523Z" fill="#D589E1"/>
</svg>
