<svg width="120" height="120" viewBox="0 0 120 120" fill="none" xmlns="http://www.w3.org/2000/svg">
<g opacity="0.9">
<mask id="mask0" mask-type="alpha" maskUnits="userSpaceOnUse" x="0" y="0" width="120" height="120">
<circle cx="60" cy="60" r="60" fill="#C4C4C4"/>
</mask>
<g mask="url(#mask0)">
<path d="M79.2012 15.9275C73.9827 7.11206 63.6584 6.70122 63.6584 6.70122C63.6584 6.70122 53.5978 5.41502 47.1441 18.841C41.1287 31.3552 32.8267 43.4379 45.8075 46.3673L48.1523 39.0713L49.6043 46.9105C51.4526 47.0434 53.3067 47.0751 55.1584 47.0054C69.0599 46.5567 82.2989 47.1367 81.8726 42.1495C81.306 35.5197 84.2224 24.4097 79.2012 15.9275Z" fill="#424242"/>
<path d="M52.1405 99.7285L48.0195 95.8095L39.5766 84.957L33.4502 87.8346L43.396 100.633L47.7056 106.329L47.718 106.361C47.718 106.361 54.7537 114.801 59.5783 111.184C64.4028 107.566 52.1405 99.7285 52.1405 99.7285Z" fill="#FFCDCD"/>
<path d="M87.7215 86.2627L83.6006 82.3438L78.9771 87.1671L83.2867 92.863L83.299 92.8948C83.299 92.8948 90.3348 101.336 95.1593 97.7181C99.9838 94.1006 87.7215 86.2627 87.7215 86.2627Z" fill="#FFCDCD"/>
<path d="M79.1776 76.916L86.4145 83.5483L81.7911 86.1608L75.1572 78.122L79.1776 76.916Z" fill="#424242"/>
<path d="M79.5801 45.766C79.5801 45.766 82.3944 43.3543 83.6005 51.1923C84.8067 59.0302 81.5903 61.8438 81.5903 61.8438L79.5801 45.766Z" fill="#424242"/>
<path d="M62.8954 37.1253C68.7795 37.1253 73.5495 32.3564 73.5495 26.4738C73.5495 20.5911 68.7795 15.8223 62.8954 15.8223C57.0112 15.8223 52.2412 20.5911 52.2412 26.4738C52.2412 32.3564 57.0112 37.1253 62.8954 37.1253Z" fill="#FFCDCD"/>
<path d="M56.4627 32.5C56.4627 32.5 55.0555 39.333 49.4269 40.1369C43.7983 40.9408 34.9533 43.7544 36.1595 49.1807C37.3656 54.6069 71.1373 54.004 71.1373 54.004L77.1679 44.7593C77.1679 44.7593 64.7046 41.5437 65.9107 34.3087L56.4627 32.5Z" fill="#FFCDCD"/>
<path d="M73.0468 43.2552C73.0468 43.2552 65.1065 49.1839 46.4114 48.7819C46.4114 48.7819 35.8468 50.484 37.4102 45.0106C37.4102 45.0106 36.1593 43.1547 34.9531 48.9829C33.747 54.8111 24.701 74.7073 25.5051 75.5112L28.5204 78.5258L35.1542 91.388L42.1899 87.3685L39.7777 82.1433C39.7777 82.1433 44.4012 85.9617 46.6124 80.3345C46.6124 80.3345 48.4216 85.7607 52.241 85.9617C56.0605 86.1627 80.7862 79.1287 80.7862 79.1287C80.7862 79.1287 79.379 73.5015 80.7862 71.0898C82.1933 68.6781 84.4046 63.8548 83.3994 60.2373L81.5902 45.7673C81.5902 45.7673 74.0519 42.6523 73.0468 43.2552Z" fill="#424242"/>
<path d="M52.5425 85.6579L53.2461 91.3856C53.2461 91.3856 46.8134 96.209 47.8185 113.493L27.7163 197.298C27.7163 197.298 31.5357 202.322 41.5868 201.92C51.6379 201.518 71.137 121.531 71.137 121.531C71.137 121.531 65.7094 199.91 72.3432 201.92C78.9769 203.93 88.4249 202.925 88.4249 202.925L94.6566 98.0177C94.6566 98.0177 88.4249 87.5672 84.8065 85.5575C81.1882 83.5477 79.781 78.5234 79.781 78.5234L52.5425 85.6579Z" fill="#A3CFF3"/>
<path d="M76.8939 15.4782L66.6938 10.1367L52.6082 12.3218L49.6938 25.1902L56.9483 24.9113L58.975 20.1836V24.8333L62.3224 24.7046L64.2654 17.1777L65.4796 25.1902L77.3797 24.9473L76.8939 15.4782Z" fill="#424242"/>
</g>
<circle cx="60" cy="60" r="59" stroke="#9F8DC1" stroke-width="2" stroke-dasharray="20 8"/>
</g>
</svg>
