<svg width="227" height="204" viewBox="0 0 227 204" fill="none" xmlns="http://www.w3.org/2000/svg">
<path d="M225.979 8.60341C225.678 6.3397 225.376 4.076 225.089 1.81014C225.004 1.13534 224.556 0.533837 223.972 0.344117C223.525 -0.0159199 222.894 -0.145275 222.391 0.210451C220.395 1.62257 218.401 3.04116 216.415 4.47053C214.902 5.56142 216.248 8.04072 217.902 7.03391C218.561 6.63291 219.22 6.23191 219.881 5.83091C218.129 9.75035 215.899 13.4521 213.272 16.839C212.572 13.991 211.877 11.1431 211.183 8.29296C210.974 7.43275 209.814 7.12877 209.211 7.76907C206.211 10.9469 203.628 14.4869 201.555 18.3309C200.748 15.4678 200.442 12.5035 200.68 9.50242C200.746 8.67671 199.571 8.20457 199.036 8.81684C195.191 13.1977 191.768 17.9126 189.078 23.1019C188.719 23.7983 189.688 24.3631 190.118 23.7142C192.754 19.7322 195.557 15.8537 198.641 12.2124C198.658 15.3557 199.208 18.4732 200.301 21.4397C200.601 22.2525 201.837 22.6168 202.295 21.7027C204.221 17.8609 206.596 14.2864 209.41 11.0633C210.101 14.004 210.792 16.9425 211.47 19.8874C211.673 20.7714 212.929 21.1336 213.539 20.4372C217.26 16.1901 220.292 11.4492 222.622 6.33539C222.725 7.23009 222.825 8.1248 222.928 9.02166C223.179 11.2616 226.281 10.8736 225.979 8.60341Z" fill="white"/>
<path d="M7.32631 109.58C7.32631 110.276 7.12053 110.956 6.73492 111.535C6.34931 112.113 5.80117 112.564 5.15992 112.83C4.51867 113.097 3.81312 113.166 3.13237 113.031C2.45163 112.895 1.8263 112.56 1.33551 112.068C0.844715 111.576 0.510463 110.949 0.375054 110.267C0.239645 109.584 0.309126 108.877 0.57474 108.234C0.840354 107.591 1.29016 107.042 1.86727 106.655C2.44438 106.269 3.12288 106.062 3.81696 106.062C4.74719 106.064 5.63889 106.435 6.29666 107.095C6.95444 107.754 7.32466 108.648 7.32631 109.58Z" fill="#FCCD06"/>
<path d="M226.297 197.669C226.297 198.79 225.965 199.886 225.345 200.818C224.724 201.75 223.842 202.477 222.81 202.906C221.778 203.335 220.642 203.447 219.546 203.229C218.451 203.01 217.444 202.47 216.654 201.677C215.864 200.884 215.326 199.874 215.109 198.775C214.891 197.675 215.002 196.535 215.43 195.499C215.857 194.464 216.581 193.578 217.51 192.955C218.439 192.332 219.531 192 220.648 192C222.146 192 223.583 192.597 224.642 193.66C225.702 194.723 226.297 196.165 226.297 197.669Z" fill="#FCCD06"/>
</svg>
