<svg width="300" height="134" viewBox="0 0 300 134" fill="none" xmlns="http://www.w3.org/2000/svg">
<path d="M7.32631 109.58C7.32631 110.276 7.12053 110.956 6.73492 111.535C6.34931 112.113 5.80117 112.564 5.15992 112.83C4.51867 113.097 3.81312 113.166 3.13237 113.031C2.45163 112.895 1.8263 112.56 1.33551 112.068C0.844715 111.576 0.510463 110.949 0.375054 110.267C0.239645 109.584 0.309126 108.877 0.57474 108.234C0.840354 107.591 1.29016 107.042 1.86727 106.655C2.44438 106.269 3.12288 106.062 3.81696 106.062C4.74719 106.064 5.63889 106.435 6.29666 107.095C6.95444 107.754 7.32466 108.648 7.32631 109.58Z" fill="#FCCD06"/>
<path d="M262.979 8.60341C262.678 6.3397 262.376 4.076 262.089 1.81014C262.004 1.13534 261.556 0.533837 260.972 0.344117C260.525 -0.0159199 259.894 -0.145275 259.391 0.210451C257.395 1.62257 255.401 3.04116 253.415 4.47053C251.902 5.56142 253.248 8.04072 254.902 7.03391C255.561 6.63291 256.22 6.23191 256.881 5.83091C255.129 9.75035 252.899 13.4521 250.272 16.839C249.572 13.991 248.877 11.1431 248.183 8.29296C247.974 7.43275 246.814 7.12877 246.211 7.76907C243.211 10.9469 240.628 14.4869 238.555 18.3309C237.748 15.4678 237.442 12.5035 237.68 9.50242C237.746 8.67671 236.571 8.20457 236.036 8.81684C232.191 13.1977 228.768 17.9126 226.078 23.1019C225.719 23.7983 226.688 24.3631 227.118 23.7142C229.754 19.7322 232.557 15.8537 235.641 12.2124C235.658 15.3557 236.208 18.4732 237.301 21.4397C237.601 22.2525 238.837 22.6168 239.295 21.7027C241.221 17.8609 243.596 14.2864 246.41 11.0633C247.101 14.004 247.792 16.9425 248.47 19.8874C248.673 20.7714 249.929 21.1336 250.539 20.4372C254.26 16.1901 257.292 11.4492 259.622 6.33539C259.725 7.23009 259.825 8.1248 259.928 9.02166C260.179 11.2616 263.281 10.8736 262.979 8.60341Z" fill="white"/>
<path d="M299.297 127.669C299.297 128.79 298.965 129.886 298.345 130.818C297.724 131.75 296.842 132.477 295.81 132.906C294.778 133.335 293.642 133.447 292.546 133.229C291.451 133.01 290.444 132.47 289.654 131.677C288.864 130.884 288.326 129.874 288.109 128.775C287.891 127.675 288.002 126.535 288.43 125.499C288.857 124.464 289.581 123.578 290.51 122.955C291.439 122.332 292.531 122 293.648 122C295.146 122 296.583 122.597 297.642 123.66C298.702 124.723 299.297 126.165 299.297 127.669Z" fill="#FCCD06"/>
</svg>
