<svg width="338" height="282" viewBox="0 0 338 282" fill="none" xmlns="http://www.w3.org/2000/svg">
<g clip-path="url(#clip0)">
<path d="M151.485 263.073C151.485 263.073 124.824 284.695 92.0567 281.727C59.2896 278.76 10.4055 259.15 1.52316 206.503C-5.17149 166.834 10.9663 135.928 35.9587 123.047C60.9511 110.166 68.7258 114.83 91.5028 116.422C114.28 118.013 135.998 113.266 148.708 93.1527C159.82 75.5805 140.38 65.6041 145.378 38.3207C150.377 11.0374 170.855 1.50778 185.609 0.390753C200.362 -0.726272 211.183 0.0277192 222.993 10.5696C234.797 21.1116 233.967 27.2761 233.967 27.2761C233.967 27.2761 263.681 25.0351 274.231 46.3214C284.782 67.6077 279.23 79.504 274.231 93.1597C269.233 106.815 263.681 116.896 271.455 128.653C279.23 140.41 290.341 143.321 299.224 160.907C308.113 178.5 299.224 199.221 299.224 199.221L151.485 263.073Z" fill="#FF6B00"/>
<path d="M199.62 171.21C199.62 171.21 209.984 159.062 212.207 148.178C214.796 135.5 214.055 132.672 214.055 132.672C214.055 132.672 209.243 134.802 202.39 133.866C195.543 132.931 186.279 126.214 183.503 107.358C180.727 88.5009 183.316 73.7492 186.833 61.6155C190.35 49.4818 197.758 42.0117 211.459 42.0117C225.16 42.0117 233.488 52.0929 237.005 58.439C240.522 64.7851 242.004 70.3911 242.931 73.7492C243.859 77.1073 243.859 79.7253 243.859 79.7253C243.859 79.7253 251.267 73.7492 256.078 78.2313C260.89 82.7133 262.004 91.112 258.668 96.341C255.331 101.57 248.297 105.487 246.081 105.305C243.859 105.117 244.233 106.611 244.233 106.611C244.233 106.611 245.161 124.72 247.563 135.179C249.965 145.637 252.942 151.026 255.338 155.152C258.668 160.898 269.038 169.283 269.038 169.283L207.388 190.813L199.62 171.21Z" fill="#FFBDAB"/>
<path d="M233.967 119.82C233.967 119.82 230.499 123.178 219.248 129.343C217.289 130.418 215.593 131.382 214.118 132.247C214.229 133.532 214.319 137.895 212.215 148.186C212.159 148.465 212.09 148.751 212.021 149.038C217.165 148.186 219.982 146.964 224.801 143.089C232.299 137.071 233.967 119.82 233.967 119.82Z" fill="#E2976E"/>
<path d="M194.671 108.622C194.671 108.622 197.308 118.982 205.221 118.843C213.135 118.703 214.526 106.66 214.526 106.66L194.671 108.622Z" fill="white"/>
<path d="M191.265 68.9964H185.747C183.871 68.9964 182.348 67.4605 182.348 65.5685C182.348 63.6765 183.871 62.1406 185.747 62.1406H191.265C193.141 62.1406 194.664 63.6765 194.664 65.5685C194.671 67.4605 193.148 68.9964 191.265 68.9964Z" fill="#FF6B00"/>
<path d="M223.18 70.2542H215.599C213.723 70.2542 212.2 68.7183 212.2 66.8263C212.2 64.9344 213.723 63.3984 215.599 63.3984H223.18C225.056 63.3984 226.579 64.9344 226.579 66.8263C226.579 68.7183 225.056 70.2542 223.18 70.2542Z" fill="#FF6B00"/>
<path d="M189.949 82.8567C191.941 82.8567 193.556 81.2282 193.556 79.2193C193.556 77.2105 191.941 75.582 189.949 75.582C187.957 75.582 186.342 77.2105 186.342 79.2193C186.342 81.2282 187.957 82.8567 189.949 82.8567Z" fill="#2C2B28"/>
<path d="M220.079 82.8567C222.071 82.8567 223.686 81.2282 223.686 79.2193C223.686 77.2105 222.071 75.582 220.079 75.582C218.087 75.582 216.472 77.2105 216.472 79.2193C216.472 81.2282 218.087 82.8567 220.079 82.8567Z" fill="#2C2B28"/>
<path d="M246.027 108.065C248.78 108.065 251.012 105.814 251.012 103.038C251.012 100.262 248.78 98.0117 246.027 98.0117C243.274 98.0117 241.043 100.262 241.043 103.038C241.043 105.814 243.274 108.065 246.027 108.065Z" fill="#F387C4"/>
<path d="M185.609 94.438C178.298 94.438 172.351 88.441 172.351 81.0686C172.351 73.6962 178.298 67.6992 185.609 67.6992C192.92 67.6992 198.867 73.6962 198.867 81.0686C198.867 88.441 192.913 94.438 185.609 94.438ZM185.609 70.2893C179.711 70.2893 174.913 75.1274 174.913 81.0756C174.913 87.0238 179.711 91.8619 185.609 91.8619C191.508 91.8619 196.305 87.0238 196.305 81.0756C196.305 75.1274 191.508 70.2893 185.609 70.2893Z" fill="white"/>
<path d="M217.885 94.438C210.574 94.438 204.627 88.441 204.627 81.0686C204.627 73.6962 210.574 67.6992 217.885 67.6992C225.196 67.6992 231.143 73.6962 231.143 81.0686C231.143 88.441 225.196 94.438 217.885 94.438ZM217.885 70.2893C211.986 70.2893 207.189 75.1274 207.189 81.0756C207.189 87.0238 211.986 91.8619 217.885 91.8619C223.783 91.8619 228.581 87.0238 228.581 81.0756C228.581 75.1274 223.783 70.2893 217.885 70.2893Z" fill="white"/>
<path d="M198.617 81.828L196.547 80.313C196.603 80.2292 198.008 78.3163 200.59 77.9393C205.243 77.2551 206.953 80.32 207.029 80.4526L204.786 81.6883C204.758 81.6464 203.782 80.0756 200.957 80.4875C199.462 80.7109 198.624 81.821 198.617 81.828Z" fill="white"/>
<path d="M182.667 79.8114L173.517 81.5898L174.004 84.1188L183.153 82.3404L182.667 79.8114Z" fill="white"/>
<path d="M243.743 78.462L229.732 79.8008L229.974 82.3653L243.986 81.0265L243.743 78.462Z" fill="white"/>
<path d="M202.03 96.1627V80.7617C202.03 80.7617 199.531 83.5613 196.201 87.7641C192.871 91.9669 191.48 93.7821 195.647 95.4646C199.808 97.1401 201.193 97.7056 202.03 96.1627Z" fill="#E2976E"/>
<path d="M338.001 195.01C333.058 190.04 327.145 185.132 319.772 180.175C294.78 163.371 258.676 160.906 258.676 160.906C258.676 160.906 253.677 176.817 233.684 176.258C213.69 175.7 206.469 161.137 206.469 161.137C206.469 161.137 198.14 158.337 163.705 172.335C129.269 186.34 100.386 222.182 100.386 222.182C100.386 222.182 101.168 224.046 102.989 227.251C130.855 250.757 166.737 264.908 205.908 264.908C260.684 264.908 309.035 237.234 338.001 195.01Z" fill="#762EBA"/>
</g>
<defs>
<clipPath id="clip0">
<rect width="338" height="282" fill="white"/>
</clipPath>
</defs>
</svg>
