<svg width="18" height="19" viewBox="0 0 18 19" fill="none" xmlns="http://www.w3.org/2000/svg">
<path d="M12.468 5.92864L8.98805 10.6326L5.50804 5.92864C5.41427 5.80178 5.29644 5.69463 5.16127 5.61331C5.0261 5.53199 4.87623 5.4781 4.72023 5.4547C4.56422 5.4313 4.40514 5.43885 4.25206 5.47693C4.09898 5.51501 3.9549 5.58287 3.82804 5.67664C3.70119 5.7704 3.59404 5.88823 3.51272 6.0234C3.4314 6.15858 3.37751 6.30845 3.35411 6.46445C3.33071 6.62045 3.33826 6.77953 3.37634 6.93261C3.41442 7.0857 3.48227 7.22978 3.57604 7.35664L8.01605 13.3566C8.12758 13.508 8.2731 13.631 8.44089 13.7158C8.60868 13.8005 8.79405 13.8447 8.98204 13.8447C9.17003 13.8447 9.3554 13.8005 9.52319 13.7158C9.69098 13.631 9.83652 13.508 9.94805 13.3566L14.4 7.35664C14.4938 7.22978 14.5617 7.0857 14.5998 6.93261C14.6378 6.77953 14.6454 6.62045 14.622 6.46445C14.5986 6.30845 14.5447 6.15858 14.4634 6.0234C14.382 5.88823 14.2749 5.7704 14.1481 5.67664C14.0212 5.58287 13.8771 5.51501 13.724 5.47693C13.5709 5.43885 13.4119 5.4313 13.2559 5.4547C13.0998 5.4781 12.95 5.53199 12.8148 5.61331C12.6796 5.69463 12.5618 5.80178 12.468 5.92864Z" fill="#A8D600"/>
<path d="M14.568 0H3.396C2.4963 0.00316243 1.63435 0.361974 0.998163 0.998163C0.361974 1.63435 0.00316243 2.4963 0 3.396V14.64C0 15.5407 0.357792 16.4045 0.994665 17.0413C1.63154 17.6782 2.49533 18.036 3.396 18.036H14.568C15.014 18.036 15.4556 17.9482 15.8676 17.7775C16.2796 17.6068 16.654 17.3567 16.9693 17.0413C17.2847 16.726 17.5348 16.3516 17.7055 15.9396C17.8762 15.5276 17.964 15.086 17.964 14.64V3.396C17.9608 2.4963 17.602 1.63435 16.9658 0.998163C16.3296 0.361974 15.4677 0.00316243 14.568 0ZM15.564 14.64C15.5609 14.9032 15.4549 15.1547 15.2688 15.3408C15.0827 15.527 14.8312 15.6329 14.568 15.636H3.396C3.13281 15.6329 2.88128 15.527 2.69517 15.3408C2.50905 15.1547 2.40311 14.9032 2.4 14.64V3.396C2.40311 3.13281 2.50905 2.88128 2.69517 2.69517C2.88128 2.50905 3.13281 2.40312 3.396 2.4H14.568C14.8312 2.40312 15.0827 2.50905 15.2688 2.69517C15.4549 2.88128 15.5609 3.13281 15.564 3.396V14.64Z" fill="#7D36A8"/>
</svg>
