<svg width="20" height="19" viewBox="0 0 20 19" fill="none" xmlns="http://www.w3.org/2000/svg">
<path d="M11.4165 8.49494C11.4165 7.73894 11.4165 6.35893 9.70051 6.32293C7.98451 6.28693 7.98452 7.72694 7.98452 8.49494C7.98111 8.96828 8.16183 9.4244 8.48852 9.76694C7.96361 9.91728 7.50029 10.231 7.16582 10.6626C6.83135 11.0942 6.64313 11.6211 6.62852 12.1669V12.2269C6.62269 12.2546 6.62269 12.2832 6.62852 12.3109C6.65872 12.4646 6.74073 12.6032 6.86086 12.7037C6.98098 12.8042 7.13194 12.8604 7.28852 12.8629H12.0885C12.2574 12.8613 12.4199 12.7983 12.5457 12.6857C12.6715 12.5731 12.7521 12.4186 12.7725 12.2509V12.1309C12.7791 12.1033 12.7791 12.0745 12.7725 12.0469C12.7128 11.5277 12.501 11.0377 12.1636 10.6384C11.8263 10.2392 11.3785 9.94851 10.8765 9.80294C11.0491 9.63188 11.1858 9.42805 11.2785 9.20343C11.3713 8.97882 11.4182 8.73794 11.4165 8.49494Z" fill="#5B6670"/>
<path d="M19.3365 6.75405C19.1994 6.31973 18.9415 5.9334 18.5931 5.64016C18.2446 5.34693 17.8198 5.15891 17.3685 5.09806L13.5405 4.57006L11.8485 1.29406C11.646 0.904015 11.3402 0.577065 10.9646 0.348871C10.589 0.120677 10.158 0 9.71848 0C9.27899 0 8.84794 0.120677 8.47234 0.348871C8.09673 0.577065 7.79101 0.904015 7.58849 1.29406L5.89648 4.57006L2.05649 5.09806C1.60898 5.16278 1.18887 5.35259 0.844531 5.64564C0.500192 5.93869 0.245643 6.32305 0.110205 6.75445C-0.0252343 7.18585 -0.0360644 7.64674 0.0789851 8.08401C0.194035 8.52129 0.430275 8.91718 0.760485 9.22606L3.46049 11.7461L2.82449 15.2621C2.74688 15.6994 2.79216 16.1497 2.9553 16.5628C3.11843 16.976 3.39302 17.3357 3.74849 17.6021C4.16392 17.9136 4.6692 18.0821 5.18849 18.0821C5.56322 18.0835 5.93309 17.9972 6.26848 17.8301L9.71249 16.1021L13.1685 17.8301C13.5039 17.9972 13.8738 18.0835 14.2485 18.0821C14.7678 18.0821 15.2731 17.9136 15.6885 17.6021C16.044 17.3357 16.3185 16.976 16.4817 16.5628C16.6448 16.1497 16.6901 15.6994 16.6125 15.2621L15.9765 11.7461L18.6765 9.22606C19.0085 8.91822 19.2466 8.52275 19.3634 8.08533C19.4802 7.64792 19.4708 7.18639 19.3365 6.75405ZM13.3365 10.882L14.2005 15.682L9.66448 13.4141L5.1405 15.682L6.00448 10.882L2.34449 7.47405L7.40849 6.76606L9.66448 2.39806L11.9325 6.76606L16.9965 7.47405L13.3365 10.882Z" fill="#7D36A8"/>
</svg>
