<svg width="24" height="24" viewBox="0 0 24 24" fill="none" xmlns="http://www.w3.org/2000/svg">
<path d="M12.0001 3.60156C10.3387 3.60156 8.71468 4.09421 7.3333 5.01722C5.95193 5.94022 4.87529 7.25212 4.23952 8.78702C3.60374 10.3219 3.43739 12.0109 3.7615 13.6403C4.08562 15.2698 4.88565 16.7665 6.06041 17.9413C7.23517 19.116 8.7319 19.916 10.3613 20.2402C11.9908 20.5643 13.6797 20.3979 15.2146 19.7621C16.7495 19.1264 18.0614 18.0497 18.9845 16.6684C19.9075 15.287 20.4001 13.6629 20.4001 12.0016C20.4001 9.77374 19.5151 7.63717 17.9398 6.06186C16.3645 4.48655 14.2279 3.60156 12.0001 3.60156ZM12.0001 18.0016C10.8134 18.0016 9.65337 17.6497 8.66668 16.9904C7.67998 16.3311 6.91096 15.394 6.45683 14.2977C6.00271 13.2013 5.88389 11.9949 6.1154 10.831C6.34691 9.66713 6.91835 8.59803 7.75747 7.75892C8.59658 6.9198 9.66567 6.34836 10.8296 6.11685C11.9934 5.88533 13.1998 6.00416 14.2962 6.45828C15.3926 6.91241 16.3296 7.68144 16.9889 8.66814C17.6482 9.65483 18.0001 10.8149 18.0001 12.0016C17.9906 13.5866 17.3543 15.1035 16.2301 16.2209C15.1059 17.3384 13.5852 17.9656 12.0001 17.9656V18.0016Z" fill="#7D36A8"/>
<path d="M15.6242 13.1039C15.5578 13.0604 15.4832 13.0308 15.405 13.0169C15.3268 13.003 15.2466 13.0051 15.1692 13.023C15.0918 13.041 15.0189 13.0744 14.9548 13.1213C14.8907 13.1682 14.8367 13.2276 14.7962 13.296C14.5151 13.7822 14.1137 14.1881 13.6306 14.4745C13.1474 14.7609 12.5988 14.9183 12.0373 14.9316C11.4757 14.9448 10.9203 14.8135 10.4241 14.5502C9.92802 14.2869 9.50793 13.9004 9.20422 13.4279C9.15967 13.3621 9.10248 13.3058 9.03598 13.2622C8.96948 13.2187 8.89499 13.1888 8.81684 13.1743C8.73869 13.1598 8.65843 13.1609 8.58072 13.1777C8.50302 13.1945 8.42942 13.2265 8.3642 13.2719C8.29876 13.3154 8.24269 13.3715 8.19928 13.4369C8.15587 13.5024 8.12602 13.5758 8.11148 13.653C8.09694 13.7302 8.09802 13.8095 8.11463 13.8863C8.13124 13.963 8.16306 14.0357 8.20821 14.1C8.62588 14.736 9.19838 15.2554 9.87195 15.6093C10.5455 15.9633 11.298 16.1402 12.0587 16.1234C12.8195 16.1066 13.5634 15.8966 14.2207 15.5133C14.878 15.13 15.427 14.5858 15.8162 13.932C15.8977 13.7959 15.9232 13.6336 15.8874 13.4792C15.8516 13.3247 15.7572 13.1902 15.6242 13.1039Z" fill="#7D36A8"/>
<path d="M9.60015 11.7125C9.83748 11.7125 10.0695 11.6421 10.2668 11.5103C10.4642 11.3784 10.618 11.191 10.7088 10.9717C10.7996 10.7525 10.8234 10.5112 10.7771 10.2784C10.7308 10.0456 10.6165 9.8318 10.4487 9.66398C10.2809 9.49615 10.067 9.38186 9.83427 9.33556C9.60149 9.28926 9.36021 9.31302 9.14094 9.40385C8.92167 9.49467 8.73424 9.64848 8.60239 9.84582C8.47053 10.0432 8.40015 10.2752 8.40015 10.5125C8.40015 10.8308 8.52657 11.136 8.75162 11.361C8.97666 11.5861 9.28189 11.7125 9.60015 11.7125Z" fill="#7D36A8"/>
<path d="M14.4002 11.7125C14.6375 11.7125 14.8695 11.6421 15.0669 11.5103C15.2642 11.3784 15.418 11.191 15.5089 10.9717C15.5997 10.7525 15.6234 10.5112 15.5771 10.2784C15.5308 10.0456 15.4165 9.8318 15.2487 9.66398C15.0809 9.49615 14.8671 9.38186 14.6343 9.33556C14.4015 9.28926 14.1603 9.31302 13.941 9.40385C13.7217 9.49467 13.5343 9.64848 13.4024 9.84582C13.2706 10.0432 13.2002 10.2752 13.2002 10.5125C13.2002 10.8308 13.3266 11.136 13.5517 11.361C13.7767 11.5861 14.0819 11.7125 14.4002 11.7125Z" fill="#7D36A8"/>
</svg>
