<svg width="120" height="120" viewBox="0 0 120 120" fill="none" xmlns="http://www.w3.org/2000/svg">
<g opacity="0.9">
<circle cx="60" cy="60" r="59" stroke="#9F8DC1" stroke-width="2" stroke-dasharray="20 8"/>
<path d="M46.3147 75.7793L50.4397 82.9239L54.5645 90.0684H46.3147H38.0649L42.1898 82.9239L46.3147 75.7793Z" fill="#544274"/>
<path d="M27.6522 52.8984H10.353V70.1976H27.6522V52.8984Z" fill="#544274"/>
<path d="M37.5835 30.0943L28.7998 48L29.0758 48.1326L37.8595 30.2269L37.5835 30.0943Z" fill="#424242"/>
<path d="M43.4781 80.8707L32.5476 59.4881L32.5476 60.1286L43.2002 80.9992L43.4781 80.8707Z" fill="#424242"/>
<mask id="path-6-inside-1" fill="white">
<path d="M32.5513 70.3511H10.2002V48H32.5513V70.3511ZM10.5064 70.045H32.2452V48.3062H10.5064V70.045Z"/>
</mask>
<path d="M32.5513 70.3511V71.3511H33.5513V70.3511H32.5513ZM10.2002 70.3511H9.2002V71.3511H10.2002V70.3511ZM10.2002 48V47H9.2002V48H10.2002ZM32.5513 48H33.5513V47H32.5513V48ZM10.5064 70.045H9.50638V71.045H10.5064V70.045ZM32.2452 70.045V71.045H33.2452V70.045H32.2452ZM32.2452 48.3062H33.2452V47.3062H32.2452V48.3062ZM10.5064 48.3062V47.3062H9.50638V48.3062H10.5064ZM32.5513 69.3511H10.2002V71.3511H32.5513V69.3511ZM11.2002 70.3511V48H9.2002V70.3511H11.2002ZM10.2002 49H32.5513V47H10.2002V49ZM31.5513 48V70.3511H33.5513V48H31.5513ZM10.5064 71.045H32.2452V69.045H10.5064V71.045ZM33.2452 70.045V48.3062H31.2452V70.045H33.2452ZM32.2452 47.3062H10.5064V49.3062H32.2452V47.3062ZM9.50638 48.3062V70.045H11.5064V48.3062H9.50638Z" fill="#424242" mask="url(#path-6-inside-1)"/>
<mask id="path-8-inside-2" fill="white">
<path d="M60.9192 90.2212H37.7998L49.3594 70.1992L60.9192 90.2212ZM38.3301 89.915H60.3888L49.3594 70.8115L38.3301 89.915Z"/>
</mask>
<path d="M60.9192 90.2212V91.2212H62.6513L61.7853 89.7212L60.9192 90.2212ZM37.7998 90.2212L36.9338 89.7212L36.0678 91.2212H37.7998V90.2212ZM49.3594 70.1992L50.2255 69.6992L49.3594 68.1992L48.4934 69.6992L49.3594 70.1992ZM38.3301 89.915L37.4641 89.415L36.598 90.915H38.3301V89.915ZM60.3888 89.915V90.915H62.1209L61.2548 89.415L60.3888 89.915ZM49.3594 70.8115L50.2255 70.3115L49.3594 68.8115L48.4934 70.3115L49.3594 70.8115ZM60.9192 89.2212H37.7998V91.2212H60.9192V89.2212ZM38.6658 90.7212L50.2255 70.6992L48.4934 69.6992L36.9338 89.7212L38.6658 90.7212ZM48.4934 70.6992L60.0532 90.7212L61.7853 89.7212L50.2255 69.6992L48.4934 70.6992ZM38.3301 90.915H60.3888V88.915H38.3301V90.915ZM61.2548 89.415L50.2255 70.3115L48.4934 71.3115L59.5228 90.415L61.2548 89.415ZM48.4934 70.3115L37.4641 89.415L39.1961 90.415L50.2255 71.3115L48.4934 70.3115Z" fill="#424242" mask="url(#path-8-inside-2)"/>
<path d="M76.9937 96.6245L75.9777 98.8256L74.1153 98.6563L72.93 94.7619L74.7926 93.7461L76.9937 96.6245Z" fill="#FFCDCD"/>
<path d="M83.3871 101.694L83.4272 103.228L80.5489 103.398V101.535L83.3871 101.694Z" fill="#FFCDCD"/>
<path d="M82.4114 73.767L81.7341 87.3124L83.4272 102.043L78.3477 102.72L75.1306 84.0955L74.1148 71.3965L82.4114 73.767Z" fill="#424242"/>
<path d="M90.371 68.86C90.371 68.86 92.4028 82.2362 88.1698 86.6385C83.9369 91.0408 78.18 98.8295 78.18 98.8295L74.1164 93.7499L84.4448 82.7442L82.413 75.2941L74.1164 71.3998L75.4709 62.0873L87.6619 61.918L90.371 68.86Z" fill="#424242"/>
<path d="M80.3805 37.8699C78.3232 37.8699 76.6554 36.2022 76.6554 34.1449C76.6554 32.0877 78.3232 30.4199 80.3805 30.4199C82.4377 30.4199 84.1055 32.0877 84.1055 34.1449C84.1055 36.2022 82.4377 37.8699 80.3805 37.8699Z" fill="#FFCDCD"/>
<path d="M83.5985 34.9883C83.5985 34.9883 83.7678 40.2372 84.6144 40.9144C85.461 41.5917 81.5667 44.4701 81.5667 44.4701L79.0269 40.4065V36.6815L83.5985 34.9883Z" fill="#FFCDCD"/>
<path d="M81.9037 42.104L83.9594 39L85.1208 40.5802L86.814 45.3212L85.4594 63.7768L77.5015 63.9461L76.4855 42.7813L79.0253 39.7336L81.9037 42.104Z" fill="#DDD9E3"/>
<path d="M73.2687 43.2865L71.9142 43.1172C71.9142 43.1172 71.5755 43.2865 71.4062 44.4717C71.2369 45.657 69.2051 56.1547 69.2051 56.1547L71.9142 69.0229L74.9619 64.9593L73.0994 57.8479L74.9619 50.7365L73.2687 43.2865Z" fill="#424242"/>
<path d="M90.5381 43.1172H91.5541L94.0938 56.832L91.7234 67.4992L89.353 63.6048L90.0302 59.3719L89.6915 55.6469L88.5062 53.4456L90.5381 43.1172Z" fill="#424242"/>
<path d="M75.4704 98.1497C75.4704 98.1497 76.4863 97.8111 76.4863 98.4884C76.4863 99.1656 75.809 101.197 75.809 101.197C75.809 101.197 76.825 107.462 75.3011 107.124C73.7772 106.785 72.592 103.907 72.4227 103.06C72.2534 102.213 71.4068 97.8111 71.4068 97.8111C71.4068 97.8111 70.0522 94.594 70.8988 94.4247C71.7454 94.2554 74.1159 93.5781 74.1159 93.5781C74.1159 93.5781 72.7613 97.8111 75.4704 98.1497Z" fill="#424242"/>
<path d="M80.3815 103.395C80.3815 103.395 83.0906 101.702 83.5985 103.056C83.9354 104.044 84.1626 105.067 84.2758 106.104C84.2758 106.104 84.9531 108.305 82.244 107.967C79.5349 107.628 79.8735 107.628 79.7042 106.612C79.5349 105.596 80.3815 103.395 80.3815 103.395Z" fill="#424242"/>
<path d="M82.5824 34.1441L81.9051 33.9748C81.9051 33.9748 81.3971 31.0964 80.2119 31.435C79.0267 31.7737 75.9789 32.1123 75.9789 30.7577C75.9789 29.4032 78.8573 28.2179 80.5505 28.3873C82.2437 28.5566 85.1221 29.0645 84.9528 31.6043C84.7835 34.1441 83.6909 36.6148 83.6909 36.6148L83.6027 35.109L82.5824 34.1441Z" fill="#424242"/>
<path d="M79.0259 44.1346L81.9043 42.1028L79.0259 39.7324L78.0265 40.9315L79.0259 44.1346Z" fill="#CCC6D5"/>
<path d="M84.4448 43.9669L81.905 42.1043L83.9368 39.0566L85.1221 40.5805L84.4448 43.9669Z" fill="#CCC6D5"/>
<path d="M72.0847 43.1208L77.5029 40.9197L78.7728 39.9884L82.5824 56.8357L85.1222 49.2163L84.3603 39.4805L91.387 43.1208L89.0165 54.6345L88.6779 59.0368L89.6938 62.5925C89.6938 62.5925 93.2495 65.1323 92.0643 67.8414C90.879 70.5505 89.5245 70.7198 89.5245 70.7198C89.5245 70.7198 83.7677 65.3016 83.429 63.9471C83.0904 62.5925 82.5824 60.222 82.5824 60.222C82.5824 60.222 79.704 71.0585 76.3176 70.8891C72.9313 70.7198 72.9313 67.1641 72.9313 67.1641L73.7779 63.4391L75.1324 59.5448L74.4551 53.1106L72.0847 43.1208Z" fill="#424242"/>
<path d="M44.1172 12.3008L53.6109 17.9713V28.7909L44.2408 34.2008L34.8706 28.7909L34.7471 17.7106L44.1172 12.3008Z" fill="#544274"/>
<path d="M34.7937 13.7934L47.7922 6.28868L60.7907 13.7934V28.8028L47.7922 36.3074L34.7937 28.8028V13.7934Z" stroke="#424242" stroke-width="0.5"/>
</g>
</svg>
