<svg width="120" height="120" viewBox="0 0 120 120" fill="none" xmlns="http://www.w3.org/2000/svg">
<g opacity="0.9">
<mask id="mask0" mask-type="alpha" maskUnits="userSpaceOnUse" x="1" y="0" width="119" height="119">
<circle cx="60.3002" cy="59.7016" r="59.1" fill="#C4C4C4"/>
</mask>
<g mask="url(#mask0)">
<path d="M158.966 39.8899C154.328 28.6672 145.251 19.0934 134.285 17.5331C131.386 17.1205 128.359 17.286 125.669 18.564C122.138 20.2417 119.535 23.6281 116.905 26.7519C111.336 33.3641 105.104 39.2362 98.3328 44.2519C94.9907 46.7268 91.406 49.0358 87.438 49.669C79.4822 50.9386 71.6128 44.8704 67.9846 36.85C65.7181 31.8399 64.6707 25.9577 62.8385 20.7465C60.7283 20.742 58.2143 20.7429 55.5096 20.7568C48.0334 20.7954 41.948 20.9189 41.948 20.9189C41.948 20.9189 49.1814 10.2023 55.4825 14.1727C57.4961 15.4415 59.6051 16.5738 61.5434 17.5276C60.4423 15.1585 59.0533 13.027 57.1426 11.3131C53.3749 7.93374 48.2721 6.98583 43.4478 7.2375C38.382 7.50177 33.2696 9.01874 29.1533 12.3318C21.8202 18.2337 18.792 28.6221 16.2002 38.302L22.4649 41.8147C25.152 39.2163 29.0815 36.6459 32.7033 38.9282C39.0043 42.8986 46.2426 45.5348 46.2426 45.5348C46.2426 45.5348 40.2066 45.4737 32.7304 45.5123C31.4748 45.5187 30.2599 45.5277 29.1049 45.5379L98.658 84.5375C121.599 84.8989 138.896 83.5113 160.695 84.5375C161.832 84.591 164.389 77.9254 164.397 76.1712C164.457 63.8077 163.604 51.1125 158.966 39.8899ZM136.691 43.2535C129.214 43.2921 123.129 43.4156 123.129 43.4156C123.129 43.4156 130.362 32.699 136.663 36.6694C142.965 40.6399 150.203 43.2761 150.203 43.2761C150.203 43.2761 144.167 43.215 136.691 43.2536L136.691 43.2535Z" fill="#F2F2F2"/>
<path d="M166.8 85.1977H5.40039V84.5977H166.639L166.8 85.1977Z" fill="#2F2E41"/>
<path d="M73.8003 51.8028C73.8003 51.8028 74.8568 43.0182 76.6177 45.414C78.3786 47.8098 76.6177 51.4035 76.6177 51.4035L75.209 53.4L73.8003 52.2021V51.8028Z" fill="#FFCDCD"/>
<path d="M69.9774 54.4314C69.9774 54.4314 73.2336 50.3478 73.8848 51.0902C74.5361 51.8327 76.4898 52.204 76.1642 53.6889C75.8385 55.1739 69.0005 60 69.0005 60L69.9774 54.4314Z" fill="#449BD9"/>
<path opacity="0.1" d="M69.9774 54.4314C69.9774 54.4314 73.2336 50.3478 73.8848 51.0902C74.5361 51.8327 76.4898 52.204 76.1642 53.6889C75.8385 55.1739 69.0005 60 69.0005 60L69.9774 54.4314Z" fill="#449BD9"/>
<path d="M50.4217 54V57.0671C50.4217 57.0671 50.0812 63.968 52.1238 63.5846C54.1663 63.2012 53.1451 57.4505 53.1451 57.4505L52.8046 54H50.4217Z" fill="#FFCDCD"/>
<path d="M51.6368 76.1992C51.6368 76.1992 48.5277 81.432 47.4913 81.8058C46.4549 82.1795 40.9277 85.5435 40.2368 88.9074L35.4004 95.6353L37.8186 98.9992C37.8186 98.9992 48.8731 86.291 51.9822 85.1697C55.0913 84.0484 58.2004 78.4418 58.2004 78.4418L51.6368 76.1992Z" fill="#FFCDCD"/>
<path d="M75.4408 67.1992C75.4408 67.1992 81.9126 68.3392 80.8908 72.8992C79.8689 77.4592 69.9908 86.9592 69.9908 86.9592L69.6502 89.2392L65.9033 89.9992L64.2002 88.0992L64.5408 86.9592C64.5408 86.9592 68.6283 82.7792 68.9689 81.2592C69.3096 79.7392 73.0564 73.6592 74.7595 73.2792L72.3752 71.7592L75.4408 67.1992Z" fill="#FFCDCD"/>
<path d="M36.6815 95.5458C36.6815 95.5458 38.1085 93.2594 35.968 93.6405C33.8274 94.0216 32.4004 94.4026 32.4004 95.9269C32.4004 97.4511 34.1842 108.121 36.3247 107.359C38.4653 106.597 36.6815 103.167 36.6815 103.167C36.6815 103.167 37.7517 100.119 38.4653 99.7375C39.1788 99.3564 39.1788 97.4511 38.4653 97.4511C37.7517 97.4511 36.3247 96.3079 36.6815 95.5458Z" fill="#544274"/>
<path d="M65.1955 87.2565C65.1955 87.2565 65.1955 85.3258 63.8288 87.2565C62.462 89.1872 61.7786 90.7318 63.1454 91.8902C64.5121 93.0487 69.2957 95.7517 69.2957 95.7517C69.2957 95.7517 74.421 96.9101 73.7377 94.2071C73.7377 94.2071 70.3208 92.2764 70.3208 90.7318C70.3208 89.1872 70.3208 86.4842 69.2957 87.2565C68.2707 88.0288 65.1955 88.415 65.1955 87.2565Z" fill="#544274"/>
<path d="M58.8853 58.8008C58.8853 58.8008 54.1531 59.5544 54.4911 67.0905C54.4911 67.0905 48.4068 73.873 50.0969 76.1339C51.787 78.3947 55.5052 82.5396 56.8572 81.4092C58.2093 80.2788 62.2655 71.6122 62.2655 71.6122C62.2655 71.6122 71.73 75.3803 73.4201 73.4962C75.1102 71.6122 76.8003 67.0905 76.8003 67.0905L68.3498 62.192L58.8853 58.8008Z" fill="#544274"/>
<path d="M72.3004 37.1992C74.4543 37.1992 76.2004 35.1845 76.2004 32.6992C76.2004 30.2139 74.4543 28.1992 72.3004 28.1992C70.1465 28.1992 68.4004 30.2139 68.4004 32.6992C68.4004 35.1845 70.1465 37.1992 72.3004 37.1992Z" fill="#FFCDCD"/>
<path d="M69.1581 33C69.1581 33 66.7485 37.3044 66.06 37.6957C65.3716 38.087 70.8793 42 70.8793 42C70.8793 42 70.8793 36.913 72.6005 35.7391L69.1581 33Z" fill="#FFCDCD"/>
<path d="M68.7864 37.1883C68.7864 37.1883 63.2386 35.2746 62.1984 38.3365C61.1582 41.3985 58.731 47.1397 59.0777 50.9671C59.4245 54.7945 60.118 54.0291 59.0777 55.1773C58.0375 56.3255 57.344 55.56 57.6908 57.091C58.0375 58.622 58.3843 58.622 58.0375 59.3875C57.6908 60.153 62.1984 62.8322 66.0125 63.2149L69.8267 63.5977C69.8267 63.5977 69.8267 56.7083 70.5201 55.1773C71.2136 53.6463 72.6006 50.5844 72.6006 49.4361V46.398C72.6006 44.3759 72.1225 42.3887 71.2136 40.633C71.2136 40.633 69.1332 37.1883 68.7864 37.1883Z" fill="#449BD9"/>
<path d="M64.7816 39C64.7816 39 52.0214 40.1073 50.6419 43.7985C49.2624 47.4896 48.5726 54.8719 49.9521 54.8719C51.3316 54.8719 53.056 55.6101 53.4008 54.8719C53.7457 54.1337 55.1252 46.7514 55.4701 46.7514C55.8149 46.7514 66.1611 45.6441 66.1611 45.6441C66.1611 45.6441 70.6444 39.7382 64.7816 39Z" fill="#449BD9"/>
<path d="M72.4319 31.5641C72.4319 31.5641 73.4919 29.5075 74.8168 31.2938C76.1417 33.0802 78.2971 29.7975 77.9662 29.097C77.6354 28.3966 76.4669 29.1285 74.4645 28.3977C72.462 27.6668 68.6047 26.178 67.9587 31.0347C67.3127 35.8915 68.8513 35.3824 68.8513 35.3824C68.8513 35.3824 69.5565 31.0787 70.1939 32.3149L70.8313 33.5511L71.3842 33.703L72.4319 31.5641Z" fill="#2F2E41"/>
<path opacity="0.3" d="M36.6001 80.0876C36.6001 75.951 34.29 72.5977 31.4402 72.5977C29.6491 72.5977 28.0716 73.9229 27.1464 75.9342C26.8287 75.8153 26.4956 75.7546 26.1603 75.7544C25.2931 75.7707 24.4652 76.1581 23.8498 76.8357C23.0158 74.3279 21.2474 72.5977 19.2004 72.5977C17.2866 72.5977 15.6173 74.1113 14.7265 76.3578C14.204 75.969 13.5899 75.7592 12.9606 75.7544C10.7736 75.7544 9.00063 78.3279 9.00063 81.5025C8.99423 82.5733 9.20756 83.6317 9.62451 84.5977H35.5595C36.2549 83.2205 36.6137 81.6658 36.6001 80.0876Z" fill="#A3CFF3"/>
</g>
<circle cx="60" cy="60" r="59" stroke="#9F8DC1" stroke-width="2" stroke-dasharray="20 8"/>
</g>
</svg>
