<svg width="120" height="120" viewBox="0 0 120 120" fill="none" xmlns="http://www.w3.org/2000/svg">
<g opacity="0.9">
<mask id="mask0" mask-type="alpha" maskUnits="userSpaceOnUse" x="0" y="0" width="120" height="120">
<circle cx="60" cy="60" r="60" fill="#C4C4C4"/>
</mask>
<g mask="url(#mask0)">
<path d="M57.335 99.5495C84.2903 99.5495 106.142 98.4051 106.142 96.9935C106.142 95.5819 84.2903 94.4375 57.335 94.4375C30.3798 94.4375 8.52832 95.5819 8.52832 96.9935C8.52832 98.4051 30.3798 99.5495 57.335 99.5495Z" fill="#DDD9E3"/>
<path d="M85.8524 98.7809C86.6683 98.7809 87.3298 98.1011 87.3298 97.2625C87.3298 96.4239 86.6683 95.7441 85.8524 95.7441C85.0364 95.7441 84.375 96.4239 84.375 97.2625C84.375 98.1011 85.0364 98.7809 85.8524 98.7809Z" fill="#424242"/>
<path d="M86.0537 65.7216L82.1588 55.0929C82.1588 55.0929 82.7632 53.0914 81.1515 53.2295C79.5399 53.3675 75.242 54.8859 75.242 54.8859C75.242 54.8859 73.7647 55.0239 75.7793 57.1634L79.2712 68.4132L80.4129 67.8611L76.6523 56.6803C76.6523 56.6803 76.4508 55.9211 77.1895 55.7141C77.9282 55.507 80.7486 54.2647 81.0172 55.0239C81.2859 55.7831 84.7778 66.6878 84.7778 66.6878L86.0537 65.7216Z" fill="#3F3D56"/>
<path d="M75.5781 73.0368L83.0993 96.1575C83.7077 96.5721 84.368 96.9002 85.0622 97.1327C85.6898 97.3544 86.3368 97.5132 86.9942 97.6068C87.239 97.6266 87.4854 97.6066 87.7241 97.5475C91.5915 96.7538 104.857 89.4628 104.857 89.4628C104.857 89.4628 98.0745 67.7225 96.9329 65.0998C95.7913 62.4772 93.2394 63.4434 93.2394 63.4434C93.2394 63.4434 80.3493 67.0206 78.4993 67.6852C78.461 67.699 78.4274 67.7114 78.3985 67.7225C77.5837 68.0246 76.8801 68.579 76.3846 69.3092L76.3839 69.3099C74.5036 70.4832 75.5781 73.0368 75.5781 73.0368Z" fill="#3B8AC3"/>
<path opacity="0.2" d="M80.9771 66.8479L81.0134 66.9808C81.5954 66.8133 82.0914 68.1477 82.0963 68.1611L90.3559 91.695L90.4822 91.6483L89.4349 88.6642L100.684 83.5575L101.57 86.173L101.697 86.1276L94.3077 64.3108L94.3036 64.3042C94.2774 64.2615 93.6545 63.2608 92.9153 63.4623L92.9497 63.5958C93.5671 63.4269 94.1333 64.2887 94.186 64.3715L95.75 68.9892L83.9241 72.9623L82.2223 68.1135C82.2001 68.0527 81.6777 66.6462 80.9771 66.8479ZM95.7942 69.1196L96.9463 72.5211L85.304 76.8941L83.9697 73.0921L95.7942 69.1196ZM86.6786 80.8107L85.3496 77.0239L96.9905 72.6515L98.1343 76.0287L86.6786 80.8107ZM98.1786 76.1592L99.4325 79.8615L87.9962 84.5649L86.7242 80.9406L98.1786 76.1592ZM89.3892 88.534L88.0418 84.6948L99.4767 79.992L100.64 83.4266L89.3892 88.534Z" fill="black"/>
<path opacity="0.2" d="M76.3839 72.207C77.0554 73.3112 84.5766 96.4319 84.5766 96.4319C84.716 96.6806 84.8786 96.9148 85.0621 97.1311C85.6898 97.3528 86.3368 97.5115 86.9941 97.6052C87.239 97.625 87.4853 97.6049 87.7241 97.5458C87.2621 97.3747 86.2299 96.8205 85.7182 95.1896C85.0467 93.0501 77.6598 70.4815 77.6598 70.4815C77.6598 70.4815 77.8908 68.7796 78.4992 67.6836C78.461 67.6974 78.4274 67.7098 78.3985 67.7209C77.5837 68.023 76.8801 68.5773 76.3846 69.3076L76.3839 69.3083C76.3839 69.3083 75.7124 71.1027 76.3839 72.207Z" fill="black"/>
<path d="M77.7267 77.3164L78.4654 79.663C78.4654 79.663 77.861 84.2871 81.0172 87.3239L81.6887 89.6704L80.9948 89.6898L80.262 87.4369C80.262 87.4369 77.8275 84.4188 77.8106 79.9014L77.1895 77.3164H77.7267Z" fill="#424242"/>
<path d="M90.3856 98.816C91.2015 98.816 91.863 98.1362 91.863 97.2977C91.863 96.4591 91.2015 95.7793 90.3856 95.7793C89.5696 95.7793 88.9082 96.4591 88.9082 97.2977C88.9082 98.1362 89.5696 98.816 90.3856 98.816Z" fill="#424242"/>
<path d="M104.722 92.4313C105.538 92.4313 106.2 91.7515 106.2 90.9129C106.2 90.0743 105.538 89.3945 104.722 89.3945C103.907 89.3945 103.245 90.0743 103.245 90.9129C103.245 91.7515 103.907 92.4313 104.722 92.4313Z" fill="#424242"/>
<path d="M51.6617 26.3047C51.6617 26.3047 48.2421 26.9437 48.0867 28.3814C47.9978 29.3911 47.9978 30.407 48.0867 31.4167L51.6617 26.3047Z" fill="#575A89"/>
<path d="M71.2465 59.8529C71.2465 59.8529 61.2987 63.5271 54.7704 60.3322C48.2421 57.1372 40.3149 53.1435 40.3149 53.1435C40.3149 53.1435 36.429 53.463 36.8953 51.0667C37.3616 48.6705 40.4703 34.7723 47.6203 30.1396C47.6203 30.1396 51.9725 24.3887 54.4595 24.7081C56.9465 25.0276 66.5835 48.6705 66.5835 48.6705L71.2465 59.8529Z" fill="#575A89"/>
<path opacity="0.2" d="M71.2465 59.8529C71.2465 59.8529 61.2987 63.5271 54.7704 60.3322C48.2421 57.1372 40.3149 53.1435 40.3149 53.1435C40.3149 53.1435 36.429 53.463 36.8953 51.0667C37.3616 48.6705 40.4703 34.7723 47.6203 30.1396C47.6203 30.1396 51.9725 24.3887 54.4595 24.7081C56.9465 25.0276 66.5835 48.6705 66.5835 48.6705L71.2465 59.8529Z" fill="#9F8DC1"/>
<path d="M76.5312 51.2246L77.153 52.8221C77.153 52.8221 81.1943 55.3781 79.4845 57.1353C77.7747 58.8926 75.201 54.18 75.201 54.18L74.1997 52.1831L76.5312 51.2246Z" fill="#FFCDCD"/>
<path d="M42.4909 79.8202L41.8691 90.8429L45.1333 92.2806L46.3768 79.0215L42.4909 79.8202Z" fill="#FFCDCD"/>
<path d="M55.7026 79.8203L60.0548 85.5713L61.2983 89.4053L64.407 89.2455L65.1842 85.4115L60.832 80.9386L55.7026 79.8203Z" fill="#FFCDCD"/>
<path d="M55.3144 23.3491C57.6322 23.3491 59.5112 21.418 59.5112 19.0359C59.5112 16.6538 57.6322 14.7227 55.3144 14.7227C52.9966 14.7227 51.1177 16.6538 51.1177 19.0359C51.1177 21.418 52.9966 23.3491 55.3144 23.3491Z" fill="#FFCDCD"/>
<path d="M54.4595 22.3108L54.7703 26.3045L59.7443 24.707C59.7443 24.707 57.8791 21.6718 58.3454 20.873L54.4595 22.3108Z" fill="#FFCDCD"/>
<path d="M54.4596 24.7061C54.4596 24.7061 57.4045 25.5049 59.1185 23.5879L62.6977 25.3451L58.0346 43.237L48.2422 40.5213L49.7965 37.0068C49.7965 37.0068 47.7759 34.6106 49.952 32.3741C49.952 32.3741 50.4183 27.9011 51.8172 26.9426C52.7586 26.2761 53.6426 25.5279 54.4596 24.7061Z" fill="#DDD9E3"/>
<path d="M59.0446 23.5078C59.0446 23.5078 53.7598 27.821 59.5109 40.601C65.262 53.3809 70.0805 64.2438 71.9458 63.6048C73.811 62.9658 80.1838 58.0136 78.0078 56.2563C75.8317 54.4991 66.661 48.9079 65.4175 41.5594C64.174 34.211 67.1273 26.7028 67.1273 26.7028L59.0446 23.5078Z" fill="#9F8DC1"/>
<path d="M64.8735 28.3789L78.241 51.5425L74.5105 53.14L63.0083 37.1651L64.8735 28.3789Z" fill="#575A89"/>
<path d="M49.0193 40.041H47.9313L43.89 48.987C43.89 48.987 36.2736 72.6298 37.0508 77.4223C37.828 82.2147 66.7395 81.5698 65.1846 81.416C63.7052 81.2697 56.0086 44.842 58.2677 42.8366L49.0193 40.041Z" fill="#544274"/>
<path d="M42.9571 89.5631C42.9571 89.5631 42.6462 88.2852 41.4027 88.2852C40.1593 88.2852 40.1593 90.0424 40.1593 90.0424L36.5842 93.3971C36.5842 93.3971 33.4755 97.3908 37.5169 97.3908C41.5582 97.3908 41.5582 96.4324 41.5582 96.4324C41.5582 96.4324 42.6462 95.3141 43.5788 95.9531C44.5114 96.5921 46.6875 95.3141 46.3767 94.6751C46.0658 94.0361 45.6014 89.9023 45.2896 90.6113C44.9778 91.3204 42.9571 89.5631 42.9571 89.5631Z" fill="#424242"/>
<path d="M63.63 87.6465C63.63 87.6465 63.9409 87.4868 62.3865 87.6465C60.8322 87.8063 60.2104 87.6465 60.2104 87.6465L61.2985 91.9598C61.2985 91.9598 60.3659 99.3082 63.4746 98.6692C66.5833 98.0302 66.5833 93.5572 66.5833 93.5572C66.5833 93.5572 66.117 89.5635 66.4279 89.244C66.7387 88.9245 66.5833 84.6113 66.117 84.6113C65.6507 84.6113 63.4 83.5762 63.4 83.5762C63.4 83.5762 64.8735 87.6465 63.63 87.6465Z" fill="#424242"/>
<path d="M55.4418 19.2936C55.1807 18.8805 55.3126 18.3189 55.1295 17.8637C54.8419 17.1488 53.9482 16.9814 53.1983 16.9161C52.7014 16.8506 52.1984 16.852 51.7019 16.9203C51.4825 16.9577 51.2746 17.0471 51.0945 17.1813C50.9144 17.3155 50.7671 17.4909 50.6642 17.6936C50.5532 17.9223 50.5812 17.2057 50.6523 16.2858C50.7243 15.3472 51.0843 14.4562 51.6806 13.7413C52.2769 13.0264 53.0786 12.5246 53.9702 12.308C53.9808 12.3054 53.9913 12.3029 54.0017 12.3005C54.9148 12.084 55.8563 11.9247 56.787 12.037C57.7176 12.1494 58.6453 12.5623 59.2261 13.3181C59.4916 13.6635 59.6793 14.0708 59.9756 14.3886C60.4963 14.947 61.2681 15.1502 61.9772 15.4093C62.79 15.6787 63.538 16.1222 64.1718 16.7106C64.7851 17.317 65.2199 18.1479 65.2327 19.0225C65.2477 20.0426 64.6163 21.0954 63.5988 21.2965C63.4219 21.3282 63.2548 21.4024 63.1109 21.5129C62.1395 22.2871 63.2477 23.0975 63.24 23.969C63.2336 24.6963 62.4459 25.1702 61.739 25.2041C61.0782 25.2164 60.4338 24.992 59.9162 24.5694C59.3987 24.1469 59.0403 23.5525 58.9025 22.8881C58.7959 22.2913 58.8782 21.6784 58.9475 21.0758C59.0269 20.386 57.5815 18.7618 58.5363 19.9523C58.7226 20.1786 58.8484 20.4508 58.9013 20.7422C59.0602 21.6932 58.2181 22.0131 57.6871 22.5401C57.3955 22.8382 57.1911 23.2143 57.0969 23.6257C57.0028 24.0372 57.0227 24.4675 57.1544 24.8679C56.7165 24.4602 56.4309 23.9081 56.3467 23.3071C56.2625 22.706 56.3851 22.0936 56.6934 21.5755C56.8645 21.3059 57.0848 21.0713 57.2471 20.796C57.5002 20.3663 57.57 19.4318 56.8615 19.4575C56.3558 19.4758 55.8305 19.9085 55.4418 19.2936Z" fill="#424242"/>
<path d="M20.131 95.0344C20.131 95.0344 13.8908 83.1966 -1.2002 88.3153L20.131 95.0344Z" fill="#D0CDE1"/>
<path d="M20.5073 94.7463C20.5073 94.7463 12.7901 84.6648 23.9287 72.0879L20.5073 94.7463Z" fill="#D0CDE1"/>
</g>
<circle cx="60" cy="60" r="59" stroke="#9F8DC1" stroke-width="2" stroke-dasharray="20 8"/>
</g>
</svg>
