<svg width="24" height="24" viewBox="0 0 24 24" fill="none" xmlns="http://www.w3.org/2000/svg">
<path d="M12 3.59961C10.3386 3.59961 8.71456 4.09226 7.33318 5.01526C5.95181 5.93827 4.87517 7.25017 4.2394 8.78506C3.60362 10.32 3.43727 12.0089 3.76138 13.6384C4.0855 15.2678 4.88553 16.7645 6.06029 17.9393C7.23505 19.1141 8.73178 19.9141 10.3612 20.2382C11.9907 20.5623 13.6796 20.396 15.2145 19.7602C16.7494 19.1244 18.0613 18.0478 18.9843 16.6664C19.9073 15.285 20.4 13.661 20.4 11.9996C20.4 9.77179 19.515 7.63521 17.9397 6.05991C16.3644 4.4846 14.2278 3.59961 12 3.59961ZM12 17.9996C10.8133 17.9996 9.65325 17.6477 8.66656 16.9884C7.67986 16.3291 6.91084 15.3921 6.45671 14.2957C6.00259 13.1994 5.88376 11.9929 6.11528 10.8291C6.34679 9.66518 6.91823 8.59608 7.75735 7.75696C8.59646 6.91785 9.66555 6.3464 10.8294 6.11489C11.9933 5.88338 13.1997 6.0022 14.2961 6.45633C15.3924 6.91046 16.3295 7.67949 16.9888 8.66618C17.6481 9.65288 18 10.8129 18 11.9996C17.9905 13.5847 17.3541 15.1015 16.2299 16.219C15.1058 17.3364 13.5851 17.9636 12 17.9636V17.9996Z" fill="#7D36A8"/>
<path d="M15.624 13.1039C15.5575 13.0604 15.4829 13.0308 15.4047 13.0169C15.3265 13.003 15.2463 13.0051 15.1689 13.023C15.0915 13.041 15.0186 13.0744 14.9545 13.1213C14.8904 13.1682 14.8365 13.2276 14.796 13.296C14.5149 13.7822 14.1135 14.1881 13.6303 14.4745C13.1472 14.7609 12.5985 14.9183 12.037 14.9316C11.4755 14.9448 10.92 14.8135 10.4239 14.5502C9.92777 14.2869 9.50769 13.9004 9.20397 13.4279C9.15943 13.3621 9.10224 13.3058 9.03574 13.2622C8.96924 13.2187 8.89475 13.1888 8.81659 13.1743C8.73844 13.1598 8.65818 13.1609 8.58048 13.1777C8.50278 13.1945 8.42917 13.2265 8.36396 13.2719C8.29852 13.3154 8.24244 13.3715 8.19904 13.4369C8.15563 13.5024 8.12578 13.5758 8.11124 13.653C8.0967 13.7302 8.09777 13.8095 8.11439 13.8863C8.131 13.963 8.16282 14.0357 8.20797 14.1C8.62563 14.736 9.19814 15.2554 9.8717 15.6093C10.5453 15.9633 11.2978 16.1402 12.0585 16.1234C12.8192 16.1066 13.5632 15.8966 14.2205 15.5133C14.8777 15.13 15.4268 14.5858 15.816 13.932C15.8974 13.7959 15.923 13.6336 15.8872 13.4792C15.8513 13.3247 15.757 13.1902 15.624 13.1039Z" fill="#7D36A8"/>
<path d="M9.60002 11.7125C9.83736 11.7125 10.0694 11.6421 10.2667 11.5103C10.4641 11.3784 10.6179 11.191 10.7087 10.9717C10.7995 10.7525 10.8233 10.5112 10.777 10.2784C10.7307 10.0456 10.6164 9.8318 10.4486 9.66398C10.2807 9.49615 10.0669 9.38186 9.83414 9.33556C9.60137 9.28926 9.36009 9.31302 9.14081 9.40385C8.92154 9.49467 8.73412 9.64848 8.60226 9.84582C8.47041 10.0432 8.40002 10.2752 8.40002 10.5125C8.40002 10.8308 8.52645 11.136 8.7515 11.361C8.97654 11.5861 9.28176 11.7125 9.60002 11.7125Z" fill="#7D36A8"/>
<path d="M14.4 11.7125C14.6373 11.7125 14.8693 11.6421 15.0666 11.5103C15.264 11.3784 15.4178 11.191 15.5086 10.9717C15.5994 10.7525 15.6232 10.5112 15.5769 10.2784C15.5306 10.0456 15.4163 9.8318 15.2485 9.66398C15.0807 9.49615 14.8668 9.38186 14.6341 9.33556C14.4013 9.28926 14.16 9.31302 13.9407 9.40385C13.7215 9.49467 13.534 9.64848 13.4022 9.84582C13.2703 10.0432 13.2 10.2752 13.2 10.5125C13.2 10.8308 13.3264 11.136 13.5514 11.361C13.7765 11.5861 14.0817 11.7125 14.4 11.7125Z" fill="#7D36A8"/>
</svg>
