<svg width="24" height="24" viewBox="0 0 24 24" fill="none" xmlns="http://www.w3.org/2000/svg">
<path d="M17.568 3H6.396C5.4963 3.00316 4.63435 3.36197 3.99816 3.99816C3.36197 4.63435 3.00316 5.4963 3 6.396V17.64C3 18.5407 3.35779 19.4045 3.99467 20.0413C4.63154 20.6782 5.49533 21.036 6.396 21.036H17.568C18.014 21.036 18.4556 20.9482 18.8676 20.7775C19.2796 20.6068 19.654 20.3567 19.9693 20.0413C20.2847 19.726 20.5348 19.3516 20.7055 18.9396C20.8762 18.5276 20.964 18.086 20.964 17.64V6.396C20.9608 5.4963 20.602 4.63435 19.9658 3.99816C19.3296 3.36197 18.4677 3.00316 17.568 3ZM18.564 17.64C18.5609 17.9032 18.4549 18.1547 18.2688 18.3408C18.0827 18.527 17.8312 18.6329 17.568 18.636H6.396C6.13281 18.6329 5.88128 18.527 5.69517 18.3408C5.50905 18.1547 5.40311 17.9032 5.4 17.64V6.396C5.40311 6.13281 5.50905 5.88128 5.69517 5.69517C5.88128 5.50905 6.13281 5.40312 6.396 5.4H17.568C17.8312 5.40312 18.0827 5.50905 18.2688 5.69517C18.4549 5.88128 18.5609 6.13281 18.564 6.396V17.64Z" fill="#919BE0"/>
</svg>
