<svg width="120" height="120" viewBox="0 0 120 120" fill="none" xmlns="http://www.w3.org/2000/svg">
<g opacity="0.9">
<circle cx="52.3985" cy="84.6016" r="34.3985" stroke="#9F8DC1" stroke-width="2" stroke-dasharray="12 4"/>
<path d="M60.1362 56.2012L61.3663 58.6939L64.1171 59.0934L62.1265 61.0337L62.5965 63.7733L60.1362 62.4798L57.6757 63.7733L58.1456 61.0337L56.1553 59.0934L58.906 58.6939L60.1362 56.2012Z" fill="#9F8DC1"/>
<path d="M64.5831 0H64.5831C68.8338 0 72.2796 3.82409 72.2796 8.54135V14.5347H70.4363L69.3692 12.3141L69.6359 14.5347H57.7881L56.818 12.516L57.0605 14.5347H55.7266V9.82884C55.7266 4.40053 59.6918 0 64.5831 0Z" fill="#424242"/>
<path d="M73.4021 39.1543L78.1277 41.1627L94.5489 54.5123C95.1527 55.2543 95.5228 56.1589 95.6122 57.1114C95.7303 58.6472 100.692 66.6806 98.92 67.7438C97.148 68.8071 90.7685 71.9968 90.4141 69.8703C90.0597 67.7438 88.1694 58.6472 88.1694 58.6472L72.3389 44.4705L73.4021 39.1543Z" fill="#544274"/>
<path d="M91.9497 68.1015L93.9581 74.0084C93.9581 74.0084 91.8316 76.253 92.8948 78.1433V84.6409H94.5488L95.0213 81.2149C95.0213 81.2149 96.9052 84.5976 97.8566 84.6409C99.8513 84.7316 103.801 85.4411 103.919 84.3779C104.037 83.3146 100.928 82.2781 100.928 82.2781L97.6203 73.1814L96.2027 67.6289L91.9497 68.1015Z" fill="#544274"/>
<path d="M61.1154 37.6199C61.1154 37.6199 60.0522 48.0161 63.1238 49.9063C66.1954 51.7965 79.7814 57.8216 79.7814 57.8216C79.7814 57.8216 73.9926 63.2559 75.1739 64.5555C76.3553 65.855 81.6716 69.3992 82.3804 68.6903C83.0892 67.9815 91.0045 59.4755 90.0594 56.7583C89.1143 54.0411 76.0009 45.1807 76.0009 45.1807L74.4651 39.6282L73.9926 35.139L69.0307 31.9492L61.1154 37.6199Z" fill="#544274"/>
<path d="M66.528 13.4145C69.248 13.4145 71.453 11.2095 71.453 8.48945C71.453 5.76945 69.248 3.56445 66.528 3.56445C63.808 3.56445 61.603 5.76945 61.603 8.48945C61.603 11.2095 63.808 13.4145 66.528 13.4145Z" fill="#FFCDCD"/>
<path d="M62.7107 10.5059C62.7107 10.5059 62.9469 14.9951 59.2846 16.4128C55.6223 17.8305 68.3813 27.0453 68.3813 27.0453V16.7672C68.3813 16.7672 66.7274 14.9951 68.3813 12.2779L62.7107 10.5059Z" fill="#FFCDCD"/>
<path d="M54.8545 31.5957L55.7996 36.2031L58.6349 52.0337C58.6349 52.0337 56.2721 58.7676 59.4619 58.6495C62.6516 58.5313 61.1158 51.3249 61.1158 51.3249L59.4619 38.2115V33.1315L54.8545 31.5957Z" fill="#FFCDCD"/>
<path d="M75.1739 29.3516L76.2372 33.4864L81.0809 45.1821C81.0809 45.1821 84.3887 50.7346 81.6715 50.6165C78.9544 50.4984 78.9544 45.1821 78.9544 45.1821L73.4019 35.731V30.4148L75.1739 29.3516Z" fill="#FFCDCD"/>
<path d="M76.0009 63.8457L72.1023 67.508C72.1023 67.508 69.3851 66.9173 68.3219 70.107C67.2586 73.2968 66.5498 75.3051 66.5498 75.3051L67.9675 76.1321L69.7396 73.6512C69.7396 73.6512 70.8028 78.1405 71.8661 78.4949C72.9293 78.8493 78.2455 81.2121 77.773 78.4949L75.1739 74.7144C75.1739 74.7144 74.8195 70.4615 75.8828 70.107C76.946 69.7526 79.7814 66.2085 79.7814 66.2085L76.0009 63.8457Z" fill="#544274"/>
<path opacity="0.3" d="M60.9282 41.283C60.9282 41.283 72.0332 37.2663 72.742 37.6207C73.2696 37.8538 73.8316 37.9996 74.406 38.0526L74.3959 36.4393C74.3959 36.4393 70.7337 35.1398 68.7253 35.9667C66.7169 36.7937 60.5737 40.456 60.5737 40.456L60.9282 41.283Z" fill="#424242"/>
<path d="M67.6722 24.6856C67.6722 24.6856 64.4825 21.0233 63.5374 18.7787C62.9394 17.4179 61.8419 16.3387 60.4712 15.7637C60.4712 15.7637 53.3775 17.361 53.4956 20.1963C53.6137 23.0317 57.9849 27.4028 57.9849 27.4028C57.9849 27.4028 57.3942 43.1152 60.5839 42.879C61.2719 42.0579 61.7575 41.0867 62.0016 40.0436C62.356 38.3897 73.3429 36.6176 73.3429 36.6176C73.3429 36.6176 74.288 38.2716 74.4061 37.5627C74.5243 36.8539 73.461 19.4875 73.461 19.4875L67.8274 15.7637L67.6722 24.6856Z" fill="#A3CFF3"/>
<path d="M54.4057 19.0523L54.3265 19.0967C54.0741 19.2383 53.8639 19.4447 53.7176 19.6946C53.5713 19.9444 53.4943 20.2287 53.4943 20.5183L53.4955 29.2857C53.4946 29.524 53.4419 29.7593 53.341 29.9752C53.2401 30.1911 53.0934 30.3824 52.9111 30.5359C52.4561 30.923 52.0341 31.4808 52.9049 31.7711C54.3226 32.2437 59.8751 34.6064 59.9933 33.7795C60.1114 32.9525 60.3477 32.0074 59.9933 32.0074C59.7158 32.0074 58.0626 23.5359 56.7343 19.9138C56.6531 19.692 56.5248 19.4906 56.3581 19.3233C56.1915 19.156 55.9905 19.027 55.769 18.945C55.5476 18.8631 55.3109 18.8303 55.0755 18.8488C54.8401 18.8673 54.6116 18.9367 54.4057 19.0523Z" fill="#A3CFF3"/>
<path d="M71.8662 19.0742L73.5201 19.5468L75.4104 27.6983C75.4104 27.6983 77.655 28.1709 76.9462 28.9979C76.2373 29.8248 73.2839 31.9513 73.2839 31.9513L71.8662 19.0742Z" fill="#A3CFF3"/>
<path d="M62.395 2.35181C62.7654 1.85448 63.2453 1.44916 63.7977 1.1673C64.35 0.885445 64.9598 0.734631 65.5799 0.726562H65.731C68.6443 0.726562 71.0061 3.36284 71.0061 6.61486V6.61487H70.0299L69.8722 5.41487L69.6411 6.61487H63.8513L63.3663 5.59964L63.4875 6.61487H62.3485C61.817 9.25446 62.5807 11.894 64.6396 14.5336H62.6993L61.7291 12.5032L61.9717 14.5336H58.273L57.5454 9.86358C57.5454 6.36614 59.5775 3.4004 62.395 2.35181Z" fill="#424242"/>
</g>
</svg>
