<svg width="120" height="120" viewBox="0 0 120 120" fill="none" xmlns="http://www.w3.org/2000/svg">
<g opacity="0.9">
<circle cx="60" cy="60" r="59" stroke="#9F8DC1" stroke-width="2" stroke-dasharray="20 8"/>
<mask id="mask0" mask-type="alpha" maskUnits="userSpaceOnUse" x="0" y="0" width="120" height="120">
<circle cx="60" cy="60" r="60" fill="#C4C4C4"/>
</mask>
<g mask="url(#mask0)">
<path d="M94.8644 88.3438C94.8644 88.3438 109.413 89.0959 106.024 93.6758C102.636 98.2557 93.7314 90.9892 93.7314 90.9892L94.8644 88.3438Z" fill="#FFB8B8"/>
<path d="M68.0535 44.7188L71.0148 45.4591C71.0148 45.4591 72.7422 50.6414 73.9761 55.3301C75.21 60.0189 77.6778 74.0851 77.6778 74.0851L96.8096 87.4932L94.5277 92.5977L69.0407 82.5528L63.3647 60.2656L68.0535 44.7188Z" fill="#544274"/>
<path opacity="0.2" d="M70.8397 53.918L69.7359 77.031L72.0391 83.9028L65.2925 78.9553L70.8397 53.918Z" fill="black"/>
<path d="M74.8399 94.9386C74.8399 94.9386 78.0479 103.576 78.5415 109.498C79.035 115.421 79.5286 120.11 79.5286 120.11H64.4753L61.514 115.668V120.11H43.9929C43.9929 120.11 39.0574 104.069 41.0316 102.095C43.0058 100.121 61.7607 91.7305 61.7607 91.7305L74.8399 94.9386Z" fill="#449BD9"/>
<path d="M55.9615 35.3409C61.1405 35.3409 65.339 31.1425 65.339 25.9634C65.339 20.7844 61.1405 16.5859 55.9615 16.5859C50.7824 16.5859 46.584 20.7844 46.584 25.9634C46.584 31.1425 50.7824 35.3409 55.9615 35.3409Z" fill="#FFB8B8"/>
<path d="M48.8053 29.9141L48.0649 40.7722L57.4424 53.3578L62.1312 41.5125C62.1312 41.5125 57.936 38.798 60.4037 33.1221L48.8053 29.9141Z" fill="#FFB8B8"/>
<path d="M76.1965 97.0342C76.1965 99.2561 70.0271 102.71 70.0271 102.71V103.944L67.5594 105.178L62.1307 94.3206L60.6509 106.165C60.6509 106.165 49.7919 107.893 46.3377 106.165C42.8819 104.437 41.1548 105.178 36.2193 103.451C31.2838 101.724 38.1938 78.5261 38.1938 78.5261L33.2583 42.7438L44.0408 37.3525L44.609 37.0676L46.0918 36.7948L48.3646 36.375L55.9613 41.5099L56.573 44.7183L56.9493 46.6928L58.9223 44.4709L60.4125 39.5699L71.0151 45.4589L68.0541 69.1484C68.0541 69.1484 76.1965 94.8139 76.1965 97.0342Z" fill="#544274"/>
<path d="M39.9214 104.688C39.9214 104.688 51.2731 113.818 45.844 115.546C40.4149 117.273 37.4536 106.168 37.4536 106.168L39.9214 104.688Z" fill="#FFB8B8"/>
<path d="M35.726 43.2396L33.2583 42.7461C33.2583 42.7461 29.5566 44.7203 29.3098 48.6687C29.0631 52.6171 25.855 80.256 25.855 80.256L36.2196 108.142L44.61 104.934L36.4663 78.7754L42.6357 56.072L35.726 43.2396Z" fill="#544274"/>
<path d="M57.047 50.7698C57.5438 50.7698 57.9465 50.3671 57.9465 49.8702C57.9465 49.3734 57.5438 48.9707 57.047 48.9707C56.5502 48.9707 56.1475 49.3734 56.1475 49.8702C56.1475 50.3671 56.5502 50.7698 57.047 50.7698Z" fill="#2F2E41"/>
<path d="M57.047 56.6155C57.5438 56.6155 57.9465 56.2128 57.9465 55.716C57.9465 55.2191 57.5438 54.8164 57.047 54.8164C56.5502 54.8164 56.1475 55.2191 56.1475 55.716C56.1475 56.2128 56.5502 56.6155 57.047 56.6155Z" fill="#2F2E41"/>
<path d="M62.1442 95.1467C62.641 95.1467 63.0437 94.744 63.0437 94.2472C63.0437 93.7504 62.641 93.3477 62.1442 93.3477C61.6474 93.3477 61.2446 93.7504 61.2446 94.2472C61.2446 94.744 61.6474 95.1467 62.1442 95.1467Z" fill="#2F2E41"/>
<path d="M48.0441 16.3576L46.3106 15.6637C46.3106 15.6637 49.9352 11.6732 54.9781 12.0202L53.5597 10.4588C53.5597 10.4588 57.0267 9.0708 60.1785 12.7142C61.8353 14.6295 63.7523 16.8808 64.9473 19.4168H66.8037L66.0289 21.1229L68.7408 22.8289L65.9573 22.5225C66.1232 23.4567 66.1486 24.4105 66.0329 25.3522C65.9135 26.2943 65.4327 27.1531 64.6921 27.7474C64.6921 27.7474 62.5423 23.2975 62.5423 22.6035V24.3385C62.5423 24.3385 60.8088 22.777 60.8088 21.736L59.8633 22.9505H53.5597L54.5053 21.389L50.8807 21.9095L52.299 20.0011L46.6872 27.8818C46.6872 27.8818 43.474 18.9601 48.0441 16.3576Z" fill="#2F2E41"/>
<path d="M103.808 82.6957C112.088 82.6957 118.8 75.9834 118.8 67.7033C118.8 59.4233 112.088 52.7109 103.808 52.7109C95.5278 52.7109 88.8154 59.4233 88.8154 67.7033C88.8154 75.9834 95.5278 82.6957 103.808 82.6957Z" fill="#3F3D56"/>
<path opacity="0.1" d="M103.808 80.5955C110.929 80.5955 116.701 74.8229 116.701 67.702C116.701 60.5812 110.929 54.8086 103.808 54.8086C96.6871 54.8086 90.9146 60.5812 90.9146 67.702C90.9146 74.8229 96.6871 80.5955 103.808 80.5955Z" fill="#3B8AC3"/>
<path d="M103.19 75.3111V73.4345C102.241 73.416 101.26 73.0814 100.688 72.6169L101.08 71.3721C101.76 71.8819 102.585 72.1617 103.435 72.171C104.596 72.171 105.382 71.4092 105.382 70.3501C105.382 69.3282 104.744 68.6965 103.533 68.139C101.865 67.3959 100.835 66.5411 100.835 64.9247C100.835 63.3825 101.8 62.2119 103.304 61.9332V60.0566H104.318V61.8589C105.075 61.8693 105.812 62.0948 106.445 62.5092L106.036 63.7356C105.429 63.3203 104.71 63.0999 103.975 63.1038C102.716 63.1038 102.241 63.9585 102.241 64.7017C102.241 65.6679 102.846 66.1509 104.269 66.8199C105.954 67.6003 106.805 68.5664 106.805 70.22C106.805 71.6879 105.905 73.0629 104.22 73.3786V75.3111H103.19Z" fill="#EFEFEF"/>
<path opacity="0.2" d="M38.6821 85.8925L44.6783 104.623L39.8808 85.1328L38.6821 85.8925Z" fill="black"/>
<path d="M8.11047 49.3007H4.30439C4.13851 49.3005 3.97947 49.2345 3.86217 49.1172C3.74488 48.9999 3.6789 48.8409 3.67871 48.675V43.2038C3.6789 43.0379 3.74488 42.8789 3.86217 42.7616C3.97947 42.6443 4.13851 42.5783 4.30439 42.5781H8.11047C8.27636 42.5783 8.4354 42.6443 8.55269 42.7616C8.66999 42.8789 8.73597 43.0379 8.73615 43.2038V48.675C8.73597 48.8409 8.66999 48.9999 8.55269 49.1172C8.4354 49.2345 8.27636 49.3005 8.11047 49.3007ZM4.30439 42.878C4.21801 42.8781 4.13519 42.9124 4.07411 42.9735C4.01303 43.0346 3.97866 43.1174 3.97856 43.2038V48.675C3.97866 48.7614 4.01303 48.8442 4.07411 48.9053C4.13519 48.9664 4.21801 49.0007 4.30439 49.0008H8.11047C8.19686 49.0007 8.27967 48.9664 8.34076 48.9053C8.40184 48.8442 8.4362 48.7614 8.43631 48.675V43.2038C8.4362 43.1174 8.40184 43.0346 8.34076 42.9735C8.27967 42.9124 8.19686 42.8781 8.11047 42.878H4.30439Z" fill="#3F3D56"/>
<path d="M15.0627 49.3005H11.6256C11.4108 49.3002 11.2049 49.2148 11.053 49.0629C10.9011 48.911 10.8157 48.7051 10.8154 48.4903V37.441C10.8157 37.2262 10.9011 37.0203 11.053 36.8684C11.2049 36.7165 11.4108 36.6311 11.6256 36.6309H15.0627C15.2775 36.6311 15.4834 36.7165 15.6353 36.8684C15.7872 37.0203 15.8726 37.2262 15.8729 37.441V48.4903C15.8726 48.7051 15.7872 48.911 15.6353 49.0629C15.4834 49.2148 15.2775 49.3002 15.0627 49.3005ZM11.6256 36.9307C11.4903 36.9309 11.3606 36.9847 11.2649 37.0803C11.1692 37.176 11.1154 37.3057 11.1153 37.441V48.4903C11.1154 48.6256 11.1692 48.7553 11.2649 48.851C11.3606 48.9466 11.4903 49.0005 11.6256 49.0006H15.0627C15.198 49.0005 15.3277 48.9466 15.4234 48.851C15.5191 48.7553 15.5729 48.6256 15.573 48.4903V37.441C15.5729 37.3057 15.5191 37.176 15.4234 37.0803C15.3277 36.9847 15.198 36.9309 15.0627 36.9307L11.6256 36.9307Z" fill="#3F3D56"/>
<path d="M22.0662 49.299H18.8945C18.6446 49.2987 18.4049 49.1993 18.2281 49.0225C18.0514 48.8458 17.9519 48.6061 17.9517 48.3561V32.1011C17.9519 31.8511 18.0514 31.6114 18.2281 31.4347C18.4049 31.2579 18.6446 31.1585 18.8945 31.1582H22.0662C22.3162 31.1585 22.5559 31.2579 22.7326 31.4347C22.9094 31.6114 23.0088 31.8511 23.0091 32.1011V48.3561C23.0088 48.6061 22.9094 48.8458 22.7326 49.0225C22.5559 49.1993 22.3162 49.2987 22.0662 49.299ZM18.8945 31.4581C18.7241 31.4582 18.5606 31.5261 18.4401 31.6466C18.3195 31.7672 18.2517 31.9306 18.2515 32.1011V48.3561C18.2517 48.5266 18.3195 48.6901 18.4401 48.8106C18.5606 48.9312 18.7241 48.999 18.8945 48.9992H22.0662C22.2367 48.999 22.4002 48.9312 22.5207 48.8106C22.6413 48.6901 22.7091 48.5266 22.7093 48.3561V32.1011C22.7091 31.9306 22.6413 31.7672 22.5207 31.6466C22.4002 31.5261 22.2367 31.4582 22.0662 31.4581H18.8945Z" fill="#3F3D56"/>
<path d="M7.63483 43.6211H4.78027V48.2597H7.63483V43.6211Z" fill="#449BD9"/>
<path d="M14.7715 37.7324H11.917V48.2586H14.7715V37.7324Z" fill="#449BD9"/>
<path d="M21.9078 32.2598H19.0532V48.2571H21.9078V32.2598Z" fill="#449BD9"/>
<path d="M109.595 32.0591H89.6553C89.6356 32.0591 89.6161 32.0552 89.5979 32.0477C89.5797 32.0402 89.5632 32.0291 89.5493 32.0152C89.5353 32.0013 89.5243 31.9848 89.5168 31.9666C89.5092 31.9484 89.5054 31.9289 89.5054 31.9092V11.6695C89.5054 11.6297 89.5212 11.5916 89.5493 11.5634C89.5774 11.5353 89.6155 11.5195 89.6553 11.5195C89.6951 11.5195 89.7332 11.5353 89.7613 11.5634C89.7894 11.5916 89.8052 11.6297 89.8052 11.6695V31.7593H109.595C109.635 31.7593 109.673 31.7751 109.701 31.8032C109.729 31.8313 109.745 31.8694 109.745 31.9092C109.745 31.949 109.729 31.9871 109.701 32.0152C109.673 32.0433 109.635 32.0591 109.595 32.0591Z" fill="#3F3D56"/>
<path d="M25.0381 51.3985H1.35012C1.33043 51.3985 1.31093 51.3946 1.29274 51.3871C1.27455 51.3795 1.25802 51.3685 1.2441 51.3546C1.23017 51.3406 1.21913 51.3241 1.2116 51.3059C1.20406 51.2877 1.20019 51.2682 1.2002 51.2485V27.7105C1.2002 27.6707 1.21599 27.6326 1.24411 27.6045C1.27222 27.5763 1.31036 27.5605 1.35012 27.5605C1.38988 27.5605 1.42802 27.5763 1.45613 27.6045C1.48425 27.6326 1.50004 27.6707 1.50004 27.7105V51.0986H25.0381C25.0779 51.0986 25.116 51.1144 25.1441 51.1425C25.1722 51.1706 25.188 51.2088 25.188 51.2485C25.188 51.2883 25.1722 51.3264 25.1441 51.3545C25.116 51.3827 25.0779 51.3985 25.0381 51.3985Z" fill="#3F3D56"/>
<path d="M96.5363 30.1796H92.7302C92.5644 30.1794 92.4053 30.1135 92.288 29.9962C92.1707 29.8789 92.1047 29.7198 92.1045 29.5539V24.0827C92.1047 23.9168 92.1707 23.7578 92.288 23.6405C92.4053 23.5232 92.5644 23.4572 92.7302 23.457H96.5363C96.7022 23.4572 96.8612 23.5232 96.9785 23.6405C97.0958 23.7578 97.1618 23.9168 97.1619 24.0827V29.5539C97.1617 29.7198 97.0958 29.8788 96.9785 29.9961C96.8612 30.1134 96.7022 30.1794 96.5363 30.1796ZM92.7302 23.7569C92.6439 23.757 92.561 23.7913 92.4999 23.8524C92.4388 23.9135 92.4045 23.9963 92.4043 24.0827V29.5539C92.4045 29.6403 92.4388 29.7231 92.4999 29.7842C92.561 29.8453 92.6439 29.8797 92.7302 29.8798H96.5363C96.6227 29.8797 96.7055 29.8453 96.7666 29.7842C96.8276 29.7231 96.862 29.6403 96.8621 29.5539V24.0827C96.862 23.9963 96.8276 23.9135 96.7666 23.8524C96.7055 23.7914 96.6227 23.757 96.5363 23.7569H92.7302Z" fill="#3F3D56"/>
<path d="M104.331 30.1791H100.828C100.622 30.1789 100.424 30.0969 100.279 29.9512C100.133 29.8055 100.051 29.608 100.051 29.4019V19.492C100.051 19.2859 100.133 19.0884 100.279 18.9427C100.424 18.797 100.622 18.7151 100.828 18.7148H104.331C104.537 18.7151 104.735 18.797 104.88 18.9427C105.026 19.0884 105.108 19.2859 105.108 19.492V29.4019C105.108 29.608 105.026 29.8055 104.88 29.9512C104.735 30.0969 104.537 30.1789 104.331 30.1791ZM100.828 19.0147C100.701 19.0148 100.58 19.0652 100.491 19.1546C100.401 19.2441 100.351 19.3654 100.351 19.492V29.4019C100.351 29.5285 100.401 29.6498 100.491 29.7393C100.58 29.8288 100.701 29.8791 100.828 29.8793H104.331C104.458 29.8791 104.579 29.8288 104.668 29.7393C104.758 29.6498 104.808 29.5285 104.808 29.4019V19.492C104.808 19.3654 104.758 19.2441 104.668 19.1546C104.579 19.0652 104.458 19.0148 104.331 19.0147H100.828Z" fill="#3F3D56"/>
<path d="M95.9922 24.5508H93.1377V29.1894H95.9922V24.5508Z" fill="#449BD9"/>
<path d="M104.007 19.9609H101.152V28.9359H104.007V19.9609Z" fill="#3B8AC3"/>
<path d="M94.5129 21.7592C95.2581 21.7592 95.8622 21.1551 95.8622 20.4099C95.8622 19.6647 95.2581 19.0605 94.5129 19.0605C93.7677 19.0605 93.1636 19.6647 93.1636 20.4099C93.1636 21.1551 93.7677 21.7592 94.5129 21.7592Z" fill="#449BD9"/>
<path d="M102.459 16.6615C103.204 16.6615 103.808 16.0574 103.808 15.3122C103.808 14.567 103.204 13.9629 102.459 13.9629C101.713 13.9629 101.109 14.567 101.109 15.3122C101.109 16.0574 101.713 16.6615 102.459 16.6615Z" fill="#449BD9"/>
</g>
</g>
</svg>
