<svg width="120" height="120" viewBox="0 0 120 120" fill="none" xmlns="http://www.w3.org/2000/svg">
<g opacity="0.9">
<mask id="mask0" mask-type="alpha" maskUnits="userSpaceOnUse" x="0" y="0" width="120" height="120">
<circle cx="60" cy="60" r="60" fill="#C4C4C4"/>
</mask>
<g mask="url(#mask0)">
<path d="M78.6959 23.4168C78.6959 23.4168 81.7775 21.0212 88.3105 24.2994C94.8435 27.5775 99.5276 24.8037 99.5276 24.8037L98.788 35.7728C98.788 35.7728 92.1317 38.4205 85.9685 34.638C79.8052 30.8556 77.833 34.638 77.833 34.638L78.6959 23.4168Z" fill="#544274"/>
<path d="M94.0393 36.6745C91.6797 36.6746 88.8668 36.1869 86.1589 34.5124C83.6812 32.9802 81.6274 32.474 80.0545 33.0077C79.6455 33.1401 79.2664 33.3556 78.9396 33.6415C78.6128 33.9274 78.3448 34.2779 78.1516 34.6723L77.833 35.4619L79.108 22.4599L79.141 22.4276C79.2494 22.3215 81.8728 19.8695 88.7377 23.3406C95.4613 26.74 100.364 23.9078 100.413 23.8788L100.612 23.7601L100.597 23.9969L99.8138 35.6945L99.7413 35.7236C99.7003 35.74 97.3044 36.6744 94.0393 36.6745ZM81.3596 32.5497C82.7562 32.5497 84.4059 33.1336 86.2851 34.2957C92.2895 38.0087 98.8219 35.7935 99.58 35.5154L100.337 24.2024C99.3418 24.697 94.7103 26.6417 88.6297 23.5675C82.3204 20.3773 79.6603 22.317 79.3425 22.5823L78.2159 34.0708C78.656 33.4566 79.2725 33.0007 79.9779 32.7677C80.4242 32.6195 80.8907 32.5459 81.3596 32.5497Z" fill="#424242"/>
<path d="M37.9689 50.2318C44.409 50.2318 49.6298 45.0111 49.6298 38.571C49.6298 32.1309 44.409 26.9102 37.9689 26.9102C31.5288 26.9102 26.3081 32.1309 26.3081 38.571C26.3081 45.0111 31.5288 50.2318 37.9689 50.2318Z" fill="#424242"/>
<path d="M40.4099 49.6889C44.903 49.6889 48.5453 46.0465 48.5453 41.5534C48.5453 37.0603 44.903 33.418 40.4099 33.418C35.9168 33.418 32.2744 37.0603 32.2744 41.5534C32.2744 46.0465 35.9168 49.6889 40.4099 49.6889Z" fill="#FFCDCD"/>
<path d="M33.7683 43.7246C33.7683 43.7246 32.5513 53.1301 28.1396 55.0406C23.728 56.9511 40.3097 55.9224 40.3097 55.9224C40.3097 55.9224 40.3097 47.3986 40.9182 47.1047C41.5267 46.8108 33.7683 43.7246 33.7683 43.7246Z" fill="#FFCDCD"/>
<path d="M31.9399 107.723L31.3279 110.92C31.3279 110.92 22.7606 115.944 26.8912 117.314C31.0219 118.684 36.0705 111.377 36.0705 111.377L35.1526 107.723H31.9399Z" fill="#FFCDCD"/>
<path d="M38.2402 83.6971L44.8932 90.9116L63.189 78.0176C63.189 78.0176 58.9553 74.6406 57.5944 74.6406C56.2336 74.6406 38.2402 83.6971 38.2402 83.6971Z" fill="#FFCDCD"/>
<path d="M74.0361 46.107C74.0361 46.107 75.9732 32.4231 79.4004 33.4757C82.8275 34.5283 77.4633 48.0618 77.4633 48.0618L74.0361 46.107Z" fill="#FFCDCD"/>
<path d="M49.7068 53.4162C49.7068 53.4162 42.9983 52.3523 40.5104 53.4162C38.0225 54.4801 30.5073 55.3266 29.5758 54.1434C28.6443 52.9602 20.3423 56.9119 20.3423 58.5837C20.3423 60.2556 38.33 85.4852 38.33 85.4852C38.33 85.4852 56.9327 80.3177 59.3925 74.8462C59.3925 74.8462 57.2401 73.3263 57.2401 72.1105C57.2401 70.8946 56.1639 69.6787 56.1639 69.6787C56.1639 69.6787 57.3939 66.639 55.2415 63.9032C53.0891 61.1675 49.7068 53.4162 49.7068 53.4162Z" fill="#9F8DC1"/>
<path d="M47.4604 54.0535L49.432 53.5955C49.432 53.5955 54.285 54.8169 57.6214 58.9388C60.9579 63.0608 66.7208 64.4348 66.7208 64.4348L73.697 45.3516L79.4599 47.3362C79.4599 47.3362 74.9102 71.6101 69.7539 71.9155C64.5976 72.2208 51.8585 66.5721 51.8585 66.5721L47.4604 54.0535Z" fill="#9F8DC1"/>
<path d="M22.9636 57.2852C22.9636 57.2852 19.7998 57.4374 19.7998 60.1778C19.7998 62.9181 20.2518 72.3572 22.9636 76.4677C25.6754 80.5783 28.0859 89.8651 28.2366 90.0173C28.3872 90.1696 31.2497 109.352 31.2497 109.352L36.0707 108.895L35.1668 84.9933L30.4964 72.8139L22.9636 57.2852Z" fill="#9F8DC1"/>
<path d="M82.7141 118.028C78.7756 122.878 74.9832 118.966 69.1549 121.287L61.0768 104.542L45.5621 124.265C39.143 126.025 38.8987 123.045 32.4792 121.287L31.1895 120.468L44.0559 98.7648C44.0559 98.7648 44.2095 94.8123 44.0559 94.2046C43.9023 93.5968 41.8897 88.0784 41.8897 88.0784C48.8826 87.639 58.8819 78.8441 61.1979 76.7236C61.5162 76.4315 61.6898 76.2656 61.6898 76.2656C74.5694 78.089 76.4097 92.9878 76.4097 92.9878L82.7141 118.028Z" fill="#424242"/>
<path d="M32.2743 43.7229C32.5738 43.7229 32.8167 42.9945 32.8167 42.0958C32.8167 41.1972 32.5738 40.4688 32.2743 40.4688C31.9748 40.4688 31.7319 41.1972 31.7319 42.0958C31.7319 42.9945 31.9748 43.7229 32.2743 43.7229Z" fill="#FFCDCD"/>
<path d="M27.393 32.3348C30.0889 32.3348 32.2743 30.1494 32.2743 27.4535C32.2743 24.7577 30.0889 22.5723 27.393 22.5723C24.6971 22.5723 22.5117 24.7577 22.5117 27.4535C22.5117 30.1494 24.6971 32.3348 27.393 32.3348Z" fill="#424242"/>
<path d="M22.554 25.2836C22.5542 24.0867 22.9919 22.9315 23.784 22.0377C24.5761 21.1439 25.6674 20.5738 26.8504 20.4357C26.1694 20.3553 25.4793 20.4207 24.8253 20.6276C24.1712 20.8345 23.5682 21.1782 23.0559 21.6362C22.5436 22.0941 22.1335 22.6559 21.8527 23.2846C21.5719 23.9132 21.4268 24.5945 21.4268 25.2836C21.4268 25.9727 21.5719 26.654 21.8527 27.2827C22.1335 27.9113 22.5436 28.4731 23.0559 28.9311C23.5682 29.389 24.1712 29.7328 24.8253 29.9397C25.4793 30.1466 26.1694 30.212 26.8504 30.1315C25.6674 29.9934 24.5761 29.4233 23.784 28.5295C22.9919 27.6357 22.5542 26.4806 22.554 25.2836Z" fill="#424242"/>
<path d="M79.46 23.1133H77.2905V41.5537H79.46V23.1133Z" fill="#424242"/>
<path d="M30.647 34.6157C30.647 34.6157 32.8842 39.2572 35.6186 39.3794C38.3531 39.5015 48.545 37.5472 48.545 37.5472L45.1891 30.707L36.2401 31.8063L30.647 34.6157Z" fill="#424242"/>
</g>
<circle cx="60" cy="60" r="59" stroke="#9F8DC1" stroke-width="2" stroke-dasharray="20 8"/>
</g>
</svg>
