<svg width="768" height="370" viewBox="0 0 768 370" fill="none" xmlns="http://www.w3.org/2000/svg">
<mask id="mask0" mask-type="alpha" maskUnits="userSpaceOnUse" x="0" y="0" width="768" height="370">
<rect width="768" height="370" fill="#C4C4C4"/>
</mask>
<g mask="url(#mask0)">
<path d="M768 0H0V375.6H768V0Z" fill="#4858CC"/>
<path style="mix-blend-mode:multiply" d="M768 216.616H0.27V376.078H768V216.616Z" fill="url(#paint0_linear)"/>
<path opacity="0.8" d="M768 0.497849H0V422.692C0 422.692 77.7 409.193 132.05 395.512C232.49 370.253 275.49 304.356 374.18 292.189C493.92 277.492 513.9 306.715 623.46 286.355C693.29 273.426 721.53 248.086 768 214.665V0.497849Z" fill="url(#paint1_linear)"/>
<path opacity="0.2" d="M767.87 152.6L764.42 151.726C685.04 131.397 608.74 143.147 511.24 182.86C413.74 222.573 338.13 241.814 221.34 234.699C42.23 223.742 0.400001 251.45 0.400001 251.45L0.130001 375.6H768.13L767.87 152.6Z" fill="url(#paint2_linear)"/>
<path fill-rule="evenodd" clip-rule="evenodd" d="M678.9 169.656C679.98 176.395 681.02 181.772 681.66 187.21C681.99 190.046 683.15 190.494 685.66 189.975C692.816 188.364 700.058 187.179 707.35 186.428L687.35 199.367L701.64 210.548C701.54 210.762 701.46 210.985 701.36 211.199C695.43 209.898 689.47 208.739 683.59 207.224C680.54 206.442 678.85 206.686 677.84 210.274C676.57 214.716 674.49 218.934 672.27 224.504C671.27 218.405 670.45 213.557 669.84 208.698C669.39 205.069 668.29 203.484 664.26 204.897C659.19 206.675 653.88 207.753 647.26 209.511C653.34 204.5 658.26 200.231 663.38 196.297C666.02 194.265 666.71 192.842 664.24 190.107C661.416 186.873 658.948 183.335 656.88 179.556C660.88 181.793 664.99 183.907 668.88 186.316C671.1 187.688 672.02 187.19 672.88 184.822C674.61 180.116 676.57 175.521 678.9 169.656Z" fill="#8498E9"/>
<path fill-rule="evenodd" clip-rule="evenodd" d="M539.26 120.074C541.55 120.724 543.83 121.375 546.12 121.995C546.65 122.137 547.62 122.615 547.24 121.344C546.38 118.529 547.07 115.571 546.61 112.613C547.75 114.524 548.99 116.384 549.98 118.376C550.76 119.931 551.41 119.85 552.62 118.823C554.736 117.045 556.979 115.428 559.33 113.985C558.03 116.303 556.83 118.691 555.39 120.917C554.45 122.371 555.04 122.645 556.31 122.95C558.84 123.509 561.31 124.17 564.31 124.902C561.01 125.369 558.21 125.827 555.4 126.122C554.01 126.274 553.52 126.762 553.59 128.256C553.73 131.305 553.59 134.355 553.59 137.404C552.41 135.28 551.12 133.115 550.01 130.858C549.37 129.577 548.77 129.242 547.44 129.954C545.161 131.177 542.782 132.197 540.33 133.003C541.74 131.143 543.05 129.201 544.58 127.463C545.76 126.132 545.45 125.43 544.17 124.495C542.4 123.225 540.75 121.791 539.05 120.429C539.17 120.287 539.22 120.185 539.26 120.074Z" fill="#F6C435"/>
<path d="M730.68 280.236C730.682 281.37 730.353 282.48 729.734 283.424C729.116 284.368 728.236 285.104 727.205 285.54C726.175 285.975 725.041 286.09 723.946 285.87C722.851 285.65 721.845 285.105 721.055 284.304C720.266 283.502 719.727 282.481 719.509 281.369C719.291 280.256 719.402 279.103 719.828 278.055C720.255 277.007 720.978 276.111 721.905 275.48C722.833 274.85 723.924 274.514 725.04 274.514C725.78 274.512 726.513 274.659 727.198 274.946C727.882 275.233 728.504 275.655 729.027 276.186C729.551 276.718 729.967 277.349 730.25 278.044C730.534 278.739 730.68 279.484 730.68 280.236Z" fill="white"/>
<path d="M681.13 87.7301C681.13 88.5021 680.905 89.2567 680.483 89.8986C680.061 90.5405 679.461 91.0407 678.76 91.3362C678.058 91.6316 677.286 91.7089 676.541 91.5583C675.796 91.4077 675.112 91.0359 674.575 90.4901C674.038 89.9442 673.672 89.2487 673.524 88.4916C673.376 87.7344 673.452 86.9496 673.742 86.2364C674.033 85.5232 674.525 84.9136 675.157 84.4847C675.788 84.0558 676.53 83.8269 677.29 83.8269C677.794 83.8269 678.294 83.9279 678.76 84.124C679.225 84.3202 679.649 84.6077 680.005 84.9701C680.362 85.3326 680.645 85.7629 680.838 86.2364C681.031 86.71 681.13 87.2175 681.13 87.7301Z" fill="white"/>
</g>
<defs>
<linearGradient id="paint0_linear" x1="384.13" y1="261.239" x2="384.13" y2="428.679" gradientUnits="userSpaceOnUse">
<stop stop-color="white" stop-opacity="0"/>
<stop offset="1" stop-color="#9DA9BB"/>
</linearGradient>
<linearGradient id="paint1_linear" x1="-324.22" y1="454.304" x2="593.282" y2="28.06" gradientUnits="userSpaceOnUse">
<stop stop-color="#0058CC"/>
<stop offset="0.03" stop-color="#0458CC"/>
<stop offset="0.5" stop-color="#5758CC"/>
<stop offset="0.84" stop-color="#8B58CC"/>
<stop offset="1" stop-color="#9F58CC"/>
</linearGradient>
<linearGradient id="paint2_linear" x1="876.87" y1="71.1212" x2="-40.1492" y2="507.782" gradientUnits="userSpaceOnUse">
<stop stop-color="#4183D9"/>
<stop offset="0.23" stop-color="#689DE1"/>
<stop offset="0.74" stop-color="#CBDDF5"/>
<stop offset="1" stop-color="white"/>
</linearGradient>
</defs>
</svg>
