<svg width="327" height="419" viewBox="0 0 327 419" fill="none" xmlns="http://www.w3.org/2000/svg">
<circle cx="175.5" cy="195.5" r="127.5" fill="#7785EE"/>
<mask id="mask0" mask-type="alpha" maskUnits="userSpaceOnUse" x="0" y="0" width="328" height="328">
<circle cx="163.997" cy="163.997" r="163.997" fill="#7785EE"/>
</mask>
<g mask="url(#mask0)">
</g>
<g clip-path="url(#clip0)">
<path d="M181.482 301.511L193.366 325.581L197.37 315.864C197.37 315.864 203.686 331.178 217.432 343.096C231.178 355.023 238.06 360.785 238.06 360.785L233.786 336.79L272.815 364.769L250.418 319.011L299.499 331.502C299.499 331.502 259.764 296.209 254.955 294.001C250.145 291.804 290.687 294.209 290.687 294.209C290.687 294.209 267.322 280.32 251.63 275.552C235.937 270.794 235.614 271.746 235.614 271.746L267.858 268.842C267.858 268.842 231.811 262.295 225.367 261.916C218.924 261.537 209.285 262.555 209.285 262.555L181.482 301.511Z" fill="#FF6B00"/>
<path d="M218.422 256.179L177.305 308.218L109.304 240.047L97.1792 256.179L73.2821 188.545L146.731 195.814L134.079 209.344L218.422 256.179Z" fill="#4858CC"/>
<path d="M193.532 183.591L208.987 243.345L223.261 240.663L223.015 172.661L201.031 174.569L193.532 183.591Z" fill="#B2B2B2"/>
<path d="M221.91 196.29C221.847 196.289 221.788 196.287 221.736 196.285L219.197 186.529L224.971 163.739L225.08 163.308L224.665 163.149L192.24 150.716L192.108 150.665L191.969 150.691L159.685 156.749C159.636 156.73 159.571 156.705 159.49 156.671C159.282 156.583 158.973 156.439 158.588 156.221C157.818 155.784 156.742 155.05 155.55 153.865C153.169 151.499 150.306 147.318 148.51 140.088C145.097 126.351 145.121 119.749 145.135 116.003C145.136 115.776 145.137 115.56 145.137 115.353C145.137 113.534 145.198 111.837 145.259 110.594C145.29 109.973 145.32 109.466 145.343 109.114C145.346 109.071 145.348 109.03 145.351 108.992L161.405 107.609L166.898 139.082L167.206 140.848L167.856 139.178L167.856 139.178L167.857 139.178L167.857 139.177L167.858 139.173L167.866 139.154C167.873 139.136 167.885 139.109 167.9 139.072C167.931 138.998 167.979 138.888 168.045 138.744C168.177 138.455 168.381 138.032 168.666 137.502C169.237 136.443 170.132 134.956 171.426 133.263C174.014 129.877 178.194 125.666 184.557 122.384L184.557 122.384C193.844 117.592 203.389 118.532 209.886 119.749L209.887 119.749C218.983 121.448 233.094 126.24 241.951 145.3L241.951 145.3C250.373 163.42 246.137 176.777 241.731 184.072L241.731 184.073C237.687 190.783 232.585 193.821 228.508 195.19C226.466 195.876 224.677 196.145 223.402 196.242C222.765 196.29 222.256 196.296 221.91 196.29Z" fill="white" stroke="#424242"/>
<path d="M190.623 153.854C190.623 153.854 186.991 149.949 171.257 152.148C155.523 154.337 150.442 158.971 145.606 168.229C143.434 172.381 143.055 182.255 145.874 191.266C148.492 199.649 150.409 203.969 150.409 203.969L164.839 211.734L167.591 175.568L191.827 175.534L190.623 153.854Z" fill="#B2B2B2"/>
<path d="M214.919 109.99C216.919 102.928 212.765 95.5444 205.64 93.4976C198.515 91.4509 191.118 95.5165 189.117 102.578C187.117 109.64 191.271 117.024 198.396 119.071C205.521 121.118 212.919 117.052 214.919 109.99Z" fill="#E4C6B0"/>
<path d="M149.506 201.332L152.504 210.107L133.539 210.287L164.302 227.228L165.663 201.422L149.506 201.332Z" fill="#424242"/>
<path d="M205.508 232.062L208.987 242.604L193.823 243.546L194.468 244.151L223.261 259.865V235.781L205.508 232.062Z" fill="#424242"/>
<path d="M192.317 101.585C192.317 103.549 190.735 105.153 188.774 105.153C186.824 105.153 185.23 103.56 185.23 101.585C185.23 99.6213 186.813 98.0166 188.774 98.0166C190.735 98.0166 192.317 99.61 192.317 101.585Z" fill="#E4C6B0"/>
<path d="M219.559 112.169C220.308 110.348 219.449 108.261 217.641 107.506C215.833 106.752 213.76 107.617 213.011 109.438C212.262 111.258 213.121 113.346 214.929 114.1C216.737 114.854 218.81 113.99 219.559 112.169Z" fill="#E4C6B0"/>
<path d="M199.248 102.235C198.88 103.122 198.267 103.705 197.877 103.548C197.487 103.38 197.454 102.538 197.821 101.652C198.189 100.765 198.802 100.182 199.192 100.339C199.593 100.496 199.615 101.349 199.248 102.235Z" fill="#424242" stroke="#424242" stroke-width="0.5" stroke-miterlimit="10"/>
<path d="M205.878 104.984C205.51 105.871 204.897 106.454 204.507 106.297C204.117 106.129 204.084 105.287 204.451 104.401C204.819 103.514 205.432 102.931 205.822 103.088C206.212 103.256 206.245 104.098 205.878 104.984Z" fill="#424242" stroke="#424242" stroke-width="0.5" stroke-miterlimit="10"/>
<path d="M193.754 95.749L215.338 104.872C214.736 99.654 211.048 95.0532 205.644 93.4935C201.365 92.2591 196.997 93.2466 193.754 95.749Z" fill="#424242"/>
<path d="M202.401 102.033L197.766 108.53L201.666 110.348" stroke="#424242" stroke-miterlimit="10" stroke-linecap="round" stroke-linejoin="round"/>
<path d="M195.136 109.529C195.136 109.529 196.317 113.008 200.217 113.547C204.117 114.096 206.023 112.638 206.023 112.638" stroke="#424242" stroke-miterlimit="10" stroke-linecap="round" stroke-linejoin="round"/>
<path d="M148.938 109.069C148.849 108.8 148.938 105.501 148.938 105.501C148.938 105.501 145.305 106.41 144.581 103.492C143.857 100.564 144.581 100.384 144.581 100.384C144.581 100.384 143.311 100.205 143.133 98.7345C143.01 97.7246 143.589 96.4454 143.589 96.4454C143.589 96.4454 143.099 94.7509 143.857 93.5166C145.216 91.3284 153.027 91.968 153.027 91.968C153.027 91.968 153.116 88.9494 155.022 87.0306C156.927 85.1117 160.382 85.6616 160.192 86.9408C160.014 88.22 159.1 90.8683 159.1 90.8683C159.1 90.8683 161.095 93.9766 161.273 97.2645C161.451 100.552 160.37 108.138 160.37 108.138L148.938 109.069Z" fill="#E4C6B0"/>
<path d="M216.92 109.81L213.834 110.808L215.918 112.636" stroke="#424242" stroke-miterlimit="10" stroke-linecap="round" stroke-linejoin="round"/>
<path d="M187.425 102.673L190.868 101.764L189.242 99.4746" stroke="#424242" stroke-miterlimit="10" stroke-linecap="round" stroke-linejoin="round"/>
<path d="M146.397 93.0673C146.397 93.0673 155.39 92.5623 155.657 94.5709C155.891 96.3439 153.161 96.3439 150.253 96.8264C147.345 97.309 146.13 97.6344 146.13 97.6344C146.13 97.6344 155.033 96.4898 155.668 98.2291C156.303 99.9684 148.214 101.382 148.214 101.382C148.214 101.382 155.289 100.013 155.479 101.932C155.657 103.851 150.487 104.58 150.487 104.58" stroke="#424242" stroke-width="0.75" stroke-miterlimit="10" stroke-linecap="round" stroke-linejoin="round"/>
<path d="M232.353 142.674L181.976 153.245L189.978 191.915L240.354 181.344L232.353 142.674Z" fill="white"/>
<path d="M179.837 157.601L181.976 153.248L192.707 152.619V157.007L179.837 157.601Z" fill="white"/>
<path d="M238.203 185.7L240.354 181.346L236.454 175.825L230.281 177.654L238.203 185.7Z" fill="white"/>
<path d="M188.227 195.676L180.428 157.986L229.826 147.62L237.625 185.31L188.227 195.676Z" fill="white" stroke="#424242"/>
<path d="M218.703 186.519C218.703 186.519 214.558 186.396 213.377 185.206C212.196 184.017 211.839 182.098 210.112 182.648C208.385 183.197 207.661 185.935 208.664 187.305C209.666 188.674 210.302 189.493 210.302 189.493C210.302 189.493 208.385 189.639 205.844 189.751C203.315 189.863 203.315 189.863 203.315 189.863C203.315 189.863 201.956 192.971 204.318 194.251C206.68 195.53 207.494 194.98 207.494 194.98C207.494 194.98 208.496 196.989 210.402 197.269C212.307 197.538 222.024 197.269 222.024 197.269L218.703 186.519Z" fill="#E4C6B0"/>
<path d="M215.504 171.614C215.504 174.528 213.097 176.905 210.11 176.905C207.123 176.905 204.717 174.528 204.717 171.614C204.717 168.699 207.123 166.322 210.11 166.322C213.097 166.322 215.504 168.699 215.504 171.614Z" fill="white" stroke="#424242"/>
</g>
<defs>
<clipPath id="clip0">
<rect width="316.11" height="302.204" fill="white" transform="translate(49.9121 85.7959)"/>
</clipPath>
</defs>
</svg>
