<svg width="162" height="162" viewBox="0 0 162 162" fill="none" xmlns="http://www.w3.org/2000/svg">
<mask id="mask0" mask-type="alpha" maskUnits="userSpaceOnUse" x="0" y="0" width="162" height="162">
<circle cx="81" cy="81" r="81" fill="#545454"/>
</mask>
<g mask="url(#mask0)">
</g>
<mask id="mask1" mask-type="alpha" maskUnits="userSpaceOnUse" x="0" y="0" width="162" height="162">
<circle cx="81" cy="81" r="81" fill="#545454"/>
</mask>
<g mask="url(#mask1)">
<ellipse cx="81" cy="81.0988" rx="81" ry="82.2726" fill="#E23600"/>
<g clip-path="url(#clip0)">
<path d="M138.477 150.355L152.543 127.733L144.172 130.632C144.172 130.632 148.876 116.335 151.185 104.853C153.494 93.3701 153.931 85.4501 153.931 85.4501L145.302 94.8047C145.302 94.8047 145.83 85.5923 144.925 70.0613C144.019 54.5304 142.815 42.4516 142.815 42.4516L133.013 64.1144L119.726 24.4544L112.853 38.5271L99.3073 5.32356L90.2127 41.271L82.4706 18.5482L74.112 51.0965L63.5196 29.256L61.3269 72.805L49.9004 47.5351C49.9004 47.5351 46.6784 61.307 46.1322 65.9538C45.586 70.6005 45.0031 78.5351 45.0031 78.5351L33.7759 64.3573C33.7759 64.3573 37.7186 94.5286 38.2482 97.8577C38.7778 101.187 44.5272 118.529 44.5272 118.529L29.5443 102.236L39.7833 137.961L28.2479 134.378L43.6221 151.318L138.477 150.355Z" fill="#FF6B00"/>
<path d="M124.526 150.438L124.413 147.034L111.973 146.728L111.833 131.496L131.721 131.185L134.867 80.2203L114.416 80.6204L81.6798 104.934L93.1912 131.617L106.695 131.464L107.094 146.507L95.8045 147.165L95.0817 150.702L124.526 150.438Z" fill="#424242"/>
<path d="M75.3407 91.9656C75.3407 91.9656 69.4623 86.3454 61.9907 86.8163C54.5205 87.2957 51.8302 90.997 52.0128 97.532C52.1941 104.058 61.2625 144.958 61.2625 144.958L48.4948 151.549L78.3122 150.937L83.5418 144.399L78.322 111.586L75.3407 91.9656Z" fill="#B2B2B2"/>
<path d="M82.6454 78.5119C82.6222 78.5621 82.6033 78.604 82.5885 78.6372L82.638 90.3627L99.2806 93.0942L99.6668 93.1575L99.6978 93.5439L99.6978 93.5447L99.6978 93.5448L99.6982 93.5485C99.6989 93.5546 99.7003 93.5664 99.7027 93.585C99.7077 93.6222 99.717 93.6857 99.7337 93.782C99.7671 93.9749 99.8296 94.2971 99.9448 94.8004C100.175 95.8074 100.614 97.5321 101.448 100.387C103.1 106.043 105.257 110.216 109.207 116.014L109.207 116.015C111.172 118.91 112.977 120.822 114.86 121.888C116.721 122.942 118.699 123.193 121.078 122.676C125.721 121.667 127.187 117.83 128.312 113.556C128.85 111.512 128.983 107.146 128.533 102.082C128.085 97.0362 127.066 91.3789 125.348 86.7712L125.348 86.7711C123.609 82.1045 122.469 79.6472 120.887 77.6466C119.366 75.7227 117.423 74.2013 114.057 71.5664C113.907 71.4485 113.753 71.3283 113.597 71.2058C110.095 68.4629 105.614 67.8001 101.955 67.8424C100.132 67.8636 98.531 68.0595 97.386 68.2503C96.814 68.3456 96.3569 68.4394 96.0442 68.509C95.8879 68.5438 95.7677 68.5726 95.6874 68.5924C95.6473 68.6023 95.6171 68.61 95.5974 68.6151L95.5757 68.6208L95.5708 68.622L95.5699 68.6223L95.5699 68.6223L95.5698 68.6223L95.5333 68.6321L95.4985 68.636L95.4982 68.6361L95.498 68.6361L95.4979 68.6361L95.4973 68.6362L95.4891 68.6373C95.4794 68.6387 95.462 68.6414 95.4368 68.6458C95.3865 68.6546 95.3047 68.6704 95.1898 68.6972C94.96 68.7509 94.5978 68.8488 94.0886 69.0228C93.0701 69.3711 91.466 70.0238 89.1611 71.2369C86.9397 72.4075 85.285 74.2718 84.1792 75.8661C83.6283 76.6603 83.2189 77.38 82.9478 77.8999C82.8123 78.1596 82.7117 78.3689 82.6454 78.5119Z" fill="#B2B2B2" stroke="#424242"/>
<path d="M92.1466 88.0588C92.1466 88.0588 91.185 84.9822 93.6936 83.4366C96.2036 81.8996 99.0666 82.5819 99.0666 82.5819L107.212 94.9744C107.212 94.9744 106.945 95.1131 106.282 95.1223C105.619 95.1315 97.7947 93.7156 97.7947 93.7156L92.1466 88.0588Z" fill="#E4C6B0"/>
<path d="M87.8146 85.8942C87.8146 85.8942 88.2171 83.6422 86.641 82.09C85.065 80.5378 83.0416 80.9559 83.0416 80.9559L83.3239 85.0945L87.8146 85.8942Z" fill="#E4C6B0"/>
<path d="M100.078 72.7194C94.5381 71.8108 90.7355 66.8623 91.5848 61.6666C92.4341 56.4708 97.6136 52.9953 103.154 53.9038C108.694 54.8123 112.496 59.7608 111.647 64.9566C110.798 70.1524 105.618 73.6279 100.078 72.7194Z" fill="#E4C6B0"/>
<path d="M112.67 68.7072C111.289 68.9267 109.99 67.9697 109.767 66.5695C109.545 65.1693 110.483 63.8563 111.863 63.6368C113.243 63.4172 114.542 64.3743 114.765 65.7745C114.988 67.1746 114.05 68.4876 112.67 68.7072Z" fill="#E4C6B0"/>
<path d="M91.9958 62.6486C90.6157 62.8682 89.3164 61.9111 89.0936 60.5109C88.8709 59.1108 89.8091 57.7977 91.1892 57.5782C92.5693 57.3586 93.8687 58.3157 94.0914 59.7159C94.3142 61.1161 93.3759 62.4291 91.9958 62.6486Z" fill="#E4C6B0"/>
<path d="M114.179 89.8477L115.928 107.109L106.873 95.2634" stroke="#093F33" stroke-miterlimit="10" stroke-linecap="round" stroke-linejoin="round"/>
<path d="M94.7031 56.1965C96.8961 54.316 99.9654 53.3814 103.153 53.907C107.525 54.6206 110.803 57.8538 111.578 61.7389L94.7031 56.1965Z" fill="#424242"/>
<path d="M103.403 64.7593C103.008 64.6455 102.893 63.8432 103.146 62.9672C103.398 62.0911 103.922 61.4732 104.316 61.587C104.71 61.7007 104.825 62.5031 104.573 63.3791C104.321 64.2551 103.797 64.8731 103.403 64.7593Z" fill="#424242" stroke="#424242" stroke-width="0.5" stroke-miterlimit="10"/>
<path d="M96.5359 62.2798C96.1417 62.166 96.0267 61.3637 96.2789 60.4877C96.5311 59.6117 97.0551 58.9937 97.4492 59.1075C97.8433 59.2213 97.9584 60.0236 97.7062 60.8996C97.454 61.7756 96.93 62.3936 96.5359 62.2798Z" fill="#424242" stroke="#424242" stroke-width="0.5" stroke-miterlimit="10"/>
<path d="M104.468 69.977C103.545 68.1896 101.27 66.9675 98.6426 67.0528C97.1727 67.1029 95.8363 67.5518 94.8117 68.2574" stroke="#424242" stroke-miterlimit="10" stroke-linecap="round" stroke-linejoin="round"/>
<path d="M100.937 60.8066L97.1308 64.6416L101.158 64.7799" stroke="#424242" stroke-miterlimit="10" stroke-linecap="round" stroke-linejoin="round"/>
<path d="M90.7172 59.2289L91.9651 60.807L90.5858 61.0965" stroke="#424242" stroke-miterlimit="10" stroke-linecap="round" stroke-linejoin="round"/>
<path d="M113.021 65.5879L110.826 66.0772L112.348 67.6205" stroke="#424242" stroke-miterlimit="10" stroke-linecap="round" stroke-linejoin="round"/>
<path d="M103.723 91.7305C103.723 91.7305 100.898 91.8911 100.518 90.3849C100.139 88.8787 99.9318 86.8636 99.9318 86.8636L98.3212 89.8767" stroke="#093F33" stroke-miterlimit="10" stroke-linecap="round" stroke-linejoin="round"/>
<path d="M97.8655 85.5293L96.1504 89.0404" stroke="#093F33" stroke-miterlimit="10" stroke-linecap="round" stroke-linejoin="round"/>
<path d="M95.7809 84.793L93.727 88.428" stroke="#093F33" stroke-miterlimit="10" stroke-linecap="round" stroke-linejoin="round"/>
<path d="M84.5726 85.5275L84.298 85.4337L84.2432 85.1487L80.4687 65.5042L78.9355 65.6871L78.2882 82.9493L83.5678 89.2258L98.0818 93.599L98.2694 90.2058L84.5726 85.5275Z" fill="white" stroke="#424242"/>
<path d="M79.2977 144.064L79.3768 144.422L79.0592 144.605L69.0843 150.356L100.126 150.159L90.0063 112.072L90.9006 111.659L90.4895 111.944L90.9007 111.659L90.9009 111.66L90.9022 111.661L90.9078 111.669L90.9304 111.702C90.9506 111.731 90.9809 111.774 91.0209 111.83C91.101 111.944 91.2198 112.11 91.3742 112.323C91.6831 112.749 92.134 113.361 92.7007 114.099C93.8346 115.577 95.4301 117.561 97.2776 119.591C99.1266 121.622 101.22 123.688 103.348 125.336C105.485 126.991 107.614 128.188 109.536 128.54L109.536 128.54C116.039 129.731 121.01 127.618 124.459 124.101C126.557 121.956 127.218 120.207 127.382 119.039C127.465 118.453 127.423 118 127.366 117.704C127.338 117.56 127.307 117.453 127.283 117.383L102.615 97.3799L102.613 97.379L102.59 97.3616L102.498 97.2923C102.417 97.2313 102.295 97.1412 102.138 97.0257C101.823 96.7946 101.364 96.4616 100.788 96.0556C99.6355 95.2434 98.0157 94.1397 96.1476 92.9741C92.3973 90.6343 87.6975 88.0782 83.7767 87.0986C79.8741 86.1236 76.7133 86.616 74.453 88.0163C72.1951 89.415 70.7751 91.7561 70.4139 94.6067C70.3278 95.2861 70.3879 96.5651 70.58 98.3354C70.7701 100.088 71.0834 102.273 71.4818 104.735C72.2786 109.659 73.4123 115.669 74.5706 121.498C75.7287 127.325 76.9105 132.967 77.8029 137.152C78.249 139.244 78.6228 140.972 78.885 142.177C79.0161 142.78 79.1193 143.252 79.1897 143.573L79.2701 143.938L79.2908 144.032L79.296 144.056L79.2973 144.062L79.2976 144.063C79.2977 144.063 79.2977 144.064 78.8095 144.171L79.2977 144.064Z" fill="white" stroke="#424242"/>
</g>
</g>
<defs>
<clipPath id="clip0">
<rect width="131.809" height="149.384" fill="white" transform="matrix(-0.987582 0.157104 0.157104 0.987582 140.151 -1.17383)"/>
</clipPath>
</defs>
</svg>
