<svg width="44" height="44" viewBox="0 0 44 44" fill="none" xmlns="http://www.w3.org/2000/svg">
<circle cx="22" cy="22" r="22" fill="white"/>
<path d="M29.8925 12.7346H14.0905C12.8205 12.7391 11.604 13.2468 10.7075 14.1464C9.81104 15.046 9.30767 16.2643 9.30768 17.5344V26.5086C9.30768 27.7771 9.81158 28.9936 10.7085 29.8905C11.6055 30.7875 12.822 31.2914 14.0905 31.2914H29.8925C31.1626 31.2914 32.3809 30.7881 33.2805 29.8916C34.1802 28.9951 34.6878 27.7786 34.6923 26.5086V17.5344C34.6878 16.2628 34.1807 15.0445 33.2816 14.1454C32.3824 13.2462 31.1641 12.7391 29.8925 12.7346ZM31.3122 26.5086C31.3077 26.8821 31.1562 27.2389 30.8904 27.5015C30.6247 27.7641 30.2661 27.9113 29.8925 27.9113H14.0905C13.7199 27.9069 13.3656 27.7577 13.1035 27.4956C12.8414 27.2335 12.6922 26.8792 12.6878 26.5086V17.5344C12.6878 17.1608 12.835 16.8022 13.0976 16.5365C13.3602 16.2707 13.717 16.1192 14.0905 16.1147H29.8925C30.2677 16.1191 30.6262 16.2701 30.8915 16.5354C31.1568 16.8007 31.3078 17.1592 31.3122 17.5344V26.5086Z" fill="#424242"/>
<path d="M20.2254 21.32L14.9186 18.7681" stroke="#00B3AF" stroke-linecap="round" stroke-linejoin="round"/>
<path d="M19.3297 18.092L20.4958 21.3031L17.2678 22.4693" stroke="#424242" stroke-linecap="round" stroke-linejoin="round"/>
<path d="M20.1747 21.1511L14.8511 18.5991" stroke="#424242" stroke-linecap="round" stroke-linejoin="round"/>
<path d="M24.6703 25.934L23.5042 22.7229L26.7322 21.5568" stroke="#424242" stroke-linecap="round" stroke-linejoin="round"/>
<path d="M23.8252 22.875L29.132 25.427" stroke="#424242" stroke-linecap="round" stroke-linejoin="round"/>
</svg>
