<svg width="30" height="30" viewBox="0 0 30 30" fill="none" xmlns="http://www.w3.org/2000/svg">
<path d="M29.9857 15.2807C29.9857 14.0516 29.8836 13.1547 29.6627 12.2245H15.2988V17.772H23.7301C23.5602 19.1507 22.6423 21.2268 20.6024 22.622L20.5738 22.8077L25.1154 26.2454L25.43 26.2761C28.3198 23.6684 29.9857 19.8316 29.9857 15.2807Z" fill="#4285F4"/>
<path d="M15.2988 29.897C19.4295 29.897 22.8971 28.5681 25.43 26.2761L20.6024 22.622C19.3105 23.5023 17.5766 24.1168 15.2988 24.1168C11.2532 24.1168 7.81945 21.5092 6.59543 17.905L6.41602 17.9199L1.69359 21.4909L1.63184 21.6586C4.14762 26.5418 9.31523 29.897 15.2988 29.897Z" fill="#34A853"/>
<path d="M6.59543 17.9049C6.27246 16.9748 6.08555 15.9782 6.08555 14.9484C6.08555 13.9186 6.27246 12.9221 6.57844 11.992L6.56988 11.7939L1.78828 8.16547L1.63184 8.23818C0.594961 10.2646 0 12.5401 0 14.9484C0 17.3568 0.594961 19.6322 1.63184 21.6586L6.59543 17.9049Z" fill="#FBBC05"/>
<path d="M15.2988 5.78004C18.1716 5.78004 20.1094 6.99252 21.2143 8.00576L25.532 3.8866C22.8803 1.47824 19.4295 0 15.2988 0C9.31523 0 4.14762 3.35508 1.63184 8.23821L6.57844 11.992C7.81945 8.38775 11.2532 5.78004 15.2988 5.78004Z" fill="#EB4335"/>
</svg>
