<svg width="36" height="36" viewBox="0 0 36 36" fill="none" xmlns="http://www.w3.org/2000/svg">
  <path d="M23.8899 16.8049H17.9175C17.6311 16.8049 17.3564 16.9186 17.1538 17.1212C16.9513 17.3237 16.8375 17.5984 16.8375 17.8849C16.8375 18.1713 16.9513 18.446 17.1538 18.6485C17.3564 18.8511 17.6311 18.9649 17.9175 18.9649H22.6911C22.4461 20.0505 21.8423 21.0217 20.977 21.7217C20.1118 22.4217 19.0358 22.8094 17.923 22.8222C16.8102 22.835 15.7256 22.4722 14.8444 21.7924C13.9633 21.1126 13.3372 20.1555 13.0673 19.0758C12.7974 17.9962 12.8994 16.857 13.357 15.8425C13.8145 14.828 14.6008 13.9975 15.5888 13.4851C16.5767 12.9728 17.7085 12.8085 18.8014 13.019C19.8942 13.2294 20.8841 13.8023 21.6111 14.6449C21.8015 14.8511 22.0647 14.9751 22.3449 14.9907C22.6251 15.0062 22.9004 14.912 23.1124 14.7281C23.3244 14.5442 23.4565 14.2849 23.4807 14.0053C23.5048 13.7257 23.4192 13.4476 23.2419 13.2301C22.1489 11.9777 20.6509 11.1488 19.0092 10.8879C17.3675 10.6271 15.6863 10.951 14.259 11.803C12.8317 12.655 11.7488 13.9811 11.1993 15.5499C10.6497 17.1187 10.6684 18.8307 11.2521 20.3871C11.8357 21.9435 12.9473 23.2457 14.3929 24.0663C15.8385 24.8869 17.5263 25.174 19.1619 24.8774C20.7975 24.5808 22.2771 23.7194 23.3425 22.4434C24.4079 21.1675 24.9915 19.5579 24.9915 17.8957C24.993 17.7511 24.9654 17.6077 24.9104 17.474C24.8555 17.3403 24.7742 17.219 24.6715 17.1172C24.5687 17.0155 24.4466 16.9354 24.3124 16.8818C24.1781 16.8281 24.0344 16.802 23.8899 16.8049Z" fill="white"/>
  <circle cx="18" cy="18" r="17.5" stroke="white"/>
</svg>
