<svg width="40" height="40" viewBox="0 0 40 40" fill="none" xmlns="http://www.w3.org/2000/svg">
  <path d="M26.544 18.672H19.908C19.5897 18.672 19.2845 18.7984 19.0595 19.0235C18.8344 19.2485 18.708 19.5538 18.708 19.872C18.708 20.1903 18.8344 20.4955 19.0595 20.7205C19.2845 20.9456 19.5897 21.072 19.908 21.072H25.212C24.9398 22.2782 24.2688 23.3574 23.3075 24.1352C22.3461 24.9129 21.1506 25.3437 19.9141 25.358C18.6777 25.3722 17.4725 24.9691 16.4935 24.2137C15.5145 23.4584 14.8188 22.3949 14.5189 21.1953C14.219 19.9957 14.3324 18.73 14.8408 17.6027C15.3491 16.4755 16.2228 15.5527 17.3205 14.9834C18.4182 14.4141 19.6758 14.2317 20.8901 14.4655C22.1043 14.6993 23.2042 15.3358 24.012 16.272C24.2235 16.5012 24.516 16.639 24.8273 16.6562C25.1387 16.6735 25.4446 16.5689 25.6801 16.3645C25.9157 16.1602 26.0625 15.8721 26.0893 15.5614C26.1162 15.2507 26.021 14.9418 25.824 14.7C24.6096 13.3085 22.9451 12.3874 21.121 12.0977C19.2969 11.8079 17.4289 12.1677 15.843 13.1144C14.2571 14.0611 13.0539 15.5345 12.4433 17.2776C11.8327 19.0207 11.8535 20.9229 12.502 22.6523C13.1505 24.3817 14.3856 25.8285 15.9918 26.7403C17.598 27.6521 19.4734 27.9711 21.2907 27.6415C23.108 27.312 24.752 26.3548 25.9358 24.9371C27.1195 23.5193 27.768 21.731 27.768 19.884C27.7696 19.7234 27.739 19.5641 27.6779 19.4155C27.6168 19.2669 27.5266 19.1321 27.4124 19.0191C27.2983 18.9061 27.1626 18.8171 27.0134 18.7575C26.8642 18.6979 26.7046 18.6688 26.544 18.672Z" fill="#4858CC"/>
  <circle cx="20" cy="20" r="19.5" stroke="#9E58CC"/>
  <circle cx="20" cy="20" r="19.5" stroke="url(#paint0_linear)"/>
  <defs>
    <linearGradient id="paint0_linear" x1="6" y1="6.2" x2="33.8" y2="34" gradientUnits="userSpaceOnUse">
      <stop stop-color="#0A58CC"/>
      <stop offset="1" stop-color="#9E58CC"/>
    </linearGradient>
  </defs>
</svg>
