<svg width="44" height="44" viewBox="0 0 44 44" fill="none" xmlns="http://www.w3.org/2000/svg">
<circle cx="22" cy="22" r="22" fill="#FF6B00"/>
<path d="M33.4874 17.0707L28.3698 20.1168V19.5837C28.3698 18.4406 27.9157 17.3442 27.1074 16.5359C26.299 15.7276 25.2027 15.2734 24.0595 15.2734H14.4641C13.321 15.2734 12.2246 15.7276 11.4163 16.5359C10.6079 17.3442 10.1538 18.4406 10.1538 19.5837V24.5947C10.1538 25.7378 10.6079 26.8342 11.4163 27.6425C12.2246 28.4508 13.321 28.905 14.4641 28.905H24.0595C25.2027 28.905 26.299 28.4508 27.1074 27.6425C27.9157 26.8342 28.3698 25.7378 28.3698 24.5947V24.29L33.4874 27.3362C34.0966 27.7017 34.5992 27.4124 34.5992 26.6965V17.6951C34.5992 16.9945 34.0966 16.6747 33.4874 17.0707ZM25.3237 24.5794C25.3197 24.9135 25.1853 25.2327 24.949 25.469C24.7128 25.7052 24.3936 25.8396 24.0595 25.8436H14.4641C14.1301 25.8396 13.8108 25.7052 13.5746 25.469C13.3384 25.2327 13.2039 24.9135 13.2 24.5794V19.5685C13.2039 19.2345 13.3384 18.9152 13.5746 18.679C13.8108 18.4428 14.1301 18.3083 14.4641 18.3044H24.0595C24.3936 18.3083 24.7128 18.4428 24.949 18.679C25.1853 18.9152 25.3197 19.2345 25.3237 19.5685V24.5794Z" fill="white"/>
<rect x="36.6255" y="5.41602" width="1.69231" height="44" transform="rotate(45 36.6255 5.41602)" fill="white"/>
</svg>
