<svg width="28" height="28" viewBox="0 0 28 28" xmlns="http://www.w3.org/2000/svg">
<path d="M22.5964 20.7418H22.2002V13.9412C22.2563 11.9226 21.6065 9.94755 20.3627 8.35662C19.1189 6.76568 17.3591 5.65849 15.3867 5.22587V3.65449C15.3867 3.30427 15.2475 2.96839 14.9999 2.72075C14.7523 2.47311 14.4164 2.33398 14.0662 2.33398C13.716 2.33398 13.3801 2.47311 13.1325 2.72075C12.8848 2.96839 12.7457 3.30427 12.7457 3.65449V5.22587C10.761 5.64509 8.98598 6.74657 7.72912 8.3388C6.47226 9.93104 5.81307 11.9134 5.86612 13.9412V20.7946H5.40396C5.05375 20.7946 4.71789 20.9338 4.47025 21.1814C4.22262 21.4291 4.0835 21.7649 4.0835 22.1152C4.0835 22.4654 4.22262 22.8013 4.47025 23.0489C4.71789 23.2965 5.05375 23.4357 5.40396 23.4357H11.1744C11.3183 24.0604 11.6667 24.6191 12.1642 25.0234C12.6618 25.4277 13.28 25.6543 13.9209 25.6673C14.5612 25.652 15.1783 25.4246 15.6754 25.0207C16.1725 24.6168 16.5215 24.0593 16.6675 23.4357H22.5964C22.9466 23.4357 23.2824 23.2965 23.5301 23.0489C23.7777 22.8013 23.9168 22.4654 23.9168 22.1152C23.9168 21.7649 23.7777 21.4291 23.5301 21.1814C23.2824 20.9338 22.9466 20.7946 22.5964 20.7946V20.7418ZM8.50704 13.9412C8.42027 12.393 8.94898 10.8732 9.97794 9.71309C11.0069 8.553 12.4527 7.84667 14.0002 7.74805C14.7722 7.78856 15.5286 7.98103 16.2262 8.31442C16.9237 8.64781 17.5486 9.11556 18.065 9.69088C18.5814 10.2662 18.9792 10.9378 19.2357 11.6671C19.4921 12.3965 19.6021 13.1693 19.5593 13.9412V20.5437H8.50704V13.9412Z" />
</svg>
