<svg width="14" height="13" viewBox="0 0 14 13" xmlns="http://www.w3.org/2000/svg">
    <path d="M8.10142 4.99453C8.10061 5.34708 7.96294 5.68553 7.71742 5.93853C8.09653 6.04239 8.43604 6.25696 8.69255 6.5548C8.94907 6.85264 9.11092 7.22022 9.15742 7.61053V7.66653V7.75453C9.13681 7.88037 9.07265 7.99497 8.97614 8.07831C8.87964 8.16166 8.75692 8.20846 8.62942 8.21053H4.87742C4.75615 8.21145 4.63827 8.1706 4.54357 8.09485C4.44887 8.01909 4.38314 7.91304 4.35742 7.79453V7.73853V7.69053C4.38254 7.28171 4.53721 6.89151 4.799 6.5765C5.06079 6.26149 5.4161 6.03803 5.81342 5.93853C5.68896 5.81488 5.59024 5.66779 5.52296 5.50576C5.45568 5.34373 5.42117 5.16997 5.42142 4.99453C5.42142 4.44253 5.42142 3.39453 6.71742 3.39453H6.77342C8.10142 3.39453 8.10142 4.44253 8.10142 4.99453Z" />
    <path d="M11.7975 9.7228C12.6559 8.68493 13.128 7.38163 13.1335 6.0348C13.1097 5.21839 12.9252 4.41468 12.5906 3.6696C12.256 2.92453 11.7779 2.25269 11.1835 1.6925C10.5892 1.13231 9.89023 0.69474 9.12666 0.404812C8.3631 0.114885 7.54988 -0.021721 6.7335 0.00280285C5.0853 -0.0445874 3.48565 0.563982 2.28572 1.69491C1.0858 2.82583 0.38368 4.38669 0.333496 6.0348C0.351051 6.85774 0.531668 7.66903 0.864891 8.42169C1.19811 9.17436 1.67732 9.85345 2.27478 10.4197C2.87223 10.9859 3.57606 11.4279 4.34553 11.7203C5.11499 12.0126 5.9348 12.1494 6.7575 12.1228C7.63765 12.1131 8.50738 11.931 9.3175 11.5868L11.4695 12.3068C11.5438 12.3173 11.6192 12.3173 11.6935 12.3068C11.7866 12.3079 11.879 12.2904 11.9654 12.2555C12.0517 12.2206 12.1303 12.1689 12.1965 12.1035C12.2627 12.038 12.3153 11.96 12.3512 11.8741C12.387 11.7881 12.4055 11.6959 12.4055 11.6028C12.407 11.4788 12.3737 11.3569 12.3095 11.2508L11.7975 9.7228ZM10.5655 8.7068L10.0055 9.3948L10.2775 10.1948L9.8055 10.0348L9.23749 9.8428L8.6935 10.0748C8.08335 10.3484 7.42579 10.5005 6.7575 10.5228C5.53433 10.5726 4.34147 10.1345 3.4413 9.30486C2.54114 8.47521 2.0074 7.32196 1.9575 6.0988C2.00743 4.87496 2.5409 3.72093 3.44081 2.89001C4.34073 2.05908 5.53356 1.61916 6.7575 1.6668C7.98143 1.61916 9.17426 2.05908 10.0742 2.89001C10.9741 3.72093 11.5076 4.87496 11.5575 6.0988C11.5353 7.06333 11.1855 7.99157 10.5655 8.7308V8.7068Z" />
</svg>
