<svg width="14" height="13" viewBox="0 0 14 13" xmlns="http://www.w3.org/2000/svg">
    <path d="M7.94434 5.66271C7.94434 5.15871 7.94433 4.2387 6.80033 4.2147C5.65633 4.1907 5.65634 5.15071 5.65634 5.66271C5.65406 5.97826 5.77455 6.28235 5.99234 6.51071C5.6424 6.61093 5.33352 6.82008 5.11054 7.1078C4.88756 7.39552 4.76208 7.74683 4.75233 8.11071V8.15071C4.74845 8.16917 4.74845 8.18824 4.75233 8.2067C4.77247 8.30914 4.82715 8.40158 4.90723 8.46856C4.98731 8.53553 5.08795 8.57301 5.19234 8.57471H8.39234C8.5049 8.57359 8.61323 8.53158 8.69712 8.45652C8.78101 8.38146 8.83475 8.27845 8.84833 8.1667V8.08671C8.85275 8.0683 8.85275 8.04911 8.84833 8.0307C8.80851 7.68454 8.66729 7.35785 8.44241 7.09169C8.21752 6.82552 7.919 6.63175 7.58434 6.53471C7.69941 6.42067 7.79052 6.28478 7.85234 6.13504C7.91417 5.98529 7.94544 5.82471 7.94434 5.66271Z" />
    <path d="M13.2243 4.5027C13.1329 4.21316 12.961 3.9556 12.7287 3.76011C12.4964 3.56462 12.2132 3.43928 11.9123 3.39871L9.36034 3.0467L8.23234 0.862708C8.09732 0.602677 7.89349 0.38471 7.64309 0.232581C7.39269 0.0804511 7.10532 0 6.81233 0C6.51934 0 6.23197 0.0804511 5.98157 0.232581C5.73117 0.38471 5.52735 0.602677 5.39234 0.862708L4.26433 3.0467L1.70434 3.39871C1.406 3.44185 1.12592 3.56839 0.896364 3.76376C0.666805 3.95913 0.497106 4.21537 0.406813 4.50297C0.316521 4.79057 0.309301 5.09783 0.386 5.38934C0.4627 5.68086 0.620194 5.94479 0.840334 6.15071L2.64033 7.8307L2.21633 10.1747C2.1646 10.4663 2.19479 10.7665 2.30354 11.0419C2.4123 11.3173 2.59536 11.5571 2.83234 11.7347C3.10929 11.9424 3.44614 12.0547 3.79234 12.0547C4.04216 12.0557 4.28874 11.9982 4.51233 11.8867L6.80834 10.7347L9.11233 11.8867C9.33592 11.9982 9.58251 12.0557 9.83234 12.0547C10.1785 12.0547 10.5154 11.9424 10.7923 11.7347C11.0293 11.5571 11.2124 11.3173 11.3211 11.0419C11.4299 10.7665 11.4601 10.4663 11.4083 10.1747L10.9843 7.8307L12.7843 6.15071C13.0057 5.94548 13.1644 5.68183 13.2423 5.39022C13.3201 5.09861 13.3139 4.79093 13.2243 4.5027ZM9.22433 7.2547L9.80033 10.4547L6.77633 8.9427L3.76034 10.4547L4.33633 7.2547L1.89634 4.9827L5.27234 4.51071L6.77633 1.59871L8.28833 4.51071L11.6643 4.9827L9.22433 7.2547Z" />
</svg>
