<svg width="291" height="151" viewBox="0 0 291 151" fill="none" xmlns="http://www.w3.org/2000/svg">
<g clip-path="url(#clip0)">
<path d="M106.777 29.2891H0V151.001H106.777V29.2891Z" fill="#7C3AA6"/>
<path d="M291.003 29.2891H102.111V151.001H291.003V29.2891Z" fill="#F3F3F3"/>
<path d="M291 0H0V29.288H291V0Z" fill="#E1E6EA"/>
<path d="M16.5068 20.3148C19.633 20.3148 22.1672 17.7766 22.1672 14.6457C22.1672 11.5147 19.633 8.97656 16.5068 8.97656C13.3807 8.97656 10.8464 11.5147 10.8464 14.6457C10.8464 17.7766 13.3807 20.3148 16.5068 20.3148Z" fill="#7C3AA6"/>
<path d="M247.609 20.3148H44.3601C41.2331 20.3148 38.6997 17.7775 38.6997 14.6457C38.6997 11.5139 41.2331 8.97656 44.3601 8.97656H247.609C250.736 8.97656 253.27 11.5139 253.27 14.6457C253.27 17.7738 250.736 20.3148 247.609 20.3148Z" fill="white"/>
<path d="M245.861 64.8106C242.463 64.8106 240.74 63.8682 239.076 62.9548C237.418 62.045 235.851 61.1859 232.641 61.1859C229.427 61.1859 227.863 62.045 226.206 62.9548C224.541 63.8682 222.818 64.8106 219.423 64.8106C216.025 64.8106 214.306 63.8682 212.641 62.9548C210.983 62.045 209.416 61.1859 206.206 61.1859C202.992 61.1859 201.429 62.045 199.771 62.9548C198.106 63.8682 196.384 64.8106 192.989 64.8106C189.594 64.8106 187.871 63.8682 186.207 62.9548C184.549 62.045 182.982 61.1859 179.772 61.1859C176.561 61.1859 174.994 62.045 173.337 62.9548C171.672 63.8682 169.953 64.8106 166.554 64.8106V64.0857C169.765 64.0857 171.332 63.2266 172.989 62.3168C174.654 61.4034 176.373 60.4609 179.772 60.4609C183.17 60.4609 184.889 61.4034 186.554 62.3168C188.212 63.2266 189.779 64.0857 192.989 64.0857C196.199 64.0857 197.766 63.2266 199.424 62.3168C201.089 61.4034 202.811 60.4609 206.206 60.4609C209.601 60.4609 211.324 61.4034 212.988 62.3168C214.646 63.2266 216.213 64.0857 219.423 64.0857C222.634 64.0857 224.201 63.2266 225.858 62.3168C227.523 61.4034 229.246 60.4609 232.641 60.4609C236.039 60.4609 237.758 61.4034 239.427 62.3168C241.084 63.2266 242.651 64.0857 245.865 64.0857C249.079 64.0857 250.642 63.2266 252.3 62.3168C253.965 61.4034 255.688 60.4609 259.086 60.4609V61.1859C255.872 61.1859 254.309 62.045 252.651 62.9548C250.983 63.8646 249.26 64.8106 245.861 64.8106Z" fill="#7C3AA6"/>
<path d="M245.861 98.9942C242.463 98.9942 240.74 98.0518 239.076 97.1384C237.418 96.2286 235.851 95.3695 232.641 95.3695C229.427 95.3695 227.863 96.2286 226.206 97.1384C224.541 98.0518 222.818 98.9942 219.423 98.9942C216.025 98.9942 214.306 98.0518 212.641 97.1384C210.983 96.2286 209.416 95.3695 206.206 95.3695C202.992 95.3695 201.429 96.2286 199.771 97.1384C198.106 98.0518 196.384 98.9942 192.989 98.9942C189.594 98.9942 187.871 98.0518 186.207 97.1384C184.549 96.2286 182.982 95.3695 179.772 95.3695C176.561 95.3695 174.994 96.2286 173.337 97.1384C171.672 98.0518 169.953 98.9942 166.554 98.9942V98.2693C169.765 98.2693 171.332 97.4102 172.989 96.5004C174.654 95.587 176.373 94.6445 179.772 94.6445C183.17 94.6445 184.889 95.587 186.554 96.5004C188.212 97.4102 189.779 98.2693 192.989 98.2693C196.199 98.2693 197.766 97.4102 199.424 96.5004C201.089 95.587 202.811 94.6445 206.206 94.6445C209.601 94.6445 211.324 95.587 212.988 96.5004C214.646 97.4102 216.213 98.2693 219.423 98.2693C222.634 98.2693 224.201 97.4102 225.858 96.5004C227.523 95.587 229.246 94.6445 232.641 94.6445C236.039 94.6445 237.758 95.587 239.427 96.5004C241.084 97.4102 242.651 98.2693 245.865 98.2693C249.079 98.2693 250.642 97.4102 252.3 96.5004C253.965 95.587 255.688 94.6445 259.086 94.6445V95.3695C255.872 95.3695 254.309 96.2286 252.651 97.1384C250.983 98.0518 249.26 98.9942 245.861 98.9942Z" fill="#7C3AA6"/>
<path d="M245.861 81.9005C242.463 81.9005 240.74 80.958 239.076 80.0446C237.418 79.1348 235.851 78.2757 232.641 78.2757C229.427 78.2757 227.863 79.1348 226.206 80.0446C224.541 80.958 222.818 81.9005 219.423 81.9005C216.025 81.9005 214.306 80.958 212.641 80.0446C210.983 79.1348 209.416 78.2757 206.206 78.2757C202.992 78.2757 201.429 79.1348 199.771 80.0446C198.106 80.958 196.384 81.9005 192.989 81.9005C189.594 81.9005 187.871 80.958 186.207 80.0446C184.549 79.1348 182.982 78.2757 179.772 78.2757C176.561 78.2757 174.994 79.1348 173.337 80.0446C171.672 80.958 169.953 81.9005 166.554 81.9005V81.1755C169.765 81.1755 171.332 80.3165 172.989 79.4067C174.654 78.4932 176.373 77.5508 179.772 77.5508C183.17 77.5508 184.889 78.4932 186.554 79.4067C188.212 80.3165 189.779 81.1755 192.989 81.1755C196.199 81.1755 197.766 80.3165 199.424 79.4067C201.089 78.4932 202.811 77.5508 206.206 77.5508C209.601 77.5508 211.324 78.4932 212.988 79.4067C214.646 80.3165 216.213 81.1755 219.423 81.1755C222.634 81.1755 224.201 80.3165 225.858 79.4067C227.523 78.4932 229.246 77.5508 232.641 77.5508C236.039 77.5508 237.758 78.4932 239.427 79.4067C241.084 80.3165 242.651 81.1755 245.865 81.1755C249.079 81.1755 250.642 80.3165 252.3 79.4067C253.965 78.4932 255.688 77.5508 259.086 77.5508V78.2757C255.872 78.2757 254.309 79.1348 252.651 80.0446C250.983 80.958 249.26 81.9005 245.861 81.9005Z" fill="#7C3AA6"/>
<path d="M291.004 29.2891H272.137V151.001H291.004V29.2891Z" fill="#CFD2D3"/>
<path d="M275.333 41.6837L281.779 34.1406L288.224 41.6837H275.333Z" fill="#313133"/>
<path d="M291.004 50.6602H272.137V82.9894H291.004V50.6602Z" fill="#313133"/>
<path d="M150.713 88.3371H126.57L121.083 101.702H119.085L137.54 56.9648H139.773L158.227 101.702H156.229L150.713 88.3371ZM127.25 86.677H150.037L138.662 58.9621L127.25 86.677Z" fill="#7C3AA6"/>
<path d="M14.4371 76.5181L16.2576 72.375H17.4012V77.7324H16.4856V73.8358L14.7556 77.7324H14.1222L12.3561 73.7524V77.7324H11.4404V72.375H12.6275L14.4371 76.5181Z" fill="#EBEBEC"/>
<path d="M18.6245 75.0029C18.6245 74.4773 18.7258 74.0061 18.9321 73.5856C19.1384 73.1651 19.4243 72.8425 19.7935 72.6142C20.1627 72.3858 20.5789 72.2734 21.053 72.2734C21.7804 72.2734 22.3704 72.5272 22.8191 73.031C23.2679 73.5349 23.4923 74.2091 23.4923 75.0464V75.1116C23.4923 75.6336 23.391 76.1012 23.1919 76.5144C22.9929 76.9276 22.7069 77.2502 22.3378 77.4822C21.9686 77.7142 21.5416 77.8302 21.0602 77.8302C20.3364 77.8302 19.7465 77.5765 19.2977 77.0726C18.8489 76.5688 18.6245 75.8982 18.6245 75.0681V75.0029ZM19.5438 75.1116C19.5438 75.7061 19.6813 76.1845 19.9564 76.5434C20.2314 76.9022 20.6006 77.0835 21.0602 77.0835C21.5235 77.0835 21.8926 76.9022 22.1677 76.5361C22.4427 76.17 22.5767 75.659 22.5767 75.0029C22.5767 74.4157 22.4391 73.9408 22.1604 73.5747C21.8818 73.2086 21.5126 73.0274 21.0494 73.0274C20.597 73.0274 20.235 73.2086 19.9564 73.5675C19.6813 73.9263 19.5438 74.441 19.5438 75.1116Z" fill="#EBEBEC"/>
<path d="M28.1032 72.375H29.0188V77.7324H28.1032V73.8249L25.6349 77.7324H24.7192V72.375H25.6349V76.2861L28.1032 72.375Z" fill="#EBEBEC"/>
<path d="M34.6575 75.4488H33.9915V77.7324H33.0723V72.375H33.9915V74.6441H34.5887L36.3874 72.375H37.4949L35.3777 74.9486L37.6722 77.7324H36.5105L34.6575 75.4488Z" fill="#EBEBEC"/>
<path d="M42.8442 72.375V77.7324H41.9249V73.1326H40.1045L39.9959 75.1371C39.938 76.0577 39.7824 76.7175 39.5327 77.1126C39.2829 77.5077 38.8884 77.7143 38.3492 77.7324H37.9836V76.9241L38.2442 76.9059C38.541 76.8733 38.7545 76.703 38.8812 76.3912C39.0115 76.0795 39.0911 75.5068 39.1273 74.6695L39.225 72.3786H42.8442V72.375Z" fill="#EBEBEC"/>
<path d="M47.7733 72.375H48.689V77.7324H47.7733V73.8249L45.3051 77.7324H44.3894V72.375H45.3051V76.2861L47.7733 72.375Z" fill="#EBEBEC"/>
<path d="M52.3769 77.8299C51.6531 77.8299 51.0632 77.5907 50.6072 77.1158C50.1511 76.6374 49.9268 75.9994 49.9268 75.202V75.0316C49.9268 74.4988 50.0281 74.0275 50.2308 73.6071C50.4334 73.1902 50.7157 72.864 51.0813 72.6248C51.4468 72.3891 51.8413 72.2695 52.2647 72.2695C52.9596 72.2695 53.5025 72.4979 53.8861 72.9582C54.2734 73.4186 54.4652 74.0747 54.4652 74.9301V75.3107H50.8424C50.8569 75.8399 51.0089 76.264 51.3057 76.5902C51.5988 76.9165 51.9752 77.0796 52.4312 77.0796C52.7533 77.0796 53.0284 77.0143 53.2528 76.8802C53.4772 76.7461 53.6726 76.5721 53.8391 76.3546L54.3964 76.7896C53.944 77.4856 53.2709 77.8299 52.3769 77.8299ZM52.2611 73.0271C51.892 73.0271 51.5807 73.1612 51.331 73.4295C51.0813 73.6977 50.9257 74.0747 50.8677 74.5604H53.5459V74.4915C53.5206 74.0275 53.3939 73.6651 53.1695 73.4077C52.9488 73.154 52.6448 73.0271 52.2611 73.0271Z" fill="#EBEBEC"/>
<path d="M59.8905 77.7324H58.9748V75.4452H56.5174V77.7324H55.5981V72.375H56.5174V74.6985H58.9748V72.375H59.8905V77.7324Z" fill="#EBEBEC"/>
<path d="M65.3335 73.1181H63.5383V77.7324H62.6227V73.1181H60.8638V72.375H65.3335V73.1181Z" fill="#EBEBEC"/>
<path d="M67.2228 74.2197H68.6125C69.2169 74.227 69.6983 74.3865 70.0494 74.6946C70.4004 75.0063 70.5778 75.4268 70.5778 75.956C70.5778 76.4924 70.3968 76.9202 70.0349 77.2428C69.673 77.5654 69.1844 77.7285 68.5727 77.7285H66.3071V72.3711H67.2228V74.2197ZM67.2228 74.9664V76.9818H68.5836C68.9274 76.9818 69.1916 76.8948 69.3798 76.7172C69.568 76.5396 69.6621 76.3003 69.6621 75.9922C69.6621 75.695 69.5716 75.4521 69.387 75.2637C69.2025 75.0752 68.9491 74.9773 68.6198 74.97H67.2228V74.9664ZM72.4887 77.7321H71.5694V72.3747H72.4887V77.7321Z" fill="#EBEBEC"/>
<path d="M88.3332 82.1142H85.2894C81.3952 82.1142 78.2393 78.9534 78.2393 75.0532C78.2393 71.153 81.3952 67.9922 85.2894 67.9922H88.3332C92.2274 67.9922 95.3833 71.153 95.3833 75.0532C95.3833 78.9534 92.2274 82.1142 88.3332 82.1142Z" fill="#FF6B00"/>
<path d="M11.4404 111.535H72.4887" stroke="#EBEBEC" stroke-miterlimit="10"/>
<path d="M11.4404 128.422H72.4887" stroke="#EBEBEC" stroke-miterlimit="10"/>
<path d="M11.4404 94.6445H72.4887" stroke="#EBEBEC" stroke-miterlimit="10"/>
</g>
<defs>
<clipPath id="clip0">
<rect width="291" height="151" fill="white"/>
</clipPath>
</defs>
</svg>
