<svg width="414" height="149" viewBox="0 0 414 149" fill="none" xmlns="http://www.w3.org/2000/svg">
<g clip-path="url(#clip0)">
<path d="M148.738 148.999L133.9 56.1328L128.386 148.999H148.738Z" fill="#979797"/>
<path d="M133.9 74.0627V47.58C133.9 47.58 139.035 47.0057 140.559 51.8004C142.08 56.5981 142.462 59.284 142.462 59.284H163.576V74.0598H133.9V74.0627Z" fill="#F6C462"/>
<path d="M163.573 74.0648V59.2891C163.573 59.2891 178.218 59.2891 184.686 59.2891C191.155 59.2891 196.859 63.7981 201.045 74.0648C205.231 84.3316 208.558 92.8725 208.558 92.8725H183.259L177.935 74.0648H163.573Z" fill="#7C3AA6"/>
<path d="M195.907 108.51L206.463 134.321H224.914L208.556 92.8711L195.907 108.51Z" fill="#0442EB"/>
<path d="M169.09 134.32L166.997 140.461L157.297 143.147L156.059 148.999H193.531L187.635 134.32H169.09Z" fill="#303032"/>
<path d="M206.559 134.32L204.466 140.461L194.766 143.147L193.531 148.999H231L225.103 134.32H206.559Z" fill="#303032"/>
<path d="M183.259 92.8708C183.259 92.8708 169.755 92.8708 163.573 92.8708C157.39 92.8708 155.583 99.2028 157.107 103.712C158.628 108.221 169.09 134.321 169.09 134.321H187.635L178.504 111.39C178.504 111.39 189.915 111.487 196.952 111.487C203.99 111.487 210.17 103.235 209.411 96.8055C208.652 90.3762 208.556 92.8708 208.556 92.8708H183.259Z" fill="#036CFA"/>
<path d="M178.979 58.9672C183.076 58.9672 186.397 55.6167 186.397 51.4836C186.397 47.3505 183.076 44 178.979 44C174.883 44 171.562 47.3505 171.562 51.4836C171.562 55.6167 174.883 58.9672 178.979 58.9672Z" fill="#F6C462"/>
<path d="M185.507 55.0413C186.073 53.984 186.397 52.7706 186.397 51.4836C186.397 47.3516 183.075 44 178.98 44C177.135 44 175.447 44.6803 174.151 45.8054C175.45 46.9304 177.135 47.6107 178.98 47.6107C178.98 51.4424 181.831 54.5966 185.507 55.0413Z" fill="#1C1C21"/>
<path d="M133.9 59.5664H0V148.998H133.9V59.5664Z" fill="#D4D6D7"/>
<path d="M133.9 48.1602H0V59.5667H133.9V48.1602Z" fill="#1C1C21"/>
<path d="M6.8131 56.1391C8.05607 56.1391 9.06369 55.1224 9.06369 53.8684C9.06369 52.6143 8.05607 51.5977 6.8131 51.5977C5.57013 51.5977 4.5625 52.6143 4.5625 53.8684C4.5625 55.1224 5.57013 56.1391 6.8131 56.1391Z" fill="#7C3AA6"/>
<path d="M15.2491 56.1391C16.4921 56.1391 17.4997 55.1224 17.4997 53.8684C17.4997 52.6143 16.4921 51.5977 15.2491 51.5977C14.0062 51.5977 12.9985 52.6143 12.9985 53.8684C12.9985 55.1224 14.0062 56.1391 15.2491 56.1391Z" fill="#CFD2D3"/>
<path d="M106.166 56.1351H25.3812C24.1377 56.1351 23.1306 55.1191 23.1306 53.8644C23.1306 52.6098 24.1377 51.5938 25.3812 51.5938H106.166C107.41 51.5938 108.417 52.6098 108.417 53.8644C108.414 55.1191 107.407 56.1351 106.166 56.1351Z" fill="white"/>
<path d="M40.1868 103.597H11.8894V75.0469H40.1868V103.597ZM13.9327 101.535H38.1435V77.1085H13.9327V101.535Z" fill="#7C3AA6"/>
<path d="M78.3799 103.597H50.0825V75.0469H78.3799V103.597ZM52.1259 101.535H76.3366V77.1085H52.1259V101.535Z" fill="#7C3AA6"/>
<path d="M116.57 103.597H88.2725V75.0469H116.57V103.597ZM90.3158 101.535H114.527V77.1085H90.3158V101.535Z" fill="#7C3AA6"/>
<path d="M40.1868 140.261H11.8894V111.711H40.1868V140.261ZM13.9327 138.199H38.1435V113.773H13.9327V138.199Z" fill="#7C3AA6"/>
<path d="M78.3799 140.261H50.0825V111.711H78.3799V140.261ZM52.1259 138.199H76.3366V113.773H52.1259V138.199Z" fill="#7C3AA6"/>
<path d="M116.57 140.261H88.2725V111.711H116.57V140.261ZM90.3158 138.199H114.527V113.773H90.3158V138.199Z" fill="#7C3AA6"/>
</g>
<g clip-path="url(#clip1)">
<path d="M215.009 57.7435L239.253 17.2801C241.744 12.9952 248.257 12.9952 250.748 17.2801L274.992 57.7435C277.395 61.8777 274.231 66.9333 269.243 66.9333H220.755C215.767 66.9333 212.606 61.8777 215.009 57.7435Z" fill="#F6C435"/>
<path d="M269.245 69H220.755C217.633 69 214.819 67.4835 213.23 64.9402C211.64 62.399 211.589 59.3371 213.095 56.7484L213.108 56.7256L237.345 16.2726C238.908 13.597 241.768 12 244.999 12C248.233 12 251.093 13.597 252.655 16.2726L276.908 56.7504C278.413 59.3371 278.361 62.4011 276.772 64.9423C275.182 67.4835 272.367 69 269.245 69ZM216.916 58.7504C216.169 60.0416 216.197 61.5705 216.991 62.837C217.786 64.1076 219.193 64.8679 220.755 64.8679H269.245C270.807 64.8679 272.214 64.1097 273.01 62.837C273.803 61.5684 273.831 60.0416 273.084 58.7504L248.834 18.2766C248.054 16.9337 246.62 16.1321 244.999 16.1321C243.38 16.1321 241.947 16.9337 241.167 18.2766L241.154 18.2994L216.916 58.7504Z" fill="#7C3AA6"/>
<path d="M245.128 52.6646C246.078 52.6646 246.843 52.9291 247.424 53.458C248.003 53.9869 248.294 54.6645 248.294 55.4909C248.294 56.3029 248.003 56.9744 247.424 57.5053C246.845 58.0342 246.078 58.2987 245.128 58.2987C244.19 58.2987 243.43 58.0342 242.851 57.5053C242.272 56.9764 241.981 56.305 241.981 55.4909C241.981 54.6769 242.272 54.0034 242.851 53.4683C243.43 52.9332 244.188 52.6646 245.128 52.6646ZM247.472 49.7453H242.783L242.119 31.1055H248.136L247.472 49.7453Z" fill="#7C3AA6"/>
</g>
<defs>
<clipPath id="clip0">
<rect width="231" height="105" fill="white" transform="translate(0 44)"/>
</clipPath>
<clipPath id="clip1">
<rect width="66" height="57" fill="white" transform="translate(212 12)"/>
</clipPath>
</defs>
</svg>
