<svg width="136" height="181" viewBox="0 0 136 181" fill="none" xmlns="http://www.w3.org/2000/svg">
<path fill-rule="evenodd" clip-rule="evenodd" d="M106.906 106.705C106.381 106.691 105.856 106.645 105.336 106.568C104.783 106.6 104.229 106.55 103.691 106.419C103.167 106.232 103.167 105.808 103.105 105.297C102.831 103.116 102.507 100.948 102.195 98.7791H101.996C101.535 101.272 101.086 103.764 100.625 106.257C100.484 106.276 100.342 106.276 100.201 106.257H99.7027H98.8428C98.5903 106.225 98.335 106.225 98.0825 106.257C97.8322 106.306 97.5775 106.331 97.3223 106.332C96.7995 106.311 96.2788 106.253 95.7644 106.157C95.4778 106.157 95.1912 106.157 94.9045 106.157C94.7014 106.138 94.497 106.138 94.2938 106.157C93.7547 106.201 93.2128 106.201 92.6737 106.157C92.0505 106.157 91.4274 106.157 90.7669 106.157C90.211 106.113 89.6527 106.113 89.0968 106.157C88.4737 106.157 87.7508 106.369 87.352 105.808C86.9692 105.433 86.5519 105.095 86.1058 104.799C85.6696 104.387 85.7443 103.951 85.8565 103.415C86.031 102.555 86.1805 101.695 86.3176 100.835C86.5918 99.0906 86.9158 97.3708 87.1776 95.626C87.7333 93.4388 88.0632 91.2004 88.1621 88.9459C88.025 85.9423 87.701 82.9637 87.377 79.9726C87.3253 79.6134 87.346 79.2475 87.4381 78.8965C87.5301 78.5454 87.6916 78.2164 87.9129 77.9287C90.8167 74.0154 93.6832 70.0772 96.5496 66.1389C98.3816 66.1389 100.214 66.1389 102.058 66.1389L114.222 66.0267C115.792 66.0267 117.375 65.9021 118.958 66.1015C119.082 66.4629 118.771 66.7621 118.783 67.111C118.783 69.5039 118.945 71.8843 118.958 74.2647C118.958 84.8664 118.958 95.4681 118.958 106.07C117.961 106.19 116.957 106.236 115.954 106.207H115.144C113.612 106.101 112.073 106.126 110.545 106.282C109.299 106.481 108.152 106.381 106.969 106.518L106.906 106.705ZM103.167 83.9981C102.756 83.213 102.457 82.5774 102.108 81.9792C100.862 79.8605 99.6902 77.692 97.4345 76.4332C97.0269 76.1989 96.5766 76.0484 96.11 75.9906C95.6434 75.9328 95.17 75.9689 94.7176 76.0967C94.1953 76.2673 93.7134 76.5431 93.3017 76.9069C92.89 77.2708 92.5571 77.7151 92.3236 78.2125C92.0901 78.7099 91.9609 79.2498 91.9439 79.799C91.927 80.3482 92.0226 80.895 92.225 81.4059C93.0046 83.6453 94.2831 85.6781 95.9639 87.3506C97.4968 89.0331 99.1543 90.6159 100.762 92.2361C101.784 93.2705 102.445 93.3328 103.541 92.4355C105.931 90.638 108.204 88.6898 110.346 86.6029C111.754 85.2466 112.892 83.6353 113.698 81.8545C114.583 79.6735 113.836 77.7917 111.667 76.4581C109.86 75.3489 108.315 75.6231 106.682 77.3804C106.33 77.7731 106.005 78.1895 105.71 78.6267C104.627 80.2942 103.776 82.1013 103.18 83.9981H103.167Z" fill="#C028B9"/>
<path fill-rule="evenodd" clip-rule="evenodd" d="M11.2152 121.527C11.2152 120.093 11.2152 118.66 11.2152 117.227C11.2346 117.204 11.2452 117.176 11.2452 117.146C11.2452 117.116 11.2346 117.088 11.2152 117.065C11.2152 116.267 11.2152 115.47 11.2152 114.672C11.2336 114.652 11.2438 114.625 11.2438 114.597C11.2438 114.57 11.2336 114.543 11.2152 114.523V112.977C11.2308 112.953 11.2391 112.925 11.2391 112.896C11.2391 112.867 11.2308 112.839 11.2152 112.815C11.2152 112.441 11.2152 112.067 11.2152 111.694C11.2152 111.694 11.2152 111.606 11.2152 111.556V109.575C11.2336 109.554 11.2438 109.528 11.2438 109.5C11.2438 109.472 11.2336 109.446 11.2152 109.425V107.182C11.2294 107.164 11.2371 107.142 11.2371 107.12C11.2371 107.097 11.2294 107.075 11.2152 107.057V94.4823C11.2259 94.473 11.2344 94.4615 11.2402 94.4486C11.246 94.4357 11.249 94.4217 11.249 94.4076C11.249 94.3934 11.246 94.3794 11.2402 94.3665C11.2344 94.3536 11.2259 94.3421 11.2152 94.3328L11.29 93.2734H15.5398L16.1755 94.3452C16.2809 94.8262 16.4846 95.2802 16.7737 95.6788C16.7755 95.7848 16.8011 95.8892 16.8486 95.984C16.896 96.0789 16.9641 96.162 17.0478 96.2271C17.0478 96.3891 17.0478 96.5886 17.2223 96.6758C17.9271 98.2857 18.7607 99.8361 19.7149 101.312C19.7668 101.598 19.9276 101.853 20.1636 102.022C20.2633 102.172 20.3505 102.334 20.4377 102.483C20.4962 102.727 20.6371 102.943 20.8365 103.094L20.9986 103.381V103.318L21.5345 104.091C22.7807 106.434 24.8246 108.254 26.395 110.41C26.2579 111.656 25.1487 178.955 25.1487 178.955L7.9126 180.002V175.565L11.3399 170.132V167.004C11.3399 167.004 11.2152 126.312 11.2152 125.714C11.2152 125.452 11.2152 125.203 11.2152 124.941V122.137C11.2152 121.913 11.2152 121.726 11.2152 121.527Z" fill="#4858CC"/>
<path fill-rule="evenodd" clip-rule="evenodd" d="M115.268 106.369H115.492C116.691 106.43 117.893 106.376 119.082 106.207C119.082 108.949 119.082 114.445 119.082 114.445C119.082 114.445 119.293 119.667 119.082 122.247C118.957 123.63 119.194 164.159 119.194 164.159L126.933 171.924L125.687 177.756H107.005L104.288 116.389L103.354 106.419H107.005C107.005 106.419 114.258 106.357 115.268 106.369Z" fill="#7C3AA6"/>
<path fill-rule="evenodd" clip-rule="evenodd" d="M41.1269 121.002C41.239 122.66 48.1559 167.252 48.1559 167.252L55.1351 171.439L58.1636 178.917H40.4414C40.4414 178.917 29.9103 127.358 29.8356 126.885C29.2623 123.483 28.7014 120.08 28.2279 116.665C27.9786 114.883 27.2308 113.188 27.3181 111.344L29.4118 113.213L29.7982 113.512H29.7234L30.2219 113.936C31.2592 114.956 32.409 115.855 33.6492 116.616L34.8955 117.525C36.8895 118.884 39.083 119.818 41.1269 121.002Z" fill="#4858CC"/>
<path fill-rule="evenodd" clip-rule="evenodd" d="M98.8927 106.395H97.9704C97.6346 106.426 97.2967 106.426 96.9609 106.395C96.5497 106.308 96.6494 106.121 96.8488 105.859C97.0482 105.597 97.3348 105.124 97.5716 104.762C97.9853 104.166 98.2852 103.498 98.4565 102.793C98.5248 102.57 98.5248 102.331 98.4565 102.108C98.3925 102.017 98.3061 101.943 98.2057 101.895C98.1053 101.847 97.9942 101.826 97.8832 101.833C97.6646 101.856 97.4537 101.926 97.2661 102.041C97.0785 102.155 96.9188 102.31 96.7989 102.494C95.9888 103.74 95.1414 104.987 94.3064 106.308H96.4001C95.8621 107.369 95.0737 108.283 94.103 108.972C93.1324 109.66 92.0088 110.102 90.8292 110.258C88.8483 110.512 86.8559 110.665 84.8595 110.719L83.8874 118.048C83.5759 120.353 82.8156 167.313 82.8156 167.313L76.0732 173.619L77.0453 177.757H93.7829C93.8951 177.096 94.2191 175.352 93.7829 177.757H96.5372C96.5372 177.757 97.3473 124.291 97.7835 122.285C98.7805 116.976 99.8274 111.679 100.637 106.345L98.8927 106.395Z" fill="#7C3AA6"/>
<path fill-rule="evenodd" clip-rule="evenodd" d="M35.2451 69.1559C35.1703 69.1559 35.1329 69.0312 35.1329 69.0312L31.9175 69.1559C31.9175 69.1559 32.9394 71.7606 33.0267 72.0846C34.1608 76.4466 34.9833 80.8834 35.7685 85.3326C36.2421 87.9623 36.8154 90.5795 37.0148 93.259C37.3263 93.6827 37.2017 94.2311 37.426 94.6922C41.0851 97.7539 45.3055 100.074 49.8515 101.522C51.2557 102.008 52.7184 102.306 54.201 102.407C55.1039 101.193 56.1043 100.055 57.1921 99.0043L35.2451 69.1559Z" fill="#CDCDCD"/>
<path fill-rule="evenodd" clip-rule="evenodd" d="M39.6322 101.625C37.8001 99.2194 35.8933 96.9013 33.999 94.5333C33.7279 94.1338 33.4823 93.7176 33.2637 93.2871C30.6299 89.9636 28.0044 86.6402 25.3872 83.3168C22.8946 80.1014 16.9623 72.5365 16.551 71.9632C16.4513 71.851 14.7688 69.184 14.6691 69.0469C14.1083 69.0469 12.9368 69.1217 11.3291 69.0469V69.1216C11.3291 71.2902 11.3291 73.4462 11.3291 75.6148C11.6202 76.8812 11.75 78.1793 11.7154 79.4783C12.1797 82.8969 12.994 86.2587 14.1457 89.5108C14.8561 91.5672 15.8282 93.474 16.551 95.5179C16.9635 96.4468 17.4468 97.3426 17.9967 98.1974C18.8691 99.8674 19.754 101.55 20.7635 103.183C22.421 105.762 24.5895 107.956 26.4091 110.461L27.3314 111.408C28.2785 112.38 29.5498 113.19 30.5468 114.187C31.441 115.179 32.4888 116.021 33.65 116.68L46.6861 113.926L48.7425 113.415C47.4962 111.807 46.1129 110.187 44.8915 108.517C43.1841 106.186 41.3894 103.918 39.6322 101.625Z" fill="#CDCDCD"/>
<path fill-rule="evenodd" clip-rule="evenodd" d="M11.3287 69.1077C9.03555 69.0329 6.74239 69.0204 4.43677 69.1077C3.19048 69.1077 1.83204 69.1077 0.523439 69.1077C-0.224331 69.1077 0.0498513 68.5219 0.0498513 68.173C0 63.9605 0 59.8229 0 55.6104C0 45.9559 0 36.3055 0 26.6593C0 25.2635 0 25.2635 1.38337 25.2635C8.52457 25.2635 15.6907 25.0142 22.8194 25.3756C24.8435 25.5376 26.8772 25.5376 28.9013 25.3756C30.6391 25.2531 32.3823 25.224 34.1232 25.2884C36.4039 25.2884 38.6721 25.2884 40.9528 25.2884C41.6383 25.2884 42.1119 25.3632 42.1119 26.2356C42.1119 30.6972 42.1119 35.1465 42.1119 39.5957L38.7718 33.0029C38.536 32.4454 38.163 31.9567 37.6876 31.5821C37.4482 31.3956 37.1491 31.3028 36.8462 31.3212C36.5433 31.3396 36.2576 31.4678 36.0425 31.6818C35.9276 31.7615 35.8307 31.8644 35.7582 31.9839C35.6857 32.1034 35.6391 32.2368 35.6214 32.3755C35.6038 32.5142 35.6156 32.655 35.6559 32.7888C35.6962 32.9227 35.7642 33.0466 35.8555 33.1524L36.3291 33.975C36.865 34.9471 37.3386 35.9566 37.8745 36.9287C38.0116 37.1655 38.1362 37.4272 38.2733 37.6764C38.4104 37.9257 38.4852 38.0129 38.6098 38.1874C38.7345 38.3619 38.9089 38.5738 38.8342 38.7482C38.6971 38.7482 38.6223 38.5862 38.5351 38.4865C38.3722 38.3138 38.2261 38.126 38.0989 37.9257C37.9867 37.7387 37.9119 37.5518 37.8122 37.3524L37.3885 36.5672C36.8152 35.5577 36.2668 34.5358 35.6811 33.5388C35.4443 33.1275 35.195 32.6664 34.5469 32.8658C34.2742 32.9445 34.0333 33.1074 33.8587 33.3312C33.6841 33.555 33.5848 33.8284 33.5749 34.1121C33.521 34.8301 33.7097 35.5455 34.1108 36.1435C34.684 37.0782 35.2449 38.0254 35.8431 38.9476C36.0176 39.2218 36.2419 39.4586 36.4164 39.7328C36.5909 40.007 36.6407 40.0693 36.7404 40.2562C36.8401 40.4432 36.9398 40.5678 36.89 40.6924C36.8401 40.8171 36.6532 40.5304 36.541 40.4058C36.3318 40.2029 36.1515 39.9723 36.0051 39.7203C35.3695 38.6735 34.6965 37.639 33.9986 36.6171C33.8366 36.3803 33.7369 35.9441 33.3131 36.131C33.1274 36.2036 32.9738 36.3403 32.8801 36.5163C32.7863 36.6923 32.7587 36.8961 32.8022 37.0907C32.8724 37.3981 32.9813 37.6954 33.1262 37.9755C34.3725 40.7423 35.9552 43.347 37.4757 45.9767C37.759 46.4639 37.9453 47.0014 38.0241 47.5594C38.9026 53.9985 40.2226 60.3695 41.9748 66.6276L42.1617 67.3629C42.1617 69.0827 42.1617 69.0578 40.3796 69.0827C38.6675 69.0163 36.953 69.0496 35.2449 69.1824C35.229 69.1825 35.2133 69.1793 35.1989 69.1729C35.1844 69.1665 35.1714 69.1571 35.1608 69.1453C35.1502 69.1335 35.1422 69.1197 35.1374 69.1046C35.1325 69.0895 35.1309 69.0736 35.1327 69.0578C31.9671 64.808 29.7114 59.8229 24.9256 56.8193C26.2735 56.2236 27.4175 55.2466 28.217 54.0087C29.0164 52.7709 29.4362 51.3261 29.4247 49.8526C29.4247 49.2918 29.674 49.1422 30.1974 49.1547C31.5434 49.1547 32.8894 49.1547 34.2354 49.1547C34.8087 49.1547 34.9084 48.9927 34.709 48.4817C33.1481 43.9675 30.7602 39.7835 27.6675 36.1435C24.7138 32.8907 21.1619 31.6195 16.8497 32.9032C16.3014 33.0652 15.753 33.2771 15.1922 33.4765C14.8557 29.5133 12.4379 27.245 8.96077 27.3572C7.47738 27.4433 6.0834 28.0947 5.06568 29.1773C4.04796 30.2599 3.48391 31.6915 3.48959 33.1773C3.48959 36.7666 5.98216 38.7856 10.5435 38.985C9.75515 41.2977 9.39203 43.734 9.47175 46.1761C9.47175 46.687 9.13525 46.5873 8.83614 46.6497C8.44782 46.6736 8.06966 46.7835 7.72893 46.9713C7.38819 47.1591 7.09337 47.4201 6.86572 47.7356C6.63807 48.0511 6.48326 48.4132 6.41246 48.7958C6.34166 49.1783 6.35663 49.5718 6.45629 49.9479C6.55595 50.324 6.73782 50.6733 6.98879 50.9706C7.23975 51.2679 7.55355 51.5058 7.90757 51.6671C8.26159 51.8285 8.647 51.9093 9.03602 51.9037C9.42504 51.8981 9.80797 51.8063 10.1572 51.6348C10.5685 51.4977 10.743 51.4852 10.9673 51.909C11.978 54.0184 13.6738 55.7229 15.7779 56.7445L14.8806 57.4175C13.9032 58.0994 13.0813 58.9806 12.4691 60.0031C11.8569 61.0257 11.4682 62.1663 11.3287 63.3498C11.1792 65.2068 11.3287 67.0887 11.3287 68.9706V69.1077Z" fill="#7C3AA6"/>
<path fill-rule="evenodd" clip-rule="evenodd" d="M82.4291 3.61328C89.9932 6.30926 96.8548 10.6707 102.507 16.3752C107.904 21.8303 112.106 28.3497 114.845 35.5181L115.219 36.3905C116.207 39.4074 117.039 42.4731 117.711 45.5756C118.16 48.4047 118.509 51.2337 118.845 54.0753C119.244 57.4153 118.845 60.7678 118.983 64.0455C118.384 63.547 118.621 62.7992 118.696 62.2758C118.733 61.5901 118.629 60.904 118.388 60.2606C118.148 59.6172 117.778 59.0304 117.3 58.5369C116.054 56.9292 114.708 55.658 112.564 55.5708C112.464 55.5708 112.377 55.4836 112.29 55.4212C113.075 55.172 113.773 55.6705 114.521 55.6954H114.77C114.746 55.6186 114.717 55.5437 114.683 55.4711C113.437 53.9756 112.19 52.4676 110.944 51.0094C109.735 49.4266 108.401 47.943 106.956 46.5726C106.956 46.0243 106.445 45.8373 106.108 45.5382C105.485 44.778 104.862 44.0427 104.239 43.2575C102.432 40.8522 100.425 38.6338 98.4438 36.3656L96.7364 34.3965L85.6819 21.2731L73.9419 7.3272L82.4291 3.61328Z" fill="#CDCDCD"/>
<path fill-rule="evenodd" clip-rule="evenodd" d="M30.172 25.2372C28.7854 25.6356 27.3523 25.8493 25.9098 25.8728C25.4611 25.8728 24.9875 25.3245 24.6635 25.7108C24.3394 26.0972 24.5638 26.658 24.5388 27.1565C24.5677 28.1029 24.5093 29.0499 24.3644 29.9856C24.1525 30.7832 23.8908 31.5933 22.9436 31.5559C21.9964 31.5185 21.6973 30.7084 21.5727 29.9108C21.5727 29.7737 21.5727 29.6241 21.5727 29.487C21.4228 27.9375 21.4731 26.3751 21.7222 24.8384C22.0837 23.2556 23.6415 22.4455 24.3644 21.0996C23.7365 21.5968 23.1565 22.1518 22.632 22.7571C22.1586 23.172 21.78 23.6839 21.522 24.2581C21.2639 24.8322 21.1324 25.4552 21.1365 26.0847C21.2362 27.2437 21.1365 28.4152 21.1365 29.5743C21.0368 30.0977 20.7377 30.4342 20.2018 30.3594C19.9549 30.3289 19.7261 30.2144 19.5536 30.0351C19.3812 29.8558 19.2756 29.6227 19.2546 29.3749C19.2111 29.0275 19.1861 28.678 19.1798 28.328C18.9328 27.2534 18.9265 26.1375 19.1614 25.0602C19.3962 23.9829 19.8664 22.9709 20.5383 22.0966L22.5573 20.2022C21.6866 20.5594 20.9347 21.1556 20.3887 21.9221C19.9511 22.3297 19.6067 22.8271 19.3792 23.3803C18.9492 24.4924 18.701 25.6664 18.6439 26.8574C18.6439 27.5179 18.6439 28.6271 17.9211 28.9761C16.9988 29.4372 16.1389 28.3903 16.0766 27.5678C15.9013 25.258 16.4455 22.9506 17.6344 20.9625C18.8906 18.4919 20.6578 16.3168 22.819 14.5815C26.159 12.2634 29.2498 9.59638 32.7892 7.56493C39.7099 3.7223 47.3447 1.33857 55.2223 0.560827C58.3256 0.17448 61.5036 0.17448 64.6816 0C65.7391 0.00255269 66.7958 0.0607932 67.8472 0.17448C67.9469 0.361422 68.0216 0.585753 68.2958 0.348959C68.059 0.697918 68.3706 0.859935 68.5326 1.04688C70.2774 3.15309 72.0347 5.23439 73.7919 7.27829C71.5735 8.36256 69.2181 9.13525 66.9623 10.1323C59.1855 13.5845 51.3215 16.7625 43.4699 19.9405C39.0456 21.7352 34.6088 23.48 30.172 25.2372Z" fill="#FEAA61"/>
<path fill-rule="evenodd" clip-rule="evenodd" d="M118.971 64.1081C118.834 60.7681 119.233 57.4156 118.834 54.1379C118.497 51.2963 118.148 48.4673 117.7 45.6382C117.027 42.5357 116.195 39.47 115.207 36.4531C122.573 40.0549 128.916 44.8531 133.502 51.7949C134.822 53.7483 135.628 56.0029 135.845 58.3503C136.018 59.7657 135.9 61.2015 135.499 62.5697C135.097 63.938 134.421 65.2099 133.511 66.3077C132.601 67.4055 131.476 68.3061 130.206 68.9543C128.936 69.6026 127.547 69.9849 126.124 70.0778C125.638 70.0778 125.14 70.1526 124.641 70.19H122.697C122.697 70.028 122.622 69.8535 122.61 69.679C122.535 68.5698 123.096 67.0743 122.373 66.4636C121.65 65.8529 120.155 66.2767 118.996 66.3141C119.021 65.5289 118.996 64.806 118.971 64.1081Z" fill="black"/>
<path fill-rule="evenodd" clip-rule="evenodd" d="M119.057 66.2519C120.216 66.2519 121.674 65.7659 122.434 66.4015C123.194 67.0371 122.596 68.5077 122.671 69.6169C122.671 69.7914 122.671 69.9658 122.758 70.1279C122.613 71.1431 122.579 72.1712 122.658 73.1937C122.658 83.8245 122.658 94.4428 122.658 105.061C122.658 106.195 122.272 106.482 121.262 106.307C120.52 106.345 119.775 106.295 119.044 106.158C119.044 95.5562 119.044 84.9545 119.044 74.3528C119.044 71.9724 118.932 69.592 118.87 67.1991C118.87 66.9124 119.181 66.6133 119.057 66.2519Z" fill="#7C3AA6"/>
<path fill-rule="evenodd" clip-rule="evenodd" d="M11.3159 75.6016C11.607 76.868 11.7368 78.1661 11.7023 79.465C12.1665 82.8837 12.9809 86.2455 14.1325 89.4976C14.5687 90.7439 15.0922 91.9902 15.5782 93.2365H11.3284C11.3284 87.3706 11.3242 81.4923 11.3159 75.6016Z" fill="#76777A"/>
<path fill-rule="evenodd" clip-rule="evenodd" d="M11.2168 94.332C11.2274 94.3414 11.2359 94.3529 11.2417 94.3658C11.2475 94.3787 11.2506 94.3927 11.2506 94.4068C11.2506 94.421 11.2475 94.4349 11.2417 94.4478C11.2359 94.4607 11.2274 94.4722 11.2168 94.4816V94.4068V94.332Z" fill="#B95743"/>
<path fill-rule="evenodd" clip-rule="evenodd" d="M11.2168 107.094C11.2234 107.107 11.2268 107.122 11.2268 107.137C11.2268 107.152 11.2234 107.167 11.2168 107.18V107.094Z" fill="#B95743"/>
<path fill-rule="evenodd" clip-rule="evenodd" d="M94.2942 106.323H96.4129C95.8654 107.39 95.0666 108.309 94.0853 108.999C93.1039 109.69 91.9695 110.131 90.7797 110.286C88.7731 110.498 86.7542 110.747 84.7352 110.76C83.626 110.76 82.5168 110.909 81.4076 110.922C80.8094 110.922 80.5228 111.32 80.1613 111.669C75.5764 116.676 69.7834 120.422 63.3365 122.549C61.1892 123.231 58.967 123.65 56.7188 123.796C55.2232 121.777 53.7402 119.745 52.0452 117.876C51.098 116.281 49.7022 114.935 48.6055 113.414C48.9544 113.414 49.3158 113.327 49.6648 113.252L81.1833 106.759C81.4453 106.736 81.695 106.638 81.9027 106.476C82.1104 106.315 82.2674 106.097 82.3548 105.849C83.2152 104.857 84.4152 104.221 85.7198 104.067C87.1037 103.793 88.4657 103.418 89.7951 102.945C90.0558 102.837 90.3353 102.781 90.6176 102.781C90.9 102.781 91.1795 102.837 91.4402 102.945C92.0135 104.129 90.8918 104.428 90.3185 105.027L87.826 106.273L87.9132 106.435L89.7328 106.298C90.0938 106.379 90.4685 106.379 90.8295 106.298H91.2906C92.1193 106.383 92.9545 106.383 93.7832 106.298L94.2942 106.323Z" fill="#FEAA61"/>
<path fill-rule="evenodd" clip-rule="evenodd" d="M85.8941 104C84.6026 104.153 83.4152 104.784 82.5665 105.77C82.5665 105.496 82.5665 105.209 82.5665 104.935C82.5665 98.6286 82.5665 92.3307 82.5665 86.0412C82.5665 84.4708 82.5665 82.9005 82.5665 81.3302C82.4045 80.1836 82.8781 79.0121 82.417 77.8905C82.6138 77.6261 82.7467 77.3197 82.805 76.9953C82.8634 76.6709 82.8458 76.3374 82.7535 76.021C83.601 75.0365 84.4609 74.0519 85.2461 73.0549C85.8112 72.4252 86.2586 71.6991 86.5671 70.9113C86.7291 70.4003 86.8164 69.827 86.3179 69.4531C85.8193 69.0792 85.3956 69.5404 85.0716 69.827C84.2864 70.4502 83.5262 71.0733 82.7286 71.7712C82.4419 71.2478 82.8532 70.6869 82.417 70.3131C82.4918 69.0668 82.5541 67.8205 82.6164 66.5742C82.6164 66.1006 82.9903 66.1505 83.3019 66.138L86.1808 66.0508C86.7291 66.0508 87.3024 66.1256 87.8632 66.138H89.5582H91.2781C91.6932 66.1149 92.1092 66.1149 92.5243 66.138H92.5991C92.5991 66.138 92.7237 66.138 92.7861 66.138C92.8436 66.1259 92.903 66.1259 92.9605 66.138H93.0353H94.8424H94.9795H96.3504C96.3504 66.138 96.5 66.138 96.4875 66.2253C96.4751 66.3125 96.3629 66.4247 96.3006 66.4994C96.2383 66.5742 96.0139 66.8983 95.8768 67.0852L95.0045 68.3315C94.7303 68.7303 94.4312 69.1166 94.1445 69.503L93.2846 70.7493C93.0104 71.1356 92.7113 71.5344 92.4246 71.9208L91.5647 73.1671L90.7048 74.3386L89.8448 75.5101L88.9849 76.6816C88.6983 77.0804 88.3991 77.4667 88.1125 77.8531C88.0502 77.9528 87.9754 78.04 87.9006 78.1397C87.6793 78.4273 87.5179 78.7564 87.4258 79.1074C87.3338 79.4585 87.313 79.8244 87.3647 80.1836C87.6888 83.1747 88.0128 86.1533 88.1499 89.1569C88.0696 91.3795 87.7648 93.5884 87.2401 95.7497C86.8662 98.4541 86.3552 101.246 85.8941 104Z" fill="#7C3AA6"/>
<path fill-rule="evenodd" clip-rule="evenodd" d="M103.18 83.9976C103.764 82.1027 104.603 80.2957 105.673 78.6261C105.968 78.189 106.293 77.7726 106.645 77.3799C108.29 75.6226 109.835 75.3484 111.63 76.4576C113.798 77.7911 114.546 79.673 113.661 81.854C112.854 83.6347 111.717 85.2461 110.309 86.6023C108.167 88.6893 105.894 90.6374 103.504 92.4349C102.407 93.3323 101.747 93.27 100.725 92.2355C99.1171 90.6154 97.4595 89.0326 95.9266 87.3501C94.2458 85.6775 92.9673 83.6447 92.1878 81.4053C91.9854 80.8945 91.8897 80.3476 91.9067 79.7984C91.9237 79.2492 92.0529 78.7093 92.2864 78.212C92.5199 77.7146 92.8528 77.2703 93.2645 76.9064C93.6762 76.5425 94.158 76.2668 94.6803 76.0962C95.1402 75.9614 95.6227 75.9217 96.0984 75.9795C96.574 76.0374 97.033 76.1916 97.4471 76.4327C99.7029 77.679 100.887 79.86 102.121 81.9786C102.47 82.5768 102.769 83.2125 103.18 83.9976Z" fill="#EBEBEB"/>
<path fill-rule="evenodd" clip-rule="evenodd" d="M93.845 106.308C93.845 106.308 93.3714 106.308 93.3091 106.308H92.2248C92.0564 106.272 91.8824 106.272 91.7139 106.308C91.7139 106.083 91.8634 105.809 91.9631 105.61C92.1573 105.176 92.3866 104.76 92.6486 104.363C92.7483 104.201 92.8355 104.027 92.9228 103.865C93.01 103.703 93.0599 103.678 93.1222 103.591C93.1607 103.51 93.194 103.427 93.2219 103.341C93.3428 103.114 93.476 102.894 93.6207 102.681C93.8699 102.245 94.1192 101.809 94.4183 101.435C94.7484 100.848 95.2306 100.362 95.8141 100.026C96.1382 99.8768 96.8112 99.8021 97.0604 100.201C97.0793 100.333 97.0793 100.467 97.0604 100.6C97.0853 100.773 97.0853 100.95 97.0604 101.123C96.8559 101.846 96.4796 102.509 95.9637 103.055C95.5026 103.753 95.0414 104.438 94.5928 105.136L93.845 106.308Z" fill="#7C3AA6"/>
<path fill-rule="evenodd" clip-rule="evenodd" d="M103.355 106.406L100.625 106.294C101.087 103.802 101.535 101.309 101.996 98.8164H102.196C102.507 100.985 102.831 103.153 103.106 105.334C103.153 105.699 103.236 106.058 103.355 106.406Z" fill="#7C3AA6"/>
<path fill-rule="evenodd" clip-rule="evenodd" d="M90.8904 106.372H90.6785H90.2299C90.1426 106.372 89.9308 106.372 89.8685 106.372C89.8061 106.372 89.9557 106.061 90.0056 105.961L90.4417 105.026C91.0026 104.441 92.1118 104.141 91.5385 102.957C91.7733 102.373 92.1063 101.834 92.523 101.362C92.8346 101.063 93.6572 100.789 93.8566 101.362C93.9687 101.736 93.383 102.459 93.221 102.783C93.0589 103.107 92.872 103.431 92.6851 103.755C92.3952 104.266 92.1371 104.795 91.9124 105.338C91.8526 105.525 91.7818 105.708 91.7005 105.886C91.6486 106.054 91.5731 106.213 91.4762 106.36C91.3515 106.422 91.1023 106.397 90.8904 106.372Z" fill="#7C3AA6"/>
<path fill-rule="evenodd" clip-rule="evenodd" d="M96.6622 66.2632L93.9702 66.176C94.8675 65.0668 95.7524 63.9451 96.6373 62.8359C98.0082 63.7831 97.4598 64.9422 97.0111 66.1012L96.6497 66.2632H96.6622Z" fill="#EBEBEB"/>
<path fill-rule="evenodd" clip-rule="evenodd" d="M119.095 64.1221C119.108 63.898 119.108 63.6733 119.095 63.4491C119.089 63.3537 119.089 63.2579 119.095 63.1625C119.101 63.1128 119.101 63.0626 119.095 63.0129C119.095 62.9132 119.095 62.8011 119.095 62.7014V62.5144C119.108 62.361 119.108 62.2067 119.095 62.0533V61.8664C119.037 61.403 118.929 60.9474 118.771 60.5079C118.608 60.08 118.417 59.6637 118.198 59.2616C117.978 58.8265 117.724 58.4097 117.438 58.0153C117.163 57.6389 116.85 57.2922 116.503 56.9809C116.158 56.6515 115.782 56.3552 115.381 56.0961C114.452 55.6679 113.465 55.3782 112.452 55.2361C111.021 54.9328 109.565 54.7535 108.103 54.7002C106.445 54.5569 104.781 54.5153 103.118 54.5756C103.022 54.5823 102.927 54.5823 102.831 54.5756H102.744C102.698 54.5812 102.652 54.5812 102.607 54.5756H102.395C102.295 54.5756 102.183 54.5756 102.071 54.5756H101.921H101.772C101.592 54.5269 101.403 54.5269 101.223 54.5756C100.814 54.6727 100.397 54.7311 99.9772 54.7501H99.3416C99.1384 54.7314 98.934 54.7314 98.7309 54.7501L93.1351 55.9964C91.5523 56.6818 89.9321 57.2426 88.3992 58.0777C83.5636 60.5702 79.4011 63.9601 75.1512 67.2628C70.1661 71.1138 65.4053 75.1268 60.6694 79.2395C60.6756 79.2809 60.6756 79.3228 60.6694 79.3642C62.1899 82.6419 63.7228 85.9071 65.2558 89.1849L65.4178 89.4217C66.5519 88.8234 67.1252 87.6893 67.9103 86.792C69.5056 85.0597 71.026 83.265 72.5714 81.5078L82.0432 70.7025C82.1947 70.5073 82.3282 70.2987 82.442 70.0794C82.5168 68.8331 82.5791 67.5868 82.6414 66.3405C82.6414 65.8669 83.0153 65.9168 83.3268 65.9043H84.6479H85.9814H86.1684H86.3179H86.6794H86.9535C87.0695 65.9167 87.1865 65.9167 87.3025 65.9043C87.8384 65.9043 88.3743 65.9043 88.9102 65.9043H90.5179C90.8045 65.9043 91.0787 65.9043 91.3529 65.9043H91.814H92.2253H92.8609H93.347C93.7582 65.9043 94.157 65.9043 94.5932 65.9043C94.838 65.8857 95.0838 65.8857 95.3285 65.9043H95.528C95.6109 65.9102 95.6942 65.9102 95.7772 65.9043H96.0015C96.1425 65.9163 96.2843 65.9163 96.4253 65.9043H96.7119C96.7336 65.8951 96.7569 65.8903 96.7805 65.8903C96.804 65.8903 96.8273 65.8951 96.849 65.9043C96.849 65.9043 96.9487 65.9791 97.011 65.9791C97.0815 65.9857 97.1524 65.9857 97.2229 65.9791H102.196L114.359 65.8669C115.93 65.8669 117.512 65.7423 119.095 65.8669C118.958 65.8669 119.02 65.4307 119.095 65.3559C119.095 65.0568 119.195 64.7702 119.195 64.4836V63.7482L119.095 64.1221Z" fill="#CDCDCD"/>
<path fill-rule="evenodd" clip-rule="evenodd" d="M20.1777 101.957C20.2626 102 20.3336 102.066 20.3821 102.148C20.4307 102.229 20.4549 102.323 20.4519 102.418C20.3647 102.269 20.2774 102.107 20.1777 101.957Z" fill="#EBEBEB"/>
<path fill-rule="evenodd" clip-rule="evenodd" d="M33.6499 116.613L46.686 113.859L48.7424 113.41C49.4547 114.15 50.101 114.951 50.6741 115.803C51.3845 116.688 52.0949 117.56 52.7679 118.458C54.0889 120.252 55.4266 122.034 56.7809 123.804C51.4162 124.117 46.0533 123.161 41.1276 121.012C39.0588 119.766 36.8653 118.881 34.8962 117.523L33.6499 116.613Z" fill="#76777A"/>
<path fill-rule="evenodd" clip-rule="evenodd" d="M29.4116 113.211L29.798 113.51L29.4116 113.211Z" fill="#EBEBEB"/>
<path fill-rule="evenodd" clip-rule="evenodd" d="M11.3284 69.0315C11.3284 67.1621 11.1789 65.2926 11.3284 63.4108C11.4679 62.2272 11.8566 61.0866 12.4688 60.0641C13.081 59.0415 13.9029 58.1603 14.8803 57.4785L15.7777 56.8055C13.6735 55.7839 11.9777 54.0793 10.967 51.9699C10.7427 51.5462 10.5682 51.5586 10.1569 51.6957C9.80768 51.8672 9.42475 51.959 9.03574 51.9646C8.64672 51.9702 8.2613 51.8894 7.90729 51.7281C7.55327 51.5667 7.23946 51.3288 6.9885 51.0315C6.73754 50.7342 6.55567 50.3849 6.45601 50.0088C6.35635 49.6328 6.34138 49.2393 6.41218 48.8567C6.48298 48.4741 6.63778 48.112 6.86543 47.7965C7.09308 47.481 7.38791 47.22 7.72864 47.0322C8.06938 46.8444 8.44754 46.7346 8.83586 46.7106C9.13497 46.7106 9.48392 46.7106 9.47146 46.237C9.39174 43.7949 9.75487 41.3586 10.5433 39.0459C5.93202 38.8465 3.51423 36.8276 3.48931 33.2383C3.48325 31.7564 4.04386 30.3284 5.05634 29.2464C6.06882 28.1644 7.4566 27.5103 8.93556 27.4181C12.4376 27.2561 14.8554 29.5742 15.167 33.5374C15.7278 33.338 16.2762 33.1261 16.8245 32.9641C21.1367 31.7178 24.6886 32.9641 27.6423 36.2044C30.7403 39.8593 33.1284 44.0607 34.6838 48.5925C34.8832 49.1034 34.7835 49.2779 34.2102 49.2655C32.8642 49.2655 31.5182 49.2655 30.1722 49.2655C29.6488 49.2655 29.4369 49.4025 29.3995 49.9634C29.3914 51.4151 28.9651 52.8337 28.1716 54.0494C27.3781 55.265 26.251 56.2262 24.9254 56.8179C29.7111 59.7841 31.9669 64.7817 35.1324 69.0315C34.3223 69.2808 12.4625 69.0938 11.3284 69.0315ZM27.044 39.2703C25.7025 39.523 24.3849 39.8899 23.1058 40.367C22.4203 40.5913 22.1212 40.4542 21.8595 39.8186C21.0619 38.1112 20.1895 36.4412 19.2548 34.5593C18.6316 36.8525 18.0085 38.9088 17.5474 40.9901C17.5178 41.3409 17.3675 41.6705 17.122 41.9228C16.8766 42.1751 16.5512 42.3344 16.2014 42.3735C14.5563 42.7599 12.9361 43.3082 11.1166 43.8566L15.005 45.2774C16.5254 45.8257 16.5005 45.8133 15.9771 47.3213C15.4783 48.7838 15.1683 50.3041 15.0548 51.8453C16.488 50.3373 17.7592 49.091 18.9183 47.745C19.1158 47.4579 19.4161 47.2577 19.7571 47.1858C20.0981 47.1139 20.4537 47.1758 20.7503 47.3586C22.5824 48.094 24.4892 48.7296 26.3212 49.4025H26.5705L26.4957 49.1658C25.6233 47.396 24.7758 45.6263 23.8536 43.8815C23.6907 43.6635 23.6192 43.3907 23.6541 43.1208C23.689 42.8509 23.8276 42.6052 24.0405 42.4358C25.1414 41.4701 26.1433 40.3972 27.0316 39.2329H27.1064L27.044 39.2703Z" fill="#D73EAF"/>
<path fill-rule="evenodd" clip-rule="evenodd" d="M32.2672 69.131C32.2672 69.131 33.0149 71.9476 33.177 72.658C33.4387 73.9043 33.7503 75.0259 34.012 76.2099C34.6725 79.2384 35.2583 82.2793 35.7692 85.3327C36.2428 87.9624 36.8161 90.5796 37.0155 93.2591H33.2767C30.6429 89.9356 28.0174 86.6122 25.4002 83.2888L17.8103 73.6426C16.6886 72.2093 15.3177 70.0657 14.6821 69.0189C16.3148 68.9192 32.2672 69.131 32.2672 69.131Z" fill="#76777A"/>
<path fill-rule="evenodd" clip-rule="evenodd" d="M37.3891 94.7184C37.3891 95.1048 37.3891 95.5036 37.4639 95.8151C37.5636 96.4258 37.6633 97.0614 37.7256 97.6596C37.7256 98.0086 38.2989 99.6537 37.4763 98.9059C36.9839 98.3803 36.5378 97.8132 36.1428 97.211C35.4324 96.3386 34.7345 95.4537 34.0366 94.5813C33.8084 94.1949 33.5545 93.8243 33.2764 93.4721C33.563 93.0609 34.2859 93.2229 34.7594 93.2229C35.233 93.2229 35.6443 93.2229 36.093 93.2229C36.5416 93.2229 36.8407 93.1107 37.0401 93.4223C37.2574 93.8206 37.377 94.2648 37.3891 94.7184Z" fill="#4858CC"/>
<path fill-rule="evenodd" clip-rule="evenodd" d="M57.1427 99.0039L59.8222 102.606C57.9469 102.864 56.0412 102.796 54.189 102.406C55.08 101.194 56.0678 100.056 57.1427 99.0039Z" fill="#76777A"/>
<path fill-rule="evenodd" clip-rule="evenodd" d="M21.1113 103.017L21.1357 102.98L21.0991 103.017H21.1113Z" fill="#EBEBEB"/>
<path fill-rule="evenodd" clip-rule="evenodd" d="M42.1994 40.0547C43.832 43.0707 45.1531 46.2861 46.5863 49.352C51.0895 59.073 55.5762 68.794 60.0462 78.515C60.1957 78.8266 60.3827 79.1381 60.5447 79.4497C60.5508 79.491 60.5508 79.533 60.5447 79.5743C57.9161 82.1633 55.4204 84.8836 53.067 87.725C50.68 85.5402 48.7412 82.9115 47.359 79.9856C45.3707 76.2327 43.7713 72.2864 42.5857 68.2082C42.4985 67.9091 42.3365 67.6225 42.2243 67.3358L42.0374 66.6005C42.3614 66.1893 42.2119 65.7157 42.1869 65.267C42.1869 63.8213 42.0374 62.3632 42.0125 60.905C42.0125 59.1727 42.0125 57.4403 42.0125 55.708C41.8939 54.4021 41.9823 53.0856 42.2742 51.8072C42.9222 52.0439 43.4332 52.53 44.2682 52.2932C41.7757 51.0469 41.4766 50.6356 42.0249 47.9935C42.0476 47.8041 42.0305 47.6121 41.9747 47.4297C41.9189 47.2473 41.8256 47.0785 41.7009 46.9342C40.6264 45.1049 39.6488 43.2204 38.7721 41.2885C38.5353 40.7277 38.3733 40.0422 39.0338 39.6808C39.6944 39.3194 40.1555 39.6185 40.6415 40.0547C41.1276 40.4909 41.4641 41.1514 42.1246 41.5253C42.1371 40.9645 42.162 40.5158 42.1994 40.0547Z" fill="#FEAA61"/>
<path fill-rule="evenodd" clip-rule="evenodd" d="M42.199 40.0543C42.199 40.5154 42.199 40.9641 42.0993 41.5249C41.4387 41.151 41.1022 40.5154 40.6162 40.0543C40.1301 39.5932 39.6441 39.2941 39.0085 39.6804C38.3729 40.0668 38.51 40.7273 38.7468 41.2881C39.6234 43.22 40.601 45.1045 41.6755 46.9338C41.8003 47.0781 41.8935 47.2469 41.9493 47.4293C42.0051 47.6117 42.0222 47.8037 41.9996 47.9931C41.4512 50.6352 41.688 51.0964 44.2429 52.2928C43.4079 52.5296 42.8969 52.0435 42.2488 51.8068C41.9569 53.0852 41.8686 54.4017 41.9871 55.7076C41.9123 57.44 41.9871 59.1723 41.9871 60.9046C41.9871 62.3628 42.1117 63.8209 42.1616 65.2666C42.1616 65.7153 42.3361 66.1889 42.012 66.6001C40.2599 60.3421 38.9398 53.971 38.0613 47.532C37.9825 46.9739 37.7963 46.4364 37.513 45.9492C35.9925 43.3196 34.4346 40.7148 33.1634 37.9481C33.0185 37.668 32.9097 37.3707 32.8394 37.0632C32.796 36.8686 32.8236 36.6649 32.9173 36.4889C33.011 36.3128 33.1646 36.1762 33.3504 36.1036C33.7741 35.9167 33.8738 36.3529 34.0358 36.5896C34.5593 37.3374 35.0453 38.1101 35.5438 38.8828C35.8084 39.5934 36.2987 40.1976 36.9397 40.6027L35.6934 38.7208L34.1106 36.141C33.7149 35.5498 33.5265 34.8442 33.5747 34.1345C33.5846 33.8508 33.684 33.5775 33.8586 33.3536C34.0331 33.1298 34.274 32.9669 34.5468 32.8882C35.1949 32.6888 35.4441 33.1499 35.6809 33.5612C36.3165 34.6579 36.9272 35.7671 37.5379 36.8763C37.8064 37.6145 38.2824 38.2593 38.9088 38.7333L37.7373 36.6893C37.1017 35.4431 36.491 34.3089 35.8305 33.1499C35.7392 33.0441 35.6711 32.9202 35.6308 32.7863C35.5905 32.6525 35.5787 32.5116 35.5964 32.373C35.614 32.2343 35.6606 32.1009 35.7331 31.9814C35.8057 31.8619 35.9025 31.7589 36.0174 31.6793C36.2325 31.4653 36.5183 31.337 36.8211 31.3187C37.124 31.3003 37.4232 31.3931 37.6625 31.5796C38.1379 31.9542 38.5109 32.4429 38.7468 33.0004L42.0868 39.5932L42.199 40.0543Z" fill="#D73EAF"/>
<path fill-rule="evenodd" clip-rule="evenodd" d="M102.008 54.3746C104.005 53.4647 105.66 51.9409 106.731 50.0251C107.292 48.9284 107.753 47.8441 106.98 46.6602C108.409 48.0324 109.726 49.516 110.919 51.0969L111.941 52.3432C112.551 53.066 113.112 53.8138 113.735 54.5242C113.897 54.6987 114.034 54.8981 114.184 55.085C114.316 55.2506 114.462 55.4048 114.62 55.5462C114.707 55.6209 114.845 55.7705 114.77 55.8951C114.695 56.0197 114.533 55.8951 114.446 55.8951C114.358 55.8951 114.346 55.8079 114.284 55.7829C114.227 55.7648 114.166 55.7648 114.109 55.7829C113.972 55.7829 113.835 55.7829 113.698 55.7082C113.623 55.7014 113.548 55.7014 113.474 55.7082H113.274C113.127 55.6922 112.983 55.65 112.85 55.5835C112.634 55.5229 112.413 55.4812 112.19 55.4589C111.983 55.4902 111.773 55.4902 111.567 55.4589C111.472 55.441 111.375 55.441 111.28 55.4589C111.159 55.422 111.042 55.3718 110.931 55.3094C110.786 55.2463 110.628 55.2206 110.47 55.2346C110.258 55.2346 110.059 55.1598 109.834 55.2346C109.61 55.3094 109.648 55.2346 109.535 55.2346C109.327 55.2262 109.119 55.2054 108.912 55.1723L108.177 55.085C107.305 55.0103 106.42 54.9479 105.547 54.923C104.675 54.8981 103.802 54.923 102.918 54.923C102.656 54.5741 102.257 54.8358 102.008 54.3746Z" fill="black"/>
<path fill-rule="evenodd" clip-rule="evenodd" d="M98.4565 36.4797C93.8079 36.8412 90.9788 39.1592 89.5955 43.7456C89.3711 44.4809 89.1468 44.2441 88.7979 43.92C89.1842 38.8726 92.1379 35.9688 96.6993 34.3984L98.4565 36.4797Z" fill="black"/>
<path fill-rule="evenodd" clip-rule="evenodd" d="M65.268 89.7301C65.0685 89.9918 64.8691 90.266 64.6573 90.5277C64.4454 90.7895 64.3332 90.9265 64.1712 91.1384L63.3611 91.9734C60.7795 91.8306 58.2589 91.1335 55.9707 89.9295C54.9138 89.3779 53.9506 88.6628 53.1167 87.8108C55.4701 84.9695 57.9659 82.2491 60.5944 79.6602C62.1149 82.9379 63.6478 86.2031 65.1807 89.4809L65.3552 89.7426L65.268 89.7301ZM60.4698 85.0192C60.4765 84.8857 60.4561 84.7523 60.4096 84.6271C60.3632 84.5018 60.2917 84.3873 60.1996 84.2905C60.1075 84.1938 59.9967 84.1167 59.8739 84.0642C59.751 84.0116 59.6188 83.9846 59.4852 83.9848C59.3519 83.9755 59.2182 83.995 59.093 84.0418C58.9679 84.0887 58.8542 84.1618 58.7597 84.2563C58.6652 84.3508 58.5921 84.4644 58.5453 84.5896C58.4984 84.7147 58.479 84.8485 58.4882 84.9818C58.4796 85.1064 58.4968 85.2314 58.5387 85.3491C58.5806 85.4668 58.6462 85.5746 58.7316 85.6658C58.8169 85.757 58.9201 85.8296 59.0348 85.8792C59.1494 85.9287 59.2731 85.9542 59.398 85.9539C59.5355 85.9661 59.674 85.9493 59.8046 85.9046C59.9352 85.8598 60.0549 85.7881 60.1559 85.6941C60.257 85.6001 60.3372 85.4859 60.3912 85.3588C60.4453 85.2318 60.4721 85.0949 60.4698 84.9569V85.0192Z" fill="#76777A"/>
<path fill-rule="evenodd" clip-rule="evenodd" d="M92.5115 66.1406H91.6017H90.2806H89.0344H87.7133L86.3922 66.0783H86.2427C87.2522 64.5703 88.6231 63.3365 89.7572 61.9282C90.318 61.2552 90.9287 60.6196 91.5145 59.9715C91.826 59.6225 92.175 59.2736 92.7607 59.5478C92.97 59.67 93.1303 59.8611 93.2144 60.0884C93.2985 60.3156 93.3011 60.565 93.2219 60.794C93.0815 61.3279 92.8675 61.8396 92.5863 62.3145L92.2373 62.9875L92.0379 63.3115C91.9878 63.4262 91.9251 63.5348 91.8509 63.6356L91.7388 63.7602L91.6391 63.9222C91.5787 64.0444 91.5078 64.1612 91.4272 64.2712C91.3538 64.3573 91.2871 64.449 91.2278 64.5454C91.2278 64.6451 91.2278 64.6949 91.3524 64.67C91.489 64.6287 91.616 64.561 91.7263 64.4706L92.0005 64.2587L92.2872 63.9596C92.4505 63.8277 92.5933 63.6723 92.7109 63.4985C92.7672 63.4078 92.8342 63.3241 92.9103 63.2492L93.1845 62.9376L93.4587 62.5638C94.1156 61.83 94.8147 61.135 95.5524 60.4825C95.708 60.3159 95.9063 60.1952 96.1257 60.1335C96.3377 60.0719 96.5653 60.0942 96.7613 60.1958C96.8361 60.1958 96.9732 60.2831 97.0106 60.3703C97.0214 60.4196 97.0214 60.4706 97.0106 60.5199C97.0106 60.6445 97.0106 60.7691 97.0729 60.8937C97.0792 60.9392 97.0792 60.9854 97.0729 61.0308C97.0729 61.0308 97.0729 61.143 97.0729 61.1928V61.305C97.0857 61.396 97.0857 61.4883 97.0729 61.5792C96.9844 61.8624 96.8404 62.1251 96.6491 62.3519L96.375 62.6759C96.2877 62.8006 96.2254 62.9376 96.1382 63.0623L95.8889 63.4486L95.6147 63.7477C95.5275 63.835 95.4029 63.9097 95.3156 64.0095C95.2284 64.1092 95.2408 64.1465 95.191 64.2089C95.1411 64.2712 95.0165 64.4207 94.9293 64.5329C94.927 64.5702 94.927 64.6077 94.9293 64.6451L94.842 64.7198L94.7299 64.8569C94.6372 64.9482 94.5537 65.0484 94.4806 65.156C94.4806 65.156 94.4058 65.2433 94.3684 65.3056C94.3749 65.3343 94.3749 65.3641 94.3684 65.3928L94.0195 65.8415C93.9488 65.9474 93.8603 66.0402 93.7578 66.1157C93.6846 66.1379 93.6066 66.1379 93.5334 66.1157L92.5115 66.1406Z" fill="#FEAA61"/>
<path fill-rule="evenodd" clip-rule="evenodd" d="M89.0336 48.6032C89.0278 48.566 89.0278 48.5282 89.0336 48.491C89.0266 48.4582 89.0266 48.4242 89.0336 48.3913C89.0389 48.3494 89.0527 48.309 89.0742 48.2726C89.0956 48.2362 89.1242 48.2045 89.1583 48.1794C89.1583 48.1794 89.2953 48.0548 89.3701 48.0673H89.4823C89.4823 48.0673 89.5944 48.0673 89.6318 48.0673L89.7066 48.1421C89.7681 48.2176 89.8184 48.3015 89.8562 48.3913C89.8562 48.4661 89.8562 48.5409 89.9559 48.6032C90.497 50.3609 91.5731 51.906 93.0342 53.023C94.4952 54.14 96.2684 54.7733 98.1066 54.8346C98.2765 54.8528 98.4438 54.8904 98.6051 54.9468L93.0093 56.193C93.0068 56.164 93.0068 56.1348 93.0093 56.1058L92.8722 56.0809L92.7226 55.9064L92.4484 55.5699C92.2615 55.3456 92.0746 55.1212 91.9001 54.8844C91.7256 54.6477 91.5511 54.4233 91.3891 54.1865C91.2271 53.9497 91.0651 53.7005 90.9155 53.4512C90.766 53.202 90.6289 52.9527 90.4918 52.7035L90.093 51.9432C89.9683 51.6815 89.8562 51.4198 89.744 51.1456C89.6318 50.8714 89.5446 50.6097 89.4574 50.3355C89.3701 50.0613 89.2829 49.7622 89.2206 49.4756C89.1582 49.1889 89.0835 48.8774 89.0336 48.6032Z" fill="black"/>
<path fill-rule="evenodd" clip-rule="evenodd" d="M65.2926 89.7344L65.1182 89.4727L65.2926 89.7344Z" fill="#EBEBEB"/>
<path fill-rule="evenodd" clip-rule="evenodd" d="M86.2801 69.4555C85.7442 69.0567 85.3579 69.5428 85.0338 69.8294C84.2487 70.4526 83.4884 71.0757 82.6908 71.7736C82.4042 71.2502 82.8154 70.6894 82.3792 70.3155C82.2655 70.5349 82.132 70.7434 81.9804 70.9386L72.5087 81.7439C70.9633 83.5011 69.4428 85.2958 67.8476 87.0281C67.025 87.9255 66.4393 89.072 65.355 89.6702C65.1556 89.932 64.9562 90.2061 64.7443 90.4679C64.5325 90.7296 64.6322 91.0412 64.2583 91.0786L63.4482 91.9136L57.2168 98.98L59.8215 102.607C60.7764 102.627 61.7294 102.51 62.6506 102.258C66.9991 101.088 70.9624 98.7921 74.1413 95.6026C76.399 93.5245 78.4599 91.2424 80.2979 88.7854C80.2979 88.7854 80.2979 88.7854 80.2356 88.7854H80.3353C80.3455 88.7708 80.351 88.7534 80.351 88.7355C80.351 88.7177 80.3455 88.7003 80.3353 88.6857C81.0582 87.8133 81.7686 86.9409 82.4914 86.081C82.4914 84.5106 82.4914 82.9403 82.4914 81.37C82.3294 80.2234 82.803 79.0519 82.3419 77.9303C82.0835 78.3573 81.6936 78.6891 81.2307 78.8756C80.7677 79.0621 80.2567 79.0934 79.7745 78.9647C81.781 78.9647 82.1798 77.4816 82.6783 76.0608C83.5258 75.0763 84.3857 74.0917 85.1709 73.0947C85.736 72.465 86.1835 71.7389 86.492 70.9511C86.6914 70.4027 86.7786 69.792 86.2801 69.4555Z" fill="#FEAA61"/>
<path fill-rule="evenodd" clip-rule="evenodd" d="M27.0322 39.2455C26.144 40.4098 25.142 41.4828 24.0411 42.4485C23.8282 42.6179 23.6896 42.8636 23.6547 43.1335C23.6198 43.4033 23.6913 43.6762 23.8542 43.8942C24.7764 45.639 25.6239 47.4087 26.4963 49.1784L26.3218 49.3529C24.4648 48.6799 22.583 48.0443 20.7509 47.309C20.4565 47.1336 20.1067 47.0759 19.7716 47.1475C19.4364 47.2192 19.1408 47.4149 18.9438 47.6953C17.7848 49.0413 16.5136 50.2876 15.0803 51.7956C15.1939 50.2545 15.5038 48.7342 16.0026 47.2716C16.526 45.7636 16.551 45.7761 15.0305 45.2277L11.1421 43.8069C12.9617 43.2586 14.5818 42.7102 16.202 42.3737C16.5261 42.3163 16.8228 42.1552 17.0475 41.9148C17.2722 41.6743 17.4129 41.3674 17.4483 41.0402C17.9593 38.9589 18.5325 36.9025 19.1557 34.6094C20.0904 36.4913 20.9628 38.1613 21.7604 39.8687C22.0595 40.5043 22.3586 40.6414 23.0067 40.4171C24.2858 39.94 25.6034 39.5731 26.945 39.3203L27.0322 39.2455Z" fill="#EBEBEB"/>
<path fill-rule="evenodd" clip-rule="evenodd" d="M27.0441 39.2715L27.106 39.2344L27.0317 39.2467L27.0441 39.2715Z" fill="#EBEBEB"/>
<path fill-rule="evenodd" clip-rule="evenodd" d="M26.4958 49.1758L26.5705 49.4126H26.3213L26.4958 49.1758Z" fill="#EBEBEB"/>
<path fill-rule="evenodd" clip-rule="evenodd" d="M100.089 45.8275C99.8824 45.8093 99.678 45.7718 99.4784 45.7153C98.8802 45.4536 98.0327 45.142 98.1573 44.469C98.2303 44.0663 98.4508 43.7052 98.7757 43.4563C99.1007 43.2074 99.5067 43.0886 99.9146 43.123C100.949 44.0951 101.024 44.469 100.089 45.8275Z" fill="#2D1B2D"/>
<path fill-rule="evenodd" clip-rule="evenodd" d="M92.748 45.8121C91.913 45.8121 91.4145 45.2638 90.8287 44.8276C90.6169 44.6531 90.567 44.5285 90.754 44.3166C91.24 43.7807 91.6014 43.0703 92.4738 43.0703C93.6578 44.005 93.7201 44.6905 92.748 45.8121Z" fill="#2D1B2D"/>
<path fill-rule="evenodd" clip-rule="evenodd" d="M96.5615 48.9143C95.6038 49.0016 94.6402 49.0016 93.6826 48.9143C93.4084 48.9143 93.3211 48.7273 93.4458 48.4781L96.5365 41.9102L96.8357 42.0472L93.8197 48.6027H96.5615V48.9143Z" fill="#2D1B2D"/>
<path fill-rule="evenodd" clip-rule="evenodd" d="M92.7493 45.8133C93.7214 44.6917 93.6591 44.0062 92.4751 43.0715C93.4472 42.8721 94.033 43.4454 94.6062 44.081C94.9552 44.4674 94.6062 44.7415 94.4567 44.9908C94.2794 45.2757 94.0247 45.5043 93.7224 45.6499C93.4201 45.7955 93.0826 45.8522 92.7493 45.8133Z" fill="#EBEBEB"/>
<path fill-rule="evenodd" clip-rule="evenodd" d="M100.09 45.8263C101.024 44.4678 100.999 44.0939 99.915 43.1094C100.85 43.1094 102.021 43.7574 102.108 44.3557C102.196 44.9539 101.099 45.7515 100.09 45.8263Z" fill="#EBEBEB"/>
<path fill-rule="evenodd" clip-rule="evenodd" d="M96.8374 51.1845C98.981 51.6083 100.838 51.4213 101.823 48.8789C101.947 51.0973 99.0807 52.3436 96.8374 51.1845Z" fill="#2D1B2D"/>
<path fill-rule="evenodd" clip-rule="evenodd" d="M107.094 46.6587V46.5839L106.982 46.4593L106.77 46.235L106.408 45.8112C106.331 45.73 106.248 45.655 106.159 45.5869C106.111 45.5429 106.069 45.4926 106.034 45.4373L105.91 45.2878C105.636 44.9762 105.374 44.6522 105.112 44.3406C104.85 44.029 104.589 43.6925 104.339 43.3685C102.532 40.9632 100.526 38.7448 98.5442 36.4766C93.8956 36.838 91.0665 39.1561 89.6831 43.7424C89.6493 43.8649 89.5989 43.9823 89.5336 44.0913C89.5115 44.1424 89.4712 44.1835 89.4205 44.2065C89.3698 44.2295 89.3124 44.2329 89.2594 44.216C89.2012 44.1902 89.1467 44.1566 89.0974 44.1163L88.9977 44.029C88.9714 43.986 88.9376 43.948 88.898 43.9169H88.736H88.6487H88.4867C88.4496 43.9231 88.4117 43.9231 88.3745 43.9169H88.063L87.4523 44.0041C87.2568 44.0299 87.0671 44.0889 86.8915 44.1786C86.71 44.2629 86.5386 44.3675 86.3805 44.4902C86.2209 44.6165 86.0784 44.7632 85.9567 44.9264C85.8266 45.0929 85.7216 45.2776 85.6452 45.4747C85.5568 45.6737 85.494 45.8831 85.4582 46.0979C85.4273 46.3044 85.4273 46.5144 85.4582 46.721C85.4843 46.926 85.5477 47.1245 85.6452 47.3068C85.7345 47.5083 85.8566 47.6936 86.0066 47.8551C86.1486 48.0243 86.3073 48.1788 86.4802 48.3162L86.5674 48.4159L86.6796 48.5281C86.7804 48.6204 86.906 48.6811 87.041 48.7026L87.4897 48.8148C87.8114 48.827 88.1334 48.8019 88.4493 48.74C88.5319 48.7525 88.6159 48.7525 88.6986 48.74L88.9229 48.6403C89.0221 48.6188 89.1184 48.5854 89.2095 48.5406C89.2813 48.5082 89.3484 48.4663 89.4089 48.4159C89.4089 48.4159 89.4089 48.3287 89.5211 48.3038C89.6333 48.2789 89.5211 48.229 89.6333 48.2415C89.7454 48.2539 89.6333 48.2415 89.7205 48.3162C89.7843 48.3926 89.8387 48.4762 89.8825 48.5655L89.9822 48.7898C90.5538 50.5088 91.6398 52.0105 93.0933 53.0917C94.5467 54.1729 96.2973 54.7812 98.108 54.8343C98.2779 54.8525 98.4452 54.8901 98.6065 54.9465C99.7706 55.0165 100.935 54.816 102.009 54.3607C104.006 53.4508 105.661 51.927 106.732 50.0112V49.924C106.849 49.7099 106.953 49.4894 107.044 49.2634C107.153 49.0525 107.241 48.8313 107.306 48.6029C107.306 48.5032 107.306 48.4035 107.368 48.3162C107.356 48.2336 107.356 48.1496 107.368 48.067V47.9299C107.38 47.8514 107.38 47.7716 107.368 47.6931C107.379 47.6104 107.379 47.5266 107.368 47.4438V47.2694V47.1821C107.373 47.1075 107.373 47.0325 107.368 46.9578L107.181 46.7833C107.185 46.7502 107.185 46.7167 107.181 46.6836L107.094 46.6587ZM92.749 45.8112C91.914 45.8112 91.4155 45.2629 90.8297 44.8267C90.6178 44.6522 90.568 44.5275 90.7549 44.3157C91.241 43.7798 91.6024 43.0694 92.4748 43.0694C93.4469 42.87 94.0327 43.4433 94.6059 44.0789C94.9549 44.4652 94.6059 44.7394 94.4564 44.9887C94.2791 45.2735 94.0244 45.5021 93.7221 45.6478C93.4198 45.7934 93.0823 45.8501 92.749 45.8112ZM93.6837 48.9643C93.4095 48.9643 93.3223 48.7774 93.4469 48.5281L96.5377 41.9602L96.8368 42.0973L93.8208 48.6029H96.5626V48.9145C95.6065 49.0184 94.6429 49.0351 93.6837 48.9643ZM96.8368 51.1827C98.9804 51.6064 100.837 51.4195 101.822 48.8771C101.947 51.0955 99.0801 52.3417 96.8368 51.1827ZM100.09 45.8237C99.883 45.8056 99.6785 45.768 99.4789 45.7115C98.8807 45.4498 98.0332 45.1382 98.1579 44.4652C98.2308 44.0625 98.4513 43.7014 98.7762 43.4525C99.1012 43.2036 99.5072 43.0848 99.9151 43.1192C100.85 43.1192 102.021 43.7673 102.109 44.3655C102.196 44.9637 101.099 45.7489 100.09 45.8237Z" fill="#FEAA61"/>
<path fill-rule="evenodd" clip-rule="evenodd" d="M64.1709 91.0794C64.3329 90.8676 64.3703 90.5685 64.6569 90.4688C64.6071 90.7554 64.5448 91.042 64.1709 91.0794Z" fill="#CDCDCD"/>
<path fill-rule="evenodd" clip-rule="evenodd" d="M91.6889 64.1695L91.4521 64.5683C91.5269 64.4312 91.5892 64.2816 91.664 64.1445L91.6889 64.1695Z" fill="#CDCDCD"/>
<path fill-rule="evenodd" clip-rule="evenodd" d="M93.4714 66.0508L93.2222 66.2003L93.4714 66.0508Z" fill="#CDCDCD"/>
<path fill-rule="evenodd" clip-rule="evenodd" d="M97.4725 65.3042C97.4058 65.524 97.3182 65.7368 97.2108 65.9398C97.0612 66.1517 96.9116 66.1143 96.6624 66.1143C96.4131 66.1143 95.8523 66.1143 95.4161 66.1143C95.2042 66.1143 95.0048 66.1143 94.8054 66.1891C94.606 66.2638 94.2571 66.189 94.3443 66.0644C94.6872 65.7837 94.9892 65.4565 95.2416 65.0923C95.5657 64.6935 95.8772 64.2822 96.2137 63.846C96.5066 63.4904 96.8461 63.176 97.2232 62.9113C97.4226 62.7742 97.6345 62.525 97.9087 62.5624C99.0303 62.7244 97.6968 64.868 97.4725 65.3042Z" fill="#FEAA61"/>
</svg>
