<svg width="75" height="80" viewBox="0 0 75 80" fill="none" xmlns="http://www.w3.org/2000/svg">
<path fill-rule="evenodd" clip-rule="evenodd" d="M59.1489 26.6458C58.6317 21.047 56.506 15.7174 53.0283 11.2994C50.7419 8.31997 47.8569 5.85232 44.5591 4.05537C44.1525 3.84082 43.7799 3.5585 43.396 3.31007C43.6783 2.26553 44.6551 1.95498 45.4286 1.50329C46.8556 0.642724 48.4804 0.164758 50.1461 0.115553C51.8117 0.0663489 53.4619 0.447597 54.9372 1.22242C56.4125 1.99725 57.6631 3.13949 58.568 4.53876C59.4729 5.93804 60.0016 7.54704 60.103 9.21034C60.1426 9.81448 60.391 9.92741 60.9105 9.92176C62.7511 9.92176 64.5917 9.92176 66.438 9.92176C70.3904 9.92176 73.5974 13.0385 74.4274 16.6972C75.4324 21.1068 71.8019 26.6909 66.0936 26.6401C63.7674 26.6175 61.4581 26.6401 59.1489 26.6458Z" fill="#0AA7FF"/>
<path d="M59.1494 26.6458C58.6322 21.0471 56.5066 15.7174 53.0289 11.2994C50.7425 8.31999 47.8575 5.85234 44.5596 4.05539C44.1531 3.84083 43.7805 3.55852 43.3966 3.31009C43.2393 3.2621 43.0847 3.20556 42.9335 3.14071C37.2091 0.219711 30.6709 -0.698694 24.3632 0.532177C16.9837 1.9042 10.7164 5.40484 6.0527 11.4463C1.19134 17.7417 -0.846945 24.822 0.321815 32.738C1.16166 37.8595 3.29994 42.6803 6.53262 46.7405C9.50251 50.6251 12.7434 54.3064 15.8206 58.1063C18.1525 60.9745 20.7271 63.6791 22.788 66.7393L25.5828 72.0862L26.0459 71.9055L23.4034 66.7393H27.0339L28.4567 72.0806L29.0213 71.9677L27.6267 66.7393H31.3081L29.9586 72.075H30.5797L32.0308 66.7393H35.2999L32.1945 71.8209L33.0019 71.9282L36.2428 66.5247C36.3282 66.4563 36.4059 66.3786 36.4743 66.2932C37.7278 64.7744 39.0038 63.2725 40.2686 61.7763C43.0916 58.3886 45.9147 55.0009 48.7378 51.6132C51.2899 48.5699 53.8476 45.5322 55.7165 42.0147C57.879 37.9325 59.2567 33.647 59.1042 28.9663C59.0929 28.1815 59.1325 27.4136 59.1494 26.6458Z" fill="#7C3AA6"/>
<path fill-rule="evenodd" clip-rule="evenodd" d="M32.9335 71.6062L33.6731 71.6796C33.4623 74.115 33.2516 76.5485 33.0408 78.9801C33.0446 79.1243 33.017 79.2675 32.9599 79.3999C32.9028 79.5323 32.8176 79.6507 32.7101 79.7469C32.6027 79.843 32.4756 79.9147 32.3377 79.9568C32.1998 79.9989 32.0544 80.0105 31.9115 79.9908C30.3362 79.9908 28.761 79.9908 27.1857 79.9908C27.0287 80.0109 26.8693 79.9963 26.7186 79.9479C26.568 79.8995 26.4299 79.8185 26.314 79.7108C26.1981 79.603 26.1075 79.471 26.0483 79.3243C25.9892 79.1775 25.9631 79.0195 25.9718 78.8616C25.7685 76.4281 25.5427 73.9946 25.3281 71.5611C25.4636 71.5328 32.0075 71.6006 32.9335 71.6062Z" fill="#556677"/>
<path d="M32.437 69.625C32.7959 69.4887 33.1091 69.2538 33.3404 68.9474C33.5719 68.5353 34.3793 67.8182 34.9721 67.8634C35.565 67.9085 36.1014 68.2247 36.0619 68.7385C36.0224 69.2523 35.5424 69.7266 35.3618 70.167C35.1497 70.5228 34.8578 70.8243 34.5092 71.0478L33.7639 70.3477L33.1089 71.0478L32.437 69.625Z" fill="#F9BBA5"/>
<path d="M28.4453 72.583C28.4453 72.583 30.7037 70.0422 31.5733 69.7091C32.4428 69.376 32.7646 69.5002 32.7646 69.5002L33.5946 70.7423C33.6885 71.1224 33.7227 71.5148 33.6962 71.9055C33.5687 72.4479 33.3511 72.9651 33.0525 73.4356L28.4453 72.583Z" fill="#4858CC"/>
<path d="M33.1535 69.1393C33.1535 69.1393 33.2608 67.5076 34.2828 67.406C35.3047 67.3043 36.0217 67.9706 36.0726 68.2698C36.1234 68.569 35.4515 68.49 35.2144 68.5408C34.7697 68.8031 34.4183 69.198 34.2094 69.6701C34.2094 69.958 34.7006 70.0088 34.9829 70.2911C35.2652 70.5735 35.1127 70.788 34.774 71.1494C34.4352 71.5107 33.3511 71.4147 33.5092 70.9913C33.7151 70.5372 33.8466 70.053 33.8988 69.5571C33.8254 69.2692 33.1196 69.3991 33.1535 69.1393Z" fill="#425668"/>
</svg>
