<svg width="165" height="44" viewBox="0 0 165 44" fill="none" xmlns="http://www.w3.org/2000/svg">
<path d="M62.5317 0.13124C62.28 0.120977 62.0286 0.1595 61.7924 0.244568C61.5562 0.329635 61.3398 0.459534 61.1558 0.626689C60.9718 0.793844 60.824 0.994903 60.721 1.21812C60.6179 1.44134 60.5617 1.68226 60.5557 1.9268V16.6289C60.5557 17.1377 60.7639 17.6256 61.1344 17.9854C61.505 18.3451 62.0076 18.5472 62.5317 18.5472C63.0558 18.5472 63.5584 18.3451 63.929 17.9854C64.2996 17.6256 64.5078 17.1377 64.5078 16.6289V1.9268C64.5039 1.68161 64.4491 1.43971 64.3468 1.21551C64.2445 0.991313 64.0968 0.789408 63.9123 0.621841C63.7279 0.454274 63.5106 0.324477 63.2734 0.240189C63.0363 0.1559 62.784 0.118847 62.5317 0.13124Z" fill="white"/>
<path d="M81.9604 16.6289C82.0046 17.1081 82.2319 17.5538 82.5976 17.8785C82.9633 18.2031 83.4409 18.3832 83.9365 18.3832C84.432 18.3832 84.9096 18.2031 85.2753 17.8785C85.641 17.5538 85.8683 17.1081 85.9125 16.6289V3.65333H90.3152C90.5446 3.65333 90.7718 3.60946 90.9837 3.52424C91.1956 3.43902 91.3882 3.31411 91.5504 3.15664C91.7126 2.99917 91.8413 2.81222 91.9291 2.60648C92.0169 2.40073 92.062 2.18021 92.062 1.95752C92.062 1.73482 92.0169 1.51431 91.9291 1.30857C91.8413 1.10283 91.7126 0.915878 91.5504 0.758408C91.3882 0.600938 91.1956 0.476028 90.9837 0.390806C90.7718 0.305584 90.5446 0.261719 90.3152 0.261719H77.5894C77.36 0.261719 77.1328 0.305584 76.9209 0.390806C76.7089 0.476028 76.5164 0.600938 76.3542 0.758408C76.1919 0.915878 76.0633 1.10283 75.9755 1.30857C75.8877 1.51431 75.8425 1.73482 75.8425 1.95752C75.8425 2.18021 75.8877 2.40073 75.9755 2.60648C76.0633 2.81222 76.1919 2.99917 76.3542 3.15664C76.5164 3.31411 76.7089 3.43902 76.9209 3.52424C77.1328 3.60946 77.36 3.65333 77.5894 3.65333H81.9604V16.6289Z" fill="white"/>
<path d="M108.092 17.519C108.303 17.8067 108.583 18.0396 108.908 18.1975C109.234 18.3554 109.594 18.4333 109.957 18.4245C110.44 18.4411 110.91 18.2724 111.265 17.955C111.62 17.6375 111.832 17.1968 111.854 16.7287C111.833 16.2188 111.612 15.7361 111.238 15.3782L107.839 11.4648C110.518 10.5747 111.989 8.68702 111.989 6.05507C112.006 5.31628 111.866 4.58194 111.578 3.89802C111.289 3.21409 110.859 2.59527 110.313 2.08029C108.71 0.799836 106.671 0.15075 104.598 0.261712H97.761C97.5071 0.25353 97.2542 0.294497 97.0168 0.382228C96.7795 0.469959 96.5625 0.6027 96.3786 0.772697C96.1947 0.942694 96.0474 1.14654 95.9455 1.37236C95.8436 1.59818 95.789 1.84145 95.7849 2.08797V16.6673C95.7849 17.1761 95.9931 17.664 96.3637 18.0237C96.7343 18.3835 97.2369 18.5856 97.761 18.5856C98.2851 18.5856 98.7877 18.3835 99.1583 18.0237C99.5289 17.664 99.737 17.1761 99.737 16.6673V12.2398H103.571L108.092 17.519ZM104.345 8.93257H99.6975V3.5996H104.314C105.689 3.5996 108.005 3.93723 108.005 6.27759C108.005 7.91201 106.606 8.93257 104.345 8.93257Z" fill="white"/>
<path d="M116.881 18.4246C117.266 18.4349 117.645 18.3319 117.968 18.1292C118.291 17.9265 118.543 17.6336 118.691 17.289L120.233 14.0738H129.18L130.666 17.1892C130.816 17.5579 131.077 17.8736 131.416 18.0944C131.755 18.3151 132.155 18.4303 132.563 18.4246C132.805 18.4307 133.045 18.3901 133.27 18.3051C133.495 18.2202 133.7 18.0925 133.874 17.9296C134.048 17.7668 134.186 17.572 134.281 17.3566C134.377 17.1412 134.427 16.9095 134.429 16.6751C134.426 16.4049 134.35 16.1402 134.208 15.9078L127.094 1.40519C126.908 0.978088 126.593 0.615505 126.191 0.364942C125.789 0.114378 125.318 -0.0124827 124.841 0.000969045H124.675C124.195 -0.010865 123.722 0.116368 123.316 0.366452C122.911 0.616536 122.592 0.978145 122.399 1.40519L115.285 15.8924C115.116 16.1538 115.025 16.4557 115.023 16.7643C115.022 17.0729 115.109 17.3758 115.275 17.639C115.441 17.9021 115.679 18.1151 115.963 18.2539C116.247 18.3927 116.565 18.4519 116.881 18.4246ZM121.782 10.805L124.715 4.66635L127.639 10.805H121.782Z" fill="white"/>
<path d="M139.677 18.4238C139.927 18.433 140.177 18.3936 140.411 18.3079C140.646 18.2222 140.86 18.0919 141.042 17.9246C141.224 17.7574 141.37 17.5566 141.471 17.3339C141.571 17.1113 141.625 16.8714 141.629 16.6282V1.92614C141.629 1.41737 141.421 0.92944 141.051 0.569683C140.68 0.209926 140.177 0.0078125 139.653 0.0078125C139.129 0.0078125 138.627 0.209926 138.256 0.569683C137.885 0.92944 137.677 1.41737 137.677 1.92614V16.6282C137.683 16.8748 137.74 17.1177 137.845 17.3425C137.949 17.5673 138.099 17.7694 138.286 17.9369C138.472 18.1044 138.691 18.2338 138.93 18.3174C139.169 18.401 139.423 18.4372 139.677 18.4238Z" fill="white"/>
<path d="M162.291 0.131279C161.794 0.12095 161.314 0.301461 160.954 0.633483C160.594 0.965504 160.384 1.42212 160.37 1.90381V11.8791L151.288 1.13648C151.066 0.830774 150.773 0.580784 150.432 0.407285C150.091 0.233787 149.713 0.141789 149.328 0.138949H148.972C148.462 0.126565 147.967 0.311016 147.597 0.651889C147.226 0.992761 147.01 1.46226 146.996 1.95752V16.6289C146.996 17.1275 147.2 17.6057 147.563 17.9582C147.926 18.3108 148.419 18.5089 148.932 18.5089C149.446 18.5089 149.939 18.3108 150.302 17.9582C150.665 17.6057 150.869 17.1275 150.869 16.6289V6.31597L160.22 17.3809C160.441 17.6901 160.735 17.9438 161.077 18.1213C161.419 18.2987 161.8 18.3947 162.188 18.4014H162.291C162.539 18.4086 162.786 18.3676 163.018 18.2807C163.249 18.1939 163.461 18.063 163.64 17.8958C163.819 17.7285 163.961 17.5283 164.06 17.3068C164.158 17.0853 164.209 16.847 164.211 16.6059V1.92683C164.199 1.44242 163.99 0.982297 163.631 0.646187C163.271 0.310076 162.79 0.125072 162.291 0.131279Z" fill="white"/>
<path d="M76.546 25.5067C76.1736 25.513 75.809 25.6115 75.4867 25.7927C75.1645 25.974 74.8952 26.2321 74.7043 26.5426L69.5112 33.2951L64.3971 26.5656C64.1997 26.2557 63.9256 25.9987 63.5999 25.8178C63.2741 25.6369 62.9069 25.5378 62.5317 25.5297C62.2831 25.5163 62.0342 25.5511 61.7996 25.6322C61.565 25.7132 61.3494 25.8389 61.1654 26.0018C60.9814 26.1647 60.8327 26.3615 60.728 26.5809C60.6233 26.8002 60.5647 27.0376 60.5557 27.2792C60.5619 27.729 60.7171 28.1648 60.9983 28.5223L67.5351 36.7251V42.035C67.5351 42.5438 67.7433 43.0317 68.1139 43.3915C68.4845 43.7512 68.9871 43.9533 69.5112 43.9533C70.0353 43.9533 70.5379 43.7512 70.9085 43.3915C71.279 43.0317 71.4872 42.5438 71.4872 42.035V36.6637L77.9687 28.5683C78.291 28.2186 78.4782 27.7711 78.4983 27.3022C78.501 27.0572 78.4516 26.8142 78.3531 26.5885C78.2546 26.3628 78.1091 26.1594 77.9258 25.9908C77.7425 25.8222 77.5254 25.6922 77.2879 25.6089C77.0505 25.5256 76.7979 25.4908 76.546 25.5067Z" fill="white"/>
<path d="M90.2756 25.3613C84.4897 25.3613 79.9526 29.4589 79.9526 34.7305C79.9526 40.002 84.3711 43.9998 90.2282 43.9998C96.0852 43.9998 100.551 39.9023 100.551 34.6307C100.551 29.3591 96.1326 25.3613 90.2756 25.3613ZM90.2203 28.7299C91.0406 28.7069 91.8573 28.846 92.6206 29.1388C93.3839 29.4316 94.0779 29.8719 94.6604 30.4332C95.243 30.9944 95.7019 31.6647 96.0093 32.4035C96.3168 33.1422 96.4663 33.9339 96.4488 34.7305C96.4589 35.5155 96.3049 36.2943 95.9962 37.02C95.6875 37.7456 95.2305 38.4029 94.6528 38.9523C94.0751 39.5017 93.3886 39.9317 92.6349 40.2163C91.8812 40.5009 91.0759 40.6342 90.2677 40.6082C89.4643 40.6113 88.6681 40.4606 87.9246 40.1649C87.1812 39.8693 86.505 39.4343 85.9347 38.885C85.3644 38.3356 84.9112 37.6826 84.6008 36.9632C84.2905 36.2438 84.1292 35.472 84.1261 34.6921C84.123 33.9122 84.2781 33.1393 84.5827 32.4175C84.8873 31.6958 85.3353 31.0394 85.9012 30.4857C86.4671 29.9321 87.1398 29.4921 87.8808 29.1908C88.6219 28.8895 89.4168 28.7329 90.2203 28.7299Z" fill="white"/>
<path d="M118.763 25.5378C118.511 25.5276 118.26 25.5661 118.023 25.6511C117.787 25.7362 117.571 25.8661 117.387 26.0333C117.203 26.2004 117.055 26.4015 116.952 26.6247C116.849 26.8479 116.793 27.0888 116.787 27.3334V36.0042C116.787 38.9585 115.206 40.6082 112.25 40.6082C109.293 40.6082 107.689 38.9354 107.689 35.9045V27.3334C107.689 26.8246 107.481 26.3367 107.11 25.9769C106.74 25.6172 106.237 25.415 105.713 25.415C105.189 25.415 104.686 25.6172 104.316 25.9769C103.945 26.3367 103.737 26.8246 103.737 27.3334V36.0042C103.737 41.0686 106.812 43.9768 112.171 43.9768C117.53 43.9768 120.723 41.0149 120.723 35.8584V27.3334C120.719 27.0895 120.665 26.849 120.563 26.6258C120.462 26.4027 120.316 26.2015 120.133 26.0341C119.95 25.8668 119.735 25.7366 119.5 25.6514C119.264 25.5662 119.014 25.5275 118.763 25.5378Z" fill="white"/>
<path d="M7.02166 25.7295C6.76284 26.0555 6.43538 26.3242 6.06113 26.5177C5.68688 26.7111 5.27445 26.8249 4.85132 26.8514C4.4282 26.8779 4.00411 26.8165 3.60737 26.6713C3.21062 26.5261 2.85033 26.3005 2.55052 26.0094C2.2507 25.7183 2.01826 25.3686 1.8687 24.9834C1.71913 24.5983 1.6559 24.1866 1.68319 23.7758C1.71047 23.365 1.82765 22.9647 2.02693 22.6013C2.22621 22.238 2.50302 21.9201 2.83886 21.6689L22.4929 2.69041C22.7517 2.36438 23.0791 2.09568 23.4534 1.90222C23.8276 1.70876 24.2401 1.59499 24.6632 1.5685C25.0863 1.54201 25.5104 1.60341 25.9071 1.74861C26.3039 1.8938 26.6642 2.11945 26.964 2.41051C27.2638 2.70156 27.4963 3.05132 27.6458 3.43648C27.7954 3.82163 27.8586 4.23332 27.8313 4.64408C27.8041 5.05484 27.6869 5.45523 27.4876 5.81855C27.2883 6.18186 27.0115 6.49976 26.6757 6.75102L7.02166 25.7295Z" fill="#FF4A00"/>
<path d="M22.5151 40.7705C22.2562 41.0965 21.9288 41.3652 21.5545 41.5587C21.1803 41.7522 20.7679 41.8659 20.3447 41.8924C19.9216 41.9189 19.4975 41.8575 19.1008 41.7123C18.704 41.5671 18.3437 41.3415 18.0439 41.0504C17.7441 40.7594 17.5117 40.4096 17.3621 40.0244C17.2125 39.6393 17.1493 39.2276 17.1766 38.8168C17.2039 38.4061 17.3211 38.0057 17.5203 37.6424C17.7196 37.279 17.9964 36.9611 18.3323 36.7099L37.9863 17.7314C38.2451 17.4054 38.5725 17.1367 38.9468 16.9432C39.321 16.7498 39.7335 16.636 40.1566 16.6095C40.5797 16.583 41.0038 16.6444 41.4006 16.7896C41.7973 16.9348 42.1576 17.1605 42.4574 17.4515C42.7572 17.7426 42.9897 18.0923 43.1392 18.4775C43.2888 18.8627 43.352 19.2743 43.3248 19.6851C43.2975 20.0959 43.1803 20.4963 42.981 20.8596C42.7817 21.2229 42.5049 21.5408 42.1691 21.792L22.5151 40.7705Z" fill="white"/>
<path d="M6.56685 11.1951C6.30802 11.5211 5.98056 11.7898 5.60631 11.9833C5.23206 12.1768 4.81961 12.2905 4.39649 12.317C3.97337 12.3435 3.5493 12.2821 3.15256 12.1369C2.75581 11.9917 2.3955 11.7661 2.09568 11.475C1.79587 11.184 1.56345 10.8342 1.41388 10.449C1.26432 10.0639 1.20106 9.6522 1.22835 9.24144C1.25564 8.83068 1.37283 8.43029 1.57212 8.06697C1.7714 7.70366 2.04818 7.38576 2.38402 7.1345L7.31245 2.35008C7.57127 2.02405 7.89873 1.75535 8.27298 1.56189C8.64723 1.36843 9.05966 1.25466 9.48278 1.22817C9.9059 1.20168 10.33 1.26308 10.7267 1.40827C11.1235 1.55347 11.4838 1.77912 11.7836 2.07017C12.0834 2.36123 12.3158 2.71099 12.4654 3.09615C12.615 3.4813 12.6782 3.893 12.6509 4.30376C12.6236 4.71452 12.5065 5.11491 12.3072 5.47823C12.1079 5.84154 11.8311 6.15943 11.4952 6.41069L6.56685 11.1951Z" fill="white"/>
<path d="M37.539 41.2698C37.2802 41.5958 36.9527 41.8646 36.5785 42.058C36.2042 42.2515 35.7918 42.3652 35.3687 42.3917C34.9455 42.4182 34.5214 42.3568 34.1247 42.2116C33.728 42.0664 33.3677 41.8408 33.0679 41.5497C32.768 41.2587 32.5356 40.9089 32.386 40.5237C32.2365 40.1386 32.1732 39.7269 32.2005 39.3161C32.2278 38.9054 32.345 38.505 32.5443 38.1417C32.7436 37.7784 33.0204 37.4605 33.3562 37.2092L38.2846 32.4248C38.5434 32.0988 38.8709 31.83 39.2451 31.6366C39.6194 31.4431 40.0318 31.3294 40.455 31.3029C40.8781 31.2764 41.3021 31.3378 41.6989 31.483C42.0956 31.6282 42.4559 31.8538 42.7558 32.1449C43.0556 32.4359 43.288 32.7857 43.4376 33.1709C43.5871 33.556 43.6504 33.9677 43.6231 34.3785C43.5958 34.7892 43.4786 35.1896 43.2793 35.5529C43.08 35.9162 42.8033 36.2341 42.4674 36.4854L37.539 41.2698Z" fill="#F6C435"/>
<path d="M42.6837 2.17632L42.5718 2.08945C42.111 1.63912 41.4883 1.37968 40.8346 1.36564H40.7227H40.6109H32.4317C32.0664 1.33904 31.6994 1.38592 31.3536 1.50336C31.0078 1.6208 30.6907 1.80627 30.4222 2.04815C30.1536 2.29002 29.9394 2.58311 29.7929 2.90906C29.6464 3.23501 29.5708 3.58681 29.5708 3.94243C29.5708 4.29806 29.6464 4.64985 29.7929 4.97579C29.9394 5.30174 30.1536 5.59483 30.4222 5.83671C30.6907 6.07858 31.0078 6.26405 31.3536 6.38149C31.6994 6.49893 32.0664 6.54582 32.4317 6.51922H33.9974L2.55551 37.0498C2.21683 37.3001 1.93726 37.618 1.73564 37.9819C1.53401 38.3459 1.41499 38.7475 1.38655 39.1599C1.35811 39.5722 1.42092 39.9856 1.57076 40.3724C1.72061 40.7592 1.95402 41.1104 2.25529 41.4024C2.55656 41.6943 2.91873 41.9203 3.31744 42.0651C3.71615 42.2098 4.14215 42.2701 4.56684 42.2417C4.99152 42.2134 5.40505 42.0971 5.77959 41.9007C6.15414 41.7043 6.48103 41.4324 6.73831 41.1032L38.1728 10.5871V12.0347C38.1454 12.3893 38.1937 12.7456 38.3147 13.0813C38.4356 13.417 38.6267 13.7248 38.8758 13.9855C39.125 14.2462 39.4269 14.4542 39.7626 14.5964C40.0984 14.7386 40.4608 14.812 40.8271 14.812C41.1934 14.812 41.5558 14.7386 41.8916 14.5964C42.2274 14.4542 42.5293 14.2462 42.7784 13.9855C43.0276 13.7248 43.2186 13.417 43.3396 13.0813C43.4606 12.7456 43.5089 12.3893 43.4815 12.0347V4.31881C43.5129 3.92717 43.458 3.53352 43.3204 3.16409C43.1829 2.79466 42.9658 2.45793 42.6837 2.17632Z" fill="#26A7FF"/>
</svg>
