<svg width="320" height="310" viewBox="0 0 320 310" fill="none" xmlns="http://www.w3.org/2000/svg">
<path d="M386.25 112.68H-49V283.87H386.25V112.68Z" fill="#4858CC"/>
<path d="M334.17 0C334.17 0 312.94 26.47 237.54 32C151.07 38.34 131.8 78.19 62.3899 53.26C23.6299 39.34 -3.01012 48.3599 -3.01012 48.3599L-3.17012 95.0999H-3.37012V154.1V196.89C-3.37012 196.89 20.3199 216.67 62.1099 216.67C103.9 216.67 141.2 187.43 204.48 186.54C283.17 185.44 333.97 216.67 333.97 216.67V145.93L334.17 145.76V0Z" fill="#EDEEEF"/>
<path d="M206.82 218.95C206.82 219.702 206.597 220.437 206.179 221.062C205.762 221.686 205.168 222.174 204.474 222.461C203.78 222.749 203.016 222.824 202.278 222.677C201.541 222.531 200.864 222.169 200.333 221.637C199.801 221.106 199.439 220.429 199.293 219.692C199.146 218.955 199.221 218.19 199.509 217.496C199.797 216.802 200.284 216.208 200.909 215.791C201.533 215.373 202.268 215.15 203.02 215.15C203.519 215.15 204.013 215.249 204.474 215.44C204.935 215.631 205.354 215.911 205.707 216.263C206.06 216.616 206.339 217.035 206.53 217.496C206.721 217.957 206.82 218.451 206.82 218.95Z" fill="#FCCD06"/>
<path d="M150.82 148.67C150.82 149.422 150.597 150.156 150.179 150.781C149.762 151.406 149.168 151.893 148.474 152.181C147.78 152.469 147.016 152.544 146.278 152.397C145.541 152.251 144.864 151.889 144.333 151.357C143.801 150.826 143.439 150.149 143.293 149.412C143.146 148.674 143.221 147.91 143.509 147.216C143.797 146.522 144.284 145.928 144.909 145.51C145.533 145.093 146.268 144.87 147.02 144.87C148.028 144.87 148.994 145.271 149.707 145.983C150.419 146.696 150.82 147.662 150.82 148.67Z" fill="#26A7FF"/>
<path d="M129.95 245.08C130.139 244.531 130.374 244 130.65 243.49C131.71 241.3 132.85 239.09 132.88 236.56C132.88 235.62 133.72 235.12 133.95 234.24C134.78 231.03 135.81 227.86 136.83 224.69C136.981 224.178 137.158 223.674 137.36 223.18C137.491 222.816 137.684 222.478 137.93 222.18C138.122 221.969 138.362 221.808 138.63 221.71C138.975 221.597 139.337 221.542 139.7 221.55C139.954 221.551 140.208 221.568 140.46 221.6L140.83 221.65C140.876 221.639 140.924 221.639 140.97 221.65C140.97 221.65 140.97 221.72 141.05 221.76H141.12L141.25 221.86C141.374 221.985 141.484 222.122 141.58 222.27C141.665 222.43 141.726 222.602 141.76 222.78C141.9 223.22 142.03 223.65 142.18 224.08C142.33 224.51 142.45 224.95 142.57 225.39C142.691 225.824 142.788 226.265 142.86 226.71C142.931 227.163 142.968 227.621 142.97 228.08C142.97 228.08 142.97 228.24 142.97 228.25L143.38 228.08C143.74 227.73 144.09 227.37 144.45 227.01C146.22 224.82 148.45 223.01 149.83 220.48C150.37 219.48 151.09 218.48 150.44 217.35C150.242 217.004 149.946 216.726 149.59 216.55C149.367 216.471 149.14 216.404 148.91 216.35H148.78C148.68 216.34 148.58 216.34 148.48 216.35H148.13C148.004 216.365 147.876 216.365 147.75 216.35C147.633 216.34 147.516 216.34 147.4 216.35C147.287 216.34 147.173 216.34 147.06 216.35C147.011 216.359 146.964 216.376 146.92 216.4H146.76L146.62 216.45C146.62 216.45 146.53 216.45 146.5 216.45C146.47 216.45 146.5 216.37 146.55 216.34C146.576 216.296 146.596 216.249 146.61 216.2C146.636 216.09 146.673 215.983 146.72 215.88C146.83 215.62 146.91 215.35 147 215.09C147 214.99 147.07 214.9 147.1 214.8C147.122 214.725 147.149 214.651 147.18 214.58C147.201 214.521 147.218 214.461 147.23 214.4C147.258 214.328 147.281 214.254 147.3 214.18C147.37 213.99 147.45 213.79 147.51 213.6C147.555 213.416 147.585 213.229 147.6 213.04C147.615 212.699 147.555 212.358 147.426 212.042C147.296 211.726 147.1 211.442 146.85 211.21C145.91 210.29 144.73 210.59 143.68 211.1C142.984 211.501 142.316 211.949 141.68 212.44L141.09 212.97L140.72 213.33L140.38 213.75L139.99 214.12C139.86 214.24 139.67 214.47 139.63 214.45C139.26 214.21 139.63 214.08 139.74 213.91L140.12 213.52L140.53 213.12L140.79 212.77L141.32 212.05L141.38 211.68C141.62 210.36 142.43 208.86 141.07 207.83C139.71 206.8 138.17 207.83 136.95 208.61C135.22 209.68 133.63 211 131.95 212.21L131.25 212.84C131.247 212.866 131.24 212.892 131.227 212.915C131.215 212.938 131.198 212.959 131.177 212.976C131.157 212.992 131.133 213.005 131.108 213.013C131.083 213.02 131.056 213.023 131.03 213.02L129.74 214.19V214.07C129.74 214.35 129.57 214.48 129.31 214.52H129.4C129.21 214.77 129.06 215.09 128.65 214.97H128.79V215.11L127.52 216.34L125.52 218.34L125.34 218.54L123.84 220.25L122.33 221.97L120.83 223.68L119.32 225.41L118.57 226.26L118.2 226.69C118.14 226.76 118.06 226.83 118.01 226.9C117.96 226.97 118.01 227.04 117.89 227.04C117.77 227.04 117.82 227.04 117.78 227.04H117.68C117.647 227.03 117.618 227.01 117.597 226.983C117.575 226.956 117.562 226.924 117.56 226.89C117.56 226.8 117.56 226.79 117.56 226.73C117.614 226.634 117.661 226.533 117.7 226.43C117.78 226.24 117.87 226.04 117.96 225.85C118.27 225.15 118.59 224.45 118.9 223.76C119.21 223.07 119.53 222.36 119.84 221.66C119.95 220.86 120.08 220.06 120.15 219.25C120.2 218.691 120.22 218.13 120.21 217.57C120.204 217.178 120.137 216.79 120.01 216.42C119.914 216.138 119.728 215.895 119.48 215.73C119.196 215.559 118.885 215.441 118.56 215.38C118.057 215.331 117.549 215.389 117.07 215.55C116.998 215.564 116.928 215.584 116.86 215.61C116.712 215.676 116.577 215.767 116.46 215.88C116.261 216.032 116.08 216.207 115.92 216.4L115.77 216.63L115.61 216.81C115.46 217 115.35 217.23 115.21 217.43C115.07 217.63 114.94 217.84 114.79 218.04L113.96 219.27C113.68 219.68 113.41 220.1 113.16 220.53C112.898 220.956 112.661 221.396 112.45 221.85C112.417 221.903 112.39 221.961 112.37 222.02C110.04 227.18 107.52 232.26 105.07 237.37C111.95 241.37 118.81 245.37 125.71 249.37C127.044 247.864 128.46 246.431 129.95 245.08Z" fill="#FEAA61"/>
<path fill-rule="evenodd" clip-rule="evenodd" d="M152.82 165.13L110.9 158.85L110.34 158.77C108.05 158.4 108.07 158.41 109.21 156.38L157.84 68.8796C163.173 59.2796 168.506 49.6896 173.84 40.1096C174.27 40.6496 174.55 40.5497 174.71 39.8997C175.145 40.0254 175.601 40.0574 176.049 39.9937C176.498 39.9299 176.927 39.7719 177.31 39.5298C177.537 39.3669 177.81 39.2793 178.09 39.2793C178.369 39.2793 178.642 39.3669 178.87 39.5298C179.05 48.7031 179.223 57.8698 179.39 67.0298C179.39 68.7298 179.39 70.4196 179.39 72.1196C177.98 71.7496 176.71 71.8297 175.82 73.1897C175.423 73.5999 175.17 74.1281 175.1 74.6946C175.029 75.261 175.145 75.8348 175.43 76.3296C176.3 77.9196 177.77 78.1697 179.43 77.9097C179.412 78.0898 179.375 78.2675 179.32 78.4397C178.55 80.0797 177.76 81.7196 176.99 83.3596C176.37 84.6696 175.19 86.0398 175.33 87.2598C175.42 88.0998 176.26 88.4698 176.96 88.7498C177.75 89.0731 178.515 89.454 179.25 89.8896C178.96 90.2896 178 90.4397 177.58 90.6597C176.68 91.1197 175.76 91.5397 174.84 91.9797C172.966 92.8797 171.1 93.7931 169.24 94.7197C165.53 96.5797 161.86 98.5296 158.29 100.63C156.29 101.803 154.333 103.023 152.42 104.29C149.11 106.48 145.83 108.75 143.42 111.93C142.36 113.157 141.657 114.652 141.389 116.252C141.121 117.851 141.298 119.494 141.9 121C143.14 124.07 145.9 125.13 149 125.59C149.375 125.636 149.752 125.663 150.13 125.67C151.463 126.024 152.854 126.105 154.22 125.91C159.22 125.68 163.97 124.35 168.82 123.36L166.66 129.29C165.14 132.36 164.28 135.68 163.04 138.85L158.9 149.32C158.77 149.67 158.63 150.02 158.51 150.38C157.39 153.71 155.84 156.88 154.99 160.3C154.276 161.88 153.553 163.49 152.82 165.13Z" fill="#FF6B00"/>
<path fill-rule="evenodd" clip-rule="evenodd" d="M238.01 78.21C239.839 83.2502 240.979 88.5144 241.4 93.8599C243.53 115.78 237.47 135.76 227.09 154.79C225.09 158.38 222.75 160.41 218.63 160.87C215.207 161.429 211.818 162.18 208.48 163.12C207.24 162.37 206.03 161.58 204.76 160.91C204.53 160.823 204.321 160.688 204.147 160.515C203.972 160.342 203.835 160.134 203.746 159.906C203.656 159.677 203.616 159.432 203.627 159.186C203.638 158.94 203.7 158.7 203.81 158.48C204.74 155.3 205.51 152.07 206.34 148.86C207.61 145.86 208.13 142.72 209.12 139.67C210.63 135.05 211.82 130.4 210.77 125.46C210.09 122.29 208.77 119.6 205.82 118.06C203.82 117.06 201.66 116.26 199.62 115.3C197.58 114.34 195.28 113.66 193.32 112.39C193.49 107.85 193.81 103.32 193.67 98.78C194.22 98.48 194.75 98.1499 195.32 97.8899L226.06 83.5999L238.01 78.21Z" fill="#FF6B00"/>
<path fill-rule="evenodd" clip-rule="evenodd" d="M200.37 31.8594C207.946 35.151 214.756 39.9797 220.37 46.0396C226.16 52.2259 230.83 59.3724 234.17 67.1594C233.79 67.9694 232.78 67.8895 232.26 68.4995C231.62 68.7395 230.96 68.9495 230.32 69.2195L193.26 84.9294C192.9 79.1694 192.14 73.4993 191.26 67.7993C190.68 63.7993 190.1 59.7994 189.45 55.8894C188.45 50.0394 187.38 44.2194 186.34 38.3794C187.1 38.3794 187.66 37.8094 188.49 37.8594C190.07 37.9494 192.02 37.6195 192.74 36.4395C193.9 34.5295 195.99 34.5593 197.38 33.3293C198.38 32.4793 198.57 34.1894 199.26 33.8694C199.95 33.5494 198.89 31.9694 200.37 31.8594Z" fill="#FF6B00"/>
<path fill-rule="evenodd" clip-rule="evenodd" d="M105.29 224.71L105.32 224.85L105.19 224.82L105.29 224.71Z" fill="#B6BBDB"/>
<path fill-rule="evenodd" clip-rule="evenodd" d="M267.07 243.49L283.22 253.25C283.211 253.363 283.169 253.471 283.1 253.56C282.37 254.34 280.82 252.35 280.44 254.34C279.44 254.34 278.86 255.22 278.38 255.67C275.81 258.01 272.92 259.901 270.21 262.041C267.5 264.181 264.52 266.22 262.8 269.43C262.6 269.81 262.29 270.27 262.53 270.66C262.77 271.05 263.32 270.76 263.73 270.66C265.38 270.39 266.65 268.99 267.5 268.09C269.23 266.27 271.55 266.36 273.34 265.09C273.88 264.72 274.58 265.25 274.34 265.69C273.15 267.4 272.62 269.471 271.1 271.041C270.26 271.911 268.83 271.98 268.49 273.93C268.19 275.6 267.12 278.11 264.49 278.59C263.96 278.69 263.31 279.45 263.59 280.01C264.17 281.15 263.4 281.01 262.77 281.23C261.68 281.67 259.87 281.65 260.7 283.72H258.18C257.89 283.01 257.61 283.09 257.32 283.72H238.02C238.021 283.534 238.048 283.349 238.1 283.17C241.987 276.03 245.873 268.89 249.76 261.75C250.07 261.17 250.92 260.51 249.76 259.87C251.18 259.33 251.65 257.99 252.32 256.81L261.65 240.23L266.01 242.86C266.109 242.911 266.219 242.939 266.33 242.94L267.07 243.49Z" fill="#0071CE"/>
<path fill-rule="evenodd" clip-rule="evenodd" d="M205.36 150.57C205.543 150.679 205.687 150.844 205.77 151.04C206.34 152.32 204.21 157.11 203.77 158.48C203.66 158.7 203.598 158.941 203.587 159.186C203.576 159.432 203.617 159.677 203.706 159.906C203.796 160.135 203.932 160.342 204.107 160.515C204.281 160.688 204.49 160.823 204.72 160.91C205.99 161.58 207.2 162.37 208.44 163.12L211.18 165.12C208.71 166.28 205.98 166.5 203.37 167.12C198.47 168.28 193.52 169.38 188.58 170.34C185.73 170.9 186.18 168.72 186.53 166.34C187.22 161.71 189.03 157.34 190.53 152.99C191.81 153.54 193.13 150.99 194.25 150.59C196.33 149.78 195.36 151.52 195.78 152.97C198.14 152.48 200.33 151.43 202.66 150.82C203.45 150.67 204.66 150.19 205.36 150.57Z" fill="#151740"/>
<path fill-rule="evenodd" clip-rule="evenodd" d="M152.82 165.13C153.533 163.523 154.247 161.913 154.96 160.299C155.787 160.408 156.626 160.242 157.349 159.826C158.072 159.41 158.638 158.769 158.96 158C159.344 157.019 160.049 156.198 160.96 155.67C161.879 155.118 162.761 154.507 163.6 153.839C164.46 153.139 165.49 152.15 166.31 153.26C166.94 154.11 165.7 154.95 165.04 155.67C162.525 158.21 160.145 160.88 157.91 163.67C157.915 163.756 157.915 163.843 157.91 163.93L158.16 163.87C160.372 163.506 162.554 162.981 164.69 162.299C166.45 161.779 168.44 161.839 169.84 160.349C169.7 162.809 168.26 164.89 167.84 167.28C167.67 168.28 168.59 168.28 169.08 168.65C171.14 170.07 173.26 171.41 175.36 172.79C169.53 174.07 163.72 175.39 157.88 176.62C154.56 177.31 151.29 178.23 147.88 178.62C149.553 174.126 151.2 169.63 152.82 165.13Z" fill="#151740"/>
<path fill-rule="evenodd" clip-rule="evenodd" d="M183.45 12.7402C183.45 11.6302 183.19 11.1902 181.97 11.2202C180.75 11.2502 180.79 11.9801 180.81 12.8401C181.036 27.2801 181.266 41.7168 181.5 56.1501C181.59 62.0101 181.73 67.8702 181.85 73.7302C182.788 73.0978 183.836 72.6467 184.94 72.4001C184.69 62.8101 184.39 53.0001 184.19 43.4001C184.11 39.2801 183.5 16.9602 183.45 12.7402Z" fill="#2D3190"/>
<path fill-rule="evenodd" clip-rule="evenodd" d="M200.37 31.8594C195.638 29.4647 190.537 27.8859 185.28 27.1895H185.09C185.108 28.4118 185.051 29.634 184.92 30.8494C184.924 30.8892 184.924 30.9296 184.92 30.9695C184.91 31.0507 184.871 31.1255 184.81 31.1794C185.34 33.5094 185.9 35.9394 186.45 38.3694C187.21 38.3694 187.77 37.7994 188.6 37.8494C190.18 37.9394 192.13 37.6094 192.85 36.4294C194.01 34.5194 196.1 34.5493 197.49 33.3193C198.49 32.4693 198.68 34.1794 199.37 33.8594C200.06 33.5394 198.89 31.9694 200.37 31.8594Z" fill="#FF6B00"/>
<path fill-rule="evenodd" clip-rule="evenodd" d="M280.44 254.34C280.82 252.34 282.37 254.34 283.1 253.56C278.84 261.12 274.576 268.677 270.31 276.23L266.06 283.8H260.67C259.84 281.73 261.67 281.75 262.74 281.31C263.37 281.05 264.14 281.23 263.56 280.09C263.28 279.53 263.93 278.77 264.46 278.67C267.08 278.19 268.15 275.67 268.46 274.01C268.8 272.01 270.23 272.01 271.07 271.12C272.59 269.55 273.12 267.48 274.31 265.77C274.6 265.33 273.9 264.77 273.31 265.17C271.52 266.4 269.2 266.31 267.47 268.17C266.62 269.07 265.35 270.47 263.7 270.74C263.29 270.81 262.8 271.2 262.5 270.74C262.2 270.28 262.57 269.89 262.77 269.51C264.49 266.3 267.46 264.26 270.18 262.12C272.9 259.98 275.78 258.12 278.35 255.75C278.83 255.3 279.44 254.38 280.41 254.42L280.53 254.49L280.44 254.34Z" fill="#0071CE"/>
<path fill-rule="evenodd" clip-rule="evenodd" d="M161.76 26.51C161.68 26.51 161.66 26.4099 161.76 26.3499C162.013 26.1006 162.295 25.8825 162.6 25.7C162.9 25.51 163.17 25.2898 163.46 25.0798C164.83 24.0798 166.24 23.1699 167.61 22.1799C169.31 20.9599 166.39 20.4398 165.39 19.8298C163.802 19.0141 162.585 17.6227 161.99 15.9399C164.124 15.9682 166.256 15.8009 168.36 15.4399C171.14 14.9099 173.82 14.0198 176.56 13.3398C177.62 13.0798 178.69 12.7198 179.75 12.5498C178.75 12.7198 178.41 16.5498 178.4 17.2998C178.41 19.2612 178.731 21.2086 179.35 23.0698C175.217 25.6411 170.414 26.9257 165.55 26.76C164.281 26.8258 163.009 26.7419 161.76 26.51Z" fill="#B6BBDB"/>
<path fill-rule="evenodd" clip-rule="evenodd" d="M178.91 39.5298C178.682 39.3669 178.41 39.2793 178.13 39.2793C177.85 39.2793 177.577 39.3669 177.35 39.5298C176.967 39.7719 176.538 39.9299 176.089 39.9937C175.641 40.0574 175.185 40.0254 174.75 39.8997L174.36 39.5198L174.26 39.4297C175.673 36.763 177.08 34.0964 178.48 31.4297L178.9 31.5596L178.91 39.5298Z" fill="#FF6B00"/>
<path fill-rule="evenodd" clip-rule="evenodd" d="M277.54 190.05C277.03 188.84 277.75 188.75 278.64 188.82C278.395 189.325 278.014 189.751 277.54 190.05Z" fill="#151740"/>
<path fill-rule="evenodd" clip-rule="evenodd" d="M174.75 39.8994C174.59 40.5494 174.31 40.6494 173.88 40.1094L174.27 39.4395L174.37 39.5295L174.76 39.9094L174.75 39.8994Z" fill="#FF6B00"/>
<path fill-rule="evenodd" clip-rule="evenodd" d="M208.17 225.92L221.33 233.63C223.017 234.799 224.792 235.836 226.64 236.73C227.22 237.38 226.9 237.98 226.57 238.6C225.456 240.68 224.353 242.766 223.26 244.86C220.986 249 218.72 253.146 216.46 257.3C211.64 266.15 197.68 292.3 192.85 301.15C182.01 301.15 171.1 298.55 160.26 298.53C160.42 298.14 170.05 282.86 169.92 282.63C169.09 281.23 169.82 281.09 170.99 280.96C171.6 280.9 172.5 280.13 172.26 279.74C171.26 278.16 172.79 278.24 173.39 278.12C174.2 277.95 174.39 277.8 173.93 277.12C173.845 276.991 173.791 276.845 173.772 276.693C173.753 276.54 173.769 276.385 173.82 276.24C174.38 273.98 176.9 273.73 178.06 272.09C178.221 272.118 178.369 272.198 178.48 272.32C178.74 272.76 178.83 272.88 179.15 272.32C180.26 270.23 180.8 267.63 183.7 267.03C183.96 266.98 184.17 266.48 184.34 266.15C187.706 259.963 191.066 253.766 194.42 247.56C197.86 242.23 200.73 236.56 203.63 230.96C204.99 229.22 205.5 226.96 207.22 225.39C207.322 225.55 207.462 225.682 207.628 225.774C207.794 225.867 207.98 225.917 208.17 225.92ZM182.61 268.2H182.75C182.75 268.2 182.75 268.1 182.75 268.08C182.75 268.06 182.67 268.08 182.62 268.02C182.57 267.96 182.62 268.16 182.61 268.2Z" fill="#76777A"/>
<path fill-rule="evenodd" clip-rule="evenodd" d="M142.96 228.36C142.96 228.56 142.96 228.76 142.96 228.96C142.959 231.787 142.755 234.611 142.35 237.41C144.21 234.87 146.74 232.93 148.35 230.17H148.3C148.45 230.3 148.58 230.27 148.69 230.1C152.46 226.21 156.06 222.1 160.25 218.67C162.59 216.73 164.7 214.44 167.74 213.47C168.23 213.255 168.759 213.144 169.295 213.144C169.83 213.144 170.359 213.255 170.85 213.47C171.85 215.06 171.27 216.67 170.95 218.28C170.85 218.42 171.29 218.86 171.32 218.77C171.94 218.35 172.54 217.88 173.19 217.51C175.95 215.92 177.74 216.79 178.19 219.93C178.36 221.38 176.89 222.31 176.89 223.84C177.154 223.803 177.414 223.746 177.67 223.67C179 223.11 180.37 223 181.26 224.26C182.15 225.52 181.76 226.9 181.01 228.16C180.252 229.389 179.406 230.562 178.48 231.67C178.253 231.956 178.013 232.236 177.76 232.51C177.473 232.746 177.215 233.014 176.99 233.31C176.872 233.561 176.717 233.794 176.53 234C176.33 234.2 176.1 234.38 175.89 234.58C175.68 234.78 175.32 235.2 175.03 235.52C174.872 235.718 174.725 235.925 174.59 236.14C174.38 236.42 174.09 236.65 173.86 236.92C173.28 237.56 172.76 238.28 172.22 238.92C171.68 239.56 171.02 240.68 170.41 241.54C170.07 242.02 169.77 242.54 169.41 243.01C168.86 243.75 168.2 244.39 167.63 245.11C166.63 246.29 165.78 247.53 164.89 248.76C164.2 249.76 163.61 250.76 162.89 251.64C162.17 252.52 161.13 253.77 160.36 254.89C159.59 256.01 158.74 256.71 157.99 257.66C157.712 258.106 157.404 258.534 157.07 258.94C156.844 259.13 156.592 259.285 156.32 259.4C155.978 259.577 155.594 259.655 155.21 259.625C154.827 259.595 154.459 259.458 154.15 259.23C153.47 258.83 152.72 258.58 152.02 258.23C150.44 257.44 148.93 256.53 147.41 255.62C146.57 255.12 145.72 254.62 144.85 254.19C140.41 251.94 136.14 249.38 131.79 246.97C129.51 245.72 129.58 245.73 130.7 243.43C131.82 241.13 132.9 239.03 132.93 236.5C132.93 235.56 133.77 235.06 134 234.18C134.83 230.97 135.86 227.8 136.88 224.63C137.03 224.14 137.2 223.63 137.39 223.18C137.511 222.843 137.687 222.529 137.91 222.25C138.088 222.034 138.314 221.863 138.57 221.75C138.863 221.62 139.179 221.549 139.5 221.54C139.956 221.543 140.411 221.587 140.86 221.67C140.92 221.664 140.98 221.664 141.04 221.67L141.2 221.78C141.288 221.845 141.363 221.926 141.42 222.02C141.545 222.17 141.652 222.335 141.74 222.51C141.795 222.652 141.835 222.799 141.86 222.95C141.96 223.38 142.13 223.8 142.26 224.21C142.39 224.62 142.53 225.05 142.64 225.48C142.756 225.904 142.846 226.335 142.91 226.77C142.981 227.21 143.018 227.654 143.02 228.1C143.011 228.189 142.991 228.276 142.96 228.36Z" fill="#B6BBDB"/>
<path fill-rule="evenodd" clip-rule="evenodd" d="M98.58 247.95C100.23 244.32 102.64 241.12 104.53 237.63C104.58 237.53 104.88 237.57 105.06 237.54C111.98 241.54 118.89 245.59 125.83 249.54C126.83 250.13 127.08 250.54 126.46 251.64C120.86 261.953 115.31 272.287 109.81 282.64C109.39 283.41 103.06 294.92 102.03 294.91C92.58 294.84 82.66 292.48 73.21 292.46C77.6 284.32 88.45 267.52 92.8 259.36C94.8 255.64 97.07 252.09 98.63 248.15C98.6108 248.133 98.5955 248.112 98.585 248.089C98.5745 248.066 98.569 248.04 98.569 248.015C98.569 247.989 98.5745 247.964 98.585 247.941C98.5955 247.918 98.6108 247.897 98.63 247.88L98.58 247.95Z" fill="#2D3190"/>
<path d="M249.82 259.959L249.47 260.01C245.47 258.01 241.64 255.579 237.76 253.309C232.94 250.499 228.1 247.689 223.29 244.859C221.017 248.999 218.75 253.146 216.49 257.299C211.67 266.149 197.71 292.299 192.88 301.149C201.63 301.149 218.25 292.649 226.99 292.649C230.26 292.649 234.79 283.819 238.05 283.809C238.051 283.623 238.078 283.438 238.13 283.26C242.017 276.12 245.903 268.979 249.79 261.839C250.07 261.259 250.92 260.599 249.82 259.959ZM231.33 278.02C231.6 278.09 231.65 278.319 231.59 278.569C231.35 278.569 231.11 278.569 231.03 278.329C231.014 278.29 231.009 278.247 231.016 278.205C231.023 278.163 231.041 278.123 231.069 278.091C231.097 278.059 231.134 278.035 231.174 278.023C231.215 278.01 231.259 278.009 231.3 278.02H231.33ZM236.24 272.569C236.224 272.524 236.224 272.475 236.24 272.429C236.24 272.429 236.32 272.429 236.36 272.429L236.42 272.559L236.24 272.569ZM245.24 263.059L245.36 263.109L245.24 263.059Z" fill="#0095DA"/>
<path d="M56.3398 283.91C55.8952 283.854 55.4478 283.824 54.9998 283.82C54.9998 282.63 70.9998 248.82 70.9998 247.67C69.8698 246.26 54.9998 238.77 48.9198 236.05C48.6398 236.47 22.5698 284.14 22.5498 284.29H56.1098C56.1789 284.159 56.2557 284.032 56.3398 283.91Z" fill="#0095DA"/>
<path d="M145.2 283.799C145.2 283.639 145.12 283.46 145.2 283.35C147.587 278.943 149.987 274.543 152.4 270.15L154.34 266.07C155.402 264.411 156.312 262.661 157.06 260.84C156.15 260.52 155.332 259.981 154.68 259.27H154.3C150.88 258.1 148.01 255.88 144.82 254.27C143.82 253.78 142.92 253.27 141.97 252.77C140.26 251.86 138.57 250.9 136.89 249.95C136.183 249.473 135.421 249.083 134.62 248.79C133.822 248.442 133.061 248.013 132.35 247.51C131.92 247.28 131.44 247.16 131 246.94C130.56 246.72 130.29 246.41 129.85 246.4C129.41 246.39 129 246.8 128.68 247.11C128.36 247.42 127.8 248.05 127.35 248.5C127.06 248.81 126.69 249.06 126.42 249.39C126.15 249.72 126.28 250 126.64 250.25C126.56 250.385 126.49 250.525 126.43 250.67C126.43 250.78 126.43 250.9 126.43 251.02C126.43 251.14 126.33 251.13 126.31 251.23C126.29 251.33 126.31 251.51 126.31 251.6C126.26 251.757 126.2 251.91 126.13 252.06C126.13 252.22 126.05 252.37 125.99 252.52C125.872 252.883 125.736 253.24 125.58 253.59C125.445 253.81 125.321 254.037 125.21 254.27C125.172 254.456 125.089 254.631 124.97 254.78C124.816 254.893 124.687 255.035 124.59 255.2L124.21 255.91C123.95 256.38 123.7 256.85 123.45 257.32L121.93 260.12C120.93 262 119.93 263.88 118.93 265.77C117.93 267.66 116.93 269.51 115.93 271.39C114.93 273.27 113.93 275.15 112.93 277.03L109.93 282.68C109.84 282.84 102.78 294.1 102.15 294.95C114.21 294.95 124.79 299.86 136.84 299.86C136.82 299.67 145.07 283.959 145.2 283.799Z" fill="#0095DA"/>
<path fill-rule="evenodd" clip-rule="evenodd" d="M125.69 212.669C124.64 211.589 123.39 211.879 122.19 212.359L121.49 212.639L120.25 213.199L119.64 213.499C119.543 213.541 119.453 213.594 119.37 213.659C119.303 213.718 119.229 213.769 119.15 213.809L118.95 213.899L118.5 214.099C118.37 214.159 118.25 214.249 118.13 214.319L117.88 214.479C117.77 214.559 117.63 214.619 117.51 214.689L117.08 214.949C117.026 214.993 116.969 215.033 116.91 215.069C116.811 215.124 116.707 215.171 116.6 215.209C116.405 215.298 116.22 215.409 116.05 215.54L115.72 215.759L115.32 216.069L115.02 216.309L114.6 216.619L113.07 217.719L111.55 218.829C111.41 219.049 111.25 219.239 111 219.009C111 219.009 111.14 218.719 111.21 218.569C112.328 217.27 113.548 216.063 114.86 214.959C114.857 214.907 114.865 214.855 114.884 214.805C114.902 214.756 114.931 214.712 114.967 214.674C115.004 214.636 115.048 214.607 115.097 214.587C115.145 214.567 115.198 214.558 115.25 214.559L115.66 213.989C115.674 213.929 115.712 213.877 115.764 213.843C115.816 213.809 115.879 213.797 115.94 213.809L116.39 213.389C117.39 212.259 118.47 211.199 119.39 209.989C120.31 208.779 121.19 207.479 120.02 206.069C118.85 204.659 117.44 205.489 116.22 206.069C114.64 206.819 113.14 207.749 111.61 208.599C111.47 208.709 111.32 208.809 111.19 208.899L105.52 213.099L105.11 213.449L104.72 213.809L104.35 214.199C104.35 214.199 104.35 214.439 104.24 214.369C104.13 214.299 104.01 214.18 104.15 214.03C104.29 213.88 104.45 213.759 104.58 213.599L104.91 213.219C105.03 213.099 105.15 212.979 105.26 212.849C106.58 211.469 107.9 210.089 109.26 208.709V208.639H109.57C109.34 208.189 109.57 208.08 109.98 208.04H109.82C109.82 207.92 109.82 207.809 109.9 207.689C110.45 206.639 111.02 205.6 111.55 204.54C111.807 204.064 111.896 203.516 111.802 202.984C111.707 202.451 111.435 201.967 111.03 201.609C110.27 200.849 109.28 201.199 108.4 201.549C106.538 202.414 104.769 203.466 103.12 204.689L101.6 205.879C101.513 206.06 101.384 206.216 101.224 206.336C101.064 206.456 100.877 206.536 100.68 206.569C100.55 206.799 100.4 206.989 100.11 206.979C99.94 207.189 99.76 207.389 99.58 207.579C99.4981 207.661 99.4213 207.748 99.35 207.839C99.3069 207.885 99.2561 207.922 99.2 207.949L99.04 208.069C98.6 208.379 98.16 208.689 97.72 209.069L96.99 209.619C96.637 209.886 96.3029 210.177 95.99 210.489C95.85 210.619 95.73 210.769 95.59 210.889C95.4665 210.985 95.3323 211.065 95.19 211.129C95.14 211.129 94.95 211.219 95 211.299C95.05 211.379 95.09 211.369 95.12 211.389L95.37 211.499L95.86 211.689C95.9816 211.739 96.0987 211.8 96.21 211.869C96.3368 211.968 96.457 212.075 96.57 212.189C96.6696 212.282 96.7481 212.394 96.8 212.52C96.8351 212.688 96.8351 212.861 96.8 213.03C96.7815 213.275 96.7481 213.518 96.7 213.759C96.6751 213.92 96.6172 214.073 96.53 214.209C96.4403 214.342 96.3696 214.487 96.32 214.639C96.2878 214.714 96.2712 214.794 96.2712 214.874C96.2712 214.955 96.2878 215.035 96.32 215.109C96.39 215.229 96.58 215.23 96.7 215.27C96.8748 215.323 97.0354 215.416 97.17 215.54C97.32 215.67 97.58 215.829 97.58 216.049C97.5673 216.126 97.5437 216.2 97.51 216.27C97.51 216.38 97.44 216.489 97.4 216.599C97.3472 216.733 97.2801 216.86 97.2 216.979C97.11 217.129 97.02 217.269 96.92 217.409C96.879 217.474 96.8321 217.534 96.78 217.589C96.7254 217.631 96.6751 217.678 96.63 217.729C96.56 217.829 96.48 217.92 96.4 218.02C96.3585 218.071 96.3115 218.118 96.26 218.159C96.2006 218.227 96.1334 218.287 96.06 218.339C95.9 218.479 95.78 218.66 95.6 218.79L95.31 218.979C95.31 218.979 95.2 219.039 95.18 219.089C95.1542 219.201 95.1066 219.306 95.04 219.399C94.9538 219.484 94.8601 219.561 94.76 219.629C94.51 219.809 94.31 220.019 94.08 220.209L93.41 220.77L92.73 221.329L92.05 221.879L91.37 222.429L90.67 222.979C90.45 223.159 90.21 223.329 89.98 223.509C89.75 223.689 89.52 223.87 89.28 224.04C89.04 224.21 88.82 224.399 88.58 224.569L87.87 225.089L87.17 225.609L86.45 226.119L85.73 226.619L85.01 227.119L84.29 227.619L83.56 228.109L82.82 228.589L82.09 229.069L81.35 229.54L80.99 229.77C80.1102 230.256 79.3592 230.945 78.7991 231.78C78.2391 232.615 77.8863 233.571 77.77 234.569L80.58 236.729L80.63 236.79C80.9055 236.81 81.1728 236.893 81.4118 237.031C81.6508 237.17 81.8553 237.36 82.01 237.589L82.66 237.989C87.62 241.189 92.5767 244.386 97.53 247.579C97.864 247.744 98.2165 247.868 98.58 247.949C100.23 244.319 102.64 241.119 104.53 237.629C104.58 237.529 104.88 237.57 105.06 237.54C107.51 232.43 110.06 227.349 112.36 222.189C112.708 221.433 113.112 220.705 113.57 220.009C114.02 219.319 114.49 218.649 114.95 218.009C115.08 217.819 115.21 217.629 115.33 217.439C115.439 217.262 115.559 217.091 115.69 216.929C115.768 216.841 115.852 216.758 115.94 216.679C116.028 216.581 116.122 216.488 116.22 216.399C116.253 216.369 116.283 216.335 116.31 216.299C116.4 216.219 116.49 216.159 116.57 216.079C116.673 215.94 116.806 215.828 116.96 215.749L117.25 215.649C117.313 215.639 117.377 215.639 117.44 215.649C117.66 215.649 117.88 215.649 118.1 215.649C118.293 215.634 118.487 215.634 118.68 215.649C118.988 215.68 119.282 215.795 119.53 215.979C119.74 216.156 119.901 216.383 120 216.639C120.121 216.984 120.189 217.345 120.2 217.709C120.23 218.226 120.23 218.743 120.2 219.259C120.195 219.329 120.195 219.4 120.2 219.469C120.13 220.279 120 221.079 119.89 221.879L120.03 221.759L121.13 220.759L122.23 219.759L123.33 218.759C123.51 218.599 123.67 218.42 123.86 218.27C123.977 218.18 124.101 218.1 124.23 218.03C124.353 217.949 124.465 217.852 124.56 217.739C124.72 217.579 124.89 217.44 125.05 217.29L125.17 217.189C125.186 217.148 125.206 217.107 125.23 217.069L125.42 216.799L125.56 216.53C125.56 216.45 125.68 216.38 125.73 216.29C125.744 216.24 125.764 216.193 125.79 216.149C125.88 216.039 125.98 215.979 126.03 215.849C126.08 215.719 126.1 215.589 126.14 215.469C126.305 215.011 126.383 214.526 126.37 214.04C126.309 213.518 126.069 213.033 125.69 212.669Z" fill="#B6BBDB"/>
<path fill-rule="evenodd" clip-rule="evenodd" d="M257.29 283.79C257.58 283.16 257.86 283.08 258.15 283.79H257.29Z" fill="#2D3190"/>
<path fill-rule="evenodd" clip-rule="evenodd" d="M192.45 211.97L191.89 212.46C191.94 212.14 192.16 212.02 192.45 211.97Z" fill="#151740"/>
<path fill-rule="evenodd" clip-rule="evenodd" d="M193.16 211.16L192.55 211.74L193.16 211.16Z" fill="#151740"/>
<path fill-rule="evenodd" clip-rule="evenodd" d="M97.0896 203.95L97.1496 203.84L97.0796 203.94L97.0896 203.95Z" fill="#151740"/>
<path fill-rule="evenodd" clip-rule="evenodd" d="M115.24 214.55L115.65 213.98L115.24 214.55Z" fill="#151740"/>
<path fill-rule="evenodd" clip-rule="evenodd" d="M182.44 123.9C181.554 126.011 180.845 128.192 180.32 130.42C180.143 130.595 179.992 130.794 179.87 131.01C177.52 138.01 175.25 145.09 172.82 152.08C171.82 154.85 171.41 157.81 169.82 160.36C168.42 161.85 166.43 161.79 164.67 162.31C163.26 162.73 156.67 165.59 157.76 162.23C158.85 158.87 156.85 160.95 154.6 161.66C155.78 157.86 157.22 154.16 158.5 150.38C158.62 150.02 158.76 149.67 158.89 149.32C159.41 149.32 159.65 148.98 159.89 148.63C161.62 146.55 163.37 144.48 165.09 142.39C167.33 139.67 169.54 136.93 171.75 134.18C172.01 133.86 172.43 133.38 172.1 133.01C171.62 132.49 171.19 133.01 170.83 133.36C168.83 135.08 166.12 135.81 164.67 138.2C164.3 138.81 163.67 138.84 162.98 138.85C164.22 135.68 165.08 132.36 166.6 129.29C167.305 129.289 167.996 129.09 168.594 128.715C169.192 128.34 169.672 127.805 169.98 127.17C170.21 126.81 170.37 126.25 170.68 126.17C171.691 125.747 172.539 125.011 173.1 124.07C173.52 123.42 174.56 122.07 174.36 121.31C175.52 121.31 176.53 119.95 177.26 119.19C178.26 118.19 179.32 117.46 180.34 116.53C181.025 115.899 181.676 115.231 182.29 114.53C182.72 114.03 183.57 113.53 183.79 112.87C184.439 112.717 185.077 112.52 185.7 112.28C187.95 111.67 190.48 111.18 192.7 112C193.263 112.266 193.79 112.602 194.27 113C194.739 113.25 195.231 113.454 195.74 113.61C197.02 114.12 198.28 114.71 199.53 115.3C201.53 116.3 203.72 117.01 205.73 118.06C208.67 119.6 210 122.29 210.68 125.46C211.73 130.4 210.54 135.05 209.03 139.67C207.72 143.67 206.93 147.89 205.44 151.81C203.39 149.49 200.26 152 198.13 152.89C197.563 153.196 196.94 153.383 196.299 153.44C195.657 153.496 195.011 153.422 194.4 153.22C193.63 152.94 193.56 152.33 192.64 152.35C191.8 152.58 191.028 153.009 190.39 153.6C191.2 149.67 192.99 145.73 194.26 141.91C194.866 139.683 195.634 137.504 196.56 135.39C196.71 135.13 196.86 134.86 197.02 134.6C197.886 132.571 199.342 130.85 201.2 129.66C201.886 129.265 202.486 128.735 202.964 128.103C203.442 127.471 203.787 126.749 203.98 125.98C204.16 125.14 203.91 124.62 203.03 125.09C201.84 125.73 201.59 125.21 201.55 124.15C201.544 124.032 201.514 123.917 201.46 123.812C201.407 123.706 201.332 123.614 201.24 123.54C200.88 123.35 200.61 123.68 200.52 123.95C199.91 125.78 197.92 126.65 197.4 128.53C195.63 128.26 194.15 126.98 192.28 127.02C190.325 125.91 188.22 125.088 186.03 124.58C184.87 124.4 183.92 122.82 182.44 123.9Z" fill="#2D3190"/>
<path fill-rule="evenodd" clip-rule="evenodd" d="M163.05 138.85C163.69 138.85 164.37 138.85 164.74 138.2C166.19 135.81 168.93 135.08 170.9 133.36C171.26 133.05 171.69 132.49 172.17 133.01C172.5 133.38 172.08 133.86 171.82 134.18C169.61 136.93 167.4 139.67 165.16 142.39C163.44 144.48 161.69 146.55 159.96 148.63C159.67 148.98 159.43 149.35 158.96 149.32L163.05 138.85Z" fill="#151740"/>
<path fill-rule="evenodd" clip-rule="evenodd" d="M234.31 74.1399C232.93 71.5299 231.81 68.68 232.31 68.5C231.67 68.74 231.01 68.95 230.37 69.22L193.31 84.9299L190.31 86.28C190.31 87.91 190.31 89.5499 190.31 91.1799C190.31 92.5299 189.76 92.6599 188.69 92.1099C186.45 90.9599 184.2 89.84 181.95 88.71C181.631 88.8822 181.296 89.0227 180.95 89.1299C180.67 89.2799 180.49 89.56 180.22 89.74L180.08 89.8098C179.751 89.8844 179.416 89.9281 179.08 89.9399C178.528 90.139 178.001 90.4007 177.51 90.72C168.842 94.6374 160.467 99.1725 152.45 104.29C149.14 106.48 145.86 108.75 143.45 111.93C142.39 113.157 141.687 114.652 141.419 116.252C141.151 117.851 141.328 119.494 141.93 121C143.17 124.07 145.93 125.13 149.03 125.59C149.405 125.636 149.782 125.663 150.16 125.67C151.493 126.024 152.884 126.106 154.25 125.91C159.25 125.68 164 124.35 168.85 123.36L169.85 122.85C169.26 122.501 168.585 122.325 167.9 122.34C168.585 122.325 169.26 122.501 169.85 122.85C171.416 122.538 172.929 121.999 174.34 121.25C173.25 119.33 171.52 117.92 170.17 116.25C169.572 115.613 169.061 114.901 168.65 114.13L160.75 114.71C158.502 115.107 156.223 115.302 153.94 115.29C152.1 116.6 152.59 113.63 154.81 114.74C157.98 113.74 160.87 111.96 164.1 111.08C167.31 109.25 170.81 108.08 174.43 106.39C174.09 107.39 173.85 108.17 173.6 108.9C174.86 108.62 175.77 107.66 176.93 107.19C177.63 106.91 178.34 106.44 179.01 107.13C179.68 107.82 179.17 108.43 178.87 109.04C178.615 109.399 178.482 109.83 178.49 110.27C179.03 109.95 179.55 109.6 180.1 109.32C180.65 109.04 181.03 108.7 181.46 109.18C181.89 109.66 181.46 110.1 181.23 110.55C181 111 180.35 111.29 180.41 111.95C181 112.44 181.41 111.87 181.93 111.72C183 111.38 183.64 111.63 183.7 112.84L191.04 111.62C191.04 110.69 190.73 103.56 190.72 103.12C190.63 99.9399 190.63 99.9398 193.67 98.8198C194.22 98.5198 194.75 98.1899 195.32 97.9299L212.11 90.1199C217.11 87.8199 222.57 85.9499 227.32 83.3699C230.63 81.5799 234.17 80.09 237.49 78.53C236.74 78.24 235.44 76.2699 234.31 74.1399ZM188.25 107.35C187.62 107.35 187.09 107.14 187.06 106.44C187.045 106.281 187.065 106.121 187.118 105.971C187.171 105.821 187.256 105.684 187.367 105.57C187.479 105.455 187.613 105.367 187.762 105.31C187.911 105.253 188.071 105.229 188.23 105.24C188.85 105.24 189.23 105.67 189.32 106.34C189.321 106.478 189.294 106.615 189.24 106.743C189.187 106.87 189.107 106.985 189.006 107.08C188.906 107.175 188.787 107.247 188.656 107.294C188.526 107.34 188.388 107.36 188.25 107.35ZM188.25 100.96C188.108 100.979 187.964 100.966 187.827 100.925C187.69 100.883 187.564 100.812 187.457 100.717C187.35 100.623 187.264 100.506 187.206 100.375C187.148 100.245 187.118 100.103 187.12 99.96C187.05 99.24 187.51 98.84 188.19 98.7C188.91 98.8 189.38 99.1899 189.34 99.9199C189.346 100.064 189.322 100.209 189.267 100.343C189.213 100.476 189.13 100.597 189.024 100.696C188.919 100.795 188.793 100.869 188.656 100.915C188.519 100.961 188.373 100.976 188.23 100.96H188.25Z" fill="#E7E8E3"/>
<path fill-rule="evenodd" clip-rule="evenodd" d="M168.82 123.36L169.82 122.85C171.387 122.538 172.899 121.999 174.31 121.25H174.71C173.54 122.99 173 125.25 170.71 126.09C170.4 126.21 170.24 126.77 170.01 127.09C169.702 127.725 169.222 128.26 168.624 128.635C168.027 129.01 167.335 129.209 166.63 129.21L168.82 123.36Z" fill="#151740"/>
<path fill-rule="evenodd" clip-rule="evenodd" d="M186.08 72.3499C187.086 72.3082 188.068 72.6679 188.81 73.3499C189.57 74.0499 191.2 73.0499 191.69 74.0699C191.94 74.5899 191.49 75.35 191.69 75.94C191.99 77.02 192.58 77.75 192.51 78.94C192.523 80.0949 192.081 81.2088 191.28 82.0401C189.86 83.3301 189.98 84.7499 190.28 86.3299C190.28 87.9599 190.28 89.6001 190.28 91.2301C190.28 92.5801 189.73 92.71 188.66 92.16C186.42 91.01 184.17 89.8901 181.92 88.7601C182.35 87.5601 182.77 86.36 183.19 85.15L183.37 84.69L182.93 84.7601C182.748 84.8556 182.546 84.9083 182.341 84.9142C182.136 84.9201 181.932 84.8789 181.745 84.794C181.558 84.7092 181.392 84.5828 181.261 84.4244C181.131 84.266 181.038 84.0797 180.99 83.88C180.901 83.6916 180.851 83.4873 180.843 83.2791C180.835 83.071 180.87 82.8632 180.944 82.6688C181.019 82.4743 181.133 82.2971 181.278 82.1478C181.423 81.9985 181.597 81.88 181.79 81.7999C184.28 80.9499 183.69 79.3601 182.91 77.7301C182.75 77.4664 182.687 77.1548 182.733 76.8497C182.778 76.5446 182.929 76.2652 183.16 76.0599C184.17 74.8199 185.12 73.5699 186.08 72.3499Z" fill="#FEAA61"/>
<path fill-rule="evenodd" clip-rule="evenodd" d="M312.15 214.02C310.8 212.38 309.04 213.28 307.47 214.02C307.416 214.054 307.365 214.094 307.32 214.139L307.08 214.229C306.435 214.489 305.807 214.789 305.2 215.129C304.59 215.459 304 215.819 303.42 216.189L301.69 217.349C301.12 217.739 300.55 218.139 299.97 218.509C299.77 218.639 299.58 218.819 299.36 218.939C299.239 219.01 299.099 219.041 298.96 219.03C298.85 219.03 298.69 218.869 298.69 218.749C298.69 218.629 298.96 218.299 299.08 218.149L299.66 217.469C300.38 216.669 301.16 215.929 301.95 215.199L303.12 214.119L303.7 213.559L303.99 213.28C303.99 213.28 304.27 213.049 304.26 213.009C305.436 212.063 306.311 210.794 306.78 209.359C306.918 209.022 306.961 208.653 306.904 208.293C306.848 207.932 306.694 207.594 306.459 207.315C306.224 207.036 305.918 206.827 305.572 206.709C305.227 206.592 304.856 206.571 304.5 206.649C303.75 206.699 303.029 206.959 302.42 207.399L302.16 207.509C301.477 207.809 300.81 208.143 300.16 208.509C299.51 208.869 298.88 209.269 298.26 209.679C297.64 210.089 297.02 210.519 296.42 210.949L294.61 212.28L292.86 213.549C292.79 213.544 292.72 213.544 292.65 213.549C292.57 213.549 292.51 213.649 292.42 213.669C292.33 213.689 292.19 213.67 292.23 213.54C292.27 213.41 292.35 213.379 292.41 213.309L292.62 213.059C293.26 212.329 293.9 211.609 294.53 210.869C295.87 209.445 296.992 207.831 297.86 206.079C298.114 205.604 298.218 205.062 298.157 204.527C298.096 203.991 297.874 203.486 297.52 203.079C296.71 202.149 295.71 202.449 294.73 202.829C293.447 203.342 292.235 204.014 291.12 204.829C286.43 208.247 282.077 212.104 278.12 216.349C279.21 217.459 279.12 218.599 278.41 219.929C276.73 223.139 274.05 225.519 271.71 228.179C270.49 229.369 269.29 230.569 268.05 231.729C265.335 234.096 263.165 237.023 261.69 240.309L266.05 242.939C266.149 242.99 266.259 243.018 266.37 243.02C266.521 243.016 266.669 243.058 266.796 243.14C266.923 243.222 267.022 243.34 267.08 243.479L283.23 253.239C286.48 247.539 289.75 241.849 292.98 236.139C293.649 234.925 294.514 233.831 295.54 232.899C300.27 228.629 304.96 224.309 309.66 220.009C310.177 219.554 310.659 219.059 311.1 218.53C312.08 217.19 313.55 215.73 312.15 214.02Z" fill="#FEAA61"/>
<path fill-rule="evenodd" clip-rule="evenodd" d="M98.6098 247.9V247.95C98.2463 247.869 97.8938 247.745 97.5598 247.58C92.5998 244.4 87.6431 241.204 82.6898 237.99L82.0398 237.59C81.8851 237.361 81.6805 237.171 81.4415 237.032C81.2025 236.894 80.9353 236.811 80.6598 236.791L80.4798 237.041C80.2298 236.821 80.4798 236.81 80.5998 236.73L77.7998 234.57C75.9998 236.98 75.1998 239.89 73.7998 242.49C72.8698 244.22 72.5198 246.25 71.0498 247.69C71.0498 248.84 70.2298 249.61 69.8598 250.59C70.0198 251.59 67.0098 257.14 66.8598 257.38C66.9598 257.64 66.7598 258.2 66.5498 258.24C63.0898 265.72 59.6265 273.197 56.1598 280.67C55.5482 281.628 55.1618 282.712 55.0298 283.84C63.2398 283.84 66.9598 292.68 75.1698 292.67C79.5598 284.53 88.4798 267.56 92.8298 259.4C94.8298 255.68 97.0998 252.13 98.6598 248.19C98.6607 248.092 98.6438 247.993 98.6098 247.9ZM79.6098 239.81V239.68L79.7298 239.75L79.6098 239.81Z" fill="#76777A"/>
<path fill-rule="evenodd" clip-rule="evenodd" d="M267.07 243.489L266.36 243.03C266.511 243.026 266.659 243.068 266.786 243.15C266.913 243.232 267.012 243.35 267.07 243.489Z" fill="#B6BBDB"/>
<path fill-rule="evenodd" clip-rule="evenodd" d="M105.29 224.71L105.19 224.82L105.32 224.85L105.29 224.71Z" fill="#151740"/>
<path fill-rule="evenodd" clip-rule="evenodd" d="M82.6598 237.99L82.0098 237.59L82.6598 237.99Z" fill="#2D3190"/>
<path fill-rule="evenodd" clip-rule="evenodd" d="M109.19 208.67L109.28 208.77L109.18 208.67H109.19Z" fill="#2D3190"/>
<path d="M98.9397 219.54H98.8896C98.8896 219.54 98.9397 219.51 98.9397 219.54Z" fill="#151740"/>
<path fill-rule="evenodd" clip-rule="evenodd" d="M110.33 207.13V207.2C110.332 207.18 110.332 207.16 110.33 207.14V207.13Z" fill="#2D3190"/>
<path fill-rule="evenodd" clip-rule="evenodd" d="M254.23 200.75C252.821 201.256 251.439 201.833 250.09 202.48L248.72 203.28L242.21 208.14L241.81 208.49L241.43 208.88L241.22 209.1L241 209.31C240.954 209.357 240.917 209.411 240.89 209.47C240.866 209.514 240.835 209.554 240.8 209.59C240.779 209.602 240.756 209.609 240.732 209.612C240.709 209.614 240.685 209.611 240.662 209.604C240.639 209.596 240.619 209.584 240.601 209.568C240.583 209.552 240.569 209.532 240.56 209.51C240.56 209.41 240.63 209.32 240.69 209.26L240.87 209.06L241.22 208.7L241.66 208.28L241.97 207.9L246.97 202.79L247.83 201.98L248.54 201.34C249.59 199.94 250.96 198.76 251.63 197.08C252.04 196.08 252.08 195.08 251.07 194.38C250.675 194.029 250.172 193.823 249.645 193.798C249.117 193.772 248.596 193.928 248.17 194.24C246.37 195.49 244.37 196.44 242.46 197.52L242.23 197.68C241.91 197.92 241.59 198.14 241.28 198.38L240.34 199.08L239.41 199.79L238.49 200.51L237.58 201.25L236.7 202.02L235.83 202.81C235.54 203.07 235.27 203.35 235 203.63C234.73 203.91 234.72 203.9 234.59 204.05C234.46 204.2 234.31 204.32 234.18 204.48C234.05 204.64 233.9 204.75 233.78 204.91C233.66 205.07 233.64 205.21 233.46 205.21C233.28 205.21 233.36 205.21 233.35 205.21C233.34 205.21 233.4 205.07 233.45 205.03C233.5 204.99 233.53 204.93 233.58 204.89L233.78 204.67C233.91 204.52 234.05 204.39 234.18 204.24L234.98 203.39C235.24 203.1 235.51 202.82 235.78 202.53L236.58 201.68C236.85 201.39 237.12 201.11 237.38 200.82L238.18 199.97L238.98 199.11L239.78 198.26L240.58 197.4C240.71 197.26 240.85 197.12 240.98 196.97L241.18 196.76L241.28 196.65C241.28 196.65 241.36 196.59 241.37 196.55C241.95 195.39 242.58 194.24 243.09 193.05C243.311 192.59 243.378 192.071 243.281 191.571C243.184 191.07 242.927 190.614 242.55 190.27C242.215 189.972 241.789 189.795 241.341 189.767C240.893 189.74 240.449 189.864 240.08 190.12C238.983 190.594 237.926 191.156 236.92 191.8C230.3 196.25 224.83 201.97 219.43 207.8C219.675 208.299 219.869 208.822 220.01 209.36C220.051 209.861 219.95 210.363 219.72 210.81C219.041 211.729 218.229 212.541 217.31 213.22C215.42 215.02 213.57 216.86 211.77 218.76C210.522 220.021 209.354 221.357 208.27 222.76C207.19 224.23 206.13 225.15 208.05 226.32C209.97 227.49 211.96 228.27 213.84 229.32C216.37 230.68 218.84 232.24 221.3 233.69C223.19 234.8 225.47 237.28 227.53 236.05C230.45 234.31 230.72 228.47 231.53 225.57C232.263 222.395 233.175 219.263 234.26 216.19C234.65 215.19 235.09 214.04 236.37 214.06C237.65 214.08 238.57 215.06 239.14 216.28C239.656 217.751 240.012 219.273 240.2 220.82C240.2 220.82 240.34 220.69 240.35 220.67L240.52 220.52L240.85 220.22L241.51 219.62C241.73 219.41 241.94 219.21 242.17 219.01L242.82 218.41L243.48 217.81L244.14 217.21L244.8 216.6L245.46 216L246.12 215.4L246.78 214.79L247.43 214.19L248.09 213.59L248.75 212.98C248.97 212.78 249.19 212.59 249.41 212.38L250.07 211.78L250.73 211.18L251.39 210.57C251.61 210.38 251.83 210.17 252.05 209.97L252.7 209.37L253.37 208.77C253.37 208.77 253.45 208.66 253.51 208.64C253.559 208.65 253.61 208.65 253.66 208.64C253.789 208.552 253.91 208.451 254.02 208.34C254.066 208.298 254.116 208.261 254.17 208.23H254.24C254.278 208.195 254.312 208.154 254.34 208.11L254.43 207.99L254.63 207.75L255.03 207.27L255.85 206.34C256.12 206.02 256.38 205.71 256.63 205.34C256.876 205.023 257.1 204.689 257.3 204.34C257.483 203.959 257.627 203.56 257.73 203.15C257.73 203.15 257.79 203.03 257.73 203C257.2 200.78 256.23 200.13 254.23 200.75Z" fill="#FDC99A"/>
<path fill-rule="evenodd" clip-rule="evenodd" d="M186.41 141.01C186.56 147.23 187.41 165.69 187.6 171.91C186.31 173.75 185.46 172.34 183.08 173.49C182.89 163.04 182.88 144.49 182.7 134.02C182.7 132.44 182.7 130.87 182.7 129.3C182.86 129.38 183.16 129.45 183.17 129.55C183.39 132.35 185.17 134.73 185.17 137.63C185.098 138.251 185.173 138.88 185.388 139.467C185.603 140.054 185.953 140.583 186.41 141.01Z" fill="#2D3190"/>
<path fill-rule="evenodd" clip-rule="evenodd" d="M189.19 156.72C190.103 148.533 191.013 140.34 191.92 132.14C192.1 130.45 192.2 128.75 192.34 127.06C194.21 127.06 195.69 128.3 197.46 128.57C198.37 128.88 198.62 129.38 198.27 130.36C197.596 131.694 197.192 133.149 197.08 134.64C196.92 134.9 196.77 135.17 196.62 135.43C195.695 137.544 194.926 139.723 194.32 141.95C193.227 145.223 192.14 148.493 191.06 151.76C190.548 153.453 189.923 155.11 189.19 156.72Z" fill="#FF6B00"/>
<path fill-rule="evenodd" clip-rule="evenodd" d="M169.82 160.36C171.39 157.81 171.82 154.85 172.82 152.08C175.25 145.08 177.52 138.08 179.87 131.01C179.992 130.794 180.144 130.595 180.32 130.42C180.44 138.073 180.563 145.723 180.69 153.37C180.69 154.37 180.69 155.27 180.69 156.23C179.12 157.03 178.84 159.09 177.13 159.84C176.885 160.086 176.725 160.403 176.671 160.746C176.617 161.089 176.673 161.441 176.83 161.75C177.55 162.96 176.91 163.57 175.97 164.15C175.77 164.27 175.42 164.51 175.44 164.55C176.58 166.72 174.32 167.07 173.49 168.17L167.82 167.29C168.26 164.9 169.7 162.82 169.82 160.36Z" fill="#FF6B00"/>
<path fill-rule="evenodd" clip-rule="evenodd" d="M158.16 163.88L157.91 163.94C157.914 163.853 157.914 163.766 157.91 163.68C158.03 163.75 158.1 163.81 158.16 163.88Z" fill="#2D3190"/>
<path fill-rule="evenodd" clip-rule="evenodd" d="M240.36 76.0398C238.99 75.5598 238.91 75.0397 240.05 73.8997C241.37 72.6297 243.27 72.3597 244.69 71.2097C243.32 71.5997 242.01 72.1596 240.69 72.6196C239.78 72.9396 239.06 72.8396 239.2 71.6196C239.284 71.2449 239.467 70.8996 239.73 70.6196C240.669 69.5647 241.83 68.7314 243.13 68.1797C241.486 68.355 239.931 69.0125 238.66 70.0696L237.81 70.8296C236.9 72.7396 237.2 73.2697 239.44 73.7397C238.44 75.7997 238.57 76.2296 240.38 76.5596C240.93 76.6596 241.95 76.0296 242.45 75.8496C243.279 75.6081 244.077 75.2726 244.83 74.8496C244.995 74.7573 245.134 74.6228 245.23 74.4597C243.65 74.5397 241.82 75.5098 240.36 76.0398Z" fill="#151740"/>
<path fill-rule="evenodd" clip-rule="evenodd" d="M248.71 64.3602C248.702 64.1336 248.643 63.9118 248.54 63.7103C247.64 61.7903 244.93 63.2001 243.62 63.8201C242.62 64.2901 241.62 64.8203 240.62 65.2203C239.62 65.6203 238.85 65.7802 239.28 64.4202C239.58 63.4202 240.28 62.0702 239.43 61.1902C237.02 58.7002 235.07 65.9703 234.01 66.9703C233.15 67.7803 231.84 68.2803 232.01 69.7103C232.297 71.9123 233 74.0399 234.08 75.9803C234.66 76.9103 235.7 78.3603 236.89 78.5103C237.89 78.6403 240.52 77.1001 241.04 76.3201L240.32 76.5103C238.51 76.1803 238.37 75.7502 239.38 73.6902C237.14 73.2202 236.84 72.6903 237.75 70.7803L238.6 70.0203C239.195 69.5063 239.87 69.0939 240.6 68.8001C240.917 68.6389 241.253 68.5181 241.6 68.4402C241.6 68.4402 242.44 68.2702 242.27 68.4402C241.983 68.6573 241.67 68.8386 241.34 68.9803L239.44 69.8902C238.55 70.3202 237.44 71.0703 237.7 72.2303C238.14 74.2803 241.56 72.0402 242.7 72.3602C242.291 72.5163 241.89 72.6932 241.5 72.8902C240.76 73.2702 239.14 74.1402 239.16 75.1402C239.16 75.8802 239.93 76.1401 240.56 76.0601C241.285 75.8401 241.991 75.5593 242.67 75.2203C243.547 74.9925 244.403 74.6913 245.23 74.3201C246.54 73.5801 246.63 72.6601 245.6 71.6001C244.73 70.7101 245.79 70.1103 245.37 69.0003C245.2 68.5803 244.5 68.1803 244.49 67.7203C244.49 67.0303 245.38 66.8702 245.9 66.6502C246.96 66.2102 248.76 65.6702 248.71 64.3602Z" fill="#FEAA61"/>
<path fill-rule="evenodd" clip-rule="evenodd" d="M280.44 254.34L280.57 254.4L280.45 254.33L280.44 254.34Z" fill="#151740"/>
<path fill-rule="evenodd" clip-rule="evenodd" d="M275.14 191.45L275.25 191.51C275.214 191.486 275.18 191.459 275.15 191.43L275.14 191.45Z" fill="#2D3190"/>
<path fill-rule="evenodd" clip-rule="evenodd" d="M174.76 39.9102L174.37 39.5303L174.76 39.9102Z" fill="#FF6B00"/>
<path fill-rule="evenodd" clip-rule="evenodd" d="M219.46 207.74C217.93 206.74 216.46 207.54 215.08 208.13C215.15 206.83 216.34 206.35 216.68 205.3C217.02 204.25 217.23 203.07 216.3 202.14C215.89 201.785 215.379 201.571 214.839 201.528C214.299 201.485 213.76 201.615 213.3 201.9C213.058 201.992 212.827 202.11 212.61 202.25C212.49 202.34 212.4 202.49 212.27 202.56C212.222 202.584 212.17 202.598 212.117 202.601C212.064 202.603 212.011 202.594 211.961 202.574C211.912 202.554 211.868 202.524 211.831 202.485C211.795 202.446 211.767 202.4 211.75 202.35C211.659 202.097 211.631 201.826 211.67 201.56C211.72 201.3 211.85 201.07 211.9 200.8C211.95 200.483 211.937 200.16 211.859 199.849C211.782 199.538 211.643 199.246 211.45 198.99C211.294 198.737 211.094 198.513 210.86 198.33C210.586 198.185 210.287 198.093 209.98 198.06C209.502 198.012 209.021 198.109 208.6 198.34C207.84 198.69 207.06 198.98 206.32 199.34C205.95 199.549 205.592 199.779 205.25 200.03C204.91 200.28 204.61 200.58 204.25 200.85C202.716 201.905 201.266 203.075 199.91 204.35C197.78 206.72 195.4 208.87 193.13 211.11L192.52 211.69V211.84L192.4 211.92L191.84 212.41H191.92C190.13 214.53 188.32 216.64 186.53 218.76L186.33 218.62C186.47 218.34 186.6 218.06 186.73 217.78C186.97 217.29 187.19 216.78 187.44 216.31C187.527 216.17 187.624 216.037 187.73 215.91C187.843 215.713 187.937 215.505 188.01 215.29C188.16 214.96 188.41 214.67 188.55 214.34C188.61 214.19 188.71 214.04 188.77 213.88C188.91 213.51 188.94 213.1 189.09 212.75C189.213 212.533 189.297 212.296 189.34 212.05C189.39 211.67 189.46 211.29 189.54 210.92C189.737 210.176 189.831 209.409 189.82 208.64C189.74 207.55 189.37 206.64 188.26 206.33C187.769 206.143 187.232 206.113 186.724 206.244C186.215 206.374 185.759 206.659 185.42 207.06C184.132 208.486 183.075 210.106 182.29 211.86L181.16 213.43C180.335 215.67 179.332 217.84 178.16 219.92C178.33 221.37 176.86 222.3 176.86 223.83C177.124 223.793 177.384 223.737 177.64 223.66C178.97 223.1 180.34 222.99 181.23 224.25C182.12 225.51 181.73 226.89 180.98 228.15C180.222 229.379 179.376 230.552 178.45 231.66C177.17 233.29 175.45 234.48 174.39 236.33C178.11 238.4 181.82 240.49 185.57 242.51C186.04 242.77 186.5 243.07 186.96 243.35C187.427 243.638 187.927 243.87 188.45 244.04C188.511 244.054 188.572 244.074 188.63 244.1L188.82 244.23C188.956 244.313 189.084 244.41 189.2 244.52L189.34 244.64L189.48 244.77C189.562 244.824 189.649 244.871 189.74 244.91C190.028 245.088 190.333 245.238 190.65 245.36C190.74 245.36 190.84 245.36 190.93 245.44C191.082 245.504 191.23 245.581 191.37 245.67L193.37 246.82L194.46 247.45C197.9 242.12 200.77 236.45 203.67 230.85C205.711 227.004 208.317 223.485 211.4 220.41C213.33 218.41 215.27 216.33 217.11 214.23C218.6 212.53 221.23 210.27 219.46 207.74Z" fill="#FEAA61"/>
<path fill-rule="evenodd" clip-rule="evenodd" d="M182.61 268.199C182.61 268.199 182.61 268.119 182.61 268.069C182.61 268.019 182.72 268.069 182.74 268.129C182.76 268.189 182.74 268.209 182.74 268.249L182.61 268.199Z" fill="#2D3190"/>
<path d="M190.35 244.9L190.26 244.85L189.92 244.66C189.765 244.56 189.605 244.47 189.44 244.39L189.15 244.23L188.9 244.08C188.75 243.97 188.58 243.9 188.43 243.8C188.37 243.76 188.306 243.727 188.24 243.7L188.12 243.63C187.97 243.55 187.79 243.53 187.64 243.46C187.357 243.315 187.063 243.195 186.76 243.1C186.59 243.078 186.425 243.031 186.27 242.96L186.11 242.88C185.78 242.71 185.46 242.5 185.11 242.31L183.87 241.64L182.62 240.95L181.38 240.27L180.15 239.59L177.45 238.08C176.626 237.566 175.775 237.099 174.9 236.68C174.584 236.548 174.24 236.5 173.9 236.54C173.38 236.54 173.25 236.89 172.9 237.2C172.55 237.51 172.51 237.67 172.29 237.91C171.61 238.65 170.78 239.3 170.17 240.1C169.85 240.53 169.5 240.92 169.17 241.36C169.04 241.56 168.83 241.69 168.69 241.89C168.55 242.09 168.45 242.21 168.32 242.37C168.02 242.71 167.79 243.1 167.48 243.44C166.99 243.97 166.58 244.57 166.08 245.09C165.74 245.458 165.429 245.853 165.15 246.27C164.85 246.67 164.54 247.07 164.22 247.45C163.951 247.798 163.664 248.132 163.36 248.45C163.199 248.574 163.051 248.715 162.92 248.87C162.56 249.32 162.2 249.8 161.8 250.23C161.11 250.98 160.43 251.74 159.8 252.53C159.45 252.93 159.12 253.35 158.8 253.75C158.509 254.101 158.264 254.487 158.07 254.9C158.001 255.008 157.92 255.109 157.83 255.2C157.75 255.29 157.71 255.42 157.62 255.49C157.537 255.545 157.463 255.612 157.4 255.69C157.33 255.78 157.28 255.88 157.21 255.97C157.14 256.06 156.88 256.43 156.69 256.64C156.487 256.824 156.312 257.036 156.17 257.27C156.025 257.538 155.847 257.787 155.64 258.01C155.49 258.18 155.37 258.35 155.21 258.51C155.05 258.67 155.01 258.74 154.9 258.85C154.79 258.96 154.62 259.07 154.51 259.19C154.4 259.31 154.42 259.47 154.35 259.59C154.47 259.69 154.56 259.83 154.68 259.94C154.984 260.232 155.32 260.49 155.68 260.71C155.92 260.85 156.22 260.91 156.45 261.07C156.68 261.23 156.64 261.6 156.55 261.87C156.356 262.337 156.125 262.789 155.86 263.22C155.58 263.73 155.3 264.22 155.01 264.75C154.72 265.28 154.47 265.6 154.25 266.04L152.31 270.12C151.83 271.02 151.31 271.91 150.85 272.8L149.38 275.49L147.91 278.17L146.45 280.86L145.72 282.2L145.35 282.87C145.25 283.05 145.29 283.19 145.24 283.38C145.199 283.486 145.152 283.589 145.1 283.69C145.04 283.79 136.59 298.08 136.65 298.18C136.71 298.28 140.77 302.12 140.91 302.1C141.05 302.08 141.65 302.77 141.73 302.84C142.44 303.47 143.11 304.15 143.81 304.84C147.09 307.84 151.25 310.48 155.81 309.74C158.89 309.25 159.91 306.45 161.34 304.03C162.22 302.632 163.224 301.317 164.34 300.1C165.62 298.6 166.68 296.97 167.82 295.36C168.33 294.65 168.82 293.96 169.28 293.23C169.74 292.5 170.03 291.8 170.43 291.12C171 290.12 171.51 289.28 171.99 288.24C172.47 287.2 172.79 286.24 173.3 285.32C173.64 284.73 174.03 284.13 174.41 283.54C174.66 283.14 174.89 282.62 175.17 282.25C176.279 280.888 176.995 279.249 177.24 277.51C177.437 276.532 177.885 275.622 178.54 274.87C179.25 273.87 179.9 272.87 180.61 271.87C181.02 271.29 181.41 270.7 181.83 270.14C182.1 269.76 182.4 269.42 182.68 269.06C182.84 268.85 182.99 268.62 183.14 268.39C183.38 268 183.6 267.58 183.82 267.17C184.04 266.76 184.11 266.46 184.29 266.12C187.656 259.933 191.016 253.737 194.37 247.53L193.64 247.11L193.28 246.89H193.17L193.06 246.79L192.89 246.69L192.58 246.52C192.4 246.4 192.22 246.29 192.05 246.16C191.974 246.091 191.894 246.028 191.81 245.97C191.759 245.93 191.705 245.893 191.65 245.86L191.53 245.77L191.23 245.57C191.015 245.41 190.791 245.263 190.56 245.13L190.38 245.02L190.35 244.9Z" fill="#FF6B00"/>
<path fill-rule="evenodd" clip-rule="evenodd" d="M171.28 218.81C171.17 218.66 171.07 218.5 170.96 218.34L171.29 218.8L171.28 218.81Z" fill="#2D3190"/>
<path fill-rule="evenodd" clip-rule="evenodd" d="M98.6298 248.17C98.6447 248.081 98.6447 247.99 98.6298 247.9C98.6106 247.917 98.5953 247.938 98.5848 247.961C98.5743 247.985 98.5688 248.01 98.5688 248.035C98.5688 248.061 98.5743 248.086 98.5848 248.109C98.5953 248.133 98.6106 248.154 98.6298 248.17Z" fill="#B6BBDB"/>
<path fill-rule="evenodd" clip-rule="evenodd" d="M79.6296 239.68L79.7496 239.75L79.6196 239.81L79.6296 239.68Z" fill="#2D3190"/>
<path fill-rule="evenodd" clip-rule="evenodd" d="M231.59 278.569C231.34 278.569 231.09 278.569 231 278.329C230.979 278.287 230.972 278.24 230.98 278.193C230.988 278.147 231.009 278.104 231.042 278.07C231.074 278.036 231.117 278.013 231.163 278.004C231.209 277.995 231.257 278.001 231.3 278.02C231.58 278.1 231.62 278.339 231.56 278.599L231.59 278.569Z" fill="#4753B1"/>
<path fill-rule="evenodd" clip-rule="evenodd" d="M236.36 272.4L236.42 272.53H236.21C236.194 272.484 236.194 272.435 236.21 272.39C236.21 272.39 236.32 272.4 236.36 272.4Z" fill="#B6BBDB"/>
<path fill-rule="evenodd" clip-rule="evenodd" d="M245.2 263.06H245.34L245.22 263.01L245.2 263.06Z" fill="#B6BBDB"/>
<path fill-rule="evenodd" clip-rule="evenodd" d="M102.82 198.119L115.82 195.439L172.64 183.669C185.48 181.003 198.32 178.356 211.16 175.729L262.43 165.089L298.54 157.669C299.15 157.539 299.75 157.239 300.35 157.669L310.03 144.439L292.47 148.169C269.403 153.049 246.326 157.923 223.24 162.79C219.3 163.61 215.42 164.789 211.38 165.089C208.91 166.249 206.18 166.459 203.57 167.089C198.12 168.379 192.57 169.409 187.14 170.639C185.6 170.989 184.33 171.249 183.96 169.209C183.96 169.019 183.61 168.879 183.43 168.709C183.79 170.709 182.89 171.619 180.87 171.809C179.07 171.979 177.31 172.459 175.53 172.809C169.71 174.089 163.89 175.419 158.05 176.639C154.74 177.339 151.46 178.249 148.05 178.639C146.95 178.889 145.85 179.159 144.74 179.389C126.433 183.283 108.12 187.153 89.7998 191C88.5298 191.27 87.9798 191.699 88.1598 193.099C88.476 196.363 88.9835 199.605 89.6798 202.809L90.5198 206.54L91.2098 206.25C92.6998 205.63 94.2098 205.079 95.4598 206.659C96.7098 208.239 95.9898 209.459 94.9498 210.659C94.7898 210.849 94.5698 210.939 94.8098 211.209C95.2498 211.719 95.7298 211.209 95.9298 211.069C97.1298 209.989 98.4298 209.019 99.5398 207.839C100.65 206.659 102.04 205.959 103.23 204.899C104.808 203.497 106.614 202.374 108.57 201.579C109.45 201.219 110.43 200.869 111.2 201.639C111.605 201.997 111.877 202.482 111.971 203.014C112.066 203.546 111.977 204.094 111.72 204.569L111.45 205.079L111.18 205.609L110.9 206.129C110.9 206.189 110.9 206.24 110.82 206.29V206.369C110.82 206.369 110.82 206.369 110.82 206.429C110.762 206.53 110.699 206.627 110.63 206.719C110.5 206.909 110.37 207.1 110.23 207.28L109.99 207.599C109.88 207.749 109.76 207.899 109.65 208.059L109.32 208.53L109.23 208.659C109.23 208.659 109.17 208.73 109.15 208.77C109.129 208.804 109.105 208.838 109.08 208.869C109.015 208.931 108.954 208.998 108.9 209.069L108.79 209.189C108.692 209.307 108.602 209.43 108.52 209.559C108.46 209.629 108.37 209.67 108.3 209.74C108.23 209.81 108.07 209.979 107.95 210.099L107.6 210.469C107.36 210.719 107.12 210.959 106.89 211.209L106.19 211.949L105.48 212.679L105.4 212.77L105.05 213.139L104.72 213.52L104.53 213.709C104.476 213.759 104.419 213.806 104.36 213.849C104.322 213.861 104.288 213.882 104.26 213.909C104.233 213.938 104.212 213.972 104.2 214.01C104.175 214.041 104.162 214.08 104.162 214.119C104.162 214.159 104.175 214.198 104.2 214.229C104.214 214.245 104.231 214.257 104.25 214.265C104.269 214.273 104.289 214.277 104.31 214.277C104.33 214.277 104.351 214.273 104.37 214.265C104.389 214.257 104.406 214.245 104.42 214.229L104.48 214.149V214.089C104.508 214.014 104.556 213.948 104.62 213.899C104.685 213.841 104.745 213.778 104.8 213.709L105.19 213.349L105.61 213L111.26 208.809C111.389 208.772 111.508 208.708 111.61 208.619L111.82 208.5L112.01 208.369C112.056 208.334 112.106 208.304 112.16 208.28L112.34 208.179C112.368 208.147 112.402 208.12 112.44 208.099L112.59 208.01L112.99 207.78L113.8 207.309L114.62 206.849C114.89 206.699 115.16 206.549 115.44 206.409L116.28 205.99H116.38C117.6 205.41 119.04 204.63 120.18 205.99C121.32 207.35 120.39 208.749 119.55 209.909C119.19 210.399 118.78 210.909 118.38 211.339L117.12 212.709L116.48 213.429C116.415 213.498 116.344 213.561 116.27 213.619C116.082 213.78 115.885 213.931 115.68 214.069C115.56 214.134 115.454 214.222 115.37 214.329C115.37 214.329 115.37 214.409 115.3 214.439C115.265 214.496 115.221 214.546 115.17 214.589L114.95 214.829C114.84 214.939 114.74 215.069 114.62 215.169L114.43 215.309C114.32 215.389 114.25 215.519 114.14 215.609C114.03 215.699 113.97 215.719 113.88 215.799L113.25 216.429L112.03 217.76L111.69 218.119C111.635 218.187 111.575 218.251 111.51 218.309C111.51 218.309 111.38 218.419 111.35 218.479C111.32 218.539 111.1 218.879 111.14 218.919C111.38 219.149 111.55 218.92 111.68 218.74L113.07 217.74L114.45 216.74C114.656 216.572 114.873 216.418 115.1 216.28C115.249 216.205 115.39 216.114 115.52 216.01C115.52 216.01 115.64 215.949 115.69 215.909C115.742 215.857 115.799 215.811 115.86 215.77L116.38 215.409C116.73 215.169 117.11 214.979 117.45 214.719C117.57 214.639 117.67 214.539 117.8 214.469L118.04 214.339L118.28 214.159L118.56 214L118.83 213.829C118.897 213.802 118.968 213.786 119.04 213.78C119.126 213.769 119.208 213.738 119.28 213.689C119.71 213.459 120.13 213.24 120.57 213.03C120.81 212.92 121.06 212.799 121.31 212.699L122.39 212.24H122.53C122.885 212.098 123.254 211.991 123.63 211.919C123.983 211.849 124.347 211.849 124.7 211.919C125.069 212.012 125.412 212.19 125.7 212.439C125.909 212.6 126.055 212.831 126.11 213.089L126.17 213.54L126.23 213.829C126.263 213.934 126.286 214.041 126.3 214.149C126.262 214.551 126.178 214.947 126.05 215.329C126.002 215.521 125.938 215.708 125.86 215.889C125.808 215.981 125.748 216.069 125.68 216.149L125.36 216.579C125.15 216.869 124.94 217.149 124.71 217.409C124.48 217.669 124.37 217.719 124.21 217.889C124.07 218.074 123.916 218.248 123.75 218.409C123.66 218.464 123.576 218.527 123.5 218.599L123.23 218.839L122.18 219.839L121.18 220.839L120.18 221.839C120.138 221.873 120.097 221.91 120.06 221.949L119.19 223.869C118.91 224.499 118.63 225.13 118.34 225.76L118.1 226.299L117.88 226.74C117.84 226.834 117.807 226.931 117.78 227.03C117.78 227.13 117.7 227.279 117.78 227.349C117.86 227.419 118.06 227.35 118.13 227.25L118.51 226.819C118.77 226.529 119.03 226.229 119.28 225.929C119.79 225.339 120.28 224.749 120.83 224.169L122.37 222.399C122.89 221.819 123.37 221.229 123.92 220.639L124.35 220.159C124.6 219.859 124.86 219.57 125.11 219.28C125.207 219.157 125.318 219.047 125.44 218.949C125.581 218.853 125.703 218.731 125.8 218.589C125.87 218.499 125.96 218.429 126.03 218.339C126.115 218.226 126.208 218.119 126.31 218.02C126.364 217.982 126.415 217.938 126.46 217.889L126.53 217.799L126.69 217.619L126.83 217.459C126.924 217.329 127.035 217.211 127.16 217.109C127.349 216.955 127.517 216.777 127.66 216.579C127.66 216.529 127.77 216.509 127.81 216.459L127.89 216.369C127.931 216.338 127.968 216.301 128 216.26L128.29 216L128.51 215.79L128.64 215.679L128.88 215.449C129.01 215.319 129.13 215.16 129.27 215.03L129.41 214.889C129.41 214.889 129.51 214.83 129.54 214.78C129.623 214.695 129.713 214.618 129.81 214.549C129.86 214.549 129.89 214.449 129.94 214.409L130.07 214.319L130.34 214.079C130.47 213.959 130.58 213.819 130.71 213.709C130.819 213.624 130.933 213.544 131.05 213.469C131.194 213.362 131.325 213.238 131.44 213.099C131.509 213.034 131.582 212.974 131.66 212.919C131.78 212.819 131.87 212.689 132 212.599L132.17 212.469C132.24 212.469 132.29 212.35 132.37 212.29L132.64 212.079L133.19 211.669C133.84 211.169 134.48 210.669 135.14 210.189C135.8 209.709 136.47 209.189 137.14 208.809C138.36 208.059 139.77 206.9 141.26 208.03C141.5 208.208 141.694 208.44 141.828 208.708C141.962 208.975 142.031 209.27 142.03 209.569C141.991 210.168 141.877 210.759 141.69 211.329C141.621 211.589 141.524 211.841 141.4 212.079C141.359 212.188 141.302 212.289 141.23 212.379L141 212.719L140.7 213.099C140.51 213.339 140.3 213.55 140.11 213.77L139.9 214C139.84 214.07 139.76 214.129 139.71 214.199C139.647 214.292 139.606 214.398 139.59 214.51C139.59 214.63 139.69 214.56 139.75 214.51C139.81 214.46 140.03 214.199 140.2 214.079C140.37 213.959 140.49 213.839 140.64 213.719C140.79 213.599 140.85 213.459 141 213.399C141.15 213.339 141.09 213.399 141.14 213.329C141.206 213.279 141.264 213.219 141.31 213.149L141.55 212.919C141.781 212.665 142.043 212.44 142.33 212.25C142.52 212.13 142.7 211.989 142.89 211.849C143.08 211.709 143.08 211.739 143.17 211.669C143.267 211.576 143.388 211.51 143.52 211.479C143.655 211.428 143.786 211.365 143.91 211.29C144.91 210.79 146.13 210.479 147.08 211.409C147.472 211.786 147.728 212.282 147.81 212.819C147.849 213.35 147.771 213.883 147.58 214.379C147.48 214.719 147.35 215.029 147.23 215.379C147.11 215.729 147.04 215.8 146.96 216.01C146.907 216.147 146.843 216.281 146.77 216.409C146.77 216.479 146.58 216.609 146.64 216.699C146.7 216.789 146.76 216.699 146.81 216.699C146.907 216.664 147.007 216.637 147.11 216.619C147.21 216.619 147.29 216.619 147.38 216.619H147.82C148.04 216.619 148.27 216.729 148.49 216.689C148.682 216.664 148.877 216.664 149.07 216.689C149.435 216.722 149.783 216.861 150.07 217.089C150.26 217.246 150.419 217.435 150.54 217.649C151.19 218.789 150.47 219.76 149.92 220.78C149.658 221.27 149.36 221.742 149.03 222.189C148.71 222.629 148.36 223.069 148.03 223.479C147.7 223.889 147.29 224.309 146.91 224.709C146.53 225.109 146.15 225.519 145.78 225.929C145.41 226.339 145.06 226.759 144.68 227.159C144.631 227.204 144.584 227.25 144.54 227.299C144.482 227.384 144.419 227.464 144.35 227.54C144.19 227.72 143.99 227.86 143.84 228.04C143.69 228.22 143.59 228.279 143.47 228.399C143.41 228.476 143.339 228.543 143.26 228.599C143.18 228.649 143.08 228.599 142.99 228.659C142.9 228.719 142.93 228.66 142.99 228.75C143.039 228.877 143.059 229.013 143.05 229.149V229.469C143.05 229.529 143.05 229.569 143.05 229.629C143.076 229.724 143.093 229.821 143.1 229.919C143.1 230.049 143.1 230.179 143.1 230.319C143.1 230.459 143.1 230.839 143.1 231.099C143.1 231.619 143.05 232.149 143.02 232.669C142.99 233.189 142.93 233.72 142.89 234.25C142.85 234.78 142.78 235.299 142.72 235.829C142.66 236.359 142.6 236.889 142.53 237.419C142.525 237.486 142.525 237.553 142.53 237.619L142.65 237.449C142.99 236.999 143.35 236.569 143.72 236.139C144.09 235.709 144.48 235.299 144.85 234.889C145.22 234.479 145.62 234.069 146 233.649L146.56 233.02C146.743 232.823 146.91 232.612 147.06 232.389C147.102 232.323 147.139 232.252 147.17 232.179C147.228 232.09 147.295 232.006 147.37 231.929C147.55 231.719 147.76 231.559 147.95 231.359C148.14 231.159 148.26 231.069 148.42 230.929C148.517 230.851 148.607 230.764 148.69 230.669C148.82 230.549 148.9 230.38 149.02 230.25L149.1 230.159C149.104 230.13 149.104 230.099 149.1 230.069C149.1 229.989 149.23 229.919 149.28 229.859C149.33 229.799 149.66 229.48 149.84 229.28L150.95 228.119L152.06 226.949C152.43 226.559 152.79 226.17 153.17 225.79C153.55 225.41 153.91 225.009 154.29 224.629C154.67 224.249 155.03 223.86 155.41 223.49L156.55 222.359C156.94 221.989 157.32 221.61 157.72 221.25C158.12 220.89 158.5 220.529 158.91 220.169C159.32 219.809 159.71 219.459 160.12 219.119L160.42 218.869C162.76 216.929 164.88 214.629 167.91 213.659C168.473 213.463 169.064 213.358 169.66 213.349C170.031 213.317 170.404 213.372 170.75 213.51C170.99 213.66 171.05 214 171.14 214.25C171.261 214.572 171.345 214.908 171.39 215.25C171.434 215.948 171.373 216.649 171.21 217.329L171.09 217.919C171.024 218.103 170.984 218.295 170.97 218.49C170.87 218.63 171.31 219.07 171.33 218.99C171.35 218.91 171.12 218.68 171.01 218.52L171.34 218.979C171.96 218.559 172.56 218.089 173.21 217.719C175.97 216.129 177.76 216.999 178.21 220.139C178.21 220.049 178.39 219.809 178.43 219.729L178.66 219.309C178.93 218.809 179.19 218.309 179.45 217.799C179.577 217.593 179.668 217.366 179.72 217.129C179.763 216.942 179.838 216.763 179.94 216.599C180.08 216.319 180.22 216.05 180.38 215.78C180.54 215.51 180.66 215.329 180.79 215.089C180.92 214.849 180.94 214.789 181.04 214.639C181.158 214.463 181.265 214.279 181.36 214.089C181.55 213.719 181.81 213.38 182.01 213.01C182.21 212.64 182.39 212.17 182.64 211.78C182.89 211.39 183.04 211.029 183.25 210.659C183.46 210.289 183.71 209.849 183.96 209.469C184.476 208.69 185.051 207.951 185.68 207.26C186.018 206.857 186.473 206.57 186.983 206.439C187.492 206.308 188.029 206.34 188.52 206.53C188.964 206.63 189.353 206.894 189.61 207.27C189.735 207.456 189.836 207.657 189.91 207.869C189.945 208.061 189.945 208.258 189.91 208.449C189.91 208.759 189.91 209.079 189.91 209.449C189.898 210.074 189.831 210.696 189.71 211.309C189.544 212.01 189.278 212.684 188.92 213.309C188.28 214.619 187.71 215.969 187.05 217.309C186.89 217.619 186.78 217.96 186.59 218.26C186.509 218.394 186.445 218.539 186.4 218.689C186.376 218.838 186.333 218.983 186.27 219.119C186.36 219.279 186.39 219.329 186.54 219.119C186.69 218.909 186.73 218.939 186.81 218.829C186.986 218.617 187.173 218.413 187.37 218.219L188.04 217.54C188.31 217.26 188.63 216.999 188.88 216.689C189.13 216.379 189.18 216.359 189.32 216.179C189.46 215.999 189.59 215.779 189.74 215.589C189.89 215.399 190.09 215.059 190.3 214.809C190.51 214.559 190.61 214.309 190.78 214.079C191.053 213.72 191.357 213.385 191.69 213.079C192.01 212.759 192.28 212.379 192.57 212.079C192.74 211.889 192.87 211.67 193.05 211.49C193.25 211.263 193.471 211.055 193.71 210.869C194.1 210.569 194.39 210.189 194.8 209.919C195.024 209.745 195.234 209.555 195.43 209.349L196.1 208.699C196.99 207.849 197.87 206.979 198.73 206.099C199.21 205.599 199.68 205.099 200.14 204.589C201.492 203.313 202.943 202.146 204.48 201.099C205.563 200.067 206.855 199.279 208.27 198.79C209.04 198.52 210.27 198.229 210.87 198.969C211.064 199.232 211.219 199.522 211.33 199.829C211.555 200.249 211.642 200.728 211.58 201.199C211.533 201.346 211.5 201.497 211.48 201.649C211.47 201.819 211.47 201.99 211.48 202.159C211.48 202.389 211.67 202.519 211.84 202.659C212.01 202.799 212.31 202.659 212.59 202.549C212.883 202.379 213.187 202.229 213.5 202.099C213.958 201.808 214.499 201.674 215.04 201.718C215.581 201.761 216.094 201.979 216.5 202.339C217.44 203.269 217.25 204.34 216.89 205.5C216.53 206.66 215.36 207.019 215.28 208.319C216.7 207.739 218.13 206.969 219.66 207.939C225.07 202.149 230.54 196.429 237.16 191.939C238.165 191.293 239.222 190.732 240.32 190.26C240.688 190.006 241.13 189.883 241.576 189.91C242.021 189.938 242.445 190.113 242.78 190.409C243.028 190.642 243.225 190.925 243.357 191.238C243.49 191.551 243.555 191.889 243.55 192.229C243.544 192.543 243.486 192.854 243.38 193.149C243.212 193.497 243.019 193.831 242.8 194.149C242.55 194.559 242.32 194.979 242.09 195.399C241.831 195.89 241.537 196.361 241.21 196.809C240.947 197.184 240.653 197.535 240.33 197.859C240.029 198.126 239.754 198.42 239.51 198.74C239.23 199.1 238.86 199.36 238.51 199.74C238.422 199.825 238.356 199.932 238.32 200.049L238.26 200.109L237.47 200.949L236.68 201.79C236.42 202.08 236.15 202.359 235.89 202.639L235.1 203.479L234.31 204.329L233.52 205.169C233.47 205.169 233.43 205.289 233.38 205.329C233.33 205.369 233.38 205.329 233.32 205.389C233.36 205.395 233.4 205.395 233.44 205.389H233.55C233.577 205.388 233.603 205.382 233.627 205.37C233.651 205.358 233.673 205.34 233.69 205.319C233.719 205.257 233.753 205.197 233.79 205.139C233.832 205.061 233.886 204.99 233.95 204.929C234.22 204.619 234.5 204.32 234.78 204.03L235.65 203.169C235.94 202.889 236.23 202.619 236.54 202.349C236.85 202.079 237.14 201.809 237.45 201.549C237.76 201.289 238.07 201.03 238.39 200.78C238.71 200.53 239.02 200.27 239.34 200.02L240.34 199.28L241.34 198.559L242.09 198.01C242.28 197.9 242.48 197.799 242.67 197.679C243.03 197.449 243.43 197.21 243.81 196.99C243.993 196.862 244.187 196.751 244.39 196.659C244.545 196.618 244.696 196.561 244.84 196.49C245.63 196.07 246.41 195.639 247.17 195.179C247.6 194.919 248.02 194.659 248.42 194.369C248.846 194.056 249.366 193.899 249.895 193.924C250.423 193.95 250.926 194.156 251.32 194.51C252.32 195.16 252.32 196.189 251.89 197.209C251.515 198.061 251.013 198.85 250.4 199.549C249.83 200.229 249.25 200.879 248.62 201.549L247.93 202.169L247.07 202.979C246.975 203.064 246.885 203.155 246.8 203.25L246.54 203.52L246 204.069L244.82 204.969L243.74 206.059L242.67 207.149L242.13 207.699L241.61 208.199L241.49 208.329C241.35 208.469 241.23 208.62 241.09 208.76C240.95 208.9 240.48 209.16 240.42 209.49C240.42 209.61 240.42 209.719 240.58 209.699C240.772 209.625 240.941 209.501 241.07 209.339C241.25 209.169 241.42 208.999 241.62 208.839C241.82 208.679 241.92 208.62 242.06 208.5C242.161 208.393 242.255 208.279 242.34 208.159C242.506 208.023 242.663 207.876 242.81 207.719C242.958 207.549 243.13 207.401 243.32 207.28L244.62 206.28L245.92 205.28L247.22 204.28L248.52 203.28L248.68 203.159H248.74C249.39 202.789 250.05 202.459 250.74 202.159C250.928 202.05 251.121 201.949 251.32 201.859C251.45 201.799 251.59 201.8 251.72 201.75C252.14 201.58 252.54 201.379 252.96 201.209C253.423 201.006 253.897 200.829 254.38 200.679C254.759 200.556 255.152 200.482 255.55 200.459C255.858 200.432 256.167 200.494 256.44 200.639C256.598 200.749 256.736 200.884 256.85 201.04C256.97 201.2 257.11 201.34 257.23 201.49C257.338 201.606 257.417 201.746 257.46 201.899C257.46 201.899 257.46 201.96 257.46 202.02C257.498 202.122 257.522 202.23 257.53 202.339C257.547 202.565 257.584 202.79 257.64 203.01C257.694 203.185 257.694 203.373 257.64 203.549L257.39 204.02C257.215 204.393 257.004 204.747 256.76 205.079C256.28 205.749 255.76 206.349 255.17 206.969C254.87 207.319 254.57 207.679 254.3 208.059C254.95 208.449 255.37 207.879 255.79 207.629C260.514 205.014 264.969 201.939 269.09 198.449C269.63 197.989 270.16 197.539 270.69 197.069C271.22 196.599 271.69 196.139 272.22 195.719C272.58 195.429 273.04 195.27 273.42 195C273.694 194.775 273.954 194.535 274.2 194.28C274.55 193.92 274.93 193.589 275.28 193.229C275.559 192.954 275.853 192.693 276.16 192.449C276.481 192.139 276.779 191.805 277.05 191.449C277.314 191.164 277.548 190.852 277.75 190.52C278.1 189.98 278.62 189.579 278.98 189.049C279.24 188.679 279.46 188.279 279.69 187.889C279.79 187.709 279.86 187.509 279.97 187.329C280.099 187.129 280.242 186.938 280.4 186.76L280.8 186.26C280.996 185.973 281.209 185.699 281.44 185.439C281.617 185.305 281.781 185.155 281.93 184.99C282.35 184.4 282.73 183.789 283.14 183.189L283.81 182.189C289.34 174.189 294.66 166.019 300.06 157.919C295.06 158.919 290.16 159.789 285.22 160.799C271.46 163.639 257.703 166.503 243.95 169.389L192.49 180.079L156.38 187.669C146.45 189.719 136.48 191.589 126.59 193.839C118.7 195.639 110.7 196.929 102.85 198.909C100.66 199.469 98.4298 199.79 96.2198 200.25C95.5298 200.4 91.3798 201.88 90.8398 201.25C90.7823 201.187 90.7413 201.112 90.7203 201.03C90.6994 200.947 90.6992 200.862 90.7198 200.78C94.3398 199.39 99.0098 198.909 102.82 198.119ZM275.15 191.449L275.22 191.51L275.12 191.459L275.15 191.449ZM237.35 178.25C238.355 178.313 239.297 178.761 239.98 179.501C240.664 180.241 241.036 181.215 241.021 182.222C241.005 183.229 240.603 184.191 239.897 184.909C239.191 185.627 238.236 186.046 237.23 186.079C236.208 186.035 235.244 185.591 234.546 184.843C233.848 184.095 233.473 183.102 233.5 182.079C233.542 181.069 233.966 180.112 234.686 179.401C235.406 178.69 236.369 178.279 237.38 178.25H237.35ZM213.1 183.469C214.114 183.503 215.074 183.934 215.774 184.669C216.473 185.404 216.856 186.385 216.84 187.399C216.814 188.147 216.568 188.871 216.133 189.48C215.697 190.089 215.092 190.555 214.392 190.821C213.692 191.087 212.93 191.14 212.2 190.974C211.47 190.808 210.805 190.431 210.289 189.889C209.773 189.346 209.429 188.664 209.299 187.927C209.17 187.19 209.261 186.431 209.561 185.745C209.861 185.059 210.357 184.478 210.987 184.073C211.616 183.668 212.351 183.458 213.1 183.469ZM187.86 188.829C188.637 188.848 189.391 189.098 190.025 189.548C190.659 189.997 191.146 190.625 191.421 191.352C191.697 192.079 191.75 192.871 191.573 193.628C191.396 194.385 190.997 195.072 190.428 195.602C189.859 196.131 189.145 196.478 188.377 196.6C187.609 196.722 186.823 196.612 186.118 196.284C185.413 195.957 184.821 195.426 184.419 194.761C184.017 194.096 183.822 193.326 183.86 192.549C183.931 191.533 184.388 190.582 185.137 189.89C185.886 189.199 186.871 188.819 187.89 188.829H187.86ZM162.33 193.669C162.833 193.663 163.333 193.757 163.799 193.948C164.265 194.138 164.688 194.42 165.043 194.778C165.397 195.135 165.676 195.56 165.863 196.028C166.05 196.496 166.141 196.996 166.13 197.5C166.08 198.475 165.657 199.394 164.949 200.066C164.241 200.739 163.301 201.114 162.325 201.114C161.348 201.114 160.409 200.739 159.701 200.066C158.993 199.394 158.57 198.475 158.52 197.5C158.513 196.996 158.607 196.497 158.796 196.031C158.985 195.564 159.265 195.14 159.62 194.783C159.974 194.427 160.397 194.144 160.862 193.953C161.328 193.762 161.827 193.665 162.33 193.669Z" fill="#2D3190"/>
<path fill-rule="evenodd" clip-rule="evenodd" d="M125.1 217.15L124.7 217.38C124.83 217.69 124.97 218 125.11 218.32C125.11 217.93 125.1 217.54 125.1 217.15Z" fill="#2D3190"/>
<path fill-rule="evenodd" clip-rule="evenodd" d="M173.53 168.17C174.36 167.07 176.62 166.72 175.48 164.55C175.48 164.55 175.81 164.27 176.01 164.15C176.95 163.57 177.59 162.96 176.87 161.75C176.713 161.441 176.657 161.09 176.711 160.747C176.765 160.404 176.925 160.087 177.17 159.84C178.88 159.09 179.17 157.03 180.73 156.23C180.81 160.14 180.86 164.05 180.99 167.96C180.99 169.16 180.53 169.3 179.51 169.12C177.53 168.76 175.53 168.48 173.53 168.17Z" fill="#FF6B00"/>
<path fill-rule="evenodd" clip-rule="evenodd" d="M186.41 141.01C185.955 140.581 185.607 140.053 185.393 139.466C185.18 138.879 185.107 138.25 185.18 137.629C185.18 134.729 183.39 132.349 183.18 129.549C183.18 129.449 182.87 129.379 182.71 129.299C182.62 127.499 182.54 125.699 182.45 123.899C183.93 122.819 184.88 124.399 186.1 124.619C186.206 130.093 186.31 135.556 186.41 141.01Z" fill="#151740"/>
<path fill-rule="evenodd" clip-rule="evenodd" d="M189.34 213.01C189.63 213.01 189.97 213.01 190.05 213.39C190.048 213.419 190.039 213.447 190.023 213.471C190.007 213.496 189.985 213.516 189.96 213.53C189.55 213.61 189.53 213.2 189.33 213.02L189.34 213.01Z" fill="#2D3190"/>
<path fill-rule="evenodd" clip-rule="evenodd" d="M153.93 115.229C153.04 115.749 152.15 116.229 151.23 116.709C150.85 116.899 148.28 118.339 149.23 116.809C148.5 116.809 146.09 117.959 145.75 116.939C145.41 115.919 147.66 115.449 148.27 115.369C149.04 115.259 151.36 115.659 149.98 114.579C149.25 114.009 147.55 114.399 147.12 113.439C146.03 111.009 154.81 114.729 154.86 114.699L153.93 115.229Z" fill="#B6BBDB"/>
<path d="M180.51 111.98C180.492 111.943 180.469 111.909 180.44 111.88L180.51 111.98Z" fill="#FEAA61"/>
<path d="M181.92 111.72C181.563 111.914 181.148 111.974 180.75 111.89C181.08 111.11 183.18 109.03 180.95 108.89C180.2 108.84 177.83 111.14 178.87 109.01C179.17 108.4 179.61 107.73 179.01 107.1C178.41 106.47 177.63 106.88 176.93 107.16C175.77 107.63 174.86 108.59 173.6 108.87C172.46 111.09 170.01 112.08 168.65 114.1C169.061 114.87 169.572 115.583 170.17 116.22C171.35 117.72 172.76 118.989 173.86 120.549C174.69 121.729 175.86 120.67 176.74 120.04C177.387 119.554 178.002 119.026 178.58 118.46C179.58 117.61 180.58 116.88 181.58 116.04C182.3 115.41 183.82 114.34 184.01 113.35C184.045 113.015 183.983 112.677 183.832 112.376C183.682 112.075 183.449 111.823 183.16 111.65C182.963 111.56 182.747 111.52 182.531 111.532C182.315 111.544 182.106 111.609 181.92 111.72Z" fill="#FEAA61"/>
<path fill-rule="evenodd" clip-rule="evenodd" d="M189.32 106.34C189.32 106.477 189.292 106.613 189.238 106.74C189.183 106.866 189.103 106.979 189.003 107.073C188.902 107.167 188.784 107.239 188.654 107.285C188.525 107.331 188.387 107.35 188.25 107.34C187.62 107.34 187.09 107.13 187.06 106.43C187.045 106.271 187.065 106.111 187.118 105.961C187.171 105.811 187.256 105.674 187.368 105.56C187.479 105.446 187.614 105.357 187.763 105.3C187.911 105.243 188.071 105.219 188.23 105.23C188.82 105.23 189.24 105.67 189.32 106.34Z" fill="#FF6B00"/>
<path fill-rule="evenodd" clip-rule="evenodd" d="M188.17 98.6699C188.89 98.7699 189.36 99.1599 189.32 99.8899C189.32 100.184 189.203 100.467 188.995 100.675C188.787 100.883 188.504 101 188.21 101C187.915 101 187.633 100.883 187.425 100.675C187.217 100.467 187.1 100.184 187.1 99.8899C187.03 99.2399 187.49 98.8399 188.17 98.6699Z" fill="#FF6B00"/>
<path fill-rule="evenodd" clip-rule="evenodd" d="M185.41 92.8897L185.01 92.5997C184.12 91.9497 183.16 91.4798 182.21 90.9098C181.67 90.5798 181.12 90.2798 180.55 89.9698C179.98 89.6598 179.89 89.9698 179.3 89.9698C180.394 90.4743 181.456 91.0453 182.48 91.6798C183.59 92.2998 184.75 92.8797 185.83 93.5697C186.26 93.8397 189.41 95.7198 189.63 95.4298C189.85 95.1398 185.7 93.0797 185.41 92.8897Z" fill="#FF6B00"/>
<path fill-rule="evenodd" clip-rule="evenodd" d="M197.08 134.67C197.192 133.179 197.596 131.725 198.27 130.39C198.62 129.39 198.37 128.91 197.46 128.6C197.98 126.72 199.97 125.85 200.58 124.02C200.67 123.75 200.94 123.42 201.3 123.61C201.392 123.684 201.467 123.777 201.52 123.882C201.574 123.987 201.604 124.102 201.61 124.22C201.61 125.28 201.9 125.8 203.09 125.16C203.97 124.69 204.22 125.21 204.04 126.05C203.847 126.819 203.502 127.541 203.024 128.173C202.546 128.805 201.946 129.335 201.26 129.73C199.402 130.92 197.946 132.642 197.08 134.67Z" fill="#151740"/>
<path fill-rule="evenodd" clip-rule="evenodd" d="M196.65 135.39C196.8 135.13 196.95 134.86 197.11 134.6C196.95 134.86 196.82 135.13 196.65 135.39Z" fill="#151740"/>
<path fill-rule="evenodd" clip-rule="evenodd" d="M191.63 77.3203C190.8 78.3803 189.86 78.9003 188.13 77.8303C189.321 77.9764 190.53 77.8003 191.63 77.3203Z" fill="#2D3190"/>
<path fill-rule="evenodd" clip-rule="evenodd" d="M181.82 81.7505C184.31 80.9005 183.72 79.3104 182.94 77.6804C182.78 77.4167 182.717 77.1054 182.763 76.8003C182.808 76.4952 182.959 76.2158 183.19 76.0105C184.237 74.9076 185.175 73.7052 185.99 72.4204C185.248 72.3076 184.491 72.3671 183.777 72.5943C183.062 72.8214 182.41 73.2103 181.87 73.7305C180.99 74.8705 181.02 73.8403 180.71 73.0603C179.32 69.5503 173.71 73.1203 175.51 76.3303C176.38 77.9203 177.85 78.1704 179.51 77.9104C179.492 78.0905 179.455 78.2682 179.4 78.4405C178.63 80.0805 177.84 81.7204 177.07 83.3604C176.45 84.6704 175.27 86.0405 175.41 87.2605C175.55 88.4805 177.07 88.7104 177.92 89.1404C178.49 89.4404 179.21 90.1405 179.92 89.9505C180.21 89.8705 180.35 89.5004 180.6 89.3404C181.02 89.0604 181.6 89.0105 181.97 88.7105L183.23 85.1004L183.41 84.6404L182.97 84.7105C182.788 84.8059 182.586 84.8586 182.381 84.8645C182.176 84.8704 181.972 84.8293 181.785 84.7444C181.598 84.6595 181.432 84.5332 181.301 84.3748C181.171 84.2164 181.078 84.0301 181.03 83.8303C180.94 83.6426 180.89 83.439 180.881 83.2312C180.873 83.0235 180.907 82.8162 180.981 82.6218C181.054 82.4275 181.167 82.2499 181.311 82.1001C181.455 81.9504 181.628 81.8316 181.82 81.7505Z" fill="#151740"/>
<path fill-rule="evenodd" clip-rule="evenodd" d="M80.6099 236.77L80.4299 237.02C80.1799 236.8 80.4299 236.79 80.5499 236.71L80.6099 236.77Z" fill="#151740"/>
<path fill-rule="evenodd" clip-rule="evenodd" d="M278.08 216.39L277.87 216.25C277.555 216.051 277.179 215.97 276.81 216.02C276.35 216.07 275.89 216.1 275.42 216.13C275.31 216.13 275.22 216.13 275.11 216.13C275.043 216.125 274.977 216.125 274.91 216.13H274.67C274.415 216.164 274.165 216.235 273.93 216.34C273.84 216.34 273.49 216.57 273.57 216.34C273.65 216.11 273.76 215.96 273.84 215.77C273.908 215.609 274.003 215.46 274.12 215.33C274.275 215.128 274.418 214.917 274.55 214.7C274.806 214.258 275.027 213.796 275.21 213.32C275.498 212.757 275.595 212.115 275.485 211.492C275.375 210.869 275.064 210.3 274.6 209.87C274.155 209.466 273.591 209.217 272.993 209.159C272.395 209.101 271.794 209.238 271.28 209.55L270.45 209.96L269.72 210.33L269.36 210.53L269.12 210.63C269.09 210.635 269.06 210.635 269.03 210.63H268.95H268.87C268.726 210.669 268.586 210.719 268.45 210.78L268.26 210.9C268.2 210.9 268.15 211.02 268.06 211C268.075 210.912 268.105 210.827 268.15 210.75C268.161 210.704 268.177 210.66 268.2 210.62L268.25 210.52C268.25 210.52 268.25 210.52 268.25 210.46C268.236 210.38 268.236 210.299 268.25 210.22C268.31 209.99 268.33 209.75 268.38 209.52C268.43 209.29 268.43 209.17 268.47 208.99C268.499 208.898 268.523 208.804 268.54 208.71C268.55 208.667 268.55 208.622 268.54 208.58C268.53 208.533 268.53 208.486 268.54 208.44C268.8 206.09 267.54 204.97 265.23 205.69C263.745 206.222 262.357 206.992 261.12 207.97C255.691 212.171 250.699 216.908 246.22 222.11C244.01 224.55 241.87 227.11 239.69 229.54C239.96 226.48 239.98 223.54 240.19 220.6C240.002 219.052 239.647 217.53 239.13 216.06C238.56 214.85 237.76 213.85 236.36 213.84C234.96 213.83 234.64 215.01 234.25 215.97C230.41 225.46 228.12 235.45 223.25 244.7C228.06 247.53 232.9 250.34 237.72 253.15C241.6 255.42 245.42 257.81 249.43 259.85L249.78 259.8C251.2 259.26 251.67 257.92 252.34 256.74L261.67 240.16C263.145 236.874 265.315 233.946 268.03 231.58C269.27 230.42 270.47 229.22 271.69 228.03C274.03 225.37 276.69 223.03 278.39 219.78C278.649 219.333 278.818 218.841 278.89 218.33C278.932 217.925 278.888 217.516 278.76 217.13C278.6 216.829 278.366 216.574 278.08 216.39Z" fill="#FDC99A"/>
<path fill-rule="evenodd" clip-rule="evenodd" d="M187.27 74.6698C186.61 74.1998 185.81 74.8499 185.55 75.4499C185.09 76.4499 186.31 76.7598 187 76.0998C187.33 75.6698 187.82 75.0898 187.27 74.6698Z" fill="#151740"/>
<path d="M98.9497 219.46L103.21 215.47" stroke="#2D3190" stroke-width="1.23" stroke-linecap="round" stroke-linejoin="round"/>
<path d="M105.19 224.82L110.67 219.54" stroke="#2D3190" stroke-width="1.23" stroke-linecap="round" stroke-linejoin="round"/>
<path d="M75.1396 215.47L87.3697 207.95" stroke="#2D3190" stroke-width="1.23" stroke-linecap="round" stroke-linejoin="round"/>
<path d="M78.6196 220.62L93.0696 211.41" stroke="#2D3190" stroke-width="1.23" stroke-linecap="round" stroke-linejoin="round"/>
<path d="M82.4399 224.57L95.4799 215.47" stroke="#2D3190" stroke-width="1.23" stroke-linecap="round" stroke-linejoin="round"/>
<path d="M131.58 221.39L138.71 215.12" stroke="#2D3190" stroke-width="1.23" stroke-linecap="round" stroke-linejoin="round"/>
<path d="M140.98 221.18L145.82 216.92" stroke="#2D3190" stroke-width="1.23" stroke-linecap="round" stroke-linejoin="round"/>
<path d="M168.34 232.34L176.42 224.57" stroke="#2D3190" stroke-width="1.23" stroke-linecap="round" stroke-linejoin="round"/>
<path d="M156.74 231.23L170.27 219.46" stroke="#2D3190" stroke-width="1.23" stroke-linecap="round" stroke-linejoin="round"/>
<path d="M198.23 216.4L210.83 203.64" stroke="#2D3190" stroke-width="1.23" stroke-linecap="round" stroke-linejoin="round"/>
<path d="M205.76 217.599L215.21 208.02" stroke="#2D3190" stroke-width="1.23" stroke-linecap="round" stroke-linejoin="round"/>
<path d="M254.86 224.14L267.46 211.37" stroke="#2D3190" stroke-width="1.23" stroke-linecap="round" stroke-linejoin="round"/>
<path d="M261.16 228.9L272.95 216.85" stroke="#2D3190" stroke-width="1.23" stroke-linecap="round" stroke-linejoin="round"/>
</svg>
