<svg width="52" height="52" viewBox="0 0 52 52" fill="none" xmlns="http://www.w3.org/2000/svg">
<path d="M51.4304 26.04C51.4304 31.0621 49.941 35.9714 47.1507 40.147C44.3604 44.3226 40.3945 47.5771 35.7545 49.4985C31.1145 51.42 26.0088 51.9219 21.0834 50.9414C16.1579 49.9609 11.6339 47.5421 8.08344 43.9902C4.53299 40.4384 2.11558 35.9131 1.13703 30.9873C0.158484 26.0615 0.662765 20.9561 2.58601 16.3169C4.50925 11.6777 7.7651 7.713 11.9418 4.92432C16.1185 2.13563 21.0283 0.648415 26.0504 0.650393C29.3842 0.650392 32.6853 1.30692 35.7652 2.58301C38.8451 3.8591 41.6434 5.72959 44.0003 8.0874C46.3572 10.4452 48.2265 13.2443 49.5014 16.3247C50.7762 19.4051 51.4317 22.7063 51.4304 26.04Z" fill="#FF6B00"/>
<path d="M29.3596 25.0801L24.5996 22.48C24.4692 22.4035 24.3207 22.3633 24.1696 22.3633C24.0184 22.3633 23.87 22.4035 23.7396 22.48C23.6081 22.5559 23.499 22.6656 23.4235 22.7974C23.348 22.9291 23.3087 23.0781 23.3096 23.23V28.4004C23.3096 28.5509 23.3482 28.6988 23.4218 28.8301C23.4953 28.9614 23.6013 29.0717 23.7296 29.1504C23.8668 29.2283 24.0218 29.2693 24.1796 29.27C24.3224 29.2713 24.4633 29.2373 24.5896 29.1704L29.3596 26.6104C29.4999 26.5366 29.6173 26.4257 29.6993 26.29C29.7813 26.1543 29.8246 25.9989 29.8246 25.8403C29.8246 25.6818 29.7813 25.5263 29.6993 25.3906C29.6173 25.2549 29.4999 25.1441 29.3596 25.0703V25.0801ZM24.5696 27.7603V23.9004L28.1296 25.8403L24.5696 27.7603Z" fill="white"/>
<path d="M36.6595 21.7202C36.5629 20.8076 36.2169 19.9395 35.6595 19.2104C35.0509 18.5697 34.2217 18.1836 33.3395 18.1304H33.2296C30.3796 17.9204 26.0796 17.9004 26.0396 17.9004C26.0396 17.9004 21.6996 17.9004 18.8196 18.1304H18.7195C17.8325 18.1864 17.0029 18.5883 16.4095 19.25C15.8879 19.9745 15.5639 20.8227 15.4695 21.7104C15.4695 21.7804 15.3096 23.5002 15.3096 25.2202V26.8301C15.3096 28.5601 15.4595 30.2801 15.4695 30.3501C15.5683 31.25 15.9144 32.1052 16.4695 32.8203C17.1026 33.4717 17.9619 33.8546 18.8696 33.8901H19.0795C20.7295 34.0401 25.8795 34.1201 26.0795 34.1201C26.0795 34.1201 30.4195 34.1201 33.2695 33.8901H33.4296C33.8633 33.8659 34.2879 33.7561 34.6792 33.5674C35.0705 33.3786 35.4206 33.1144 35.7095 32.79C36.253 32.0758 36.598 31.2309 36.7095 30.3403C36.7095 30.2703 36.8696 28.5503 36.8696 26.8203V25.2104C36.8196 23.5304 36.6695 21.8102 36.6595 21.7202ZM35.5596 26.8403C35.5596 28.4403 35.4195 30.08 35.3995 30.23C35.3371 30.8548 35.1244 31.4552 34.7795 31.98C34.5942 32.1939 34.3655 32.3664 34.1086 32.4854C33.8518 32.6043 33.5726 32.6674 33.2896 32.6704H33.1595C30.3995 32.8704 26.2596 32.9004 26.0696 32.9004C25.8796 32.9004 20.7796 32.8204 19.1796 32.6704H18.9196C18.3156 32.6581 17.7394 32.4146 17.3096 31.9902C16.9634 31.4751 16.7566 30.8791 16.7095 30.2603C16.7095 30.1403 16.5496 28.4804 16.5496 26.8604V25.25C16.5496 23.66 16.6895 22.0104 16.7095 21.8604C16.7683 21.2347 16.9813 20.6334 17.3295 20.1104C17.5211 19.8939 17.7546 19.7185 18.0159 19.5947C18.2771 19.471 18.5607 19.4013 18.8495 19.3901H18.9495C21.7495 19.1901 25.9496 19.1602 26.0596 19.1602C26.1696 19.1602 30.3795 19.1601 33.1495 19.3901H33.2896C33.8774 19.4138 34.4331 19.665 34.8395 20.0903C35.1947 20.6091 35.4052 21.2132 35.4495 21.8403C35.4495 21.9503 35.6096 23.6202 35.6096 25.2402L35.5596 26.8403Z" fill="white"/>
</svg>
