<svg width="40" height="40" viewBox="0 0 40 40" fill="none" xmlns="http://www.w3.org/2000/svg">
<path d="M36.6666 19.9987C36.6666 29.2034 29.2046 36.6654 19.9999 36.6654C10.7952 36.6654 3.33325 29.2034 3.33325 19.9987C3.33325 10.7939 10.7952 3.33203 19.9999 3.33203C29.2046 3.33203 36.6666 10.7939 36.6666 19.9987Z" fill="white"/>
<path d="M16.6666 27.4987V12.4987L26.6666 19.9987L16.6666 27.4987ZM19.9999 3.33203C17.8113 3.33203 15.644 3.76313 13.6219 4.6007C11.5998 5.43828 9.76245 6.66595 8.2148 8.21358C5.0892 11.3392 3.33325 15.5784 3.33325 19.9987C3.33325 24.419 5.0892 28.6582 8.2148 31.7839C9.76245 33.3315 11.5998 34.5592 13.6219 35.3967C15.644 36.2342 17.8113 36.6654 19.9999 36.6654C24.4203 36.6654 28.6594 34.9094 31.7851 31.7839C34.9106 28.6582 36.6666 24.419 36.6666 19.9987C36.6666 17.81 36.2354 15.6427 35.3979 13.6206C34.5604 11.5985 33.3328 9.76123 31.7851 8.21358C30.2374 6.66595 28.4001 5.43828 26.3779 4.6007C24.3559 3.76313 22.1886 3.33203 19.9999 3.33203Z" fill="#424242"/>
</svg>
