<svg width="54" height="41" viewBox="0 0 54 41" fill="none" xmlns="http://www.w3.org/2000/svg">
<path d="M48.7 0H5.09998C2.29998 0 0 2.3001 0 5.1001V35.1001C0 37.9001 2.29998 40.2 5.09998 40.2H48.7C51.5 40.2 53.8 37.9001 53.8 35.1001V5.1001C53.7 2.3001 51.5 0 48.7 0ZM50.2 35C50.2 35.8 49.5 36.5 48.7 36.5H5.09998C4.29998 36.5 3.59998 35.8 3.59998 35V5C3.59998 4.2 4.29998 3.5 5.09998 3.5H48.7C49.5 3.5 50.2 4.2 50.2 5V35Z" fill="white"/>
<path d="M35.6 19.4008L21.9 12.5007C21.2 12.1007 20.5 12.5007 20.5 13.3007V26.9008C20.5 27.7008 21.1 28.1006 21.9 27.7006L35.6 20.8007C36.3 20.4007 36.3 19.8008 35.6 19.4008Z" fill="white"/>
</svg>
