<svg width="558" height="578" viewBox="0 0 558 578" fill="none" xmlns="http://www.w3.org/2000/svg">
<mask id="mask0" mask-type="alpha" maskUnits="userSpaceOnUse" x="0" y="0" width="558" height="578">
<rect width="558" height="578" fill="#C4C4C4"/>
</mask>
<g mask="url(#mask0)">
<path d="M0 504.072C0 504.072 50.5848 500.938 104.184 486.307C186.476 463.863 258.541 466.948 317.205 468.639C426.957 471.805 436.3 447.158 537.685 441.139C639.069 435.12 698.992 438.335 698.992 438.335V-15.0002H0V504.072Z" fill="#EBEBEB"/>
<path d="M0 552.565C0 552.565 33.8664 538.035 178.891 543.766C273.459 547.497 334.676 537.421 413.624 516.595C492.572 495.769 554.348 489.624 618.62 500.268C682.893 510.913 698.992 507.21 698.992 507.21V-0.000244141H0.00613522L0 552.565Z" fill="url(#paint0_linear)"/>
<path opacity="0.7" d="M0 562.028C0 562.028 60.2934 565.544 102.463 558.683C180.383 546.003 224.448 525.616 301.038 519.511C393.966 512.105 416.741 525.022 483.808 515.268C550.875 505.513 570.318 487.402 624.881 476.014C658.473 469.007 698.992 478.501 698.992 478.501V-1.00024H0.00613549L0 562.028Z" fill="url(#paint1_linear)"/>
</g>
<defs>
<linearGradient id="paint0_linear" x1="0" y1="375.177" x2="698.961" y2="375.177" gradientUnits="userSpaceOnUse">
<stop stop-color="#7D36A8"/>
<stop offset="0.67" stop-color="#7D36A8"/>
<stop offset="1" stop-color="#7D36A8"/>
</linearGradient>
<linearGradient id="paint1_linear" x1="-32.7759" y1="448.981" x2="612.578" y2="82.1744" gradientUnits="userSpaceOnUse">
<stop stop-color="#4858CC"/>
<stop offset="0.572917" stop-color="#8B58CC"/>
<stop offset="1" stop-color="#9F58CC"/>
</linearGradient>
</defs>
</svg>
