<svg width="1600" height="592" viewBox="0 0 1600 592" fill="none" xmlns="http://www.w3.org/2000/svg">
<path d="M0 591.71C0 591.71 115.789 583.961 238.478 547.777C426.847 492.276 591.804 499.905 726.086 504.086C977.309 511.915 998.697 450.966 1230.77 436.081C1462.84 421.195 1600 429.146 1600 429.146V0H0V591.71Z" fill="#EBEBEB"/>
<path d="M0 501.292C0 501.292 77.5206 465.359 409.483 479.531C625.951 488.758 766.078 463.842 946.791 412.341C1127.5 360.839 1268.91 345.642 1416.03 371.966C1563.15 398.289 1600 389.133 1600 389.133V0H0.0140436L0 501.292Z" fill="url(#paint0_linear)"/>
<path opacity="0.7" d="M0 536.771C0 536.771 138.012 545.466 234.538 528.5C412.9 497.141 513.765 446.725 689.079 431.628C901.792 413.316 953.924 445.257 1107.44 421.135C1260.96 397.013 1305.46 352.226 1430.36 324.063C1507.25 306.735 1600 330.214 1600 330.214V0H0.0140442L0 536.771Z" fill="url(#paint1_linear)"/>
<defs>
<linearGradient id="paint0_linear" x1="0" y1="250.641" x2="1599.93" y2="250.641" gradientUnits="userSpaceOnUse">
<stop stop-color="#7D36A8"/>
<stop offset="0.67" stop-color="#7D36A8"/>
<stop offset="1" stop-color="#7D36A8"/>
</linearGradient>
<linearGradient id="paint1_linear" x1="-75.0241" y1="400.913" x2="1455.73" y2="-404.431" gradientUnits="userSpaceOnUse">
<stop stop-color="#4858CC"/>
<stop offset="0.572917" stop-color="#8B58CC"/>
<stop offset="1" stop-color="#9F58CC"/>
</linearGradient>
</defs>
</svg>
