<svg width="32" height="24" viewBox="0 0 32 24" fill="none" xmlns="http://www.w3.org/2000/svg">
<path d="M23.26 7.40148C22.5167 7.13087 21.731 6.99496 20.94 7.00014C18.38 7.00014 16.5733 8.29081 16.56 10.1401C16.544 11.5001 17.8453 12.2655 18.828 12.7215C19.8373 13.1881 20.1747 13.4815 20.172 13.9015C20.1653 14.5375 19.3653 14.8255 18.6227 14.8255C17.6013 14.8255 17.0413 14.6828 16.1813 14.3255L15.8627 14.1775L15.5013 16.3081C16.1227 16.5681 17.2427 16.7908 18.4013 16.8081C21.1227 16.8081 22.9013 15.5268 22.9227 13.5561C22.944 12.4721 22.2427 11.6495 20.7613 10.9721C19.8627 10.5321 19.3027 10.2375 19.3027 9.79081C19.3027 9.39614 19.7813 8.97481 20.7813 8.97481C21.4464 8.95886 22.1073 9.08288 22.7213 9.33881L22.9613 9.44681L23.3227 7.38814L23.26 7.40148ZM29.904 7.17481H27.904C27.2813 7.17481 26.816 7.34414 26.5427 7.96281L22.696 16.6748H25.4173L25.9613 15.2481L29.2813 15.2508C29.3627 15.5841 29.6013 16.6748 29.6013 16.6748H32L29.904 7.17481ZM12.88 7.09481H15.4707L13.8507 16.6001H11.2587L12.88 7.09214V7.09481ZM6.29467 12.3335L6.564 13.6535L9.09867 7.17481H11.844L7.76267 16.6615H5.024L2.784 8.62681C2.74787 8.4944 2.66185 8.38115 2.544 8.31081C1.73836 7.89233 0.883805 7.57567 0 7.36814L0.0333333 7.16814H4.208C4.77333 7.18948 5.22933 7.36814 5.38533 7.97348L6.29467 12.3375V12.3335ZM26.7053 13.3028L27.7387 10.6441C27.7253 10.6708 27.952 10.0948 28.0827 9.73748L28.26 10.5575L28.8587 13.3001H26.7053V13.3028Z" fill="#0F3A79"/>
</svg>
