<svg width="40" height="40" viewBox="0 0 40 40" fill="none" xmlns="http://www.w3.org/2000/svg">
<circle cx="20" cy="20" r="20" fill="#4858CC"/>
<path d="M28.3998 11.834H11.5998C10.8572 11.834 10.145 12.129 9.61991 12.6541C9.0948 13.1792 8.7998 13.8914 8.7998 14.634V25.932C8.7998 26.6746 9.0948 27.3868 9.61991 27.9119C10.145 28.437 10.8572 28.732 11.5998 28.732H28.3998C28.7675 28.732 29.1316 28.6596 29.4713 28.5189C29.811 28.3781 30.1197 28.1719 30.3797 27.9119C30.6397 27.6519 30.846 27.3432 30.9867 27.0035C31.1274 26.6638 31.1998 26.2997 31.1998 25.932V14.634C31.1998 14.2663 31.1274 13.9022 30.9867 13.5625C30.846 13.2228 30.6397 12.9141 30.3797 12.6541C30.1197 12.3941 29.811 12.1878 29.4713 12.0471C29.1316 11.9064 28.7675 11.834 28.3998 11.834ZM28.3998 14.634V17.336H11.5998V14.634H28.3998ZM11.5998 25.932V21.536H28.3998V25.946L11.5998 25.932Z" fill="white"/>
</svg>
