<svg width="52" height="52" viewBox="0 0 52 52" fill="none" xmlns="http://www.w3.org/2000/svg">
<path d="M26.1471 51.4331C40.1696 51.4331 51.5371 40.0655 51.5371 26.043C51.5371 12.0205 40.1696 0.65332 26.1471 0.65332C12.1246 0.65332 0.75708 12.0205 0.75708 26.043C0.75708 40.0655 12.1246 51.4331 26.1471 51.4331Z" fill="#0095DA"/>
<path d="M27.5599 37.4303H24.1699C23.9047 37.4303 23.6503 37.3249 23.4628 37.1373C23.2752 36.9498 23.1699 36.6955 23.1699 36.4303V28.7203H21.1699C20.9047 28.7203 20.6503 28.6149 20.4628 28.4274C20.2752 28.2398 20.1699 27.9856 20.1699 27.7203V24.4405C20.1699 24.1753 20.2752 23.9206 20.4628 23.733C20.6503 23.5455 20.9047 23.4405 21.1699 23.4405H23.1699V21.7203C23.1141 20.2436 23.6464 18.8051 24.6499 17.7203C25.1666 17.2122 25.7818 16.8152 26.4576 16.5538C27.1335 16.2924 27.8558 16.1721 28.58 16.2003H31.1699C31.4351 16.2003 31.6895 16.3057 31.8771 16.4933C32.0646 16.6808 32.1699 16.9351 32.1699 17.2003V20.2003C32.1699 20.4655 32.0646 20.7198 31.8771 20.9073C31.6895 21.0949 31.4351 21.2003 31.1699 21.2003H29.4199C28.8899 21.2003 28.7599 21.3105 28.7299 21.3405C28.6999 21.3705 28.6199 21.5503 28.6199 21.9703V23.2701H31.0399C31.2148 23.2716 31.3865 23.3166 31.5399 23.4005C31.7026 23.4871 31.8382 23.6167 31.9318 23.7755C32.0253 23.9343 32.0731 24.1161 32.0699 24.3004V27.7203C32.0699 27.9856 31.9645 28.2398 31.777 28.4274C31.5894 28.6149 31.3352 28.7203 31.0699 28.7203H28.6499V36.3805C28.6577 36.5239 28.6345 36.6673 28.5819 36.8009C28.5293 36.9345 28.4486 37.0553 28.3452 37.1549C28.2418 37.2545 28.118 37.3305 27.9825 37.378C27.847 37.4256 27.7029 37.4434 27.5599 37.4303ZM24.3799 36.1803H27.3799V28.1803C27.3799 28.0901 27.3978 28.0008 27.4326 27.9176C27.4674 27.8344 27.5184 27.7592 27.5826 27.6959C27.6468 27.6326 27.723 27.583 27.8066 27.5494C27.8903 27.5159 27.9798 27.4988 28.0699 27.5001H30.83V24.6403H28.0699C27.9798 24.6416 27.8903 24.625 27.8066 24.5914C27.723 24.5578 27.6468 24.5082 27.5826 24.4449C27.5184 24.3817 27.4674 24.3059 27.4326 24.2228C27.3978 24.1396 27.3799 24.0507 27.3799 23.9606V22.1002C27.3372 21.8278 27.3594 21.5494 27.4448 21.2872C27.5302 21.0251 27.6764 20.7869 27.8713 20.5919C28.0663 20.397 28.3046 20.2506 28.5668 20.1652C28.8289 20.0798 29.1075 20.0575 29.3799 20.1002H30.9099V17.4801H28.5399C27.9719 17.4411 27.4021 17.5266 26.8704 17.7301C26.3386 17.9336 25.8576 18.2505 25.4607 18.6588C25.0638 19.0671 24.7606 19.557 24.5723 20.0944C24.3839 20.6317 24.3148 21.2034 24.3699 21.7701V23.9703C24.3712 24.06 24.3546 24.1489 24.3209 24.2321C24.2872 24.3152 24.2371 24.3908 24.1737 24.4542C24.1103 24.5176 24.0349 24.5675 23.9518 24.6012C23.8687 24.6349 23.7796 24.6519 23.6899 24.6505H21.3599V27.5104H23.6899C23.7796 27.509 23.8687 27.5255 23.9518 27.5592C24.0349 27.5929 24.1103 27.6432 24.1737 27.7067C24.2371 27.7701 24.2872 27.8452 24.3209 27.9283C24.3546 28.0115 24.3712 28.1009 24.3699 28.1905L24.3799 36.1803Z" fill="white"/>
</svg>
