<svg width="36" height="36" viewBox="0 0 36 36" fill="none" xmlns="http://www.w3.org/2000/svg">
<rect width="36" height="36" rx="18" fill="#539EFF"/>
<g clip-path="url(#clip0)">
<path d="M19.3501 27.9609H16.1411C15.605 27.9609 15.169 27.5258 15.169 26.9908V19.7667H13.2968C12.7607 19.7667 12.3247 19.3313 12.3247 18.7965V15.701C12.3247 15.166 12.7607 14.7308 13.2968 14.7308H15.169V13.1807C15.169 11.6436 15.6526 10.336 16.5673 9.39923C17.4862 8.45822 18.7702 7.96094 20.2808 7.96094L22.7282 7.9649C23.2633 7.96582 23.6985 8.401 23.6985 8.93506V11.8092C23.6985 12.3442 23.2627 12.7794 22.7268 12.7794L21.079 12.78C20.5764 12.78 20.4485 12.8805 20.4211 12.9113C20.376 12.9625 20.3224 13.107 20.3224 13.506V14.7307H22.603C22.7747 14.7307 22.941 14.7729 23.0839 14.8526C23.3923 15.0245 23.584 15.3497 23.584 15.7011L23.5828 18.7967C23.5828 19.3313 23.1468 19.7665 22.6108 19.7665H20.3224V26.9908C20.3224 27.5258 19.8862 27.9609 19.3501 27.9609ZM16.3438 26.7885H19.1474V19.2418C19.1474 18.8846 19.4387 18.594 19.7964 18.594H22.408L22.4091 15.9033H19.7963C19.4385 15.9033 19.1474 15.6128 19.1474 15.2556V13.506C19.1474 13.0479 19.194 12.527 19.5405 12.1354C19.9591 11.6621 20.6188 11.6075 21.0787 11.6075L22.5238 11.6069V9.13709L20.2798 9.13342C17.8523 9.13342 16.3438 10.6843 16.3438 13.1807V15.2556C16.3438 15.6126 16.0527 15.9033 15.6949 15.9033H13.4995V18.594H15.6949C16.0527 18.594 16.3438 18.8846 16.3438 19.2418V26.7885ZM22.7259 9.13739H22.726H22.7259Z" fill="white"/>
</g>
<defs>
<clipPath id="clip0">
<rect width="20" height="20" fill="white" transform="translate(8 8)"/>
</clipPath>
</defs>
</svg>
