<svg width="768" height="472" viewBox="0 0 768 472" fill="none" xmlns="http://www.w3.org/2000/svg">
<path d="M768 0H0L0.0875854 471.98H768V0Z" fill="#4858CC"/>
<path fill-rule="evenodd" clip-rule="evenodd" d="M605.719 91.1365C603.003 89.024 601.302 85.6676 597.769 84.512C594.848 83.4266 592.034 82.0713 589.363 80.4636C590.313 79.7276 591.94 80.0144 593.103 80.0438H594.943L596.842 79.9777L599.624 80.0295H600.095C601.98 80.0663 603.871 80.0957 605.763 80.1545C607.772 80.2134 606.918 68.9957 606.977 67.4794C607.014 66.5005 607.088 65.5436 607.095 64.5352C607.156 63.3981 607.072 62.2579 606.845 61.142C606.676 60.6861 606.611 60.1984 606.654 59.7141C606.674 59.2699 606.624 58.8253 606.506 58.3966C606.468 58.2435 606.419 58.0935 606.359 57.9477C606.009 56.8518 605.487 55.8182 604.813 54.8855C604.319 54.1445 603.783 53.4319 603.209 52.751C602.672 52.1773 602.072 51.6659 601.42 51.2272C594.707 46.5532 586.103 50.0422 583.755 57.815C583.514 58.6407 583.318 59.4787 583.166 60.3251C583.039 60.3104 582.91 60.3104 582.783 60.3251C579.331 60.936 579.294 78.7855 581.753 80.1987C582.489 80.6109 583.225 81.0008 583.961 81.3762C585.433 82.1122 586.905 82.8485 588.421 83.4963L589.695 84.0336L590.328 84.2985C590.528 84.402 590.737 84.4857 590.953 84.5486C591.623 84.9166 592.286 85.2847 592.97 85.638C594.56 86.4256 597.129 86.8821 597.497 88.0524C597.931 89.4142 595.384 90.5254 594.486 92.0343C594.494 92.1397 594.494 92.2456 594.486 92.3509C594.494 92.2456 594.494 92.1397 594.486 92.0343C593.537 92.7335 593.287 93.4108 594.597 93.9629C595.565 94.4009 596.618 94.6219 597.681 94.6105C599.254 94.9219 600.871 94.9396 602.451 94.6623C603.29 94.5518 604.129 94.4855 604.961 94.3309C605.792 94.1763 606.83 94.0512 606.977 93.1017C607 92.6835 606.891 92.2684 606.665 91.9157C606.44 91.5629 606.108 91.2904 605.719 91.1365ZM585.359 60.4426V60.3765V60.4426ZM586.294 60.2072H585.83C586.39 57.4691 587.45 55.0916 589.989 53.5827C593.463 51.4996 598.159 51.4776 600.875 54.731C602.2 56.3135 603.385 57.9916 603.466 60.1188C602.458 60.5237 601.14 60.3396 600.08 60.3028C597.872 60.2219 595.664 60.4869 593.456 60.5016C591.881 60.5016 590.423 60.4206 588.834 60.3028C587.98 60.163 587.126 60.2293 586.294 60.2072Z" fill="#02242A"/>
<path fill-rule="evenodd" clip-rule="evenodd" d="M607.029 46.1775C607.051 46.1597 607.07 46.14 607.088 46.1185C607.261 45.9177 607.391 45.6836 607.47 45.4303C607.548 45.177 607.574 44.91 607.544 44.6464C607.533 44.3534 607.463 44.0657 607.338 43.8C607.235 43.5645 607.022 43.3216 607.073 43.0639C607.13 42.8219 607.13 42.57 607.073 42.3279C606.896 41.7609 606.667 41.2114 606.389 40.6865C606.092 39.7057 605.71 38.7525 605.248 37.8378C604.622 36.8883 601.568 35.534 600.493 35.1071C597.674 34.003 575.143 41.7906 574.93 42.1881C573.818 44.227 574.841 50.6453 574.841 50.7042C575.386 50.66 587.597 47.2446 587.906 47.3035C588.215 47.3624 588.142 47.6275 588.201 47.8189C588.406 48.3794 588.718 48.8945 589.121 49.3352C589.844 50.1655 590.759 50.8073 591.785 51.2048C592.317 51.411 592.86 51.5855 593.412 51.7274C594.056 51.8584 594.716 51.8906 595.37 51.823H596.143C596.401 51.7838 596.64 51.6655 596.827 51.4844C597.019 51.3104 597.139 51.0718 597.166 50.8145C597.247 50.5171 597.262 50.2058 597.21 49.902C596.997 48.8421 595.738 48.209 594.884 47.6938C594.17 47.292 593.433 46.9332 592.676 46.6192C593.125 46.4204 593.537 46.2659 593.92 46.0524C594.763 45.5946 595.54 45.0249 596.231 44.3592C596.285 44.2913 596.361 44.2445 596.446 44.227C596.53 44.2095 596.619 44.2225 596.695 44.2636C597.747 44.6538 598.807 44.9997 599.867 45.3972V45.4414C599.301 45.8978 599.315 46.4277 599.867 46.6853C599.871 46.7171 599.871 46.7491 599.867 46.7809C599.718 46.8362 599.582 46.9209 599.466 47.03C599.35 47.1391 599.258 47.2704 599.194 47.416C599.13 47.5616 599.096 47.7188 599.094 47.8778C599.092 48.0368 599.122 48.1943 599.183 48.3414C599.183 48.3414 599.183 48.3855 599.183 48.4076C598.842 48.537 598.518 48.7078 598.219 48.9158C597.995 49.0779 597.834 49.3117 597.762 49.5782C597.716 49.7131 597.696 49.8553 597.703 49.9976C597.703 50.1374 597.703 50.2847 597.703 50.4246C597.716 50.5396 597.741 50.653 597.777 50.7631C597.837 50.9715 597.937 51.1663 598.071 51.3371C598.741 52.0363 599.742 51.9407 600.611 51.7346C600.737 51.6881 600.868 51.6561 601.001 51.639C601.106 51.6536 601.212 51.6536 601.317 51.639C601.45 51.5875 601.568 51.5065 601.7 51.455C601.833 51.4034 601.943 51.4034 602.061 51.3666C602.37 51.2709 602.679 51.1973 602.988 51.0869C603.595 50.8819 604.182 50.6206 604.74 50.3067C605.062 50.1279 605.371 49.9287 605.667 49.7104C606.028 49.4837 606.336 49.1816 606.568 48.8245C606.801 48.4674 606.953 48.0641 607.014 47.6424C607.022 47.0609 606.727 46.5381 607.029 46.1775Z" fill="#FEAA61"/>
<path fill-rule="evenodd" clip-rule="evenodd" d="M614.117 56.5263C614.139 56.5026 614.165 56.4835 614.194 56.4706C614.223 56.4576 614.255 56.4512 614.286 56.4512C614.318 56.4512 614.35 56.4576 614.379 56.4706C614.408 56.4835 614.434 56.5026 614.456 56.5263L614.279 56.6366L614.117 56.5263Z" fill="#266347"/>
<path fill-rule="evenodd" clip-rule="evenodd" d="M597.438 50.1673C597.362 49.9294 597.325 49.6809 597.328 49.4312C595.63 49.0675 593.873 49.0941 592.187 49.5085C590.502 49.9228 588.932 50.7142 587.597 51.8234C588.332 52.3147 588.981 52.9242 589.518 53.6269C590.327 53.0869 591.213 52.6725 592.146 52.3977C593.577 52.0369 595.069 51.9938 596.518 52.2723C596.642 52.2194 596.77 52.1753 596.901 52.14C596.945 51.8971 596.996 51.6542 597.063 51.404C597.162 51.0146 597.302 50.6368 597.482 50.2776L597.438 50.1673Z" fill="#02242A"/>
<path fill-rule="evenodd" clip-rule="evenodd" d="M554.401 91.4889H554.445C554.445 91.3196 554.394 91.1576 554.372 90.9883C554.401 91.1429 554.401 91.3196 554.401 91.4889Z" fill="white"/>
<path fill-rule="evenodd" clip-rule="evenodd" d="M503.613 184.461C502.435 184.248 501.405 183.725 501.405 182.37C501.384 182.085 501.425 181.799 501.524 181.53C501.624 181.262 501.78 181.019 501.981 180.816C502.183 180.613 502.425 180.455 502.693 180.354C502.961 180.253 503.247 180.21 503.532 180.229C503.817 180.196 504.105 180.225 504.378 180.312C504.651 180.399 504.902 180.543 505.116 180.734C505.329 180.925 505.5 181.159 505.616 181.421C505.733 181.683 505.793 181.966 505.792 182.253C505.865 183.607 504.872 184.189 503.613 184.461Z" fill="#EBECE6"/>
<path fill-rule="evenodd" clip-rule="evenodd" d="M597.092 130.56C596.305 127.078 593.375 128.587 590.843 128.064C594.163 124.347 596.636 120.233 600.309 117.288C604.372 114.028 610.798 114.278 615.222 119.121C616.016 118.65 616.075 117.737 616.407 117.023C617.79 114.079 619.196 111.098 621.309 108.566C623.252 106.24 627.845 104.959 630.245 106.049C631.255 106.49 632.111 107.222 632.703 108.151C633.296 109.081 633.598 110.166 633.572 111.268C633.684 112.479 633.455 113.698 632.91 114.785C632.365 115.873 631.525 116.786 630.487 117.421C626.984 119.578 623.009 120.365 619.056 121.101C617.489 121.41 616.694 121.602 617.209 123.677C618.328 128.197 616.392 132.444 612.321 134.814C610.974 135.602 610.974 136.286 611.35 137.559C616.831 155.887 622.29 174.22 627.727 192.558C629.369 198.071 631.003 203.599 633.005 209.068C633.834 202.821 634.663 196.577 635.493 190.335C635.656 190.499 635.784 190.695 635.87 190.91C635.956 191.125 635.998 191.355 635.993 191.586C636.943 199.742 637.274 207.949 637.863 216.134C638.096 217.992 637.863 219.879 637.186 221.625C636.85 222.504 636.85 223.476 637.186 224.356C637.922 226.733 638.562 229.125 639.291 231.496C640.947 236.906 640.962 236.972 635.448 236.95C633.439 236.95 633.24 237.502 633.579 239.408C634.985 246.438 637.605 253.298 636.935 260.658C636.766 262.587 636.656 264.522 636.508 266.451H633.711C633.947 255.601 634.146 244.76 630.907 234.219C630.009 229.921 629.163 225.607 627.506 221.515C627.197 220.734 627.094 219.38 625.931 219.608C624.768 219.836 624.82 221.08 624.805 222.126C624.755 225.295 625.371 228.44 626.616 231.356C626.999 235.537 628.139 239.57 628.868 243.692C629.604 247.991 630.517 252.275 631.393 256.809C630.399 256.124 630.421 255.27 630.156 254.601C628.596 250.457 627.212 246.253 625.519 242.161C622.302 234.329 619.881 226.373 620.573 217.768C620.653 217.466 620.662 217.149 620.596 216.843C620.531 216.538 620.394 216.252 620.197 216.009V215.133C620.661 214.75 620.61 214.22 620.61 213.661C620.61 212.66 620.668 211.644 620.61 210.643C620.521 208.943 620.558 207.176 618.71 206.227C616.237 205.697 615.192 206.889 614.854 209.222C614.416 212.676 614.386 216.169 614.765 219.63C615.251 225.003 615.847 230.362 616.399 235.735C611.924 236.766 607.368 236.42 602.834 236.471C604.534 229.641 606.102 222.773 607.986 215.987C610.437 207.095 612.712 198.174 613.683 188.973C615.891 188.973 617.945 188.701 618.983 186.434C619.534 185.313 619.787 184.069 619.716 182.822C619.645 181.575 619.253 180.367 618.578 179.316C617.963 178.319 617.047 177.542 615.962 177.1C614.877 176.658 613.679 176.572 612.542 176.856C611.405 177.14 610.388 177.778 609.638 178.678C608.887 179.578 608.443 180.693 608.369 181.863C608.17 184.034 609.105 185.764 610.349 187.406C609.282 190.482 608.251 193.574 607.154 196.643C603.067 208.052 598.964 219.454 594.847 230.848C593.824 233.674 592.72 236.479 591.447 239.85C590.95 237.009 591.322 234.085 592.514 231.459C593.634 228.82 594.595 226.116 595.392 223.362C597.865 214.831 598.417 205.954 600.081 197.276C601.972 187.383 602.289 177.24 604.836 167.451C605.602 167.354 606.36 167.199 607.103 166.987C608.315 166.527 609.338 165.672 610.005 164.559C610.673 163.447 610.947 162.142 610.783 160.856C610.657 159.606 610.103 158.439 609.215 157.551C608.327 156.663 607.16 156.109 605.91 155.983C603.584 155.792 601.119 157.529 600.294 160.083C599.827 161.293 599.783 162.626 600.171 163.864C600.558 165.102 601.354 166.172 602.429 166.899C600.787 172.449 599.19 178.006 598.439 183.77C598.174 185.808 597.843 187.847 597.541 189.879C596.968 188.82 596.526 187.695 596.224 186.53C595.598 184.844 595.407 182.886 593.618 181.833H593.574V181.37C590.77 181.259 591.594 183.475 591.793 184.682C592.484 188.922 593.877 193.016 595.915 196.798C595.871 197.902 596.85 198.697 596.651 199.911C595.996 204.511 595.863 209.186 594.914 213.749C594.038 217.96 593.287 222.214 591.329 226.144C591.329 218.821 590.77 211.548 590.343 204.247C583.873 214.235 586.442 225.224 586.78 236.008C585.786 233.159 585.058 230.244 584.086 227.411C582.989 224.209 582.614 220.786 580.877 217.768C585.239 201.575 589.602 185.381 593.964 169.188C596.739 158.883 599.47 148.534 602.311 138.237C602.753 136.617 602.87 135.602 601.038 134.814C599.523 134.145 598.319 132.928 597.667 131.406C598.64 131.444 599.602 131.188 600.427 130.67C600.648 130.515 601.111 130.346 601.163 130.059C601.179 129.989 601.177 129.917 601.158 129.848C601.139 129.779 601.103 129.716 601.053 129.665C601.003 129.613 600.941 129.576 600.873 129.554C600.805 129.533 600.732 129.529 600.662 129.544C600.338 129.603 599.97 129.963 599.624 130.074C598.808 130.357 597.955 130.521 597.092 130.56Z" fill="#DBDEE0"/>
<path fill-rule="evenodd" clip-rule="evenodd" d="M691.904 234.8C691.904 233.622 691.639 233.159 690.365 233.181C686.258 233.262 682.151 233.225 678.036 233.232C677.856 232.812 677.715 232.376 677.617 231.929C676.527 222.444 675.445 212.956 674.371 203.466C673.591 196.444 673.002 189.4 672.023 182.407C671.353 177.675 668.924 174.009 664.022 172.522C662.829 172.205 663.138 171.226 663.131 170.424C663.102 166.008 663.087 161.609 663.087 157.227C662.8 157.374 662.491 157.484 662.24 157.595C661.99 157.705 661.836 157.749 661.63 157.816L661.49 157.853C661.379 157.853 661.269 157.918 661.151 157.941H660.989L660.673 158H660.489L660.091 158.037C659.046 158.103 656.904 158.095 656.823 157.249C657.105 157.335 657.393 157.401 657.684 157.447C658.762 157.573 659.853 157.508 660.908 157.256L661.077 157.205C661.525 157.053 661.942 156.821 662.307 156.52C662.39 156.449 662.466 156.37 662.535 156.284C662.932 155.703 663.006 154.945 663.448 154.371C663.499 154.437 663.551 154.503 663.602 154.584L663.668 154.408C663.808 153.171 664.309 152.501 665.737 152.612C666.471 152.679 667.21 152.679 667.945 152.612C668.909 152.531 669.417 152.612 668.997 151.559C668.342 149.851 667.091 148.217 666.23 146.591C665.266 144.75 664.287 142.91 663.359 141.041C662.432 139.171 661.32 137.728 659.473 136.948C652.245 133.916 645.23 137.773 645.701 144.876C645.856 147.179 645.701 149.505 645.701 151.699C645.053 152.03 644.766 151.699 644.413 151.567C641.969 150.794 639.724 151.397 638.385 153.289C637.744 154.081 637.371 155.055 637.32 156.072C637.268 157.089 637.541 158.097 638.098 158.949C639.437 161.076 641.837 161.753 644.45 160.914C645.922 160.451 646.113 161.304 646.216 162.674C646.251 163.7 646.226 164.727 646.143 165.75C646.084 167.355 646.143 168.967 646.143 170.571C646.143 171.521 646.275 172.088 645.407 172.537C644.538 172.986 643.316 173.214 642.337 173.678C640.276 174.566 638.573 176.121 637.501 178.094C638.694 180.692 638.488 183.534 638.797 186.257C639.847 195.409 640.767 204.575 641.557 213.756C641.918 217.841 642.418 221.934 642.566 226.137C643.228 223.259 643.773 220.351 644.604 217.517C644.95 216.347 644.501 214.073 646.452 214.345C648.219 214.595 647.291 216.612 647.188 217.731C646.452 226.446 645.495 235.146 644.627 243.854C644.097 249.168 643.584 254.485 643.088 259.804C642.882 262.012 640.644 275.541 640.483 277.749C642.043 277.749 644.553 274.128 646.113 274.128C645.635 271.824 647.843 261.975 648.395 259.914C650.603 251.774 652.532 243.566 654.703 235.411C654.703 235.278 654.858 235.168 655.093 234.815C656.08 241.535 657.014 248.064 657.993 254.563C658.59 258.523 659.524 272.148 660.548 276.042C664.441 276.042 669.984 278.986 673.878 278.986C673.303 274.569 669.321 257.861 668.107 253.621C664.427 240.637 660.489 227.712 656.654 214.765C651.994 214.647 649.293 212.144 647.725 207.875C645.289 201.148 644.509 194.147 643.765 186.647C645.554 187.677 647.041 188.458 648.454 189.356C649.514 190.033 650.073 190.048 650.257 188.62C650.441 187.192 650.817 185.565 651.192 183.533L658.244 194.302C659.061 190.423 659.782 187.037 660.614 183.092C661.679 186.573 662.557 190.108 663.241 193.684C664.097 197.441 664.687 201.253 665.008 205.093C665.413 210.569 663.727 212.843 658.472 214.617L673.929 266.407H674.864C673.863 260.518 672.818 254.63 671.875 248.741C670.727 241.55 669.726 234.344 669.174 227.071C668.946 223.972 668.762 220.881 668.747 217.775V216.899C668.747 216.583 668.696 216.259 668.666 215.942C667.93 212.417 668.445 208.861 668.342 205.314C668.321 205.178 668.333 205.038 668.377 204.908C668.42 204.777 668.495 204.659 668.594 204.563C668.692 204.467 668.813 204.397 668.944 204.357C669.076 204.317 669.215 204.309 669.351 204.335C670.19 204.379 670.543 204.879 670.661 205.674C671.11 208.618 671.596 211.629 672.045 214.602C672.251 215.972 672.715 217.319 672.509 218.739C674.545 232.857 676.589 246.977 678.64 261.1C678.897 262.866 682.968 285.691 683.27 287.451C683.895 287.451 687.311 293.817 687.936 293.817C687.936 292.515 681.4 263.772 681.4 262.469L686.553 262.395C686.714 262.196 686.869 262.189 687.031 262.395C688.113 262.395 689.239 262.329 690.284 262.439C691.602 262.564 692.014 262.115 691.999 260.768C691.887 252.161 691.855 243.505 691.904 234.8Z" fill="#DBDEE0"/>
<path fill-rule="evenodd" clip-rule="evenodd" d="M642.478 116.104C642.301 115.912 641.984 115.743 642.338 115.434L642.684 115.941L642.478 116.104Z" fill="#FEF2F0"/>
<path fill-rule="evenodd" clip-rule="evenodd" d="M686.458 262.484C686.62 262.285 686.774 262.278 686.936 262.484H686.458Z" fill="#266347"/>
<path fill-rule="evenodd" clip-rule="evenodd" d="M586.501 137.081L586.582 136.934C586.545 136.978 586.515 137.022 586.479 137.059L586.501 137.081Z" fill="#FEF2F0"/>
<path fill-rule="evenodd" clip-rule="evenodd" d="M622.457 95.03L622.295 94.9121L622.464 95.0224L622.457 95.03Z" fill="#FEF2F0"/>
<path fill-rule="evenodd" clip-rule="evenodd" d="M675.232 165.11L675.063 164.978L675.276 165.066L675.232 165.11Z" fill="#FEF2F0"/>
<path fill-rule="evenodd" clip-rule="evenodd" d="M658.414 214.676L656.595 214.831C651.936 214.713 649.235 212.21 647.667 207.941C645.231 201.214 644.45 194.214 643.707 186.713C645.496 187.744 646.982 188.524 648.396 189.422C649.456 190.099 650.015 190.114 650.199 188.686C650.383 187.258 650.758 185.631 651.134 183.6L658.185 194.368C659.002 190.489 659.724 187.103 660.555 183.158C661.621 186.639 662.498 190.175 663.183 193.75C664.039 197.507 664.629 201.319 664.95 205.159C665.355 210.628 663.669 212.902 658.414 214.676Z" fill="#D589E1"/>
<path fill-rule="evenodd" clip-rule="evenodd" d="M668.586 216.03C669.145 216.303 669.116 216.627 668.667 216.987C668.645 216.671 668.615 216.347 668.586 216.03Z" fill="#02242A"/>
<path fill-rule="evenodd" clip-rule="evenodd" d="M613.639 189.025C612.447 188.695 611.319 188.165 610.305 187.457C609.061 185.815 608.097 184.086 608.325 181.914C608.399 180.745 608.843 179.629 609.594 178.729C610.344 177.829 611.361 177.191 612.498 176.907C613.635 176.624 614.833 176.709 615.918 177.152C617.003 177.594 617.919 178.37 618.534 179.368C619.209 180.419 619.601 181.626 619.672 182.873C619.743 184.12 619.49 185.365 618.939 186.485C617.901 188.752 615.825 189.039 613.639 189.025Z" fill="#D589E1"/>
<path fill-rule="evenodd" clip-rule="evenodd" d="M604.792 167.48C603.989 167.289 603.18 167.105 602.377 166.928C601.303 166.201 600.507 165.131 600.119 163.893C599.732 162.655 599.775 161.322 600.243 160.112C601.067 157.558 603.533 155.821 605.859 156.012C607.108 156.138 608.276 156.692 609.164 157.58C610.052 158.468 610.606 159.635 610.732 160.885C610.896 162.172 610.622 163.476 609.954 164.589C609.286 165.701 608.264 166.556 607.051 167.016C606.311 167.228 605.556 167.383 604.792 167.48Z" fill="#D589E1"/>
<path fill-rule="evenodd" clip-rule="evenodd" d="M656.595 214.831C660.43 227.778 664.339 240.703 668.048 253.687C669.263 257.927 670.934 262.049 671.508 266.465C675.689 286.265 680.289 287.539 681.077 287.539C675.924 270.278 663.566 231.944 658.421 214.669L656.595 214.831Z" fill="#24C488"/>
<path fill-rule="evenodd" clip-rule="evenodd" d="M607.11 196.695C603.023 208.103 598.921 219.505 594.803 230.899C593.78 233.726 592.676 236.53 591.403 239.901C590.906 237.06 591.278 234.136 592.47 231.51C593.59 228.871 594.551 226.167 595.348 223.413C597.821 214.882 598.373 206.006 600.037 197.327C601.929 187.435 602.245 177.292 604.792 167.502C603.99 167.311 603.18 167.127 602.378 166.95C600.736 172.5 599.139 178.057 598.388 183.821C598.123 185.86 597.792 187.898 597.49 189.93C596.917 188.871 596.475 187.746 596.173 186.581C595.547 184.895 595.356 182.937 593.567 181.885H593.523C593.462 181.781 593.411 181.673 593.368 181.561C593.368 181.561 593.464 181.465 593.523 181.421C590.718 181.311 591.543 183.526 591.741 184.734C592.433 188.973 593.826 193.068 595.863 196.849C595.819 197.953 596.798 198.748 596.599 199.963C595.944 204.563 595.812 209.237 594.862 213.8C593.986 218.011 593.236 222.265 591.278 226.196C591.278 218.872 590.718 211.599 590.291 204.298C583.821 214.286 586.39 225.276 586.729 236.059C585.735 233.21 585.007 230.296 584.035 227.462C582.938 224.26 582.563 220.837 580.826 217.819C580.48 219.196 580.141 220.58 579.78 221.956C578.603 226.372 577.469 230.745 576.218 235.109C575.791 236.582 576.122 237.038 577.69 236.92C579.258 236.802 580.789 236.92 582.335 236.92C583.38 236.876 583.659 237.134 583.417 238.238C582.725 241.337 582.209 244.479 581.562 247.585C580.266 253.864 578.846 260.098 578.088 266.495H593.972C595.473 257.927 596.977 249.359 598.484 240.792C599.132 237.111 599.146 237.112 602.812 236.552C604.512 229.721 606.08 222.854 607.964 216.067C610.415 207.176 612.69 198.255 613.661 189.054C612.469 188.724 611.341 188.194 610.327 187.486C609.238 190.533 608.207 193.625 607.11 196.695Z" fill="#24C488"/>
<path fill-rule="evenodd" clip-rule="evenodd" d="M646.408 214.39C644.458 214.117 644.936 216.392 644.561 217.562C643.729 220.396 643.184 223.303 642.522 226.181C642.375 221.978 641.874 217.886 641.514 213.801C640.709 204.625 639.789 195.458 638.753 186.302C638.444 183.578 638.65 180.737 637.458 178.139C636.163 180.45 636.236 183.063 636.074 185.566C635.971 187.185 634.418 188.62 635.493 190.35C635.656 190.514 635.784 190.71 635.87 190.925C635.956 191.14 635.998 191.37 635.993 191.601C636.943 199.757 637.274 207.964 637.863 216.149C638.096 218.007 637.863 219.894 637.186 221.64C636.851 222.519 636.851 223.491 637.186 224.371C637.922 226.748 638.562 229.14 639.291 231.511C640.947 236.921 640.962 236.987 635.449 236.965C633.439 236.965 633.24 237.517 633.579 239.423C634.985 246.453 637.605 253.313 636.935 260.673C636.766 262.602 636.656 264.537 636.508 266.466C638.533 266.466 638.982 273.753 641.006 273.753C641.16 271.545 642.861 262.05 643.067 259.849C643.557 254.53 644.07 249.213 644.605 243.899C645.474 235.191 646.401 226.491 647.167 217.776C647.226 216.657 648.153 214.64 646.408 214.39Z" fill="#24C488"/>
<path fill-rule="evenodd" clip-rule="evenodd" d="M678.56 261.188C676.509 247.071 674.465 232.951 672.428 218.828C672.634 217.408 672.171 216.061 671.965 214.692C671.516 211.747 671.03 208.744 670.581 205.763C670.463 204.968 670.11 204.468 669.271 204.424C669.135 204.399 668.996 204.406 668.864 204.446C668.732 204.486 668.612 204.556 668.513 204.652C668.415 204.748 668.34 204.866 668.297 204.997C668.253 205.127 668.241 205.266 668.262 205.402C668.365 208.95 667.857 212.505 668.586 216.031C669.146 216.303 669.116 216.627 668.667 216.988V217.864C668.667 220.97 668.866 224.062 669.094 227.16C669.646 234.433 670.647 241.639 671.795 248.83C672.737 254.718 677.684 280.392 678.678 286.266C680.238 286.266 681.622 287.54 683.19 287.54C682.888 285.78 678.795 262.955 678.56 261.188Z" fill="#24C488"/>
<path fill-rule="evenodd" clip-rule="evenodd" d="M627.469 221.529C627.16 220.749 627.057 219.395 625.894 219.623C624.731 219.851 624.783 221.095 624.768 222.14C624.717 225.31 625.334 228.455 626.579 231.37C626.961 235.551 628.102 239.584 628.831 243.706C629.567 248.005 630.48 252.289 631.356 256.823C630.362 256.139 630.384 255.285 630.119 254.615C628.559 250.471 627.175 246.268 625.482 242.175C624.665 240.188 623.885 238.186 623.215 236.147C621.991 232.565 621.13 228.868 620.646 225.114C620.418 223.216 620.344 221.304 620.425 219.394C620.514 217.635 620.609 215.861 620.528 214.102C620.484 212.961 620.617 211.813 620.528 210.665C620.44 208.965 620.477 207.198 618.629 206.249C616.156 205.719 615.111 206.911 614.772 209.244C614.334 212.698 614.305 216.191 614.684 219.652C615.17 225.025 615.766 230.384 616.318 235.757C617.643 235.904 617.474 237.045 617.643 237.884C618.43 241.793 618.615 245.826 620.013 249.617C620.116 250.456 620.175 251.303 620.315 252.134C621.164 256.909 622.018 261.686 622.876 266.465H633.623C633.858 255.616 634.057 244.774 630.818 234.234C629.972 229.935 629.125 225.621 627.469 221.529Z" fill="#24C488"/>
<path fill-rule="evenodd" clip-rule="evenodd" d="M593.523 181.892C593.463 181.789 593.411 181.681 593.368 181.569C593.368 181.569 593.464 181.473 593.523 181.429V181.892Z" fill="#02242A"/>
<path fill-rule="evenodd" clip-rule="evenodd" d="M589.732 124.023C590.24 124.626 590.939 125.134 591.727 124.759C592.404 124.502 592.99 124.052 593.412 123.464C593.582 123.199 593.714 122.86 593.295 123.081C592.875 123.302 592.801 123.566 592.404 123.714C591.624 124.008 590.461 124.28 589.813 123.589C589.607 123.36 589.452 122.897 589.121 122.853C589.16 122.945 589.207 123.033 589.261 123.117C589.273 123.101 589.288 123.086 589.305 123.074L589.261 123.117C589.423 123.412 589.577 123.721 589.732 124.023Z" fill="#4858CC"/>
<path fill-rule="evenodd" clip-rule="evenodd" d="M656.139 148.637C656.647 149.24 657.346 149.756 658.141 149.373C658.825 149.093 659.412 148.616 659.827 148.004C659.996 147.739 660.136 147.4 659.716 147.628C659.297 147.857 659.223 148.107 658.826 148.254C658.045 148.548 656.875 148.828 656.235 148.129C656.028 147.908 655.874 147.444 655.499 147.393L655.638 147.665L655.683 147.621L655.638 147.665C655.837 148.018 655.977 148.328 656.139 148.637Z" fill="#4858CC"/>
<path fill-rule="evenodd" clip-rule="evenodd" d="M579.191 162.947C579.022 163.19 578.916 163.471 578.881 163.766C578.847 164.06 578.885 164.358 578.992 164.634C579.1 164.911 579.274 165.156 579.498 165.35C579.723 165.543 579.991 165.678 580.28 165.744C581.649 166.251 582.238 165.302 582.547 164.124C583.188 161.688 582.908 159.215 582.386 156.572L579.191 162.947Z" fill="#92C0E9"/>
<path fill-rule="evenodd" clip-rule="evenodd" d="M567.989 175.525C566.492 177.189 565.334 179.13 564.581 181.237C564.198 182.165 563.609 183.063 564.654 183.946C565.206 184.41 565.751 184.873 566.509 184.447C566.989 184.196 567.385 183.81 567.647 183.336C567.909 182.862 568.025 182.322 567.981 181.782C567.959 179.691 567.989 177.608 567.989 175.525Z" fill="#92C0E9"/>
<path fill-rule="evenodd" clip-rule="evenodd" d="M609.701 96.3252L609.113 96.4503C609.422 98.7983 608.73 101.169 609.562 103.509C610.003 104.753 610.717 105.717 612.123 105.121C613.529 104.525 613.595 103.443 612.947 102.177C611.873 100.241 610.783 98.2831 609.701 96.3252Z" fill="#92C0E9"/>
<path fill-rule="evenodd" clip-rule="evenodd" d="M619.955 155.961L619.381 156.27C620.028 158.559 620.617 160.871 621.353 163.13C621.736 164.308 622.634 164.978 623.885 164.22C624.967 163.572 625.357 162.585 624.467 161.481C622.987 159.627 621.464 157.801 619.955 155.961Z" fill="#92C0E9"/>
<path fill-rule="evenodd" clip-rule="evenodd" d="M685.419 219.24C683.478 217.655 681.373 216.283 679.14 215.147C680.112 217.456 681.347 219.644 682.821 221.669C682.95 221.914 683.137 222.124 683.366 222.282C683.594 222.44 683.857 222.54 684.133 222.573C684.408 222.607 684.688 222.574 684.947 222.477C685.207 222.38 685.44 222.221 685.625 222.015C686.744 221.065 686.346 219.998 685.419 219.24Z" fill="#92C0E9"/>
<path fill-rule="evenodd" clip-rule="evenodd" d="M580.163 137.081L580.244 136.934C580.244 136.978 580.178 137.022 580.141 137.059V137.11L579.898 137.405C578.927 138.605 577.941 139.79 576.954 140.997L576.623 141.416C576.24 141.902 575.887 142.388 575.489 142.889C574.695 143.941 574.54 145.192 575.983 145.796C576.25 145.935 576.548 146.007 576.849 146.003C577.151 146 577.446 145.921 577.71 145.776C577.974 145.63 578.198 145.421 578.361 145.168C578.525 144.914 578.623 144.624 578.647 144.324C579.162 141.924 579.965 139.576 580.119 137.096L580.163 137.081Z" fill="#92C0E9"/>
<path fill-rule="evenodd" clip-rule="evenodd" d="M621.014 127.497C621.279 129.919 621.508 132.326 622.722 134.453C622.825 134.642 622.967 134.805 623.14 134.933C623.313 135.06 623.511 135.149 623.722 135.192C623.932 135.234 624.149 135.23 624.358 135.18C624.567 135.13 624.762 135.035 624.93 134.902C625.821 134.335 626.277 133.518 625.666 132.539C624.431 130.593 622.855 128.885 621.014 127.497Z" fill="#92C0E9"/>
<path fill-rule="evenodd" clip-rule="evenodd" d="M642.066 119.35C640.329 117.959 638.621 116.479 636.369 115.927L636.03 115.419C635.677 115.728 636.03 115.897 636.17 116.089C637.252 117.958 638.275 119.857 639.431 121.675C639.56 121.916 639.742 122.125 639.963 122.285C640.184 122.445 640.438 122.554 640.707 122.602C640.976 122.65 641.252 122.637 641.515 122.564C641.778 122.49 642.021 122.358 642.225 122.177C642.43 121.996 642.591 121.772 642.697 121.52C642.802 121.268 642.849 120.996 642.835 120.723C642.82 120.45 642.744 120.184 642.612 119.945C642.48 119.706 642.296 119.5 642.073 119.342L642.066 119.35Z" fill="#92C0E9"/>
<path fill-rule="evenodd" clip-rule="evenodd" d="M675.21 168.901C674.96 168.724 674.71 168.548 674.474 168.363C672.745 167.097 671.081 165.692 668.961 165.066L668.755 164.978L668.917 165.11C669.952 167.268 671.184 169.325 672.597 171.256C672.727 171.5 672.915 171.708 673.145 171.86C673.376 172.013 673.64 172.105 673.915 172.129C674.19 172.153 674.467 172.108 674.72 171.998C674.973 171.888 675.195 171.716 675.365 171.499C676.219 170.63 676.182 169.571 675.21 168.901Z" fill="#92C0E9"/>
<path fill-rule="evenodd" clip-rule="evenodd" d="M621.302 100.16C621.465 100.017 621.592 99.8364 621.671 99.6341C621.75 99.4317 621.78 99.2133 621.758 98.9972C621.735 98.781 621.662 98.5734 621.543 98.3916C621.424 98.2098 621.263 98.059 621.074 97.952C619.499 96.8774 618.13 95.4494 616.142 95.0078L615.973 94.8975L616.142 95.0153C617.062 96.6126 617.938 98.2612 618.947 99.8069C619.521 100.705 620.456 101.014 621.302 100.16Z" fill="#92C0E9"/>
<path fill-rule="evenodd" clip-rule="evenodd" d="M600.036 101.552C599.661 102.634 600.036 103.524 601.081 103.701C602.127 103.878 602.605 102.965 602.642 101.92C602.664 99.9327 602.416 97.9518 601.906 96.0312C601.199 98.1217 600.618 99.8367 600.036 101.552Z" fill="#92C0E9"/>
<path fill-rule="evenodd" clip-rule="evenodd" d="M592.772 100.153C590.821 101.625 589.526 103.657 587.899 105.408C587.689 105.591 587.527 105.821 587.426 106.08C587.325 106.339 587.288 106.619 587.318 106.895C587.349 107.171 587.446 107.436 587.6 107.666C587.755 107.897 587.964 108.087 588.208 108.22C589.378 109.022 590.416 108.374 590.843 107.278L591.189 106.424C592.006 104.429 592.83 102.412 592.801 100.182C592.838 100.109 592.867 100.042 592.897 99.9688C592.859 100.033 592.817 100.094 592.772 100.153Z" fill="#92C0E9"/>
<path fill-rule="evenodd" clip-rule="evenodd" d="M569.917 121.469C568.85 122.646 569.107 123.596 570.241 124.369C571.375 125.142 572.331 124.45 572.869 123.412C574.011 121.107 574.79 118.639 575.18 116.096C573.287 117.746 571.528 119.542 569.917 121.469Z" fill="#92C0E9"/>
<path fill-rule="evenodd" clip-rule="evenodd" d="M459.633 277.889C459.633 278.522 452 300.162 452 300.162L490.481 301.222C490.481 301.222 494.397 290.66 486.551 285.566C478.704 280.473 477.409 281.069 477.409 281.069L478.726 273.855L459.633 277.889Z" fill="black"/>
<path fill-rule="evenodd" clip-rule="evenodd" d="M504.96 264.205L502.295 283.144L535.808 287.561C535.808 287.561 545.885 276.144 538.016 271.051C533.516 268.037 528.081 266.744 522.706 267.407L522.066 261.968L504.96 264.205Z" fill="black"/>
<path d="M569.122 269.012C569.122 269.012 571.779 260.754 579.331 258.42C583.566 257.071 587.926 256.156 592.345 255.689L593.361 266.465L569.122 269.012Z" fill="#24C488"/>
<path d="M604.453 267.474C604.453 267.474 607.11 259.215 614.669 256.882C618.901 255.533 623.258 254.618 627.675 254.151L628.691 264.927L604.453 267.474Z" fill="#24C488"/>
<path fill-rule="evenodd" clip-rule="evenodd" d="M524.259 249.817C524.269 248.834 524.227 247.851 524.134 246.872C523.029 239.283 522.087 231.658 521.189 224.054C520.402 217.43 519.717 210.746 519.055 204.078C518.194 195.068 516.773 186.125 515.735 177.131C515.257 177.026 514.817 176.794 514.461 176.458C514.106 176.122 513.849 175.695 513.718 175.224C513.306 174.009 512.842 172.824 512.504 171.588C512.4 171.203 512.388 170.8 512.467 170.41C512.261 169.865 512.04 169.336 511.797 168.806L506.851 170.587C501.562 173.712 495.722 175.793 489.649 176.718C484.74 178.455 479.433 180.185 474.192 180.914C474.192 192.271 476.82 207.073 468.024 214.427C468.156 214.795 468.281 215.163 468.414 215.516C468.908 216.535 469.053 217.689 468.826 218.799C467.53 224.378 466.419 230.002 465.241 235.61V235.647L464.976 236.884C462.43 246.659 460.354 271.405 458.543 281.334L479.396 281.07C479.16 279.597 492.365 234.882 495.486 221.235L495.839 221.169C496.296 224.158 496.774 227.146 497.216 230.134C498.85 241.175 501.882 264.111 501.912 265.178H526.15C525.355 259.635 525.37 255.315 524.259 249.817Z" fill="black"/>
<path fill-rule="evenodd" clip-rule="evenodd" d="M527.947 125.591C527.571 123.618 526.246 122.264 524.266 122.278C522.706 122.278 522.124 121.594 521.462 120.423C520.522 118.68 519.218 117.158 517.64 115.961C516.062 114.763 514.245 113.918 512.313 113.482C503.23 111.274 495.258 116.029 492.439 125.392C492.034 126.731 491.703 127.6 489.951 127.813C488.023 128.034 486.654 129.286 487.007 131.803C487.045 132.857 487.382 133.878 487.979 134.747C488.994 135.998 490.57 135.991 492.086 136.057C491.813 137.338 490.871 137.816 490.201 138.494C483.098 145.498 476.997 153.452 472.072 162.128C471.152 163.799 470.276 165.5 469.474 167.229C468.672 168.959 467.943 170.711 467.31 172.492C466.664 174.274 466.123 176.093 465.691 177.939C465.249 179.793 464.926 181.674 464.726 183.57C464.535 185.476 464.476 187.39 464.358 189.304C464.358 189.554 464.314 189.805 464.307 190.04C464.307 190.703 464.263 191.343 464.255 192.005C464.255 193.08 464.255 194.147 464.255 195.222C464.255 195.877 464.417 196.517 464.439 197.172C464.461 197.828 464.439 198.527 464.513 199.204C464.594 200.566 464.749 201.92 464.962 203.26C465.398 205.939 466.035 208.581 466.868 211.165C467.332 212.637 467.84 214.109 468.385 215.522C468.879 216.541 469.024 217.695 468.797 218.805L486.116 206.13C486.116 206.13 481.486 191.033 483.673 186.065C485.469 181.98 508.161 180.67 516.118 180.331C515.964 179.102 515.816 177.865 515.677 176.651L515.861 176.533C514.901 169.198 514.983 161.764 516.103 154.451C516.208 152.447 516.584 150.466 517.222 148.563L512.283 148.062C512.391 147.525 512.644 147.027 513.016 146.623C513.387 146.22 513.862 145.926 514.388 145.773C520.277 143.403 523.221 138.751 523.898 132.524C524.038 131.192 524.303 130.316 525.753 129.742C526.566 129.441 527.239 128.852 527.644 128.086C528.048 127.32 528.156 126.431 527.947 125.591Z" fill="#92C0E9"/>
<path d="M508.603 169.438L507.654 151.036H507.529C509.302 150.889 524.944 148.99 529.154 126.386C530.724 117.756 531.854 109.052 532.54 100.307C533.725 87.058 534.667 76.6133 542.617 61.421C554.099 39.4716 575.003 35.3275 575.901 35.1582L579.287 53.2434H579.375C578.838 53.3538 566.126 56.1433 558.92 69.9665C552.671 81.9201 551.987 89.4647 550.868 101.97C550.129 111.293 548.918 120.572 547.239 129.771C543.647 149.049 533.607 158.794 525.82 163.579C520.62 166.856 514.722 168.863 508.603 169.438Z" fill="#92C0E9"/>
<path fill-rule="evenodd" clip-rule="evenodd" d="M498.166 144C498.747 144.316 499.336 144.626 499.918 144.928C502.604 146.304 505.526 146.753 508.456 147.136C509.836 147.326 511.23 147.395 512.622 147.342C512.899 146.867 513.243 146.436 513.645 146.061C514.595 145.435 515.758 145.237 516.737 144.589C517.966 143.831 519.084 142.904 520.056 141.836C522.291 139.207 523.633 135.936 523.891 132.495C524.031 131.163 524.296 130.287 525.746 129.713C526.566 129.415 527.246 128.823 527.654 128.052C528.062 127.28 528.169 126.385 527.954 125.539C527.579 123.567 526.254 122.212 524.274 122.227C522.713 122.227 522.132 121.543 521.469 120.372C520.529 118.629 519.226 117.107 517.647 115.91C516.069 114.712 514.253 113.867 512.32 113.431C503.237 111.223 495.266 115.978 492.447 125.341C492.042 126.68 491.71 127.549 489.959 127.762C488.03 127.983 486.661 129.234 487.014 131.752C487.052 132.805 487.389 133.827 487.986 134.696C489.009 135.969 490.665 135.764 492.086 136.11C491.21 138.016 488.678 138.936 488.082 140.901C488.222 140.437 491.232 140.482 491.637 140.57C492.596 140.869 493.511 141.292 494.36 141.829C495.604 142.602 496.885 143.337 498.166 144Z" fill="#FEAA61"/>
<path fill-rule="evenodd" clip-rule="evenodd" d="M518.731 130.611C518.488 130.611 518.245 131.06 518.12 131.237C517.861 131.574 517.548 131.865 517.193 132.098C516.974 132.28 516.746 132.45 516.508 132.606C516.227 132.724 515.939 132.828 515.647 132.915C514.895 133.208 514.104 133.387 513.299 133.445C512.268 133.534 510.355 133.445 509.685 132.488C509.667 132.462 509.644 132.441 509.616 132.427C509.589 132.412 509.558 132.404 509.527 132.404C509.495 132.404 509.465 132.412 509.437 132.427C509.41 132.441 509.386 132.462 509.368 132.488C509.302 132.599 509.368 132.797 509.42 132.915C509.957 134.387 511.584 134.822 512.975 134.799C513.956 134.804 514.922 134.564 515.787 134.1C516.468 133.701 517.088 133.205 517.627 132.628C517.942 132.257 518.229 131.863 518.488 131.451C518.525 131.414 519.07 130.619 518.731 130.611Z" fill="#4858CC"/>
<path fill-rule="evenodd" clip-rule="evenodd" d="M515.279 127.762C515.587 127.641 515.902 127.535 516.221 127.446C516.394 127.41 516.548 127.314 516.655 127.174C516.7 127.104 516.723 127.022 516.722 126.938C516.722 126.026 515.603 124.98 515.043 124.362C514.734 124.016 513.571 122.36 513.292 123.14C513.167 123.516 513.895 124.509 514.101 124.811C514.484 125.393 515.404 126.121 514.698 126.725C514.285 127.093 512.718 127.041 512.784 127.844C512.835 128.433 514.94 127.88 515.279 127.762Z" fill="#4858CC"/>
<path fill-rule="evenodd" clip-rule="evenodd" d="M505.821 122.33C505.58 122.33 505.345 122.402 505.145 122.535C504.945 122.669 504.79 122.859 504.698 123.082C504.606 123.304 504.583 123.548 504.63 123.784C504.678 124.02 504.794 124.236 504.965 124.406C505.135 124.576 505.352 124.691 505.588 124.737C505.824 124.783 506.069 124.757 506.291 124.664C506.512 124.571 506.702 124.415 506.834 124.214C506.967 124.013 507.037 123.778 507.035 123.537C507.035 123.378 507.004 123.221 506.943 123.074C506.881 122.927 506.792 122.793 506.679 122.681C506.566 122.569 506.432 122.48 506.285 122.42C506.138 122.36 505.98 122.329 505.821 122.33Z" fill="black"/>
<path fill-rule="evenodd" clip-rule="evenodd" d="M489.112 138.473C491.878 139.184 494.585 140.106 497.209 141.233C501.507 143.095 508.169 145.436 508.169 145.436V148.034C508.169 148.034 496.892 145.244 492.483 144.17C490.007 143.55 487.494 143.083 484.961 142.771L489.112 138.473Z" fill="#DBDEE0"/>
<path fill-rule="evenodd" clip-rule="evenodd" d="M509.324 145.567L509.847 148.033L512.783 148.107L514.086 146.421L509.324 145.567Z" fill="#DBDEE0"/>
<path d="M589.99 266.331C478.63 276.31 468.338 317.204 347.751 311.952C283.34 309.147 204.159 304.023 113.754 341.262C58.7184 363.91 6.58272 369.938 0 370.652V472H767.204V261.699C767.204 261.699 701.35 256.352 589.99 266.331Z" fill="#515FF9"/>
</svg>
