<svg width="1140" height="617" viewBox="0 0 1140 617" fill="none" xmlns="http://www.w3.org/2000/svg">
<path d="M561.91 244.64C561.91 245.756 561.579 246.846 560.959 247.773C560.34 248.701 559.459 249.424 558.428 249.851C557.398 250.278 556.264 250.39 555.17 250.172C554.076 249.954 553.071 249.417 552.282 248.628C551.493 247.84 550.956 246.835 550.738 245.741C550.521 244.647 550.632 243.513 551.059 242.482C551.486 241.451 552.209 240.57 553.136 239.951C554.064 239.331 555.154 239 556.27 239C557.011 238.999 557.745 239.144 558.43 239.427C559.115 239.71 559.737 240.125 560.261 240.649C560.785 241.173 561.2 241.796 561.483 242.48C561.766 243.165 561.911 243.899 561.91 244.64Z" fill="#FBBE45"/>
<path d="M1055.77 68.7207C1055.77 69.8366 1055.44 70.9281 1054.82 71.8569C1054.21 72.7858 1053.33 73.5101 1052.3 73.9385C1051.27 74.3669 1050.13 74.4802 1049.04 74.2637C1047.94 74.0472 1046.94 73.5105 1046.15 72.7222C1045.36 71.9338 1044.82 70.9288 1044.6 69.8345C1044.38 68.7402 1044.49 67.6059 1044.92 66.5747C1045.35 65.5436 1046.07 64.6622 1047 64.042C1047.92 63.4218 1049.01 63.0908 1050.13 63.0908C1050.87 63.0895 1051.6 63.2343 1052.29 63.5166C1052.97 63.799 1053.59 64.2134 1054.12 64.7363C1054.64 65.2593 1055.06 65.8803 1055.34 66.564C1055.62 67.2477 1055.77 67.9805 1055.77 68.7207Z" fill="white"/>
<path fill-rule="evenodd" clip-rule="evenodd" d="M620.791 25.9907C620.215 26.024 619.639 25.9404 619.097 25.7446C618.555 25.5487 618.058 25.2449 617.637 24.8515C617.215 24.4581 616.878 23.9829 616.646 23.4555C616.413 22.9281 616.291 22.359 616.284 21.7827C616.278 21.2063 616.389 20.6347 616.61 20.1025C616.832 19.5702 617.159 19.0887 617.572 18.6865C617.984 18.2843 618.475 17.9699 619.012 17.7626C619.55 17.5554 620.124 17.4592 620.7 17.4804C621.86 17.477 622.977 17.9127 623.828 18.6992C624.68 19.4856 625.202 20.5649 625.291 21.7206C625.232 22.8738 624.731 23.96 623.894 24.7548C623.056 25.5496 621.945 25.9922 620.791 25.9907Z" fill="#E4989C"/>
<path fill-rule="evenodd" clip-rule="evenodd" d="M891.01 76.8003C887.32 73.9303 885.01 69.3703 880.21 67.8003C876.241 66.3257 872.418 64.4844 868.79 62.3003C870.08 61.3003 872.29 61.69 873.87 61.73H876.37L878.95 61.6401L882.73 61.7105H883.37C885.93 61.7605 888.5 61.8004 891.07 61.8804C893.8 61.9604 892.64 46.7202 892.72 44.6602C892.77 43.3302 892.87 42.0302 892.88 40.6602C892.963 39.1153 892.849 37.5663 892.54 36.0503C892.311 35.4309 892.222 34.7683 892.28 34.1104C892.308 33.5069 892.24 32.9028 892.08 32.3203C892.029 32.1123 891.962 31.9086 891.88 31.7105C891.404 30.2217 890.695 28.8175 889.78 27.5503C889.108 26.5435 888.381 25.5754 887.6 24.6504C886.871 23.8709 886.056 23.1762 885.17 22.5801C876.05 16.2301 864.36 20.9703 861.17 31.5303C860.844 32.652 860.576 33.7904 860.37 34.9404C860.197 34.9204 860.023 34.9204 859.85 34.9404C855.16 35.7704 855.11 60.0204 858.45 61.9404C859.45 62.5004 860.45 63.03 861.45 63.54C863.45 64.54 865.45 65.5404 867.51 66.4204L869.24 67.1504L870.1 67.5103C870.372 67.6509 870.656 67.7646 870.95 67.8501C871.86 68.3501 872.76 68.8501 873.69 69.3301C875.85 70.4001 879.34 71.0204 879.84 72.6104C880.43 74.4604 876.97 75.97 875.75 78.02C875.76 78.1632 875.76 78.307 875.75 78.4502C875.76 78.307 875.76 78.1632 875.75 78.02C874.46 78.97 874.12 79.8901 875.9 80.6401C877.216 81.2353 878.646 81.5355 880.09 81.52C882.227 81.9431 884.424 81.9671 886.57 81.5903C887.71 81.4403 888.85 81.3501 889.98 81.1401C891.11 80.9301 892.52 80.7602 892.72 79.4702C892.752 78.902 892.603 78.3381 892.296 77.8589C891.989 77.3797 891.539 77.0094 891.01 76.8003ZM863.35 35.1001V35.0103V35.1001ZM864.62 34.7803H863.99C864.75 31.0603 866.19 27.8303 869.64 25.7803C874.36 22.9503 880.74 22.9203 884.43 27.3403C886.23 29.4903 887.84 31.7702 887.95 34.6602C886.58 35.2102 884.79 34.9602 883.35 34.9102C880.35 34.8002 877.35 35.1602 874.35 35.1802C872.21 35.1802 870.23 35.0702 868.07 34.9102C866.91 34.7202 865.75 34.8103 864.62 34.7803Z" fill="#02242A"/>
<path fill-rule="evenodd" clip-rule="evenodd" d="M892.79 15.7207C892.819 15.6966 892.846 15.6697 892.87 15.6406C893.106 15.3678 893.282 15.0497 893.389 14.7056C893.495 14.3614 893.53 13.9987 893.49 13.6406C893.474 13.2425 893.379 12.8516 893.21 12.4907C893.07 12.1707 892.78 11.8407 892.85 11.4907C892.927 11.1618 892.927 10.8196 892.85 10.4907C892.609 9.72039 892.298 8.97393 891.92 8.26073C891.517 6.92822 890.998 5.63321 890.37 4.39061C889.52 3.10061 885.37 1.26065 883.91 0.680653C880.08 -0.819347 849.47 9.76077 849.18 10.3008C847.67 13.0708 849.06 21.7906 849.06 21.8706C849.8 21.8106 866.39 17.1705 866.81 17.2505C867.23 17.3305 867.13 17.6907 867.21 17.9507C867.489 18.7121 867.913 19.412 868.46 20.0107C869.443 21.1388 870.685 22.0107 872.08 22.5508C872.802 22.8309 873.54 23.068 874.29 23.2607C875.165 23.4388 876.062 23.4825 876.95 23.3906H878C878.35 23.3373 878.675 23.1766 878.93 22.9307C879.19 22.6941 879.354 22.37 879.39 22.0205C879.5 21.6164 879.521 21.1935 879.45 20.7808C879.16 19.3407 877.45 18.4808 876.29 17.7808C875.32 17.2349 874.318 16.7474 873.29 16.3208C873.9 16.0508 874.46 15.8408 874.98 15.5508C876.126 14.9288 877.182 14.1549 878.12 13.2505C878.193 13.1581 878.296 13.0946 878.412 13.0708C878.527 13.047 878.647 13.0647 878.75 13.1206C880.18 13.6506 881.62 14.1206 883.06 14.6606V14.7207C882.29 15.3407 882.31 16.0606 883.06 16.4106C883.065 16.4538 883.065 16.4973 883.06 16.5405C882.858 16.6156 882.672 16.7307 882.515 16.8789C882.358 17.0271 882.232 17.2055 882.146 17.4033C882.059 17.6011 882.013 17.8148 882.01 18.0308C882.008 18.2467 882.048 18.4608 882.13 18.6606C882.13 18.6606 882.13 18.7205 882.13 18.7505C881.667 18.9263 881.227 19.1584 880.82 19.4409C880.517 19.6612 880.298 19.9787 880.2 20.3408C880.138 20.5241 880.111 20.7173 880.12 20.9106C880.12 21.1006 880.12 21.3007 880.12 21.4907C880.138 21.647 880.172 21.8011 880.22 21.9507C880.303 22.2338 880.438 22.4984 880.62 22.7305C881.53 23.6805 882.89 23.5505 884.07 23.2705C884.241 23.2073 884.419 23.1638 884.6 23.1406C884.743 23.1605 884.888 23.1605 885.03 23.1406C885.21 23.0706 885.37 22.9606 885.55 22.8906C885.73 22.8206 885.88 22.8205 886.04 22.7705C886.46 22.6405 886.88 22.5406 887.3 22.3906C888.125 22.112 888.922 21.7571 889.68 21.3306C890.117 21.0876 890.538 20.817 890.94 20.5205C891.43 20.2125 891.848 19.802 892.164 19.3169C892.48 18.8317 892.687 18.2838 892.77 17.7109C892.78 16.9209 892.38 16.2107 892.79 15.7207Z" fill="#FEAA61"/>
<path fill-rule="evenodd" clip-rule="evenodd" d="M902.42 29.7808C902.449 29.7486 902.484 29.7227 902.524 29.7051C902.564 29.6875 902.607 29.6787 902.65 29.6787C902.693 29.6787 902.736 29.6875 902.776 29.7051C902.815 29.7227 902.851 29.7486 902.88 29.7808L902.64 29.9307L902.42 29.7808Z" fill="#266347"/>
<path fill-rule="evenodd" clip-rule="evenodd" d="M879.76 21.1406C879.656 20.8175 879.606 20.4798 879.61 20.1406C877.304 19.6465 874.916 19.6826 872.626 20.2456C870.336 20.8085 868.204 21.8837 866.39 23.3906C867.388 24.0581 868.27 24.8861 869 25.8408C870.099 25.1071 871.302 24.5442 872.57 24.1709C874.513 23.6806 876.541 23.6222 878.51 24.0005C878.679 23.9286 878.852 23.8688 879.03 23.8208C879.09 23.4908 879.16 23.1608 879.25 22.8208C879.384 22.2918 879.575 21.7786 879.82 21.2905L879.76 21.1406Z" fill="#02242A"/>
<path fill-rule="evenodd" clip-rule="evenodd" d="M821.29 77.2808H821.35C821.35 77.0508 821.28 76.8306 821.25 76.6006C821.29 76.8106 821.29 77.0508 821.29 77.2808Z" fill="white"/>
<path fill-rule="evenodd" clip-rule="evenodd" d="M752.29 203.591C750.69 203.301 749.29 202.59 749.29 200.75C749.262 200.363 749.318 199.974 749.453 199.609C749.588 199.245 749.799 198.914 750.073 198.638C750.347 198.362 750.677 198.149 751.04 198.011C751.404 197.874 751.792 197.815 752.18 197.841C752.567 197.797 752.959 197.836 753.33 197.954C753.7 198.072 754.042 198.268 754.332 198.527C754.622 198.787 754.853 199.105 755.012 199.461C755.17 199.816 755.251 200.201 755.25 200.591C755.35 202.431 754 203.221 752.29 203.591Z" fill="#EBECE6"/>
<path fill-rule="evenodd" clip-rule="evenodd" d="M879.29 130.36C878.22 125.63 874.24 127.68 870.8 126.97C875.31 121.92 878.67 116.33 883.66 112.33C889.18 107.9 897.91 108.24 903.92 114.82C905 114.18 905.08 112.94 905.53 111.97C907.41 107.97 909.32 103.92 912.19 100.48C914.83 97.3198 921.07 95.5799 924.33 97.0599C925.702 97.6592 926.865 98.6536 927.67 99.9163C928.475 101.179 928.886 102.653 928.85 104.15C929.003 105.796 928.691 107.452 927.951 108.929C927.21 110.407 926.07 111.648 924.66 112.51C919.9 115.44 914.5 116.51 909.13 117.51C907 117.93 905.92 118.19 906.62 121.01C908.14 127.15 905.51 132.92 899.98 136.14C898.15 137.21 898.15 138.14 898.66 139.87C906.106 164.77 913.523 189.677 920.91 214.59C923.14 222.08 925.36 229.59 928.08 237.02C929.206 228.533 930.333 220.05 931.46 211.57C931.682 211.793 931.856 212.059 931.973 212.351C932.09 212.643 932.147 212.955 932.14 213.27C933.43 224.35 933.88 235.5 934.68 246.62C934.997 249.144 934.68 251.708 933.76 254.08C933.305 255.275 933.305 256.595 933.76 257.79C934.76 261.02 935.63 264.27 936.62 267.49C938.87 274.84 938.89 274.93 931.4 274.9C928.67 274.9 928.4 275.65 928.86 278.24C930.77 287.79 934.33 297.11 933.42 307.11C933.19 309.73 933.04 312.36 932.84 314.98H929.04C929.36 300.24 929.63 285.51 925.23 271.19C924.01 265.35 922.86 259.49 920.61 253.93C920.19 252.87 920.05 251.03 918.47 251.34C916.89 251.65 916.96 253.34 916.94 254.76C916.871 259.066 917.709 263.339 919.4 267.3C919.92 272.98 921.47 278.46 922.46 284.06C923.46 289.9 924.7 295.72 925.89 301.88C924.54 300.95 924.57 299.79 924.21 298.88C922.09 293.25 920.21 287.54 917.91 281.98C913.54 271.34 910.25 260.53 911.19 248.84C911.3 248.43 911.311 247.999 911.222 247.584C911.133 247.168 910.947 246.78 910.68 246.45V245.26C911.31 244.74 911.24 244.02 911.24 243.26C911.24 241.9 911.32 240.52 911.24 239.16C911.12 236.85 911.17 234.45 908.66 233.16C905.3 232.44 903.88 234.06 903.42 237.23C902.825 241.922 902.785 246.668 903.3 251.37C903.96 258.67 904.77 265.95 905.52 273.25C899.44 274.65 893.25 274.18 887.09 274.25C889.4 264.97 891.53 255.64 894.09 246.42C897.42 234.34 900.51 222.22 901.83 209.72C904.83 209.72 907.62 209.35 909.03 206.27C909.779 204.747 910.122 203.057 910.025 201.363C909.929 199.668 909.397 198.028 908.48 196.6C907.645 195.245 906.4 194.19 904.926 193.589C903.451 192.988 901.824 192.872 900.279 193.258C898.735 193.643 897.353 194.51 896.334 195.733C895.314 196.956 894.711 198.471 894.61 200.06C894.34 203.01 895.61 205.36 897.3 207.59C895.85 211.77 894.45 215.97 892.96 220.14C887.406 235.64 881.833 251.13 876.24 266.61C874.85 270.45 873.35 274.26 871.62 278.84C870.945 274.981 871.45 271.008 873.07 267.44C874.591 263.855 875.897 260.182 876.98 256.44C880.34 244.85 881.09 232.79 883.35 221C885.92 207.56 886.35 193.78 889.81 180.48C890.851 180.348 891.881 180.137 892.89 179.85C894.537 179.224 895.926 178.063 896.833 176.552C897.74 175.041 898.112 173.268 897.89 171.52C897.719 169.822 896.966 168.236 895.76 167.03C894.553 165.824 892.967 165.071 891.27 164.9C888.11 164.64 884.76 167 883.64 170.47C883.004 172.114 882.945 173.925 883.472 175.607C883.999 177.289 885.08 178.742 886.54 179.73C884.31 187.27 882.14 194.82 881.12 202.65C880.76 205.42 880.31 208.19 879.9 210.95C879.121 209.511 878.52 207.984 878.11 206.4C877.26 204.11 877 201.45 874.57 200.02H874.51V199.39C870.7 199.24 871.82 202.25 872.09 203.89C873.029 209.65 874.922 215.212 877.69 220.35C877.63 221.85 878.96 222.93 878.69 224.58C877.8 230.83 877.62 237.18 876.33 243.38C875.14 249.1 874.12 254.88 871.46 260.22C871.46 250.27 870.7 240.39 870.12 230.47C861.33 244.04 864.82 258.97 865.28 273.62C863.93 269.75 862.94 265.79 861.62 261.94C860.13 257.59 859.62 252.94 857.26 248.84C863.186 226.84 869.113 204.84 875.04 182.84C878.81 168.84 882.52 154.78 886.38 140.79C886.98 138.59 887.14 137.21 884.65 136.14C882.592 135.231 880.956 133.577 880.07 131.51C881.392 131.562 882.699 131.213 883.82 130.51C884.12 130.3 884.75 130.07 884.82 129.68C884.842 129.585 884.84 129.487 884.814 129.393C884.788 129.3 884.739 129.214 884.671 129.144C884.603 129.075 884.519 129.023 884.426 128.994C884.334 128.966 884.235 128.961 884.14 128.98C883.7 129.06 883.2 129.55 882.73 129.7C881.621 130.085 880.462 130.308 879.29 130.36Z" fill="#DBDEE0"/>
<path fill-rule="evenodd" clip-rule="evenodd" d="M1008.1 271.981C1008.1 270.381 1007.74 269.751 1006.01 269.781C1000.43 269.891 994.85 269.841 989.26 269.851C989.014 269.281 988.823 268.688 988.69 268.081C987.21 255.195 985.74 242.305 984.28 229.411C983.22 219.871 982.42 210.301 981.09 200.801C980.18 194.371 976.88 189.391 970.22 187.371C968.6 186.941 969.02 185.611 969.01 184.521C968.97 178.521 968.95 172.545 968.95 166.591C968.56 166.791 968.14 166.941 967.8 167.091C967.46 167.241 967.25 167.301 966.97 167.391L966.78 167.442C966.63 167.442 966.48 167.531 966.32 167.561H966.1L965.67 167.641H965.42L964.88 167.692C963.46 167.782 960.55 167.771 960.44 166.621C960.823 166.738 961.214 166.828 961.61 166.891C963.074 167.062 964.556 166.974 965.99 166.632L966.22 166.561C966.828 166.355 967.394 166.04 967.89 165.632C968.003 165.535 968.107 165.427 968.2 165.311C968.74 164.521 968.84 163.492 969.44 162.712C969.51 162.802 969.58 162.891 969.65 163.001L969.74 162.761C969.93 161.081 970.61 160.171 972.55 160.321C973.548 160.413 974.552 160.413 975.55 160.321C976.86 160.211 977.55 160.321 976.98 158.891C976.09 156.571 974.39 154.351 973.22 152.141C971.91 149.641 970.58 147.141 969.32 144.601C968.06 142.061 966.55 140.101 964.04 139.041C954.22 134.921 944.69 140.161 945.33 149.811C945.54 152.941 945.33 156.101 945.33 159.081C944.45 159.531 944.06 159.082 943.58 158.902C940.26 157.852 937.21 158.671 935.39 161.241C934.52 162.317 934.013 163.641 933.943 165.023C933.873 166.405 934.243 167.773 935 168.931C936.82 171.821 940.08 172.741 943.63 171.601C945.63 170.971 945.89 172.131 946.03 173.991C946.076 175.385 946.043 176.781 945.93 178.172C945.85 180.352 945.93 182.541 945.93 184.721C945.93 186.011 946.11 186.781 944.93 187.391C943.75 188.001 942.09 188.312 940.76 188.942C937.959 190.148 935.645 192.261 934.19 194.942C935.81 198.472 935.53 202.331 935.95 206.031C937.376 218.465 938.626 230.918 939.7 243.391C940.19 248.941 940.87 254.502 941.07 260.212C941.97 256.302 942.71 252.351 943.84 248.501C944.31 246.911 943.7 243.822 946.35 244.192C948.75 244.532 947.49 247.271 947.35 248.791C946.35 260.631 945.05 272.451 943.87 284.281C943.15 291.501 942.453 298.725 941.78 305.951C941.5 308.951 938.46 327.331 938.24 330.331C940.36 330.331 943.77 325.411 945.89 325.411C945.24 322.281 948.24 308.901 948.99 306.101C951.99 295.041 954.61 283.891 957.56 272.811C957.56 272.631 957.77 272.481 958.09 272.001C959.43 281.131 960.7 290.001 962.03 298.831C962.84 304.211 964.11 322.721 965.5 328.011C970.79 328.011 978.32 332.011 983.61 332.011C982.83 326.011 977.42 303.311 975.77 297.551C970.77 279.911 965.42 262.351 960.21 244.761C953.88 244.601 950.21 241.202 948.08 235.402C944.77 226.262 943.71 216.751 942.7 206.561C945.13 207.961 947.15 209.021 949.07 210.241C950.51 211.161 951.27 211.181 951.52 209.241C951.77 207.301 952.28 205.091 952.79 202.331L962.37 216.962C963.48 211.692 964.46 207.091 965.59 201.731C967.038 206.46 968.229 211.264 969.16 216.121C970.322 221.225 971.124 226.405 971.56 231.621C972.11 239.061 969.82 242.151 962.68 244.561L983.68 314.922H984.95C983.59 306.922 982.17 298.922 980.89 290.922C979.33 281.152 977.97 271.361 977.22 261.481C976.91 257.271 976.66 253.071 976.64 248.851V247.661C976.64 247.231 976.57 246.791 976.53 246.361C975.53 241.571 976.23 236.742 976.09 231.922C976.061 231.737 976.077 231.548 976.136 231.37C976.196 231.193 976.297 231.032 976.431 230.902C976.565 230.772 976.728 230.676 976.907 230.622C977.086 230.568 977.276 230.557 977.46 230.591C978.6 230.651 979.08 231.331 979.24 232.411C979.85 236.411 980.51 240.501 981.12 244.541C981.4 246.401 982.03 248.231 981.75 250.161C984.516 269.341 987.293 288.525 990.08 307.712C990.43 310.112 995.96 341.121 996.37 343.511C997.22 343.511 1001.86 352.161 1002.71 352.161C1002.71 350.391 993.83 311.341 993.83 309.571L1000.83 309.471C1001.05 309.201 1001.26 309.191 1001.48 309.471C1002.95 309.471 1004.48 309.381 1005.9 309.531C1007.69 309.701 1008.25 309.091 1008.23 307.261C1008.08 295.568 1008.03 283.808 1008.1 271.981Z" fill="#DBDEE0"/>
<path fill-rule="evenodd" clip-rule="evenodd" d="M940.95 110.721C940.71 110.461 940.28 110.231 940.76 109.811L941.23 110.5L940.95 110.721Z" fill="#FEF2F0"/>
<path fill-rule="evenodd" clip-rule="evenodd" d="M1000.7 309.591C1000.92 309.321 1001.13 309.311 1001.35 309.591H1000.7Z" fill="#266347"/>
<path fill-rule="evenodd" clip-rule="evenodd" d="M864.9 139.221L865.01 139.021C864.96 139.081 864.92 139.141 864.87 139.191L864.9 139.221Z" fill="#FEF2F0"/>
<path fill-rule="evenodd" clip-rule="evenodd" d="M913.75 82.0908L913.53 81.9307L913.76 82.0806L913.75 82.0908Z" fill="#FEF2F0"/>
<path fill-rule="evenodd" clip-rule="evenodd" d="M985.45 177.301L985.22 177.121L985.51 177.241L985.45 177.301Z" fill="#FEF2F0"/>
<path fill-rule="evenodd" clip-rule="evenodd" d="M962.6 244.64L960.13 244.85C953.8 244.69 950.13 241.29 948 235.49C944.69 226.35 943.63 216.84 942.62 206.65C945.05 208.05 947.07 209.11 948.99 210.33C950.43 211.25 951.19 211.27 951.44 209.33C951.69 207.39 952.2 205.18 952.71 202.42L962.29 217.05C963.4 211.78 964.38 207.18 965.51 201.82C966.958 206.549 968.15 211.353 969.08 216.21C970.242 221.314 971.044 226.494 971.48 231.71C972.03 239.14 969.74 242.23 962.6 244.64Z" fill="#D589E1"/>
<path fill-rule="evenodd" clip-rule="evenodd" d="M976.42 246.48C977.18 246.85 977.14 247.291 976.53 247.781C976.5 247.351 976.46 246.91 976.42 246.48Z" fill="#02242A"/>
<path fill-rule="evenodd" clip-rule="evenodd" d="M901.77 209.791C900.151 209.343 898.619 208.623 897.241 207.661C895.551 205.431 894.241 203.081 894.551 200.131C894.651 198.542 895.255 197.026 896.274 195.803C897.293 194.581 898.675 193.714 900.22 193.328C901.765 192.943 903.392 193.06 904.866 193.66C906.341 194.261 907.585 195.316 908.421 196.671C909.337 198.099 909.87 199.74 909.966 201.434C910.063 203.128 909.72 204.818 908.971 206.341C907.561 209.421 904.74 209.811 901.77 209.791Z" fill="#D589E1"/>
<path fill-rule="evenodd" clip-rule="evenodd" d="M889.75 180.521C888.66 180.261 887.56 180.011 886.47 179.771C885.01 178.783 883.929 177.33 883.402 175.648C882.875 173.966 882.934 172.155 883.57 170.511C884.69 167.041 888.04 164.681 891.2 164.941C892.897 165.113 894.483 165.865 895.69 167.071C896.896 168.278 897.649 169.864 897.82 171.561C898.042 173.309 897.67 175.082 896.763 176.593C895.856 178.104 894.467 179.265 892.82 179.891C891.814 180.178 890.788 180.389 889.75 180.521Z" fill="#D589E1"/>
<path fill-rule="evenodd" clip-rule="evenodd" d="M960.13 244.851C965.34 262.441 970.65 280.001 975.69 297.641C977.34 303.401 979.61 309 980.39 315C986.07 341.9 992.32 343.631 993.39 343.631C986.39 320.181 969.6 268.101 962.61 244.631L960.13 244.851Z" fill="#24C488"/>
<path fill-rule="evenodd" clip-rule="evenodd" d="M892.9 220.211C887.347 235.711 881.774 251.201 876.18 266.681C874.79 270.521 873.29 274.331 871.56 278.911C870.885 275.051 871.39 271.078 873.01 267.511C874.532 263.925 875.838 260.252 876.92 256.511C880.28 244.921 881.03 232.861 883.29 221.071C885.86 207.631 886.29 193.851 889.75 180.551C888.66 180.291 887.56 180.041 886.47 179.801C884.24 187.341 882.07 194.891 881.05 202.721C880.69 205.491 880.24 208.261 879.83 211.021C879.052 209.582 878.451 208.054 878.04 206.471C877.19 204.181 876.93 201.521 874.5 200.091H874.44C874.358 199.95 874.288 199.803 874.23 199.651C874.23 199.651 874.36 199.521 874.44 199.461C870.63 199.311 871.75 202.321 872.02 203.961C872.96 209.721 874.852 215.283 877.62 220.421C877.56 221.921 878.89 223.001 878.62 224.651C877.73 230.901 877.55 237.251 876.26 243.451C875.07 249.171 874.05 254.951 871.39 260.291C871.39 250.341 870.63 240.461 870.05 230.541C861.26 244.111 864.75 259.041 865.21 273.691C863.86 269.821 862.87 265.861 861.55 262.011C860.06 257.661 859.55 253.011 857.19 248.911C856.72 250.781 856.26 252.661 855.77 254.531C854.17 260.531 852.63 266.471 850.93 272.401C850.35 274.401 850.8 275.021 852.93 274.861C855.06 274.701 857.14 274.861 859.24 274.861C860.66 274.801 861.04 275.151 860.71 276.651C859.77 280.861 859.07 285.131 858.19 289.351C856.43 297.881 854.5 306.351 853.47 315.041H875.05C877.09 303.401 879.134 291.761 881.18 280.121C882.06 275.121 882.08 275.121 887.06 274.361C889.37 265.081 891.5 255.751 894.06 246.531C897.39 234.451 900.48 222.331 901.8 209.831C900.18 209.383 898.648 208.663 897.27 207.701C895.79 211.841 894.39 216.041 892.9 220.211Z" fill="#24C488"/>
<path fill-rule="evenodd" clip-rule="evenodd" d="M946.29 244.25C943.64 243.88 944.29 246.97 943.78 248.56C942.65 252.41 941.91 256.36 941.01 260.27C940.81 254.56 940.13 249 939.64 243.45C938.547 230.984 937.297 218.53 935.89 206.09C935.47 202.39 935.75 198.53 934.13 195C932.37 198.14 932.47 201.69 932.25 205.09C932.11 207.29 930 209.24 931.46 211.59C931.682 211.813 931.856 212.079 931.973 212.371C932.09 212.663 932.147 212.976 932.14 213.29C933.43 224.37 933.88 235.52 934.68 246.64C934.997 249.165 934.68 251.728 933.76 254.1C933.305 255.295 933.305 256.615 933.76 257.81C934.76 261.04 935.63 264.29 936.62 267.51C938.87 274.86 938.89 274.95 931.4 274.92C928.67 274.92 928.4 275.67 928.86 278.26C930.77 287.81 934.33 297.13 933.42 307.13C933.19 309.75 933.04 312.38 932.84 315C935.59 315 936.2 324.9 938.95 324.9C939.16 321.9 941.47 309 941.75 306.01C942.417 298.784 943.113 291.56 943.84 284.34C945.02 272.51 946.28 260.69 947.32 248.85C947.4 247.33 948.66 244.59 946.29 244.25Z" fill="#24C488"/>
<path fill-rule="evenodd" clip-rule="evenodd" d="M989.97 307.831C987.183 288.651 984.407 269.468 981.64 250.281C981.92 248.351 981.29 246.521 981.01 244.661C980.4 240.661 979.74 236.581 979.13 232.531C978.97 231.451 978.49 230.771 977.35 230.711C977.166 230.677 976.977 230.687 976.798 230.741C976.619 230.795 976.455 230.891 976.321 231.022C976.187 231.152 976.086 231.313 976.027 231.49C975.967 231.667 975.951 231.856 975.98 232.041C976.12 236.861 975.43 241.691 976.42 246.481C977.18 246.851 977.14 247.291 976.53 247.781V248.971C976.53 253.191 976.8 257.391 977.11 261.601C977.86 271.481 979.22 281.271 980.78 291.041C982.06 299.041 988.78 333.921 990.13 341.901C992.25 341.901 994.13 343.631 996.26 343.631C995.85 341.241 990.29 310.231 989.97 307.831Z" fill="#24C488"/>
<path fill-rule="evenodd" clip-rule="evenodd" d="M920.56 253.95C920.14 252.89 920 251.051 918.42 251.361C916.84 251.671 916.91 253.36 916.89 254.78C916.822 259.087 917.66 263.359 919.35 267.321C919.87 273.001 921.42 278.48 922.41 284.08C923.41 289.92 924.65 295.741 925.84 301.901C924.49 300.971 924.52 299.811 924.16 298.901C922.04 293.271 920.16 287.56 917.86 282C916.75 279.3 915.69 276.58 914.78 273.81C913.117 268.943 911.948 263.922 911.29 258.821C910.98 256.243 910.88 253.644 910.99 251.051C911.11 248.661 911.24 246.251 911.13 243.861C911.07 242.311 911.25 240.751 911.13 239.191C911.01 236.881 911.06 234.481 908.55 233.191C905.19 232.471 903.77 234.09 903.31 237.26C902.716 241.953 902.675 246.699 903.19 251.401C903.85 258.701 904.66 265.98 905.41 273.28C907.21 273.48 906.98 275.031 907.21 276.171C908.28 281.481 908.53 286.961 910.43 292.111C910.57 293.251 910.65 294.4 910.84 295.53C911.994 302.017 913.154 308.507 914.32 315H928.92C929.24 300.26 929.51 285.531 925.11 271.211C923.96 265.371 922.81 259.51 920.56 253.95Z" fill="#24C488"/>
<path fill-rule="evenodd" clip-rule="evenodd" d="M874.44 200.101C874.358 199.96 874.288 199.813 874.23 199.661C874.23 199.661 874.36 199.531 874.44 199.471V200.101Z" fill="#02242A"/>
<path fill-rule="evenodd" clip-rule="evenodd" d="M869.29 121.48C869.98 122.3 870.93 122.99 872 122.48C872.92 122.132 873.716 121.52 874.29 120.721C874.52 120.361 874.7 119.901 874.13 120.201C873.56 120.501 873.46 120.861 872.92 121.061C871.86 121.461 870.28 121.831 869.4 120.891C869.12 120.581 868.91 119.951 868.46 119.891C868.513 120.016 868.576 120.136 868.65 120.25C868.667 120.228 868.687 120.208 868.71 120.191L868.65 120.25C868.87 120.65 869.08 121.07 869.29 121.48Z" fill="#4858CC"/>
<path fill-rule="evenodd" clip-rule="evenodd" d="M959.51 154.921C960.2 155.741 961.15 156.441 962.23 155.921C963.16 155.54 963.956 154.893 964.52 154.061C964.75 153.701 964.94 153.241 964.37 153.551C963.8 153.861 963.7 154.201 963.16 154.401C962.1 154.801 960.51 155.18 959.64 154.23C959.36 153.93 959.15 153.3 958.64 153.23L958.83 153.601L958.89 153.541L958.83 153.601C959.1 154.081 959.29 154.501 959.51 154.921Z" fill="#4858CC"/>
<path fill-rule="evenodd" clip-rule="evenodd" d="M854.97 174.361C854.741 174.692 854.596 175.074 854.549 175.474C854.502 175.874 854.554 176.279 854.7 176.654C854.846 177.029 855.082 177.363 855.387 177.626C855.692 177.889 856.057 178.072 856.45 178.161C858.31 178.851 859.11 177.561 859.53 175.961C860.4 172.651 860.02 169.291 859.31 165.701L854.97 174.361Z" fill="#92C0E9"/>
<path fill-rule="evenodd" clip-rule="evenodd" d="M839.751 191.451C837.717 193.712 836.144 196.348 835.121 199.211C834.601 200.471 833.8 201.691 835.22 202.891C835.97 203.521 836.711 204.151 837.741 203.571C838.393 203.231 838.931 202.707 839.286 202.063C839.642 201.419 839.8 200.684 839.741 199.951C839.711 197.111 839.751 194.281 839.751 191.451Z" fill="#92C0E9"/>
<path fill-rule="evenodd" clip-rule="evenodd" d="M896.42 83.8506L895.62 84.0205C896.04 87.2105 895.1 90.4308 896.23 93.6108C896.83 95.3008 897.8 96.6108 899.71 95.8008C901.62 94.9908 901.71 93.5208 900.83 91.8008C899.37 89.1708 897.89 86.5106 896.42 83.8506Z" fill="#92C0E9"/>
<path fill-rule="evenodd" clip-rule="evenodd" d="M910.35 164.871L909.57 165.291C910.45 168.401 911.25 171.541 912.25 174.611C912.77 176.211 913.99 177.121 915.69 176.091C917.16 175.211 917.69 173.871 916.48 172.371C914.47 169.851 912.4 167.371 910.35 164.871Z" fill="#92C0E9"/>
<path fill-rule="evenodd" clip-rule="evenodd" d="M999.29 250.841C996.653 248.689 993.794 246.825 990.76 245.281C992.08 248.417 993.758 251.39 995.76 254.141C995.936 254.474 996.19 254.76 996.5 254.974C996.811 255.188 997.168 255.324 997.542 255.37C997.916 255.416 998.296 255.371 998.649 255.239C999.002 255.107 999.318 254.892 999.57 254.611C1001.09 253.321 1000.55 251.871 999.29 250.841Z" fill="#92C0E9"/>
<path fill-rule="evenodd" clip-rule="evenodd" d="M856.29 139.221L856.4 139.021C856.4 139.081 856.31 139.141 856.26 139.191V139.261L855.931 139.661C854.611 141.291 853.271 142.901 851.931 144.541L851.48 145.111C850.96 145.771 850.481 146.431 849.941 147.111C848.861 148.541 848.65 150.241 850.61 151.061C850.974 151.25 851.378 151.347 851.788 151.342C852.197 151.337 852.599 151.231 852.958 151.033C853.316 150.835 853.62 150.551 853.842 150.207C854.064 149.863 854.198 149.469 854.23 149.061C854.93 145.801 856.02 142.611 856.23 139.241L856.29 139.221Z" fill="#92C0E9"/>
<path fill-rule="evenodd" clip-rule="evenodd" d="M911.79 126.201C912.15 129.491 912.46 132.761 914.11 135.651C914.25 135.908 914.443 136.13 914.678 136.303C914.913 136.477 915.182 136.597 915.468 136.655C915.754 136.713 916.049 136.708 916.333 136.64C916.616 136.572 916.882 136.443 917.11 136.261C918.32 135.491 918.94 134.381 918.11 133.051C916.432 130.407 914.291 128.086 911.79 126.201Z" fill="#92C0E9"/>
<path fill-rule="evenodd" clip-rule="evenodd" d="M940.39 115.131C938.03 113.241 935.71 111.231 932.65 110.481L932.19 109.791C931.71 110.211 932.19 110.441 932.38 110.701C933.85 113.241 935.24 115.821 936.81 118.291C936.986 118.618 937.233 118.901 937.533 119.119C937.833 119.337 938.179 119.484 938.544 119.55C938.909 119.615 939.284 119.598 939.641 119.498C939.998 119.398 940.328 119.218 940.606 118.973C940.884 118.727 941.103 118.422 941.247 118.08C941.39 117.737 941.454 117.367 941.435 116.997C941.415 116.627 941.311 116.265 941.132 115.94C940.953 115.616 940.703 115.336 940.4 115.121L940.39 115.131Z" fill="#92C0E9"/>
<path fill-rule="evenodd" clip-rule="evenodd" d="M985.42 182.451C985.08 182.211 984.74 181.971 984.42 181.721C982.07 180.001 979.81 178.091 976.93 177.241L976.65 177.121L976.87 177.301C978.277 180.232 979.951 183.028 981.87 185.651C982.046 185.983 982.302 186.265 982.615 186.472C982.928 186.679 983.287 186.805 983.661 186.837C984.034 186.87 984.41 186.809 984.754 186.659C985.098 186.51 985.399 186.276 985.63 185.981C986.79 184.801 986.74 183.361 985.42 182.451Z" fill="#92C0E9"/>
<path fill-rule="evenodd" clip-rule="evenodd" d="M912.18 89.0601C912.402 88.8652 912.574 88.6201 912.682 88.3452C912.79 88.0703 912.83 87.7736 912.8 87.48C912.769 87.1863 912.669 86.9043 912.507 86.6572C912.346 86.4102 912.127 86.2054 911.87 86.0601C909.73 84.6001 907.87 82.6601 905.17 82.0601L904.94 81.9102L905.17 82.0703C906.42 84.2403 907.61 86.4801 908.98 88.5801C909.76 89.8001 911.03 90.2201 912.18 89.0601Z" fill="#92C0E9"/>
<path fill-rule="evenodd" clip-rule="evenodd" d="M883.29 90.9512C882.78 92.4212 883.29 93.6311 884.71 93.8711C886.13 94.1111 886.78 92.8712 886.83 91.4512C886.859 88.7516 886.523 86.0604 885.83 83.4512C884.87 86.2912 884.08 88.6212 883.29 90.9512Z" fill="#92C0E9"/>
<path fill-rule="evenodd" clip-rule="evenodd" d="M873.42 89.0508C870.77 91.0508 869.01 93.8109 866.8 96.1909C866.515 96.439 866.295 96.7518 866.157 97.1035C866.02 97.4552 865.97 97.8351 866.011 98.2104C866.052 98.5858 866.184 98.9453 866.394 99.2588C866.605 99.5723 866.888 99.8304 867.22 100.011C868.81 101.101 870.22 100.22 870.8 98.7305L871.27 97.5708C872.38 94.8608 873.5 92.1208 873.46 89.0908C873.51 88.9908 873.55 88.9008 873.59 88.8008C873.539 88.8879 873.482 88.9714 873.42 89.0508Z" fill="#92C0E9"/>
<path fill-rule="evenodd" clip-rule="evenodd" d="M842.37 118.011C840.92 119.611 841.27 120.901 842.81 121.951C844.35 123.001 845.65 122.061 846.38 120.651C847.931 117.519 848.99 114.166 849.52 110.711C846.949 112.953 844.558 115.394 842.37 118.011Z" fill="#92C0E9"/>
<path fill-rule="evenodd" clip-rule="evenodd" d="M692.54 330.521C692.54 331.381 682.17 360.781 682.17 360.781L734.45 362.221C734.45 362.221 739.77 347.871 729.11 340.951C718.45 334.031 716.69 334.841 716.69 334.841L718.48 325.041L692.54 330.521Z" fill="black"/>
<path fill-rule="evenodd" clip-rule="evenodd" d="M754.12 311.931L750.5 337.661L796.03 343.661C796.03 343.661 809.72 328.15 799.03 321.23C792.916 317.136 785.533 315.38 778.23 316.281L777.36 308.891L754.12 311.931Z" fill="black"/>
<path d="M841.29 318.461C841.29 318.461 844.9 307.241 855.16 304.071C860.912 302.239 866.836 300.995 872.84 300.361L874.22 315.001L841.29 318.461Z" fill="#24C488"/>
<path d="M889.29 316.371C889.29 316.371 892.9 305.15 903.17 301.98C908.919 300.147 914.839 298.904 920.84 298.271L922.22 312.911L889.29 316.371Z" fill="#24C488"/>
<path fill-rule="evenodd" clip-rule="evenodd" d="M780.34 292.38C780.353 291.045 780.296 289.71 780.17 288.38C778.67 278.07 777.39 267.71 776.17 257.38C775.1 248.38 774.17 239.3 773.27 230.24C772.1 218 770.17 205.85 768.76 193.63C768.11 193.489 767.512 193.173 767.029 192.716C766.546 192.26 766.197 191.68 766.02 191.04C765.46 189.39 764.83 187.78 764.37 186.1C764.229 185.578 764.212 185.03 764.32 184.5C764.04 183.76 763.74 183.04 763.41 182.32L756.69 184.74C749.504 188.986 741.571 191.814 733.32 193.07C726.65 195.43 719.44 197.78 712.32 198.77C712.32 214.2 715.89 234.31 703.94 244.3C704.12 244.8 704.29 245.3 704.47 245.78C705.141 247.165 705.338 248.732 705.03 250.24C703.27 257.82 701.76 265.46 700.16 273.08V273.13L699.8 274.81C696.34 288.09 693.52 321.71 691.06 335.2L719.39 334.84C719.07 332.84 737.01 272.09 741.25 253.55L741.73 253.46C742.35 257.52 743 261.58 743.6 265.64C745.82 280.64 749.94 311.8 749.98 313.25H782.91C781.83 305.72 781.85 299.85 780.34 292.38Z" fill="black"/>
<path fill-rule="evenodd" clip-rule="evenodd" d="M785.35 123.611C784.84 120.931 783.04 119.091 780.35 119.111C778.23 119.111 777.44 118.181 776.54 116.591C775.263 114.222 773.492 112.154 771.348 110.528C769.204 108.901 766.736 107.753 764.11 107.16C751.77 104.16 740.94 110.621 737.11 123.341C736.56 125.161 736.11 126.341 733.73 126.631C731.11 126.931 729.25 128.631 729.73 132.051C729.782 133.482 730.24 134.869 731.05 136.051C732.43 137.751 734.57 137.74 736.63 137.83C736.26 139.57 734.98 140.22 734.07 141.14C724.419 150.657 716.131 161.463 709.44 173.25C708.19 175.52 707 177.83 705.91 180.18C704.82 182.53 703.83 184.91 702.97 187.33C702.092 189.752 701.357 192.222 700.77 194.73C700.17 197.249 699.732 199.805 699.46 202.381C699.2 204.971 699.12 207.571 698.96 210.171C698.96 210.511 698.9 210.851 698.89 211.171C698.89 212.071 698.83 212.941 698.82 213.841C698.82 215.301 698.82 216.751 698.82 218.211C698.82 219.101 699.04 219.971 699.07 220.861C699.1 221.751 699.07 222.7 699.17 223.62C699.28 225.47 699.49 227.311 699.78 229.131C700.372 232.771 701.238 236.361 702.37 239.87C703 241.87 703.69 243.87 704.43 245.79C705.102 247.175 705.299 248.742 704.99 250.25L728.52 233.031C728.52 233.031 722.23 212.52 725.2 205.77C727.64 200.22 758.47 198.44 769.28 197.98C769.07 196.31 768.87 194.63 768.68 192.98L768.93 192.821C767.627 182.855 767.738 172.755 769.26 162.821C769.402 160.097 769.913 157.406 770.78 154.821L764.07 154.14C764.217 153.41 764.561 152.734 765.065 152.185C765.569 151.637 766.215 151.237 766.93 151.031C774.93 147.811 778.93 141.491 779.85 133.031C780.04 131.221 780.4 130.03 782.37 129.25C783.474 128.842 784.389 128.041 784.939 127C785.489 125.96 785.635 124.753 785.35 123.611Z" fill="#92C0E9"/>
<path d="M759.07 183.18L757.78 158.18H757.61C760.02 157.98 781.27 155.4 786.99 124.69C789.123 112.966 790.659 101.141 791.59 89.2603C793.2 71.2603 794.48 57.0702 805.28 36.4302C820.88 6.61018 849.28 0.98 850.5 0.75L855.1 25.3203H855.22C854.49 25.4703 837.22 29.26 827.43 48.04C818.94 64.28 818.01 74.53 816.49 91.52C815.487 104.185 813.841 116.791 811.56 129.29C806.68 155.48 793.04 168.72 782.46 175.22C775.397 179.673 767.384 182.4 759.07 183.18Z" fill="#92C0E9"/>
<path fill-rule="evenodd" clip-rule="evenodd" d="M744.89 148.62C745.68 149.05 746.48 149.47 747.27 149.88C750.92 151.75 754.89 152.36 758.87 152.88C760.745 153.139 762.638 153.232 764.53 153.16C764.906 152.515 765.374 151.929 765.92 151.42C767.21 150.57 768.79 150.3 770.12 149.42C771.79 148.39 773.309 147.131 774.63 145.68C777.665 142.108 779.49 137.665 779.84 132.99C780.03 131.18 780.39 129.99 782.36 129.21C783.474 128.805 784.398 128.001 784.952 126.953C785.506 125.905 785.652 124.689 785.36 123.54C784.85 120.86 783.05 119.02 780.36 119.04C778.24 119.04 777.45 118.11 776.55 116.52C775.272 114.151 773.502 112.084 771.357 110.457C769.213 108.83 766.745 107.682 764.12 107.09C751.78 104.09 740.95 110.55 737.12 123.27C736.57 125.09 736.12 126.27 733.74 126.56C731.12 126.86 729.26 128.56 729.74 131.98C729.791 133.411 730.249 134.799 731.06 135.98C732.45 137.71 734.7 137.43 736.63 137.9C735.44 140.49 732 141.74 731.19 144.41C731.38 143.78 735.47 143.84 736.02 143.96C737.322 144.367 738.566 144.942 739.72 145.67C741.41 146.72 743.15 147.72 744.89 148.62Z" fill="#FEAA61"/>
<path fill-rule="evenodd" clip-rule="evenodd" d="M772.83 130.431C772.5 130.431 772.17 131.041 772 131.281C771.648 131.738 771.222 132.133 770.74 132.451C770.443 132.698 770.133 132.928 769.81 133.141C769.428 133.301 769.037 133.442 768.64 133.561C767.619 133.958 766.543 134.201 765.45 134.281C764.05 134.401 761.45 134.28 760.54 132.98C760.516 132.945 760.484 132.917 760.447 132.897C760.409 132.877 760.367 132.867 760.325 132.867C760.283 132.867 760.241 132.877 760.203 132.897C760.166 132.917 760.134 132.945 760.11 132.98C760.02 133.13 760.11 133.401 760.18 133.561C760.91 135.561 763.12 136.151 765.01 136.121C766.343 136.127 767.656 135.801 768.83 135.171C769.755 134.628 770.597 133.955 771.33 133.171C771.758 132.666 772.149 132.131 772.5 131.571C772.55 131.521 773.29 130.441 772.83 130.431Z" fill="#4858CC"/>
<path fill-rule="evenodd" clip-rule="evenodd" d="M768.14 126.56C768.559 126.395 768.986 126.252 769.42 126.131C769.654 126.082 769.864 125.951 770.01 125.761C770.071 125.665 770.102 125.554 770.1 125.441C770.1 124.201 768.58 122.781 767.82 121.941C767.4 121.471 765.82 119.221 765.44 120.281C765.27 120.791 766.26 122.141 766.54 122.551C767.06 123.341 768.31 124.331 767.35 125.151C766.79 125.651 764.66 125.581 764.75 126.671C764.82 127.471 767.68 126.72 768.14 126.56Z" fill="#4858CC"/>
<path fill-rule="evenodd" clip-rule="evenodd" d="M755.29 119.181C754.963 119.181 754.643 119.278 754.372 119.46C754.1 119.641 753.889 119.9 753.764 120.202C753.64 120.504 753.608 120.836 753.672 121.156C753.737 121.477 753.895 121.771 754.126 122.001C754.358 122.231 754.653 122.388 754.974 122.45C755.295 122.513 755.627 122.479 755.928 122.352C756.229 122.226 756.486 122.013 756.666 121.74C756.847 121.468 756.942 121.148 756.94 120.821C756.94 120.605 756.897 120.391 756.814 120.191C756.731 119.991 756.609 119.81 756.456 119.658C756.302 119.505 756.12 119.385 755.92 119.303C755.72 119.221 755.506 119.179 755.29 119.181Z" fill="black"/>
<path fill-rule="evenodd" clip-rule="evenodd" d="M732.59 141.111C736.348 142.077 740.025 143.331 743.59 144.861C749.43 147.391 758.48 150.571 758.48 150.571V154.101C758.48 154.101 743.16 150.311 737.17 148.851C733.806 148.009 730.393 147.374 726.95 146.951L732.59 141.111Z" fill="#DBDEE0"/>
<path fill-rule="evenodd" clip-rule="evenodd" d="M760.05 150.75L760.76 154.1L764.75 154.2L766.52 151.91L760.05 150.75Z" fill="#DBDEE0"/>
<path d="M66.8496 355.801C66.2808 356.369 65.5097 356.687 64.7061 356.686C63.9025 356.685 63.1322 356.365 62.5646 355.796C61.9971 355.227 61.6788 354.456 61.6797 353.653C61.6806 352.849 62.0008 352.079 62.5696 351.511L82.7296 331.461C83.2985 330.894 84.0696 330.575 84.8732 330.576C85.6768 330.577 86.4471 330.897 87.0146 331.466C87.5822 332.035 87.9005 332.806 87.8996 333.61C87.8987 334.413 87.5785 335.183 87.0096 335.751L66.8496 355.801Z" fill="#FF6B00"/>
<path d="M876.675 311.991C711.203 326.79 695.91 387.436 516.729 379.647C421.02 375.487 303.363 367.888 169.029 423.114C87.2506 456.701 9.78137 465.641 0 466.701V617H1140V305.122C1140 305.122 1042.15 297.192 876.675 311.991Z" fill="#515FF9"/>
<path d="M392.981 458.651C392.699 458.932 392.365 459.154 391.997 459.306C391.629 459.458 391.235 459.536 390.837 459.536C390.439 459.535 390.045 459.456 389.678 459.304C389.31 459.151 388.977 458.927 388.695 458.646C388.414 458.364 388.192 458.03 388.04 457.662C387.888 457.294 387.81 456.9 387.811 456.502C387.811 456.104 387.89 455.71 388.043 455.343C388.195 454.975 388.419 454.642 388.701 454.361L408.861 434.311C409.142 434.03 409.476 433.807 409.844 433.655C410.212 433.503 410.606 433.425 411.004 433.426C411.402 433.426 411.796 433.505 412.163 433.658C412.531 433.81 412.864 434.034 413.146 434.316C413.427 434.598 413.649 434.932 413.801 435.299C413.953 435.667 414.031 436.062 414.03 436.459C414.03 436.857 413.951 437.251 413.798 437.619C413.646 437.986 413.422 438.32 413.141 438.601L392.981 458.651Z" fill="#D589E1"/>
</svg>
