<svg width="944" height="407" viewBox="0 0 944 407" fill="none" xmlns="http://www.w3.org/2000/svg">
<path fill-rule="evenodd" clip-rule="evenodd" d="M462.662 308.324C462.872 307.924 463.092 307.534 463.332 307.144C463.462 306.924 463.602 306.714 463.752 306.494C464.332 305.634 464.992 304.834 465.602 303.994C466.212 303.154 466.682 302.424 467.262 301.674C467.521 301.318 467.809 300.983 468.122 300.674C468.229 300.566 468.346 300.469 468.472 300.384C468.545 300.32 468.636 300.279 468.732 300.264C469.102 300.264 468.352 301.444 468.292 301.544C467.832 302.244 467.292 302.894 466.772 303.544C466.252 304.194 465.842 304.784 465.372 305.394C464.902 306.004 464.512 306.444 464.142 307.014C463.92 307.356 463.723 307.713 463.552 308.084C463.462 308.264 463.352 308.434 463.272 308.614C463.231 308.725 463.174 308.83 463.102 308.924C463.102 308.984 463.002 309.044 462.952 309.104C462.835 309.281 462.734 309.468 462.652 309.664C462.652 309.664 462.652 309.584 462.652 309.544C462.652 309.504 462.652 309.474 462.652 309.444C462.652 309.414 462.512 309.384 462.412 309.384C462.312 309.384 462.312 309.384 462.302 309.334C462.321 309.283 462.348 309.236 462.382 309.194C462.431 309.12 462.474 309.044 462.512 308.964C462.512 308.904 462.512 308.874 462.512 308.814C462.529 308.723 462.567 308.638 462.622 308.564C462.562 308.494 462.612 308.414 462.662 308.324Z" fill="#2C1C31"/>
<path fill-rule="evenodd" clip-rule="evenodd" d="M523.102 265.074C523.938 264.977 524.732 264.651 525.395 264.132C526.058 263.614 526.566 262.922 526.862 262.134C527.552 260.314 529.152 260.134 530.512 260.724C531.872 261.314 530.842 262.724 530.512 263.434C528.89 267.715 526.189 271.504 522.672 274.434C522.559 271.307 522.703 268.177 523.102 265.074Z" fill="#E8AF1B"/>
<path fill-rule="evenodd" clip-rule="evenodd" d="M620.482 234.074L615.902 234.474C614.342 234.594 612.782 234.664 611.232 234.824C607.832 235.184 606.152 235.364 605.372 234.604C604.112 235.384 602.832 236.134 601.622 236.994C601.287 237.457 600.882 237.865 600.422 238.204C597.482 240.374 594.562 242.584 591.542 244.654C589.749 246.101 587.835 247.393 585.822 248.514C585.822 248.514 585.822 248.564 585.822 248.574C585.377 248.914 584.913 249.228 584.432 249.514C584.432 254.374 584.432 259.074 584.432 262.084C584.432 263.894 584.802 265.014 586.922 264.384C588.512 263.034 590.122 261.694 591.692 260.324C600.978 252.184 610.258 244.04 619.532 235.894C619.632 235.174 620.782 235.074 620.482 234.074Z" fill="#2C1C31"/>
<path fill-rule="evenodd" clip-rule="evenodd" d="M540.711 180.454C538.451 183.794 535.651 183.864 533.031 180.664C534.155 181.482 535.518 181.905 536.907 181.867C538.296 181.829 539.634 181.332 540.711 180.454Z" fill="#2C1C31"/>
<path fill-rule="evenodd" clip-rule="evenodd" d="M519.542 189.504C520.422 187.504 517.392 189.364 517.892 187.554H521.892C521.832 188.784 520.892 189.334 520.202 190.024L519.542 189.504Z" fill="#2C1C31"/>
<path fill-rule="evenodd" clip-rule="evenodd" d="M520.182 190.074C520.032 190.584 519.562 191.164 519.182 190.914C518.412 190.394 519.182 189.914 519.532 189.554L520.182 190.074Z" fill="#2C1C31"/>
<path fill-rule="evenodd" clip-rule="evenodd" d="M459.202 296.674L458.932 297.064L458.682 297.424C458.613 297.515 458.559 297.616 458.522 297.724C458.482 297.837 458.417 297.939 458.332 298.024L458.092 298.304C457.969 298.461 457.856 298.624 457.752 298.794C457.728 298.828 457.708 298.865 457.692 298.904C457.69 298.937 457.69 298.971 457.692 299.004L457.522 299.274C457.172 299.844 456.792 300.394 456.432 300.964L456.092 301.494L455.472 302.434C455.427 302.501 455.377 302.565 455.322 302.624C455.274 302.655 455.23 302.692 455.192 302.734C455.09 302.874 454.98 303.008 454.862 303.134C454.722 303.274 454.572 303.394 454.432 303.524C454.333 303.622 454.24 303.726 454.152 303.834C454.089 303.938 454.007 304.029 453.912 304.104C453.692 304.254 453.782 303.914 453.692 303.824C453.602 303.734 453.572 303.764 453.552 303.694C453.543 303.656 453.544 303.616 453.557 303.579C453.569 303.542 453.592 303.509 453.622 303.484C453.876 303.17 454.104 302.836 454.302 302.484C454.721 301.76 455.178 301.059 455.672 300.384C456.022 299.904 456.392 299.444 456.762 298.964L457.232 298.354L457.542 297.964L457.692 297.764C457.692 297.714 457.742 297.664 457.782 297.614C458.002 297.374 458.202 297.114 458.402 296.864L458.742 296.424C459.042 296.044 459.362 295.674 459.672 295.284C459.982 294.894 460.262 294.474 460.572 294.074C460.672 293.954 460.782 293.834 460.892 293.724L461.152 293.464L461.462 293.154C461.462 293.154 461.652 292.984 461.722 293.064C461.792 293.144 461.722 293.314 461.722 293.394C461.639 293.611 461.517 293.811 461.362 293.984C461.196 294.19 461.019 294.387 460.832 294.574C460.612 294.814 460.402 295.054 460.202 295.304C459.812 295.774 459.522 296.214 459.202 296.674Z" fill="#2C1C31"/>
<path fill-rule="evenodd" clip-rule="evenodd" d="M457.352 306.844C457.312 306.916 457.268 306.986 457.221 307.054C457.221 307.124 457.172 307.204 457.132 307.274C457.076 307.336 457.038 307.412 457.021 307.494C457.131 307.494 457.251 307.494 457.341 307.544C457.431 307.594 457.342 307.734 457.432 307.834C457.522 307.934 457.491 307.754 457.511 307.724L457.732 307.394C457.82 307.27 457.917 307.153 458.021 307.044C458.128 306.949 458.213 306.833 458.271 306.704L458.812 305.794L459.132 305.294C459.392 304.894 459.671 304.494 459.951 304.094C459.951 304.034 460.051 303.964 460.091 303.894C460.131 303.824 460.091 303.794 460.161 303.754C460.321 303.494 460.552 303.264 460.742 303.014C460.932 302.764 461.131 302.524 461.321 302.274C461.511 302.024 461.802 301.594 462.052 301.274C462.832 300.214 463.701 299.224 464.391 298.094C464.523 297.894 464.631 297.679 464.711 297.454C464.711 297.394 464.791 297.254 464.711 297.204C464.631 297.154 464.501 297.254 464.451 297.294C464.31 297.404 464.179 297.528 464.062 297.664C463.723 298.05 463.409 298.458 463.122 298.884C462.792 299.334 462.452 299.784 462.122 300.224C461.792 300.664 461.381 301.134 461.021 301.594L460.632 302.104C460.422 302.404 460.222 302.724 459.992 303.014C459.992 303.064 459.902 303.084 459.872 303.124C459.813 303.196 459.759 303.273 459.711 303.354L459.401 303.824L458.542 305.124L458.221 305.644C458.179 305.696 458.142 305.753 458.112 305.814C458.112 305.894 458.011 305.934 457.971 306.004C457.926 306.092 457.873 306.176 457.812 306.254C457.742 306.344 457.682 306.414 457.622 306.504C457.588 306.573 457.544 306.637 457.492 306.694C457.438 306.737 457.391 306.787 457.352 306.844Z" fill="#2C1C31"/>
<path fill-rule="evenodd" clip-rule="evenodd" d="M815.352 159.154L830.352 146.784L798.462 131.364L912.862 96.1538C903.312 133.674 893.862 170.784 884.252 208.484C879.022 200.114 874.072 192.364 869.342 184.484C868.042 182.314 867.442 182.254 865.662 184.044C837.042 212.884 808.375 241.677 779.662 270.424C772.562 277.554 765.422 284.664 758.412 291.894C756.872 293.484 756.032 293.744 754.232 292.084C745.502 284.084 736.552 276.274 727.792 268.274C726.072 266.704 725.062 266.614 723.222 268.184C699.222 288.774 675.222 309.244 651.222 329.834C649.352 331.434 648.312 331.544 646.382 329.904C637.382 322.314 628.252 314.904 619.232 307.414C617.872 306.284 617.172 306.064 615.732 307.414C582.562 339.104 575.672 344.784 575.672 344.784C506.162 370.854 460.792 377.954 460.792 377.954C460.792 377.954 476.372 362.624 499.122 342.234C499.512 341.884 499.942 341.574 500.352 341.234L504.912 353.074C506.352 345.964 507.602 339.754 508.852 333.544C509.002 333.324 509.162 333.104 509.322 332.894L509.252 332.954C512.332 330.954 514.832 328.284 517.552 325.864C540.659 305.384 563.752 284.884 586.832 264.364C588.422 263.014 590.032 261.674 591.602 260.304C600.889 252.164 610.169 244.02 619.442 235.874C628.289 243.874 637.129 251.854 645.962 259.814C647.282 261.014 648.102 261.484 649.742 259.944C659.282 250.944 668.982 242.144 678.632 233.264L692.812 237.624L687.092 225.344C700.425 213.177 713.722 200.987 726.982 188.774C728.442 187.414 729.142 187.264 730.662 188.774C737.822 195.774 745.152 202.644 752.402 209.564C753.402 210.514 754.072 211.484 755.662 210.084C762.112 204.394 768.662 198.864 775.232 193.274C782.842 186.904 790.492 180.594 798.032 174.134C803.812 169.124 809.882 164.494 815.352 159.154Z" fill="#FF6B00"/>
<path fill-rule="evenodd" clip-rule="evenodd" d="M506.652 292.464C508.422 290.264 510.192 288.144 511.652 286.284C514.962 282.014 519.142 278.534 522.712 274.374C526.23 271.444 528.93 267.655 530.552 263.374C530.862 262.644 531.912 261.224 530.552 260.664C529.192 260.104 527.552 260.254 526.902 262.074C526.606 262.862 526.099 263.554 525.435 264.072C524.772 264.591 523.978 264.917 523.142 265.014L523.322 235.794C524.802 234.484 526.212 233.104 527.762 231.884C546.082 217.464 564.415 203.064 582.762 188.684C589.062 183.764 595.462 180.404 603.762 186.334C606.232 190.194 607.902 194.334 607.542 198.984C606.762 208.984 606.322 225.374 605.412 235.364C605.412 235.674 603.502 236.364 603.192 236.554C601.874 237.263 600.716 238.237 599.792 239.414C598.342 241.358 596.629 243.092 594.702 244.564C592.864 245.787 591.092 247.106 589.392 248.514C588.702 249.104 585.602 251.994 584.662 250.584C583.722 249.174 585.402 242.184 585.922 240.764C586.922 238.014 588.562 238.334 589.582 235.584C591.582 230.25 593.555 224.917 595.502 219.584C596.042 218.154 596.742 216.764 595.732 215.254C594.592 215.614 593.412 216.524 593.552 217.084C594.362 220.224 591.752 221.014 590.052 221.844C587.922 222.844 589.632 224.664 588.632 225.844C587.305 227.391 585.892 228.863 584.402 230.254V216.874C585.685 211.939 585.954 206.795 585.192 201.754C582.192 204.624 582.192 208.304 580.812 211.304C580.342 212.354 579.172 214.634 580.602 216.304C571.102 223.484 561.602 230.674 552.102 237.874C550.982 238.724 549.642 239.304 549.262 241.024C548.072 246.314 548.322 251.744 548.012 257.074C547.792 260.964 547.612 264.974 547.142 268.784C546.228 277.635 543.476 286.198 539.062 293.924C535.549 299.616 531.476 304.943 526.902 309.824C523.162 313.954 518.802 319.824 514.272 322.994C509.392 326.394 507.842 320.144 506.272 316.784C504.382 312.874 497.272 307.534 499.612 302.784C501.587 299.104 503.947 295.645 506.652 292.464Z" fill="#F6C435"/>
<path fill-rule="evenodd" clip-rule="evenodd" d="M747.141 112.234C744.251 113.654 741.061 113.114 738.031 113.494C733.069 114.038 728.26 115.543 723.871 117.924C715.471 122.564 706.871 126.924 698.401 131.344C681.501 140.497 664.608 149.637 647.721 158.764C646.421 159.474 645.561 159.704 644.801 158.254C644.391 153.314 642.471 148.764 641.061 144.084C640.511 142.264 640.611 140.084 638.781 138.784C640.151 136.914 642.311 136.184 644.191 135.084C665.481 122.644 687.091 110.844 710.191 102.084L712.551 101.204L735.621 96.2036L747.141 112.234Z" fill="#FF6B00"/>
<path fill-rule="evenodd" clip-rule="evenodd" d="M793.051 159.074C792.198 159.166 791.336 159.032 790.551 158.684C783.921 164.124 777.971 170.234 770.911 175.244C772.019 181.319 773.461 187.328 775.231 193.244C782.841 186.874 790.491 180.564 798.031 174.104C803.811 169.154 809.881 164.524 815.331 159.184C807.901 159.074 800.481 158.914 793.051 159.074Z" fill="#2C1C31"/>
<path fill-rule="evenodd" clip-rule="evenodd" d="M641.062 144.074C640.512 142.254 640.612 140.074 638.782 138.774C636.552 139.534 635.012 141.304 633.142 142.594C628.972 145.484 605.192 159.984 601.142 162.944C601.142 162.944 601.922 164.384 601.992 164.514C602.282 165.054 602.572 165.574 602.852 166.104C603.132 166.634 603.412 167.174 603.672 167.714C603.869 168.075 604.014 168.462 604.102 168.864C604.219 169.234 604.413 169.575 604.672 169.864C604.832 170.075 604.963 170.307 605.062 170.554C605.062 170.684 605.192 170.794 605.242 170.914C605.289 171.033 605.342 171.15 605.402 171.264C605.543 171.454 605.67 171.655 605.782 171.864C605.872 172.066 605.972 172.262 606.082 172.454C606.142 172.554 606.182 172.654 606.232 172.754C606.282 172.854 606.362 172.964 606.412 173.084C606.462 173.204 606.652 173.514 606.772 173.734C606.898 174.047 607.07 174.341 607.282 174.604C607.467 174.768 607.626 174.96 607.752 175.174C608.122 175.854 608.462 176.544 608.832 177.224C609.042 177.604 609.262 177.974 609.492 178.344C609.722 178.714 609.852 178.904 610.052 179.174C610.252 179.444 610.242 179.444 610.352 179.574C610.439 179.71 610.54 179.837 610.652 179.954C615.742 178.484 620.092 175.504 624.472 172.774C631.202 168.574 637.562 163.774 644.062 159.214C644.348 158.921 644.584 158.583 644.762 158.214C644.352 153.314 642.472 148.764 641.062 144.074Z" fill="#ED959E"/>
<path fill-rule="evenodd" clip-rule="evenodd" d="M724.352 97.7439L723.552 97.874C721.242 98.534 718.872 99.024 716.642 99.874C714.412 100.724 714.192 99.944 714.142 98.014C713.962 91.1539 713.642 84.2939 713.362 77.1839L704.792 80.2339C704.252 78.104 705.382 76.4539 705.982 74.7739C707.145 71.3009 708.709 67.9751 710.642 64.8639C720.782 49.0639 728.492 76.9239 735.842 73.1539C736.798 72.5845 737.926 72.3724 739.025 72.5555C740.123 72.7386 741.121 73.3049 741.842 74.1539C742.503 74.779 742.917 75.6218 743.007 76.5275C743.097 77.4331 742.857 78.3409 742.332 79.0839C741.052 81.0839 738.992 81.5039 736.812 81.2239C735.813 80.9906 734.842 80.6555 733.912 80.2239C734.312 84.6639 734.402 88.934 735.172 93.094C735.692 95.894 734.582 96.4539 732.352 96.4939C729.636 96.4873 726.936 96.9091 724.352 97.7439ZM737.892 78.7439C737.562 77.2639 736.262 78.214 735.892 77.314C736.452 76.744 737.542 76.9039 737.762 75.6939C736.034 75.8714 734.448 76.7274 733.352 78.0739L737.892 78.7439ZM715.002 68.8839C714.792 68.3439 714.692 67.504 713.782 67.454C712.872 67.404 712.782 68.094 712.832 68.734C712.892 69.554 713.042 70.5139 714.122 70.4639C714.842 70.4339 714.942 69.6639 715.002 68.8839Z" fill="#ED959E"/>
<path fill-rule="evenodd" clip-rule="evenodd" d="M539.492 195.134L521.352 207.994C521.132 203.834 520.932 199.664 520.672 195.494C520.672 194.864 520.952 193.834 519.752 193.914C516.812 194.114 514.832 192.914 514.442 189.914C514.022 186.674 516.592 185.784 518.882 184.764C520.142 184.764 521.002 183.954 521.882 183.274C527.102 179.354 522.882 175.454 524.762 168.554C524.762 168.554 526.762 165.554 531.342 166.414C533.682 166.864 537.172 168.924 539.612 169.504C540.082 169.614 543.232 169.994 543.702 170.094C543.942 170.094 546.532 170.564 546.702 170.604C546.872 170.644 547.142 170.924 547.152 171.044C547.162 171.164 546.942 171.554 546.782 171.704C546.151 172.025 545.503 172.312 544.842 172.564C544.421 172.864 544.027 173.198 543.662 173.564C543.429 173.882 543.219 174.216 543.032 174.564C542.904 175.284 542.833 176.013 542.822 176.744C542.822 177.164 542.902 177.574 542.952 177.994C543.002 178.414 543.162 179.404 543.172 179.454C543.632 182.584 542.172 185.764 541.172 188.834C540.311 190.842 539.745 192.964 539.492 195.134ZM520.182 190.074C520.892 189.384 521.812 188.834 521.872 187.604H517.872C517.372 189.414 520.402 187.514 519.522 189.554C519.172 189.964 518.402 190.394 519.172 190.914C519.562 191.074 520.032 190.534 520.182 190.074ZM540.712 180.504C539.635 181.382 538.297 181.88 536.908 181.918C535.518 181.956 534.155 181.532 533.032 180.714C535.652 183.864 538.452 183.794 540.712 180.454V180.504Z" fill="#ED959E"/>
<path fill-rule="evenodd" clip-rule="evenodd" d="M465.791 277.524C470.961 281.324 476.791 284.094 481.791 288.244C478.499 296.486 473.815 304.1 467.941 310.754C466.941 311.824 465.671 312.754 464.081 312.314C463.817 312.248 463.573 312.118 463.371 311.934C463.071 311.637 462.884 311.244 462.841 310.824C462.803 310.606 462.779 310.385 462.771 310.164C462.781 310.051 462.781 309.937 462.771 309.824C462.752 309.716 462.703 309.616 462.631 309.534H462.541C462.504 309.499 462.459 309.472 462.411 309.454C462.291 309.454 462.081 309.394 462.061 309.574C462.041 309.754 462.061 309.664 462.061 309.714C462.021 309.784 461.974 309.851 461.921 309.914L461.641 310.304C461.451 310.554 461.251 310.804 461.031 311.044C460.84 311.264 460.609 311.447 460.351 311.584C459.965 311.757 459.544 311.839 459.121 311.824C458.873 311.883 458.614 311.877 458.369 311.807C458.124 311.737 457.901 311.605 457.721 311.424C457.641 311.314 457.571 311.194 457.501 311.084C457.381 310.905 457.275 310.718 457.181 310.524C457.083 310.31 457.009 310.085 456.961 309.854C456.941 309.558 456.972 309.26 457.051 308.974C457.121 308.594 457.311 308.244 457.391 307.864C457.471 307.484 457.321 307.364 457.101 307.624L456.681 308.134C456.531 308.314 456.381 308.484 456.241 308.674C456.15 308.833 456.032 308.975 455.891 309.094C455.741 309.194 455.611 309.354 455.431 309.394C455.284 309.41 455.139 309.447 455.001 309.504C454.874 309.555 454.739 309.582 454.601 309.584C454.438 309.574 454.277 309.532 454.13 309.459C453.982 309.387 453.85 309.287 453.741 309.164C452.841 308.264 453.181 307.224 453.441 306.224C453.501 305.984 453.591 305.744 453.671 305.514C453.855 305.178 453.938 304.796 453.911 304.414C453.851 304.194 453.821 303.704 453.491 303.754C453.161 303.804 453.091 304.064 452.921 304.174C452.687 304.315 452.439 304.432 452.181 304.524C451.911 304.604 451.623 304.605 451.352 304.527C451.081 304.449 450.838 304.295 450.651 304.084C449.571 302.974 450.041 301.734 450.581 300.584C453.072 295.612 455.972 290.855 459.251 286.364L465.251 277.554H465.531L465.791 277.524Z" fill="#ED959E"/>
<path fill-rule="evenodd" clip-rule="evenodd" d="M500.821 305.154C500.941 305.384 501.081 305.614 501.211 305.844C501.491 306.334 501.761 306.844 502.031 307.334C502.211 307.674 502.451 307.964 502.651 308.334C502.851 308.704 503.021 308.974 503.221 309.274C503.321 309.424 503.461 309.534 503.551 309.694C503.623 309.845 503.704 309.992 503.791 310.134C504.061 310.574 504.351 311.014 504.631 311.454C504.711 311.584 504.811 311.694 504.891 311.814C504.971 311.934 505.021 312.124 505.111 312.244C505.201 312.364 505.281 312.374 505.341 312.474C505.401 312.574 505.431 312.694 505.501 312.794L505.881 313.334C506.158 313.714 506.406 314.116 506.621 314.534C506.821 314.944 507.061 315.324 507.291 315.714C507.502 316.037 507.696 316.37 507.871 316.714C508.241 317.494 508.671 318.254 509.071 319.014C509.281 319.404 509.481 319.794 509.671 320.194C509.861 320.594 509.831 320.804 509.991 321.094C510.24 321.447 510.514 321.781 510.811 322.094C511.1 322.469 511.436 322.805 511.811 323.094C512.134 323.268 512.442 323.469 512.731 323.694C512.831 323.781 512.902 323.897 512.934 324.026C512.966 324.154 512.958 324.29 512.911 324.414C512.592 325.034 512.231 325.632 511.831 326.204C511.551 326.644 511.271 327.094 511.011 327.544C510.451 328.544 509.901 329.544 509.411 330.544C509.237 330.86 509.099 331.196 509.001 331.544C508.521 333.874 509.061 336.764 508.951 339.144C508.741 343.414 508.621 349.194 505.351 352.354C502.811 350.354 501.631 344.354 500.441 341.224C497.191 332.224 494.001 323.294 490.671 314.374C490.021 312.614 489.971 311.424 491.581 310.114C492.971 308.994 494.101 307.584 495.381 306.344C495.741 305.994 496.071 305.624 496.381 305.254C497.001 304.604 497.661 304.004 498.381 303.414C498.731 303.114 499.321 302.414 499.801 302.954C499.981 303.144 500.021 303.424 500.181 303.634C500.367 303.903 500.509 304.2 500.601 304.514C500.659 304.732 500.732 304.946 500.821 305.154Z" fill="#2C1C31"/>
<path fill-rule="evenodd" clip-rule="evenodd" d="M610.691 179.974C608.951 177.652 607.469 175.147 606.271 172.504C605.201 170.504 605.171 170.004 604.271 168.314C603.201 166.414 602.271 164.884 601.271 162.954C597.244 164.373 593.31 166.043 589.491 167.954C589.491 168.124 588.371 168.424 588.281 168.544C577.978 173.065 567.98 178.253 558.351 184.074C551.811 187.334 545.831 191.514 539.521 195.154L521.351 207.994C517.871 210.654 514.641 213.844 510.581 217.534C503.581 223.914 500.401 228.024 493.961 234.794C487.171 241.914 475.261 257.524 475.231 257.614C471.231 262.324 467.981 267.564 464.371 272.544C462.751 274.794 462.561 276.284 465.261 277.544C465.261 277.544 476.871 284.124 481.811 288.274C483.091 287.914 483.411 286.664 484.041 285.764C489.961 277.254 495.551 268.524 501.921 260.334C508.591 251.754 514.921 242.884 523.321 235.834C524.801 234.524 526.211 233.144 527.761 231.924C546.081 217.504 564.415 203.104 582.761 188.724C589.061 183.804 595.461 180.444 603.761 186.374C605.647 185.25 607.589 184.226 609.581 183.304C611.451 182.514 611.431 181.444 610.691 179.974Z" fill="#E9EBEB"/>
<path fill-rule="evenodd" clip-rule="evenodd" d="M527.682 166.444C526.399 166.756 525.191 167.318 524.127 168.099C523.063 168.88 522.164 169.864 521.482 170.994C519.71 173.989 518.71 177.377 518.572 180.854C518.56 182.246 518.776 183.631 519.212 184.954C523.532 184.744 525.462 181.654 527.212 178.314C529.082 174.434 528.802 170.454 527.682 166.444Z" fill="#2C1C31"/>
<path fill-rule="evenodd" clip-rule="evenodd" d="M653.432 222.194C661.652 226.864 670.252 229.794 678.632 233.194L692.812 237.554L687.092 225.274C684.842 221.274 684.092 219.984 685.212 218.134C678.212 214.944 670.612 212.964 663.642 209.734L653.432 222.194Z" fill="#2C1C31"/>
<path fill-rule="evenodd" clip-rule="evenodd" d="M584.411 247.434C584.425 247.903 584.489 248.369 584.601 248.824C585.921 247.284 586.401 244.224 587.091 242.354C588.051 239.747 589.014 237.144 589.981 234.544C591.821 229.551 593.664 224.551 595.511 219.544C596.051 218.114 596.751 216.724 595.741 215.214C594.601 215.574 593.421 216.484 593.561 217.044C594.371 220.184 591.761 220.974 590.061 221.804C587.931 222.804 589.641 224.624 588.641 225.804C587.331 227.394 584.411 230.214 584.411 230.214C584.411 230.214 584.431 243.744 584.411 247.434Z" fill="#E8AF1B"/>
<path fill-rule="evenodd" clip-rule="evenodd" d="M584.352 216.914C584.282 216.114 584.202 215.314 584.122 214.394C582.572 214.464 581.852 215.974 580.552 216.394C579.122 214.684 580.292 212.394 580.762 211.394C582.102 208.394 582.122 204.714 585.142 201.844C585.897 206.869 585.628 211.995 584.352 216.914Z" fill="#E8AF1B"/>
<path fill-rule="evenodd" clip-rule="evenodd" d="M625.352 154.824L625.232 154.914L625.082 155.014L624.862 155.154L624.622 155.304L624.332 155.484L624.012 155.684L623.672 155.894L623.312 156.124L622.932 156.354L622.542 156.594L622.142 156.844L621.752 157.084L621.372 157.324L621.002 157.544L620.652 157.764L620.322 157.964L620.022 158.154L619.762 158.314L619.542 158.454L619.372 158.564L619.252 158.644L618.472 159.154L617.672 159.664L616.882 160.174L616.082 160.694L615.692 160.944L615.522 161.064C615.479 161.091 615.432 161.108 615.382 161.114H615.282L614.932 161.334C614.78 161.416 614.633 161.506 614.492 161.604L614.262 161.804C614.142 161.904 613.962 161.994 613.882 162.144C613.802 162.294 614.052 162.304 614.142 162.294C614.364 162.277 614.582 162.23 614.792 162.154C615.02 162.078 615.241 161.981 615.452 161.864L615.782 161.654C615.952 161.574 616.112 161.484 616.272 161.394L616.542 161.244L616.852 161.064L617.212 160.844L617.572 160.624L617.972 160.374L618.362 160.114L618.772 159.844L619.192 159.574L619.592 159.304L620.002 159.034L620.382 158.774L620.752 158.514L621.102 158.284L621.422 158.064L621.712 157.864L621.952 157.704L622.152 157.564L622.312 157.464L622.402 157.404C622.602 157.304 624.112 156.404 624.402 156.234C624.692 156.064 625.122 155.754 625.472 155.524L626.172 155.064C626.582 154.794 626.992 154.524 627.412 154.264L628.012 153.874L628.632 153.474L628.792 153.374C628.834 153.358 628.874 153.338 628.912 153.314L629.212 153.064C629.212 153.064 629.332 152.974 629.332 152.924C629.336 152.901 629.336 152.877 629.332 152.854C629.322 152.814 629.322 152.773 629.332 152.734C629.332 152.674 629.332 152.604 629.262 152.614H629.202C629.202 152.614 629.132 152.614 629.092 152.614H629.012C628.923 152.628 628.836 152.651 628.752 152.684L628.462 152.824C628.339 152.888 628.222 152.961 628.112 153.044L627.552 153.384L627.292 153.544L627.042 153.704C626.892 153.824 626.722 153.924 626.562 154.034L626.232 154.264L625.932 154.454L625.722 154.584L625.462 154.754L625.352 154.824Z" fill="#2C1C31"/>
<path fill-rule="evenodd" clip-rule="evenodd" d="M737.892 78.7439L733.352 78.0739C733.898 77.4037 734.572 76.8484 735.334 76.4399C736.096 76.0314 736.931 75.7779 737.792 75.6938C737.572 76.9038 736.482 76.6939 735.922 77.3139C736.262 78.2139 737.562 77.2639 737.892 78.7439Z" fill="#2C1C31"/>
<path fill-rule="evenodd" clip-rule="evenodd" d="M715.132 68.8835C715.136 69.1149 715.099 69.3452 715.022 69.5635C714.927 69.8655 714.751 70.1354 714.512 70.3435C714.382 70.4122 714.239 70.4532 714.092 70.464C713.945 70.4748 713.798 70.4552 713.659 70.4064C713.52 70.3576 713.392 70.2806 713.285 70.1803C713.177 70.08 713.091 69.9586 713.032 69.8235C712.973 69.6551 712.933 69.4807 712.912 69.3035C712.912 69.1135 712.852 68.9235 712.832 68.7335C712.832 68.3135 712.902 67.6035 713.422 67.5135C713.605 67.4935 713.789 67.4935 713.972 67.5135C714.118 67.4985 714.266 67.4985 714.412 67.5135C714.567 67.5727 714.705 67.6695 714.813 67.7952C714.921 67.9209 714.997 68.0715 715.032 68.2335C715.097 68.4442 715.13 68.6631 715.132 68.8835Z" fill="#2C1C31"/>
<path fill-rule="evenodd" clip-rule="evenodd" d="M622.922 167.754C622.922 167.754 622.922 167.754 622.922 167.804C622.938 167.842 622.958 167.879 622.982 167.914C622.992 167.931 623.006 167.945 623.024 167.954C623.042 167.963 623.062 167.966 623.082 167.964H623.232C623.284 167.979 623.34 167.979 623.392 167.964H623.512C623.631 167.9 623.745 167.826 623.852 167.744L624.052 167.614L624.922 167.094C625.502 166.744 626.072 166.384 626.622 166.004L627.242 165.554L627.852 165.084L628.032 164.954C628.032 164.954 628.122 164.954 628.172 164.874C628.22 164.84 628.27 164.81 628.322 164.784C628.462 164.694 628.612 164.614 628.742 164.514L629.112 164.294C629.201 164.231 629.282 164.157 629.352 164.074C629.482 163.974 629.602 163.864 629.732 163.774L630.062 163.524C630.146 163.458 630.236 163.401 630.332 163.354C630.413 163.327 630.49 163.29 630.562 163.244C630.682 163.154 630.782 163.064 630.902 162.984L631.282 162.684L631.692 162.354C631.738 162.312 631.788 162.275 631.842 162.244C631.882 162.236 631.919 162.219 631.952 162.194C632.068 162.108 632.175 162.011 632.272 161.904C632.492 161.694 632.712 161.494 632.942 161.304L633.522 160.834L633.882 160.484C633.959 160.412 634.017 160.323 634.052 160.224C634.052 160.224 634.052 160.144 634.052 160.104C634.036 160.059 634.016 160.015 633.992 159.974C633.932 159.884 633.792 159.914 633.702 159.974C633.569 160.008 633.449 160.077 633.352 160.174L633.012 160.424C632.802 160.574 632.592 160.704 632.392 160.834C632.299 160.911 632.199 160.978 632.092 161.034C631.997 161.086 631.91 161.149 631.832 161.224L630.832 161.994L630.652 162.144C630.559 162.225 630.454 162.293 630.342 162.344C630.289 162.368 630.242 162.402 630.202 162.444L630.032 162.574L629.652 162.894L629.282 163.144L628.962 163.404C628.692 163.604 628.412 163.794 628.132 163.974C628.012 164.054 627.902 164.144 627.792 164.234L627.652 164.344C627.652 164.344 627.582 164.344 627.542 164.344C627.435 164.401 627.332 164.465 627.232 164.534L626.902 164.754L626.252 165.164C625.522 165.624 624.782 166.084 624.072 166.584L623.742 166.814C623.652 166.874 623.542 166.924 623.452 166.994C623.399 167.031 623.349 167.071 623.302 167.114C623.162 167.237 623.052 167.391 622.982 167.564C622.947 167.621 622.926 167.686 622.922 167.754Z" fill="#2C1C31"/>
<path fill-rule="evenodd" clip-rule="evenodd" d="M632.282 155.954V155.904C632.236 155.834 632.172 155.778 632.095 155.745C632.019 155.711 631.934 155.7 631.852 155.714C631.351 155.819 630.892 156.069 630.532 156.434C630.062 156.804 629.532 157.134 629.062 157.434C628.592 157.734 627.962 158.194 627.412 158.594L626.522 159.244C626.011 159.641 625.481 160.011 624.932 160.354L624.552 160.574L623.892 161.004C623.782 161.068 623.675 161.138 623.572 161.214C623.482 161.284 623.372 161.324 623.272 161.394C623.172 161.464 623.172 161.474 623.112 161.504L622.722 161.754C622.572 161.874 622.402 161.974 622.242 162.084L622.002 162.244L621.742 162.414L621.592 162.494L621.382 162.614L621.132 162.764L620.732 163.014C620.664 163.057 620.594 163.097 620.522 163.134L620.222 163.334C620.115 163.394 620.011 163.461 619.912 163.534C619.815 163.584 619.722 163.641 619.632 163.704L619.532 163.774H619.452L619.242 163.894C618.985 164.02 618.734 164.16 618.492 164.314C618.422 164.37 618.361 164.438 618.312 164.514C618.273 164.581 618.239 164.651 618.212 164.724C618.207 164.76 618.207 164.797 618.212 164.834C618.203 164.874 618.206 164.916 618.22 164.955C618.234 164.994 618.259 165.028 618.292 165.054C618.344 165.101 618.407 165.135 618.475 165.152C618.543 165.17 618.614 165.17 618.682 165.154C618.741 165.128 618.797 165.098 618.852 165.064L619.082 164.954C619.152 164.916 619.219 164.873 619.282 164.824L619.952 164.394C620.152 164.296 620.34 164.175 620.512 164.034C620.618 163.948 620.728 163.868 620.842 163.794L621.412 163.454L621.732 163.254L622.012 163.064L622.432 162.804L622.612 162.704C622.723 162.624 622.84 162.554 622.962 162.494C623.112 162.414 623.252 162.324 623.392 162.234L624.162 161.704C624.207 161.679 624.254 161.659 624.302 161.644L624.502 161.504L624.892 161.244L625.342 160.954C626.122 160.454 626.882 159.954 627.652 159.414C628.242 159.024 628.852 158.674 629.452 158.294C629.882 158.024 630.292 157.744 630.732 157.484C631.276 157.21 631.762 156.833 632.162 156.374C632.255 156.255 632.298 156.104 632.282 155.954Z" fill="#2C1C31"/>
<path fill-rule="evenodd" clip-rule="evenodd" d="M807.871 277.504C806.076 277.606 804.367 278.311 803.021 279.504L794.951 287.504C793.751 288.837 793.045 290.542 792.951 292.334V402.484C792.954 403.234 793.253 403.952 793.783 404.482C794.313 405.012 795.031 405.311 795.781 405.314H839.701C840.452 405.314 841.172 405.016 841.702 404.485C842.233 403.954 842.531 403.234 842.531 402.484V280.344C842.531 279.592 842.233 278.872 841.703 278.339C841.173 277.807 840.453 277.507 839.701 277.504H807.871Z" fill="#515FF9"/>
<path d="M729.262 318.564H773.172C773.922 318.564 774.642 318.862 775.173 319.393C775.703 319.924 776.002 320.643 776.002 321.394V402.474C776.002 403.227 775.702 403.95 775.17 404.482C774.637 405.015 773.915 405.314 773.162 405.314H729.272C728.518 405.314 727.796 405.015 727.263 404.482C726.731 403.95 726.432 403.227 726.432 402.474V321.404C726.43 321.031 726.503 320.662 726.644 320.318C726.786 319.973 726.994 319.66 727.257 319.396C727.52 319.133 727.832 318.923 728.176 318.78C728.52 318.637 728.889 318.564 729.262 318.564Z" fill="#515FF9"/>
<path fill-rule="evenodd" clip-rule="evenodd" d="M663.772 352.684C663.017 352.692 662.297 352.996 661.765 353.531C661.234 354.067 660.934 354.79 660.932 355.544V402.484C660.934 403.235 661.235 403.955 661.767 404.486C662.299 405.016 663.02 405.314 663.772 405.314H705.682C706.053 405.314 706.421 405.241 706.765 405.098C707.108 404.956 707.42 404.748 707.683 404.485C707.946 404.222 708.154 403.91 708.296 403.567C708.438 403.223 708.512 402.855 708.512 402.484V355.134C708.512 354.763 708.438 354.396 708.296 354.054C708.153 353.712 707.945 353.401 707.682 353.14C707.418 352.879 707.106 352.672 706.763 352.532C706.42 352.392 706.052 352.321 705.682 352.324L663.772 352.684Z" fill="#515FF9"/>
<path fill-rule="evenodd" clip-rule="evenodd" d="M644.891 366.824C644.361 367.514 622.311 375.244 620.771 375.824C619.771 376.194 617.961 377.474 617.021 376.474C616.578 375.995 616.238 375.43 616.021 374.814C615.801 373.814 615.591 371.544 615.491 370.474C615.131 366.474 613.731 351.814 613.591 350.084C613.421 349.242 613.421 348.375 613.591 347.534C613.793 347.147 614.092 346.818 614.458 346.58C614.824 346.342 615.245 346.202 615.681 346.174C616.819 346.121 617.959 346.158 619.091 346.284C620.091 346.334 621.141 346.284 622.161 346.474C623.198 346.635 624.223 346.862 625.231 347.154C627.179 347.675 629.062 348.416 630.841 349.364C632.651 350.332 634.354 351.488 635.921 352.814C637.575 354.224 639.101 355.776 640.481 357.454L640.991 358.064C641.651 358.904 642.331 359.734 642.931 360.604C643.931 362.034 645.081 363.924 645.161 365.704C645.204 366.097 645.109 366.493 644.891 366.824Z" fill="#FF6B00"/>
<path fill-rule="evenodd" clip-rule="evenodd" d="M618.262 381.224C616.779 381.65 615.259 381.935 613.722 382.074C613.492 382.076 613.264 382.023 613.058 381.919C612.853 381.814 612.676 381.662 612.542 381.474C612.25 381.224 612.032 380.899 611.912 380.534C611.823 380.078 611.759 379.617 611.722 379.154C611.602 378.204 611.072 374.584 611.032 374.154C610.922 372.874 610.802 371.604 610.682 370.334C610.472 368.234 610.272 366.124 610.102 364.024C609.932 361.924 609.742 359.844 609.522 357.764C609.412 356.764 609.272 355.654 609.242 354.614C609.242 354.224 609.322 353.564 609.012 353.264C608.702 352.964 608.532 353.144 608.272 353.104C605.719 352.806 603.136 353.298 600.872 354.514C598.505 355.567 596.277 356.91 594.242 358.514C590.196 361.861 587.202 366.306 585.622 371.314C584.819 373.904 584.417 376.602 584.432 379.314C584.451 386.417 587.285 393.224 592.315 398.24C597.345 403.257 604.158 406.074 611.262 406.074C626.082 406.074 637.262 393.724 638.172 381.974C638.28 380.378 638.254 378.775 638.092 377.184C637.967 376.723 637.692 376.317 637.309 376.03C636.927 375.744 636.46 375.594 635.982 375.604C633.687 375.798 631.444 376.39 629.352 377.354C627.462 378.074 618.772 381.004 618.262 381.224Z" fill="#515FF9"/>
<path fill-rule="evenodd" clip-rule="evenodd" d="M534.661 173.334C534.666 173.565 534.628 173.795 534.551 174.014C534.456 174.316 534.28 174.586 534.041 174.794C533.911 174.862 533.768 174.903 533.621 174.914C533.474 174.925 533.327 174.905 533.188 174.857C533.049 174.808 532.922 174.731 532.814 174.63C532.706 174.53 532.62 174.409 532.561 174.274C532.501 174.106 532.461 173.931 532.441 173.754C532.441 173.564 532.381 173.374 532.361 173.184C532.361 172.764 532.431 172.054 532.951 171.964C533.134 171.944 533.319 171.944 533.501 171.964C533.648 171.949 533.795 171.949 533.941 171.964C534.096 172.023 534.234 172.12 534.342 172.245C534.451 172.371 534.526 172.522 534.561 172.684C534.626 172.894 534.66 173.113 534.661 173.334Z" fill="#2C1C31"/>
<path fill-rule="evenodd" clip-rule="evenodd" d="M724.222 54.0735C725.167 54.1218 726.057 54.5281 726.713 55.2099C727.369 55.8917 727.74 56.7976 727.752 57.7435C727.422 60.1235 728.582 61.5735 730.382 63.0735C733.582 65.7435 734.642 69.4235 733.982 73.5635C732.772 73.9335 731.722 73.3335 730.682 72.9135C724.622 70.4835 720.682 65.8335 717.812 60.2135C717.782 55.4435 719.712 53.5935 724.222 54.0735Z" fill="#FF6B00"/>
<path fill-rule="evenodd" clip-rule="evenodd" d="M519.662 177.214C517.292 176.164 516.202 177.644 514.362 178.974C504.362 184.974 498.052 184.844 488.922 180.304C485.622 178.664 485.482 176.234 488.522 174.104C495.182 169.424 502.682 168.684 510.342 170.394C513.472 171.094 518.852 172.814 521.342 171.944C521.212 171.724 520.352 175.324 519.662 177.214Z" fill="#2C1C31"/>
<path d="M714.021 99.5039C717.066 98.1823 720.269 97.2613 723.551 96.7639C729.611 95.7639 735.001 94.5039 735.001 94.5039L736.191 96.1939L735.501 107.074L724.071 98.3339L714.021 111.934L713.241 100.934L714.021 99.5039Z" fill="#E9EBEB"/>
<path fill-rule="evenodd" clip-rule="evenodd" d="M789.272 155.674C789.362 152.674 789.322 134.174 789.212 132.494V132.434C788.962 127.974 788.332 123.584 785.972 119.674C781.472 112.244 774.232 110.524 766.252 110.244C759.682 110.024 740.772 113.074 737.752 113.454C732.786 113.997 727.973 115.502 723.582 117.884C715.182 122.524 706.582 126.884 698.112 131.304C696.572 140.624 695.002 149.934 693.492 159.304C692.302 166.624 692.332 174.304 687.432 180.404C683.212 185.674 678.722 190.744 674.692 196.164C672.072 199.694 667.062 203.764 667.382 208.554C667.492 210.124 691.762 204.554 693.642 204.064C702.402 201.944 708.312 190.474 713.242 183.584C716.692 178.754 720.922 142.074 722.702 139.924C724.482 137.774 750.312 135.724 759.332 134.514C760.402 131.324 762.472 128.664 764.012 125.714C764.262 125.244 765.012 124.654 765.442 124.714C766.442 124.874 766.082 125.864 766.112 126.534C766.239 131.202 765.904 135.871 765.112 140.474C766.112 146.644 769.652 169.824 770.652 175.204C777.712 170.204 783.652 164.084 790.292 158.644C789.522 158.214 789.232 157.344 789.272 155.674ZM696.492 180.774L696.352 180.684L696.512 180.634L696.492 180.774Z" fill="#002F87"/>
<path fill-rule="evenodd" clip-rule="evenodd" d="M669.352 204.514H667.712L663.352 209.774C670.352 213.004 677.912 214.984 684.912 218.174C685.83 216.871 686.878 215.664 688.042 214.574C689.202 213.374 690.402 212.204 691.482 210.934C694.102 207.854 697.482 205.454 699.482 201.854C698.202 201.684 671.902 205.364 669.352 204.514Z" fill="#2C1C31"/>
<path fill-rule="evenodd" clip-rule="evenodd" d="M765.082 140.474C764.982 140.064 764.862 139.664 764.802 139.254C763.992 134.394 764.002 134.394 759.332 134.504C760.402 131.314 762.472 128.654 764.012 125.704C764.262 125.234 765.012 124.644 765.442 124.704C766.442 124.864 766.082 125.854 766.112 126.524C766.23 131.197 765.885 135.869 765.082 140.474Z" fill="#2C1C31"/>
<path fill-rule="evenodd" clip-rule="evenodd" d="M699.632 165.604C696.753 167.036 694.082 168.852 691.692 171.004C691.018 174.421 689.56 177.636 687.432 180.394C686.742 181.254 686.042 182.104 685.342 182.954C685.942 182.564 686.432 182.244 686.532 182.164C690.222 179.164 694.252 176.534 697.972 173.554C699.682 172.174 703.082 168.924 703.182 166.494C703.282 164.064 701.482 164.714 699.632 165.604Z" fill="#2C1C31"/>
<path d="M634.552 1.44064L634.472 1.38033C634.155 1.07084 633.732 0.894652 633.29 0.887838H627.571C627.323 0.869247 627.073 0.902364 626.837 0.98511C626.602 1.06786 626.386 1.19845 626.204 1.36873C626.021 1.53901 625.875 1.74531 625.775 1.97473C625.676 2.20415 625.624 2.45175 625.624 2.70204C625.624 2.95233 625.676 3.19992 625.775 3.42934C625.875 3.65876 626.021 3.86506 626.204 4.03534C626.386 4.20562 626.602 4.33622 626.837 4.41897C627.073 4.50172 627.323 4.53483 627.571 4.51623H628.643L607.221 26.0052C607.034 26.1933 606.885 26.4166 606.784 26.6623C606.682 26.9081 606.63 27.1715 606.63 27.4375C606.63 27.7035 606.682 27.9668 606.784 28.2126C606.885 28.4583 607.034 28.6816 607.221 28.8697C607.409 29.0578 607.631 29.207 607.876 29.3088C608.121 29.4106 608.383 29.463 608.648 29.463C608.913 29.463 609.176 29.4106 609.421 29.3088C609.666 29.207 609.888 29.0578 610.076 28.8697L631.477 7.38076V8.38585C631.45 8.64082 631.477 8.89858 631.556 9.14242C631.635 9.38626 631.764 9.61073 631.935 9.80127C632.106 9.99181 632.315 10.1442 632.548 10.2485C632.782 10.3527 633.034 10.4066 633.29 10.4066C633.545 10.4066 633.798 10.3527 634.031 10.2485C634.265 10.1442 634.474 9.99181 634.645 9.80127C634.815 9.61073 634.945 9.38626 635.023 9.14242C635.102 8.89858 635.129 8.64082 635.103 8.38585V2.92818C635.116 2.6557 635.074 2.38329 634.98 2.12755C634.885 1.87181 634.739 1.6381 634.552 1.44064Z" fill="white"/>
<path d="M913.074 1.44064L913.004 1.38033C912.684 1.06847 912.258 0.892087 911.812 0.887838H906.104C905.855 0.869247 905.605 0.902364 905.37 0.98511C905.134 1.06786 904.918 1.19845 904.736 1.36873C904.553 1.53901 904.407 1.74531 904.307 1.97473C904.208 2.20415 904.156 2.45175 904.156 2.70204C904.156 2.95233 904.208 3.19992 904.307 3.42934C904.407 3.65876 904.553 3.86506 904.736 4.03534C904.918 4.20562 905.134 4.33622 905.37 4.41897C905.605 4.50172 905.855 4.53483 906.104 4.51623H907.165L885.753 26.0052C885.566 26.1926 885.417 26.4152 885.316 26.6604C885.214 26.9055 885.161 27.1684 885.161 27.4339C885.16 27.6994 885.212 27.9624 885.313 28.2079C885.414 28.4534 885.562 28.6766 885.748 28.8647C885.935 29.0528 886.157 29.2021 886.401 29.3041C886.646 29.4062 886.907 29.459 887.172 29.4594C887.437 29.4599 887.699 29.408 887.943 29.3069C888.188 29.2057 888.41 29.0571 888.598 28.8697L910.009 7.38076V8.38585C909.991 8.63545 910.024 8.8862 910.106 9.12242C910.189 9.35864 910.319 9.57523 910.488 9.75867C910.658 9.9421 910.864 10.0884 911.092 10.1885C911.321 10.2886 911.568 10.3402 911.817 10.3402C912.066 10.3402 912.313 10.2886 912.542 10.1885C912.77 10.0884 912.976 9.9421 913.145 9.75867C913.315 9.57523 913.445 9.35864 913.528 9.12242C913.61 8.8862 913.643 8.63545 913.625 8.38585V2.91814C913.642 2.64682 913.602 2.37494 913.507 2.12032C913.412 1.8657 913.264 1.63409 913.074 1.44064Z" fill="#FF6B00"/>
<path d="M11.6393 312.548C11.6393 313.669 11.308 314.765 10.6873 315.698C10.0667 316.63 9.18453 317.356 8.15243 317.785C7.12033 318.214 5.98463 318.327 4.88896 318.108C3.79328 317.889 2.78684 317.349 1.9969 316.557C1.20697 315.764 0.66901 314.754 0.451066 313.654C0.233123 312.554 0.344969 311.415 0.77248 310.379C1.19999 309.343 1.92396 308.458 2.85283 307.835C3.7817 307.212 4.87376 306.879 5.9909 306.879C7.48813 306.882 8.92327 307.48 9.98197 308.543C11.0407 309.605 11.6366 311.045 11.6393 312.548Z" fill="#FF6B00"/>
<path d="M449.988 123.871C449.988 124.993 449.656 126.089 449.036 127.021C448.415 127.953 447.533 128.68 446.501 129.109C445.469 129.538 444.333 129.65 443.237 129.431C442.142 129.212 441.135 128.673 440.345 127.88C439.555 127.087 439.017 126.077 438.799 124.977C438.581 123.878 438.693 122.738 439.121 121.702C439.548 120.666 440.272 119.781 441.201 119.158C442.13 118.535 443.222 118.203 444.339 118.203C445.837 118.203 447.274 118.8 448.333 119.863C449.393 120.926 449.988 122.368 449.988 123.871Z" fill="#FCCD06"/>
<path d="M943.019 171.412C943.019 172.533 942.688 173.629 942.067 174.561C941.446 175.494 940.564 176.22 939.532 176.649C938.5 177.078 937.364 177.19 936.269 176.972C935.173 176.753 934.166 176.213 933.376 175.42C932.587 174.628 932.049 173.617 931.831 172.518C931.613 171.418 931.724 170.278 932.152 169.243C932.579 168.207 933.303 167.321 934.232 166.699C935.161 166.076 936.253 165.743 937.37 165.743C938.868 165.746 940.303 166.344 941.362 167.406C942.42 168.469 943.016 169.909 943.019 171.412Z" fill="#FCCD06"/>
</svg>
