<svg width="320" height="495" viewBox="0 0 320 495" fill="none" xmlns="http://www.w3.org/2000/svg">
<path d="M-162 495C-162 495 -106.455 487.826 -47.5998 454.331C42.7622 402.953 121.894 410.015 186.31 413.885C306.824 421.133 317.084 364.712 428.41 350.932C539.737 337.153 605.535 344.512 605.535 344.512V0H-162V495Z" fill="#CFD2D3"/>
<path d="M-162 420.091C-162 420.091 -124.79 386.828 34.5518 399.947C138.456 408.488 205.717 385.423 292.46 337.748C379.202 290.073 447.076 319.965 517.694 344.333C588.312 368.701 606 360.225 606 360.225V0H-161.993L-162 420.091Z" fill="url(#paint0_linear)"/>
<path opacity="0.7" d="M-162 452.935C-162 452.935 -95.757 460.983 -49.4266 445.277C36.1831 416.248 84.5964 369.578 168.743 355.603C270.841 338.65 295.864 368.219 369.549 345.889C443.234 323.559 464.596 282.099 524.543 256.028C561.449 239.988 605.966 261.722 605.966 261.722V0H-161.993L-162 452.935Z" fill="url(#paint1_linear)"/>
<path fill-rule="evenodd" clip-rule="evenodd" d="M263.868 308.026L270.748 302.376L256.158 295.326L308.418 279.246C304.048 296.386 299.738 313.336 295.348 330.556C292.958 326.736 290.698 323.196 288.538 319.556C287.948 318.556 287.668 318.556 286.858 319.356C273.798 332.529 260.712 345.693 247.598 358.846C244.358 362.106 241.098 365.356 237.898 368.656C237.188 369.386 236.808 369.496 235.988 368.746C231.988 365.076 227.908 361.516 223.908 357.866C223.118 357.156 222.658 357.106 221.818 357.866C210.868 367.266 199.878 376.616 188.928 386.026C188.078 386.756 187.598 386.806 186.718 386.026C182.618 382.566 178.438 379.196 174.318 375.756C173.698 375.236 173.378 375.136 172.718 375.756C157.568 390.226 155 393.5 155 393.5C135.082 399.174 101.5 401 101.5 401C101.5 401 110 396.596 119.448 391.656C119.628 391.496 119.828 391.356 120.008 391.206C120.658 392.896 121.298 394.576 122.078 396.596C122.728 393.346 123.298 390.506 123.868 387.676L124.088 387.376C125.428 386.389 126.695 385.306 127.878 384.136C138.438 374.803 148.988 365.439 159.528 356.046C160.248 355.426 160.988 354.816 161.708 354.186L174.418 343.026C178.472 346.666 182.512 350.313 186.538 353.966C187.138 354.516 187.538 354.726 188.258 354.016C192.618 349.916 197.048 345.886 201.458 341.836L207.938 343.836L205.318 338.226C211.398 332.666 217.498 327.116 223.548 321.526C224.218 320.906 224.548 320.836 225.228 321.526C228.498 324.736 231.838 327.866 235.158 331.026C235.608 331.466 235.918 331.906 236.648 331.266C239.588 328.666 242.598 326.136 245.588 323.586C249.058 320.676 252.588 317.786 255.998 314.846C258.608 312.576 261.378 310.466 263.868 308.026Z" fill="#FF6B00"/>
<path fill-rule="evenodd" clip-rule="evenodd" d="M262.058 363.166C262.058 362.846 261.868 362.696 261.588 362.636C261.308 362.576 261.198 362.636 261.198 362.866C261.189 362.997 261.219 363.129 261.285 363.243C261.351 363.357 261.45 363.448 261.568 363.506C261.818 363.606 261.948 363.366 262.058 363.166Z" fill="#515FF9"/>
<path fill-rule="evenodd" clip-rule="evenodd" d="M122.868 368.916C123.678 367.916 124.488 366.916 125.148 366.096C126.658 364.096 128.568 362.556 130.198 360.656C131.801 359.325 133.034 357.603 133.778 355.656C133.918 355.326 134.398 354.656 133.778 354.416C133.628 354.334 133.463 354.286 133.292 354.275C133.122 354.264 132.951 354.29 132.792 354.352C132.633 354.414 132.489 354.51 132.371 354.633C132.253 354.757 132.163 354.904 132.108 355.066C131.973 355.426 131.74 355.742 131.437 355.978C131.133 356.214 130.771 356.363 130.388 356.406L130.478 343.056C131.148 342.466 131.798 341.826 132.478 341.276C140.838 334.689 149.212 328.113 157.598 321.546C160.478 319.296 163.398 317.756 167.218 320.466C168.416 322.149 169.021 324.182 168.938 326.246C168.588 330.816 168.388 338.296 167.938 342.866C167.938 343.006 167.068 343.336 166.938 343.406C166.334 343.731 165.803 344.177 165.378 344.716C164.717 345.603 163.936 346.393 163.058 347.066C162.178 347.676 161.448 348.176 160.628 348.866C160.318 349.146 158.898 350.456 158.468 349.816C158.038 349.176 158.808 345.976 159.048 345.326C159.508 344.076 160.248 344.216 160.718 342.966L163.418 335.656C163.668 334.996 163.988 334.366 163.528 333.656C163.008 333.816 162.468 334.236 162.528 334.496C162.898 335.926 161.708 336.286 160.928 336.666C159.928 337.146 160.738 337.956 160.278 338.506C159.673 339.209 159.029 339.876 158.348 340.506C158.348 338.506 158.348 336.426 158.348 334.386C158.933 332.134 159.055 329.787 158.708 327.486C157.328 328.796 157.318 330.486 156.708 331.846C156.488 332.326 155.958 333.366 156.608 334.146C152.268 337.426 147.935 340.713 143.608 344.006C143.098 344.386 142.488 344.656 142.318 345.436C141.919 347.862 141.728 350.318 141.748 352.776C141.638 354.546 141.558 356.386 141.348 358.126C140.93 362.168 139.673 366.078 137.658 369.606C136.053 372.207 134.191 374.639 132.098 376.866C130.398 378.756 128.398 381.446 126.328 382.866C124.098 384.416 123.398 381.556 122.648 380.026C121.788 378.236 118.568 375.806 119.648 373.616C120.559 371.944 121.637 370.369 122.868 368.916Z" fill="#F6C435"/>
<path fill-rule="evenodd" clip-rule="evenodd" d="M232.718 286.596C231.408 287.246 229.948 286.996 228.568 287.166C226.302 287.406 224.104 288.086 222.098 289.166C218.258 291.286 214.338 293.256 210.458 295.296C202.738 299.47 195.021 303.643 187.308 307.816C186.708 308.146 186.308 308.246 185.978 307.586C185.636 305.376 185.063 303.207 184.268 301.116C184.018 300.286 184.058 299.286 183.268 298.686C183.963 297.957 184.805 297.385 185.738 297.006C195.458 291.316 205.338 285.926 215.898 281.916L216.968 281.516L227.508 279.236L232.718 286.596Z" fill="#FF6B00"/>
<path fill-rule="evenodd" clip-rule="evenodd" d="M253.698 307.976C253.306 308.017 252.91 307.955 252.548 307.796C249.548 310.276 246.808 313.066 243.548 315.356C244.061 318.135 244.729 320.882 245.548 323.586C249.018 320.676 252.548 317.786 255.958 314.846C258.598 312.576 261.368 310.466 263.858 308.026C260.478 307.996 257.088 307.916 253.698 307.976Z" fill="#2C1C31"/>
<path fill-rule="evenodd" clip-rule="evenodd" d="M184.268 301.116C184.018 300.286 184.058 299.286 183.268 298.686C182.33 299.145 181.462 299.734 180.688 300.436C178.778 301.756 167.918 308.376 166.088 309.726C166.088 309.726 166.448 310.386 166.478 310.456L166.868 311.176C166.998 311.416 167.128 311.666 167.248 311.916C167.34 312.079 167.407 312.254 167.448 312.436C167.501 312.606 167.59 312.763 167.708 312.896C167.777 312.996 167.834 313.103 167.878 313.216L167.968 313.376C167.981 313.433 168.005 313.488 168.038 313.536C168.101 313.626 168.158 313.719 168.208 313.816C168.208 313.906 168.298 313.996 168.348 314.086C168.372 314.127 168.393 314.171 168.408 314.216C168.408 314.276 168.478 314.316 168.498 314.366C168.518 314.416 168.608 314.566 168.658 314.666C168.72 314.809 168.801 314.944 168.898 315.066C168.981 315.141 169.052 315.229 169.108 315.326C169.278 315.636 169.428 315.946 169.598 316.256C169.768 316.566 169.798 316.606 169.908 316.776C170.018 316.946 170.068 317.026 170.158 317.146C170.199 317.213 170.246 317.277 170.298 317.336C170.298 317.336 170.418 317.516 170.438 317.506C172.684 316.712 174.808 315.608 176.748 314.226C179.818 312.306 182.748 310.116 185.698 308.036C185.838 307.936 185.908 307.736 186.018 307.586C185.663 305.374 185.077 303.205 184.268 301.116Z" fill="#ED959E"/>
<path fill-rule="evenodd" clip-rule="evenodd" d="M222.308 279.976L221.948 280.036C220.879 280.29 219.824 280.6 218.788 280.966C217.788 281.346 217.668 280.966 217.648 280.116C217.568 276.976 217.418 273.846 217.298 270.596L213.378 271.986C213.282 271.12 213.471 270.245 213.918 269.496C214.453 267.91 215.168 266.39 216.048 264.966C220.678 257.756 224.208 270.476 227.558 268.756C227.998 268.499 228.516 268.405 229.018 268.491C229.521 268.577 229.978 268.837 230.308 269.226C230.607 269.515 230.794 269.902 230.834 270.316C230.875 270.73 230.766 271.145 230.528 271.486C230.257 271.886 229.871 272.196 229.422 272.374C228.972 272.553 228.48 272.592 228.008 272.486C227.552 272.369 227.107 272.212 226.678 272.016C226.858 274.016 226.898 276.016 227.258 277.896C227.488 279.176 226.988 279.426 225.968 279.446C224.728 279.432 223.493 279.611 222.308 279.976ZM228.498 271.296C228.348 270.626 227.758 271.056 227.598 270.646C227.858 270.386 228.348 270.456 228.448 269.906C227.665 269.99 226.947 270.378 226.448 270.986L228.498 271.296ZM218.038 266.796C217.948 266.546 217.898 266.156 217.488 266.136C217.078 266.116 217.028 266.436 217.048 266.726C217.068 267.016 217.148 267.536 217.638 267.516C217.968 267.496 218.018 267.116 218.038 266.796Z" fill="#ED959E"/>
<path fill-rule="evenodd" clip-rule="evenodd" d="M137.868 324.466L129.568 330.336C129.468 328.436 129.368 326.526 129.258 324.626C129.258 324.336 129.388 323.866 128.838 323.906C128.557 323.969 128.265 323.97 127.983 323.909C127.701 323.848 127.436 323.727 127.205 323.555C126.974 323.382 126.784 323.161 126.646 322.907C126.508 322.654 126.427 322.374 126.408 322.086C126.218 320.606 127.408 320.196 128.408 319.736C128.935 319.683 129.425 319.441 129.788 319.056C132.168 317.266 130.228 315.486 131.098 312.326C131.447 311.886 131.917 311.557 132.449 311.379C132.982 311.202 133.555 311.183 134.098 311.326C135.168 311.526 136.758 312.466 137.878 312.736C138.088 312.786 139.528 312.956 139.748 312.996L141.098 313.236C141.098 313.236 141.298 313.376 141.308 313.436C141.318 313.496 141.208 313.666 141.138 313.736C141.068 313.806 140.318 314.096 140.248 314.136C140.055 314.269 139.874 314.42 139.708 314.586C139.603 314.727 139.507 314.874 139.418 315.026C139.364 315.357 139.33 315.691 139.318 316.026C139.318 316.216 139.318 316.406 139.388 316.596C139.458 316.786 139.478 317.236 139.488 317.266C139.688 318.686 139.038 320.146 138.578 321.546C138.2 322.479 137.96 323.463 137.868 324.466ZM129.048 322.116C129.378 321.806 129.798 321.556 129.828 320.986H127.998C127.778 321.816 129.158 320.986 128.758 321.886C128.598 322.066 128.248 322.266 128.598 322.506C128.768 322.626 128.978 322.356 129.048 322.116ZM138.428 317.746C137.937 318.151 137.325 318.379 136.689 318.396C136.053 318.412 135.429 318.215 134.918 317.836C136.158 319.316 137.398 319.276 138.428 317.756V317.746Z" fill="#ED959E"/>
<path fill-rule="evenodd" clip-rule="evenodd" d="M104.208 362.116C106.568 363.856 109.208 365.116 111.508 367.016C109.99 370.772 107.843 374.242 105.158 377.276C104.966 377.553 104.697 377.768 104.384 377.894C104.071 378.02 103.729 378.052 103.398 377.986C103.242 377.951 103.101 377.866 102.998 377.743C102.895 377.62 102.835 377.466 102.828 377.306C102.818 377.206 102.818 377.106 102.828 377.006C102.833 376.956 102.833 376.906 102.828 376.856C102.828 376.856 102.828 376.736 102.768 376.716H102.708C102.648 376.716 102.558 376.716 102.548 376.766C102.538 376.816 102.548 376.766 102.548 376.836L102.478 376.926L102.358 377.106L102.078 377.436C101.989 377.536 101.884 377.62 101.768 377.686C101.589 377.767 101.394 377.805 101.198 377.796C100.968 377.796 100.718 377.796 100.558 377.616C100.528 377.561 100.495 377.507 100.458 377.456L100.318 377.206C100.266 377.11 100.232 377.005 100.218 376.896C100.193 376.764 100.193 376.628 100.218 376.496C100.218 376.316 100.338 376.166 100.368 375.986C100.398 375.806 100.368 375.756 100.238 375.876L100.048 376.106L99.8481 376.356C99.8059 376.428 99.7518 376.492 99.6881 376.546C99.6272 376.605 99.556 376.653 99.4781 376.686C99.4092 376.692 99.3417 376.709 99.2781 376.736C99.2185 376.746 99.1577 376.746 99.0981 376.736C99.0214 376.732 98.9464 376.711 98.8777 376.677C98.8089 376.643 98.7479 376.595 98.6981 376.536C98.2981 376.126 98.4481 375.656 98.5681 375.196C98.5955 375.088 98.6288 374.981 98.6681 374.876C98.7519 374.724 98.79 374.55 98.7781 374.376C98.7781 374.276 98.7781 374.046 98.5881 374.066C98.3981 374.086 98.4081 374.216 98.3281 374.256C98.2252 374.329 98.1101 374.384 97.9881 374.416C97.8664 374.457 97.7351 374.46 97.6118 374.424C97.4885 374.388 97.379 374.316 97.2981 374.216C96.7981 373.716 97.0181 373.146 97.2981 372.616C98.4092 370.35 99.7 368.176 101.158 366.116L103.918 362.116H104.178H104.208Z" fill="#ED959E"/>
<path fill-rule="evenodd" clip-rule="evenodd" d="M102.778 376.166C102.865 375.986 102.965 375.806 103.078 375.626L103.268 375.326C103.538 374.936 103.838 374.566 104.118 374.186C104.398 373.806 104.608 373.466 104.878 373.126C104.997 372.967 105.128 372.817 105.268 372.676L105.428 372.546C105.46 372.513 105.502 372.492 105.548 372.486C105.718 372.486 105.378 373.026 105.348 373.076C105.138 373.396 104.888 373.686 104.648 373.996C104.408 374.306 104.228 374.556 104.018 374.836C103.808 375.116 103.618 375.316 103.448 375.576C103.278 375.836 103.268 375.896 103.178 376.066C103.088 376.236 103.088 376.226 103.058 376.306C103.038 376.356 103.011 376.403 102.978 376.446L102.908 376.526C102.908 376.526 102.758 376.786 102.768 376.786C102.778 376.786 102.768 376.786 102.768 376.736V376.686C102.768 376.686 102.708 376.686 102.668 376.686C102.628 376.686 102.668 376.686 102.668 376.686V376.626C102.692 376.592 102.712 376.555 102.728 376.516C102.728 376.516 102.728 376.516 102.728 376.446C102.728 376.376 102.728 376.366 102.728 376.336C102.738 376.278 102.755 376.221 102.778 376.166Z" fill="#2C1C31"/>
<path fill-rule="evenodd" clip-rule="evenodd" d="M120.208 374.716C120.208 374.826 120.328 374.926 120.388 375.036L120.758 375.716C120.838 375.866 120.948 375.996 121.038 376.156C121.128 376.316 121.208 376.446 121.298 376.576C121.354 376.638 121.404 376.705 121.448 376.776C121.448 376.836 121.518 376.906 121.558 376.976L121.948 377.576C121.985 377.635 122.025 377.692 122.068 377.746C122.068 377.806 122.128 377.886 122.168 377.936C122.208 377.986 122.238 377.996 122.268 378.046C122.298 378.096 122.268 378.146 122.348 378.186L122.518 378.436C122.647 378.61 122.761 378.794 122.858 378.986C122.948 379.176 123.058 379.346 123.158 379.526C123.258 379.68 123.348 379.841 123.428 380.006C123.598 380.356 123.788 380.706 123.978 381.056C124.068 381.236 124.168 381.406 124.248 381.596C124.29 381.736 124.34 381.873 124.398 382.006C124.51 382.172 124.634 382.329 124.768 382.476C124.894 382.651 125.042 382.809 125.208 382.946C125.356 383.024 125.496 383.115 125.628 383.216C125.674 383.257 125.705 383.31 125.72 383.369C125.734 383.428 125.73 383.489 125.708 383.546C125.564 383.83 125.401 384.104 125.218 384.366C125.088 384.566 124.958 384.766 124.838 384.976C124.588 385.426 124.338 385.876 124.108 386.336C124.03 386.481 123.969 386.636 123.928 386.796C123.848 387.951 123.848 389.111 123.928 390.266C123.838 392.266 123.778 394.856 122.288 396.266C121.128 395.336 120.588 392.606 120.038 391.176C118.558 387.096 117.098 382.996 115.578 378.916C115.389 378.6 115.326 378.223 115.404 377.863C115.482 377.502 115.695 377.185 115.998 376.976C116.628 376.456 117.148 375.816 117.738 375.246C117.898 375.086 118.048 374.916 118.208 374.746C118.49 374.454 118.787 374.177 119.098 373.916C119.258 373.776 119.528 373.456 119.748 373.696C119.811 373.799 119.868 373.906 119.918 374.016C120.007 374.137 120.074 374.273 120.118 374.416C120.138 374.519 120.169 374.619 120.208 374.716Z" fill="#2C1C31"/>
<path fill-rule="evenodd" clip-rule="evenodd" d="M170.398 317.536C169.615 316.472 168.945 315.329 168.398 314.126C167.918 313.196 167.898 312.986 167.468 312.206C167.038 311.426 166.538 310.646 166.078 309.756C164.24 310.41 162.443 311.174 160.698 312.046C160.698 312.116 160.188 312.256 160.148 312.306C155.451 314.379 150.892 316.75 146.498 319.406C143.498 320.886 140.778 322.796 137.898 324.466L129.598 330.336C128.008 331.546 126.528 333.006 124.678 334.696C121.478 337.606 120.028 339.486 117.088 342.576C113.978 345.836 108.548 352.966 108.528 353.006C106.708 355.156 105.218 357.546 103.528 359.826C102.788 360.826 102.698 361.526 103.938 362.086C106.561 363.56 109.086 365.2 111.498 366.996C112.078 366.826 112.228 366.256 112.498 365.846C115.208 361.956 117.758 357.976 120.668 354.226C123.668 350.316 126.598 346.226 130.448 343.036C131.118 342.446 131.768 341.806 132.448 341.256C140.808 334.67 149.182 328.093 157.568 321.526C160.448 319.276 163.368 317.736 167.178 320.446C168.068 319.976 168.918 319.446 169.838 319.046C170.758 318.646 170.738 318.206 170.398 317.536Z" fill="#E9EBEB"/>
<path fill-rule="evenodd" clip-rule="evenodd" d="M130.378 356.386C130.76 356.343 131.123 356.195 131.427 355.958C131.73 355.722 131.963 355.406 132.098 355.046C132.153 354.885 132.243 354.737 132.361 354.613C132.479 354.49 132.623 354.394 132.782 354.332C132.941 354.27 133.112 354.244 133.282 354.255C133.452 354.266 133.618 354.314 133.768 354.396C134.398 354.656 133.918 355.306 133.768 355.636C133.024 357.583 131.791 359.305 130.188 360.636C130.138 359.217 130.201 357.796 130.378 356.386Z" fill="#E8AF1B"/>
<path fill-rule="evenodd" clip-rule="evenodd" d="M132.478 311.356C131.892 311.497 131.339 311.754 130.853 312.111C130.367 312.468 129.958 312.919 129.648 313.436C128.835 314.802 128.375 316.349 128.308 317.936C128.306 318.575 128.408 319.21 128.608 319.816C130.608 319.716 131.468 318.306 132.248 316.816C133.018 315.092 133.1 313.139 132.478 311.356Z" fill="#2C1C31"/>
<path fill-rule="evenodd" clip-rule="evenodd" d="M223.838 264.186L223.458 263.846L223.838 264.186Z" fill="#2C1C31"/>
<path fill-rule="evenodd" clip-rule="evenodd" d="M266.848 350.836L266.718 350.976C266.718 350.976 266.718 350.906 266.718 350.896C266.718 350.886 266.798 350.896 266.838 350.896L266.848 350.836Z" fill="#BAC0DD"/>
<path fill-rule="evenodd" clip-rule="evenodd" d="M270.318 347.966L270.218 347.916C270.218 347.916 270.218 347.866 270.218 347.846L270.328 347.976L270.318 347.966Z" fill="#BAC0DD"/>
<path fill-rule="evenodd" clip-rule="evenodd" d="M189.918 336.826C193.643 338.739 197.488 340.409 201.428 341.826L207.908 343.826L205.288 338.216C204.288 336.406 203.928 335.796 204.428 334.956C201.238 333.496 197.768 332.596 194.578 331.116L189.918 336.826Z" fill="#2C1C31"/>
<path fill-rule="evenodd" clip-rule="evenodd" d="M158.388 348.356C158.394 348.569 158.424 348.78 158.478 348.986C159.01 348.052 159.391 347.039 159.608 345.986L160.928 342.426C161.782 340.146 162.625 337.87 163.458 335.596C163.708 334.936 164.028 334.306 163.568 333.596C163.048 333.756 162.508 334.176 162.568 334.436C162.938 335.866 161.748 336.226 160.968 336.606C159.968 337.086 160.778 337.896 160.318 338.446C159.718 339.176 158.388 340.446 158.388 340.446C158.388 340.446 158.398 346.666 158.388 348.356Z" fill="#E8AF1B"/>
<path fill-rule="evenodd" clip-rule="evenodd" d="M174.868 342.226L172.778 342.406C172.058 342.466 171.348 342.496 170.638 342.566C169.088 342.736 168.318 342.816 167.968 342.466C167.388 342.826 166.798 343.166 166.248 343.556C166.094 343.769 165.908 343.958 165.698 344.116C164.358 345.116 163.028 346.116 161.698 347.056C160.878 347.717 160.006 348.309 159.088 348.826C158.878 348.976 158.668 349.116 158.448 349.246C158.448 351.466 158.448 353.616 158.448 354.996C158.448 355.816 158.618 356.326 159.588 355.996C160.308 355.376 161.048 354.766 161.768 354.136L174.478 342.976C174.478 342.756 174.998 342.716 174.868 342.226Z" fill="#2C1C31"/>
<path fill-rule="evenodd" clip-rule="evenodd" d="M123.868 387.676C123.868 387.536 123.778 387.306 124.088 387.376L123.868 387.676Z" fill="#FEFEFE"/>
<path fill-rule="evenodd" clip-rule="evenodd" d="M158.378 334.406C158.378 334.046 158.308 333.676 158.268 333.256C157.558 333.256 157.268 333.986 156.638 334.166C155.988 333.386 156.518 332.346 156.738 331.866C157.348 330.496 157.358 328.816 158.738 327.506C159.085 329.807 158.963 332.154 158.378 334.406Z" fill="#E8AF1B"/>
<path fill-rule="evenodd" clip-rule="evenodd" d="M209.658 317.856L209.728 317.836L209.718 317.906L209.658 317.856Z" fill="#212E9D"/>
<path fill-rule="evenodd" clip-rule="evenodd" d="M177.088 306.046H177.038H176.958L176.858 306.106L176.758 306.176L176.618 306.256L176.478 306.356L176.318 306.446L176.148 306.556L175.978 306.656L175.798 306.766L175.618 306.876L175.438 306.986L175.268 307.096L175.098 307.206L174.938 307.306L174.788 307.396L174.648 307.476L174.538 307.556L174.428 307.616L174.358 307.666H174.298L173.938 307.896L173.578 308.126L173.218 308.366L172.858 308.596L172.668 308.716H172.598C172.598 308.716 172.598 308.716 172.528 308.716L172.368 308.816L172.168 308.936C172.134 308.969 172.097 308.999 172.058 309.026C171.992 309.069 171.935 309.123 171.888 309.186C171.888 309.256 171.958 309.256 172.008 309.256C172.11 309.243 172.211 309.219 172.308 309.186C172.409 309.153 172.506 309.11 172.598 309.056C172.649 309.023 172.703 308.993 172.758 308.966L172.978 308.846L173.098 308.776L173.248 308.696L173.408 308.596L173.568 308.496L173.758 308.376L173.938 308.256L174.118 308.136L174.308 308.016L174.498 307.886L174.678 307.766L174.858 307.646L175.028 307.526L175.188 307.416L175.328 307.326L175.458 307.236L175.568 307.156L175.668 307.096H175.738L176.638 306.556C176.808 306.456 176.971 306.345 177.128 306.226L177.448 306.026C177.628 305.896 177.818 305.776 178.018 305.656L178.288 305.476L178.568 305.296L178.648 305.246H178.698L178.838 305.126C178.838 305.126 178.888 305.126 178.888 305.066C178.884 305.047 178.884 305.026 178.888 305.006C178.888 305.006 178.888 304.946 178.888 304.956H178.768C178.729 304.946 178.688 304.946 178.648 304.956L178.518 305.016L178.358 305.116L178.098 305.276L177.978 305.346L177.868 305.426C177.798 305.476 177.718 305.516 177.648 305.576L177.498 305.676L177.358 305.766L177.258 305.826L177.148 305.906L177.088 306.046Z" fill="#2C1C31"/>
<path fill-rule="evenodd" clip-rule="evenodd" d="M228.498 271.296L226.428 270.986C226.927 270.378 227.646 269.99 228.428 269.906C228.328 270.456 227.838 270.386 227.578 270.646C227.758 271.056 228.348 270.626 228.498 271.296Z" fill="#2C1C31"/>
<path fill-rule="evenodd" clip-rule="evenodd" d="M218.098 266.786C218.102 266.895 218.085 267.004 218.048 267.106C218.007 267.242 217.927 267.364 217.818 267.456C217.759 267.488 217.694 267.508 217.626 267.513C217.559 267.519 217.492 267.511 217.428 267.489C217.364 267.468 217.305 267.433 217.256 267.388C217.206 267.343 217.166 267.287 217.138 267.226C217.128 267.146 217.128 267.066 217.138 266.986C217.138 266.896 217.138 266.816 217.138 266.726C217.138 266.636 217.138 266.206 217.408 266.166C217.491 266.156 217.575 266.156 217.658 266.166H217.858C217.93 266.193 217.994 266.237 218.045 266.294C218.096 266.352 218.131 266.421 218.148 266.496C218.147 266.595 218.13 266.693 218.098 266.786Z" fill="#2C1C31"/>
<path fill-rule="evenodd" clip-rule="evenodd" d="M138.428 317.756C137.428 319.276 136.118 319.316 134.918 317.846C135.429 318.225 136.052 318.422 136.688 318.406C137.325 318.39 137.937 318.161 138.428 317.756Z" fill="#2C1C31"/>
<path fill-rule="evenodd" clip-rule="evenodd" d="M128.758 321.896C129.158 320.956 127.758 321.826 127.998 320.996H129.828C129.828 321.566 129.378 321.816 129.048 322.126L128.758 321.896Z" fill="#2C1C31"/>
<path fill-rule="evenodd" clip-rule="evenodd" d="M129.048 322.116C128.978 322.346 128.768 322.616 128.598 322.506C128.248 322.266 128.598 322.066 128.758 321.886L129.048 322.116Z" fill="#2C1C31"/>
<path fill-rule="evenodd" clip-rule="evenodd" d="M101.158 370.846L101.028 371.026L100.918 371.186C100.885 371.227 100.861 371.275 100.848 371.326C100.824 371.373 100.794 371.417 100.758 371.456L100.648 371.586C100.648 371.666 100.528 371.736 100.488 371.816C100.483 371.832 100.483 371.85 100.488 371.866L100.408 371.986C100.248 372.246 100.078 372.506 99.908 372.766L99.758 373.006L99.468 373.436L99.408 373.526C99.408 373.526 99.408 373.526 99.348 373.576L99.198 373.756L98.9979 373.936L98.868 374.076C98.8397 374.123 98.8023 374.164 98.758 374.196C98.658 374.266 98.698 374.116 98.658 374.066C98.618 374.016 98.658 374.066 98.598 374.006C98.538 373.946 98.598 373.946 98.598 373.916C98.7101 373.779 98.8137 373.636 98.908 373.486C99.0958 373.141 99.3028 372.808 99.528 372.486C99.688 372.266 99.868 372.056 100.028 371.836L100.248 371.556L100.388 371.376L100.458 371.286C100.458 371.286 100.458 371.236 100.458 371.216C100.458 371.196 100.648 370.986 100.738 370.876L100.898 370.676L101.318 370.156C101.458 369.976 101.588 369.776 101.738 369.596L101.878 369.436L101.998 369.326L102.138 369.176C102.138 369.176 102.228 369.106 102.258 369.176C102.288 369.246 102.258 369.296 102.258 369.326C102.217 369.423 102.163 369.514 102.098 369.596C102.02 369.691 101.936 369.781 101.848 369.866C101.748 369.976 101.658 370.086 101.568 370.206C101.478 370.326 101.338 370.636 101.158 370.846Z" fill="#2C1C31"/>
<path fill-rule="evenodd" clip-rule="evenodd" d="M175.978 311.956C175.973 311.972 175.973 311.99 175.978 312.006H176.158C176.169 312.011 176.181 312.014 176.193 312.014C176.205 312.014 176.217 312.011 176.228 312.006H176.288C176.343 311.98 176.393 311.946 176.438 311.906L176.528 311.846C176.668 311.776 176.798 311.696 176.928 311.616L177.708 311.116L177.988 310.906L178.268 310.686H178.348H178.418H178.478L178.678 310.566C178.731 310.527 178.788 310.494 178.848 310.466L178.968 310.376L179.158 310.116L179.308 309.996C179.343 309.965 179.384 309.942 179.428 309.926C179.468 309.912 179.505 309.892 179.538 309.866C179.591 309.829 179.641 309.789 179.688 309.746L179.868 309.616L180.058 309.466C180.077 309.444 180.101 309.427 180.128 309.416C180.183 309.375 180.233 309.328 180.278 309.276L180.588 309.006C180.678 308.926 180.768 308.866 180.848 308.786L181.008 308.626C181.008 308.626 181.088 308.556 181.088 308.516C181.093 308.507 181.095 308.496 181.095 308.486C181.095 308.476 181.093 308.465 181.088 308.456V308.396C181.088 308.396 180.998 308.396 180.958 308.396C180.896 308.414 180.838 308.444 180.788 308.486L180.638 308.606L180.358 308.796C180.314 308.829 180.267 308.86 180.218 308.886L180.098 308.966L179.638 309.316L179.558 309.386C179.519 309.426 179.471 309.457 179.418 309.476C179.391 309.487 179.367 309.504 179.348 309.526L179.278 309.586L179.098 309.726L178.928 309.846L178.788 309.966L178.408 310.226L178.248 310.346L178.188 310.396C178.138 310.42 178.091 310.45 178.048 310.486L177.888 310.586L177.598 310.766L176.598 311.416L176.448 311.526L176.318 311.606L176.248 311.656C176.184 311.715 176.133 311.786 176.098 311.866C176.051 311.885 176.01 311.916 175.978 311.956Z" fill="#2C1C31"/>
<path fill-rule="evenodd" clip-rule="evenodd" d="M100.328 375.486C100.33 375.519 100.33 375.553 100.328 375.586C100.328 375.586 100.328 375.656 100.278 375.686C100.269 375.719 100.269 375.753 100.278 375.786C100.278 375.786 100.388 375.786 100.428 375.786C100.468 375.786 100.428 375.876 100.428 375.926C100.428 375.976 100.428 375.926 100.428 375.876C100.456 375.822 100.489 375.772 100.528 375.726C100.56 375.664 100.604 375.61 100.658 375.566C100.706 375.521 100.743 375.467 100.768 375.406L101.018 374.986L101.168 374.766C101.288 374.576 101.408 374.396 101.538 374.216C101.562 374.188 101.582 374.158 101.598 374.126C101.6 374.103 101.6 374.079 101.598 374.056C101.678 373.936 101.788 373.836 101.868 373.726L102.138 373.386L102.468 372.916C102.828 372.436 103.218 371.986 103.538 371.466C103.594 371.373 103.644 371.276 103.688 371.176C103.688 371.176 103.688 371.086 103.688 371.066C103.688 371.046 103.588 371.066 103.568 371.066C103.503 371.117 103.443 371.174 103.388 371.236C103.238 371.406 103.098 371.596 102.958 371.786C102.818 371.976 102.658 372.206 102.498 372.406L101.988 373.026C101.937 373.107 101.88 373.184 101.818 373.256C101.718 373.396 101.628 373.546 101.518 373.676L101.468 373.726C101.442 373.757 101.418 373.79 101.398 373.826L101.258 374.046L100.858 374.636C100.858 374.716 100.768 374.796 100.708 374.876C100.648 374.956 100.708 374.926 100.708 374.956L100.638 375.046L100.568 375.156L100.478 375.266C100.464 375.3 100.444 375.33 100.418 375.356L100.328 375.486Z" fill="#2C1C31"/>
<path fill-rule="evenodd" clip-rule="evenodd" d="M135.668 314.506C135.682 314.609 135.682 314.713 135.668 314.816C135.619 314.951 135.536 315.071 135.428 315.166C135.369 315.198 135.304 315.217 135.236 315.223C135.169 315.229 135.102 315.221 135.038 315.199C134.974 315.178 134.915 315.143 134.866 315.098C134.816 315.052 134.776 314.997 134.748 314.936C134.726 314.857 134.71 314.777 134.698 314.696C134.693 314.609 134.693 314.523 134.698 314.436C134.698 314.246 134.698 313.916 134.958 313.876H135.418C135.488 313.905 135.55 313.949 135.598 314.007C135.647 314.064 135.681 314.133 135.698 314.206C135.704 314.307 135.694 314.408 135.668 314.506Z" fill="#2C1C31"/>
<path fill-rule="evenodd" clip-rule="evenodd" d="M222.248 260.036C222.68 260.057 223.087 260.241 223.388 260.551C223.689 260.861 223.861 261.274 223.868 261.706C223.815 262.185 223.9 262.669 224.112 263.101C224.325 263.534 224.656 263.896 225.068 264.146C225.754 264.718 226.27 265.467 226.559 266.312C226.849 267.156 226.9 268.064 226.708 268.936C226.185 269.02 225.649 268.913 225.198 268.636C222.591 267.497 220.499 265.43 219.328 262.836C219.308 260.656 220.158 259.806 222.248 260.036Z" fill="#FF6B00"/>
<path fill-rule="evenodd" clip-rule="evenodd" d="M128.808 316.276C127.728 315.796 127.228 316.476 126.388 317.076C121.828 319.836 118.938 319.766 114.768 317.686C113.268 316.936 113.198 315.826 114.588 314.856C116.03 313.861 117.673 313.195 119.401 312.903C121.128 312.611 122.899 312.701 124.588 313.166C126.008 313.476 128.468 314.266 129.588 313.866C129.518 313.766 129.158 315.416 128.808 316.276Z" fill="#2C1C31"/>
<path d="M217.598 280.776C218.989 280.176 220.451 279.756 221.948 279.526C224.718 279.056 227.178 278.526 227.178 278.526L227.718 279.296L227.408 284.296L222.178 280.296L217.598 286.506L217.238 281.506L217.598 280.776Z" fill="#E9EBEB"/>
<path fill-rule="evenodd" clip-rule="evenodd" d="M251.968 306.436C251.968 305.066 251.968 296.616 251.968 295.846C251.969 293.81 251.46 291.806 250.488 290.016C248.438 286.616 245.128 285.826 241.488 285.706C238.488 285.606 229.838 286.996 228.488 287.166C226.222 287.409 224.025 288.088 222.018 289.166C218.188 291.286 214.268 293.256 210.388 295.296C209.681 299.55 208.978 303.803 208.278 308.056C207.738 311.406 207.748 314.906 205.508 317.696C203.578 320.106 201.508 322.426 199.688 324.896C198.488 326.516 196.208 328.366 196.348 330.556C196.398 331.276 207.488 328.716 208.348 328.506C212.348 327.506 215.048 322.296 217.348 319.156C218.928 316.946 220.858 300.156 221.668 299.206C222.478 298.256 234.278 297.296 238.398 296.736C239.009 295.351 239.724 294.013 240.538 292.736C240.648 292.526 240.998 292.256 241.188 292.286C241.628 292.356 241.478 292.816 241.498 293.116C241.552 295.25 241.394 297.384 241.028 299.486C241.488 302.296 243.098 312.886 243.558 315.346C246.778 313.056 249.498 310.266 252.558 307.786C252.078 307.596 251.948 307.196 251.968 306.436ZM209.588 317.906L209.518 317.856H209.598L209.588 317.906Z" fill="#002F87"/>
<path fill-rule="evenodd" clip-rule="evenodd" d="M197.158 328.746H196.418L194.418 331.146C197.608 332.626 201.078 333.526 204.268 334.986C204.688 334.392 205.167 333.843 205.698 333.346C206.228 332.796 206.778 332.256 207.268 331.676C208.468 330.276 210.008 329.176 210.938 327.536C210.368 327.456 198.358 329.116 197.158 328.746Z" fill="#2C1C31"/>
<path fill-rule="evenodd" clip-rule="evenodd" d="M240.918 299.496C240.918 299.306 240.818 299.126 240.788 298.936C240.418 296.716 240.418 296.716 238.288 296.766C238.899 295.38 239.614 294.043 240.428 292.766C240.538 292.556 240.888 292.286 241.078 292.316C241.518 292.386 241.368 292.846 241.388 293.146C241.44 295.273 241.283 297.4 240.918 299.496Z" fill="#2C1C31"/>
<path fill-rule="evenodd" clip-rule="evenodd" d="M211.018 310.976C209.704 311.625 208.486 312.453 207.398 313.436C207.076 315.003 206.391 316.472 205.398 317.726C205.088 318.126 204.758 318.506 204.398 318.896L204.948 318.536C206.638 317.146 208.468 315.966 210.168 314.606C210.958 313.976 212.508 312.486 212.558 311.386C212.608 310.286 211.868 310.566 211.018 310.976Z" fill="#2C1C31"/>
<defs>
<linearGradient id="paint0_linear" x1="-162" y1="232.021" x2="605.966" y2="232.021" gradientUnits="userSpaceOnUse">
<stop stop-color="#0058CC"/>
<stop offset="0.01" stop-color="#0158CC"/>
<stop offset="0.67" stop-color="#3458CC"/>
<stop offset="1" stop-color="#4858CC"/>
</linearGradient>
<linearGradient id="paint1_linear" x1="-198.01" y1="371.13" x2="675.114" y2="132.953" gradientUnits="userSpaceOnUse">
<stop stop-color="#0058CC"/>
<stop offset="0.03" stop-color="#0458CC"/>
<stop offset="0.5" stop-color="#5758CC"/>
<stop offset="0.84" stop-color="#8B58CC"/>
<stop offset="1" stop-color="#9F58CC"/>
</linearGradient>
</defs>
</svg>
