<svg width="768" height="441" viewBox="0 0 768 441" fill="none" xmlns="http://www.w3.org/2000/svg">
<path d="M0 441C0 441 55.5452 435.224 114.4 408.257C204.762 366.892 283.894 372.578 348.31 375.694C468.824 381.529 479.084 336.104 590.41 325.01C701.737 313.916 768 320 768 320L767.535 0H0V441Z" fill="#CFD2D3"/>
<path d="M0 373.611C0 373.611 37.2099 346.831 196.552 357.393C300.456 364.27 367.717 345.7 454.46 307.316C541.202 268.933 609.076 257.606 679.694 277.225C750.312 296.844 768 290.02 768 290.02V0H0.00674093L0 373.611Z" fill="url(#paint0_linear)"/>
<path opacity="0.7" d="M0 400.054C0 400.054 66.243 406.534 112.573 393.889C198.183 370.518 246.596 332.943 330.743 321.692C432.841 308.043 457.864 331.849 531.549 313.871C605.234 295.893 626.596 262.513 686.543 241.523C723.449 228.609 767.966 246.108 767.966 246.108V0H0.00674093L0 400.054Z" fill="url(#paint1_linear)"/>
<path d="M536.828 80.7274L536.774 80.687C536.56 80.4795 536.276 80.3615 535.978 80.3569H532.129C531.962 80.3444 531.794 80.3666 531.635 80.4221C531.477 80.4775 531.331 80.5651 531.208 80.6792C531.085 80.7933 530.987 80.9316 530.92 81.0854C530.853 81.2392 530.818 81.4051 530.818 81.5729C530.818 81.7406 530.853 81.9066 530.92 82.0604C530.987 82.2141 531.085 82.3524 531.208 82.4666C531.331 82.5807 531.477 82.6682 531.635 82.7237C531.794 82.7792 531.962 82.8013 532.129 82.7889H532.85L518.432 97.1923C518.305 97.3183 518.205 97.468 518.137 97.6327C518.069 97.7974 518.034 97.974 518.034 98.1523C518.034 98.3305 518.069 98.5071 518.137 98.6718C518.205 98.8365 518.305 98.9862 518.432 99.1122C518.558 99.2383 518.707 99.3383 518.872 99.4066C519.037 99.4748 519.214 99.5099 519.392 99.5099C519.571 99.5099 519.747 99.4748 519.912 99.4066C520.077 99.3383 520.227 99.2383 520.353 99.1122L534.758 84.7089V85.3826C534.74 85.5535 534.758 85.7262 534.811 85.8897C534.864 86.0531 534.951 86.2036 535.066 86.3313C535.181 86.459 535.322 86.5611 535.479 86.631C535.636 86.7009 535.806 86.737 535.978 86.737C536.15 86.737 536.32 86.7009 536.477 86.631C536.634 86.5611 536.775 86.459 536.89 86.3313C537.005 86.2036 537.092 86.0531 537.145 85.8897C537.198 85.7262 537.216 85.5535 537.198 85.3826V81.7245C537.207 81.5418 537.179 81.3592 537.116 81.1878C537.052 81.0164 536.954 80.8598 536.828 80.7274Z" fill="white"/>
<path d="M724.299 80.7274L724.252 80.687C724.037 80.478 723.749 80.3597 723.449 80.3569H719.607C719.44 80.3444 719.272 80.3666 719.113 80.4221C718.955 80.4775 718.81 80.5651 718.686 80.6792C718.563 80.7933 718.465 80.9316 718.398 81.0854C718.331 81.2392 718.296 81.4051 718.296 81.5729C718.296 81.7406 718.331 81.9066 718.398 82.0604C718.465 82.2141 718.563 82.3524 718.686 82.4666C718.81 82.5807 718.955 82.6682 719.113 82.7237C719.272 82.7792 719.44 82.8013 719.607 82.7889H720.322L705.91 97.1923C705.784 97.3179 705.683 97.4671 705.615 97.6314C705.546 97.7957 705.511 97.9719 705.511 98.1499C705.51 98.3278 705.545 98.5041 705.613 98.6687C705.681 98.8332 705.781 98.9828 705.906 99.1089C706.032 99.235 706.181 99.335 706.346 99.4034C706.51 99.4718 706.686 99.5072 706.864 99.5075C707.043 99.5078 707.219 99.4731 707.384 99.4053C707.548 99.3374 707.698 99.2379 707.824 99.1122L722.236 84.7089V85.3826C722.224 85.5499 722.246 85.7179 722.301 85.8763C722.357 86.0346 722.444 86.1798 722.559 86.3027C722.673 86.4257 722.811 86.5238 722.965 86.5908C723.119 86.6579 723.285 86.6925 723.453 86.6925C723.621 86.6925 723.787 86.6579 723.941 86.5908C724.095 86.5238 724.233 86.4257 724.347 86.3027C724.461 86.1798 724.549 86.0346 724.604 85.8763C724.66 85.7179 724.682 85.5499 724.67 85.3826V81.7177C724.681 81.5359 724.654 81.3536 724.59 81.183C724.526 81.0123 724.427 80.8571 724.299 80.7274Z" fill="#FF6B00"/>
<path d="M117.549 289.253C117.549 290.005 117.326 290.739 116.908 291.364C116.49 291.989 115.896 292.476 115.202 292.764C114.507 293.051 113.742 293.126 113.005 292.98C112.268 292.833 111.59 292.471 111.058 291.94C110.527 291.409 110.165 290.731 110.018 289.994C109.871 289.257 109.946 288.493 110.234 287.799C110.522 287.105 111.009 286.511 111.634 286.094C112.26 285.676 112.995 285.454 113.747 285.454C114.754 285.455 115.72 285.856 116.433 286.568C117.146 287.281 117.547 288.246 117.549 289.253Z" fill="#FF6B00"/>
<path d="M412.598 162.789C412.598 163.54 412.375 164.275 411.958 164.9C411.54 165.525 410.946 166.012 410.251 166.299C409.557 166.587 408.792 166.662 408.055 166.515C407.317 166.369 406.64 166.007 406.108 165.476C405.576 164.944 405.214 164.267 405.068 163.53C404.921 162.793 404.996 162.029 405.284 161.335C405.572 160.641 406.059 160.047 406.684 159.63C407.31 159.212 408.045 158.989 408.796 158.989C409.805 158.989 410.772 159.39 411.485 160.102C412.198 160.815 412.598 161.781 412.598 162.789Z" fill="#FCCD06"/>
<path d="M744.454 194.654C744.454 195.406 744.231 196.14 743.814 196.765C743.396 197.39 742.802 197.877 742.107 198.164C741.413 198.452 740.648 198.527 739.911 198.381C739.173 198.234 738.496 197.872 737.964 197.341C737.432 196.809 737.07 196.132 736.924 195.395C736.777 194.658 736.852 193.894 737.14 193.2C737.428 192.506 737.915 191.912 738.54 191.495C739.165 191.077 739.901 190.854 740.652 190.854C741.66 190.856 742.626 191.257 743.339 191.969C744.051 192.682 744.453 193.647 744.454 194.654Z" fill="#FCCD06"/>
<path fill-rule="evenodd" clip-rule="evenodd" d="M417.207 327.838C417.343 327.579 417.485 327.326 417.641 327.073C417.725 326.93 417.816 326.794 417.913 326.652C418.289 326.094 418.717 325.576 419.112 325.031C419.508 324.487 419.812 324.014 420.188 323.528C420.356 323.297 420.543 323.08 420.746 322.88C420.815 322.81 420.891 322.747 420.972 322.692C421.02 322.65 421.079 322.623 421.141 322.614C421.381 322.614 420.895 323.379 420.856 323.443C420.558 323.897 420.208 324.318 419.871 324.74C419.534 325.161 419.268 325.543 418.963 325.939C418.659 326.334 418.406 326.619 418.166 326.989C418.022 327.21 417.894 327.442 417.784 327.682C417.725 327.799 417.654 327.909 417.602 328.026C417.576 328.098 417.539 328.166 417.492 328.227C417.492 328.266 417.427 328.304 417.395 328.343C417.319 328.458 417.254 328.58 417.2 328.706C417.2 328.706 417.2 328.654 417.2 328.629C417.2 328.603 417.2 328.583 417.2 328.564C417.2 328.544 417.109 328.525 417.045 328.525C416.98 328.525 416.98 328.525 416.973 328.492C416.986 328.46 417.003 328.429 417.025 328.402C417.057 328.354 417.085 328.304 417.109 328.253C417.109 328.214 417.109 328.194 417.109 328.155C417.121 328.097 417.145 328.041 417.181 327.993C417.142 327.948 417.174 327.896 417.207 327.838Z" fill="#2C1C31"/>
<path fill-rule="evenodd" clip-rule="evenodd" d="M456.38 299.806C456.922 299.743 457.437 299.532 457.867 299.196C458.297 298.859 458.626 298.411 458.817 297.9C459.265 296.721 460.302 296.604 461.183 296.986C462.065 297.369 461.397 298.283 461.183 298.743C460.132 301.518 458.382 303.973 456.102 305.872C456.029 303.846 456.122 301.817 456.38 299.806Z" fill="#E8AF1B"/>
<path fill-rule="evenodd" clip-rule="evenodd" d="M519.496 279.713L516.528 279.973C515.517 280.05 514.505 280.096 513.501 280.199C511.297 280.433 510.208 280.549 509.703 280.057C508.886 280.562 508.056 281.049 507.272 281.606C507.055 281.906 506.793 282.171 506.494 282.39C504.589 283.797 502.696 285.229 500.739 286.571C499.577 287.509 498.336 288.346 497.032 289.073C497.032 289.073 497.032 289.105 497.032 289.111C496.744 289.332 496.443 289.536 496.131 289.721C496.131 292.871 496.131 295.917 496.131 297.868C496.131 299.041 496.37 299.767 497.744 299.359C498.775 298.484 499.819 297.615 500.836 296.727C506.855 291.451 512.87 286.173 518.88 280.893C518.945 280.426 519.691 280.362 519.496 279.713Z" fill="#2C1C31"/>
<path fill-rule="evenodd" clip-rule="evenodd" d="M467.794 244.96C466.329 247.125 464.514 247.17 462.816 245.096C463.544 245.627 464.427 245.901 465.328 245.876C466.229 245.852 467.096 245.529 467.794 244.96Z" fill="#2C1C31"/>
<path fill-rule="evenodd" clip-rule="evenodd" d="M454.073 250.825C454.643 249.529 452.68 250.735 453.004 249.562H455.596C455.557 250.359 454.948 250.715 454.501 251.162L454.073 250.825Z" fill="#2C1C31"/>
<path fill-rule="evenodd" clip-rule="evenodd" d="M454.488 251.195C454.391 251.525 454.086 251.901 453.84 251.739C453.341 251.402 453.84 251.091 454.067 250.858L454.488 251.195Z" fill="#2C1C31"/>
<path fill-rule="evenodd" clip-rule="evenodd" d="M414.964 320.287L414.789 320.54L414.627 320.773C414.582 320.832 414.547 320.897 414.523 320.967C414.497 321.041 414.455 321.107 414.4 321.162L414.245 321.343C414.165 321.445 414.092 321.551 414.024 321.661C414.009 321.683 413.996 321.707 413.985 321.732C413.984 321.754 413.984 321.775 413.985 321.797L413.875 321.972C413.648 322.341 413.402 322.698 413.169 323.067L412.948 323.411L412.546 324.02C412.518 324.064 412.485 324.105 412.449 324.143C412.418 324.163 412.39 324.187 412.365 324.215C412.299 324.305 412.228 324.392 412.151 324.474C412.06 324.565 411.963 324.642 411.872 324.727C411.809 324.79 411.748 324.857 411.691 324.927C411.65 324.995 411.597 325.054 411.535 325.102C411.393 325.2 411.451 324.979 411.393 324.921C411.334 324.863 411.315 324.882 411.302 324.837C411.296 324.812 411.297 324.786 411.305 324.762C411.313 324.738 411.328 324.717 411.347 324.701C411.512 324.497 411.66 324.281 411.788 324.052C412.06 323.583 412.356 323.129 412.676 322.691C412.903 322.38 413.143 322.082 413.383 321.771L413.687 321.376L413.888 321.123L413.985 320.993C413.985 320.961 414.018 320.928 414.044 320.896C414.186 320.74 414.316 320.572 414.446 320.41L414.666 320.125C414.86 319.878 415.068 319.639 415.269 319.386C415.47 319.133 415.651 318.861 415.852 318.602C415.917 318.524 415.988 318.446 416.059 318.375L416.228 318.206L416.429 318.005C416.429 318.005 416.552 317.895 416.597 317.947C416.643 317.999 416.597 318.109 416.597 318.161C416.544 318.302 416.465 318.431 416.364 318.543C416.256 318.677 416.142 318.804 416.02 318.926C415.878 319.081 415.742 319.237 415.612 319.399C415.359 319.703 415.171 319.989 414.964 320.287Z" fill="#2C1C31"/>
<path fill-rule="evenodd" clip-rule="evenodd" d="M413.765 326.879C413.739 326.925 413.711 326.971 413.681 327.015C413.681 327.06 413.648 327.112 413.622 327.157C413.586 327.197 413.561 327.247 413.551 327.3C413.622 327.3 413.7 327.3 413.758 327.332C413.817 327.365 413.758 327.455 413.817 327.52C413.875 327.585 413.856 327.468 413.869 327.449L414.011 327.235C414.068 327.155 414.131 327.079 414.199 327.008C414.268 326.947 414.323 326.872 414.361 326.788L414.711 326.198L414.919 325.874C415.087 325.615 415.269 325.355 415.45 325.096C415.45 325.057 415.515 325.012 415.541 324.967C415.567 324.921 415.541 324.902 415.586 324.876C415.69 324.707 415.839 324.558 415.962 324.396C416.085 324.234 416.215 324.079 416.338 323.917C416.461 323.755 416.649 323.476 416.811 323.268C417.317 322.581 417.881 321.94 418.328 321.207C418.413 321.078 418.483 320.939 418.535 320.792C418.535 320.754 418.587 320.663 418.535 320.63C418.483 320.598 418.399 320.663 418.367 320.689C418.275 320.76 418.19 320.841 418.114 320.929C417.895 321.179 417.691 321.443 417.505 321.719C417.291 322.011 417.07 322.303 416.857 322.588C416.643 322.873 416.377 323.178 416.144 323.476L415.891 323.806C415.755 324.001 415.625 324.208 415.476 324.396C415.476 324.429 415.418 324.442 415.398 324.467C415.36 324.514 415.325 324.564 415.295 324.617L415.094 324.921L414.536 325.764L414.329 326.101C414.301 326.135 414.277 326.172 414.258 326.211C414.258 326.263 414.193 326.289 414.167 326.334C414.138 326.391 414.103 326.446 414.063 326.496C414.018 326.554 413.979 326.6 413.94 326.658C413.918 326.703 413.89 326.745 413.856 326.781C413.821 326.809 413.791 326.842 413.765 326.879Z" fill="#2C1C31"/>
<path fill-rule="evenodd" clip-rule="evenodd" d="M645.8 231.155L655.522 223.137L634.852 213.143L709 190.322C702.81 214.64 696.685 238.693 690.457 263.127C687.067 257.703 683.858 252.679 680.793 247.572C679.95 246.166 679.561 246.127 678.408 247.287C659.858 265.979 641.278 284.641 622.667 303.273C618.066 307.895 613.438 312.503 608.894 317.189C607.896 318.22 607.352 318.388 606.185 317.312C600.527 312.127 594.726 307.065 589.048 301.88C587.934 300.862 587.279 300.804 586.086 301.822C570.531 315.167 554.976 328.434 539.42 341.779C538.208 342.816 537.534 342.888 536.283 341.825C530.45 336.905 524.532 332.103 518.686 327.248C517.805 326.516 517.351 326.373 516.418 327.248C494.919 347.788 490.453 351.469 490.453 351.469C445.401 368.366 415.995 372.968 415.995 372.968C415.995 372.968 426.093 363.032 440.838 349.816C441.091 349.59 441.369 349.389 441.635 349.168L444.591 356.842C445.524 352.234 446.334 348.209 447.144 344.184C447.242 344.041 447.345 343.899 447.449 343.763L447.404 343.802C449.4 342.505 451.02 340.775 452.783 339.206C467.76 325.932 482.727 312.645 497.686 299.346C498.717 298.471 499.76 297.602 500.778 296.714C506.797 291.438 512.812 286.16 518.822 280.88C524.556 286.065 530.286 291.237 536.011 296.397C536.866 297.174 537.398 297.479 538.461 296.481C544.644 290.648 550.931 284.944 557.186 279.188L566.376 282.014L562.669 274.055C571.311 266.169 579.929 258.269 588.523 250.353C589.47 249.471 589.923 249.374 590.909 250.353C595.549 254.89 600.3 259.342 604.999 263.827C605.647 264.443 606.082 265.072 607.112 264.165C611.293 260.477 615.538 256.892 619.796 253.269C624.729 249.141 629.687 245.051 634.574 240.864C638.32 237.617 642.254 234.616 645.8 231.155Z" fill="#FF6B00"/>
<path fill-rule="evenodd" clip-rule="evenodd" d="M445.718 317.558C446.866 316.132 448.013 314.758 448.959 313.552C451.104 310.785 453.814 308.529 456.128 305.833C458.407 303.934 460.158 301.478 461.209 298.704C461.41 298.23 462.09 297.31 461.209 296.947C460.328 296.584 459.265 296.681 458.843 297.861C458.651 298.372 458.323 298.82 457.893 299.156C457.463 299.492 456.948 299.704 456.406 299.767L456.523 280.828C457.482 279.979 458.396 279.084 459.401 278.294C471.275 268.947 483.157 259.614 495.048 250.294C499.132 247.105 503.28 244.927 508.659 248.771C510.26 251.273 511.343 253.956 511.109 256.97C510.604 263.451 510.319 274.074 509.729 280.549C509.729 280.75 508.491 281.197 508.29 281.32C507.436 281.78 506.685 282.411 506.086 283.174C505.147 284.434 504.036 285.558 502.787 286.512C501.596 287.305 500.448 288.16 499.346 289.072C498.898 289.455 496.889 291.328 496.28 290.414C495.671 289.5 496.76 284.969 497.097 284.049C497.745 282.267 498.808 282.474 499.469 280.692C500.765 277.235 502.044 273.778 503.306 270.321C503.656 269.395 504.109 268.494 503.455 267.515C502.716 267.748 501.951 268.338 502.042 268.701C502.567 270.736 500.875 271.248 499.773 271.786C498.393 272.434 499.501 273.614 498.853 274.379C497.993 275.382 497.077 276.336 496.111 277.237V268.565C496.943 265.367 497.117 262.033 496.623 258.765C494.679 260.625 494.679 263.01 493.785 264.955C493.48 265.635 492.722 267.113 493.648 268.196C487.491 272.849 481.334 277.509 475.176 282.176C474.451 282.727 473.582 283.103 473.336 284.218C472.564 287.646 472.726 291.166 472.526 294.62C472.383 297.142 472.266 299.741 471.962 302.21C471.369 307.947 469.585 313.497 466.725 318.504C464.448 322.194 461.808 325.646 458.843 328.81C456.419 331.487 453.593 335.291 450.657 337.346C447.494 339.549 446.49 335.499 445.472 333.321C444.247 330.787 439.639 327.325 441.156 324.247C442.435 321.862 443.965 319.62 445.718 317.558Z" fill="#F6C435"/>
<path fill-rule="evenodd" clip-rule="evenodd" d="M601.59 200.744C599.716 201.664 597.649 201.314 595.685 201.56C592.469 201.914 589.351 202.889 586.507 204.432C581.063 207.439 575.489 210.265 569.999 213.13C559.046 219.062 548.096 224.986 537.151 230.902C536.309 231.362 535.751 231.511 535.259 230.571C534.993 227.369 533.749 224.42 532.835 221.387C532.478 220.207 532.543 218.794 531.357 217.952C532.245 216.74 533.645 216.267 534.863 215.554C548.662 207.491 562.669 199.843 577.641 194.165L579.17 193.595L594.123 190.354L601.59 200.744Z" fill="#FF6B00"/>
<path fill-rule="evenodd" clip-rule="evenodd" d="M631.346 231.102C630.793 231.162 630.234 231.075 629.725 230.85C625.428 234.375 621.572 238.336 616.996 241.583C617.714 245.52 618.649 249.415 619.796 253.249C624.728 249.121 629.686 245.031 634.573 240.844C638.32 237.636 642.254 234.635 645.786 231.174C640.971 231.102 636.161 230.999 631.346 231.102Z" fill="#2C1C31"/>
<path fill-rule="evenodd" clip-rule="evenodd" d="M532.835 221.38C532.479 220.201 532.543 218.788 531.357 217.945C529.912 218.438 528.914 219.585 527.702 220.421C524.999 222.294 509.586 231.692 506.961 233.611C506.961 233.611 507.467 234.544 507.512 234.628C507.7 234.978 507.888 235.316 508.07 235.659C508.251 236.003 508.432 236.353 508.601 236.703C508.729 236.936 508.823 237.187 508.88 237.448C508.956 237.688 509.082 237.908 509.249 238.096C509.353 238.233 509.438 238.383 509.502 238.543C509.502 238.628 509.586 238.699 509.619 238.777C509.649 238.854 509.684 238.93 509.722 239.003C509.814 239.127 509.896 239.257 509.969 239.392C510.027 239.523 510.092 239.651 510.163 239.775C510.202 239.84 510.228 239.904 510.26 239.969C510.293 240.034 510.344 240.105 510.377 240.183C510.409 240.261 510.532 240.462 510.61 240.604C510.692 240.808 510.803 240.998 510.941 241.168C511.061 241.274 511.164 241.399 511.245 241.538C511.485 241.978 511.706 242.426 511.945 242.866C512.082 243.113 512.224 243.352 512.373 243.592C512.522 243.832 512.607 243.955 512.736 244.13C512.866 244.305 512.859 244.305 512.931 244.389C512.987 244.478 513.052 244.56 513.125 244.636C516.424 243.683 519.243 241.752 522.082 239.982C526.444 237.26 530.567 234.149 534.779 231.193C534.965 231.003 535.118 230.784 535.233 230.545C534.967 227.369 533.749 224.42 532.835 221.38Z" fill="#ED959E"/>
<path fill-rule="evenodd" clip-rule="evenodd" d="M586.819 191.352L586.3 191.436C584.803 191.864 583.267 192.182 581.821 192.733C580.376 193.284 580.233 192.778 580.201 191.527C580.084 187.081 579.877 182.635 579.696 178.026L574.141 180.003C573.791 178.623 574.523 177.553 574.912 176.464C575.666 174.213 576.68 172.058 577.933 170.041C584.505 159.801 589.502 177.858 594.266 175.414C594.886 175.045 595.617 174.908 596.329 175.026C597.041 175.145 597.688 175.512 598.155 176.062C598.583 176.468 598.852 177.014 598.91 177.601C598.968 178.188 598.813 178.776 598.472 179.258C597.643 180.554 596.307 180.826 594.894 180.645C594.247 180.494 593.618 180.276 593.015 179.997C593.274 182.874 593.332 185.642 593.832 188.338C594.169 190.153 593.449 190.516 592.004 190.542C590.244 190.538 588.494 190.811 586.819 191.352ZM595.594 179.037C595.381 178.078 594.538 178.694 594.298 178.111C594.661 177.741 595.368 177.845 595.51 177.061C594.391 177.176 593.363 177.73 592.652 178.603L595.594 179.037ZM580.759 172.647C580.622 172.297 580.558 171.752 579.968 171.72C579.378 171.687 579.32 172.135 579.352 172.549C579.391 173.081 579.488 173.703 580.188 173.671C580.655 173.651 580.72 173.152 580.759 172.647Z" fill="#ED959E"/>
<path fill-rule="evenodd" clip-rule="evenodd" d="M467.003 254.475L455.246 262.81C455.104 260.114 454.974 257.411 454.805 254.708C454.805 254.3 454.987 253.632 454.209 253.684C452.304 253.814 451.02 253.036 450.767 251.092C450.495 248.992 452.161 248.415 453.645 247.754C454.462 247.754 455.019 247.229 455.59 246.788C458.973 244.247 456.238 241.719 457.456 237.247C457.456 237.247 458.753 235.303 461.721 235.86C463.238 236.152 465.5 237.487 467.081 237.863C467.386 237.934 469.427 238.181 469.732 238.245C469.888 238.245 471.566 238.55 471.677 238.576C471.787 238.602 471.962 238.783 471.968 238.861C471.975 238.939 471.832 239.192 471.728 239.289C471.319 239.497 470.9 239.683 470.471 239.846C470.198 240.041 469.943 240.257 469.706 240.494C469.555 240.701 469.419 240.917 469.298 241.143C469.215 241.609 469.169 242.082 469.162 242.556C469.162 242.828 469.214 243.093 469.246 243.366C469.278 243.638 469.382 244.28 469.389 244.312C469.687 246.341 468.74 248.402 468.092 250.392C467.534 251.693 467.167 253.068 467.003 254.475ZM454.488 251.195C454.948 250.748 455.544 250.392 455.583 249.594H452.991C452.667 250.767 454.63 249.536 454.06 250.858C453.833 251.124 453.334 251.403 453.833 251.74C454.086 251.843 454.391 251.493 454.488 251.195ZM467.794 244.993C467.096 245.562 466.229 245.884 465.328 245.909C464.428 245.933 463.545 245.659 462.816 245.129C464.515 247.17 466.329 247.125 467.794 244.96V244.993Z" fill="#ED959E"/>
<path fill-rule="evenodd" clip-rule="evenodd" d="M419.235 307.875C422.586 310.338 426.365 312.133 429.605 314.823C427.472 320.165 424.435 325.1 420.629 329.413C419.98 330.106 419.157 330.709 418.127 330.424C417.955 330.381 417.797 330.297 417.667 330.178C417.472 329.985 417.351 329.731 417.323 329.458C417.298 329.317 417.283 329.174 417.278 329.03C417.284 328.957 417.284 328.883 417.278 328.81C417.265 328.74 417.234 328.675 417.187 328.622H417.129C417.104 328.6 417.075 328.582 417.044 328.57C416.967 328.57 416.831 328.531 416.818 328.648C416.805 328.765 416.818 328.706 416.818 328.739C416.791 328.784 416.761 328.828 416.727 328.868L416.545 329.121C416.422 329.283 416.293 329.445 416.15 329.601C416.026 329.743 415.876 329.862 415.709 329.951C415.459 330.063 415.186 330.116 414.912 330.106C414.751 330.144 414.583 330.14 414.424 330.095C414.266 330.05 414.121 329.964 414.005 329.847C413.953 329.776 413.907 329.698 413.862 329.627C413.784 329.511 413.715 329.389 413.655 329.264C413.591 329.125 413.543 328.979 413.512 328.829C413.499 328.637 413.519 328.444 413.57 328.259C413.616 328.013 413.739 327.786 413.791 327.54C413.843 327.293 413.745 327.216 413.603 327.384L413.331 327.715C413.233 327.831 413.136 327.941 413.045 328.065C412.986 328.168 412.909 328.26 412.818 328.337C412.721 328.402 412.637 328.505 412.52 328.531C412.425 328.542 412.331 328.566 412.242 328.603C412.159 328.636 412.071 328.653 411.982 328.654C411.876 328.648 411.772 328.62 411.677 328.574C411.581 328.527 411.495 328.462 411.425 328.382C410.842 327.799 411.062 327.125 411.231 326.477C411.269 326.321 411.328 326.166 411.38 326.016C411.499 325.799 411.553 325.551 411.535 325.304C411.496 325.161 411.477 324.843 411.263 324.876C411.049 324.908 411.004 325.077 410.894 325.148C410.741 325.239 410.581 325.315 410.414 325.375C410.239 325.427 410.052 325.427 409.876 325.377C409.701 325.326 409.543 325.227 409.422 325.09C408.722 324.37 409.027 323.566 409.377 322.821C410.991 319.598 412.871 316.515 414.996 313.605L418.885 307.894H419.067L419.235 307.875Z" fill="#ED959E"/>
<path fill-rule="evenodd" clip-rule="evenodd" d="M441.939 325.783C442.017 325.932 442.108 326.081 442.192 326.23C442.373 326.548 442.548 326.879 442.723 327.196C442.84 327.416 442.996 327.604 443.125 327.844C443.255 328.084 443.365 328.259 443.495 328.453C443.56 328.551 443.65 328.622 443.709 328.726C443.755 328.823 443.807 328.919 443.864 329.011C444.039 329.296 444.227 329.581 444.409 329.866C444.461 329.951 444.525 330.022 444.577 330.1C444.629 330.178 444.661 330.301 444.72 330.378C444.778 330.456 444.83 330.463 444.869 330.528C444.908 330.592 444.927 330.67 444.973 330.735L445.219 331.085C445.398 331.332 445.559 331.592 445.698 331.863C445.828 332.128 445.984 332.375 446.133 332.628C446.27 332.837 446.395 333.053 446.509 333.276C446.748 333.781 447.027 334.274 447.286 334.766C447.423 335.019 447.552 335.272 447.675 335.531C447.798 335.79 447.779 335.927 447.883 336.115C448.044 336.343 448.222 336.56 448.414 336.763C448.601 337.006 448.819 337.224 449.062 337.411C449.272 337.524 449.471 337.654 449.659 337.8C449.723 337.856 449.769 337.931 449.79 338.015C449.811 338.098 449.806 338.186 449.775 338.266C449.568 338.668 449.335 339.056 449.075 339.427C448.894 339.712 448.712 340.003 448.544 340.295C448.181 340.943 447.824 341.591 447.507 342.239C447.394 342.445 447.304 342.662 447.241 342.888C446.93 344.398 447.28 346.271 447.209 347.813C447.073 350.581 446.995 354.327 444.875 356.375C443.229 355.079 442.464 351.19 441.693 349.162C439.587 343.328 437.519 337.54 435.361 331.759C434.939 330.618 434.907 329.847 435.95 328.998C436.851 328.272 437.584 327.358 438.413 326.554C438.647 326.328 438.861 326.088 439.062 325.848C439.463 325.427 439.891 325.038 440.358 324.655C440.585 324.461 440.967 324.007 441.278 324.357C441.395 324.48 441.421 324.662 441.524 324.798C441.645 324.973 441.737 325.165 441.797 325.368C441.834 325.51 441.882 325.649 441.939 325.783Z" fill="#2C1C31"/>
<path fill-rule="evenodd" clip-rule="evenodd" d="M513.151 244.649C512.023 243.144 511.062 241.52 510.286 239.807C509.592 238.511 509.573 238.187 508.99 237.091C508.296 235.86 507.693 234.868 507.045 233.617C504.435 234.537 501.885 235.62 499.41 236.858C499.41 236.968 498.684 237.163 498.626 237.24C491.948 240.171 485.468 243.533 479.227 247.306C474.988 249.419 471.112 252.128 467.022 254.487L455.246 262.809C452.99 264.534 450.897 266.601 448.265 268.993C443.728 273.128 441.667 275.792 437.493 280.18C433.092 284.794 425.373 294.912 425.353 294.97C422.761 298.023 420.654 301.419 418.315 304.647C417.265 306.105 417.142 307.071 418.891 307.888C418.891 307.888 426.416 312.152 429.618 314.842C430.448 314.609 430.655 313.799 431.064 313.215C434.901 307.7 438.524 302.041 442.652 296.733C446.975 291.172 451.078 285.423 456.523 280.854C457.482 280.005 458.396 279.11 459.4 278.319C471.274 268.973 483.157 259.64 495.048 250.32C499.131 247.131 503.279 244.953 508.659 248.797C509.881 248.069 511.14 247.404 512.431 246.807C513.643 246.295 513.63 245.601 513.151 244.649Z" fill="#E9EBEB"/>
<path fill-rule="evenodd" clip-rule="evenodd" d="M459.349 235.879C458.517 236.081 457.734 236.446 457.045 236.952C456.355 237.458 455.772 238.096 455.33 238.828C454.182 240.77 453.534 242.966 453.444 245.219C453.437 246.122 453.577 247.019 453.859 247.876C456.659 247.74 457.91 245.738 459.044 243.573C460.256 241.058 460.075 238.478 459.349 235.879Z" fill="#2C1C31"/>
<path fill-rule="evenodd" clip-rule="evenodd" d="M540.853 272.013C546.18 275.04 551.754 276.939 557.186 279.143L566.376 281.969L562.669 274.01C561.211 271.417 560.725 270.581 561.45 269.382C556.913 267.314 551.988 266.031 547.47 263.938L540.853 272.013Z" fill="#2C1C31"/>
<path fill-rule="evenodd" clip-rule="evenodd" d="M496.117 288.372C496.126 288.676 496.168 288.978 496.241 289.273C497.096 288.275 497.407 286.292 497.854 285.08C498.477 283.39 499.101 281.703 499.728 280.018C500.92 276.781 502.115 273.541 503.312 270.296C503.662 269.369 504.116 268.468 503.461 267.489C502.722 267.723 501.957 268.312 502.048 268.675C502.573 270.711 500.881 271.223 499.779 271.761C498.399 272.409 499.507 273.588 498.859 274.353C498.01 275.384 496.117 277.211 496.117 277.211C496.117 277.211 496.13 285.981 496.117 288.372Z" fill="#E8AF1B"/>
<path fill-rule="evenodd" clip-rule="evenodd" d="M496.079 268.591C496.034 268.073 495.982 267.554 495.93 266.958C494.925 267.003 494.459 267.982 493.616 268.254C492.689 267.146 493.448 265.662 493.752 265.013C494.621 263.069 494.634 260.684 496.591 258.824C497.08 262.081 496.906 265.403 496.079 268.591Z" fill="#E8AF1B"/>
<path fill-rule="evenodd" clip-rule="evenodd" d="M522.653 228.348L522.575 228.406L522.478 228.471L522.335 228.562L522.18 228.659L521.992 228.776L521.784 228.905L521.564 229.042L521.331 229.191L521.084 229.34L520.831 229.495L520.572 229.657L520.319 229.813L520.073 229.968L519.833 230.111L519.606 230.254L519.393 230.383L519.198 230.506L519.03 230.61L518.887 230.701L518.777 230.772L518.699 230.824L518.194 231.154L517.675 231.485L517.163 231.816L516.644 232.153L516.392 232.315L516.282 232.392C516.254 232.41 516.223 232.421 516.191 232.425H516.126L515.899 232.567C515.801 232.62 515.706 232.679 515.614 232.742L515.465 232.872C515.387 232.937 515.27 232.995 515.219 233.092C515.167 233.19 515.329 233.196 515.387 233.19C515.531 233.179 515.673 233.148 515.808 233.099C515.956 233.05 516.1 232.987 516.236 232.911L516.45 232.775C516.56 232.723 516.664 232.665 516.768 232.606L516.943 232.509L517.144 232.392L517.377 232.25L517.61 232.107L517.869 231.945L518.122 231.777L518.388 231.602L518.66 231.427L518.919 231.252L519.185 231.077L519.432 230.908L519.671 230.74L519.898 230.591L520.106 230.448L520.294 230.318L520.449 230.215L520.579 230.124L520.682 230.059L520.741 230.02C520.87 229.955 521.849 229.372 522.037 229.262C522.225 229.152 522.504 228.951 522.731 228.802L523.184 228.504C523.45 228.329 523.716 228.154 523.988 227.985L524.377 227.732L524.779 227.473L524.882 227.408C524.91 227.398 524.936 227.385 524.96 227.369L525.155 227.207C525.155 227.207 525.232 227.149 525.232 227.117C525.235 227.102 525.235 227.086 525.232 227.071C525.226 227.046 525.226 227.019 525.232 226.993C525.232 226.955 525.232 226.909 525.187 226.916H525.148C525.148 226.916 525.103 226.916 525.077 226.916H525.025C524.967 226.925 524.911 226.94 524.856 226.961L524.668 227.052C524.589 227.093 524.513 227.141 524.442 227.194L524.079 227.415L523.91 227.518L523.748 227.622C523.651 227.7 523.541 227.765 523.437 227.836L523.223 227.985L523.029 228.108L522.893 228.193L522.724 228.303L522.653 228.348Z" fill="#2C1C31"/>
<path fill-rule="evenodd" clip-rule="evenodd" d="M595.594 179.037L592.652 178.603C593.006 178.169 593.443 177.809 593.937 177.544C594.43 177.279 594.972 177.115 595.53 177.061C595.387 177.845 594.681 177.709 594.318 178.111C594.538 178.694 595.381 178.078 595.594 179.037Z" fill="#2C1C31"/>
<path fill-rule="evenodd" clip-rule="evenodd" d="M580.843 172.647C580.846 172.797 580.822 172.946 580.772 173.087C580.71 173.283 580.596 173.458 580.441 173.593C580.357 173.637 580.264 173.664 580.169 173.671C580.074 173.678 579.978 173.665 579.888 173.634C579.798 173.602 579.715 173.552 579.646 173.487C579.576 173.422 579.52 173.343 579.482 173.256C579.444 173.147 579.418 173.034 579.404 172.919C579.404 172.796 579.365 172.673 579.352 172.549C579.352 172.277 579.398 171.817 579.735 171.759C579.853 171.746 579.973 171.746 580.091 171.759C580.186 171.749 580.282 171.749 580.376 171.759C580.477 171.797 580.566 171.86 580.636 171.941C580.706 172.023 580.755 172.12 580.778 172.225C580.82 172.362 580.842 172.504 580.843 172.647Z" fill="#2C1C31"/>
<path fill-rule="evenodd" clip-rule="evenodd" d="M521.078 236.729C521.078 236.729 521.078 236.729 521.078 236.761C521.088 236.786 521.101 236.81 521.117 236.832C521.123 236.844 521.133 236.853 521.144 236.859C521.156 236.864 521.169 236.867 521.182 236.865H521.279C521.313 236.875 521.349 236.875 521.382 236.865H521.46C521.538 236.823 521.611 236.776 521.681 236.722L521.81 236.638L522.374 236.301C522.75 236.074 523.12 235.841 523.476 235.595L523.878 235.303L524.273 234.998L524.39 234.914C524.39 234.914 524.448 234.914 524.481 234.862C524.512 234.84 524.544 234.821 524.578 234.804C524.669 234.745 524.766 234.694 524.85 234.629L525.09 234.486C525.148 234.446 525.2 234.398 525.245 234.344C525.33 234.279 525.407 234.208 525.492 234.149L525.706 233.987C525.76 233.944 525.819 233.907 525.881 233.877C525.933 233.86 525.983 233.836 526.03 233.806C526.107 233.747 526.172 233.689 526.25 233.637L526.496 233.443L526.762 233.229C526.792 233.201 526.824 233.178 526.859 233.158C526.885 233.152 526.91 233.141 526.931 233.125C527.006 233.07 527.075 233.007 527.138 232.937C527.281 232.801 527.423 232.671 527.572 232.548L527.948 232.244L528.182 232.017C528.231 231.97 528.269 231.913 528.292 231.848C528.292 231.848 528.292 231.796 528.292 231.77C528.281 231.741 528.268 231.713 528.253 231.686C528.214 231.628 528.123 231.647 528.065 231.686C527.979 231.709 527.901 231.753 527.838 231.816L527.618 231.978C527.481 232.075 527.345 232.159 527.216 232.244C527.156 232.293 527.09 232.337 527.021 232.373C526.96 232.407 526.903 232.448 526.853 232.496L526.205 232.995L526.088 233.093C526.028 233.145 525.96 233.189 525.887 233.222C525.853 233.238 525.822 233.26 525.796 233.287L525.686 233.371L525.44 233.579L525.2 233.741L524.993 233.909C524.818 234.039 524.636 234.162 524.455 234.279C524.377 234.331 524.306 234.389 524.234 234.447L524.144 234.519C524.144 234.519 524.098 234.519 524.072 234.519C524.003 234.556 523.936 234.597 523.871 234.642L523.657 234.784L523.236 235.05C522.763 235.348 522.283 235.646 521.823 235.97L521.609 236.12C521.551 236.158 521.48 236.191 521.421 236.236C521.387 236.26 521.355 236.286 521.324 236.314C521.233 236.394 521.162 236.494 521.117 236.606C521.094 236.643 521.081 236.685 521.078 236.729Z" fill="#2C1C31"/>
<path fill-rule="evenodd" clip-rule="evenodd" d="M527.145 229.081V229.048C527.115 229.003 527.073 228.967 527.024 228.945C526.974 228.923 526.919 228.916 526.866 228.925C526.541 228.993 526.244 229.156 526.01 229.392C525.706 229.632 525.362 229.845 525.058 230.04C524.753 230.234 524.345 230.532 523.988 230.792L523.411 231.213C523.08 231.47 522.736 231.71 522.381 231.932L522.134 232.075L521.707 232.354C521.635 232.395 521.566 232.441 521.499 232.49C521.441 232.535 521.37 232.561 521.305 232.606C521.24 232.652 521.24 232.658 521.201 232.678L520.948 232.84C520.851 232.918 520.741 232.982 520.637 233.054L520.482 233.157L520.313 233.268L520.216 233.319L520.08 233.397L519.918 233.494L519.659 233.656C519.615 233.685 519.569 233.711 519.522 233.734L519.328 233.864C519.259 233.903 519.192 233.947 519.127 233.994C519.064 234.026 519.004 234.063 518.946 234.104L518.881 234.149H518.829L518.693 234.227C518.526 234.309 518.364 234.4 518.207 234.499C518.161 234.536 518.122 234.58 518.09 234.629C518.065 234.672 518.043 234.718 518.025 234.765C518.022 234.788 518.022 234.812 518.025 234.836C518.02 234.862 518.021 234.89 518.031 234.915C518.04 234.94 518.056 234.962 518.077 234.979C518.111 235.009 518.151 235.031 518.195 235.042C518.239 235.054 518.286 235.054 518.33 235.043C518.368 235.027 518.405 235.007 518.44 234.985L518.589 234.914C518.635 234.89 518.678 234.861 518.719 234.83L519.153 234.551C519.283 234.488 519.405 234.41 519.516 234.318C519.584 234.262 519.656 234.21 519.73 234.162L520.099 233.942L520.307 233.812L520.488 233.689L520.76 233.52L520.877 233.456C520.949 233.404 521.025 233.359 521.104 233.319C521.201 233.268 521.292 233.209 521.383 233.151L521.882 232.807C521.911 232.792 521.941 232.779 521.972 232.769L522.102 232.678L522.355 232.509L522.646 232.321C523.152 231.997 523.645 231.673 524.144 231.323C524.526 231.07 524.921 230.844 525.31 230.597C525.589 230.422 525.855 230.241 526.14 230.072C526.492 229.895 526.807 229.65 527.067 229.353C527.127 229.276 527.155 229.178 527.145 229.081Z" fill="#2C1C31"/>
<path fill-rule="evenodd" clip-rule="evenodd" d="M640.951 307.862C639.787 307.929 638.68 308.385 637.808 309.159L632.577 314.344C631.799 315.208 631.341 316.313 631.281 317.474V388.867C631.282 389.353 631.476 389.819 631.82 390.162C632.164 390.506 632.629 390.7 633.115 390.701H661.581C662.068 390.701 662.534 390.508 662.878 390.164C663.222 389.82 663.416 389.353 663.416 388.867V309.703C663.416 309.216 663.223 308.749 662.879 308.404C662.535 308.059 662.068 307.864 661.581 307.862H640.951Z" fill="#515FF9"/>
<path d="M590.001 334.475H618.461C618.947 334.475 619.414 334.668 619.758 335.012C620.102 335.356 620.295 335.822 620.295 336.309V388.86C620.295 389.348 620.101 389.817 619.756 390.162C619.411 390.507 618.943 390.701 618.454 390.701H590.007C589.519 390.701 589.051 390.507 588.706 390.162C588.361 389.817 588.167 389.348 588.167 388.86V336.315C588.166 336.074 588.213 335.835 588.305 335.611C588.396 335.388 588.531 335.185 588.702 335.014C588.872 334.843 589.075 334.707 589.298 334.615C589.521 334.522 589.76 334.475 590.001 334.475Z" fill="#515FF9"/>
<path fill-rule="evenodd" clip-rule="evenodd" d="M547.554 356.589C547.065 356.594 546.598 356.792 546.254 357.139C545.909 357.486 545.715 357.954 545.714 358.443V388.867C545.715 389.354 545.91 389.82 546.255 390.164C546.6 390.508 547.067 390.701 547.554 390.701H574.718C574.959 390.701 575.197 390.654 575.42 390.561C575.642 390.469 575.845 390.334 576.015 390.164C576.185 389.993 576.32 389.791 576.413 389.569C576.505 389.346 576.552 389.108 576.552 388.867V358.177C576.552 357.937 576.505 357.699 576.412 357.477C576.32 357.255 576.185 357.054 576.014 356.885C575.844 356.716 575.641 356.582 575.419 356.491C575.196 356.4 574.958 356.354 574.718 356.356L547.554 356.589Z" fill="#515FF9"/>
<path fill-rule="evenodd" clip-rule="evenodd" d="M535.317 365.754C534.974 366.202 520.682 371.212 519.684 371.588C519.036 371.827 517.863 372.657 517.253 372.009C516.966 371.698 516.746 371.332 516.605 370.933C516.463 370.285 516.327 368.814 516.262 368.12C516.029 365.528 515.121 356.026 515.03 354.904C514.92 354.359 514.92 353.797 515.03 353.252C515.161 353.001 515.355 352.788 515.592 352.633C515.829 352.479 516.102 352.388 516.385 352.37C517.122 352.336 517.861 352.36 518.595 352.442C519.243 352.474 519.924 352.442 520.585 352.565C521.257 352.669 521.922 352.816 522.575 353.005C523.837 353.343 525.057 353.824 526.211 354.438C527.384 355.065 528.488 355.815 529.503 356.674C530.575 357.588 531.564 358.594 532.459 359.681L532.789 360.077C533.217 360.621 533.658 361.159 534.047 361.723C534.695 362.65 535.44 363.875 535.492 365.028C535.52 365.283 535.458 365.54 535.317 365.754Z" fill="#FF6B00"/>
<path fill-rule="evenodd" clip-rule="evenodd" d="M518.057 375.087C517.096 375.364 516.111 375.548 515.115 375.638C514.966 375.64 514.818 375.605 514.685 375.538C514.552 375.47 514.437 375.371 514.35 375.249C514.161 375.088 514.019 374.877 513.942 374.64C513.884 374.345 513.843 374.046 513.819 373.746C513.741 373.13 513.397 370.784 513.371 370.505C513.3 369.675 513.222 368.852 513.145 368.029C513.008 366.668 512.879 365.3 512.769 363.939C512.658 362.578 512.535 361.23 512.393 359.882C512.321 359.234 512.231 358.514 512.211 357.84C512.211 357.588 512.263 357.16 512.062 356.965C511.861 356.771 511.751 356.888 511.583 356.862C509.928 356.668 508.254 356.987 506.786 357.776C505.252 358.458 503.808 359.329 502.489 360.368C499.867 362.538 497.927 365.418 496.902 368.664C496.381 370.343 496.121 372.092 496.131 373.849C496.143 378.454 497.98 382.865 501.24 386.116C504.5 389.368 508.916 391.194 513.52 391.194C523.126 391.194 530.372 383.189 530.962 375.573C531.032 374.539 531.015 373.5 530.91 372.469C530.829 372.17 530.651 371.907 530.403 371.721C530.155 371.536 529.852 371.438 529.543 371.445C528.055 371.57 526.601 371.954 525.245 372.579C524.02 373.046 518.388 374.945 518.057 375.087Z" fill="#515FF9"/>
<path fill-rule="evenodd" clip-rule="evenodd" d="M463.873 240.345C463.875 240.495 463.851 240.644 463.801 240.786C463.74 240.981 463.625 241.156 463.471 241.291C463.386 241.336 463.294 241.362 463.198 241.369C463.103 241.376 463.008 241.364 462.918 241.332C462.828 241.3 462.745 241.25 462.675 241.185C462.605 241.12 462.55 241.042 462.511 240.954C462.473 240.845 462.447 240.732 462.434 240.617C462.434 240.494 462.395 240.371 462.382 240.248C462.382 239.975 462.427 239.515 462.764 239.457C462.883 239.444 463.002 239.444 463.121 239.457C463.216 239.447 463.311 239.447 463.406 239.457C463.506 239.495 463.596 239.558 463.666 239.64C463.736 239.721 463.785 239.819 463.808 239.924C463.85 240.06 463.872 240.202 463.873 240.345Z" fill="#2C1C31"/>
<path fill-rule="evenodd" clip-rule="evenodd" d="M586.735 163.048C587.347 163.079 587.924 163.342 588.349 163.784C588.774 164.226 589.015 164.813 589.023 165.426C588.809 166.969 589.561 167.909 590.727 168.881C592.801 170.611 593.488 172.997 593.06 175.68C592.276 175.92 591.596 175.531 590.922 175.259C586.994 173.684 584.44 170.67 582.58 167.027C582.561 163.936 583.812 162.737 586.735 163.048Z" fill="#FF6B00"/>
<path fill-rule="evenodd" clip-rule="evenodd" d="M454.151 242.86C452.615 242.179 451.908 243.139 450.716 244.001C444.234 247.889 440.144 247.805 434.227 244.863C432.088 243.8 431.997 242.225 433.968 240.844C438.284 237.811 443.145 237.331 448.11 238.44C450.139 238.893 453.626 240.008 455.24 239.444C455.155 239.302 454.598 241.635 454.151 242.86Z" fill="#2C1C31"/>
<path d="M580.123 192.493C582.096 191.637 584.173 191.04 586.3 190.717C590.228 190.069 593.721 189.252 593.721 189.252L594.492 190.348L594.045 197.4L586.637 191.735L580.123 200.55L579.617 193.42L580.123 192.493Z" fill="#E9EBEB"/>
<path fill-rule="evenodd" clip-rule="evenodd" d="M628.896 228.899C628.954 226.955 628.929 214.964 628.857 213.875V213.836C628.695 210.946 628.287 208.1 626.757 205.566C623.841 200.75 619.148 199.636 613.976 199.454C609.718 199.312 597.461 201.288 595.504 201.535C592.285 201.887 589.166 202.862 586.32 204.406C580.875 207.413 575.301 210.239 569.812 213.104C568.813 219.145 567.796 225.179 566.817 231.252C566.046 235.996 566.065 240.974 562.889 244.928C560.154 248.343 557.244 251.63 554.632 255.142C552.934 257.43 549.687 260.068 549.894 263.173C549.966 264.19 565.696 260.58 566.914 260.263C572.592 258.889 576.423 251.455 579.618 246.989C581.854 243.858 584.596 220.084 585.749 218.691C586.903 217.297 603.645 215.969 609.491 215.185C610.184 213.117 611.526 211.393 612.524 209.481C612.686 209.176 613.172 208.794 613.451 208.833C614.099 208.936 613.866 209.578 613.885 210.012C613.968 213.038 613.751 216.065 613.237 219.047C613.885 223.046 616.18 238.07 616.828 241.557C621.404 238.317 625.254 234.35 629.557 230.824C629.058 230.545 628.87 229.982 628.896 228.899ZM568.762 245.168L568.671 245.109L568.775 245.077L568.762 245.168Z" fill="#002F87"/>
<path fill-rule="evenodd" clip-rule="evenodd" d="M551.171 260.554H550.108L547.282 263.964C551.819 266.057 556.719 267.34 561.256 269.408C561.851 268.563 562.531 267.781 563.285 267.075C564.036 266.297 564.814 265.539 565.514 264.715C567.212 262.719 569.403 261.164 570.699 258.83C569.87 258.72 552.824 261.105 551.171 260.554Z" fill="#2C1C31"/>
<path fill-rule="evenodd" clip-rule="evenodd" d="M613.218 219.047C613.153 218.781 613.075 218.522 613.036 218.256C612.511 215.106 612.518 215.106 609.491 215.178C610.184 213.11 611.526 211.386 612.524 209.474C612.686 209.17 613.172 208.787 613.451 208.826C614.099 208.93 613.866 209.571 613.885 210.006C613.962 213.034 613.738 216.063 613.218 219.047Z" fill="#2C1C31"/>
<path fill-rule="evenodd" clip-rule="evenodd" d="M570.797 235.335C568.931 236.263 567.199 237.441 565.65 238.835C565.214 241.05 564.268 243.133 562.889 244.921C562.442 245.478 561.988 246.029 561.535 246.58C561.924 246.327 562.241 246.12 562.306 246.068C564.698 244.124 567.31 242.419 569.721 240.488C570.829 239.593 573.033 237.487 573.098 235.912C573.162 234.337 571.996 234.758 570.797 235.335Z" fill="#2C1C31"/>
<defs>
<linearGradient id="paint0_linear" x1="0" y1="186.802" x2="767.966" y2="186.802" gradientUnits="userSpaceOnUse">
<stop stop-color="#0058CC"/>
<stop offset="0.01" stop-color="#0158CC"/>
<stop offset="0.67" stop-color="#3458CC"/>
<stop offset="1" stop-color="#4858CC"/>
</linearGradient>
<linearGradient id="paint1_linear" x1="-36.01" y1="298.799" x2="805.483" y2="13.6848" gradientUnits="userSpaceOnUse">
<stop stop-color="#0058CC"/>
<stop offset="0.03" stop-color="#0458CC"/>
<stop offset="0.5" stop-color="#5758CC"/>
<stop offset="0.84" stop-color="#8B58CC"/>
<stop offset="1" stop-color="#9F58CC"/>
</linearGradient>
</defs>
</svg>
