<svg width="52" height="52" viewBox="0 0 52 52" fill="none" xmlns="http://www.w3.org/2000/svg">
<path d="M51.2898 25.8301C51.2898 30.8517 49.8007 35.7607 47.0108 39.936C44.2209 44.1114 40.2555 47.3659 35.6161 49.2876C30.9767 51.2093 25.8716 51.7121 20.9464 50.7324C16.0213 49.7527 11.4972 47.3345 7.94631 43.7837C4.39546 40.2328 1.97732 35.7089 0.997642 30.7837C0.0179633 25.8585 0.520757 20.7532 2.44247 16.1138C4.36418 11.4744 7.61848 7.50913 11.7938 4.71924C15.9692 1.92935 20.8781 0.44043 25.8997 0.44043C32.6336 0.44043 39.0916 3.1154 43.8532 7.87695C48.6147 12.6385 51.2898 19.0962 51.2898 25.8301Z" fill="#AA549D"/>
<path d="M30.5998 15.4404H21.2898C19.7692 15.4404 18.3107 16.0434 17.2346 17.1177C16.1584 18.192 15.5525 19.6498 15.5498 21.1704V30.48C15.5525 32.0006 16.1584 33.4584 17.2346 34.5327C18.3107 35.607 19.7692 36.2105 21.2898 36.2104H30.5998C32.1187 36.2078 33.5746 35.6028 34.6486 34.5288C35.7226 33.4548 36.3271 31.9989 36.3298 30.48V21.1704C36.3271 19.6515 35.7226 18.1956 34.6486 17.1216C33.5746 16.0476 32.1187 15.4431 30.5998 15.4404ZM34.4898 30.4404C34.4898 31.4721 34.08 32.4614 33.3505 33.1909C32.6209 33.9204 31.6315 34.3301 30.5998 34.3301H21.2898C20.2581 34.3301 19.2686 33.9204 18.5391 33.1909C17.8096 32.4614 17.3998 31.4721 17.3998 30.4404V21.1304C17.3998 20.0987 17.8096 19.1089 18.5391 18.3794C19.2686 17.6499 20.2581 17.2402 21.2898 17.2402H30.5998C31.6307 17.2429 32.6186 17.6534 33.3475 18.3823C34.0765 19.1113 34.4872 20.0995 34.4898 21.1304V30.4404Z" fill="white"/>
<path d="M25.9401 20.4707C24.88 20.4707 23.8436 20.7851 22.9622 21.374C22.0807 21.963 21.3938 22.7999 20.9881 23.7793C20.5824 24.7587 20.4763 25.8367 20.6831 26.8765C20.8899 27.9162 21.4004 28.871 22.15 29.6206C22.8996 30.3702 23.8546 30.8811 24.8944 31.0879C25.9341 31.2947 27.0118 31.1884 27.9912 30.7827C28.9707 30.377 29.8078 29.69 30.3968 28.8086C30.9857 27.9271 31.3001 26.8907 31.3001 25.8306C31.3001 24.409 30.7353 23.0457 29.7301 22.0405C28.7249 21.0353 27.3617 20.4707 25.9401 20.4707ZM25.9401 29.3408C25.2459 29.3408 24.5672 29.1347 23.99 28.749C23.4128 28.3633 22.9629 27.8152 22.6972 27.1738C22.4316 26.5325 22.3621 25.8269 22.4975 25.146C22.633 24.4651 22.9672 23.8395 23.4581 23.3486C23.949 22.8578 24.5744 22.5236 25.2553 22.3882C25.9362 22.2527 26.6419 22.3222 27.2833 22.5879C27.9247 22.8536 28.4729 23.3036 28.8586 23.8809C29.2442 24.4581 29.45 25.1364 29.45 25.8306C29.4474 26.7607 29.0768 27.6519 28.4191 28.3096C27.7614 28.9673 26.8702 29.3382 25.9401 29.3408Z" fill="white"/>
<path d="M31.5197 18.9102C31.1617 18.9102 30.8183 19.0525 30.5651 19.3057C30.3119 19.5588 30.1697 19.9022 30.1697 20.2603C30.1635 20.4447 30.1948 20.6284 30.2619 20.8003C30.3289 20.9722 30.4303 21.1287 30.5597 21.2603C30.6919 21.3888 30.8485 21.4897 31.0202 21.5566C31.192 21.6236 31.3755 21.6555 31.5597 21.6504C31.9152 21.6495 32.2562 21.5094 32.5097 21.2603C32.6953 21.0702 32.8212 20.8301 32.8718 20.5693C32.9224 20.3086 32.8955 20.0387 32.7945 19.793C32.6934 19.5473 32.5227 19.3363 32.3033 19.1865C32.0838 19.0368 31.8253 18.9547 31.5597 18.9502L31.5197 18.9102Z" fill="white"/>
</svg>
