<svg width="36" height="36" viewBox="0 0 36 36" fill="none" xmlns="http://www.w3.org/2000/svg">
<path d="M36 18C36 27.9411 27.9411 36 18 36C8.05888 36 0 27.9411 0 18C0 8.05888 8.05888 0 18 0C27.9411 0 36 8.05888 36 18Z" fill="#AA549D"/>
<path d="M21.8638 11H15.1434C14.0458 11 12.993 11.4354 12.2161 12.2113C11.4393 12.9872 11.0019 14.04 11 15.1382V21.8615C11.0019 22.9597 11.4393 24.0125 12.2161 24.7883C12.993 25.5642 14.0458 26 15.1434 26H21.8638C22.9602 25.9981 24.0112 25.5612 24.7865 24.7855C25.5617 24.0099 25.9981 22.9584 26 21.8615V15.1382C25.9981 14.0412 25.5617 12.9898 24.7865 12.2141C24.0112 11.4385 22.9602 11.0019 21.8638 11ZM24.6718 21.8329C24.6718 22.578 24.376 23.2925 23.8494 23.8193C23.3228 24.3462 22.6085 24.642 21.8638 24.642H15.1434C14.3987 24.642 13.6844 24.3462 13.1578 23.8193C12.6312 23.2925 12.3354 22.578 12.3354 21.8329V15.1092C12.3354 14.3642 12.6312 13.6494 13.1578 13.1225C13.6844 12.5957 14.3987 12.2998 15.1434 12.2998H21.8638C22.608 12.3017 23.3211 12.5982 23.8473 13.1246C24.3735 13.6511 24.6699 14.3647 24.6718 15.1092V21.8329Z" fill="white"/>
<path d="M18.5002 14.6328C17.735 14.6328 16.9869 14.8599 16.3506 15.2852C15.7144 15.7106 15.2185 16.315 14.9256 17.0223C14.6328 17.7296 14.5562 18.5082 14.7054 19.259C14.8547 20.0099 15.2232 20.6995 15.7643 21.2408C16.3054 21.7822 16.9948 22.1512 17.7454 22.3005C18.4959 22.4499 19.2739 22.3731 19.9808 22.0801C20.6878 21.7871 21.2921 21.291 21.7173 20.6544C22.1424 20.0178 22.3693 19.2693 22.3693 18.5037C22.3693 17.4771 21.9617 16.4925 21.2361 15.7666C20.5105 15.0406 19.5264 14.6328 18.5002 14.6328ZM18.5002 21.0388C17.9991 21.0388 17.5092 20.8899 17.0926 20.6114C16.6759 20.3329 16.3511 19.937 16.1594 19.4738C15.9676 19.0106 15.9174 18.501 16.0152 18.0093C16.113 17.5176 16.3543 17.0658 16.7086 16.7113C17.0629 16.3568 17.5144 16.1154 18.0059 16.0176C18.4974 15.9198 19.0068 15.97 19.4698 16.1619C19.9328 16.3537 20.3285 16.6788 20.6069 17.0956C20.8853 17.5125 21.0339 18.0023 21.0339 18.5037C21.032 19.1754 20.7644 19.8191 20.2897 20.294C19.8149 20.769 19.1716 21.0369 18.5002 21.0388Z" fill="white"/>
<path d="M22.5279 13.5058C22.2694 13.5058 22.0215 13.6086 21.8388 13.7915C21.656 13.9743 21.5534 14.2223 21.5534 14.4809C21.5489 14.614 21.5715 14.7467 21.6199 14.8709C21.6683 14.995 21.7415 15.1081 21.8349 15.203C21.9303 15.2959 22.0433 15.3687 22.1673 15.4171C22.2913 15.4655 22.4237 15.4885 22.5568 15.4848C22.8133 15.4842 23.0595 15.383 23.2425 15.203C23.3765 15.0658 23.4673 14.8924 23.5039 14.7041C23.5404 14.5157 23.521 14.3208 23.4481 14.1434C23.3751 13.9659 23.2519 13.8135 23.0935 13.7054C22.9351 13.5973 22.7485 13.538 22.5568 13.5347L22.5279 13.5058Z" fill="white"/>
</svg>
