<svg width="220" height="175" viewBox="0 0 220 175" fill="none" xmlns="http://www.w3.org/2000/svg">
<g clip-path="url(#clip0)">
<path fill-rule="evenodd" clip-rule="evenodd" d="M82.7513 70.0857C82.1322 70.0146 81.3305 70.4104 81.0869 69.4159C80.1228 69.3245 79.1587 69.2332 78.1946 69.1419C78.083 68.9389 77.9307 68.9795 77.7785 69.081C77.129 68.9896 76.4592 69.0404 75.8401 68.7664C75.7285 68.7258 75.6981 68.7664 75.7285 68.878C75.7184 68.9389 75.6981 68.9795 75.6575 69.0201C75.2718 68.9186 74.8862 68.8881 74.5005 69.0505C74.0946 69.0404 73.6886 69.0302 73.2827 69.0201C72.7651 68.9287 72.7956 69.4057 72.6129 69.6696C71.6691 70.9787 71.0094 72.5721 70.2686 73.9929C70.157 74.206 69.68 74.7236 69.7713 74.9976C69.9032 75.3832 70.5325 74.754 70.705 74.5104C70.9485 74.1451 71.1109 73.7391 71.3342 73.3738C71.8315 72.5619 72.2679 71.7094 72.7448 70.8773C72.9377 70.5424 73.1406 70.2075 73.4654 69.9943C73.6075 69.903 74.6325 69.5376 74.7035 69.7711C74.8253 70.1567 74.9268 70.4916 75.4849 70.5424C76.7332 70.654 77.9713 70.8367 79.1993 71.0295C79.7778 71.1208 80.2751 71.2832 80.8028 70.7758C81.0768 70.5119 81.9293 70.4612 82.2033 70.7555C82.6397 71.2122 81.9597 71.9429 81.6958 72.2879C81.229 72.9273 81.0057 73.6986 80.5998 74.3785C80.1025 75.2005 79.3414 75.9617 79.1486 76.9359C78.4686 77.9508 77.8597 79.1382 77.2609 80.3255C77.2812 80.356 77.2914 80.3966 77.3218 80.4169C77.3421 80.4372 77.4132 80.4473 77.4132 80.4372C77.9612 79.5949 78.5092 78.7424 79.0572 77.8899C79.2602 77.5245 79.5241 77.1795 79.6864 76.8446C79.7473 76.804 79.7879 76.7634 79.7981 76.7634C80.0213 76.5401 80.1837 76.2052 80.3461 75.9312C80.6911 75.3426 80.9753 74.7134 81.3406 74.1349C81.8481 73.3332 82.3149 72.4807 82.7817 71.6587C83.0354 71.202 83.7966 70.1973 82.7513 70.0857Z" fill="#D8D8D8"/>
<path fill-rule="evenodd" clip-rule="evenodd" d="M74.2974 82.1014C73.8204 82.4667 73.2623 82.4261 72.6939 82.3856C72.6229 82.2333 72.3996 82.1826 72.217 82.416C70.6642 82.0912 69.1217 81.7158 67.5486 81.5128C67.4573 81.5026 67.3761 81.4823 67.3051 81.4722C67.2848 81.4011 67.2239 81.3606 67.1122 81.3504C67.0209 81.3504 66.9194 81.3403 66.8281 81.32C66.757 81.3098 66.686 81.2895 66.6251 81.2591C66.6048 81.2489 66.6048 81.2489 66.5947 81.2489C66.7469 80.9546 66.3917 80.7212 66.0974 81.0256C65.8843 81.2489 65.7625 81.5737 66.0264 81.8071C66.2395 81.9898 66.6251 82.0202 66.889 82.0304C66.8991 82.0304 66.9093 82.0202 66.9194 82.0202C67.0209 82.0202 67.1122 82.0202 67.2239 82.0304C68.7056 82.1927 70.0756 82.893 71.5878 82.893C71.7603 82.893 71.943 82.9234 72.0952 82.9031C72.1256 82.9742 72.1764 83.0351 72.2779 83.0452C73.1303 83.096 73.861 83.1264 74.5714 82.5784C74.9063 82.3247 74.7034 81.7868 74.2974 82.1014Z" fill="#D8D8D8"/>
<path fill-rule="evenodd" clip-rule="evenodd" d="M180.522 30.2833C178.269 30.5878 175.722 30.2326 173.794 30.2427C169.227 30.263 164.66 30.4051 160.093 30.4254C151.568 30.466 143.044 30.4254 134.519 30.4254C132.997 30.4254 132.215 29.7251 132.154 28.1623C132.093 26.5486 131.911 24.8944 132.185 23.3316C132.865 19.4751 137.086 16.3088 140.973 18.2471C142.425 18.9677 143.784 19.7694 144.891 20.9568C145.043 21.1192 145.124 21.4135 145.418 21.3018C145.703 21.2004 145.571 20.8959 145.621 20.6828C146.332 17.3744 146.332 13.9239 147.57 10.7169C149.102 6.73869 151.264 3.23745 155.242 1.26863C157.871 -0.030382 160.59 -0.416026 163.503 0.548085C166.507 1.54264 169.064 3.14611 170.678 5.82532C172.982 9.65132 174.058 13.7716 172.637 18.2471C172.444 18.856 172.282 19.3432 172.515 19.8608C175.57 17.5672 178.827 16.1768 182.075 19.0387C184.511 21.1902 186.956 26.437 183.81 29.0147C182.907 29.7454 181.76 30.1108 180.522 30.2833Z" fill="#92C0E9"/>
<path d="M197.602 13.3959C197.623 13.3655 197.643 13.3249 197.653 13.2944C197.633 13.335 197.613 13.3655 197.602 13.3959C197.582 13.4264 197.562 13.4568 197.542 13.4974C197.562 13.467 197.582 13.4365 197.602 13.3959Z" fill="#FEFEFE"/>
<path fill-rule="evenodd" clip-rule="evenodd" d="M187.545 21.5046C190.559 20.3984 193.452 19.0487 196.222 17.4452C198.475 16.7754 200.495 15.5677 202.616 14.5935C208.076 12.0868 213.495 9.50905 218.935 6.96177C219.249 6.81969 219.544 6.63701 219.99 6.3833C220.051 7.83454 219.645 9.10311 219.493 10.392C218.985 14.6239 218.437 18.8559 217.889 23.0878C217.554 25.6858 217.027 28.2534 216.925 30.8819C216.337 33.3987 216.184 35.9764 215.809 38.5237C215.342 41.619 214.987 44.7245 214.571 47.8299C214.479 48.4693 214.246 48.7331 213.597 48.2156C212.47 47.3123 211.273 46.5106 210.136 45.6378C209.872 45.4349 209.628 45.2826 209.304 45.2623C208.116 43.9938 206.635 43.1109 205.265 42.0757C204.818 41.7408 204.706 41.8321 204.382 42.2381C203.093 43.8415 201.662 45.3334 200.414 46.9673C198.871 48.9666 197.044 50.7223 195.684 52.8636C193.421 54.9846 191.666 57.5421 189.676 59.8965C184.45 66.0668 179.366 72.3589 174.21 78.5901C169.4 84.3951 164.569 90.1798 159.748 95.9746C159.292 96.5125 158.784 96.8271 158.033 96.7966C156.734 96.7459 155.435 96.7865 154.136 96.7966C152.624 96.4414 151.092 96.7459 149.58 96.6241C149.843 92.9706 150.706 89.378 150.564 85.6941C150.716 85.6535 150.879 85.5419 151.021 85.5723C153.477 86.0899 154.42 84.3241 155.527 82.7003C158.734 77.9914 162.001 73.3129 165.218 68.6141C168.425 63.9458 171.602 59.2572 174.799 54.5787C177.224 51.0369 179.66 47.5052 182.096 43.9836C184.805 40.0561 187.525 36.149 190.224 32.2215C190.468 31.8561 190.762 31.4705 190.153 31.0341C187.961 29.4814 185.82 27.8576 183.648 26.2744C183.506 26.1729 183.273 26.1729 183.09 26.1222C182.765 25.7163 182.329 25.4423 181.882 25.1885C181.852 24.9754 181.832 24.7623 181.801 24.539C181.882 24.539 181.953 24.5187 182.024 24.4883C182.339 24.539 182.491 24.3665 182.572 24.0925C183.08 24.1229 183.415 23.9098 183.526 23.4024C183.577 23.4125 183.628 23.4024 183.669 23.3821C183.831 23.3618 183.983 23.3415 184.146 23.3111C185.313 22.7732 186.541 22.347 187.545 21.5046Z" fill="#D3D7F3"/>
<path fill-rule="evenodd" clip-rule="evenodd" d="M44.471 126.359C44.6029 128.988 44.7247 131.616 44.8566 134.245C40.2492 134.214 35.6519 134.194 31.0445 134.123C30.0601 134.103 29.3497 134.417 28.6697 135.118C26.569 137.279 24.4175 139.39 22.2761 141.511C15.1823 148.524 8.07834 155.526 0.994662 162.539C0.751097 162.782 0.578572 163.138 0.0102539 162.914C1.086 161.412 2.1313 159.931 3.19689 158.479C7.21572 153.009 11.2345 147.539 15.2534 142.069C18.8256 137.208 22.4081 132.347 25.9702 127.466C26.3153 126.999 26.6806 126.836 27.2489 126.816C32.9829 126.674 38.7269 126.512 44.471 126.359Z" fill="#D3D7F3"/>
<path fill-rule="evenodd" clip-rule="evenodd" d="M47.9521 63.9964C47.3432 60.5154 47.8201 57.3592 50.6211 54.883C53.2496 52.5691 57.4105 52.4067 59.8867 54.5278C60.5565 55.0961 61.0944 55.7456 61.2771 56.6387C61.2771 57.3491 61.2669 58.0696 61.2669 58.78C61.1147 59.0743 60.9726 59.3686 60.8204 59.6528C60.1303 60.4038 59.2981 61.0127 58.3848 61.4085C57.8976 61.6216 57.3598 62.2001 56.7306 61.7434C56.1216 61.307 55.6041 61.2563 55.1474 61.9159C54.6704 62.606 54.7516 63.2149 55.4112 63.7426C55.2387 64.1181 54.8937 64.4733 55.3706 64.8691C54.6602 66.9496 53.4018 68.5125 51.2503 69.233C49.6469 67.8122 48.6929 65.9652 47.9521 63.9964Z" fill="black"/>
<path fill-rule="evenodd" clip-rule="evenodd" d="M51.2604 69.2331C53.4119 68.5125 54.6804 66.9598 55.3807 64.8692C55.7663 64.9301 56.2129 65.0316 56.2535 64.4429C56.2941 63.8746 55.8983 63.7325 55.4111 63.7427C54.7515 63.215 54.6703 62.6061 55.1473 61.916C55.604 61.2563 56.1317 61.2969 56.7304 61.7434C57.3597 62.2001 57.9077 61.6216 58.3847 61.4085C59.298 61.0127 60.1201 60.4038 60.8203 59.6528C61.0639 61.51 61.003 63.357 60.8609 65.2345C60.7493 66.7264 60.3129 68.0254 59.5213 69.2229C58.9631 70.0551 58.1106 70.2783 57.1567 69.9029C55.604 69.2939 55.6141 69.2838 55.5431 70.9583C55.5329 71.1511 55.5228 71.3541 55.5025 71.5469C54.2136 70.4509 52.7928 69.7506 51.0371 70.0652C51.1284 69.7912 51.1995 69.5172 51.2604 69.2331Z" fill="#F1AC88"/>
<path fill-rule="evenodd" clip-rule="evenodd" d="M60.9017 173.591C58.9126 174.484 56.8829 174.291 54.843 173.773C54.5589 173.702 54.3457 173.418 53.9905 173.702C52.722 174.727 51.22 174.575 49.7586 174.453C48.8148 174.372 47.7593 174.535 47.0591 173.621C47.0692 173.144 47.0794 172.657 47.0997 172.18C48.0739 172.342 48.7234 173.175 49.6774 173.439C50.7532 173.733 51.5955 173.642 52.042 172.485C52.8742 172.444 54.1022 173.337 54.1834 171.561C54.7212 171.926 55.2388 172.342 55.8173 172.657C57.2381 173.439 58.2834 173.246 58.9126 172.139C60.7292 172.231 60.8712 172.332 60.9017 173.591Z" fill="#F6C435"/>
<path fill-rule="evenodd" clip-rule="evenodd" d="M52.0417 172.484C51.5851 173.641 50.7529 173.733 49.6771 173.438C48.7232 173.175 48.0737 172.353 47.0994 172.18C47.617 170.059 47.0994 167.938 47.0791 165.817C47.5865 166.121 48.2969 165.847 48.7333 166.365C48.8754 167.126 49.0987 167.887 49.1596 168.658C49.2915 170.577 50.2454 171.835 52.0417 172.484Z" fill="#F1AC88"/>
<path fill-rule="evenodd" clip-rule="evenodd" d="M139.898 120.473C140.74 120.24 141.593 119.996 142.445 119.763C142.486 120.463 142.516 121.163 142.557 121.863C142.191 122.929 142.405 124.045 142.131 125.152C141.38 128.095 138.467 130.145 135.493 129.607C133.088 129.17 132.104 127.131 133.088 124.573C133.707 122.97 134.347 121.386 134.976 119.793C135.514 119.763 135.95 120.027 136.407 120.25C136.255 120.575 135.575 120.28 135.656 120.818C135.778 121.61 135.706 122.3 135.108 122.888C134.986 123.01 134.986 123.183 135.179 123.264C135.392 123.345 135.676 123.345 135.301 123.66C134.347 124.431 135.29 124.512 135.727 124.593C136.813 124.776 137.909 124.857 139.005 124.989C139.492 125.05 139.989 125.334 140.456 124.918C140.081 124.39 140.07 124.38 140.497 123.984C140.74 123.761 140.639 123.558 140.486 123.396C140.334 123.233 139.827 123.122 140.486 122.98C140.943 122.878 140.974 122.685 140.73 122.33C140.629 122.188 140.497 121.965 140.811 121.884C141.603 121.681 141.177 121.417 140.852 121.163C140.527 120.92 140.212 120.696 139.898 120.473Z" fill="#F6C435"/>
<path fill-rule="evenodd" clip-rule="evenodd" d="M110.619 59.6836C111.583 60.5665 112.832 60.942 113.978 61.4596C114.516 61.7032 114.689 61.9366 114.689 62.4744C114.709 66.9905 114.729 71.5066 114.79 76.0227C114.8 76.5505 114.516 76.4896 114.212 76.4997C113.542 76.5099 112.872 76.5505 112.213 76.4997C111.482 76.449 110.822 76.6012 110.223 77.0071C110.02 76.6519 109.615 76.6621 109.31 76.5606C107.646 76.0126 107.24 74.7542 107.301 73.2014C107.301 72.7245 107.301 72.2576 107.301 71.7807C107.727 68.2388 108.833 64.8593 109.929 61.49C110.132 60.8811 109.98 60.1098 110.619 59.6836Z" fill="#F1AC88"/>
<path fill-rule="evenodd" clip-rule="evenodd" d="M124.817 40.0458C124.766 40.0661 124.046 39.5282 123.964 39.4673C123.701 39.2643 123.548 39.1223 123.467 38.7975C123.315 38.1683 123.325 37.3463 123.295 36.6968C123.234 35.347 123.356 33.8653 124.015 32.6678C124.401 31.9574 124.959 31.3891 125.659 30.973C128.267 29.4101 131.728 30.7599 132.652 33.6218C132.956 34.5656 132.986 35.5601 132.926 36.5344C132.895 36.9911 132.794 37.4681 132.804 37.9247C132.814 38.2292 132.986 38.625 132.865 38.9294C132.784 39.1426 132.692 39.3455 132.611 39.5587C132.652 39.4673 132.144 39.7819 132.134 39.7921C131.931 39.9646 131.819 40.198 131.566 40.3401C130.947 40.6851 130.673 40.2792 130.683 39.6804C130.703 38.6453 130.845 37.6 129.871 36.9911C129.15 36.5344 128.166 36.4431 127.354 36.6765C126.796 36.8287 126.42 37.397 126.136 37.8638C125.933 38.1886 125.771 38.5336 125.568 38.8483C125.497 38.9599 125.081 39.9646 125.182 39.924C125.05 39.9544 124.929 39.995 124.817 40.0458Z" fill="black"/>
<path fill-rule="evenodd" clip-rule="evenodd" d="M77.0375 82.8222C76.9056 82.1118 76.1241 81.7262 76.1038 80.965C76.0429 80.549 75.9516 80.1329 75.9414 79.7269C75.9313 79.4326 75.9922 79.0571 76.3474 78.9962C76.6518 78.9455 76.7939 79.2499 76.8447 79.5239C76.8954 79.8487 77.0476 80.0923 77.2608 80.3155C77.281 80.346 77.2912 80.3866 77.3216 80.4069C77.3419 80.4272 77.413 80.4373 77.413 80.4272C77.961 79.5848 78.509 78.7324 79.057 77.8799C80.3967 79.7168 80.2343 80.62 78.3466 81.8784C77.89 82.1829 77.4739 82.5076 77.0375 82.8222Z" fill="#F28795"/>
<path fill-rule="evenodd" clip-rule="evenodd" d="M68.6551 77.6868C68.4115 77.5954 68.168 77.5041 67.9346 77.4127C68.2289 76.3776 68.5232 75.3627 69.7613 75.0786C69.9541 75.0684 70.1368 75.0481 70.3296 75.0278C70.6036 75.109 71.0299 74.9162 71.1111 75.3424C71.2024 75.8093 70.7457 75.7687 70.4818 75.8499C69.944 76.0325 69.4873 76.2152 69.4568 76.9256C69.4366 77.3316 69.0509 77.565 68.6551 77.6868Z" fill="#F28795"/>
<path fill-rule="evenodd" clip-rule="evenodd" d="M76.1041 80.9649C74.9168 81.3506 74.2267 82.477 73.09 82.9439C71.0603 84.7605 68.7566 86.2016 66.595 87.8355C65.9454 88.3226 65.2553 88.7691 64.616 89.2766C64.0477 89.7231 63.7737 89.6521 63.591 88.9214C63.0227 86.7191 62.2209 84.6082 61.4496 82.477C60.4348 79.676 58.9835 77.0679 57.6744 74.409C57.3598 74.3785 57.4207 74.0335 57.238 73.9015C56.761 73.049 55.8882 72.4909 55.533 71.5471C54.2442 70.451 52.8234 69.7508 51.0677 70.0654C49.6164 70.38 49.0278 71.5268 48.5103 72.7344C46.8865 76.5503 46.1355 80.5793 45.5266 84.6691C44.5016 91.6107 44.2377 98.5929 43.8724 105.585C43.8521 105.981 43.781 106.387 44.2174 106.62C48.1043 107.321 52.0216 107.239 55.939 107.006C57.2684 106.925 58.5979 106.742 59.8462 106.245C59.8766 106.286 59.8766 106.316 59.8462 106.357C59.9984 106.336 60.1506 106.326 60.3029 106.306C60.4957 106.275 60.6885 106.245 60.8813 106.214C61.2974 105.94 61.5105 105.636 61.4293 105.058C61.2467 103.819 61.2061 102.561 61.2771 101.292C61.2771 101.14 61.2771 100.978 61.2771 100.826C61.2771 100.744 61.2771 100.673 61.2771 100.592C61.2467 100.125 61.2162 99.6585 61.1959 99.1815C61.2264 98.8568 61.2467 98.5422 61.2771 98.2174C61.2771 98.1362 61.2771 98.0652 61.2771 97.984C61.2467 97.507 61.2264 97.0199 61.1959 96.5429L61.2771 96.5734C61.2771 96.2588 61.2771 95.9543 61.2771 95.6397C62.7284 96.1776 63.9969 95.9746 65.1234 94.8278C68.6247 91.3063 72.1564 87.805 75.6779 84.2936C75.7185 84.2429 75.7692 84.2226 75.8301 84.2429C75.891 84.0907 75.9722 83.9892 76.1447 84.0298C76.1041 83.3701 77.0987 83.4716 77.0479 82.8018C76.9059 82.1117 76.1244 81.726 76.1041 80.9649Z" fill="#FF6B00"/>
<path fill-rule="evenodd" clip-rule="evenodd" d="M57.6543 74.3989L57.6643 74.4089L57.6543 74.3989Z" fill="#472461"/>
<path fill-rule="evenodd" clip-rule="evenodd" d="M62.7081 83.8473C62.9415 84.5881 63.317 84.5069 63.8041 84.101C64.4536 83.5529 65.1031 83.0049 65.7526 82.4569C65.8338 82.396 65.9049 82.3351 65.986 82.2844C66.3108 81.8378 66.5442 81.3203 66.8385 80.8433C66.8791 80.7012 66.9603 80.549 67.0618 80.3765C67.5794 79.4631 68.1274 78.5802 68.6653 77.6871C68.4217 77.5958 68.1781 77.5044 67.9447 77.4131C66.7675 77.7987 65.8338 78.6817 64.616 78.9861C64.0578 79.4834 63.4185 79.8386 62.6878 80.0111C62.6066 80.0213 62.5254 80.0314 62.4544 80.0416C62.4036 80.0822 62.3427 80.0923 62.2818 80.072C61.7744 80.5084 61.5511 80.9549 61.9368 81.6552C62.2717 82.325 62.4746 83.1064 62.7081 83.8473Z" fill="#FF6B00"/>
<path fill-rule="evenodd" clip-rule="evenodd" d="M92.9608 98.0957C92.9405 98.593 92.8797 99.0395 92.1997 98.9482C92.1997 98.4306 92.4636 98.1566 92.9608 98.0957Z" fill="#77C2FA"/>
<path fill-rule="evenodd" clip-rule="evenodd" d="M91.5499 99.7602C91.5296 100.237 91.2759 100.43 90.8091 100.379C90.9613 100.065 91.1135 99.7399 91.5499 99.7602Z" fill="#77C2FA"/>
<path fill-rule="evenodd" clip-rule="evenodd" d="M92.1995 98.9482C92.2705 99.4151 92.0777 99.6688 91.6109 99.7094C91.5906 99.2933 91.8849 99.1106 92.1995 98.9482Z" fill="#77C2FA"/>
<path fill-rule="evenodd" clip-rule="evenodd" d="M90.7993 100.389C90.8196 100.714 90.8196 101.039 90.3832 101.11C90.302 100.734 90.4745 100.521 90.7993 100.389Z" fill="#77C2FA"/>
<path fill-rule="evenodd" clip-rule="evenodd" d="M145.398 76.6012C145.124 76.6418 144.85 76.6824 144.586 76.7433C143.358 77.0579 141.278 77.3725 140.73 75.7893C140.101 73.9626 140.121 71.6588 140.192 69.7408C140.232 68.4925 140.425 67.2645 140.608 66.0365C140.811 64.6766 140.567 61.8351 142.282 61.3276C143.419 61.0029 144.434 60.4143 145.429 59.7749C146.535 62.1192 147.022 64.6563 147.702 67.1224C148.016 68.2794 148.351 69.4465 148.625 70.6237C148.97 72.1054 148.828 73.516 148.422 74.8962C147.996 76.3982 146.667 76.4388 145.398 76.6012Z" fill="#F1AC88"/>
<path fill-rule="evenodd" clip-rule="evenodd" d="M54.1831 171.561C54.5992 169.663 54.1628 167.775 54.0918 165.888C54.7312 165.857 55.3705 165.837 56.02 165.807C55.9287 168.405 56.2534 170.8 58.9123 172.139C58.2831 173.246 57.248 173.438 55.817 172.657C55.2386 172.342 54.721 171.936 54.1831 171.561Z" fill="#F1AC88"/>
<path fill-rule="evenodd" clip-rule="evenodd" d="M59.8664 109.107C59.8664 108.194 59.8563 107.27 59.8563 106.357C59.8867 106.316 59.8867 106.286 59.8563 106.245C58.5979 106.753 57.2786 106.925 55.9491 107.006C52.0318 107.25 48.1144 107.321 44.2275 106.621C44.2275 108.427 44.2275 110.223 44.2275 112.03C44.2478 116.81 44.2681 121.59 44.4813 126.36C44.6132 128.988 44.735 131.616 44.8669 134.245C44.9481 136.011 45.0293 137.766 45.1003 139.532C44.9887 140.304 44.8162 141.085 45.283 141.806C45.283 141.887 45.283 141.978 45.283 142.059C45.1815 142.272 45.1409 142.496 45.283 142.709C45.3236 143.297 45.354 143.886 45.3946 144.485C45.1815 145.185 44.9988 145.875 45.5874 146.494C45.7904 152.959 46.3283 159.393 47.0793 165.817C47.5867 166.121 48.2971 165.847 48.7335 166.365C49.3526 165.919 50.3877 166.619 50.7632 165.817C51.0474 165.218 50.9357 164.427 50.9966 163.726C51.3518 159.413 51.6969 155.11 52.0622 150.797C52.1941 149.204 52.3667 147.611 52.6914 146.017C52.8538 148.493 53.0365 150.97 53.1684 153.446C53.3714 157.211 53.5236 160.986 53.7164 164.751C53.7367 165.147 53.5439 165.655 54.1021 165.888C54.7414 165.858 55.3808 165.837 56.0303 165.807C56.6494 163.899 56.7407 161.91 56.9234 159.941C57.7251 151.731 58.3442 143.5 58.6892 135.26C58.6994 134.955 58.811 134.651 58.8719 134.336C58.7501 131.525 59.1662 128.734 59.1662 125.933C59.1662 124.634 59.085 123.315 59.4503 122.046C59.4808 120.879 59.5112 119.722 59.5417 118.555C59.5417 118.403 59.5518 118.241 59.5518 118.088C59.4605 116.221 59.6533 114.374 59.8461 112.517C59.8563 111.959 59.8664 111.411 59.8766 110.853C59.8664 110.67 59.8664 110.487 59.8664 110.305C59.8664 110.061 59.8664 109.817 59.8664 109.574C59.8563 109.422 59.8563 109.269 59.8664 109.107Z" fill="#B0B0B0"/>
<path fill-rule="evenodd" clip-rule="evenodd" d="M121.174 119.773C121.894 121.661 122.615 123.558 123.325 125.446C123.863 127.669 123.183 128.704 120.555 129.678C116.15 129.617 113.755 127.202 113.684 122.746C113.674 121.762 113.715 120.788 113.725 119.803C114.537 120.037 115.338 120.27 116.15 120.504C115.521 121.031 115.531 121.031 115.633 122.016C115.643 122.127 115.46 122.259 115.369 122.371C115.186 122.604 114.983 122.858 115.47 122.949C115.927 123.041 115.836 123.203 115.612 123.477C115.389 123.741 115.379 123.964 115.826 124.015C115.958 124.025 116.211 123.924 116.15 124.289C115.998 125.182 116.018 125.172 116.972 125.03C117.744 124.908 118.525 124.807 119.307 124.715C120.027 124.634 120.809 124.756 121.407 124.167C120.92 123.721 120.687 122.899 120.798 122.046C120.859 121.59 120.2 121.691 120.23 121.295C120.281 120.575 120.26 120.514 119.652 120.27C120.149 120.077 120.666 119.925 121.174 119.773Z" fill="#E8C268"/>
<path fill-rule="evenodd" clip-rule="evenodd" d="M137.899 87.8861C138.284 87.0539 137.665 86.9423 137.127 86.8205C134.905 86.3537 132.662 85.9477 130.389 85.7448C127.07 85.4403 123.802 85.897 120.555 86.516C120.443 86.9321 120.21 86.9626 119.895 86.7292C119.631 86.6784 119.377 86.7089 119.144 86.8611C119.012 87.1148 118.809 87.125 118.576 87.0336C118.048 87.0742 117.947 87.3685 118.109 87.8151C117.916 90.7784 117.926 93.7519 118.119 96.7153C118.545 96.6646 118.972 96.5732 119.388 96.5732C125.548 96.5631 131.718 96.5732 137.878 96.5732C138.223 93.6809 138.122 90.7784 137.899 87.8861Z" fill="#D3D7F3"/>
<path fill-rule="evenodd" clip-rule="evenodd" d="M150.554 85.6739C150.087 83.2383 149.447 80.8737 147.732 78.9759C146.981 78.1437 146.179 77.3724 145.398 76.5707C145.317 76.5808 145.226 76.591 145.144 76.6011C143.5 76.7635 142.201 77.0578 141.511 75.5152C140.983 74.3279 141.156 72.3793 141.136 71.1108C141.085 68.3098 141.389 65.5088 141.379 62.7179C141.379 61.9771 141.562 61.5712 142.293 61.3479C143.429 61.0231 144.454 60.4345 145.439 59.7952C144.931 57.9075 143.876 56.3142 142.729 54.7919C140.303 51.585 137.117 49.5756 133.128 48.9058C132.986 50.3266 132.489 51.6053 131.606 52.7419C129.952 54.8833 128.633 54.9036 126.552 54.4367C125.213 54.1323 124.431 52.7622 123.812 51.5748C123.355 50.7021 122.96 49.7278 122.99 48.6724C122.341 48.9159 121.711 49.2102 121.042 49.3828C118.535 50.012 116.363 51.2399 114.638 53.1479C112.913 55.0659 111.37 57.1362 110.639 59.6835C111.603 60.5665 112.852 60.9419 113.998 61.4595C114.536 61.7031 114.709 61.9365 114.709 62.4744C114.729 66.9905 114.749 71.5066 114.81 76.0227C114.821 76.5504 114.536 76.4895 114.232 76.4997C113.562 76.5098 112.892 76.5504 112.233 76.4997C111.502 76.4489 110.842 76.6011 110.244 77.0071C109.574 77.6972 108.904 78.3974 108.224 79.0875C107.788 79.6964 107.351 80.3054 106.915 80.9143C106.245 82.2843 105.819 83.7356 105.677 85.2578C105.646 85.3999 105.616 85.5522 105.585 85.6942C105.585 86.8715 105.575 88.0588 105.575 89.2462C105.798 89.3173 105.849 89.4999 105.859 89.7029C105.93 92.6561 106.661 95.518 107.037 98.4306C107.605 100.582 108.082 102.754 108.671 104.895C109.401 107.574 110.304 110.193 111.137 112.842C111.756 114.81 112.405 116.779 113.055 118.748C113.187 119.154 113.339 119.57 113.735 119.814C114.547 120.047 115.348 120.28 116.16 120.514C117.317 120.433 118.484 120.341 119.641 120.25C120.148 120.098 120.666 119.935 121.173 119.783C121.65 119.479 121.366 119.113 121.285 118.738C119.631 111.482 118.403 104.175 118.129 96.7257C117.936 93.7623 117.926 90.7888 118.119 87.8254C117.956 87.3789 118.058 87.0846 118.575 87.044C118.687 86.8918 118.809 86.77 118.971 86.7903C118.809 86.77 118.687 86.8918 118.575 87.044C118.809 87.1353 119.012 87.1252 119.144 86.8715C119.377 86.7294 119.631 86.6888 119.895 86.7395C120.209 86.9831 120.443 86.9425 120.554 86.5264C123.802 85.8972 127.07 85.4507 130.388 85.7551C132.651 85.9581 134.894 86.364 137.127 86.8309C137.665 86.9425 138.294 87.0643 137.898 87.8965C138.122 90.7888 138.223 93.6913 137.888 96.5836C137.868 97.2128 137.837 97.8522 137.817 98.4814C137.827 98.8772 137.858 99.2628 137.827 99.6586C137.482 105.626 136.427 111.492 135.158 117.327C134.986 118.129 134.549 118.941 134.976 119.803C135.513 119.773 135.95 120.037 136.406 120.26C137.563 120.341 138.73 120.412 139.898 120.483C140.74 120.25 141.592 120.006 142.445 119.773C142.881 119.651 142.861 119.205 142.962 118.91C144.414 114.547 146.301 110.335 147.55 105.9C148.28 103.312 148.94 100.694 149.153 97.9943C149.254 97.5173 149.275 97.02 149.569 96.6039C149.843 92.9504 150.696 89.3578 150.554 85.6739Z" fill="#979797"/>
<path fill-rule="evenodd" clip-rule="evenodd" d="M144.891 76.54C144.972 76.5502 145.053 76.5705 145.134 76.5806C145.033 76.6821 144.962 76.6517 144.891 76.54Z" fill="#472461"/>
<path fill-rule="evenodd" clip-rule="evenodd" d="M105.86 89.6925C105.86 89.4794 105.799 89.3069 105.576 89.2358C105.576 88.0484 105.586 86.8611 105.586 85.6838C104.906 85.6635 104.226 85.6331 103.556 85.6128C102.998 85.7955 102.643 86.242 102.318 86.6682C100.43 89.0836 98.4006 91.3873 96.4317 93.7316C95.3256 95.0611 93.9961 96.218 93.1944 97.791C93.1233 97.8925 93.0523 97.994 92.9711 98.0955C92.9508 98.5928 92.8899 99.0393 92.21 98.948C92.281 99.4148 92.0882 99.6685 91.6213 99.7091L91.5605 99.7599C91.5402 100.237 91.2864 100.43 90.8196 100.379L90.8095 100.389C90.8298 100.714 90.8298 101.039 90.3934 101.11C88.9929 102.683 87.5822 104.266 86.1817 105.839C84.9436 107.635 83.5533 109.299 81.9701 110.812C81.1278 112.1 80.1433 113.278 79.0067 114.323C79.0067 114.638 78.8139 114.8 78.5297 114.881C78.4485 115.003 78.3572 115.125 78.276 115.247C78.2659 115.409 78.1745 115.5 78.0223 115.531C77.1901 116.566 76.4493 117.692 75.4243 118.565C75.4547 118.971 74.9574 119.103 74.927 119.478C74.9371 119.59 74.9371 119.702 74.9371 119.813C74.9371 119.712 74.927 119.6 74.927 119.478C74.1354 120.138 73.4149 120.859 73.0089 121.833C72.948 121.843 72.8871 121.863 72.8364 121.904C72.7552 121.965 72.674 122.036 72.5928 122.107C72.4305 122.249 72.2681 122.401 72.1057 122.543C71.8723 122.929 71.6287 123.315 71.2025 123.528C71.2025 123.842 71.0198 124.015 70.7356 124.086C70.6748 124.147 70.624 124.208 70.5631 124.269C70.5225 124.583 70.35 124.776 70.0354 124.857C69.4975 125.943 68.503 125.608 67.6302 125.628C67.0822 125.75 66.5342 125.74 65.976 125.659C63.926 125.72 61.8861 125.984 59.8361 125.821C59.6129 125.862 59.3896 125.902 59.1663 125.943C59.1562 128.744 58.7401 131.535 58.872 134.346C63.5099 134.377 68.1478 134.387 72.7857 134.458C73.5772 134.468 74.0136 134.062 74.4703 133.575C78.2862 129.444 82.0919 125.314 85.9077 121.173C90.7181 115.957 95.5184 110.741 100.329 105.524C102.419 103.261 104.51 100.998 106.58 98.7146C106.722 98.5522 106.875 98.4811 107.057 98.4304C106.661 95.5076 105.931 92.6457 105.86 89.6925Z" fill="#D3D7F3"/>
<path fill-rule="evenodd" clip-rule="evenodd" d="M127.425 40.3505C127.344 40.4317 127.273 40.5027 127.192 40.5839L127.182 40.5737C127.263 40.4926 127.334 40.4215 127.415 40.3403L127.425 40.3505Z" fill="#E23666"/>
<path fill-rule="evenodd" clip-rule="evenodd" d="M131.901 48.4491C131.576 48.3577 131.271 48.2765 131.21 47.901C130.896 45.9018 131.383 43.9532 132.266 42.2584C132.773 41.274 132.986 40.5129 132.591 39.5488C132.327 39.5894 131.951 39.5386 131.819 39.701C131.505 40.0765 130.977 40.7159 130.804 39.9649C130.591 39.0312 131.089 38.1178 130.612 37.174C129.891 35.7431 127.76 35.9359 126.461 36.352C125.446 36.6767 125.436 37.5394 125.365 38.4324C125.334 38.8181 125.294 39.224 125.03 39.5386C124.502 40.1678 124.309 39.4067 123.701 39.3661C123.386 39.9547 122.554 40.5535 123.102 41.2131C123.985 42.2686 124.269 43.5067 124.634 44.7448C125.263 45.6075 125.233 47.759 124.583 48.3882C124.066 48.6114 123.518 48.6317 122.96 48.6723C122.929 49.7176 123.325 50.702 123.782 51.5748C124.411 52.7622 125.182 54.1424 126.522 54.4367C128.602 54.9035 129.922 54.8832 131.576 52.7419C132.469 51.6052 132.956 50.3265 133.098 48.9057C132.712 48.7434 132.317 48.5607 131.901 48.4491ZM128.064 44.552C127.669 44.5317 127.232 44.3896 127.212 43.9127C127.171 43.2733 127.719 43.4763 128.075 43.4052C128.409 43.4864 128.988 43.2226 128.978 43.8213C128.978 44.2881 128.552 44.5723 128.064 44.552Z" fill="#F1AC88"/>
<path fill-rule="evenodd" clip-rule="evenodd" d="M127.172 40.5635C127.253 40.4823 127.324 40.4113 127.405 40.3301C127.648 39.2239 127.263 38.7063 126.096 38.889C125.903 38.9195 125.71 38.9195 125.517 38.9296C125.233 39.1935 125.101 39.5081 125.172 39.8937C125.7 40.5229 126.37 40.7564 127.172 40.5635Z" fill="#F28795"/>
<path fill-rule="evenodd" clip-rule="evenodd" d="M19.414 49.7885C19.6474 48.1343 20.0635 46.4699 20.0736 44.8157C20.0838 43.334 20.6724 42.0553 21.1189 40.7665C21.7481 38.96 22.6818 37.2754 24.0011 35.7734C26.5484 32.9013 29.6031 31.2268 33.4596 31.1254C35.4893 31.0746 37.5088 31.0036 39.4878 31.7952C42.3497 32.9419 44.6331 34.7281 46.2366 37.3261C46.8759 38.3714 47.3529 39.5182 47.8197 40.665C48.6722 42.7556 48.6215 44.9274 48.4286 47.0586C48.2967 48.5605 47.8299 50.0727 47.2413 51.5848C48.246 50.6308 49.3928 49.9002 50.5801 49.2506C53.7871 47.4848 58.0292 47.5457 60.6576 50.5395C61.4289 51.4123 61.9972 52.4271 61.9566 53.6957C61.9059 55.1368 61.9465 56.5779 61.9465 58.019C61.9465 58.222 61.8856 58.4046 61.7131 58.5366C61.5406 57.9073 62.1292 57.1056 61.2767 56.6388C61.094 55.7457 60.546 55.0962 59.8863 54.5279C57.3999 52.4068 53.2492 52.5692 50.6207 54.8831C47.8197 57.3593 47.3427 60.5155 47.9517 63.9965C46.7744 63.621 45.5972 64.0675 44.3997 64.0269C33.8655 63.692 23.3212 63.692 12.7768 63.7326C12.5028 63.7326 12.1984 63.6616 11.9548 63.7428C10.2701 64.3517 9.21469 63.5398 8.38251 62.2103C7.57063 60.9012 6.44414 59.6732 6.0585 58.2422C5.55107 56.3445 5.62211 54.264 6.89068 52.5286C7.85479 51.2093 8.92038 50.0016 10.4731 49.2506C12.5028 48.2764 16.7043 48.7838 18.3281 50.3365C18.6021 50.6004 18.7645 51.1992 19.1603 51.0469C19.6778 50.844 19.3226 50.2249 19.414 49.7885Z" fill="#92C0E9"/>
<path fill-rule="evenodd" clip-rule="evenodd" d="M141.664 76.2563C141.664 77.5045 140.649 78.5194 139.401 78.5194H116.749C115.511 78.5194 114.486 77.5045 114.486 76.2563V62.7587C114.486 61.5105 115.501 60.4956 116.749 60.4956H139.401C140.639 60.4956 141.664 61.5105 141.664 62.7587V76.2563Z" fill="#76777A"/>
<path fill-rule="evenodd" clip-rule="evenodd" d="M126.918 66.9905C127.821 67.0311 128.724 67.0209 129.637 66.9905C130.449 66.9702 130.358 67.5081 130.368 68.0358C130.368 68.5331 130.399 69.01 129.668 68.9796C129.12 68.9492 128.562 68.9695 128.014 68.9695C127.659 68.9695 127.303 68.9492 126.948 68.9796C126.228 69.0303 125.781 68.9593 125.791 68.0053C125.801 67.092 126.157 66.9499 126.918 66.9905Z" fill="white"/>
</g>
<defs>
<clipPath id="clip0">
<rect width="220" height="174.535" fill="white"/>
</clipPath>
</defs>
</svg>
