<svg width="51" height="50" viewBox="0 0 51 50" fill="none" xmlns="http://www.w3.org/2000/svg">
<path d="M50.0996 25C50.0996 38.8046 38.9043 50 25.0996 50C11.295 50 0.0996094 38.8046 0.0996094 25C0.0996094 11.1954 11.295 0 25.0996 0C38.9141 0 50.0996 11.1954 50.0996 25Z" fill="#0095DA"/>
<path d="M35.0908 15.3614C34.7508 15.0414 34.2508 14.9314 33.7208 15.0414C33.5308 15.0814 33.3408 15.1514 33.1008 15.2514C27.1308 17.8014 21.1608 20.3614 15.1908 22.9214C14.9308 23.0314 14.6908 23.1814 14.5008 23.3414C13.9208 23.8314 13.8408 24.5614 14.2808 25.1914C14.5008 25.5114 14.8308 25.7414 15.2808 25.8914L15.8508 26.0914C16.9908 26.4814 18.1308 26.8814 19.2808 27.2614C19.3808 27.2914 19.4008 27.3114 19.4308 27.4014C19.8908 28.9714 20.3708 30.5414 20.8508 32.1014C20.9408 32.4014 21.0708 32.7914 21.2708 33.1514C21.4408 33.4614 21.7208 33.6714 22.0608 33.7314C22.4008 33.7914 22.7608 33.6914 23.0508 33.4514C23.1508 33.3614 23.2508 33.2714 23.3508 33.1714L25.5008 31.1814L26.3708 31.8614C27.3408 32.6214 28.3208 33.3814 29.3008 34.1414C29.4808 34.2814 29.7608 34.4614 30.0808 34.5414C30.2408 34.5814 30.4108 34.6114 30.5808 34.6114C30.9408 34.6114 31.2908 34.5114 31.5908 34.3214C32.0108 34.0614 32.2808 33.6714 32.3708 33.2314C32.4808 32.6614 32.5908 32.0914 32.7008 31.5314L35.2008 18.4814C35.3208 17.8914 35.4408 17.2814 35.5208 16.6714C35.5808 16.1414 35.4208 15.6714 35.0908 15.3614ZM27.4408 22.6714C26.0008 24.3714 23.6208 27.1814 22.9208 28.0214C22.7608 28.2214 22.6508 28.4414 22.5908 28.6814L22.3808 29.5714C22.2708 30.0514 22.1608 30.5414 22.0308 31.0414L20.8208 27.0414L27.4408 22.6714ZM27.0308 25.4414C30.5808 21.2914 30.8908 20.9314 30.9108 20.9114C31.1208 20.6114 31.1208 20.2814 30.9008 20.0014C30.6708 19.7114 30.2708 19.6514 29.9508 19.8514C29.8808 19.8914 29.6008 20.0614 29.1608 20.3114C27.2408 21.4214 22.7308 24.0314 20.0208 25.8414C19.9208 25.9114 19.8708 25.9214 19.7608 25.8814C19.1808 25.6814 18.5908 25.4814 18.0108 25.2714C17.3108 25.0314 16.6008 24.7914 15.9008 24.5414C15.8108 24.5114 15.7608 24.4714 15.7608 24.4214C15.7508 24.3414 15.8208 24.2314 15.8608 24.2114C21.7908 21.6614 27.7308 19.1214 33.6708 16.5814C33.8108 16.5214 33.9308 16.4814 34.0408 16.4714C34.0608 16.4714 34.0708 16.4714 34.0908 16.4614C34.0908 16.4714 34.0908 16.4814 34.0908 16.4914C34.0308 16.9514 33.9408 17.4114 33.8408 17.9114L31.3508 30.8714C31.2308 31.4914 31.1108 32.1014 31.0008 32.7214C30.9608 32.9414 30.8608 33.0914 30.7308 33.1414C30.5908 33.1914 30.4308 33.1414 30.2508 33.0114C29.5008 32.4314 28.7608 31.8514 28.0108 31.2614C27.2608 30.6814 26.5208 30.0914 25.7708 29.5114C25.4108 29.2314 25.0408 28.9514 24.6708 28.6814L24.4308 28.5014C24.8508 27.9914 25.9008 26.7614 27.0308 25.4414ZM24.3308 30.2914C24.1108 30.5114 23.8808 30.7714 23.6508 31.0214C23.5908 31.0914 23.5308 31.1514 23.4708 31.2214C23.5808 30.7914 23.7208 30.2914 23.8108 29.9014L24.3308 30.2914Z" fill="white"/>
</svg>
