<svg width="36" height="36" viewBox="0 0 36 36" fill="none" xmlns="http://www.w3.org/2000/svg">
<g clip-path="url(#clip0)">
<path d="M36.0718 18C36.0718 27.9393 28.0112 36 18.0718 36C8.13246 36 0.0717773 27.9393 0.0717773 18C0.0717773 8.06069 8.13246 0 18.0718 0C28.0182 0 36.0718 8.06069 36.0718 18Z" fill="#0095DA"/>
<path d="M25.2652 11.0605C25.0204 10.8301 24.6604 10.7509 24.2788 10.8301C24.142 10.8589 24.0052 10.9093 23.8324 10.9813C19.534 12.8173 15.2356 14.6605 10.9372 16.5037C10.75 16.5829 10.5772 16.6909 10.4404 16.8061C10.0228 17.1589 9.96518 17.6845 10.282 18.1381C10.4404 18.3685 10.678 18.5341 11.002 18.6421L11.4124 18.7861C12.2332 19.0669 13.054 19.3549 13.882 19.6285C13.954 19.6501 13.9684 19.6645 13.99 19.7293C14.3212 20.8597 14.6668 21.9901 15.0124 23.1133C15.0772 23.3293 15.1708 23.6101 15.3148 23.8693C15.4372 24.0925 15.6388 24.2437 15.8836 24.2869C16.1284 24.3301 16.3876 24.2581 16.5964 24.0853C16.6684 24.0205 16.7404 23.9557 16.8124 23.8837L18.3604 22.4509L18.9868 22.9405C19.6852 23.4877 20.3908 24.0349 21.0964 24.5821C21.226 24.6829 21.4276 24.8125 21.658 24.8701C21.7732 24.8989 21.8956 24.9205 22.018 24.9205C22.2772 24.9205 22.5292 24.8485 22.7452 24.7117C23.0476 24.5245 23.242 24.2437 23.3068 23.9269C23.386 23.5165 23.4652 23.1061 23.5444 22.7029L25.3444 13.3069C25.4308 12.8821 25.5172 12.4429 25.5748 12.0037C25.618 11.6221 25.5028 11.2837 25.2652 11.0605ZM19.7572 16.3237C18.7204 17.5477 17.0068 19.5709 16.5028 20.1757C16.3876 20.3197 16.3084 20.4781 16.2652 20.6509L16.114 21.2917C16.0348 21.6373 15.9556 21.9901 15.862 22.3501L14.9908 19.4701L19.7572 16.3237ZM19.462 18.3181C22.018 15.3301 22.2412 15.0709 22.2556 15.0565C22.4068 14.8405 22.4068 14.6029 22.2484 14.4013C22.0828 14.1925 21.7948 14.1493 21.5644 14.2933C21.514 14.3221 21.3124 14.4445 20.9956 14.6245C19.6132 15.4237 16.366 17.3029 14.4148 18.6061C14.3428 18.6565 14.3068 18.6637 14.2276 18.6349C13.81 18.4909 13.3852 18.3469 12.9676 18.1957C12.4636 18.0229 11.9524 17.8501 11.4484 17.6701C11.3836 17.6485 11.3476 17.6197 11.3476 17.5837C11.3404 17.5261 11.3908 17.4469 11.4196 17.4325C15.6892 15.5965 19.966 13.7677 24.2428 11.9389C24.3436 11.8957 24.43 11.8669 24.5092 11.8597C24.5236 11.8597 24.5308 11.8597 24.5452 11.8525C24.5452 11.8597 24.5452 11.8669 24.5452 11.8741C24.502 12.2053 24.4372 12.5365 24.3652 12.8965L22.5724 22.2277C22.486 22.6741 22.3996 23.1133 22.3204 23.5597C22.2916 23.7181 22.2196 23.8261 22.126 23.8621C22.0252 23.8981 21.91 23.8621 21.7804 23.7685C21.2404 23.3509 20.7076 22.9333 20.1676 22.5085C19.6276 22.0909 19.0948 21.6661 18.5548 21.2485C18.2956 21.0469 18.0292 20.8453 17.7628 20.6509L17.59 20.5213C17.8924 20.1541 18.6484 19.2685 19.462 18.3181ZM17.518 21.8101C17.3596 21.9685 17.194 22.1557 17.0284 22.3357C16.9852 22.3861 16.942 22.4293 16.8988 22.4797C16.978 22.1701 17.0788 21.8101 17.1436 21.5293L17.518 21.8101Z" fill="white"/>
</g>
<defs>
<clipPath id="clip0">
<rect width="36" height="36" fill="white"/>
</clipPath>
</defs>
</svg>
