<svg width="32" height="32" viewBox="0 0 32 32" fill="none" xmlns="http://www.w3.org/2000/svg">
<g clip-path="url(#clip0)">
<path d="M31.5059 3.17871C31.115 2.70068 30.5296 2.4375 29.8572 2.4375C29.4917 2.4375 29.1045 2.5144 28.7066 2.6665L1.61919 13.0066C0.181691 13.5552 -0.0119127 14.3784 0.000538505 14.8203C0.0129897 15.2622 0.25298 16.0732 1.71929 16.5398C1.72808 16.5425 1.73687 16.5452 1.74566 16.5476L7.36431 18.1555L10.4029 26.8445C10.8172 28.0291 11.7471 28.7649 12.8301 28.7649C13.513 28.7649 14.1846 28.4788 14.7725 27.9377L18.2479 24.7378L23.2886 28.7966C23.2891 28.7971 23.2898 28.7974 23.2903 28.7979L23.3382 28.8364C23.3426 28.8398 23.3472 28.8435 23.3516 28.8469C23.9119 29.2815 24.5235 29.511 25.1209 29.5112H25.1211C26.2884 29.5112 27.2178 28.6472 27.4886 27.3103L31.9268 5.39526C32.105 4.51562 31.9556 3.72852 31.5059 3.17871ZM9.24395 17.8501L20.084 12.3123L13.3343 19.4844C13.2237 19.6018 13.1453 19.7456 13.1067 19.9021L11.8052 25.1741L9.24395 17.8501ZM13.5022 26.5583C13.4573 26.5996 13.4122 26.6365 13.367 26.6704L14.5745 21.7798L16.771 23.5486L13.5022 26.5583ZM30.0892 5.02295L25.6509 26.9382C25.6082 27.1479 25.4717 27.636 25.1209 27.636C24.9476 27.636 24.7298 27.5415 24.5069 27.3699L18.795 22.7708C18.7942 22.77 18.7933 22.7693 18.7923 22.7688L15.3936 20.032L25.1546 9.66016C25.4671 9.32812 25.4954 8.81958 25.2217 8.45483C24.9478 8.09009 24.4515 7.97534 24.0455 8.18286L7.99126 16.3845L2.29619 14.7551L29.3753 4.41821C29.6041 4.33081 29.7637 4.3125 29.8572 4.3125C29.9146 4.3125 30.0167 4.31934 30.0545 4.36597C30.1043 4.42676 30.1678 4.63403 30.0892 5.02295Z" fill="white"/>
</g>
<defs>
<clipPath id="clip0">
<rect width="32" height="32" fill="white"/>
</clipPath>
</defs>
</svg>
