<svg width="222" height="77" viewBox="0 0 222 77" fill="none" xmlns="http://www.w3.org/2000/svg">
<path d="M308.06 64.811C306.76 50.911 280.86 53.111 280.86 53.111C280.86 53.111 280.86 53.111 280.86 53.011C280.86 53.011 280.86 52.9109 280.76 52.9109C280.76 52.9109 280.76 52.911 280.76 52.811C280.76 52.811 280.66 52.711 280.66 52.611C280.66 52.611 280.66 52.611 280.66 52.511C280.66 52.411 280.56 52.411 280.46 52.311C278.16 49.211 269.06 37.4109 256.66 32.4109C244.66 27.6109 230.96 30.611 230.96 30.611C230.96 30.611 228.16 17.511 209.46 11.711C188.86 5.31096 180.26 13.711 180.26 13.711C180.26 13.711 178.56 2.11096 142.56 0.110957C106.56 -1.88904 98.4599 23.811 98.4599 23.811C98.4599 23.811 89.2599 20.211 76.3599 21.811C63.3599 23.411 57.4599 33.711 57.4599 33.711C57.4599 33.711 47.7598 31.911 38.6598 34.611C32.6598 36.411 28.3599 40.111 25.5599 43.711C24.6599 44.911 23.8598 46.111 23.1598 47.211C22.9598 47.511 22.8598 47.711 22.6598 48.011C21.6598 49.911 20.9598 51.411 20.6598 52.311C20.6598 52.411 20.5599 52.511 20.5599 52.611C20.5599 52.711 20.4599 52.811 20.4599 52.811C20.4599 52.911 20.4599 52.9109 20.4599 52.9109C20.4599 52.9109 5.85989 49.511 1.45989 58.711C-3.64011 69.111 6.25988 75.9109 6.25988 75.9109L301.76 76.311C301.56 76.411 308.76 72.711 308.06 64.811Z" fill="white"/>
</svg>
