<svg width="1140" height="312" viewBox="0 0 1140 312" fill="none" xmlns="http://www.w3.org/2000/svg">
<path d="M1140.2 0H-1V311.7H1140.2V0Z" fill="#4858CC"/>
<path opacity="0.5" d="M-1 0V302C15.5493 300.664 31.9983 298.814 47.0432 296.038C189.869 270.34 270.509 229.121 410.827 216.786C581.034 201.779 622.759 227.888 745.725 208.255C868.591 188.622 904.197 151.822 1004.2 128.797C1065.78 114.612 1140 133.834 1140 133.834V0H-1Z" fill="url(#paint0_linear)"/>
<path d="M1140 0H-1V312H1140V0Z" fill="url(#paint1_linear)"/>
<path d="M167.8 187.9C167.8 190 166.1 191.7 164 191.7C161.9 191.7 160.2 190 160.2 187.9C160.2 185.8 161.9 184.1 164 184.1C166.1 184 167.8 185.8 167.8 187.9Z" fill="white"/>
<path fill-rule="evenodd" clip-rule="evenodd" d="M963.4 184.4C964.8 192.7 966.1 199.4 966.9 206.1C967.3 209.6 968.8 210.2 971.9 209.5C980.8 207.6 989.7 206 999.2 205.1C991.1 210.3 982.9 215.5 974.1 221.1C980.3 225.9 986.2 230.4 992 234.9C991.9 235.2 991.8 235.4 991.7 235.7C984.2 234.1 976.8 232.7 969.4 230.8C965.6 229.8 963.4 230.1 962.2 234.5C960.6 240 958 245.2 955.2 252.1C954 244.5 952.9 238.6 952.2 232.6C951.6 228.1 950.3 226.2 945.2 227.9C938.8 230.1 932.2 231.4 923.9 233.6C931.5 227.4 937.7 222.1 944.2 217.3C947.5 214.8 948.4 213 945.3 209.7C941.8 205.9 938.8 201.5 936.1 196.7C941.2 199.5 946.3 202.1 951.2 205.1C954 206.8 955.1 206.2 956.2 203.2C958 197.3 960.5 191.7 963.4 184.4Z" fill="#8498E9"/>
<path fill-rule="evenodd" clip-rule="evenodd" d="M870.9 50.8996C873.2 51.4996 875.5 52.1996 877.8 52.7996C878.3 52.8996 879.3 53.3996 878.9 52.1996C878 49.3996 878.7 46.4996 878.3 43.5996C879.4 45.4996 880.7 47.2996 881.7 49.2996C882.5 50.7996 883.1 50.7996 884.3 49.6996C886.4 47.9996 888.6 46.3996 891 44.8996C889.7 47.1996 888.5 49.4996 887.1 51.6996C886.2 53.0996 886.8 53.3996 888 53.6996C890.5 54.2996 893 54.8996 896 55.5996C892.7 56.0996 889.9 56.4996 887.1 56.7996C885.7 56.8996 885.2 57.3996 885.3 58.8996C885.4 61.8996 885.3 64.8996 885.3 67.8996C884.1 65.7996 882.8 63.6996 881.7 61.4996C881.1 60.1996 880.5 59.8996 879.1 60.5996C876.9 61.7996 874.6 62.6996 872 63.5996C873.4 61.7996 874.7 59.8996 876.3 58.1996C877.5 56.8996 877.2 56.1996 875.9 55.2996C874.1 53.9996 872.5 52.5996 870.8 51.2996C870.9 51.0996 870.9 50.9996 870.9 50.8996Z" fill="#F6C435"/>
<path d="M1083.5 207.601C1083.5 210.701 1081 213.201 1077.9 213.201C1074.8 213.201 1072.3 210.701 1072.3 207.601C1072.3 204.501 1074.8 202.001 1077.9 202.001C1081 201.901 1083.5 204.401 1083.5 207.601Z" fill="white"/>
<path d="M1002.9 78.3C1002.9 80.4 1001.2 82.1 999.1 82.1C997 82.1 995.3 80.4 995.3 78.3C995.3 76.2 997 74.5 999.1 74.5C1001.2 74.5 1002.9 76.2 1002.9 78.3Z" fill="white"/>
<defs>
<linearGradient id="paint0_linear" x1="-300.994" y1="471.35" x2="642.324" y2="54.0406" gradientUnits="userSpaceOnUse">
<stop offset="0.00390625" stop-color="#0058CC"/>
<stop offset="0.475" stop-color="#7D58CC"/>
<stop offset="0.5843" stop-color="#9B58CC"/>
<stop offset="0.9983" stop-color="#D63ACC"/>
</linearGradient>
<linearGradient id="paint1_linear" x1="569.507" y1="87.3117" x2="570" y2="312" gradientUnits="userSpaceOnUse">
<stop stop-color="white" stop-opacity="0"/>
<stop offset="1" stop-color="#9DA9BB" stop-opacity="0.24"/>
</linearGradient>
</defs>
</svg>
