<svg width="36" height="36" viewBox="0 0 36 36" fill="none" xmlns="http://www.w3.org/2000/svg">
<path d="M5.74497 21.0513C5.53321 21.3181 5.26529 21.5379 4.95908 21.6962C4.65288 21.8545 4.31543 21.9476 3.96924 21.9692C3.62305 21.9909 3.27607 21.9407 2.95146 21.8219C2.62685 21.7031 2.33207 21.5185 2.08677 21.2803C1.84146 21.0422 1.65128 20.756 1.52891 20.4409C1.40654 20.1258 1.3548 19.7889 1.37713 19.4528C1.39945 19.1168 1.49532 18.7892 1.65837 18.4919C1.82142 18.1947 2.0479 17.9346 2.32268 17.729L18.4032 2.20115C18.615 1.9344 18.8829 1.71456 19.1891 1.55628C19.4953 1.39799 19.8328 1.3049 20.179 1.28323C20.5252 1.26156 20.8721 1.31179 21.1967 1.43059C21.5213 1.54938 21.8161 1.73401 22.0614 1.97214C22.3067 2.21028 22.4969 2.49645 22.6193 2.81158C22.7417 3.1267 22.7934 3.46354 22.7711 3.79961C22.7488 4.13569 22.6529 4.46328 22.4898 4.76054C22.3268 5.0578 22.1003 5.31789 21.8255 5.52347L5.74497 21.0513Z" fill="#FF6B00"/>
<path d="M18.4217 33.3579C18.21 33.6247 17.942 33.8446 17.6358 34.0028C17.3296 34.1611 16.9922 34.2542 16.646 34.2759C16.2998 34.2975 15.9528 34.2473 15.6282 34.1285C15.3036 34.0097 15.0088 33.8251 14.7635 33.587C14.5182 33.3488 14.328 33.0627 14.2057 32.7475C14.0833 32.4324 14.0316 32.0956 14.0539 31.7595C14.0762 31.4234 14.1721 31.0958 14.3351 30.7986C14.4982 30.5013 14.7247 30.2412 14.9994 30.0356L31.08 14.5078C31.2917 14.241 31.5597 14.0212 31.8659 13.8629C32.1721 13.7046 32.5095 13.6115 32.8557 13.5899C33.2019 13.5682 33.5489 13.6184 33.8735 13.7372C34.1981 13.856 34.4929 14.0406 34.7382 14.2788C34.9835 14.5169 35.1737 14.8031 35.296 15.1182C35.4184 15.4333 35.4702 15.7702 35.4478 16.1063C35.4255 16.4423 35.3296 16.7699 35.1666 17.0672C35.0035 17.3645 34.7771 17.6245 34.5023 17.8301L18.4217 33.3579Z" fill="#fff"/>
<path d="M5.37292 9.15968C5.16115 9.42643 4.89323 9.64629 4.58703 9.80457C4.28082 9.96286 3.94336 10.0559 3.59717 10.0776C3.25098 10.0993 2.90402 10.049 2.57941 9.93025C2.2548 9.81145 1.96 9.62684 1.71469 9.3887C1.46939 9.15057 1.27923 8.86439 1.15686 8.54926C1.03449 8.23413 0.982733 7.8973 1.00506 7.56122C1.02738 7.22515 1.12327 6.89755 1.28632 6.6003C1.44937 6.30304 1.67583 6.04294 1.95061 5.83737L5.98295 1.92283C6.19472 1.65608 6.46264 1.43624 6.76884 1.27796C7.07505 1.11967 7.41249 1.02658 7.75868 1.00491C8.10487 0.983238 8.45185 1.03347 8.77646 1.15227C9.10108 1.27106 9.39586 1.45569 9.64116 1.69382C9.88646 1.93196 10.0766 2.21813 10.199 2.53326C10.3214 2.84838 10.3731 3.18523 10.3508 3.5213C10.3285 3.85738 10.2326 4.18497 10.0696 4.48223C9.9065 4.77949 9.68002 5.03957 9.40525 5.24515L5.37292 9.15968Z" fill="#fff"/>
<path d="M30.7137 33.7661C30.502 34.0329 30.2341 34.2527 29.9279 34.411C29.6216 34.5693 29.2842 34.6624 28.938 34.684C28.5918 34.7057 28.2448 34.6555 27.9202 34.5367C27.5956 34.4179 27.3008 34.2333 27.0555 33.9951C26.8102 33.757 26.62 33.4708 26.4977 33.1557C26.3753 32.8406 26.3236 32.5037 26.3459 32.1677C26.3682 31.8316 26.4641 31.504 26.6271 31.2067C26.7902 30.9095 27.0167 30.6494 27.2914 30.4438L31.3238 26.5293C31.5355 26.2625 31.8034 26.0427 32.1096 25.8844C32.4159 25.7261 32.7533 25.633 33.0995 25.6114C33.4457 25.5897 33.7927 25.6399 34.1173 25.7587C34.4419 25.8775 34.7367 26.0621 34.982 26.3003C35.2273 26.5384 35.4174 26.8246 35.5398 27.1397C35.6622 27.4548 35.7139 27.7917 35.6916 28.1277C35.6693 28.4638 35.5734 28.7914 35.4104 29.0887C35.2473 29.3859 35.0208 29.646 34.7461 29.8516L30.7137 33.7661Z" fill="#FF9E18"/>
<path d="M34.9229 1.78054L34.8314 1.70946C34.4544 1.34101 33.9449 1.12874 33.41 1.11725H33.3185H33.227H26.5349C26.236 1.09549 25.9358 1.13385 25.6528 1.22994C25.3699 1.32602 25.1105 1.47777 24.8908 1.67567C24.6711 1.87357 24.4958 2.11336 24.3759 2.38005C24.2561 2.64674 24.1942 2.93457 24.1942 3.22554C24.1942 3.5165 24.2561 3.80433 24.3759 4.07102C24.4958 4.3377 24.6711 4.5775 24.8908 4.7754C25.1105 4.9733 25.3699 5.12505 25.6528 5.22113C25.9358 5.31722 26.236 5.35558 26.5349 5.33382H27.816L2.09078 30.3134C1.81368 30.5182 1.58495 30.7783 1.41998 31.076C1.25501 31.3738 1.15763 31.7024 1.13436 32.0398C1.11109 32.3771 1.16248 32.7154 1.28508 33.0319C1.40768 33.3484 1.59865 33.6357 1.84515 33.8746C2.09165 34.1135 2.38797 34.2983 2.71418 34.4168C3.0404 34.5352 3.38894 34.5845 3.73641 34.5613C4.08388 34.5381 4.42222 34.443 4.72867 34.2823C5.03512 34.1216 5.30257 33.8991 5.51307 33.6298L31.2322 8.66205V9.84648C31.2098 10.1366 31.2493 10.4282 31.3483 10.7028C31.4472 10.9774 31.6036 11.2293 31.8074 11.4426C32.0113 11.6559 32.2583 11.826 32.533 11.9424C32.8077 12.0588 33.1042 12.1188 33.4039 12.1188C33.7036 12.1188 34.0001 12.0588 34.2749 11.9424C34.5496 11.826 34.7966 11.6559 35.0004 11.4426C35.2043 11.2293 35.3606 10.9774 35.4596 10.7028C35.5585 10.4282 35.5981 10.1366 35.5756 9.84648V3.53348C35.6014 3.21305 35.5564 2.89097 35.4439 2.58871C35.3313 2.28645 35.1538 2.01094 34.9229 1.78054Z" fill="#26A7FF"/>
</svg>
