<svg width="313" height="590" viewBox="0 0 313 590" fill="none" xmlns="http://www.w3.org/2000/svg">
<path fill-rule="evenodd" clip-rule="evenodd" d="M186.524 7.29999C188.824 7.89999 191.124 8.59998 193.424 9.19998C193.924 9.29998 194.924 9.80001 194.524 8.60001C193.624 5.80001 194.324 2.9 193.924 0C195.024 1.9 196.324 3.69998 197.324 5.69998C198.124 7.19998 198.724 7.20001 199.924 6.10001C202.024 4.40001 204.224 2.79999 206.624 1.29999C205.324 3.59999 204.124 5.90001 202.724 8.10001C201.824 9.50001 202.424 9.80001 203.624 10.1C206.124 10.7 208.624 11.3 211.624 12C208.324 12.5 205.524 12.9 202.724 13.2C201.324 13.3 200.824 13.8 200.924 15.3C201.024 18.3 200.924 21.3 200.924 24.3C199.724 22.2 198.424 20.1 197.324 17.9C196.724 16.6 196.124 16.3 194.724 17C192.524 18.2 190.224 19.1 187.624 20C189.024 18.2 190.324 16.3 191.924 14.6C193.124 13.3 192.824 12.6 191.524 11.7C189.724 10.4 188.124 8.99998 186.424 7.69998C186.424 7.49998 186.424 7.39999 186.524 7.29999Z" fill="#FF6B00"/>
<path d="M239.924 344.201H194.024C192.024 344.201 190.324 342.601 190.324 340.501C190.324 338.501 191.924 336.801 194.024 336.801H239.924C241.924 336.801 243.624 338.401 243.624 340.501C243.524 342.501 241.924 344.201 239.924 344.201Z" fill="#CFD2D3"/>
<path d="M312.124 519.001L181.724 163.201C181.224 161.701 179.824 160.801 178.224 160.801H128.224C127.024 160.801 125.924 161.401 125.224 162.401C124.524 163.401 124.324 164.601 124.824 165.801L255.224 521.701C255.924 523.601 258.024 524.601 259.924 523.901C261.824 523.201 262.824 521.101 262.124 519.201L182.924 304.401H224.524C224.724 304.401 224.924 304.401 225.124 304.301L305.224 521.501C305.724 523.001 307.224 523.901 308.724 523.901C309.124 523.901 309.524 523.801 310.024 523.701C311.824 523.001 312.824 520.901 312.124 519.001ZM175.724 168.101L208.324 258.001H166.124L133.524 168.101H175.724ZM180.224 297.001L168.824 265.401H210.424C210.624 265.401 210.824 265.401 211.024 265.301L222.524 297.001H180.224Z" fill="#CFD2D3"/>
<path d="M179.624 162.301C178.924 161.301 177.824 160.701 176.624 160.701H126.624C125.124 160.701 123.724 161.701 123.124 163.101L-16.7763 550.801C-17.4763 552.701 -16.4763 554.801 -14.5763 555.501C-12.6763 556.201 -10.5763 555.201 -9.87628 553.301L35.8237 425.301H78.0237L33.3237 550.801C32.6237 552.701 33.6237 554.801 35.5237 555.501C35.9237 555.701 36.3237 555.701 36.8237 555.701C38.3237 555.701 39.7237 554.801 40.3237 553.301L180.224 165.701C180.524 164.501 180.324 163.301 179.624 162.301ZM38.5237 417.901L49.1237 388.601H91.3237L80.7237 417.901H38.5237ZM94.0237 381.301C93.9237 381.301 93.7237 381.301 93.6237 381.301H51.8237L74.9237 317.501H117.124L94.0237 381.301ZM119.824 310.201C119.624 310.201 119.424 310.101 119.224 310.101H77.6237L89.8237 276.501H132.024L119.824 310.201ZM134.624 269.301C134.324 269.201 134.124 269.201 133.824 269.201H92.5237L102.024 242.901H144.224L134.624 269.301ZM146.924 235.501H104.724L115.324 206.201H157.524L146.924 235.501ZM160.224 198.901H160.124H118.024L129.224 168.201H171.424L160.224 198.901Z" fill="white"/>
<path fill-rule="evenodd" clip-rule="evenodd" d="M190.824 82.6998C187.524 81.9998 184.524 80.5999 181.424 79.2999C182.924 76.3999 184.324 73.3999 185.824 70.4999C186.224 69.6999 187.224 67.1999 188.024 70.4999C188.324 71.5999 189.224 70.6999 189.724 70.2999C190.924 69.2999 192.024 68.3999 193.124 67.2999C194.924 65.3999 196.824 66.5999 197.924 67.7999C199.024 68.9999 199.724 70.8999 197.524 72.3999C193.824 74.7999 192.824 79.0998 190.824 82.6998Z" fill="#E4989C"/>
<path fill-rule="evenodd" clip-rule="evenodd" d="M154.124 98.3C151.324 98.3 148.424 98.3 145.624 98.3C147.524 95.8 145.324 94.3 144.224 92.5C145.024 91.8 146.824 90.7 146.624 90.3C144.924 86.1 148.824 84.6 150.324 82C155.524 82.8 157.424 87.2 154.624 92.3C153.524 94.3 154.524 96.3 154.124 98.3Z" fill="#E4989C"/>
<path fill-rule="evenodd" clip-rule="evenodd" d="M107.924 144.9C110.624 146.9 113.324 148.9 116.024 150.9C114.724 152.8 113.424 154.6 112.024 156.4C111.424 157.2 110.924 158.3 109.624 157.9C108.324 157.5 109.324 156.1 108.724 155.2C106.924 155.7 106.124 157.5 104.724 158.5C103.824 159.1 103.124 161.2 101.424 159.3C100.124 157.8 98.0238 156.4 99.9238 154.1C102.524 151 105.224 148 107.924 144.9ZM104.424 152C104.424 152.1 104.324 152.2 104.324 152.4C104.324 152.2 104.424 152.1 104.424 152C104.724 151.7 104.924 151.5 105.224 151.2L105.424 151L105.124 151.2C104.924 151.4 104.624 151.7 104.424 152ZM102.024 155C101.824 155.3 101.524 155.5 101.324 155.8C101.224 155.9 101.124 156 100.924 156.1C101.024 156 101.224 155.9 101.324 155.8C101.624 155.5 101.824 155.3 102.024 155C102.124 154.9 102.224 154.8 102.324 154.6C102.324 154.7 102.124 154.8 102.024 155Z" fill="#E4989C"/>
<path fill-rule="evenodd" clip-rule="evenodd" d="M150.224 81.9998C149.424 83.6998 147.324 84.5998 146.624 86.5998C145.924 88.4998 148.124 91.5998 146.724 93.1998C145.224 94.8998 144.024 92.3998 143.524 91.0998C142.724 88.9998 142.924 86.8998 144.224 85.0998C144.724 84.2998 145.024 83.5998 144.624 82.5998C142.524 77.3998 149.924 74.8998 150.424 80.0998C150.624 80.8998 150.424 81.4998 150.224 81.9998Z" fill="#291930"/>
<path fill-rule="evenodd" clip-rule="evenodd" d="M181.424 79.3008C179.024 84.6008 176.524 89.8008 174.124 95.1008C173.524 96.4008 173.024 97.4008 171.224 97.5008C165.524 97.7008 159.924 98.0008 154.324 98.3008C151.524 98.3008 148.624 98.3008 145.824 98.3008C133.224 113.801 120.624 129.401 108.024 144.901C110.724 146.901 113.424 148.901 116.124 150.901C120.424 145.701 124.924 140.601 128.924 135.201C132.224 130.701 135.424 126.101 139.224 122.101C140.424 122.001 141.624 121.901 142.824 121.801C143.324 121.601 143.724 121.401 144.224 121.201C147.924 120.401 151.824 119.901 155.324 118.301C155.224 115.901 155.324 113.501 155.024 111.101C154.824 109.001 155.524 108.701 157.624 108.901C163.224 109.501 168.924 109.901 174.424 107.601C179.424 106.501 181.624 102.601 183.824 98.6008C186.824 93.6008 189.124 88.2008 191.024 82.7008C187.524 81.9008 184.424 80.5008 181.424 79.3008Z" fill="#9933CC"/>
<path d="M158.124 154.1L166.624 135.5L171.024 136.6L166.624 155.1L158.124 154.1Z" fill="#76777A"/>
<path d="M108.824 194.701L118.724 173.201L123.924 174.401L118.724 195.901L108.824 194.701Z" fill="#76777A"/>
<path d="M161.424 141.801L159.424 148.101C159.424 148.101 158.324 150.601 161.424 149.701C164.624 148.801 168.224 147.301 168.224 147.301L170.324 136.701L164.724 137.901L161.424 141.801Z" fill="#4F4C6F"/>
<path d="M117.024 167.801C114.824 172.401 113.724 177.701 112.124 182.401C111.524 184.101 110.524 185.601 110.124 187.301C109.824 188.701 118.924 187.501 119.924 186.701C123.524 183.701 124.124 175.101 126.224 170.801C128.824 165.501 135.624 153.001 124.024 159.701C120.724 161.701 118.524 164.601 117.024 167.801Z" fill="#4F4C6F"/>
<path fill-rule="evenodd" clip-rule="evenodd" d="M155.124 118.3C158.924 118.5 162.424 117.4 165.924 116.4C170.824 114.9 174.324 117.6 177.824 119.9C179.524 121 179.424 123.5 178.824 125.6C176.824 132.3 174.724 139 172.724 145.7C171.824 148.7 170.324 150.2 167.024 149.7C165.024 149.4 163.024 149.6 160.524 149.6C161.724 146.4 164.124 144.7 165.724 142.3C166.924 140.5 163.424 141.7 160.424 144.2C161.824 140.5 163.324 136.8 164.724 133.1C165.024 132.2 166.024 131.2 165.124 130.3C164.224 129.5 163.224 130.4 162.324 130.7C145.824 135.7 145.824 135.7 139.424 151.8C138.424 154.4 137.324 157 136.324 159.6C135.424 161.5 134.524 163.5 133.624 165.4C132.724 167.8 131.824 170.2 130.824 172.6C129.624 175.5 128.424 178.4 127.224 181.3C125.724 189.1 119.524 188.9 113.224 187.3C113.824 186.3 114.724 184.1 114.524 184.2C112.324 184.6 112.524 186.9 109.724 187.2C111.324 182 113.524 177.3 115.724 172.6C115.824 173.8 126.024 164.6 128.924 159.1C128.924 158.8 128.924 158.6 128.924 158.3C128.724 158.4 121.824 165.4 118.024 168.3C116.924 167.4 117.724 166.6 118.024 165.9C120.924 158.7 124.324 151.9 127.224 144.8C130.424 137 133.424 128.5 137.924 122C147.524 119.8 149.324 119.3 155.124 118.3Z" fill="#291930"/>
<path fill-rule="evenodd" clip-rule="evenodd" d="M178.624 159.501C177.624 159.601 176.624 159.701 175.624 159.801C168.624 159.701 161.524 159.601 154.524 159.501C155.324 156.901 156.124 151.701 158.724 150.901C162.424 149.601 166.124 151.501 170.124 152.201C171.524 152.401 172.624 154.201 173.924 155.301C175.424 156.701 177.524 157.601 178.624 159.501Z" fill="#291930"/>
<path fill-rule="evenodd" clip-rule="evenodd" d="M119.724 198.2C115.924 198.2 112.124 198.2 108.324 198.2C107.124 197.9 105.424 197.8 106.224 196C107.124 193.8 107.924 188.7 111.224 188.4C115.324 188.1 118.624 190.1 122.724 190.1C124.624 190.1 125.424 191.8 126.524 192.9C127.924 194.5 129.224 196.2 130.624 197.8C127.024 198.6 123.324 198.2 119.724 198.2Z" fill="#291930"/>
<path d="M176.924 574.8C175.224 557.7 143.324 560.4 143.324 560.4C143.324 560.4 143.324 560.4 143.324 560.3C143.324 560.3 143.324 560.3 143.324 560.2L143.224 560.1C143.224 560.1 143.224 560.1 143.124 560C143.124 559.9 143.024 559.9 143.024 559.8C143.024 559.8 143.024 559.8 143.024 559.7C142.924 559.6 142.924 559.5 142.824 559.4C142.824 559.4 142.824 559.4 142.824 559.3C140.024 555.5 128.824 541 113.424 534.8C98.6237 528.8 81.7237 532.6 81.7237 532.6C81.7237 532.6 78.2237 516.5 55.2237 509.3C29.8237 501.4 19.2237 511.7 19.2237 511.7C19.2237 511.7 18.0237 504 -0.17627 498.9V588.8L169.124 589C168.924 589.1 177.824 584.5 176.924 574.8Z" fill="white"/>
</svg>
