<svg width="1140" height="312" viewBox="0 0 1140 312" fill="none" xmlns="http://www.w3.org/2000/svg">
<path d="M1141 0H0V312H1141V0Z" fill="#7C3AA6"/>
<path opacity="0.5" d="M0 0V294C16.5493 292.699 32.9983 290.898 48.0432 288.196C190.869 263.179 271.509 223.052 411.827 211.044C582.034 196.434 623.759 221.851 746.725 202.738C869.591 183.625 905.197 147.801 1005.2 125.385C1066.78 111.576 1141 130.289 1141 130.289V0H0Z" fill="url(#paint0_linear)"/>
<path fill-rule="evenodd" clip-rule="evenodd" d="M861.9 93.7004C864.2 94.3004 866.5 95.0004 868.8 95.6004C869.3 95.7004 870.3 96.2004 869.9 95.0004C869 92.2004 869.7 89.3004 869.3 86.4004C870.4 88.3004 871.7 90.1004 872.7 92.1004C873.5 93.6004 874.1 93.6004 875.3 92.5004C877.4 90.8004 879.6 89.2004 882 87.7004C880.7 90.0004 879.5 92.3004 878.1 94.5004C877.2 95.9004 877.8 96.2004 879 96.5004C881.5 97.1004 884 97.7004 887 98.4004C883.7 98.9004 880.9 99.3004 878.1 99.6004C876.7 99.7004 876.2 100.2 876.3 101.7C876.4 104.7 876.3 107.7 876.3 110.7C875.1 108.6 873.8 106.5 872.7 104.3C872.1 103 871.5 102.7 870.1 103.4C867.9 104.6 865.6 105.5 863 106.4C864.4 104.6 865.7 102.7 867.3 101C868.5 99.7004 868.2 99.0004 866.9 98.1004C865.1 96.8004 863.5 95.4004 861.8 94.1004C861.8 93.9004 861.9 93.8004 861.9 93.7004Z" fill="white"/>
<path d="M996 267.1C996 270.2 993.5 272.7 990.4 272.7C987.3 272.7 984.8 270.2 984.8 267.1C984.8 264 987.3 261.5 990.4 261.5C993.5 261.5 996 264 996 267.1Z" fill="white"/>
<path d="M1087.1 207.601C1087.1 210.701 1084.6 213.201 1081.5 213.201C1078.4 213.201 1075.9 210.701 1075.9 207.601C1075.9 204.501 1078.4 202.001 1081.5 202.001C1084.6 201.901 1087.1 204.401 1087.1 207.601Z" fill="white"/>
<path d="M1006.5 78.3C1006.5 80.4 1004.8 82.1 1002.7 82.1C1000.6 82.1 998.9 80.4 998.9 78.3C998.9 76.2 1000.6 74.5 1002.7 74.5C1004.8 74.5 1006.5 76.2 1006.5 78.3Z" fill="white"/>
<path d="M1141 149H0V312H1141V149Z" fill="url(#paint1_linear)"/>
<defs>
<linearGradient id="paint0_linear" x1="-299.988" y1="458.863" x2="634.89" y2="34.0348" gradientUnits="userSpaceOnUse">
<stop stop-color="#8A23AF"/>
<stop offset="1" stop-color="#BD55CC"/>
</linearGradient>
<linearGradient id="paint1_linear" x1="571" y1="149" x2="571" y2="312" gradientUnits="userSpaceOnUse">
<stop stop-color="white" stop-opacity="0"/>
<stop offset="1" stop-color="#9DA9BB" stop-opacity="0.24"/>
</linearGradient>
</defs>
</svg>
