<svg width="320" height="293" viewBox="0 0 320 293" fill="none" xmlns="http://www.w3.org/2000/svg">
<path d="M320 0H0V292.56H320V0Z" fill="#7C3AA6"/>
<path style="mix-blend-mode:multiply" d="M320 222.33H0.490234V292.82H320V222.33Z" fill="url(#paint0_linear)"/>
<path opacity="0.6" d="M0 223.56C45.24 224.56 73.22 229.15 124 221.22C198.67 209.55 220.31 187.77 281.06 174.11C293.84 171.23 307.52 170.67 320 171.18V0H0V223.56Z" fill="url(#paint1_linear)"/>
<g opacity="0.5">
<path opacity="0.5" fill-rule="evenodd" clip-rule="evenodd" d="M251.61 205.34C253.9 205.98 256.18 206.63 258.47 207.24C259 207.38 259.97 207.84 259.59 206.6C258.73 203.82 259.41 200.92 258.96 198C260.09 199.88 261.33 201.71 262.33 203.67C263.11 205.2 263.76 205.12 264.97 204.12C267.082 202.366 269.322 200.772 271.67 199.35C270.38 201.63 269.18 203.99 267.74 206.18C266.8 207.6 267.39 207.87 268.66 208.18C271.18 208.74 273.66 209.38 276.66 210.11C273.36 210.56 270.56 211.01 267.75 211.31C266.35 211.46 265.87 211.94 265.94 213.41C266.08 216.41 265.94 219.41 265.94 222.41C264.76 220.32 263.47 218.19 262.36 215.97C261.72 214.71 261.12 214.39 259.79 215.09C257.511 216.294 255.132 217.297 252.68 218.09C254.09 216.27 255.39 214.35 256.93 212.65C258.11 211.34 257.8 210.65 256.52 209.73C254.75 208.48 253.1 207.06 251.39 205.73C251.52 205.56 251.57 205.45 251.61 205.34Z" fill="white"/>
</g>
<path opacity="0.5" d="M293.49 256.17C293.49 256.961 293.256 257.734 292.816 258.392C292.377 259.05 291.752 259.563 291.021 259.865C290.29 260.168 289.486 260.247 288.71 260.093C287.934 259.939 287.221 259.558 286.662 258.998C286.102 258.439 285.721 257.726 285.567 256.95C285.413 256.174 285.492 255.37 285.795 254.639C286.097 253.908 286.61 253.284 287.268 252.844C287.926 252.405 288.699 252.17 289.49 252.17C290.551 252.17 291.569 252.591 292.319 253.341C293.069 254.092 293.49 255.109 293.49 256.17Z" fill="white"/>
<path opacity="0.5" d="M278.94 89.3599C278.942 89.8948 278.785 90.4182 278.489 90.8637C278.193 91.3093 277.772 91.6569 277.278 91.8625C276.784 92.0681 276.24 92.1224 275.716 92.0185C275.191 91.9147 274.709 91.6573 274.331 91.2791C273.953 90.9009 273.695 90.4189 273.591 89.8942C273.488 89.3695 273.542 88.8258 273.747 88.3321C273.953 87.8383 274.301 87.4167 274.746 87.1208C275.192 86.8249 275.715 86.668 276.25 86.6699C276.963 86.6699 277.648 86.9534 278.152 87.4578C278.657 87.9623 278.94 88.6465 278.94 89.3599Z" fill="white"/>
<defs>
<linearGradient id="paint0_linear" x1="160.25" y1="242.06" x2="160.25" y2="316.08" gradientUnits="userSpaceOnUse">
<stop stop-color="white" stop-opacity="0"/>
<stop offset="1" stop-color="#9DA9BB"/>
</linearGradient>
<linearGradient id="paint1_linear" x1="-110.07" y1="217.92" x2="246.37" y2="43.27" gradientUnits="userSpaceOnUse">
<stop stop-color="#0058CC"/>
<stop offset="0.48" stop-color="#7D58CC"/>
<stop offset="0.58" stop-color="#9B58CC"/>
<stop offset="1" stop-color="#D63ACC"/>
</linearGradient>
</defs>
</svg>
