<svg width="768" height="370" viewBox="0 0 768 370" fill="none" xmlns="http://www.w3.org/2000/svg">
<path d="M768 0H0V369.52H768V0Z" fill="#7C3AA6"/>
<path opacity="0.5" d="M0.27002 0V283.08C100.27 262.38 165.27 226.91 271.09 217.82C412.25 205.69 445.43 230.82 548.09 220.82C686.17 207.34 766.19 129.62 767.76 129.32V0H0.27002Z" fill="url(#paint0_linear)"/>
<path fill-rule="evenodd" clip-rule="evenodd" d="M655.27 93.65C657.55 94.28 659.84 94.93 662.13 95.54C662.65 95.68 663.63 96.15 663.24 94.9C662.38 92.13 663.07 89.22 662.62 86.3C663.75 88.19 665 90 666 92C666.78 93.54 667.43 93.46 668.63 92.45C670.748 90.7025 672.991 89.1116 675.34 87.69C674.04 89.97 672.84 92.32 671.4 94.51C670.46 95.94 671.05 96.21 672.33 96.51C674.85 97.06 677.33 97.7 680.33 98.43C677.03 98.89 674.23 99.33 671.41 99.63C670.02 99.78 669.54 100.26 669.6 101.73C669.74 104.73 669.6 107.73 669.6 110.73C668.43 108.63 667.14 106.5 666.02 104.29C665.39 103.03 664.78 102.7 663.45 103.4C661.174 104.602 658.798 105.605 656.35 106.4C657.75 104.57 659.06 102.66 660.6 100.95C661.78 99.64 661.47 98.95 660.18 98.03C658.42 96.78 656.76 95.37 655.06 94.03L655.27 93.65Z" fill="#F6C435"/>
<path d="M659 161.61C658.998 162.371 658.771 163.114 658.346 163.746C657.922 164.378 657.32 164.87 656.616 165.16C655.913 165.45 655.139 165.524 654.393 165.375C653.647 165.225 652.962 164.858 652.424 164.319C651.887 163.78 651.521 163.094 651.373 162.347C651.226 161.601 651.302 160.827 651.594 160.124C651.886 159.421 652.379 158.821 653.012 158.398C653.645 157.976 654.389 157.75 655.15 157.75C655.656 157.75 656.158 157.85 656.626 158.044C657.093 158.238 657.518 158.523 657.876 158.881C658.234 159.24 658.517 159.665 658.71 160.134C658.903 160.602 659.001 161.104 659 161.61Z" fill="white"/>
<path d="M713 227.66C712.996 228.776 712.661 229.866 712.037 230.792C711.413 231.718 710.528 232.437 709.495 232.86C708.462 233.283 707.326 233.389 706.233 233.166C705.139 232.943 704.136 232.4 703.351 231.607C702.566 230.813 702.034 229.804 701.822 228.708C701.611 227.612 701.729 226.478 702.163 225.449C702.596 224.421 703.326 223.544 704.258 222.93C705.19 222.316 706.284 221.992 707.4 222C708.139 222.004 708.871 222.153 709.552 222.44C710.234 222.727 710.852 223.145 711.372 223.67C711.892 224.196 712.304 224.819 712.583 225.503C712.862 226.188 713.004 226.921 713 227.66Z" fill="white"/>
<defs>
<linearGradient id="paint0_linear" x1="384" y1="12.06" x2="384" y2="335.76" gradientUnits="userSpaceOnUse">
<stop stop-color="#8A23AF"/>
<stop offset="1" stop-color="#BD55CC"/>
</linearGradient>
</defs>
</svg>
