<svg width="297" height="393" viewBox="0 0 297 393" fill="none" xmlns="http://www.w3.org/2000/svg">
<path fill-rule="evenodd" clip-rule="evenodd" d="M233.226 232.8C232.075 232.772 230.926 232.678 229.786 232.52C228.586 232.576 227.385 232.465 226.216 232.19C225.066 231.79 225.056 230.85 224.916 229.73C224.316 224.98 223.606 220.24 222.916 215.5H222.486L219.486 231.92L219.406 232.04C219.101 232.081 218.791 232.081 218.486 232.04H217.586C216.966 232.04 216.346 232.06 215.726 232.1C215.163 232.076 214.6 232.113 214.046 232.21C213.505 232.311 212.956 232.368 212.406 232.38C211.262 232.324 210.124 232.197 208.996 232C208.366 232 207.756 232 207.126 231.94C206.681 231.885 206.231 231.885 205.786 231.94C204.608 232.035 203.424 232.035 202.246 231.94C200.862 231.99 199.477 231.97 198.096 231.88C196.881 231.785 195.661 231.785 194.446 231.88C193.096 231.88 191.516 232.33 190.646 231.12C189.843 230.301 188.966 229.557 188.026 228.9C187.086 228.02 187.236 227.06 187.476 225.9C187.866 224.03 188.186 222.16 188.476 220.27C189.086 216.48 189.786 212.71 190.366 208.92C191.116 204.06 192.756 199.28 192.516 194.33C192.196 187.79 191.516 181.27 190.806 174.76C190.689 173.978 190.732 173.18 190.933 172.415C191.134 171.65 191.489 170.933 191.976 170.31C198.296 161.756 204.576 153.18 210.816 144.58C214.816 144.58 218.816 144.65 222.816 144.63C231.666 144.57 240.516 144.46 249.366 144.38C252.806 144.49 256.256 144.11 259.706 144.54C259.976 145.34 259.306 145.99 259.326 146.75C259.446 151.96 259.686 157.17 259.696 162.37C259.743 185.497 259.743 208.627 259.696 231.76C257.546 232.33 255.336 231.82 253.166 232.08H252.606H251.386C248.076 232.08 244.636 231.7 241.386 232.26C238.806 232.69 236.176 232.47 233.586 232.77L233.226 232.8ZM225.086 183.25C224.196 181.55 223.546 180.16 222.776 178.85C220.076 174.23 217.516 169.51 212.576 166.77C211.68 166.24 210.685 165.902 209.653 165.774C208.621 165.647 207.573 165.734 206.576 166.03C201.916 167.39 199.576 172.33 201.206 177.6C202.746 182.65 205.896 186.76 209.376 190.6C212.856 194.44 216.376 197.72 219.836 201.26C222.076 203.52 223.506 203.65 225.896 201.71C230.956 197.61 236.216 193.71 240.746 188.99C243.746 185.87 246.446 182.62 248.066 178.62C249.996 173.86 248.356 169.74 243.626 166.84C239.686 164.42 236.316 165.02 232.746 168.84C231.966 169.695 231.247 170.603 230.596 171.56C228.237 175.188 226.383 179.121 225.086 183.25Z" fill="#515FF9"/>
<path fill-rule="evenodd" clip-rule="evenodd" d="M24.4758 265.121C24.4758 261.981 24.4758 258.851 24.4758 255.721C24.5116 255.671 24.5309 255.612 24.5309 255.551C24.5309 255.49 24.5116 255.43 24.4758 255.38C24.4758 253.63 24.4758 251.881 24.5258 250.141C24.5645 250.098 24.5859 250.043 24.5859 249.986C24.5859 249.928 24.5645 249.873 24.5258 249.831C24.5258 249.471 24.5258 249.101 24.5258 248.741C24.5258 248.381 24.5258 247.921 24.5258 247.511C24.5258 247.101 24.5258 246.801 24.5258 246.451C24.5595 246.397 24.5774 246.334 24.5774 246.271C24.5774 246.207 24.5595 246.145 24.5258 246.091C24.5258 245.281 24.5258 244.471 24.5258 243.661C24.5615 243.615 24.5809 243.558 24.5809 243.5C24.5809 243.443 24.5615 243.387 24.5258 243.341V239.121C24.5648 239.073 24.5861 239.013 24.5861 238.951C24.5861 238.889 24.5648 238.829 24.5258 238.781V233.98C24.545 233.964 24.5603 233.943 24.5708 233.919C24.5813 233.896 24.5868 233.871 24.5868 233.846C24.5868 233.82 24.5813 233.795 24.5708 233.771C24.5603 233.748 24.545 233.727 24.5258 233.71V206.19C24.5648 206.142 24.5861 206.082 24.5861 206.021C24.5861 205.959 24.5648 205.899 24.5258 205.851L24.6758 203.541L33.9458 203.471L35.3258 205.791C35.5598 206.843 36.0055 207.836 36.6358 208.71L36.5758 208.571C36.5884 208.803 36.6481 209.029 36.7513 209.237C36.8544 209.445 36.9989 209.63 37.1758 209.781L37.1058 209.891L37.2058 209.971C37.2058 210.321 37.1258 210.751 37.5858 210.971C39.1465 214.484 40.9892 217.865 43.0958 221.081C43.2096 221.715 43.5689 222.279 44.0958 222.65L44.0258 222.531L44.6158 223.531C44.74 224.06 45.0439 224.53 45.4758 224.861L45.8358 225.48L45.8858 225.371L45.8159 225.471L46.9758 227.141C49.8258 232.271 54.1559 236.25 57.5659 240.94C57.2859 243.73 54.8458 390.38 54.8458 390.38L17.2158 392.641V382.96L24.6859 371.111V364.521C24.6859 364.521 24.5358 275.661 24.4758 274.361C24.4758 273.801 24.4758 273.241 24.4758 272.681C24.4758 271.391 24.4758 270.111 24.4758 268.821C24.4758 268.401 24.4758 267.981 24.4758 267.561V266.491V265.121Z" fill="#EE4036"/>
<path fill-rule="evenodd" clip-rule="evenodd" d="M251.466 232.06H251.956C252.196 232.06 257.626 232.27 259.776 231.7L259.656 249.7C259.656 249.7 260.106 261.09 259.656 266.7C259.386 269.7 259.906 358.15 259.906 358.15L276.796 375.08L274.006 387.82H233.466L227.546 253.92C227.546 253.92 226.186 239.37 225.496 232.09H233.496L251.466 232.06Z" fill="#4858CC"/>
<path fill-rule="evenodd" clip-rule="evenodd" d="M89.7462 264.01C89.9962 267.62 105.096 364.93 105.096 364.93L120.326 374.06L126.936 390.3H88.1962C88.1962 390.3 65.1962 277.87 65.0462 276.83C63.8062 269.41 62.5762 261.98 61.5362 254.53C60.9962 250.64 59.3562 246.94 59.5362 242.93L64.1262 247L64.9462 247.66H64.7962L65.8762 248.59C68.3362 250.59 70.4162 253.039 73.3262 254.459C74.2662 255.119 75.1962 255.789 76.1362 256.459C80.4462 259.379 85.2862 261.43 89.7462 264.01Z" fill="#EE4036"/>
<path fill-rule="evenodd" clip-rule="evenodd" d="M215.736 232.12C215.069 232.12 214.403 232.12 213.736 232.12C213 232.218 212.256 232.242 211.516 232.19C210.636 232.01 210.856 231.59 211.296 231.04C211.866 230.29 212.296 229.43 212.846 228.64C213.784 227.306 214.462 225.806 214.846 224.22C215.001 223.739 215.001 223.222 214.846 222.74C214.711 222.539 214.525 222.376 214.308 222.269C214.09 222.162 213.848 222.114 213.606 222.13C213.129 222.18 212.669 222.335 212.259 222.584C211.849 222.833 211.5 223.17 211.236 223.57C209.456 226.36 207.606 229.12 205.786 231.89H210.286C207.286 236.73 203.636 239.95 198.136 240.52C193.796 240.97 189.466 241.52 185.136 241.52C184.426 246.85 183.736 252.18 183.026 257.52C182.356 262.52 180.686 365.02 180.686 365.02L165.966 378.77L168.076 387.77H204.576C204.836 386.32 205.576 382.51 204.576 387.77H210.576C210.576 387.77 212.346 271.12 213.176 266.77C215.366 255.19 217.636 243.63 219.396 231.98C218.186 232.04 216.966 232.12 215.736 232.12Z" fill="#4858CC"/>
<path fill-rule="evenodd" clip-rule="evenodd" d="M76.8665 150.879C76.7957 150.874 76.7295 150.843 76.6813 150.791C76.633 150.739 76.6063 150.671 76.6064 150.6C74.6064 151.21 72.6064 150.6 70.6064 150.99C70.6513 151.144 70.6847 151.301 70.7064 151.459C70.8464 152.519 70.9665 153.579 71.0665 154.649C71.1365 154.999 71.1964 155.35 71.2664 155.7C71.6316 156.156 71.8881 156.69 72.0164 157.26C74.4964 166.79 76.2764 176.47 78.0164 186.16C79.0164 191.91 80.3065 197.62 80.8065 203.45C81.4865 204.39 81.1965 205.6 81.6865 206.59C89.8265 213.09 98.5865 218.47 108.686 221.49C111.748 222.547 114.935 223.196 118.166 223.419C120.139 220.774 122.319 218.289 124.686 215.99C108.726 194.29 92.7865 172.586 76.8665 150.879Z" fill="#CDCDCD"/>
<path fill-rule="evenodd" clip-rule="evenodd" d="M86.426 221.71C82.426 216.48 78.216 211.41 74.146 206.24C73.5457 205.362 73.0077 204.443 72.536 203.49C66.8027 196.25 61.0727 189.01 55.346 181.77C49.8193 174.763 44.3027 167.763 38.796 160.77C37.796 159.56 36.966 158.29 36.056 157.05C35.856 156.79 35.536 156.49 35.676 156.19C34.7082 155.041 33.8729 153.786 33.186 152.45L32.516 151.61L32.446 151.5C32.1319 151.445 31.852 151.269 31.666 151.01L24.666 150.66V150.82C24.666 155.54 24.666 160.26 24.666 164.98C25.666 167.71 25.146 170.59 25.506 173.4C26.5151 180.862 28.2878 188.201 30.796 195.3C32.356 199.8 34.466 203.96 36.056 208.41C36.826 210.56 38.156 212.29 39.196 214.26C41.116 217.9 43.026 221.57 45.246 225.02C48.866 230.67 53.586 235.45 57.546 240.91L59.546 242.98C61.616 245.11 64.396 246.88 66.546 249.04C68.546 251.04 70.696 253.2 73.306 254.47L101.756 248.47L106.276 247.53C103.426 243.99 100.536 240.46 97.876 236.82C94.176 231.68 90.286 226.72 86.426 221.71Z" fill="#CDCDCD"/>
<path fill-rule="evenodd" clip-rule="evenodd" d="M24.6662 150.769C19.6662 150.609 14.6662 150.579 9.66621 150.769C6.82621 150.889 3.97623 150.689 1.12623 150.649C-0.523772 150.649 0.126228 149.369 0.126228 148.649C0.126228 139.549 0.126228 130.439 0.126228 121.329C0.126228 100.269 0.126228 79.2092 0.126228 58.1492C0.126228 55.1492 0.126228 55.1492 3.12623 55.1492C18.7062 55.1492 34.3462 54.5992 49.8962 55.3992C54.3182 55.7176 58.7584 55.6913 63.1762 55.3196C66.97 55.0512 70.7755 54.9873 74.5762 55.1292C79.5762 55.1292 84.4962 55.1292 89.4662 55.1292C90.9562 55.1292 91.9962 55.2892 91.9762 57.1892C91.9062 66.9092 91.8962 76.6294 91.8662 86.3494L84.5562 71.9392C84.0401 70.731 83.2285 69.6723 82.1962 68.8596C81.6785 68.4442 81.0256 68.2343 80.3629 68.2713C79.7001 68.3082 79.0745 68.589 78.6062 69.0593C77.4662 70.0093 77.4462 70.9896 78.2062 72.2796C78.5528 72.8662 78.8862 73.466 79.2062 74.0794C80.3762 76.1994 81.4162 78.3995 82.5962 80.5095C82.8962 81.0495 83.1562 81.6094 83.4662 82.1394C83.7762 82.6694 83.9362 82.8895 84.1862 83.2595C84.4362 83.6295 84.8462 84.1095 84.6962 84.4895C84.3762 84.4895 84.2262 84.1495 84.0362 83.9295C83.6687 83.5449 83.3342 83.1299 83.0362 82.6892C82.7962 82.2892 82.6162 81.8693 82.4162 81.4593C82.2162 81.0493 81.8262 80.3393 81.5262 79.7893C80.2962 77.5793 79.0762 75.3595 77.8062 73.1795C77.2862 72.2795 76.7462 71.2695 75.3362 71.7195C74.7398 71.8824 74.2117 72.2328 73.83 72.719C73.4482 73.2052 73.233 73.8012 73.2162 74.4192C73.1066 75.9674 73.5147 77.5086 74.3762 78.7996C75.6262 80.8496 76.8562 82.9195 78.1662 84.9295C78.5562 85.5095 79.0262 86.0292 79.3962 86.6292C79.6362 87.0092 79.9062 87.3693 80.1162 87.7693C80.2362 87.9793 80.5562 88.4693 80.4562 88.7693C80.0662 88.7093 79.9162 88.3892 79.6762 88.1292C79.2292 87.6837 78.8364 87.1869 78.5062 86.6492C77.1362 84.3492 75.6662 82.0896 74.1462 79.8596C73.7962 79.3396 73.5762 78.3996 72.6362 78.8596C72.2367 79.0236 71.9077 79.3228 71.7066 79.7049C71.5055 80.0869 71.4452 80.5274 71.5362 80.9495C71.6849 81.6236 71.9202 82.2757 72.2362 82.8894C75.0162 88.8894 78.4162 94.6094 81.7162 100.349C82.3377 101.41 82.7454 102.582 82.9162 103.8C84.8447 117.846 87.7281 131.745 91.5462 145.399L91.9362 147.01C91.8362 150.76 91.8362 150.71 88.0562 150.76C84.2762 150.81 80.5862 150.479 76.8662 150.979C76.7955 150.974 76.7293 150.943 76.681 150.891C76.6328 150.839 76.606 150.77 76.6062 150.699C69.7062 141.429 64.7862 130.52 54.3262 124.05C60.7662 120.98 63.8162 115.799 64.1662 108.949C64.2362 107.699 64.7162 107.379 65.8562 107.399C68.7862 107.399 71.7262 107.399 74.6562 107.399C75.9062 107.399 76.1162 107.059 75.6562 105.929C71.9162 96.1395 67.4062 86.7795 60.2862 78.9295C53.8562 71.8195 46.1062 69.0396 36.6962 71.8396C35.4862 72.1996 34.3062 72.6694 33.0762 73.0994C32.3362 64.4594 27.0762 59.3893 19.4162 59.7493C16.1895 59.9508 13.1619 61.3785 10.9533 63.7395C8.74473 66.1006 7.52226 69.2165 7.5362 72.4495C7.5862 80.2695 12.8762 84.6794 22.9262 85.1194C21.216 90.1713 20.4235 95.4886 20.5862 100.82C20.5862 101.93 19.8562 101.72 19.2062 101.82C15.5262 102.57 13.5062 105.52 14.3462 108.82C15.2462 112.34 18.4062 114.02 22.0862 112.82C22.9862 112.52 23.3762 112.499 23.8562 113.429C26.0672 118.026 29.7628 121.742 34.3462 123.979C33.6062 124.529 32.9862 124.979 32.3462 125.449C28.1262 128.779 25.0662 132.939 24.6062 138.389C24.2662 142.449 24.6062 146.569 24.6062 150.659L24.6662 150.769Z" fill="#4858CC"/>
<path fill-rule="evenodd" clip-rule="evenodd" d="M179.806 7.87012C196.312 13.7539 211.284 23.2718 223.616 35.7202C235.391 47.6203 244.565 61.8375 250.556 77.4702C250.806 78.1102 251.096 78.7399 251.366 79.3799C253.086 86.0799 255.696 92.5102 256.776 99.4302C257.776 105.6 258.516 111.78 259.256 117.98C260.116 125.25 259.256 132.57 259.546 139.87C258.226 138.78 258.756 137.23 258.906 136C259.306 132.65 257.906 130.28 255.906 127.75C253.166 124.26 250.236 121.47 245.546 121.3C245.336 121.3 245.146 121.09 244.946 120.98C246.666 120.41 248.186 121.5 249.836 121.57L250.376 121.7C250.316 121.53 250.256 121.37 250.186 121.2C247.496 117.95 244.856 114.66 242.096 111.47C239.336 108.28 236.766 104.61 233.406 101.79V101.85C233.346 100.64 232.296 100.24 231.566 99.5801C230.196 97.9301 228.766 96.3201 227.476 94.5801C223.536 89.3401 219.166 84.4801 214.856 79.5801L211.016 75.02L186.896 46.3901L161.286 15.96L179.806 7.87012Z" fill="#EBEBEB"/>
<path fill-rule="evenodd" clip-rule="evenodd" d="M65.7866 55.0503C62.7066 55.6403 59.6966 56.6499 56.4866 56.4399C55.4866 56.3699 54.4866 55.2403 53.7266 56.0903C52.9666 56.9403 53.4966 58.1602 53.4366 59.2202C53.3166 61.2902 53.5866 63.3599 53.0466 65.4199C52.6066 67.1499 52.0466 68.9003 49.9566 68.8203C47.8666 68.7403 47.3166 66.97 46.9566 65.23C46.9312 64.9238 46.9312 64.6162 46.9566 64.3101C46.8366 60.9301 46.5166 57.5199 47.2766 54.1899C48.0366 50.8599 51.4666 48.9499 53.0366 45.9199C51.6684 46.9937 50.406 48.1962 49.2666 49.5103C47.4466 51.6003 45.7466 53.6903 45.9966 56.8003C46.2066 59.3203 45.9966 61.8702 45.9966 64.4102C45.7866 65.5402 45.1266 66.2701 43.9966 66.1201C43.4573 66.0494 42.9582 65.797 42.5818 65.4043C42.2055 65.0116 41.9743 64.5018 41.9266 63.96C41.8328 63.2 41.7794 62.4355 41.7666 61.6699C40.9866 56.7899 41.5166 52.1902 44.7666 48.1802L49.1566 44.04C47.2547 44.8182 45.6115 46.1182 44.4166 47.79C43.4651 48.6791 42.7179 49.7643 42.2266 50.9702C41.2866 53.3932 40.7495 55.9538 40.6366 58.5503C40.5366 59.9903 40.5666 62.4299 39.0366 63.1899C37.0366 64.1899 35.1566 61.8901 35.0366 60.1001C34.6397 55.0585 35.8321 50.019 38.4466 45.6899C41.2466 40.7399 44.9966 35.07 49.7566 31.77C57.0466 26.7 63.7566 20.92 71.5066 16.46C86.6366 7.71996 103.127 3.24018 120.397 1.18018C127.297 0.360176 134.237 0.35 141.157 0C143.465 0.00527178 145.772 0.135599 148.067 0.390137C148.287 0.790137 148.467 1.27027 149.067 0.780273C148.547 1.52027 149.247 1.89029 149.597 2.30029C153.403 6.86696 157.227 11.4266 161.067 15.98C156.227 18.35 151.067 20.0299 146.167 22.1899C129.167 29.6099 112.047 36.54 94.8966 43.5C85.1566 47.41 75.4566 51.2003 65.7866 55.0503Z" fill="#FEAA61"/>
<path fill-rule="evenodd" clip-rule="evenodd" d="M259.546 139.87C259.246 132.57 260.116 125.25 259.256 117.98C258.516 111.78 257.736 105.6 256.776 99.4302C255.696 92.5102 253.086 86.0799 251.366 79.3799C267.426 87.2499 281.366 97.7104 291.266 112.86C294.2 117.158 295.992 122.13 296.476 127.31C297.536 140.44 289.216 151.52 275.266 152.89C274.186 153 273.116 153.06 272.036 153.13L267.816 153C267.726 152.634 267.656 152.264 267.606 151.89C267.446 149.48 268.676 146.19 267.086 144.89C265.496 143.59 262.236 144.49 259.726 144.56C259.666 142.96 259.606 141.41 259.546 139.87Z" fill="#C25131"/>
<path fill-rule="evenodd" clip-rule="evenodd" d="M259.736 144.53C262.246 144.46 265.447 143.48 267.097 144.86C268.747 146.24 267.456 149.48 267.616 151.86C267.666 152.233 267.736 152.604 267.827 152.969C267.317 155.189 267.597 157.439 267.597 159.669C267.597 182.839 267.537 206.009 267.597 229.179C267.597 231.669 266.757 232.3 264.597 232.05C262.997 231.86 261.357 232.279 259.777 231.719C259.777 208.586 259.777 185.456 259.777 162.329C259.777 157.129 259.527 151.919 259.407 146.709C259.337 145.979 260.006 145.33 259.736 144.53Z" fill="#4858CC"/>
<path fill-rule="evenodd" clip-rule="evenodd" d="M160.956 15.98C157.136 11.42 153.316 6.86029 149.496 2.30029C149.146 1.89029 148.446 1.52027 148.966 0.780273C153.306 1.16027 157.506 2.4402 161.786 2.9502C167.616 3.6602 173.006 5.71031 178.546 7.32031C178.978 7.47452 179.399 7.6581 179.806 7.87012L161.286 15.96C161.234 15.9358 161.176 15.9252 161.119 15.9287C161.061 15.9322 161.005 15.9497 160.956 15.98ZM165.226 8.18994C165.231 7.89993 165.179 7.61201 165.071 7.34277C164.963 7.07354 164.802 6.82859 164.598 6.62256C164.394 6.41653 164.15 6.25342 163.882 6.14307C163.614 6.03272 163.326 5.97726 163.036 5.97998C162.469 5.9707 161.921 6.18727 161.513 6.58203C161.105 6.9768 160.87 7.5174 160.861 8.08496C160.852 8.65252 161.068 9.20051 161.463 9.6084C161.858 10.0163 162.399 10.251 162.966 10.2603C164.286 10.3303 165.006 9.46994 165.226 8.18994Z" fill="#76777A"/>
<path fill-rule="evenodd" clip-rule="evenodd" d="M24.6562 164.93C25.6562 167.66 25.1363 170.54 25.4963 173.35C26.5054 180.811 28.278 188.15 30.7863 195.25C31.7863 198.01 32.8862 200.699 33.9462 203.419L24.6763 203.49C24.6763 190.643 24.6696 177.79 24.6562 164.93Z" fill="#EBEBEB"/>
<path fill-rule="evenodd" clip-rule="evenodd" d="M24.5262 205.801C24.5652 205.849 24.5865 205.909 24.5865 205.971C24.5865 206.033 24.5652 206.093 24.5262 206.141L24.4062 205.971L24.5262 205.801Z" fill="#B95743"/>
<path fill-rule="evenodd" clip-rule="evenodd" d="M24.4958 233.66C24.5149 233.677 24.5303 233.698 24.5408 233.721C24.5513 233.744 24.5567 233.769 24.5567 233.795C24.5567 233.82 24.5513 233.846 24.5408 233.869C24.5303 233.892 24.5149 233.913 24.4958 233.93L24.3857 233.79L24.4958 233.66Z" fill="#B95743"/>
<path fill-rule="evenodd" clip-rule="evenodd" d="M205.696 231.959H210.286C207.226 236.819 203.556 240.05 197.996 240.62C193.606 241.07 189.216 241.62 184.796 241.62C182.376 241.75 179.966 241.939 177.546 241.979C176.246 241.979 175.626 242.84 174.876 243.62C164.546 254.42 152.596 262.78 138.176 267.36C133.497 268.892 128.648 269.849 123.736 270.209C120.466 265.799 117.216 261.38 113.526 257.3V257.24C111.386 253.67 108.406 250.73 106.106 247.24C106.876 247.12 107.656 247.039 108.426 246.879C131.346 242.159 154.27 237.443 177.196 232.729C177.772 232.679 178.321 232.464 178.776 232.109C179.232 231.754 179.576 231.275 179.766 230.729C181.64 228.562 184.26 227.177 187.106 226.849C190.206 226.559 192.986 225.1 195.986 224.39C197.186 224.1 198.366 223.7 199.566 224.39C200.826 226.99 198.376 227.64 197.146 228.93L191.646 231.7L191.826 232.07L195.746 231.86C196.523 232.084 197.341 232.125 198.136 231.979L199.136 231.87C200.963 232.074 202.806 232.095 204.636 231.93L205.696 231.959Z" fill="#EBEBEB"/>
<path fill-rule="evenodd" clip-rule="evenodd" d="M187.376 226.91C184.557 227.236 181.966 228.619 180.126 230.78C180.126 230.16 180.036 229.55 180.036 228.94C180.036 215.2 180.013 201.46 179.966 187.72C179.966 184.287 179.966 180.857 179.966 177.43C179.616 174.95 180.646 172.43 179.616 169.94C180.316 168.67 180.966 167.38 180.376 165.87C182.206 163.71 184.076 161.57 185.876 159.38C187.116 158.01 188.093 156.424 188.756 154.7C189.126 153.6 189.326 152.35 188.216 151.53C187.106 150.71 186.216 151.72 185.426 152.35C183.706 153.71 182.046 155.15 180.316 156.59C179.696 155.43 180.586 154.23 179.636 153.39C179.79 150.723 179.933 148.057 180.066 145.39C180.126 144.39 180.876 144.46 181.566 144.44L187.996 144.25C189.206 144.25 190.456 144.4 191.666 144.43C192.876 144.46 194.146 144.43 195.386 144.43C196.626 144.43 197.876 144.43 199.116 144.37C200.066 144.37 201.006 144.25 201.956 144.31C202.013 144.315 202.07 144.315 202.126 144.31L202.266 144.26C202.396 144.26 202.526 144.26 202.656 144.26C202.785 144.24 202.917 144.24 203.046 144.26H203.196C203.266 144.255 203.336 144.255 203.406 144.26C203.622 144.28 203.84 144.28 204.056 144.26H205.186C205.289 144.245 205.393 144.245 205.496 144.26C205.496 144.26 205.566 144.26 205.616 144.26C205.666 144.26 206.006 144.26 206.206 144.26H207.206C207.306 144.26 207.396 144.26 207.506 144.26H208.216C208.376 144.26 208.516 144.26 208.676 144.26H210.006C210.062 144.251 210.12 144.251 210.176 144.26H210.286H210.406C210.526 144.26 210.736 144.26 210.716 144.45C210.696 144.64 210.446 144.89 210.316 145.04C209.976 145.46 209.696 145.9 209.386 146.33C208.746 147.18 208.106 148.03 207.486 148.9C206.866 149.77 206.246 150.62 205.616 151.47C204.986 152.32 204.366 153.18 203.746 154.03L201.856 156.6C201.236 157.46 200.616 158.32 199.986 159.17L198.106 161.73C197.486 162.59 196.856 163.44 196.226 164.29L194.346 166.86L192.456 169.41L191.996 170.04C191.51 170.664 191.155 171.38 190.954 172.145C190.752 172.91 190.709 173.708 190.826 174.49C191.526 181 192.216 187.49 192.536 194.06C192.776 199.01 191.136 203.79 190.386 208.65C189.476 214.92 188.386 220.91 187.376 226.91Z" fill="#4858CC"/>
<path fill-rule="evenodd" clip-rule="evenodd" d="M225.086 183.25C226.373 179.119 228.217 175.184 230.566 171.55C231.218 170.594 231.936 169.685 232.716 168.83C236.286 164.99 239.656 164.39 243.596 166.83C248.326 169.73 249.966 173.83 248.036 178.61C246.416 182.61 243.686 185.86 240.716 188.98C236.186 193.73 230.926 197.6 225.866 201.7C223.476 203.64 222.046 203.51 219.806 201.25C216.306 197.71 212.696 194.25 209.346 190.59C205.996 186.93 202.716 182.67 201.176 177.59C199.576 172.32 201.886 167.38 206.546 166.02C207.543 165.724 208.591 165.637 209.623 165.764C210.656 165.892 211.651 166.231 212.546 166.76C217.486 169.5 220.046 174.22 222.746 178.84C223.546 180.12 224.196 181.55 225.086 183.25Z" fill="#EBEBEB"/>
<path fill-rule="evenodd" clip-rule="evenodd" d="M204.727 231.94C204.657 232.06 203.726 232 203.536 232.01H202.286C201.876 232.01 201.467 232.01 201.057 232.01C200.647 232.01 200.207 231.85 199.937 232.01C199.979 231.466 200.162 230.943 200.466 230.49C200.919 229.588 201.423 228.714 201.977 227.87C202.187 227.52 202.386 227.14 202.586 226.78C202.712 226.579 202.849 226.385 202.997 226.2C203.09 226.021 203.167 225.833 203.227 225.64C203.447 225.15 203.816 224.64 204.086 224.21C204.646 223.21 205.186 222.29 205.826 221.39C206.549 220.106 207.607 219.041 208.886 218.31C209.596 217.99 211.066 217.81 211.506 218.68C211.607 218.966 211.658 219.267 211.656 219.57C211.701 219.949 211.701 220.331 211.656 220.71C211.396 222.34 210.327 223.49 209.437 224.84C208.437 226.34 207.437 227.84 206.437 229.36C205.857 230.23 205.287 231.12 204.727 231.94Z" fill="#4858CC"/>
<path fill-rule="evenodd" clip-rule="evenodd" d="M225.477 232.12L219.477 231.87L222.477 215.45H222.907C223.577 220.19 224.287 224.93 224.907 229.68C225.001 230.513 225.192 231.332 225.477 232.12Z" fill="#4858CC"/>
<path fill-rule="evenodd" clip-rule="evenodd" d="M198.286 232.12C198.136 232.112 197.986 232.112 197.836 232.12C197.506 232.12 197.196 232.12 196.836 232.07C196.646 232.07 196.166 232.14 196.036 231.99C195.906 231.84 196.236 231.28 196.326 231.09C196.656 230.41 196.966 229.72 197.326 229.04C198.546 227.76 200.966 227.11 199.726 224.52C200.228 223.24 200.956 222.061 201.876 221.04C202.546 220.4 204.356 219.78 204.776 221.1C205.036 221.92 203.776 223.49 203.376 224.19C202.976 224.89 202.626 225.62 202.236 226.32C201.595 227.43 201.03 228.583 200.546 229.77C200.386 230.17 200.256 230.58 200.076 230.96C199.955 231.331 199.783 231.685 199.566 232.01C199.286 232.2 198.736 232.12 198.286 232.12Z" fill="#4858CC"/>
<path fill-rule="evenodd" clip-rule="evenodd" d="M210.856 144.57L205.006 144.38L210.816 137.08C213.816 139.15 212.616 141.69 211.626 144.21L210.846 144.57H210.856Z" fill="#EBEBEB"/>
<path fill-rule="evenodd" clip-rule="evenodd" d="M259.816 139.879C259.833 139.388 259.81 138.897 259.746 138.41C259.746 138.21 259.746 138 259.746 137.8C259.729 137.688 259.702 137.577 259.666 137.47C259.666 137.26 259.666 137.02 259.666 136.8C259.629 136.658 259.603 136.515 259.586 136.369C259.568 136.033 259.524 135.699 259.456 135.369L259.396 134.95C259.262 133.947 259.021 132.961 258.676 132.01C258.33 131.03 257.912 130.078 257.426 129.16C256.951 128.253 256.402 127.387 255.786 126.57C255.161 125.756 254.473 124.993 253.726 124.289C252.969 123.584 252.153 122.945 251.286 122.379C249.526 121.219 246.936 121.05 244.906 120.51C241.78 119.841 238.601 119.446 235.406 119.329C231.828 119.031 228.235 118.938 224.646 119.05C224.436 119.05 224.216 119.129 224.006 119.119C223.796 119.109 223.886 119.119 223.816 119.119C223.746 119.119 223.636 119.19 223.536 119.2C223.375 119.204 223.214 119.224 223.056 119.26C222.826 119.31 222.586 119.26 222.366 119.26C222.255 119.291 222.141 119.311 222.026 119.32C221.92 119.335 221.812 119.335 221.706 119.32C221.306 119.267 220.9 119.304 220.516 119.43C219.633 119.642 218.733 119.776 217.826 119.829L216.466 119.899C216.021 119.854 215.572 119.854 215.126 119.899L202.916 122.669C199.466 124.169 195.916 125.499 192.566 127.209C182.026 132.559 172.926 140.039 163.676 147.209C152.896 155.619 142.396 164.37 132.066 173.34C132.087 173.432 132.087 173.527 132.066 173.619L142.066 195.039L142.426 195.57C144.886 194.26 146.156 191.779 147.946 189.829C151.416 186.049 154.736 182.14 158.126 178.28C165.02 170.42 171.91 162.563 178.796 154.709C179.121 154.278 179.409 153.82 179.656 153.34C179.81 150.673 179.953 148.006 180.086 145.34C180.146 144.34 180.896 144.41 181.586 144.39C182.586 144.39 183.506 144.33 184.466 144.3L187.366 144.22H187.776C187.891 144.221 188.006 144.237 188.116 144.269L188.896 144.369C189.095 144.402 189.292 144.445 189.486 144.499C189.746 144.529 190.007 144.529 190.266 144.499C191.436 144.439 192.606 144.499 193.776 144.499H197.286C197.896 144.499 198.496 144.439 199.106 144.399C199.446 144.399 199.776 144.329 200.106 144.329H200.996C201.456 144.329 201.916 144.329 202.386 144.269C202.856 144.209 203.086 144.269 203.446 144.269C204.336 144.269 205.216 144.369 206.106 144.349C206.646 144.314 207.187 144.314 207.726 144.349C207.866 144.349 208.016 144.349 208.166 144.349C208.343 144.359 208.52 144.359 208.696 144.349H209.196C209.496 144.349 209.806 144.28 210.106 144.26C210.406 144.24 210.516 144.26 210.726 144.26C210.838 144.243 210.952 144.268 211.046 144.329C211.139 144.422 211.258 144.485 211.386 144.51C211.543 144.52 211.7 144.52 211.856 144.51H213.056C213.846 144.51 214.646 144.51 215.436 144.51H217.816H222.876C231.726 144.45 240.576 144.34 249.426 144.26C252.866 144.37 256.316 143.99 259.746 144.39C259.466 144.39 259.606 143.44 259.616 143.28C259.676 142.64 259.846 142.009 259.846 141.369V139.769L259.816 139.879Z" fill="#CDCDCD"/>
<path fill-rule="evenodd" clip-rule="evenodd" d="M43.9961 222.45C44.175 222.549 44.3241 222.693 44.4279 222.869C44.5317 223.045 44.5863 223.246 44.5861 223.45L43.9961 222.45Z" fill="#EBEBEB"/>
<path fill-rule="evenodd" clip-rule="evenodd" d="M73.3457 254.42L101.796 248.42L106.316 247.48C106.756 247.38 110.066 252.13 110.536 252.7C112.086 254.61 113.626 256.52 115.086 258.49C117.979 262.397 120.899 266.283 123.846 270.15C111.936 271.15 100.696 268.38 89.7457 264.02C85.2457 261.43 80.4457 259.38 76.1557 256.4C75.2157 255.75 74.2857 255.12 73.3457 254.42Z" fill="#76777A"/>
<path fill-rule="evenodd" clip-rule="evenodd" d="M64.1465 247L64.9665 247.66L64.1465 247Z" fill="#EBEBEB"/>
<path fill-rule="evenodd" clip-rule="evenodd" d="M24.6766 150.61C24.6766 146.52 24.3466 142.4 24.6766 138.34C25.1366 132.89 28.1966 128.729 32.4166 125.399C33.0066 124.929 33.6266 124.48 34.4166 123.93C29.8331 121.692 26.1375 117.975 23.9266 113.379C23.4466 112.449 23.0566 112.469 22.1566 112.769C18.4766 113.989 15.3166 112.309 14.4166 108.769C13.5766 105.449 15.5965 102.499 19.2765 101.769C19.9265 101.639 20.6866 101.849 20.6566 100.769C20.4939 95.4384 21.2864 90.1216 22.9966 85.0697C12.9966 84.6297 7.65656 80.2193 7.60656 72.3993C7.59262 69.1663 8.8151 66.0504 11.0237 63.6894C13.2323 61.3283 16.2599 59.9012 19.4866 59.6996C27.1366 59.3396 32.4065 64.4097 33.1465 73.0497C34.3765 72.6197 35.5565 72.1495 36.7665 71.7895C46.1765 68.9895 53.9266 71.7893 60.3566 78.8793C67.4766 86.7393 71.9866 96.0993 75.7266 105.879C76.1566 107.009 75.9466 107.38 74.7266 107.35C71.7966 107.29 68.8566 107.35 65.9266 107.35C64.7866 107.35 64.3066 107.649 64.2366 108.899C63.8866 115.749 60.8365 120.899 54.3965 123.999C64.8565 130.469 69.7766 141.379 76.6766 150.649C74.6766 151.269 72.6066 150.59 70.6066 151.05C66.1466 150.75 61.6966 150.88 57.2366 151.05C57.0881 150.952 56.9143 150.9 56.7366 150.9C56.5589 150.9 56.385 150.952 56.2366 151.05H31.7165L24.6766 150.61ZM58.9766 85.6693C56.0434 86.2177 53.1628 87.0175 50.3666 88.0595C48.8666 88.5395 48.2166 88.2498 47.5666 86.8598C45.8266 83.1398 43.9366 79.4893 41.8766 75.3793C40.5366 80.3793 39.2766 84.8793 38.1666 89.3793C38.0835 90.1053 37.7647 90.7845 37.259 91.3119C36.7532 91.8393 36.0884 92.1863 35.3666 92.2997C31.7666 93.1497 28.2465 94.3497 24.2665 95.5297C27.4165 96.6797 30.0865 97.6693 32.7665 98.6293C36.0565 99.8193 35.9966 99.7995 34.8766 103.079C33.7972 106.276 33.1252 109.595 32.8766 112.959C36.0066 109.679 38.7766 106.96 41.3166 104.03C42.5566 102.59 43.6165 102.53 45.2565 103.18C49.2565 104.77 53.3566 106.18 57.4166 107.64L57.9665 107.769C57.9065 107.599 57.8466 107.42 57.7866 107.26C55.8866 103.4 54.0366 99.5196 52.0366 95.7196C51.6784 95.2466 51.5216 94.651 51.6003 94.0629C51.6789 93.4748 51.9867 92.9418 52.4565 92.5795C54.6565 90.2895 57.2065 88.2995 58.9565 85.5795L59.1166 85.5297L58.9766 85.6693Z" fill="#515FF9"/>
<path fill-rule="evenodd" clip-rule="evenodd" d="M58.4661 150.96C60.6261 150.96 62.7861 150.91 64.9361 150.96C66.2161 150.96 69.3761 150.441 70.4661 151.051C72.0261 151.931 71.9861 157.05 72.3361 158.56C72.9061 161.15 73.5961 163.711 74.1661 166.301C75.6061 172.891 76.8161 179.54 77.9961 186.19C78.9961 191.94 80.2861 197.65 80.7861 203.48H72.5361C66.8027 196.24 61.0727 189.001 55.3461 181.761C49.8194 174.754 44.3027 167.754 38.7961 160.761C36.3361 157.621 34.4761 154.04 31.9561 150.96C35.5661 150.69 39.1461 151.11 42.7861 151.16C45.7061 151.16 48.6661 151.09 51.5961 151.08C53.8661 151.03 56.1661 150.99 58.4661 150.96Z" fill="#EBEBEB"/>
<path fill-rule="evenodd" clip-rule="evenodd" d="M81.4456 206.611C81.5056 207.471 81.5257 208.341 81.6257 209.031C81.8257 210.341 82.0557 211.691 82.1857 213.031C82.2557 213.791 83.4356 217.391 81.6456 215.861C80.4456 214.861 79.7056 213.19 78.7256 211.96C77.1856 210.06 75.659 208.15 74.1456 206.23C73.6592 205.454 73.1283 204.706 72.5557 203.991C73.1857 203.101 74.7756 203.47 75.7856 203.46C76.7956 203.45 77.7856 203.46 78.7056 203.46C79.4156 203.46 80.3256 203.201 80.7656 203.891C81.1973 204.733 81.43 205.664 81.4456 206.611Z" fill="#EE4036"/>
<path fill-rule="evenodd" clip-rule="evenodd" d="M124.636 215.99L130.437 223.91C126.344 224.466 122.187 224.314 118.146 223.46C120.108 220.801 122.278 218.304 124.636 215.99Z" fill="#76777A"/>
<path fill-rule="evenodd" clip-rule="evenodd" d="M31.666 150.96H56.186C55.676 151.6 54.966 151.51 54.276 151.51H33.336C32.726 151.49 32.096 151.56 31.666 150.96Z" fill="#EBEBEB"/>
<path fill-rule="evenodd" clip-rule="evenodd" d="M57.166 150.961C61.626 150.831 66.076 150.701 70.536 150.961C69.806 151.791 68.826 151.431 67.946 151.441C65.056 151.491 62.166 151.441 59.266 151.441C58.546 151.471 57.716 151.751 57.166 150.961Z" fill="#EBEBEB"/>
<path fill-rule="evenodd" clip-rule="evenodd" d="M46.006 224.76L46.076 224.67L45.9961 224.75L46.006 224.76Z" fill="#EBEBEB"/>
<path fill-rule="evenodd" clip-rule="evenodd" d="M92.0261 87.3795C95.5961 93.9595 98.4661 100.87 101.606 107.66C111.406 128.88 121.196 150.107 130.976 171.34C131.306 172.04 131.696 172.71 132.056 173.39C132.076 173.482 132.076 173.577 132.056 173.67C126.206 179.18 121.126 185.38 115.876 191.44C110.286 186.82 106.556 180.78 103.186 174.51C98.8493 166.319 95.3579 157.708 92.7661 148.81C92.539 148.16 92.2719 147.526 91.9661 146.91L91.5761 145.3C92.2761 144.4 91.9361 143.37 91.9061 142.4C91.7961 139.23 91.5761 136.06 91.5261 132.89C91.4761 129.1 91.4261 125.31 91.6061 121.53C91.7461 118.72 91.1361 115.83 92.1661 113.03C93.5961 113.53 94.7061 114.59 96.5161 114.09C90.9561 111.47 90.4261 110.47 91.6261 104.7C91.6705 104.285 91.6304 103.866 91.5083 103.467C91.3863 103.068 91.1849 102.698 90.9161 102.379C88.5694 98.3958 86.4364 94.2902 84.5261 90.0797C84.0061 88.8397 83.6461 87.4699 85.1061 86.5699C86.5661 85.6699 87.5561 86.4398 88.5961 87.3898C89.6361 88.3398 90.4061 89.7697 91.8361 90.5797C91.8861 89.3697 91.9561 88.3795 92.0261 87.3795Z" fill="#FEAA61"/>
<path fill-rule="evenodd" clip-rule="evenodd" d="M92.0264 87.3797C91.9564 88.3797 91.8865 89.3799 91.8065 90.5799C90.3765 89.7699 89.6465 88.3799 88.5665 87.3899C87.4865 86.3999 86.4464 85.7101 85.0764 86.5701C83.7064 87.4301 83.9765 88.8399 84.4965 90.0799C86.4067 94.2903 88.5397 98.3959 90.8864 102.38C91.1552 102.698 91.3566 103.068 91.4787 103.467C91.6007 103.866 91.6408 104.285 91.5965 104.7C90.3965 110.47 90.9265 111.47 96.4865 114.09C94.6765 114.59 93.5664 113.53 92.1364 113.03C91.1364 115.83 91.7164 118.72 91.5764 121.53C91.3964 125.31 91.4465 129.1 91.4965 132.89C91.4965 136.06 91.7665 139.23 91.8765 142.4C91.8765 143.4 92.2465 144.4 91.5465 145.3C87.7283 131.645 84.845 117.747 82.9165 103.7C82.7456 102.483 82.338 101.31 81.7164 100.25C78.4164 94.5098 75.0165 88.8198 72.2365 82.7898C71.9204 82.1761 71.6851 81.524 71.5365 80.8499C71.4455 80.4278 71.5058 79.9873 71.7069 79.6052C71.908 79.2232 72.237 78.924 72.6364 78.76C73.5764 78.35 73.7964 79.29 74.1464 79.76C75.2664 81.41 76.3465 83.1 77.4265 84.76C78.1765 86.18 78.8265 87.67 80.4265 88.51L77.8065 84.4197C76.6465 82.5197 75.4964 80.61 74.3364 78.72C73.4749 77.429 73.0669 75.8883 73.1765 74.3401C73.1933 73.7221 73.4085 73.1257 73.7902 72.6394C74.172 72.1532 74.7001 71.8028 75.2965 71.6399C76.7065 71.1899 77.2964 72.1999 77.7664 73.0999C79.1564 75.4899 80.4764 77.9199 81.8264 80.3299C82.6464 81.7799 83.1564 83.4399 84.8264 84.3299L82.2664 79.8699C80.8864 77.2899 79.5865 74.6697 78.1065 72.1497C77.3465 70.8597 77.3664 69.8799 78.5064 68.9299C78.9747 68.4596 79.6004 68.1788 80.2631 68.1419C80.9259 68.1049 81.5788 68.3143 82.0965 68.7298C83.1288 69.5425 83.9403 70.6016 84.4564 71.8098L91.7664 86.22C91.8764 86.68 91.9464 87.0297 92.0264 87.3797Z" fill="#515FF9"/>
<path fill-rule="evenodd" clip-rule="evenodd" d="M222.536 118.63C226.836 116.4 230.536 113.56 232.836 109.12C234.056 106.74 235.056 104.38 233.386 101.79C236.746 104.61 239.236 108.2 242.076 111.47C242.826 112.34 243.556 113.22 244.296 114.09C245.636 115.65 246.886 117.29 248.236 118.83C248.576 119.23 248.876 119.65 249.236 120.07C249.54 120.432 249.875 120.766 250.236 121.07C250.426 121.25 250.736 121.57 250.566 121.85C250.396 122.13 250.046 121.92 249.856 121.8C249.666 121.68 249.616 121.61 249.486 121.54C249.366 121.489 249.236 121.469 249.106 121.48C248.807 121.445 248.51 121.395 248.216 121.33C248.06 121.283 247.899 121.256 247.736 121.25H247.286C246.972 121.21 246.666 121.126 246.376 121C245.908 120.852 245.425 120.758 244.936 120.72C244.475 120.736 244.013 120.686 243.566 120.57C243.366 120.501 243.157 120.46 242.946 120.45C242.679 120.391 242.422 120.289 242.186 120.15C241.871 120.014 241.528 119.959 241.186 119.99C240.716 119.99 240.276 119.81 239.806 119.83C239.576 119.83 239.386 119.74 239.156 119.74C238.694 119.715 238.233 119.665 237.776 119.59C237.246 119.52 236.716 119.47 236.176 119.42C234.276 119.23 232.356 119.12 230.446 119.06C228.536 119 226.626 119.06 224.716 119.06C223.936 119.12 223.086 119.5 222.536 118.63Z" fill="#C25131"/>
<path fill-rule="evenodd" clip-rule="evenodd" d="M214.876 79.5796C204.726 80.3696 198.496 85.4197 195.526 95.4297C195.036 97.0497 194.526 96.5198 193.776 95.7998C194.626 84.7998 201.086 78.4595 211.036 75.0195L214.876 79.5796Z" fill="#C25131"/>
<path fill-rule="evenodd" clip-rule="evenodd" d="M165.226 8.18974C165.006 9.46974 164.286 10.3301 162.966 10.2601C162.398 10.2508 161.857 10.0161 161.463 9.6082C161.068 9.2003 160.851 8.65232 160.861 8.08476C160.87 7.5172 161.104 6.97659 161.512 6.58183C161.92 6.18707 162.468 5.9705 163.036 5.97978C163.326 5.97706 163.613 6.03251 163.882 6.14286C164.15 6.25322 164.393 6.41633 164.597 6.62236C164.802 6.82839 164.962 7.07333 165.07 7.34257C165.178 7.61181 165.231 7.89973 165.226 8.18974Z" fill="#EBEBEB"/>
<path fill-rule="evenodd" clip-rule="evenodd" d="M142.376 195.63C141.926 196.21 141.486 196.8 141.046 197.38C140.406 197.6 140.316 198.25 139.986 198.71L138.196 200.52C132.565 200.223 127.065 198.708 122.076 196.08C119.77 194.867 117.668 193.302 115.846 191.44C121.096 185.38 126.176 179.18 132.026 173.67L142.026 195.09L142.416 195.65L142.376 195.63ZM131.886 185.34C131.901 185.052 131.857 184.763 131.756 184.493C131.656 184.222 131.501 183.974 131.302 183.766C131.102 183.557 130.862 183.391 130.596 183.278C130.33 183.166 130.044 183.109 129.756 183.11C129.465 183.085 129.172 183.122 128.898 183.222C128.624 183.321 128.374 183.479 128.168 183.685C127.961 183.89 127.802 184.139 127.701 184.413C127.601 184.687 127.561 184.979 127.586 185.27C127.569 185.543 127.609 185.816 127.702 186.072C127.795 186.329 127.94 186.564 128.127 186.763C128.315 186.961 128.541 187.119 128.792 187.227C129.042 187.335 129.313 187.391 129.586 187.39C130.906 187.49 131.656 186.67 131.886 185.34Z" fill="#76777A"/>
<path fill-rule="evenodd" clip-rule="evenodd" d="M201.826 144.301C201.156 144.301 200.486 144.301 199.826 144.361L196.956 144.411H194.076C193.076 144.411 192.156 144.411 191.196 144.361C190.236 144.311 189.276 144.291 188.316 144.221C188.316 144.221 188.006 144.171 187.986 144.221C190.206 140.911 193.186 138.221 195.676 135.161C196.876 133.681 198.206 132.291 199.496 130.881C200.186 130.131 200.946 129.371 202.076 129.961C202.55 130.234 202.91 130.667 203.094 131.182C203.277 131.697 203.271 132.26 203.076 132.771C202.825 133.847 202.449 134.891 201.956 135.881C201.71 136.381 201.45 136.871 201.176 137.351C201.046 137.591 200.906 137.831 200.766 138.071C200.645 138.313 200.508 138.547 200.356 138.771C200.276 138.871 200.186 138.941 200.106 139.031C200.02 139.152 199.944 139.279 199.876 139.411C199.74 139.672 199.59 139.925 199.426 140.171C199.26 140.347 199.119 140.546 199.006 140.761C198.916 140.981 199.006 141.091 199.266 141.041C199.568 140.949 199.847 140.796 200.086 140.591C200.292 140.45 200.489 140.296 200.676 140.131C200.896 139.931 201.086 139.701 201.296 139.481C201.65 139.187 201.965 138.851 202.236 138.481C202.36 138.282 202.504 138.098 202.666 137.931C202.866 137.711 203.056 137.481 203.246 137.241L203.866 136.451C205.288 134.836 206.815 133.315 208.436 131.901C208.777 131.534 209.208 131.265 209.686 131.121C210.149 130.999 210.641 131.052 211.066 131.271C211.236 131.361 211.536 131.471 211.616 131.661C211.668 131.762 211.705 131.869 211.726 131.981C211.726 132.251 211.826 132.531 211.856 132.811C211.861 132.907 211.861 133.004 211.856 133.101C211.856 133.211 211.856 133.341 211.856 133.451C211.841 133.532 211.821 133.612 211.796 133.691C211.76 133.893 211.714 134.093 211.656 134.291C211.453 134.912 211.134 135.489 210.716 135.991C210.516 136.211 210.316 136.451 210.136 136.691C209.956 136.931 209.796 137.251 209.626 137.531C209.456 137.811 209.256 138.091 209.056 138.361C208.882 138.597 208.688 138.818 208.476 139.021C208.276 139.221 208.016 139.371 207.826 139.581C207.636 139.791 207.646 139.891 207.546 140.031C207.446 140.171 207.166 140.491 206.986 140.721C206.926 140.801 206.886 140.891 206.836 140.971C206.786 141.051 206.716 141.081 206.666 141.141L206.406 141.441C206.201 141.628 206.022 141.844 205.876 142.081C205.806 142.211 205.686 142.291 205.606 142.411C205.526 142.531 205.606 142.461 205.606 142.411C205.606 142.361 205.536 142.531 205.496 142.581C205.246 142.921 204.986 143.241 204.726 143.581C204.563 143.81 204.367 144.016 204.146 144.191C203.998 144.277 203.827 144.316 203.656 144.301C203.056 144.311 202.446 144.291 201.826 144.301Z" fill="#EBEBEB"/>
<path fill-rule="evenodd" clip-rule="evenodd" d="M194.216 105.98C194.216 105.9 194.216 105.82 194.216 105.75C194.216 105.68 194.216 105.581 194.216 105.511C194.242 105.333 194.335 105.172 194.476 105.06C194.596 104.94 194.776 104.781 194.966 104.821C195.043 104.846 195.117 104.879 195.186 104.92C195.296 104.98 195.426 104.98 195.526 105.04C195.588 105.08 195.643 105.13 195.686 105.19C195.82 105.358 195.931 105.543 196.016 105.741C196.086 105.891 196.156 106.051 196.216 106.201C199.396 114.351 205.216 119.121 214.116 119.641C214.491 119.693 214.859 119.783 215.216 119.911L203.006 122.681C202.951 122.621 202.901 122.558 202.856 122.491L202.696 122.31L202.386 121.951C202.176 121.701 201.966 121.46 201.766 121.21C201.356 120.72 200.956 120.211 200.566 119.721C200.176 119.231 199.816 118.721 199.466 118.181C199.116 117.641 198.766 117.121 198.466 116.591C198.166 116.061 197.836 115.501 197.536 114.951C197.236 114.401 196.946 113.851 196.676 113.281C196.406 112.711 196.146 112.151 195.916 111.571C195.686 110.991 195.456 110.381 195.266 109.781C195.076 109.181 194.906 108.541 194.756 107.911C194.606 107.281 194.346 106.64 194.216 105.98Z" fill="#C25131"/>
<path fill-rule="evenodd" clip-rule="evenodd" d="M142.426 195.649L142.036 195.09L142.426 195.649Z" fill="#EBEBEB"/>
<path fill-rule="evenodd" clip-rule="evenodd" d="M188.206 151.531C187.036 150.651 186.206 151.72 185.416 152.35C183.696 153.71 182.036 155.151 180.306 156.591C179.686 155.431 180.576 154.231 179.626 153.391C179.379 153.871 179.091 154.329 178.766 154.761C171.886 162.621 164.996 170.477 158.096 178.33C154.706 182.19 151.386 186.1 147.916 189.88C146.116 191.88 144.856 194.33 142.376 195.63C141.926 196.21 141.486 196.8 141.046 197.38C140.926 198.01 140.776 198.62 139.986 198.71L138.196 200.52L124.606 215.951L130.406 223.871C132.486 223.914 134.56 223.658 136.566 223.111C146.406 220.821 154.366 215.261 161.646 208.571C166.562 204.026 171.063 199.053 175.096 193.71L174.926 193.6H175.146C175.192 193.585 175.231 193.552 175.255 193.51C175.279 193.468 175.286 193.418 175.276 193.371L179.966 187.701C179.966 184.267 179.966 180.837 179.966 177.411C179.616 174.931 180.646 172.41 179.616 169.92C178.326 171.99 176.426 172.561 174.016 172.161C178.396 172.221 179.286 168.931 180.376 165.851C182.206 163.691 184.076 161.551 185.876 159.361C187.116 157.991 188.093 156.405 188.756 154.681C189.116 153.601 189.286 152.351 188.206 151.531Z" fill="#EBEBEB"/>
<path fill-rule="evenodd" clip-rule="evenodd" d="M201.826 144.311H202.226L202.026 144.361L201.826 144.311Z" fill="#CDCDCD"/>
<path fill-rule="evenodd" clip-rule="evenodd" d="M58.9263 85.6104C57.1763 88.3304 54.6263 90.3204 52.4263 92.6104C51.9565 92.9726 51.6487 93.5057 51.5701 94.0938C51.4914 94.6818 51.6482 95.277 52.0063 95.75C54.0063 99.55 55.8563 103.43 57.7563 107.29C57.6263 107.41 57.5063 107.54 57.3863 107.67C53.3263 106.2 49.2363 104.8 45.2263 103.21C43.5863 102.56 42.5263 102.62 41.2863 104.06C38.7463 106.99 35.9763 109.71 32.8463 112.99C33.0949 109.626 33.7669 106.307 34.8463 103.11C35.9663 99.8304 36.0263 99.8502 32.7363 98.6602C30.0563 97.6602 27.3863 96.7101 24.2363 95.5601C28.2363 94.3801 31.7363 93.1801 35.3363 92.3301C36.0582 92.2167 36.7229 91.8697 37.2287 91.3423C37.7344 90.8149 38.0533 90.1362 38.1363 89.4102C39.2463 84.8802 40.5063 80.4102 41.8463 75.4102C43.9063 79.5202 45.7963 83.1701 47.5363 86.8901C48.1863 88.2801 48.8363 88.5703 50.3363 88.0903C53.1325 87.0483 56.0131 86.2486 58.9463 85.7002L58.9263 85.6104Z" fill="#EBEBEB"/>
<path fill-rule="evenodd" clip-rule="evenodd" d="M58.9658 85.6699L59.0858 85.5703L58.9258 85.6104L58.9658 85.6699Z" fill="#EBEBEB"/>
<path fill-rule="evenodd" clip-rule="evenodd" d="M57.7557 107.29C57.8157 107.45 57.8758 107.63 57.9358 107.8L57.3857 107.67C57.5057 107.54 57.6257 107.41 57.7557 107.29Z" fill="#EBEBEB"/>
<path fill-rule="evenodd" clip-rule="evenodd" d="M175.096 193.709L174.926 193.6H175.146L175.096 193.709Z" fill="#CDCDCD"/>
<path fill-rule="evenodd" clip-rule="evenodd" d="M218.346 99.9703C217.898 99.931 217.455 99.8436 217.026 99.7101C215.696 99.1501 213.856 98.4703 214.136 96.9703C214.29 96.0905 214.77 95.3007 215.479 94.7579C216.189 94.2152 217.076 93.9589 217.966 94.0401C220.336 96.2001 220.386 97.0103 218.346 99.9703Z" fill="#2D1B2D"/>
<path fill-rule="evenodd" clip-rule="evenodd" d="M202.286 99.9507C200.486 100.001 199.376 98.7608 198.106 97.7808C197.636 97.4208 197.536 97.1504 197.946 96.6904C198.946 95.5004 199.796 93.9807 201.696 93.9707C204.286 96.0107 204.446 97.5007 202.286 99.9507Z" fill="#2D1B2D"/>
<path fill-rule="evenodd" clip-rule="evenodd" d="M210.647 106.721C208.564 106.937 206.466 106.974 204.377 106.831C203.767 106.831 203.587 106.42 203.837 105.88L210.587 91.5508L211.257 91.8506L204.667 106.031H210.667C210.637 106.251 210.647 106.491 210.647 106.721Z" fill="#2D1B2D"/>
<path fill-rule="evenodd" clip-rule="evenodd" d="M202.286 99.9495C204.416 97.4995 204.286 96.0095 201.696 93.9495C203.806 93.4895 205.086 94.7594 206.346 96.1394C207.106 96.9794 206.426 97.5894 206.016 98.1394C205.633 98.7664 205.078 99.2702 204.417 99.5911C203.755 99.9119 203.016 100.036 202.286 99.9495Z" fill="#EBEBEB"/>
<path fill-rule="evenodd" clip-rule="evenodd" d="M218.346 99.9697C220.346 96.9697 220.346 96.1995 217.966 94.0395C219.966 93.9695 222.556 95.4495 222.736 96.8095C222.916 98.1695 220.546 99.7997 218.346 99.9697Z" fill="#EBEBEB"/>
<path fill-rule="evenodd" clip-rule="evenodd" d="M211.286 111.67C215.946 112.59 220.006 112.18 222.106 106.67C222.406 111.49 216.146 114.24 211.286 111.67Z" fill="#2D1B2D"/>
<path fill-rule="evenodd" clip-rule="evenodd" d="M233.636 101.8C233.599 101.745 233.559 101.691 233.516 101.64C233.431 101.555 233.35 101.465 233.276 101.37C233.136 101.191 232.986 101.021 232.826 100.86C232.546 100.56 232.276 100.25 232.016 99.9399C231.848 99.7637 231.668 99.6002 231.476 99.4502C231.381 99.3481 231.291 99.241 231.206 99.1299L230.926 98.8003C230.346 98.1103 229.756 97.42 229.186 96.73C228.616 96.04 228.036 95.3304 227.496 94.6104C223.556 89.3704 219.186 84.5104 214.876 79.6104C204.726 80.4004 198.496 85.45 195.526 95.46C195.45 95.7237 195.347 95.9788 195.216 96.2202C195.164 96.3306 195.073 96.4179 194.96 96.4658C194.848 96.5137 194.722 96.5186 194.606 96.48C194.477 96.4335 194.358 96.3622 194.256 96.27C194.179 96.2111 194.109 96.1444 194.046 96.0703C193.971 95.9886 193.891 95.9118 193.806 95.8403H193.716H193.596H193.516H193.386C193.331 95.8159 193.274 95.7958 193.216 95.7803H193.066C192.95 95.7394 192.829 95.7124 192.706 95.7002C192.626 95.7052 192.546 95.7052 192.466 95.7002C192.417 95.6897 192.366 95.6897 192.316 95.7002C192.196 95.7002 192.076 95.7002 191.956 95.7002C191.9 95.6954 191.843 95.6954 191.786 95.7002C191.356 95.7702 190.906 95.8101 190.466 95.8701C190.037 95.9371 189.619 96.0649 189.226 96.25C188.834 96.4321 188.464 96.6606 188.126 96.9302C187.776 97.2241 187.464 97.56 187.196 97.9302C186.919 98.2995 186.684 98.6986 186.496 99.1201C186.31 99.5549 186.183 100.012 186.116 100.48C186.051 100.931 186.051 101.389 186.116 101.84C186.196 102.289 186.334 102.726 186.526 103.14C186.737 103.497 186.993 103.827 187.286 104.12C187.598 104.475 187.932 104.809 188.286 105.12L188.416 105.23C188.476 105.31 188.556 105.35 188.626 105.43C188.697 105.521 188.774 105.608 188.856 105.69C189.083 105.887 189.36 106.019 189.656 106.07C189.986 106.14 190.296 106.26 190.656 106.3C191.356 106.334 192.057 106.287 192.746 106.16C192.927 106.164 193.109 106.147 193.286 106.11L193.776 105.91C193.988 105.853 194.196 105.78 194.396 105.69C194.56 105.611 194.714 105.514 194.856 105.4C194.928 105.315 195.004 105.235 195.086 105.16C195.156 105.1 195.236 105 195.346 105.03C195.41 105.072 195.467 105.122 195.516 105.18C195.662 105.349 195.784 105.537 195.876 105.74C195.956 105.9 196.016 106.07 196.086 106.23C199.266 114.38 205.086 119.15 213.986 119.67C214.361 119.722 214.73 119.812 215.086 119.94C217.626 119.86 220.166 119.88 222.506 118.66C226.806 116.43 230.506 113.59 232.806 109.15L232.896 108.98C233.146 108.5 233.376 107.98 233.586 107.52C233.78 107.042 233.941 106.551 234.066 106.05C234.117 105.846 234.157 105.639 234.186 105.43C234.197 105.253 234.217 105.075 234.246 104.9C234.279 104.802 234.305 104.702 234.326 104.6C234.351 104.431 234.351 104.259 234.326 104.09C234.306 103.902 234.276 103.715 234.236 103.53L234.146 103.15C234.12 103.085 234.1 103.019 234.086 102.95C234.04 102.79 233.983 102.633 233.916 102.48C233.878 102.347 233.832 102.217 233.776 102.09C233.742 102.018 233.698 101.95 233.646 101.89L233.636 101.8ZM202.286 99.9502C200.486 100 199.376 98.7603 198.106 97.7803C197.636 97.4203 197.536 97.1499 197.946 96.6899C198.946 95.4999 199.796 93.9802 201.696 93.9702C203.806 93.5102 205.086 94.7802 206.346 96.1602C207.106 97.0002 206.426 97.6102 206.016 98.1602C205.63 98.7835 205.074 99.2834 204.413 99.6006C203.752 99.9178 203.014 100.039 202.286 99.9502ZM204.346 106.83C203.736 106.83 203.556 106.42 203.806 105.88L210.556 91.5503L211.226 91.8501L204.636 106.03H210.636C210.636 106.25 210.636 106.49 210.636 106.72C208.556 106.936 206.462 106.973 204.376 106.83H204.346ZM211.226 111.67C215.886 112.59 219.946 112.18 222.046 106.67C222.406 111.49 216.146 114.24 211.286 111.67H211.226ZM218.316 99.9702C217.868 99.9309 217.426 99.8435 216.996 99.71C215.666 99.15 213.826 98.4702 214.106 96.9702C214.26 96.0904 214.74 95.3006 215.449 94.7578C216.159 94.2151 217.047 93.9588 217.936 94.04C219.936 93.97 222.526 95.4501 222.706 96.8101C222.886 98.1701 220.546 99.8002 218.346 99.9702H218.316Z" fill="#FEAA61"/>
<path fill-rule="evenodd" clip-rule="evenodd" d="M139.986 198.71C140.316 198.25 140.406 197.6 141.046 197.38C140.926 198.01 140.776 198.62 139.986 198.71Z" fill="#CDCDCD"/>
<path fill-rule="evenodd" clip-rule="evenodd" d="M131.886 185.34C131.656 186.67 130.886 187.49 129.556 187.39C129.283 187.391 129.013 187.335 128.762 187.227C128.511 187.119 128.285 186.961 128.097 186.763C127.91 186.564 127.765 186.329 127.672 186.072C127.579 185.816 127.54 185.543 127.556 185.27C127.531 184.979 127.571 184.687 127.671 184.413C127.772 184.139 127.931 183.89 128.138 183.685C128.345 183.479 128.594 183.321 128.868 183.222C129.143 183.122 129.435 183.085 129.726 183.11C130.017 183.105 130.306 183.159 130.576 183.27C130.845 183.38 131.089 183.546 131.292 183.755C131.494 183.964 131.652 184.213 131.754 184.485C131.856 184.758 131.901 185.049 131.886 185.34Z" fill="#CDCDCD"/>
<path fill-rule="evenodd" clip-rule="evenodd" d="M200.026 139.99C199.856 140.28 199.686 140.58 199.506 140.87L199.416 140.78C199.566 140.48 199.726 140.17 199.876 139.86L200.026 139.99Z" fill="#CDCDCD"/>
<path fill-rule="evenodd" clip-rule="evenodd" d="M199.506 140.87C199.47 140.918 199.426 140.958 199.376 140.99L199.296 140.92L199.416 140.79L199.506 140.87Z" fill="#CDCDCD"/>
<path fill-rule="evenodd" clip-rule="evenodd" d="M203.886 144.221L203.326 144.531L203.886 144.221Z" fill="#CDCDCD"/>
<path fill-rule="evenodd" clip-rule="evenodd" d="M204.946 127.75C204.79 128.225 204.603 128.69 204.386 129.14C204.066 129.58 203.736 129.5 203.196 129.5C202.296 129.5 201.416 129.39 200.506 129.38C200.066 129.38 199.626 129.51 199.176 129.54C199.176 129.54 197.996 129.42 198.176 129.27C198.934 128.656 199.607 127.942 200.176 127.15C200.886 126.28 201.566 125.39 202.296 124.53C202.931 123.763 203.672 123.09 204.496 122.53C204.946 122.22 205.396 121.68 205.986 121.77C208.346 122.12 205.436 126.78 204.946 127.75Z" fill="#EBEBEB"/>
</svg>
