<svg width="360" height="180" viewBox="0 0 360 180" fill="none" xmlns="http://www.w3.org/2000/svg">
<path d="M346.074 11.918H185.833V91.9915H346.074V11.918Z" fill="#DAEBF7"/>
<path d="M167.41 164.61L171.205 163.517C171.878 161.774 172.453 159.994 172.926 158.187L171.143 158.122L173.087 157.562C173.649 155.321 173.88 153.802 173.88 153.802C173.88 153.802 166.182 156.093 160.386 160.564L159.671 165.579L158.987 161.723C158.356 162.283 157.761 162.881 157.205 163.515C151.625 169.927 149.196 176.947 151.781 179.194C154.366 181.441 160.985 178.064 166.566 171.652C168.293 169.57 169.69 167.235 170.709 164.73L167.41 164.61Z" fill="#DAEBF7"/>
<path d="M23.6219 141.765L21.4587 133.238C17.6229 131.613 13.6986 130.206 9.70424 129.023L9.4311 132.986L8.32353 128.62C3.36993 127.207 0 126.584 0 126.584C0 126.584 4.55202 143.884 14.0995 157.11L25.2244 159.063L16.5818 160.308C17.7833 161.753 19.0745 163.12 20.4478 164.403C34.3367 177.287 49.8063 183.198 55.0002 177.606C60.194 172.014 53.1453 157.036 39.2564 144.151C34.9507 140.157 29.5418 136.952 24.1275 134.429L23.6219 141.765Z" fill="#DAEBF7"/>
<path d="M44.1959 132.503L46.7544 124.085C44.3111 120.713 41.6795 117.481 38.872 114.405L36.5885 117.656L37.8984 113.347C34.3891 109.578 31.8264 107.304 31.8264 107.304C31.8264 107.304 26.7756 124.465 28.1082 140.719L36.6215 148.138L28.5789 144.739C28.8603 146.596 29.2584 148.434 29.7707 150.241C34.9964 168.446 45.1817 181.498 52.5202 179.394C59.8587 177.29 61.5715 160.826 56.3458 142.622C54.7257 136.978 51.7533 131.44 48.4232 126.484L44.1959 132.503Z" fill="#DAEBF7"/>
<path d="M78.8047 167.739L79.6983 171.757L85.9515 171.31L85.5049 166.847L78.8047 167.739Z" fill="#FFCDCD"/>
<path d="M63.1713 167.739L62.2781 171.757L56.0244 171.31L56.4714 166.847L63.1713 167.739Z" fill="#FFCDCD"/>
<path d="M61.3846 37.3891C66.0716 37.3891 69.8712 33.5917 69.8712 28.9075C69.8712 24.2232 66.0716 20.4258 61.3846 20.4258C56.6975 20.4258 52.8979 24.2232 52.8979 28.9075C52.8979 33.5917 56.6975 37.3891 61.3846 37.3891Z" fill="#FFCDCD"/>
<path d="M56.0245 31.1396L53.7915 41.4071L64.9578 44.9783L64.5112 32.0327L56.0245 31.1396Z" fill="#FFCDCD"/>
<path d="M60.0444 42.7452L54.4248 38.493C54.4248 38.493 53.3445 36.942 52.8978 38.2812C52.4511 39.6204 48.4312 44.5309 48.4312 44.5309L51.5578 81.136L75.2311 81.5824C75.2311 81.5824 65.9806 38.9108 64.7992 40.3816C63.6178 41.8524 60.4911 41.8524 60.0444 42.7452Z" fill="#DDD9E3"/>
<path d="M64.7348 37.6123C64.7348 37.6123 62.9481 39.3979 63.8414 40.7371C64.7348 42.0763 64.0648 44.5597 64.9581 44.7688C65.8514 44.978 64.0648 60.1557 66.7448 64.1733C69.4248 68.191 68.0848 78.4583 68.0848 80.2439C68.0848 82.0295 70.7647 92.7432 70.7647 92.7432C70.7647 92.7432 79.698 93.636 79.698 91.404C79.698 89.1719 76.5714 73.5478 76.5714 73.5478L79.2514 45.8708C79.2514 45.8708 79.2514 43.1923 76.1247 42.2995C72.9981 41.4067 66.7448 39.1747 66.7448 39.1747L64.7348 37.6123Z" fill="#424242"/>
<path d="M77.4647 69.9762H75.2314C75.2314 69.9762 63.6181 70.869 64.5114 65.9585C65.4048 61.0481 74.338 64.6193 74.338 64.6193L77.018 65.9585L77.4647 69.9762Z" fill="#FFCDCD"/>
<path d="M54.7801 36.8613C54.7801 36.8613 51.1114 39.1744 50.6648 40.0672C50.2181 40.96 39.9448 45.8705 39.9448 49.4417C39.9448 53.0129 43.0715 57.0306 43.0715 57.0306L47.0915 96.3141C47.0915 96.3141 53.7914 98.5461 54.2381 96.7605C54.6848 94.9749 56.4714 55.6914 55.5781 53.9057C54.6848 52.1201 54.6848 40.5136 54.6848 40.5136L54.7801 36.8613Z" fill="#424242"/>
<path d="M43.0717 101.672L42.625 104.35C42.625 104.35 43.0717 113.278 46.645 112.832C50.2183 112.386 47.985 103.457 47.985 103.457L47.5383 101.672H43.0717Z" fill="#FFCDCD"/>
<path d="M48.4312 78.9043C48.4312 78.9043 48.8778 119.081 51.1111 132.026C53.3445 144.972 54.2378 167.292 54.2378 167.292C54.2378 167.292 60.0444 168.185 60.9378 168.631C61.8311 169.078 64.0644 167.739 64.0644 167.739L64.5111 101.671L72.9977 131.58C72.9977 131.58 74.3377 167.739 77.0177 168.631C79.6977 169.524 87.7377 167.739 87.7377 167.739C87.7377 167.739 84.611 133.366 83.7177 132.026C82.8244 130.687 80.591 91.4036 77.0177 84.2611L75.6777 79.3507C75.6777 79.3507 50.2178 80.2435 48.4312 78.9043Z" fill="#424242"/>
<path d="M80.1448 169.971C80.1448 169.971 77.9115 168.186 77.9115 169.525C77.9115 170.864 75.6781 179.122 78.3581 179.122C81.0381 179.122 98.9047 180.685 98.458 177.114C98.0114 173.542 87.2631 167.84 87.2631 167.84C87.2631 167.84 83.2714 169.078 82.8248 169.525C82.3781 169.971 80.1448 169.971 80.1448 169.971Z" fill="#424242"/>
<path d="M61.8313 169.971C61.8313 169.971 64.0646 168.186 64.0646 169.525C64.0646 170.864 66.2979 179.122 63.6179 179.122C60.9379 179.122 43.0713 180.685 43.518 177.114C43.9647 173.542 54.7129 167.84 54.7129 167.84C54.7129 167.84 58.7046 169.078 59.1513 169.525C59.5979 169.971 61.8313 169.971 61.8313 169.971Z" fill="#424242"/>
<path d="M76.1245 45.4258L79.2512 45.8722L85.5045 63.7283C85.5045 63.7283 87.2911 72.6564 84.6112 73.9956C81.9312 75.3348 76.873 75.0732 76.873 75.0732L76.1245 65.0675L78.3578 65.5139L76.1245 61.0499V45.4258Z" fill="#424242"/>
<path d="M42.1782 47.6562L39.9448 49.4419C39.9448 49.4419 37.7115 72.2085 38.1582 74.4405C38.6049 76.6725 41.2848 103.903 41.2848 103.903L48.8781 102.118L43.5182 48.1027L42.1782 47.6562Z" fill="#424242"/>
<path d="M51.9961 22.7436C51.9961 22.7436 49.5253 19.611 51.9961 18.0446V18.8278C51.9961 18.8278 57.2908 12.9541 60.4676 14.5205L63.2915 13.7373V14.5205L65.0564 13.7373L64.7034 14.912H67.1743L66.1153 15.6952C66.1153 15.6952 74.2338 15.3036 69.2921 21.1773C69.2921 21.1773 71.6411 24.6989 69.4077 26.6581C69.4077 26.6581 67.5272 22.352 65.0564 23.5267C64.387 23.874 63.6319 24.0218 62.881 23.9523C62.13 23.8829 61.4149 23.5993 60.8206 23.1352C60.8206 23.1352 55.8789 22.7436 56.5849 25.0931C57.2908 27.4425 56.9378 28.2257 56.9378 28.2257C56.9378 28.2257 55.1729 29.4004 55.5259 30.1836C55.8789 30.9667 55.8789 33.3162 55.8789 33.3162C55.8789 33.3162 54.114 30.5751 53.408 30.9667C52.7021 31.3583 48.8193 27.4425 51.9961 22.7436Z" fill="#424242"/>
<path d="M148.831 50.7806L130.049 51.2468L127.521 28.8652H148.831V50.7806Z" fill="#2F2E41"/>
<path d="M128.95 79.7937L122.095 127.297C122.095 127.297 116.153 144.198 115.696 152.419L113.868 164.295L122.095 166.122L130.778 132.779L142.661 102.632L141.29 137.346L138.548 165.666L146.775 167.036L151.802 130.951L157.286 104.459C157.286 104.459 161.4 81.6207 155.001 79.3369L128.95 79.7937Z" fill="#424242"/>
<path d="M121.544 161.381L120.629 172.498C120.629 172.498 130.419 178.155 127.278 179.251C124.137 180.348 119.838 178.937 118.958 178.688C118.03 178.425 116.296 178.005 114.984 177.695C114.377 177.556 113.83 177.226 113.424 176.754C113.018 176.282 112.774 175.692 112.728 175.071L112.725 175.03C112.646 173.662 115.734 161.774 115.734 161.774L121.544 161.381Z" fill="#424242"/>
<path d="M145.318 161.659L146.089 172.29C146.089 172.29 157.237 176.429 154.363 178.105C151.489 179.781 147 179.218 146.089 179.141C144.409 179 140.23 178.859 140.23 178.859C140.23 178.859 139.457 179.527 139.118 178.2C138.779 176.872 139.571 165.011 139.571 165.011L145.318 161.659Z" fill="#424242"/>
<path d="M138.548 41.4255C143.344 41.4255 147.232 37.5399 147.232 32.7469C147.232 27.9539 143.344 24.0684 138.548 24.0684C133.752 24.0684 129.864 27.9539 129.864 32.7469C129.864 37.5399 133.752 41.4255 138.548 41.4255Z" fill="#FFCDCD"/>
<path d="M133.521 37.7715L131.692 47.8205L139.462 51.4747L141.29 38.6853L133.521 37.7715Z" fill="#FFCDCD"/>
<path d="M132.606 85.2745L142.204 92.126C142.204 92.126 146.317 102.632 149.517 100.805C152.716 98.9775 145.86 89.8422 145.86 89.8422L138.091 82.0771L132.606 85.2745Z" fill="#FFCDCD"/>
<path d="M160.028 82.0771L160.942 87.5583C160.942 87.5583 158.657 98.9775 155.915 96.6937C153.173 94.4099 156.829 87.1016 156.829 87.1016L156.372 82.5339L160.028 82.0771Z" fill="#FFCDCD"/>
<path d="M138.548 48.7336L137.634 45.0795L132.149 42.3389L130.321 44.6227L124.38 46.4498L131.235 82.9911C131.235 82.9911 154.544 84.3614 155.001 80.7072C155.458 77.0531 150.431 67.0042 150.431 67.0042C150.431 67.0042 151.802 61.9798 151.345 59.2392L149.517 48.2768L142.204 45.993L140.534 43.9737L139.005 46.4497L138.548 48.7336Z" fill="#DDD9E3"/>
<path d="M125.751 47.3637L124.38 46.4502C124.38 46.4502 121.637 46.907 120.723 50.5611C119.809 54.2152 120.723 70.6588 123.008 73.8562C125.294 77.0535 131.692 86.6456 131.692 86.6456L140.376 82.5347L131.235 72.0291L128.95 58.7829L125.751 47.3637Z" fill="#DDD9E3"/>
<path d="M145.86 49.1899L149.517 48.2764C149.517 48.2764 151.802 49.1899 152.716 52.3873C153.63 55.5846 158.657 71.5714 158.2 72.9418C157.743 74.3121 162.314 83.4474 162.314 83.4474L155.915 83.9041L152.259 74.3121L148.603 64.72L145.86 49.1899Z" fill="#DDD9E3"/>
<path d="M123.497 40.9887C125.329 39.9837 126.181 37.7278 126.242 35.6406C126.302 33.5535 125.796 31.4879 125.756 29.4002C125.736 28.9731 125.772 28.5452 125.865 28.1277C126.016 27.6094 126.253 27.1199 126.565 26.6788C128.946 23.0319 133.086 20.4665 137.446 20.4262C138.076 20.4179 138.702 20.5329 139.288 20.7645C139.738 20.9449 139.886 20.9229 139.972 21.476C141.005 21.1355 142.125 21.1711 143.134 21.5765C144.134 21.9827 145.066 22.5376 145.9 23.2225C146.395 23.5906 146.863 23.995 147.298 24.4323C149.602 26.8181 150.133 30.4951 149.465 33.7433C149.248 34.7993 150.29 35.8188 151.151 36.4674C152.013 37.1161 153.008 37.7117 153.431 38.7034C153.838 39.6573 153.615 40.7483 153.696 41.7821C153.788 42.7593 154.152 43.6914 154.746 44.4732C155.34 45.2549 156.141 45.8552 157.058 46.2062C156.871 46.4301 156.626 46.5994 156.351 46.6962C156.076 46.793 155.779 46.8137 155.493 46.7561C154.896 46.6304 154.337 46.3645 153.863 45.9804C152.08 44.6597 150.803 42.7674 150.248 40.6197C149.995 41.7701 150.093 42.9566 150.102 44.1344C150.08 45.4488 150.322 46.7543 150.815 47.9734C151.315 49.1983 152.232 50.2075 153.404 50.8232C152.274 51.3763 151.028 50.9754 150.071 50.1595C149.153 49.2886 148.489 48.1842 148.152 46.965C147.51 45.0189 147.249 42.9671 147.385 40.9223C146.333 42.6912 145.949 44.7775 146.301 46.8046C146.669 48.8714 147.749 50.7444 149.353 52.0992C146.556 52.0755 143.804 51.383 141.329 50.0796C140.69 49.7901 140.127 49.3565 139.684 48.8129C138.887 47.7087 139.076 46.2026 139.299 44.8598C139.476 43.7981 138.148 42.2632 138.908 41.5008C139.134 41.2777 139.436 41.1481 139.753 41.1378C140.897 41.0523 142.005 40.7053 142.992 40.1235C143.98 39.5418 144.821 38.7409 145.449 37.7827C146.326 36.4653 146.824 34.9326 146.889 33.3517C146.888 32.1909 146.637 31.0439 146.152 29.9891C145.667 28.9343 144.96 27.9967 144.079 27.2402C143.198 26.4837 142.164 25.9262 141.048 25.6059C139.931 25.2855 138.759 25.2098 137.611 25.384C136.462 25.5582 135.365 25.9782 134.394 26.6152C133.423 27.2521 132.601 28.0912 131.984 29.0748C131.368 30.0585 130.971 31.1637 130.821 32.3148C130.671 33.4658 130.771 34.6357 131.115 35.7444C131.39 36.6366 131.586 37.5509 131.703 38.4769C131.84 39.5515 132.059 40.6141 132.358 41.6557C132.933 43.6574 133.907 45.6998 135.71 46.7439C135.08 47.0137 134.402 47.1571 133.717 47.1658C131.454 47.4149 129.075 47.3599 127.027 46.3668C124.979 45.3737 123.351 43.2589 123.497 40.9887Z" fill="#424242"/>
<path d="M128.434 32.1279C134.932 29.5252 141.337 28.97 147.576 32.1279V26.8817C147.576 25.9755 147.216 25.1064 146.575 24.4656C145.934 23.8248 145.064 23.4648 144.157 23.4648H131.135C130.78 23.4648 130.429 23.5347 130.101 23.6703C129.774 23.806 129.476 24.0048 129.225 24.2555C128.974 24.5061 128.775 24.8037 128.64 25.1312C128.504 25.4587 128.434 25.8097 128.434 26.1642V32.1279Z" fill="#424242"/>
<path d="M130.456 35.3763C130.985 35.3763 131.414 34.6907 131.414 33.8449C131.414 32.9991 130.985 32.3135 130.456 32.3135C129.927 32.3135 129.499 32.9991 129.499 33.8449C129.499 34.6907 129.927 35.3763 130.456 35.3763Z" fill="#FFCDCD"/>
<path d="M210.93 179.189H0V180H210.93V179.189Z" fill="#424242"/>
<path d="M360 80.8847H198.947V0H360V80.8847ZM199.759 80.0739H359.189V0.810793H199.759V80.0739Z" fill="#424242"/>
<path d="M279.007 65.7923C279.006 67.0859 278.622 68.3501 277.902 69.4253C277.182 70.5005 276.16 71.3384 274.964 71.833C273.768 72.3276 272.452 72.4567 271.183 72.2042C269.913 71.9516 268.747 71.3286 267.832 70.4139C266.917 69.4992 266.293 68.3339 266.041 67.0652C265.788 65.7965 265.917 64.4814 266.412 63.2861C266.907 62.0908 267.745 61.069 268.821 60.3497C269.897 59.6305 271.162 59.2461 272.456 59.2451C273.317 59.2427 274.17 59.4104 274.966 59.7386C275.762 60.0667 276.485 60.5489 277.094 61.1573C277.703 61.7658 278.185 62.4885 278.513 63.2839C278.842 64.0794 279.01 64.9318 279.007 65.7923Z" fill="#6C63FF"/>
<path opacity="0.3" d="M279.007 65.7923C279.006 67.0859 278.622 68.3501 277.902 69.4253C277.182 70.5005 276.16 71.3384 274.964 71.833C273.768 72.3276 272.452 72.4567 271.183 72.2042C269.913 71.9516 268.747 71.3286 267.832 70.4139C266.917 69.4992 266.293 68.3339 266.041 67.0652C265.788 65.7965 265.917 64.4814 266.412 63.2861C266.907 62.0908 267.745 61.069 268.821 60.3497C269.897 59.6305 271.162 59.2461 272.456 59.2451C273.317 59.2427 274.17 59.4104 274.966 59.7386C275.762 60.0667 276.485 60.5489 277.094 61.1573C277.703 61.7658 278.185 62.4885 278.513 63.2839C278.842 64.0794 279.01 64.9318 279.007 65.7923Z" fill="#544274"/>
<path d="M290.872 32.7882C290.884 34.9278 290.443 37.0458 289.578 39.0029C289.203 39.8453 288.754 40.6525 288.235 41.415C287.161 42.9673 285.872 44.3595 284.406 45.5501C284.155 45.7609 283.879 45.9798 283.51 46.2635C283.047 46.6081 282.532 46.9689 281.94 47.3581C280.894 48.034 279.888 48.769 278.926 49.5594C278.355 50.0038 277.861 50.5378 277.462 51.1405C276.963 52.0121 276.711 53.6985 276.711 56.1552V56.5606H265.775V54.6634C265.775 53.1796 265.812 51.931 265.881 50.8445C265.93 49.86 266.033 48.8788 266.189 47.9054C266.296 47.0492 266.554 46.2188 266.952 45.4527C267.669 44.2568 269.402 42.6312 272.241 40.4826C272.363 40.3934 272.484 40.3002 272.61 40.2069C272.728 40.1258 272.841 40.0407 272.959 39.9515C273.943 39.2533 274.848 38.4514 275.661 37.5597C275.898 37.282 276.117 36.9895 276.318 36.684L276.37 36.603C277.006 35.4772 277.318 34.1976 277.271 32.9057C277.274 32.5789 277.252 32.2523 277.206 31.9287C277.08 30.6667 276.494 29.495 275.559 28.6369C274.545 27.708 273.238 27.163 271.864 27.0964C271.689 27.0802 271.527 27.0761 271.361 27.0761C270.714 27.0725 270.07 27.1488 269.442 27.3031C268.265 27.5932 267.21 28.2456 266.424 29.168C266.008 29.6591 265.654 30.1997 265.37 30.7774C264.411 32.9868 263.798 35.3303 263.552 37.7259L263.512 38.1515L253.217 35.4111V30.8747C253.266 30.6922 253.318 30.5098 253.375 30.3314C254.032 28.0563 255.079 25.9124 256.47 23.9951C257.064 23.1815 257.734 22.4255 258.47 21.737C258.644 21.5627 258.835 21.3925 259.025 21.2262C260.264 20.1515 261.641 19.2462 263.118 18.5344L263.248 18.4736C266.047 17.1807 269.101 16.5323 272.184 16.5763C272.505 16.5763 272.882 16.5804 273.255 16.6006C276.319 16.6783 279.326 17.4445 282.053 18.8425C283.278 19.4761 284.425 20.2487 285.473 21.1451C288.412 23.5394 290.304 26.9818 290.75 30.7449C290.831 31.423 290.872 32.1053 290.872 32.7882Z" fill="#6C63FF"/>
<path opacity="0.3" d="M290.872 32.7882C290.884 34.9278 290.443 37.0458 289.578 39.0029C289.203 39.8453 288.754 40.6525 288.235 41.415C287.161 42.9673 285.872 44.3595 284.406 45.5501C284.155 45.7609 283.879 45.9798 283.51 46.2635C283.047 46.6081 282.532 46.9689 281.94 47.3581C280.894 48.034 279.888 48.769 278.926 49.5594C278.355 50.0038 277.861 50.5378 277.462 51.1405C276.963 52.0121 276.711 53.6985 276.711 56.1552V56.5606H265.775V54.6634C265.775 53.1796 265.812 51.931 265.881 50.8445C265.93 49.86 266.033 48.8788 266.189 47.9054C266.296 47.0492 266.554 46.2188 266.952 45.4527C267.669 44.2568 269.402 42.6312 272.241 40.4826C272.363 40.3934 272.484 40.3002 272.61 40.2069C272.728 40.1258 272.841 40.0407 272.959 39.9515C273.943 39.2533 274.848 38.4514 275.661 37.5597C275.898 37.282 276.117 36.9895 276.318 36.684L276.37 36.603C277.006 35.4772 277.318 34.1976 277.271 32.9057C277.274 32.5789 277.252 32.2523 277.206 31.9287C277.08 30.6667 276.494 29.495 275.559 28.6369C274.545 27.708 273.238 27.163 271.864 27.0964C271.689 27.0802 271.527 27.0761 271.361 27.0761C270.714 27.0725 270.07 27.1488 269.442 27.3031C268.265 27.5932 267.21 28.2456 266.424 29.168C266.008 29.6591 265.654 30.1997 265.37 30.7774C264.411 32.9868 263.798 35.3303 263.552 37.7259L263.512 38.1515L253.217 35.4111V30.8747C253.266 30.6922 253.318 30.5098 253.375 30.3314C254.032 28.0563 255.079 25.9124 256.47 23.9951C257.064 23.1815 257.734 22.4255 258.47 21.737C258.644 21.5627 258.835 21.3925 259.025 21.2262C260.264 20.1515 261.641 19.2462 263.118 18.5344L263.248 18.4736C266.047 17.1807 269.101 16.5323 272.184 16.5763C272.505 16.5763 272.882 16.5804 273.255 16.6006C276.319 16.6783 279.326 17.4445 282.053 18.8425C283.278 19.4761 284.425 20.2487 285.473 21.1451C288.412 23.5394 290.304 26.9818 290.75 30.7449C290.831 31.423 290.872 32.1053 290.872 32.7882Z" fill="#544274"/>
<path d="M274.545 65.7923C274.544 67.0859 274.16 68.3501 273.44 69.4253C272.72 70.5005 271.698 71.3384 270.502 71.833C269.306 72.3276 267.99 72.4567 266.721 72.2042C265.451 71.9516 264.285 71.3286 263.37 70.4139C262.455 69.4992 261.831 68.3339 261.579 67.0652C261.326 65.7965 261.455 64.4814 261.95 63.2861C262.445 62.0908 263.283 61.069 264.359 60.3497C265.435 59.6305 266.7 59.2461 267.994 59.2451C268.855 59.2427 269.708 59.4104 270.504 59.7386C271.3 60.0667 272.023 60.5489 272.632 61.1573C273.241 61.7658 273.723 62.4885 274.051 63.2839C274.38 64.0794 274.548 64.9318 274.545 65.7923Z" fill="#3B8AC3"/>
<path d="M286.41 32.7882C286.422 34.9278 285.981 37.0458 285.116 39.0029C284.741 39.8453 284.292 40.6525 283.773 41.415C282.699 42.9673 281.41 44.3595 279.944 45.5501C279.693 45.7609 279.417 45.9798 279.048 46.2635C278.585 46.6081 278.07 46.9689 277.478 47.3581C276.432 48.034 275.426 48.769 274.464 49.5594C273.894 50.0038 273.399 50.5378 273 51.1405C272.501 52.0121 272.249 53.6985 272.249 56.1552V56.5606H261.314V54.6634C261.314 53.1796 261.35 51.931 261.419 50.8445C261.469 49.86 261.572 48.8788 261.727 47.9054C261.834 47.0492 262.092 46.2188 262.49 45.4527C263.208 44.2568 264.94 42.6312 267.779 40.4826C267.901 40.3934 268.023 40.3002 268.148 40.2069C268.266 40.1258 268.38 40.0407 268.497 39.9515C269.481 39.2533 270.387 38.4514 271.199 37.5597C271.436 37.282 271.656 36.9895 271.856 36.684L271.909 36.603C272.545 35.4772 272.856 34.1976 272.809 32.9057C272.812 32.5789 272.791 32.2523 272.744 31.9287C272.618 30.6667 272.032 29.495 271.097 28.6369C270.083 27.708 268.776 27.163 267.402 27.0964C267.228 27.0802 267.065 27.0761 266.899 27.0761C266.253 27.0725 265.608 27.1488 264.98 27.3031C263.804 27.5932 262.748 28.2456 261.963 29.168C261.546 29.6591 261.192 30.1997 260.908 30.7774C260.178 32.2328 259.703 34.1624 259.496 36.5097L259.456 36.9354L247.879 35.2854L247.936 34.884C248.139 33.3428 248.466 31.8204 248.913 30.3314C249.57 28.0563 250.618 25.9124 252.008 23.9951C252.603 23.1815 253.272 22.4255 254.008 21.737C254.182 21.5627 254.373 21.3925 254.564 21.2262C255.802 20.1515 257.179 19.2462 258.657 18.5344L258.786 18.4736C261.585 17.1807 264.639 16.5323 267.722 16.5763C268.043 16.5763 268.42 16.5804 268.793 16.6006C271.857 16.6783 274.864 17.4445 277.592 18.8425C278.816 19.4761 279.964 20.2487 281.011 21.1451C283.95 23.5394 285.842 26.9818 286.288 30.7449C286.37 31.423 286.41 32.1053 286.41 32.7882Z" fill="#3B8AC3"/>
</svg>
