<svg width="55" height="49" viewBox="0 0 55 49" fill="none" xmlns="http://www.w3.org/2000/svg">
<path d="M27.0047 46.0095C39.1576 46.0095 49.0095 36.1576 49.0095 24.0047C49.0095 11.8519 39.1576 2 27.0047 2C14.8519 2 5 11.8519 5 24.0047C5 36.1576 14.8519 46.0095 27.0047 46.0095Z" fill="url(#paint0_linear)"/>
<path d="M34.2005 35.2475C34.191 35.2475 34.1721 35.2475 34.1626 35.2475H18.2729C16.3863 35.2475 14.8599 33.7116 14.8599 31.825V24.0318C14.8599 22.1452 16.3957 20.6188 18.2729 20.6188H20.8422L24.9853 11.3087C25.1749 10.8821 25.6015 10.5977 26.0755 10.5977C28.5785 10.5977 30.6073 12.6265 30.6073 15.1294V18.3908H35.7174C35.8786 18.3908 36.0777 18.4003 36.2578 18.4287C38.1161 18.7131 39.4054 20.4576 39.121 22.3158L37.5851 32.3369C37.3197 34.0055 35.8786 35.2475 34.2005 35.2475ZM22.8047 32.8679H34.1721H34.1816C34.703 32.8679 35.1486 32.4886 35.2244 31.9861L36.7603 21.965C36.8456 21.4057 36.4569 20.8748 35.8881 20.7894C35.8312 20.7799 35.7554 20.7799 35.7174 20.7799H29.4033C28.7491 20.7799 28.2087 20.249 28.2087 19.5854V15.1294C28.2087 14.2003 27.6114 13.3945 26.7771 13.1006L22.7952 22.0598V32.8679H22.8047ZM18.2729 22.9984C17.7041 22.9984 17.2395 23.463 17.2395 24.0318V31.825C17.2395 32.3938 17.7041 32.8584 18.2729 32.8584H20.425V22.9984H18.2729Z" fill="white"/>
<defs>
<linearGradient id="paint0_linear" x1="-46.71" y1="-17.598" x2="58.1227" y2="41.565" gradientUnits="userSpaceOnUse">
<stop stop-color="#F6C462"/>
<stop offset="1" stop-color="#FF6B00"/>
</linearGradient>
</defs>
</svg>
