<svg width="55" height="49" viewBox="0 0 55 49" fill="none" xmlns="http://www.w3.org/2000/svg">
<path d="M23.6213 47.3904L4.60593 28.3677C2.46469 26.2265 2.46469 22.7625 4.60593 20.6213L23.6213 1.60593C25.7625 -0.535309 29.2265 -0.535309 31.3677 1.60593L50.3904 20.6286C52.5316 22.7698 52.5316 26.2338 50.3904 28.3751L31.3677 47.3904C29.2338 49.5317 25.7625 49.5317 23.6213 47.3904Z" fill="url(#paint0_linear)"/>
<path d="M27.4936 11.9219C22.8749 11.9219 19.1113 15.6782 19.1113 20.3041C19.1113 24.9301 22.8676 28.6864 27.4936 28.6864C32.1122 28.6864 35.8758 24.9301 35.8758 20.3041C35.8758 15.6782 32.1195 11.9219 27.4936 11.9219ZM27.4936 26.2236C24.2269 26.2236 21.5741 23.5635 21.5741 20.3041C21.5741 17.0448 24.2342 14.3847 27.4936 14.3847C30.7602 14.3847 33.413 17.0448 33.413 20.3041C33.413 23.5635 30.7602 26.2236 27.4936 26.2236Z" fill="white"/>
<path d="M32.7333 37.0603C32.5506 37.0603 32.3606 37.0092 32.1925 36.9142L27.4934 34.0933L22.7944 36.9142C22.4509 37.1188 22.0198 37.1115 21.6836 36.8923C21.3474 36.673 21.1647 36.2784 21.2232 35.8764L22.4875 26.3322C22.5606 25.7622 23.0867 25.353 23.6641 25.4334C24.2341 25.5064 24.6433 26.0326 24.5629 26.6099L23.5837 33.9983L26.96 31.974C27.2888 31.7767 27.7054 31.7767 28.0342 31.974L31.4105 33.9983L30.4312 26.5953C30.3582 26.0253 30.7601 25.4918 31.3301 25.4187C31.9075 25.3457 32.4336 25.7476 32.5067 26.3176L33.771 35.8691C33.8221 36.2711 33.6468 36.6584 33.3106 36.8849C33.1352 37.0092 32.9306 37.0603 32.7333 37.0603Z" fill="white"/>
<defs>
<linearGradient id="paint0_linear" x1="53.9827" y1="6.079" x2="-1.25354" y2="44.4905" gradientUnits="userSpaceOnUse">
<stop offset="0.0435" stop-color="#D73EAF"/>
<stop offset="0.7568" stop-color="#9A3BA9"/>
</linearGradient>
</defs>
</svg>
