<svg width="55" height="49" viewBox="0 0 55 49" fill="none" xmlns="http://www.w3.org/2000/svg">
<path d="M48.5674 43H6.43263C2.87976 43 0 40.1158 0 36.5575V13.4425C0 9.88417 2.87976 7 6.43263 7H48.5674C52.1202 7 55 9.88417 55 13.4425V36.5506C55 40.1158 52.1202 43 48.5674 43Z" fill="url(#paint0_linear)"/>
<path d="M45.9306 15.432C45.9237 15.3834 45.9029 15.3417 45.889 15.293C45.8751 15.2374 45.8612 15.1818 45.8335 15.1262C45.8126 15.0706 45.7779 15.022 45.7502 14.9733C45.7294 14.9316 45.7086 14.883 45.6808 14.8413C45.5628 14.6606 45.4032 14.5077 45.2228 14.3826C45.1812 14.3548 45.1326 14.334 45.091 14.3131C45.0424 14.2853 44.9938 14.2575 44.9383 14.2297C44.8828 14.2089 44.8273 14.195 44.7718 14.1741C44.7232 14.1602 44.6816 14.1394 44.633 14.1324C44.5289 14.1116 44.4179 14.0977 44.3138 14.0977H34.4254C33.5164 14.0977 32.7739 14.8343 32.7739 15.7517C32.7739 16.6691 33.5095 17.4058 34.4254 17.4058H40.3376L28.652 29.1023L21.581 22.0135C20.9357 21.3672 19.8948 21.3672 19.2494 22.0135L6.89075 34.398C6.2454 35.0374 6.2454 36.0868 6.89075 36.7262C7.20995 37.0459 7.63324 37.2127 8.05653 37.2127C8.47982 37.2127 8.90311 37.0529 9.22231 36.7262L20.4152 25.5162L27.4932 32.605C28.1385 33.2513 29.1794 33.2513 29.8248 32.605L42.6692 19.7409V25.6621C42.6692 26.5726 43.4047 27.3162 44.3207 27.3162C45.2297 27.3162 45.9722 26.5795 45.9722 25.6621V15.7517C45.9584 15.6475 45.9514 15.5363 45.9306 15.432Z" fill="white"/>
<defs>
<linearGradient id="paint0_linear" x1="1.64327" y1="41.1692" x2="58.6624" y2="5.62437" gradientUnits="userSpaceOnUse">
<stop offset="0.0126" stop-color="#00AF9A"/>
<stop offset="1" stop-color="#0AA7FF"/>
</linearGradient>
</defs>
</svg>
