<svg width="55" height="49" viewBox="0 0 55 49" fill="none" xmlns="http://www.w3.org/2000/svg">
<path d="M27.5 45C38.8218 45 48 35.8218 48 24.5C48 13.1782 38.8218 4 27.5 4C16.1782 4 7 13.1782 7 24.5C7 35.8218 16.1782 45 27.5 45Z" fill="url(#paint0_linear)"/>
<path d="M30.3096 23.3714H28.6178V17.7419H33.1195C33.7428 17.7419 34.2474 17.2373 34.2474 16.614C34.2474 15.9906 33.7428 15.4861 33.1195 15.4861H28.6178V12.1123C28.6178 11.489 28.1132 10.9844 27.4899 10.9844C26.8666 10.9844 26.362 11.489 26.362 12.1123V15.4861H24.6701C21.8801 15.4861 19.6045 17.7616 19.6045 20.5517C19.6045 23.3418 21.8801 25.6173 24.6701 25.6173H26.362V31.2469H20.7324C20.1091 31.2469 19.6045 31.7515 19.6045 32.3748C19.6045 32.9981 20.1091 33.5027 20.7324 33.5027H26.362V36.8765C26.362 37.4998 26.8666 38.0044 27.4899 38.0044C28.1132 38.0044 28.6178 37.4998 28.6178 36.8765V33.5027H30.3096C33.0997 33.5027 35.3752 31.2271 35.3752 28.4371C35.3752 25.647 33.0997 23.3714 30.3096 23.3714ZM24.68 23.3714C23.1267 23.3714 21.8702 22.105 21.8702 20.5616C21.8702 19.0182 23.1366 17.7517 24.68 17.7517H26.3719V23.3813H24.68V23.3714ZM30.3096 31.2469H28.6178V25.6173H30.3096C31.8629 25.6173 33.1195 26.8837 33.1195 28.4272C33.1195 29.9706 31.8629 31.2469 30.3096 31.2469Z" fill="white"/>
<defs>
<linearGradient id="paint0_linear" x1="5.99865" y1="7.0937" x2="60.1504" y2="50.9309" gradientUnits="userSpaceOnUse">
<stop offset="0.0126" stop-color="#26A7FF"/>
<stop offset="1" stop-color="#89ACFB"/>
</linearGradient>
</defs>
</svg>
