<svg width="44" height="44" viewBox="0 0 44 44" fill="none" xmlns="http://www.w3.org/2000/svg">
<path d="M7.02141 25.7275C6.7626 26.0536 6.43514 26.3222 6.06088 26.5157C5.68664 26.7092 5.2742 26.823 4.85108 26.8495C4.42796 26.8759 4.00387 26.8145 3.60712 26.6693C3.21038 26.5241 2.85009 26.2985 2.55028 26.0074C2.25046 25.7164 2.01802 25.3666 1.86845 24.9815C1.71889 24.5963 1.65565 24.1846 1.68294 23.7739C1.71022 23.3631 1.8274 22.9627 2.02668 22.5993C2.22596 22.2361 2.50277 21.9182 2.83862 21.6669L22.4926 2.68846C22.7515 2.36243 23.0789 2.09374 23.4531 1.90027C23.8274 1.70681 24.2399 1.59304 24.663 1.56655C25.0861 1.54006 25.5101 1.60147 25.9069 1.74665C26.3036 1.89185 26.6639 2.1175 26.9637 2.40856C27.2635 2.69961 27.496 3.04937 27.6456 3.43453C27.7952 3.81969 27.8584 4.23137 27.8311 4.64213C27.8039 5.05289 27.6867 5.45329 27.4873 5.81659C27.2881 6.17991 27.0113 6.49781 26.6754 6.74906L7.02141 25.7275Z" fill="#D5584D"/>
<path d="M22.5151 40.7705C22.2563 41.0965 21.9288 41.3653 21.5546 41.5587C21.1803 41.7521 20.7678 41.8659 20.3447 41.8924C19.9216 41.9189 19.4976 41.8575 19.1009 41.7123C18.704 41.5671 18.3438 41.3414 18.044 41.0504C17.7442 40.7594 17.5117 40.4096 17.3621 40.0245C17.2125 39.6392 17.1493 39.2276 17.1766 38.8168C17.2038 38.406 17.3211 38.0056 17.5204 37.6424C17.7196 37.279 17.9965 36.9611 18.3323 36.7099L37.9863 17.7314C38.2451 17.4054 38.5726 17.1367 38.9468 16.9432C39.3211 16.7498 39.7336 16.636 40.1567 16.6095C40.5798 16.583 41.0038 16.6445 41.4005 16.7897C41.7973 16.9348 42.1576 17.1605 42.4574 17.4515C42.7572 17.7425 42.9897 18.0923 43.1393 18.4774C43.2888 18.8627 43.3521 19.2743 43.3248 19.6851C43.2974 20.0959 43.1803 20.4963 42.981 20.8596C42.7818 21.2229 42.5049 21.5408 42.1691 21.792L22.5151 40.7705Z" fill="#544274"/>
<path d="M6.56685 11.1956C6.30802 11.5216 5.98056 11.7903 5.60631 11.9838C5.23206 12.1773 4.81961 12.291 4.39649 12.3175C3.97336 12.344 3.5493 12.2825 3.15256 12.1374C2.75581 11.9922 2.3955 11.7666 2.09568 11.4755C1.79587 11.1845 1.56345 10.8347 1.41388 10.4495C1.26432 10.0644 1.20106 9.65269 1.22835 9.24193C1.25563 8.83117 1.37283 8.43077 1.57211 8.06747C1.7714 7.70415 2.04818 7.38625 2.38402 7.135L7.31244 2.35056C7.57127 2.02453 7.89873 1.75584 8.27297 1.56239C8.64723 1.36892 9.05965 1.25514 9.48277 1.22866C9.9059 1.20217 10.33 1.26356 10.7267 1.40876C11.1235 1.55395 11.4838 1.77961 11.7836 2.07066C12.0834 2.36172 12.3158 2.71148 12.4654 3.09664C12.615 3.48179 12.6782 3.89349 12.6509 4.30425C12.6237 4.71501 12.5065 5.1154 12.3072 5.47872C12.1079 5.84203 11.8311 6.15991 11.4952 6.41117L6.56685 11.1956Z" fill="#544274"/>
<path d="M37.5389 41.2718C37.2802 41.5979 36.9528 41.8665 36.5785 42.06C36.2043 42.2535 35.7918 42.3673 35.3686 42.3937C34.9455 42.4202 34.5214 42.3588 34.1247 42.2136C33.7279 42.0684 33.3676 41.8428 33.0678 41.5517C32.768 41.2607 32.5356 40.9109 32.386 40.5257C32.2364 40.1406 32.1733 39.7288 32.2005 39.3181C32.2278 38.9074 32.345 38.507 32.5443 38.1436C32.7435 37.7804 33.0204 37.4625 33.3561 37.2112L38.2846 32.4268C38.5434 32.1007 38.8709 31.8321 39.2452 31.6386C39.6194 31.4451 40.0318 31.3313 40.4549 31.3048C40.878 31.2784 41.3022 31.3398 41.6989 31.485C42.0956 31.6302 42.4559 31.8558 42.7557 32.1468C43.0556 32.4379 43.288 32.7877 43.4375 33.1728C43.5871 33.558 43.6504 33.9696 43.623 34.3804C43.5958 34.7912 43.4786 35.1916 43.2793 35.5548C43.08 35.9182 42.8033 36.2361 42.4674 36.4874L37.5389 41.2718Z" fill="#449BD9"/>
<path d="M42.6837 2.17535L42.5718 2.08847C42.111 1.63814 41.4883 1.3787 40.8346 1.36466H40.7227H40.6109H32.4317C32.0663 1.33806 31.6994 1.38495 31.3535 1.50239C31.0078 1.61982 30.6907 1.80529 30.4222 2.04717C30.1537 2.28905 29.9394 2.58213 29.7929 2.90808C29.6465 3.23404 29.5708 3.58583 29.5708 3.94146C29.5708 4.29708 29.6465 4.64887 29.7929 4.97482C29.9394 5.30076 30.1537 5.59385 30.4222 5.83573C30.6907 6.07761 31.0078 6.26308 31.3535 6.38051C31.6994 6.49796 32.0663 6.54484 32.4317 6.51824H33.9974L2.55551 37.0488C2.21683 37.2992 1.93727 37.6171 1.73564 37.9809C1.53401 38.3449 1.41499 38.7465 1.38655 39.1589C1.35811 39.5713 1.42092 39.9846 1.57076 40.3714C1.72061 40.7583 1.95401 41.1094 2.25529 41.4014C2.55657 41.6934 2.91874 41.9193 3.31744 42.0641C3.71615 42.2088 4.14214 42.2691 4.56683 42.2407C4.99152 42.2124 5.40504 42.0961 5.77959 41.8997C6.15414 41.7033 6.48103 41.4314 6.7383 41.1022L38.1728 10.5861V12.0337C38.1454 12.3883 38.1937 12.7447 38.3147 13.0803C38.4356 13.416 38.6267 13.7238 38.8758 13.9845C39.125 14.2452 39.4269 14.4531 39.7627 14.5954C40.0984 14.7377 40.4608 14.811 40.8271 14.811C41.1934 14.811 41.5558 14.7377 41.8917 14.5954C42.2274 14.4531 42.5293 14.2452 42.7784 13.9845C43.0276 13.7238 43.2186 13.416 43.3396 13.0803C43.4605 12.7447 43.5089 12.3883 43.4814 12.0337V4.31783C43.5129 3.92619 43.4579 3.53254 43.3204 3.16311C43.1828 2.79368 42.9659 2.45695 42.6837 2.17535Z" fill="#449BD9"/>
</svg>
