<svg width="32" height="11" viewBox="0 0 32 11" fill="none" xmlns="http://www.w3.org/2000/svg">
<path d="M23.26 1.1632C22.5167 0.892589 21.731 0.756684 20.94 0.761861C18.38 0.761861 16.5733 2.05253 16.56 3.90186C16.544 5.26186 17.8453 6.02719 18.828 6.4832C19.8373 6.94986 20.1747 7.2432 20.172 7.6632C20.1653 8.2992 19.3653 8.5872 18.6227 8.5872C17.6013 8.5872 17.0413 8.44453 16.1813 8.0872L15.8627 7.9392L15.5013 10.0699C16.1227 10.3299 17.2427 10.5525 18.4013 10.5699C21.1227 10.5699 22.9013 9.28853 22.9227 7.31786C22.944 6.23386 22.2427 5.41119 20.7613 4.73386C19.8627 4.29386 19.3027 3.9992 19.3027 3.55253C19.3027 3.15786 19.7813 2.73653 20.7813 2.73653C21.4464 2.72058 22.1073 2.8446 22.7213 3.10053L22.9613 3.20853L23.3227 1.14986L23.26 1.1632ZM29.904 0.936529H27.904C27.2813 0.936529 26.816 1.10586 26.5427 1.72453L22.696 10.4365H25.4173L25.9613 9.00986L29.2813 9.01253C29.3627 9.34586 29.6013 10.4365 29.6013 10.4365H32L29.904 0.936529ZM12.88 0.856528H15.4707L13.8507 10.3619H11.2587L12.88 0.853862V0.856528ZM6.29467 6.09519L6.564 7.4152L9.09867 0.936529H11.844L7.76267 10.4232H5.024L2.784 2.38853C2.74787 2.25612 2.66185 2.14286 2.544 2.07253C1.73836 1.65404 0.883805 1.33739 0 1.12986L0.0333333 0.929862H4.208C4.77333 0.951195 5.22933 1.12986 5.38533 1.7352L6.29467 6.0992V6.09519ZM26.7053 7.06453L27.7387 4.40586C27.7253 4.43253 27.952 3.85653 28.0827 3.4992L28.26 4.31919L28.8587 7.06186H26.7053V7.06453Z" fill="#0F3A79"/>
</svg>
