<svg width="240" height="237" viewBox="0 0 240 237" fill="none" xmlns="http://www.w3.org/2000/svg">
<g clip-path="url(#clip0)">
<path fill-rule="evenodd" clip-rule="evenodd" d="M239.943 44.2152C239.943 39.5992 239.314 39.0133 234.741 39.0276C218.049 39.1324 201.377 39.2134 184.723 39.2705C184.009 39.2705 183.294 39.3563 182.565 39.2705C182.442 39.2854 182.317 39.2854 182.194 39.2705H180.507H180.307H178.65C178.497 39.2783 178.345 39.2783 178.192 39.2705C178.036 39.2945 177.877 39.2945 177.721 39.2705H177.149C176.905 39.27 176.665 39.2112 176.449 39.099H175.448H175.234C174.943 39.1601 174.646 39.1889 174.348 39.1848C170.447 39.1848 166.56 39.1848 162.658 39.2562C159.971 39.2562 158.942 40.2852 158.928 42.9433C158.928 50.3745 158.928 57.8057 158.928 65.2512C158.902 66.3152 159.234 67.3571 159.871 68.2094L160.829 68.8097H160.915C163.058 68.4381 163.973 69.2527 163.773 71.482C163.616 72.9111 163.773 74.4688 163.773 75.9551C163.773 78.3131 167.331 74.526 167.817 73.9972C168.825 72.4494 169.994 71.0124 171.304 69.71C172.847 68.4953 174.162 69.1526 175.877 68.6953H193.312C207.688 68.6953 222.06 68.6572 236.427 68.581C239.114 68.581 240.014 67.5807 240.014 64.7796C240.005 57.9963 239.981 51.1414 239.943 44.2152Z" fill="#92C0E9"/>
<path fill-rule="evenodd" clip-rule="evenodd" d="M73.469 106.637H72.7402C72.5973 118.612 72.8831 133.789 72.8831 145.765C72.8831 157.312 72.8831 168.859 72.9689 180.406C72.9689 181.721 72.9689 183.035 73.0832 184.35C73.2547 188.909 72.8117 193.482 73.4547 198.027C73.4547 196.969 73.5405 195.897 73.5405 194.84C73.5405 168.373 73.5071 141.906 73.4405 115.44C73.4547 113.568 73.469 108.452 73.469 106.637Z" fill="#3A88E6"/>
<path fill-rule="evenodd" clip-rule="evenodd" d="M62.1366 94.2602L62.0222 94.1602L61.9937 94.3174L62.1366 94.2602Z" fill="#3A88E6"/>
<path fill-rule="evenodd" clip-rule="evenodd" d="M35.7271 143.191H67.6528C71.0826 143.191 71.2969 143.42 71.3112 146.793C71.3112 151.594 71.3112 156.382 71.3112 161.184C71.3112 164.142 69.8821 165.471 67.024 165.814C66.2666 165.914 64.8089 165.814 64.2801 166.385C63.7514 166.957 64.7374 172.888 63.6942 172.559C62.994 172.33 62.3795 170.93 62.0079 170.358C61.3317 169.164 60.3438 168.176 59.1497 167.5C56.6631 166.257 53.6621 166.543 50.9754 166.543C35.1697 166.628 19.3641 166.543 3.55845 166.543C0.0857791 166.543 -0.0571289 166.4 -0.0571289 162.956V146.736C-0.0571289 143.492 0.185815 143.206 3.38696 143.206L35.7271 143.191Z" fill="#92C0E9"/>
<path fill-rule="evenodd" clip-rule="evenodd" d="M212.733 20.3768C212.27 20.0391 211.897 19.5925 211.648 19.0766C211.399 18.5606 211.281 17.9912 211.304 17.4186C211.304 14.932 211.304 12.4597 211.304 9.97309C211.251 9.48294 211.31 8.98724 211.475 8.52271C211.64 8.05818 211.907 7.63671 212.257 7.28951C212.607 6.94231 213.031 6.67827 213.496 6.51694C213.962 6.35561 214.458 6.30112 214.948 6.35751C219.821 6.35751 224.694 6.35751 229.568 6.35751C230.037 6.30958 230.512 6.36758 230.956 6.52723C231.4 6.68688 231.803 6.94412 232.135 7.28003C232.467 7.61594 232.719 8.02197 232.873 8.46825C233.027 8.91452 233.08 9.38968 233.026 9.85876C233.026 12.2453 233.026 14.6319 233.026 17.0042C233.097 17.8101 232.859 18.613 232.36 19.2499C231.861 19.8868 231.139 20.3101 230.339 20.434L221.407 20.3482C217.12 20.3482 217.12 20.3482 215.92 24.0781C215.877 23.9093 215.788 23.7558 215.663 23.6351C214.919 22.3632 214.791 20.5197 212.733 20.3768ZM227.024 12.474C226.195 12.474 225.666 12.9599 225.68 13.7744C225.681 13.9544 225.72 14.1321 225.794 14.2959C225.869 14.4597 225.977 14.6059 226.112 14.7247C226.247 14.8436 226.406 14.9324 226.578 14.9854C226.75 15.0384 226.931 15.0543 227.109 15.032C227.262 15.0574 227.419 15.0469 227.567 15.0015C227.715 14.956 227.85 14.8769 227.962 14.7702C228.075 14.6635 228.161 14.5323 228.213 14.3868C228.266 14.2413 228.285 14.0855 228.267 13.9316C228.285 13.749 228.265 13.5646 228.208 13.3902C228.151 13.2158 228.058 13.055 227.936 12.9181C227.814 12.7811 227.665 12.671 227.498 12.5945C227.331 12.5181 227.15 12.4771 226.967 12.474H227.024ZM222.093 15.0177C222.405 15.0185 222.705 14.9009 222.934 14.6886C223.162 14.4764 223.301 14.1854 223.322 13.8745C223.361 13.6948 223.356 13.5088 223.31 13.331C223.264 13.1533 223.177 12.9886 223.057 12.8501C222.936 12.7116 222.785 12.6029 222.616 12.5327C222.446 12.4624 222.262 12.4326 222.079 12.4454C221.897 12.4355 221.714 12.4673 221.546 12.5385C221.378 12.6097 221.228 12.7183 221.108 12.8561C220.988 12.994 220.902 13.1573 220.854 13.3338C220.807 13.5103 220.801 13.6952 220.836 13.8745C220.822 14.6176 221.365 14.932 222.036 15.0177H222.093ZM218.449 13.7602C218.135 13.2457 217.82 12.5597 217.02 12.574C216.22 12.5883 216.006 13.1742 215.977 13.8316C215.947 14.0045 215.961 14.1822 216.018 14.3482C216.074 14.5143 216.172 14.6633 216.302 14.7816C216.431 14.8998 216.589 14.9835 216.759 15.0248C216.93 15.066 217.108 15.0636 217.277 15.0177C217.589 14.9922 217.88 14.8471 218.087 14.6128C218.295 14.3785 218.404 14.073 218.392 13.7602H218.449Z" fill="#7C3AA6"/>
<path fill-rule="evenodd" clip-rule="evenodd" d="M181.265 39.0132C180.893 38.9275 180.779 38.7703 181.15 38.5273C181.216 38.5875 181.262 38.666 181.282 38.7527C181.303 38.8393 181.297 38.9301 181.265 39.0132Z" fill="#3A88E6"/>
<path fill-rule="evenodd" clip-rule="evenodd" d="M117.042 228.395C116.47 225.922 117.128 223.236 115.713 220.906C116.857 221.58 118.158 221.945 119.486 221.964C124.673 222.264 129.904 222.378 135.02 223.193C138.178 223.693 141.565 223.45 144.495 225.179C144.066 226.265 144.823 227.208 144.895 228.252L117.042 228.395Z" fill="#F1AC88"/>
<path fill-rule="evenodd" clip-rule="evenodd" d="M77.8566 135.504C78.2572 140.256 78.3813 145.028 78.2282 149.795C78.4283 172.346 78.4997 194.882 78.6283 217.419C78.6091 217.682 78.5757 217.945 78.5283 218.205L78.0138 218.634C78.0138 218.019 77.8566 217.419 77.8566 216.804C77.7995 190.309 77.7566 163.814 77.728 137.319C77.728 136.747 77.8138 136.133 77.8566 135.504Z" fill="#3A88E6"/>
<path fill-rule="evenodd" clip-rule="evenodd" d="M45.2876 104.034C46.0306 97.4772 47.7002 91.0586 50.2465 84.9704C53.2761 77.5106 56.3772 70.0794 61.2218 63.5342C62.4589 61.8915 63.8995 60.4124 65.5091 59.1326C67.1668 57.8179 68.1957 58.2323 68.7674 60.3045C69.7106 63.7057 68.7674 67.0497 67.9814 70.2366C65.1695 81.7942 60.4197 92.7918 53.9335 102.762C52.9453 104.125 51.8713 105.423 50.7181 106.65C49.6748 107.864 48.5173 109.351 46.7738 108.679C45.0303 108.007 45.2304 106.249 45.2876 104.034ZM52.433 88.0715C52.4211 89.1896 52.6927 90.2924 53.2225 91.2771C53.7523 92.2617 54.523 93.096 55.4626 93.7021C56.7202 94.6739 57.6062 94.4738 58.3208 92.9447C60.2698 89.0911 61.9413 85.1034 63.3226 81.0119C63.6084 80.0687 64.523 78.9683 63.3226 78.1537C62.779 77.6304 62.0929 77.2794 61.3505 77.1447C60.6081 77.0099 59.8425 77.0974 59.1497 77.3963C57.1405 78.3653 55.4449 79.8806 54.257 81.7685C53.0691 83.6565 52.437 85.8409 52.433 88.0715Z" fill="#76777A"/>
<path fill-rule="evenodd" clip-rule="evenodd" d="M83.9585 77.4109C85.1589 76.1676 84.5587 74.5527 84.8302 73.1237C84.9589 72.4091 84.7445 71.2802 85.7877 71.323C86.8309 71.3659 86.3736 72.4234 86.4594 73.0808C86.4594 73.4238 86.4594 73.781 86.5737 74.124C86.3736 75.7961 86.1879 77.4824 86.0021 79.1544H86.7166C86.9167 77.4824 87.1311 75.8246 87.3311 74.1526C87.817 72.9236 87.4597 70.6514 89.1175 70.8657C90.2465 71.0229 89.3604 73.1951 89.2747 74.4241C89.0049 75.8906 88.9664 77.3902 89.1604 78.8686C90.5894 77.5824 90.3751 76.0104 90.7181 74.5813C90.9038 73.8382 90.9324 72.6807 91.9328 72.795C92.9331 72.9093 92.6616 74.0669 92.6187 74.7814C92.4758 76.8107 92.1757 78.8257 92.0185 80.855C91.8899 82.4127 92.2186 83.4845 94.0335 82.1841C94.2363 82.0105 94.4624 81.8662 94.7052 81.7553C95.8627 81.3266 97.3919 79.9261 98.1921 81.2837C98.9924 82.6414 96.906 82.7128 96.0914 83.4131C95.0693 84.1098 94.223 85.0344 93.6191 86.114C90.1178 83.5274 86.2593 81.3266 83.9585 77.4109Z" fill="#F1AC88"/>
<path fill-rule="evenodd" clip-rule="evenodd" d="M102.894 92.2895C101.722 91.3178 100.122 91.0034 99.1069 89.7601C97.1624 88.7567 95.3361 87.5392 93.6621 86.1302C92.8046 85.4871 91.9329 84.8726 91.0469 84.2438C89.4768 83.1788 87.9953 81.9888 86.6167 80.6854C86.0022 80.0852 82.6439 75.8551 82.3295 75.4692C82.0151 75.0834 78.5996 70.6247 78.5996 70.6104C78.5996 70.5961 77.2705 69.0812 77.2705 69.0812C75.9122 67.2032 74.7305 65.2035 73.7407 63.1077C73.6407 62.9505 73.5549 62.779 73.4692 62.6218C72.7689 61.4928 72.0401 60.4067 71.297 59.2635C68.7532 56.048 66.8525 55.8194 63.6942 58.4346C62.3941 59.5104 61.2282 60.7387 60.2216 62.093C53.9908 70.5246 50.1608 80.1709 46.7453 90.0316C44.7816 94.9866 43.759 100.264 43.73 105.594C43.9015 110.396 45.4735 111.596 50.0608 110.467C56.4248 108.832 62.8952 107.643 69.4249 106.909C70.1299 106.78 70.8557 106.824 71.5399 107.038C72.3259 107.038 73.0976 107.038 73.8693 107.038C74.1091 106.891 74.379 106.801 74.6587 106.773C74.9384 106.746 75.2206 106.783 75.4842 106.88C75.7714 106.939 76.0468 107.045 76.2987 107.195C76.983 107.264 77.6613 107.383 78.328 107.552C78.8518 107.405 79.4094 107.436 79.9143 107.638C80.9861 107.952 82.258 107.752 83.0726 108.781C84.7762 108.444 86.5422 108.639 88.1315 109.338C90.9897 110.425 93.7193 110.11 95.9772 112.397C98.7353 107.552 100.55 101.879 102.765 96.6768C103.337 95.3056 103.722 93.8635 103.909 92.3896L102.894 92.2895ZM62.7511 93.1327C62.7511 93.1327 62.6367 93.1327 62.5796 93.1327L62.8797 92.8898C62.8484 92.9763 62.8051 93.0581 62.7511 93.1327ZM67.9386 70.2674C65.1268 81.825 60.3769 92.8226 53.8907 102.793C52.9025 104.156 51.8285 105.454 50.6753 106.68C49.6321 107.895 48.4745 109.381 46.7311 108.71C44.9876 108.038 45.2305 106.266 45.302 104.051C46.045 97.4937 47.7146 91.0751 50.2609 84.9869C53.2905 77.5271 56.3916 70.0959 61.2362 63.5507C62.4733 61.908 63.9139 60.429 65.5235 59.1491C67.1812 57.8344 68.2101 58.2488 68.7818 60.321C69.6678 63.7222 68.7246 67.0662 67.9386 70.2531V70.2674Z" fill="#4858CC"/>
<path fill-rule="evenodd" clip-rule="evenodd" d="M62.1366 94.2602L61.9937 94.3174L62.0222 94.1602L62.1366 94.2602Z" fill="#064BBA"/>
<path fill-rule="evenodd" clip-rule="evenodd" d="M145.166 116.396C144.523 116.896 142.994 115.638 143.008 117.482C142.808 118.568 143.008 119.697 141.98 120.597C140.951 121.498 140.393 122.812 139.121 121.683C138.588 121.335 138.211 120.793 138.07 120.172C137.929 119.55 138.034 118.899 138.364 118.354L139.078 117.296C139.593 117.21 139.664 116.825 139.664 116.396C140.722 116.31 141.922 116.396 141.094 114.667C140.933 114.296 140.873 113.89 140.918 113.489C140.963 113.088 141.112 112.706 141.351 112.38C143.494 109.865 141.808 107.564 141.108 105.235L141.236 104.706C142.823 102.648 143.852 100.519 141.837 98.1608C141.051 97.2319 141.279 96.1744 141.208 95.1454C141.951 94.388 142.365 93.7163 140.851 93.3876C139.888 93.2034 139.037 92.6493 138.478 91.8442C137.564 88 138.321 84.0986 138.164 80.2258C138.164 79.1397 139.007 79.3683 139.407 79.7256C140.293 80.5259 140.736 79.9114 141.022 79.2826C141.451 78.3394 142.194 77.4105 141.737 76.2672C141.603 75.881 141.323 75.5634 140.956 75.3839C140.589 75.2044 140.165 75.1777 139.779 75.3098C139.093 75.4812 138.192 75.8814 138.35 74.7238C138.693 72.2229 137.135 71.8657 135.263 71.2655C134.052 70.9256 132.922 70.3456 131.94 69.5599C130.958 68.7743 130.144 67.7991 129.547 66.6924C129.073 65.8645 128.548 65.0674 127.975 64.3058C127.975 66.3923 128.346 68.5931 127.174 69.079C124.573 70.0364 122.387 72.1372 119.429 72.0229C118.662 70.2101 118.446 68.2114 118.81 66.2769C119.173 64.3424 120.099 62.5582 121.472 61.1476C122.827 59.3667 124.666 58.0149 126.771 57.2543C128.875 56.4938 131.154 56.357 133.334 56.8603C136.47 57.5427 139.34 59.1216 141.595 61.405C143.851 63.6883 145.394 66.5778 146.038 69.722C146.767 73.6377 147.682 77.582 145.924 81.4834C145.819 81.7276 145.777 81.9944 145.802 82.2591C145.827 82.5237 145.918 82.7779 146.067 82.9982C146.74 84.1532 147.166 85.4361 147.316 86.7648C147.466 88.0936 147.338 89.439 146.938 90.7153C146.638 91.6727 147.181 92.2587 147.624 92.8732C148.138 93.5434 148.499 94.318 148.682 95.1426C148.865 95.9672 148.865 96.8217 148.682 97.6463C147.081 99.204 146.067 100.819 148.053 102.834C148.31 103.091 148.267 103.648 148.368 104.077C148.468 104.506 148.496 105.178 148.553 105.735C148.61 106.292 148.282 107.164 148.153 107.793C148.006 107.89 147.867 108 147.739 108.121C145.309 110.408 146.967 113.938 145.166 116.396Z" fill="#0C3558"/>
<path fill-rule="evenodd" clip-rule="evenodd" d="M119.428 72.0256C122.386 72.14 124.573 70.0392 127.174 69.0817C128.346 68.653 127.96 66.3951 127.974 64.3086C128.571 65.0543 129.12 65.8371 129.618 66.6523C130.215 67.759 131.029 68.7342 132.011 69.5198C132.993 70.3055 134.123 70.8855 135.334 71.2253C137.206 71.8399 138.764 72.1828 138.421 74.6837C138.278 75.8413 139.178 75.4411 139.85 75.2696C140.236 75.1376 140.66 75.1643 141.027 75.3438C141.394 75.5233 141.674 75.8409 141.808 76.2271C142.265 77.3704 141.522 78.2993 141.093 79.2425C140.807 79.8713 140.364 80.4858 139.478 79.6855C139.078 79.3282 138.192 79.0996 138.235 80.1857C138.392 84.0585 137.635 87.9599 138.549 91.8041C137.792 92.6187 138.249 93.5905 138.149 94.4908C133.908 95.3751 129.529 95.3751 125.287 94.4908C125.916 92.5758 125.202 90.6751 125.187 88.7745C125.175 88.4648 125.056 88.1689 124.85 87.9371C124.644 87.7053 124.364 87.5518 124.058 87.5026C120.457 86.3593 119.685 83.444 119.571 80.1857C119.4 77.499 119.443 74.7552 119.428 72.0256ZM128.003 79.6712C126.655 79.7709 125.367 80.2682 124.301 81.1003C126.031 82.0435 127.017 81.6434 127.96 79.6712H128.003Z" fill="#F1AC88"/>
<path fill-rule="evenodd" clip-rule="evenodd" d="M195.055 1.27011C194.655 0.384074 194.169 -0.40192 193.44 0.226876C192.497 1.04145 192.611 2.42766 192.011 3.41373C191.217 4.34189 190.097 4.93009 188.882 5.05717C187.838 5.31441 187.452 5.92891 188.41 6.65774C189.183 7.149 189.759 7.89556 190.038 8.7676C190.318 9.63965 190.283 10.582 189.939 11.4309C189.539 12.6742 190.182 13.4316 191.454 12.4741C192.1 11.9271 192.908 11.6093 193.754 11.5706C194.599 11.5318 195.434 11.7741 196.127 12.2597C197.056 12.8171 198.328 12.6027 197.971 11.5309C197.695 10.9834 197.585 10.3676 197.654 9.75865C197.722 9.14964 197.966 8.57373 198.356 8.10112C198.957 7.32941 201.5 5.71455 200.729 4.81423C199.3 3.17078 197.042 4.81423 195.655 2.51341C195.433 2.11037 195.232 1.6953 195.055 1.27011Z" fill="#EEB26E"/>
<path fill-rule="evenodd" clip-rule="evenodd" d="M55.0053 123.2C54.7767 122.686 54.5051 122.229 54.0907 122.6C53.6763 122.972 53.6191 123.858 53.2475 124.415C52.7937 124.945 52.1549 125.283 51.4612 125.358C50.861 125.501 50.6323 125.859 51.1897 126.273C51.6373 126.556 51.9714 126.987 52.1333 127.491C52.2953 127.995 52.2749 128.54 52.0757 129.031C51.8613 129.746 52.2186 130.174 52.9474 129.631C53.3146 129.315 53.7772 129.13 54.2615 129.107C54.7458 129.083 55.2239 129.223 55.6198 129.503C56.1629 129.831 56.8917 129.703 56.6773 129.088C56.5312 128.782 56.4751 128.441 56.5156 128.105C56.5561 127.768 56.6915 127.45 56.906 127.188C57.249 126.745 58.7066 125.758 58.3351 125.301C57.5062 124.358 56.22 125.301 55.4769 123.986C55.234 123.743 55.1339 123.458 55.0053 123.2Z" fill="#EEB26E"/>
<path fill-rule="evenodd" clip-rule="evenodd" d="M115.498 144.722L115.298 144.637L115.37 144.808L115.498 144.722Z" fill="#EEB26E"/>
<path fill-rule="evenodd" clip-rule="evenodd" d="M155.541 166.458C155.541 166.144 155.541 165.829 155.541 165.515C155.913 161.57 154.698 157.912 153.569 154.239C153.569 154.068 153.569 153.896 153.469 153.71C153.126 152.582 152.783 151.438 152.383 150.309C151.66 148.369 150.7 146.526 149.525 144.822C149.182 144.293 148.896 143.707 148.524 143.192C148.31 142.921 148.067 142.678 147.838 142.406C147.693 142.202 147.52 142.019 147.324 141.863C146.865 141.549 146.388 141.263 145.895 141.006C145.472 140.754 145.075 140.462 144.709 140.134C144.349 139.823 143.897 139.637 143.422 139.605C142.517 139.704 141.628 139.921 140.779 140.249C139.135 140.72 137.506 141.206 135.848 141.578C133.649 142.042 131.408 142.272 129.16 142.264C126.959 142.264 124.759 142.106 122.544 142.164C121.11 142.159 119.678 142.25 118.256 142.435C117.891 142.475 117.55 142.639 117.291 142.898C117.031 143.158 116.867 143.499 116.827 143.864C116.727 144.221 116.627 144.593 116.499 144.936C116.392 145.187 116.32 145.452 116.284 145.722C116.238 146.334 116.142 146.941 115.998 147.537C115.87 148.194 115.727 148.866 115.584 149.523C115.284 150.838 114.969 152.153 114.641 153.453C113.469 157.04 112.693 160.745 112.326 164.5C112.326 164.829 112.168 165.172 112.097 165.5C111.179 169.151 110.785 172.914 110.925 176.676C110.925 177.033 110.925 177.405 110.925 177.762C110.558 185.456 111.12 193.167 112.597 200.727C112.383 201.17 112.369 201.585 112.84 201.871C113.421 205.739 113.998 209.607 114.569 213.475V214.061C115.112 216.333 114.569 218.791 115.684 220.977C116.828 221.652 118.129 222.016 119.457 222.035C124.644 222.335 129.875 222.449 134.991 223.264C138.149 223.764 141.536 223.521 144.466 225.25C146.809 225.765 148.296 225.25 148.653 222.492C148.924 220.491 149.768 218.577 150.082 216.59C151.511 207.673 153.155 198.769 154.369 189.823C155.557 182.095 155.95 174.266 155.541 166.458Z" fill="#7C3AA6"/>
<path fill-rule="evenodd" clip-rule="evenodd" d="M158.799 120.14C158.233 115.274 157.408 110.442 156.327 105.664L156.127 105.149C155.566 103.407 154.6 101.822 153.309 100.525C152.017 99.2285 150.436 98.2566 148.696 97.6893C147.095 99.247 146.081 100.862 148.067 102.877C148.324 103.134 148.281 103.691 148.381 104.12C148.481 104.549 148.51 105.221 148.567 105.778C148.624 106.335 148.296 107.207 148.167 107.836C148.019 107.933 147.881 108.043 147.753 108.164C145.309 110.408 146.967 113.881 145.166 116.396C144.523 116.896 142.994 115.639 143.008 117.482C142.808 118.568 143.008 119.697 141.979 120.597C140.95 121.498 140.393 122.813 139.121 121.684C138.588 121.335 138.211 120.793 138.07 120.172C137.928 119.551 138.034 118.899 138.363 118.354L138.778 117.739C138.878 117.532 139.019 117.348 139.192 117.196C139.352 117.129 139.49 117.021 139.592 116.882C139.733 116.729 139.891 116.595 140.064 116.482C140.421 116.253 140.893 116.353 141.207 116.053C141.522 115.753 141.307 115.038 141.136 114.624C140.976 114.253 140.915 113.847 140.96 113.446C141.005 113.045 141.155 112.663 141.393 112.337C141.85 111.827 142.179 111.214 142.351 110.551C142.521 109.508 142.392 108.437 141.979 107.464C141.808 106.95 141.622 106.45 141.407 105.949C141.281 105.707 141.215 105.437 141.215 105.163C141.215 104.89 141.281 104.62 141.407 104.377C141.55 104.163 141.765 103.992 141.922 103.777C142.532 102.938 142.907 101.951 143.008 100.919C143.011 99.8596 142.613 98.8382 141.893 98.0608C141.107 97.1319 141.336 96.0744 141.265 95.0455C140.107 95.4456 139.221 94.3881 138.135 94.431C133.893 95.3152 129.515 95.3152 125.273 94.431L118.313 95.0169L117.327 95.5028C117.327 95.76 117.327 96.0029 117.327 96.2602C117.742 96.9461 118.514 96.9461 119.142 97.2177C120.543 97.7859 121.876 98.5097 123.115 99.3756C123.708 99.7975 124.258 100.276 124.759 100.805C125.261 101.352 125.698 101.956 126.059 102.605C126.306 102.972 126.512 103.365 126.674 103.777C126.814 104.24 126.843 104.73 126.759 105.206C126.734 105.577 126.657 105.943 126.531 106.292C126.137 106.913 125.919 107.629 125.902 108.365C125.934 108.548 126.013 108.721 126.131 108.866C126.248 109.011 126.4 109.124 126.574 109.193C129.703 110.737 128.889 112.466 127.86 114.638C127.574 115.024 127.288 115.696 126.988 115.696C126.688 115.696 126.188 115.696 125.788 115.696C124.63 114.724 123.53 114.452 122.644 116.082C121.686 116.082 121.457 117.068 120.943 117.511C120.284 118.424 119.39 119.141 118.355 119.586C117.321 120.032 116.186 120.189 115.069 120.04C113.769 120.998 113.64 122.712 112.654 123.856C113.312 125.599 111.983 127.629 113.44 129.243C113.564 129.357 113.718 129.431 113.883 129.458C114.155 129.458 114.869 132.044 115.055 132.416C115.263 132.879 115.571 133.291 115.956 133.622C116.342 133.953 116.795 134.195 117.285 134.331C118.58 134.488 119.89 134.488 121.186 134.331C125.473 134.331 132.619 137.746 135.477 132.587C135.626 132.308 135.803 132.045 136.005 131.801C136.377 131.358 136.734 130.93 137.063 130.458C137.177 130.261 137.301 130.07 137.435 129.886C137.52 129.772 137.663 129.672 137.749 129.544C137.876 129.392 137.995 129.235 138.106 129.072C138.294 128.836 138.466 128.587 138.621 128.329C139.607 126.671 141.064 125.113 141.479 123.327C141.722 122.241 142.465 120.998 143.737 121.469C144.143 121.621 144.576 121.689 145.009 121.669C145.909 121.669 146.824 121.841 147.724 121.826C148.066 121.799 148.411 121.838 148.739 121.941L149.439 122.141C149.953 122.255 150.482 122.384 151.011 122.484C151.54 122.584 151.654 122.484 151.983 122.484C152.306 122.513 152.631 122.513 152.954 122.484H154.555C155.141 122.484 155.713 122.484 156.284 122.484C156.856 122.484 156.999 122.641 157.37 122.684C158.085 122.784 158.585 122.127 158.714 121.512C158.806 121.061 158.834 120.599 158.799 120.14Z" fill="#7C3AA6"/>
<path fill-rule="evenodd" clip-rule="evenodd" d="M126.502 109.338C124.816 108.509 126.774 106.609 126.831 105.151C126.774 104.989 126.774 104.813 126.831 104.651C125.616 100.764 122.544 98.8203 119.071 97.3341C118.442 97.0625 117.642 97.0625 117.256 96.3766C114.398 95.0332 111.54 93.6327 108.567 92.3609C107.053 91.6892 105.409 90.6031 103.909 92.5038C103.722 93.9777 103.337 95.4198 102.765 96.791C100.488 102.079 98.2352 107.371 96.0058 112.668C95.4199 114.312 96.849 114.312 97.7207 114.683C100.765 115.969 98.2923 117.127 97.4063 118.97C96.6438 121.277 96.2389 123.687 96.2059 126.116C93.8514 127.207 91.6351 128.574 89.6035 130.189C88.4747 130.97 87.2955 131.677 86.0737 132.304C85.0448 132.79 84.8161 133.218 85.4449 134.262C86.5453 136.062 87.4742 137.963 88.4746 139.806C91.0898 144.622 100.908 134.776 102.065 132.447C102.46 131.703 102.699 130.885 102.765 130.046C104.194 130.589 104.709 129.789 104.323 128.402C103.972 127.398 103.831 126.333 103.909 125.273C103.98 124.758 104.023 124.115 104.652 124.029C105.281 123.944 105.381 124.615 105.566 125.087C105.995 126.202 105.866 127.602 107.21 128.217C107.524 128.059 107.91 127.688 108.124 127.774C111.383 129.117 112.183 124.544 113.326 122.572C114.47 120.6 116.427 120.814 118.185 120.185C119.084 119.935 119.895 119.44 120.529 118.756C121.215 117.984 121.258 116.341 122.572 116.298C123.458 114.683 124.559 115.012 125.716 115.969H126.917L127.789 114.812C128.818 112.711 129.632 110.882 126.502 109.338Z" fill="#4858CC"/>
<path fill-rule="evenodd" clip-rule="evenodd" d="M98.3495 134.133L95.8486 133.047C96.0682 133.496 96.4406 133.852 96.8989 134.051C97.3573 134.25 97.8716 134.279 98.3495 134.133Z" fill="#064BBA"/>
<path d="M154.984 121.757C154.128 121.557 153.238 121.557 152.383 121.757C152.048 121.822 151.703 121.822 151.368 121.757C151.368 121.757 151.225 121.6 151.168 121.571C150.626 121.384 150.056 121.287 149.482 121.285H146.695C146.538 121.285 146.395 121.399 146.238 121.399H145.766H145.323C145.171 121.407 145.018 121.407 144.866 121.399C144.723 121.399 144.566 121.399 144.409 121.399C144.251 121.399 144.037 121.485 143.851 121.485H143.465C142.351 121.485 141.779 122.557 141.579 123.486C141.165 125.272 139.707 126.83 138.721 128.488C138.622 128.659 138.502 128.817 138.364 128.959C138.3 129.119 138.213 129.268 138.106 129.402C137.247 130.394 136.445 131.434 135.706 132.518C135.598 132.749 135.453 132.962 135.277 133.147C134.952 133.558 134.546 133.897 134.083 134.143C133.621 134.389 133.112 134.536 132.59 134.576C129.449 134.564 126.313 134.345 123.201 133.918C120.343 133.532 117.328 133.261 114.469 132.746C113.146 132.635 111.836 132.406 110.554 132.06C108.239 131.16 106.438 127.302 105.609 125.158C105.423 124.686 105.423 123.986 104.694 124.1C103.966 124.215 104.023 124.829 103.951 125.344C103.872 126.373 103.998 127.408 104.323 128.388C104.709 129.817 104.166 130.603 102.722 130.017C100.479 129.102 98.4351 127.573 96.1057 126.787C95.3626 126.53 93.9049 126.33 93.9192 127.487C93.9335 128.645 95.3483 128.731 96.02 129.031C96.2772 129.131 99.0496 130.989 98.6638 131.117C96.7917 131.817 95.0339 130.103 93.5762 129.288C93.0475 129.002 91.3897 128.516 90.9753 129.202C89.8749 131.031 96.906 132.789 96.8346 134.204C95.4715 133.67 94.1527 133.03 92.8903 132.289C92.4044 132.446 91.6184 132.461 91.4612 132.775C91.1039 133.532 91.9328 133.804 92.4473 134.047C93.8764 134.776 95.4055 135.476 97.0632 136.19C95.9056 136.976 95.1482 136.419 94.3479 136.19C93.8335 136.033 93.1904 135.304 92.8188 136.276C92.2758 137.705 96.5344 138.648 97.3347 138.849C101.336 139.806 105.609 140.049 109.182 142.264C113.469 144.865 118.942 146.023 123.801 146.823C126.417 147.253 129.068 147.435 131.718 147.366H133.591C133.943 147.346 134.297 147.389 134.634 147.495H134.848C135.315 147.377 135.796 147.328 136.277 147.352C139.444 147.412 142.54 146.405 145.066 144.493C146.952 142.907 147.51 140.535 148.796 138.434C149.053 138.005 149.253 137.534 149.51 137.091C149.768 136.648 150.068 136.105 150.354 135.662C150.911 134.661 151.454 133.647 151.969 132.632C152.483 131.617 153.012 130.588 153.498 129.545C153.984 128.502 154.455 127.473 154.927 126.416C155.398 125.358 155.813 124.286 156.227 123.214C156.227 123.214 156.384 122.886 156.356 122.843C156.04 122.331 155.555 121.946 154.984 121.757ZM95.8485 133.046L98.3494 134.133C97.8715 134.279 97.3572 134.249 96.8988 134.05C96.4404 133.851 96.068 133.495 95.8485 133.046Z" fill="#F1AC88"/>
<path d="M93.1191 127.917C93.3046 127.931 93.491 127.931 93.6765 127.917C96.3917 127.417 98.864 122.201 97.3349 119.9C96.7347 118.971 97.8923 118.242 98.4353 117.728C100.079 116.184 99.3642 115.427 97.7208 114.727C96.849 114.355 95.42 114.369 96.0059 112.712C95.2913 111.797 94.1338 111.625 93.1477 111.054C91.4757 110.439 89.7322 110.082 88.0459 109.453C86.4617 108.753 84.7001 108.558 83.0012 108.896C82.7135 113.945 84.0508 118.953 86.8169 123.187C88.0745 124.873 90.7183 127.86 93.1191 127.917Z" fill="#F1AC88"/>
<path fill-rule="evenodd" clip-rule="evenodd" d="M182.723 214.477C182.544 214.57 182.403 214.721 182.323 214.905C182.18 208.375 182.208 173.462 182.208 172.819C182.008 139.007 181.765 105.185 181.479 71.3542C181.515 70.7259 181.515 70.0961 181.479 69.4678C181.379 68.9533 180.936 68.8819 179.393 68.8962C176.62 68.8962 176.463 68.7532 176.535 71.3685C176.706 91.9758 176.863 112.578 177.006 133.176C177.006 133.605 177.006 134.048 176.892 134.491C177.035 155.375 177.168 176.258 177.292 197.142C177.292 201.572 177.549 206.002 177.549 210.447C177.549 213.191 177.549 215.934 177.549 218.678C174.806 226.109 171.676 228.296 163.602 228.282C157.399 228.282 151.197 228.282 145.023 228.21L117.171 228.353C107.796 228.796 98.3925 228.939 89.0177 228.61C83.5158 228.425 79.9431 224.437 78.6569 218.207L78.1424 218.635C78.1424 218.021 77.9852 217.421 77.9852 216.806C77.9281 190.311 77.8852 163.816 77.8566 137.321C77.8566 136.706 77.9424 136.092 77.9852 135.463C77.9852 127.103 77.8995 115.456 77.8566 107.053C76.4579 106.69 75.0132 106.535 73.5694 106.595C73.5694 108.41 73.5694 113.526 73.5694 115.356C73.5694 141.813 73.6027 168.279 73.6694 194.755C73.6694 195.813 73.6694 196.885 73.5837 197.942C73.5837 204.344 73.5598 210.747 73.5122 217.149C73.5122 218.035 73.598 218.921 73.6122 219.807C73.5843 222.067 74.0136 224.309 74.8742 226.398C75.7348 228.488 77.009 230.382 78.6202 231.966C80.2314 233.551 82.1464 234.793 84.25 235.619C86.3536 236.444 88.6024 236.836 90.8613 236.77C115.727 236.542 140.598 236.361 165.474 236.227C167.701 236.245 169.913 235.863 172.005 235.098C179.607 232.14 183.437 225.223 182.465 215.906C182.48 215.463 182.608 214.963 182.723 214.477Z" fill="#4858CC"/>
<path fill-rule="evenodd" clip-rule="evenodd" d="M77.5993 50.2324C77.5993 44.2731 77.5993 38.3281 77.385 32.3832C77.3152 30.7779 77.5724 29.1753 78.1408 27.6724C78.7092 26.1696 79.577 24.7979 80.6915 23.6406C81.8061 22.4833 83.1442 21.5644 84.6246 20.9399C86.1049 20.3153 87.6968 19.9981 89.3035 20.0073C94.8055 20.0073 100.279 19.9073 105.781 19.9216C109.296 19.9216 110.268 20.9648 110.44 24.5518C110.654 29.1963 111.469 30.0109 115.984 30.0109L141.294 29.8823C145.052 29.8823 146.167 28.6961 146.195 24.9376C146.195 20.7647 147.396 19.5929 151.597 19.5643C155.799 19.5357 159.586 19.5643 163.573 19.5643C170.161 19.5643 174.162 22.6225 176.006 29.0105C176.006 31.1542 176.306 33.2978 176.177 35.4843C176.177 36.5132 175.177 38.5568 176.034 39.4571C176.892 40.3574 179.178 39.7144 180.036 39.6572C181.465 39.5429 181.808 39.1284 181.894 38.2281C181.918 37.7521 181.918 37.2751 181.894 36.799C181.894 34.784 181.894 32.7404 181.708 30.7254C181.036 21.6222 174.563 12.8047 164.716 12.9191C152.026 13.0763 139.35 13.5336 126.674 13.6622C121.129 13.6622 115.584 13.3764 110.054 14.4482H109.697C102.208 14.4482 94.7054 14.2052 87.217 14.2481C86.6311 14.2481 86.0452 14.4482 85.4736 14.4482C81.9095 15.0325 78.6554 16.8263 76.2584 19.5278C73.8614 22.2293 72.4677 25.6738 72.3117 29.2821C72.1688 39.3857 72.5404 49.375 72.6118 59.4786C73.1747 63.1509 74.915 66.5411 77.5707 69.1392L77.5993 50.2324Z" fill="#4858CC"/>
<path fill-rule="evenodd" clip-rule="evenodd" d="M40.3574 150.524C35.0269 150.524 29.7107 150.524 24.3946 150.524C23.6943 150.524 22.5225 150.138 22.5225 151.339C22.5225 152.296 23.58 152.082 24.2374 152.082H56.1488C56.8061 152.082 57.8494 152.339 57.8779 151.367C57.8779 150.138 56.749 150.538 56.0487 150.538C50.8183 150.51 45.5878 150.524 40.3574 150.524Z" fill="#76777A"/>
<path fill-rule="evenodd" clip-rule="evenodd" d="M40.1717 155.295C45.4879 155.295 50.8184 155.295 56.1346 155.295C56.7777 155.295 57.8209 155.638 57.8781 154.637C57.9638 153.365 56.792 153.751 56.0917 153.751C45.5356 153.751 34.9794 153.751 24.4233 153.751C23.7087 153.751 22.5083 153.38 22.5226 154.552C22.5369 155.723 23.7516 155.295 24.4661 155.295C29.6966 155.323 34.927 155.295 40.1717 155.295Z" fill="#76777A"/>
<path fill-rule="evenodd" clip-rule="evenodd" d="M31.4399 156.97H23.7943C23.1512 156.97 22.4938 156.97 22.3652 157.856C22.2366 158.742 23.0083 158.999 23.7943 158.999C28.8246 158.999 33.8693 158.999 38.8997 158.999C39.7 158.999 40.3288 158.614 40.3288 157.756C40.3288 156.899 39.4999 156.97 38.8997 156.97H31.4399Z" fill="#76777A"/>
<path fill-rule="evenodd" clip-rule="evenodd" d="M19.3497 154.523C19.3497 154.981 19.2497 155.424 19.2068 155.867C19.0639 157.153 19.3212 158.796 18.1207 159.668C16.3915 160.911 12.1043 160.54 10.1322 160.068C7.57411 159.454 7.87422 156.295 8.01713 154.352C8.16003 152.408 7.94567 149.622 10.3751 149.35C12.0823 149.047 13.8229 148.98 15.5484 149.15C17.3633 149.407 18.6066 149.15 19.1497 151.222C19.4031 152.303 19.4708 153.42 19.3497 154.523Z" fill="#76777A"/>
<path fill-rule="evenodd" clip-rule="evenodd" d="M40.3574 150.523C45.5878 150.523 50.8182 150.523 56.0773 150.523C56.7775 150.523 57.9494 150.122 57.9065 151.351C57.9065 152.323 56.8347 152.066 56.1773 152.066H24.2945C23.6371 152.066 22.5796 152.28 22.5796 151.323C22.5796 150.122 23.7514 150.508 24.4517 150.508C29.7107 150.508 35.0269 150.523 40.3574 150.523Z" fill="#76777A"/>
<path fill-rule="evenodd" clip-rule="evenodd" d="M40.1713 155.298C34.9265 155.298 29.6961 155.298 24.4514 155.298C23.7368 155.298 22.5364 155.684 22.5078 154.555C22.4792 153.426 23.694 153.754 24.4085 153.754C34.9742 153.754 45.5303 153.754 56.077 153.754C56.7772 153.754 57.9491 153.368 57.8633 154.64C57.8633 155.641 56.7629 155.298 56.1198 155.298C50.8179 155.312 45.4875 155.298 40.1713 155.298Z" fill="#76777A"/>
<path fill-rule="evenodd" clip-rule="evenodd" d="M31.4398 156.969H38.8567C39.457 156.969 40.2858 156.883 40.2858 157.755C40.2858 158.627 39.6713 158.998 38.8567 158.998C33.8264 158.998 28.8532 158.998 23.7513 158.998C23.0082 158.998 22.3223 158.855 22.3223 157.855C22.3223 156.854 23.0511 156.969 23.7513 156.969H31.4398Z" fill="#76777A"/>
<path fill-rule="evenodd" clip-rule="evenodd" d="M170.061 48.1168H204.887C205.73 48.1168 206.874 47.8738 206.759 49.2886C206.674 50.4604 205.645 50.2175 204.902 50.2175H187.124C181.407 50.2175 175.777 50.2175 170.118 50.2175C169.346 50.2175 168.088 50.7177 168.088 49.2743C168.088 47.8309 169.203 48.1168 170.061 48.1168Z" fill="#76777A"/>
<path fill-rule="evenodd" clip-rule="evenodd" d="M185.552 60.9477H177.864C175.22 60.9477 172.562 60.9477 169.918 60.9477C169.304 60.9477 168.575 60.9477 168.489 60.1331C168.403 59.3186 169.118 59.1042 169.704 59.0042C170.574 58.8707 171.453 58.8086 172.333 58.8184C176.749 58.8184 181.165 58.8184 185.595 58.8184C186.295 58.8184 187.396 58.4468 187.453 59.6758C187.51 60.9048 186.467 60.9477 185.552 60.9477Z" fill="#76777A"/>
<path fill-rule="evenodd" clip-rule="evenodd" d="M205.445 55.5903H187.595C181.879 55.5903 176.048 55.5903 170.275 55.5903C169.503 55.5903 168.174 56.0905 168.131 54.7757C168.088 53.461 169.432 53.5181 170.361 53.5039C182.079 53.5039 193.802 53.5039 205.53 53.5039C206.316 53.5039 207.274 53.3752 207.231 54.6042C207.188 55.8333 206.216 55.5903 205.445 55.5903Z" fill="#76777A"/>
<path fill-rule="evenodd" clip-rule="evenodd" d="M232.598 56.0312C232.232 57.624 231.47 59.0987 230.383 60.3185C229.542 61.0148 228.57 61.5349 227.524 61.8476C224.954 62.4787 222.253 62.3345 219.764 61.4332C215.334 59.4467 214.262 53.6161 216.306 49.5575C217.29 47.8647 218.799 46.5387 220.604 45.7805C222.409 45.0224 224.412 44.8733 226.31 45.356C227.424 45.6423 228.472 46.1459 229.392 46.8378C230.311 47.5298 231.086 48.3965 231.67 49.3882C232.254 50.38 232.637 51.4773 232.796 52.6172C232.955 53.7572 232.888 54.9174 232.598 56.0312Z" fill="#76777A"/>
</g>
<defs>
<clipPath id="clip0">
<rect width="240" height="236.813" fill="white"/>
</clipPath>
</defs>
</svg>
