<svg width="209" height="106" viewBox="0 0 209 106" fill="none" xmlns="http://www.w3.org/2000/svg">
<path d="M121.15 27.0513V3.22326C121.15 3.22326 125.797 2.7052 127.174 7.0224C128.551 11.3396 128.895 13.7572 128.895 13.7572H147.996V27.0542H121.15V27.0513Z" fill="#F6C462"/>
<path d="M147.996 27.0515V13.7574C147.996 13.7574 161.248 13.7574 167.097 13.7574C172.948 13.7574 178.111 17.8156 181.895 27.0544C185.681 36.2932 188.693 43.975 188.693 43.975H165.806L160.987 27.0544H147.996V27.0515Z" fill="#7C3AA6"/>
<path d="M177.25 58.0464L186.802 81.27H203.493L188.692 43.9723L177.25 58.0464Z" fill="#2F2AAC"/>
<path d="M152.986 81.2703L151.093 86.7963L142.316 89.2139L141.197 94.4809H175.099L169.764 81.2703H152.986Z" fill="#303032"/>
<path d="M186.889 81.2703L184.996 86.7963L176.218 89.2139L175.1 94.4809H209.001L203.666 81.2703H186.889Z" fill="#303032"/>
<path d="M165.804 43.9719C165.804 43.9719 153.585 43.9719 147.994 43.9719C142.401 43.9719 140.766 49.6706 142.143 53.7287C143.52 57.7869 152.985 81.2696 152.985 81.2696H169.763L161.502 60.6363C161.502 60.6363 171.828 60.7226 178.193 60.7226C184.561 60.7226 190.154 53.297 189.466 47.512C188.777 41.7269 188.691 43.9719 188.691 43.9719H165.804Z" fill="#4858CC"/>
<path d="M161.933 13.4697C165.64 13.4697 168.645 10.4544 168.645 6.73483C168.645 3.01529 165.64 0 161.933 0C158.226 0 155.221 3.01529 155.221 6.73483C155.221 10.4544 158.226 13.4697 161.933 13.4697Z" fill="#F6C462"/>
<path d="M167.839 9.93531C168.352 8.98265 168.645 7.89472 168.645 6.73483C168.645 3.01628 165.639 0 161.933 0C160.264 0 158.738 0.613042 157.564 1.62614C158.738 2.63925 160.264 3.25229 161.933 3.25229C161.933 6.69454 164.515 9.53525 167.839 9.93531Z" fill="#1C1C21"/>
<path d="M113.15 3.16565H8C3.58172 3.16565 0 6.74737 0 11.1656V97.3192C0 101.737 3.58172 105.319 8 105.319H113.15C117.568 105.319 121.15 101.737 121.15 97.3192V11.1656C121.15 6.74737 117.568 3.16565 113.15 3.16565Z" fill="#F4F5F7"/>
<path d="M36.3611 49.625C36.3611 51.8341 34.5703 53.625 32.3611 53.625H14.7578C12.5487 53.625 10.7578 51.8341 10.7578 49.625V31.9376C10.7578 29.7285 12.5487 27.9376 14.7578 27.9376H32.3611C34.5703 27.9376 36.3611 29.7285 36.3611 31.9376V49.625ZM12.6079 48.7714C12.6079 50.4283 13.9511 51.7714 15.6079 51.7714H31.5139C33.1707 51.7714 34.5139 50.4283 34.5139 48.7714V32.7911C34.5139 31.1343 33.1707 29.7911 31.5139 29.7911H15.6079C13.9511 29.7911 12.6079 31.1343 12.6079 32.7911V48.7714Z" fill="#7C3AA6"/>
<path d="M71.1463 49.8437C71.1463 52.0528 69.3554 53.8437 67.1463 53.8437H49.543C47.3338 53.8437 45.543 52.0528 45.543 49.8437V32.1564C45.543 29.9472 47.3338 28.1564 49.543 28.1564H67.1463C69.3554 28.1564 71.1463 29.9472 71.1463 32.1564V49.8437ZM47.3931 48.9902C47.3931 50.647 48.7362 51.9902 50.3931 51.9902H66.299C67.9559 51.9902 69.299 50.647 69.299 48.9902V33.0099C69.299 31.353 67.9559 30.0099 66.299 30.0099H50.3931C48.7362 30.0099 47.3931 31.353 47.3931 33.0099V48.9902Z" fill="#7C3AA6"/>
<path d="M105.469 49.6254C105.469 51.8346 103.678 53.6254 101.469 53.6254H83.8652C81.6561 53.6254 79.8652 51.8346 79.8652 49.6254V31.9381C79.8652 29.729 81.6561 27.9381 83.8652 27.9381H101.469C103.678 27.9381 105.469 29.729 105.469 31.9381V49.6254ZM81.7154 48.7719C81.7154 50.4288 83.0585 51.7719 84.7154 51.7719H100.621C102.278 51.7719 103.621 50.4288 103.621 48.7719V32.7916C103.621 31.1348 102.278 29.7916 100.621 29.7916H84.7154C83.0585 29.7916 81.7154 31.1348 81.7154 32.7916V48.7719Z" fill="#7C3AA6"/>
<path d="M36.3611 82.6176C36.3611 84.8267 34.5703 86.6176 32.3611 86.6176H14.7578C12.5487 86.6176 10.7578 84.8267 10.7578 82.6176V64.9274C10.7578 62.7182 12.5487 60.9274 14.7578 60.9274H32.3611C34.5703 60.9274 36.3611 62.7182 36.3611 64.9274V82.6176ZM12.6079 81.7612C12.6079 83.418 13.9511 84.7612 15.6079 84.7612H31.5139C33.1707 84.7612 34.5139 83.418 34.5139 81.7612V65.7809C34.5139 64.124 33.1707 62.7809 31.5139 62.7809H15.6079C13.9511 62.7809 12.6079 64.124 12.6079 65.7809V81.7612Z" fill="#7C3AA6"/>
<path d="M71.1463 82.8363C71.1463 85.0455 69.3554 86.8363 67.1463 86.8363H49.543C47.3338 86.8363 45.543 85.0455 45.543 82.8363V65.1461C45.543 62.937 47.3338 61.1461 49.543 61.1461H67.1463C69.3554 61.1461 71.1463 62.937 71.1463 65.1461V82.8363ZM47.3931 81.9799C47.3931 83.6368 48.7362 84.9799 50.3931 84.9799H66.299C67.9559 84.9799 69.299 83.6368 69.299 81.9799V65.9996C69.299 64.3428 67.9559 62.9996 66.299 62.9996H50.3931C48.7362 62.9996 47.3931 64.3428 47.3931 65.9996V81.9799Z" fill="#7C3AA6"/>
<path d="M105.469 82.6176C105.469 84.8267 103.678 86.6176 101.469 86.6176H83.8652C81.6561 86.6176 79.8652 84.8267 79.8652 82.6176V64.9274C79.8652 62.7182 81.6561 60.9274 83.8652 60.9274H101.469C103.678 60.9274 105.469 62.7182 105.469 64.9274V82.6176ZM81.7154 81.7612C81.7154 83.418 83.0585 84.7612 84.7154 84.7612H100.621C102.278 84.7612 103.621 83.418 103.621 81.7612V65.7809C103.621 64.124 102.278 62.7809 100.621 62.7809H84.7154C83.0585 62.7809 81.7154 64.124 81.7154 65.7809V81.7612Z" fill="#7C3AA6"/>
<path d="M106.091 58.2765C105.333 57.7728 104.312 57.98 103.81 58.7399L93.1227 74.915L88.4272 68.5543C87.885 67.8232 86.8581 67.6678 86.1296 68.2118C85.3981 68.7529 85.2461 69.7861 85.7854 70.5201L91.8721 78.7717C92.1848 79.1919 92.6724 79.4394 93.1944 79.4394C93.2088 79.4394 93.2231 79.4394 93.2375 79.4394C93.7738 79.425 94.2701 79.1516 94.5655 78.7026L106.55 60.5675C107.055 59.8019 106.848 58.7801 106.091 58.2765Z" fill="#A8D600"/>
</svg>
