<svg width="99" height="112" viewBox="0 0 99 112" fill="none" xmlns="http://www.w3.org/2000/svg">
<g clip-path="url(#clip0)">
<path d="M26.8457 90.052V75.1043L46.1429 35.1859C46.1429 35.1859 51.8194 35.1858 55.2253 38.3072C58.6313 41.4286 66.86 47.6713 67.0487 62.9964C67.2375 78.3215 67.0487 90.052 67.0487 90.052H26.8457Z" fill="#F69B62"/>
<path d="M28.3594 75.7226C28.3594 75.7226 28.5481 78.2284 30.7229 79.837C32.8977 81.4456 36.0858 81.6343 36.0858 81.6343L34.5092 75.2029L28.3594 75.7226Z" fill="#C1783F"/>
<path d="M45.9863 56.8489L50.5885 59.7815C50.5885 59.7815 50.4753 57.8884 49.1687 54.9558C47.8649 52.0232 45.9863 50.3217 45.9863 50.3217V56.8489Z" fill="#C1783F"/>
<path d="M45.1449 77.1886H2.72066C1.2166 77.1886 0 75.9691 0 74.468V10.0955C0 8.59142 1.21951 7.37482 2.72066 7.37482H45.1449C46.649 7.37482 47.8656 8.59432 47.8656 10.0955V74.4651C47.8656 75.9691 46.6461 77.1886 45.1449 77.1886Z" fill="#4858CC"/>
<path d="M42.2102 70.5365H5.65701C4.38524 70.5365 3.35156 69.5057 3.35156 68.2311V14.567C3.35156 13.2952 4.38234 12.2615 5.65701 12.2615H42.2102C43.482 12.2615 44.5157 13.2923 44.5157 14.567V68.2281C44.5157 69.5028 43.4849 70.5365 42.2102 70.5365Z" fill="white"/>
<path d="M28.4265 10.8103H19.4399C18.9289 10.8103 18.5137 10.3951 18.5137 9.88407C18.5137 9.37304 18.9289 8.95782 19.4399 8.95782H28.4265C28.9375 8.95782 29.3528 9.37304 29.3528 9.88407C29.3528 10.3951 28.9375 10.8103 28.4265 10.8103ZM19.4399 9.20173C19.0654 9.20173 18.7576 9.5066 18.7576 9.88407C18.7576 10.2586 19.0624 10.5635 19.4399 10.5635H28.4265C28.8011 10.5635 29.106 10.2586 29.106 9.88407C29.106 9.50951 28.8011 9.20173 28.4265 9.20173H19.4399Z" fill="#F3F3F3"/>
<path d="M23.9349 75.8447C22.759 75.8447 21.8008 74.8865 21.8008 73.7106C21.8008 72.5347 22.759 71.5765 23.9349 71.5765C25.1109 71.5765 26.069 72.5347 26.069 73.7106C26.069 74.8865 25.1109 75.8447 23.9349 75.8447ZM23.9349 71.8262C22.8954 71.8262 22.0476 72.674 22.0476 73.7135C22.0476 74.753 22.8954 75.6008 23.9349 75.6008C24.9744 75.6008 25.8222 74.753 25.8222 73.7135C25.8222 72.674 24.9744 71.8262 23.9349 71.8262Z" fill="#F3F3F3"/>
<path d="M69.5092 90.0514H25.2383V111.997H69.5092V90.0514Z" fill="#7C3AA6"/>
<path d="M32.0511 75.7232C31.9669 71.7017 31.4849 68.8649 33.2822 65.1745C35.0795 61.484 35.0795 61.484 35.0795 61.484C35.0795 61.484 31.7695 48.3366 35.0795 44.2686C38.3896 40.2007 41.511 48.1478 42.5534 49.8493C43.5929 51.5508 44.0661 54.2947 44.0661 54.2947C44.0661 54.2947 48.0876 55.4765 50.4047 57.7935C52.7217 60.1106 60.0533 75.7203 60.0533 75.7203L56.7432 83.9026L37.3501 86.931C37.3472 86.931 32.1353 79.7417 32.0511 75.7232Z" fill="#F69B62"/>
<path d="M34.7501 43.9626H13.4727V22.6851H34.7501V43.9626ZM15.0087 42.4266H33.2141V24.2211H15.0087V42.4266Z" fill="#4858CC"/>
<path d="M35.2638 20.4906C34.6337 20.0725 33.7859 20.2467 33.3706 20.8739L24.4886 34.271L20.5891 29.001C20.139 28.3942 19.2853 28.2693 18.6814 28.7165C18.0717 29.1665 17.9468 30.0202 18.3969 30.627L23.4549 37.4591C23.7133 37.8076 24.1198 38.0108 24.5525 38.0108C24.5641 38.0108 24.5757 38.0108 24.5873 38.0108C25.0315 37.9992 25.4439 37.7727 25.6907 37.4011L35.65 22.3808C36.0652 21.7537 35.8939 20.9058 35.2638 20.4906Z" fill="#A8D600"/>
<path d="M65.3038 0H85.7944C92.5713 0 98.0649 5.49358 98.0649 12.2705C98.0649 19.0475 92.5713 24.5411 85.7944 24.5411H69.8653L60.6842 34.0358L61.9733 24.0823C56.8166 22.6305 53.0332 17.8948 53.0332 12.2735C53.0332 5.49358 58.5268 0 65.3038 0Z" fill="#9BA9B4"/>
<path d="M67.4184 13.7742C68.6516 13.7742 69.6513 12.7746 69.6513 11.5414C69.6513 10.3082 68.6516 9.30853 67.4184 9.30853C66.1852 9.30853 65.1855 10.3082 65.1855 11.5414C65.1855 12.7746 66.1852 13.7742 67.4184 13.7742Z" fill="white"/>
<path d="M75.7641 13.7742C76.9973 13.7742 77.997 12.7746 77.997 11.5414C77.997 10.3082 76.9973 9.30853 75.7641 9.30853C74.5309 9.30853 73.5312 10.3082 73.5312 11.5414C73.5312 12.7746 74.5309 13.7742 75.7641 13.7742Z" fill="white"/>
<path d="M84.1079 13.7742C85.341 13.7742 86.3407 12.7746 86.3407 11.5414C86.3407 10.3082 85.341 9.30853 84.1079 9.30853C82.8747 9.30853 81.875 10.3082 81.875 11.5414C81.875 12.7746 82.8747 13.7742 84.1079 13.7742Z" fill="white"/>
</g>
<defs>
<clipPath id="clip0">
<rect width="98.0657" height="112" fill="white"/>
</clipPath>
</defs>
</svg>
