<svg width="49" height="112" viewBox="0 0 49 112" fill="none" xmlns="http://www.w3.org/2000/svg">
<g clip-path="url(#clip0)">
<path d="M2.22222 55.3831H33.9053C35.0636 55.3831 36.0005 54.4439 36.0005 53.2879V2.21605C36.0005 1.05771 35.0613 0.120789 33.9053 0.120789H2.22222C1.06388 0.120789 0.126957 1.06005 0.126957 2.21605V53.2879C0.124627 54.4462 1.06388 55.3831 2.22222 55.3831Z" fill="#E1E6EA"/>
<path d="M33.8995 55.5047H2.21646C0.995193 55.5047 0 54.5119 0 53.2883V2.21646C0 0.992862 0.992862 0 2.21646 0H33.8995C35.1208 0 36.116 0.992862 36.116 2.21646V53.2883C36.116 54.5095 35.1208 55.5047 33.8995 55.5047ZM2.21646 0.240058C1.12804 0.240058 0.240058 1.12571 0.240058 2.21646V53.2883C0.240058 54.379 1.12571 55.2647 2.21646 55.2647H33.8995C34.9879 55.2647 35.8759 54.379 35.8759 53.2883V2.21646C35.8759 1.12571 34.9902 0.240058 33.8995 0.240058H2.21646Z" fill="#76777A"/>
<path d="M4.40922 49.4687H31.7269C32.7035 49.4687 33.4936 48.6786 33.4936 47.7021V5.54972C33.4936 4.57318 32.7035 3.78308 31.7269 3.78308H4.40922C3.43267 3.78308 2.64258 4.57318 2.64258 5.54972V47.7021C2.64258 48.6786 3.43267 49.4687 4.40922 49.4687Z" fill="#9933CC"/>
<path d="M9.59796 17.0136C9.32061 17.0136 9.07123 16.9553 8.84982 16.8388C8.60043 16.7036 8.43263 16.5148 8.34639 16.2725C8.33474 16.2398 8.33008 16.2072 8.33008 16.1746C8.33008 16.1 8.35805 16.0394 8.41398 15.9904C8.46992 15.9415 8.53518 15.9182 8.60743 15.9182C8.68201 15.9182 8.74494 15.9532 8.79854 16.0207L8.9244 16.2119C8.98966 16.3028 9.08055 16.3703 9.19242 16.4146C9.3043 16.4589 9.43947 16.4822 9.59563 16.4822C9.79606 16.4822 9.97319 16.4193 10.1224 16.2934C10.2832 16.1606 10.3624 15.9998 10.3624 15.8087C10.3624 15.5313 10.2599 15.3099 10.0548 15.1421C9.87531 14.9976 9.63525 14.9113 9.33692 14.8787C9.13183 14.8577 9.02928 14.7762 9.02928 14.6293C9.02928 14.5198 9.10852 14.4382 9.26933 14.38L9.92891 14.2168C10.0548 14.1702 10.1527 14.1096 10.2156 14.0304C10.2785 13.9511 10.3135 13.8579 10.3158 13.7437C10.3205 13.5829 10.2575 13.45 10.1293 13.3521C9.99417 13.2496 9.80539 13.1983 9.563 13.1983C9.43714 13.1983 9.31595 13.2286 9.19942 13.2892L8.88711 13.485C8.82651 13.5246 8.77757 13.5432 8.74028 13.5432C8.66569 13.5432 8.60277 13.5153 8.55149 13.4593C8.50022 13.4034 8.47225 13.3382 8.47225 13.2682C8.47225 13.1237 8.61209 12.9839 8.8941 12.8487C9.13882 12.7298 9.34159 12.6693 9.49774 12.6693C9.89395 12.6693 10.2063 12.7578 10.4393 12.9303C10.6887 13.1191 10.8122 13.3871 10.8122 13.7344C10.8122 14.1679 10.6374 14.4522 10.2878 14.5897C10.2575 14.6014 10.2202 14.6154 10.1806 14.6293C10.4253 14.7202 10.6095 14.8554 10.7307 15.0349C10.8519 15.2143 10.9125 15.4381 10.9125 15.7061C10.9125 16.0697 10.7843 16.3773 10.5279 16.629C10.2785 16.8877 9.9662 17.0136 9.59796 17.0136Z" fill="white"/>
<path d="M13.0587 16.995C12.4993 16.995 12.0914 16.7386 11.8327 16.2282C11.637 15.8343 11.5391 15.3216 11.5391 14.6899C11.5391 14.1562 11.6649 13.6901 11.919 13.2915C12.2196 12.8254 12.6275 12.5923 13.1426 12.5923C13.6273 12.5923 14.0049 12.7974 14.2753 13.21C14.5083 13.5666 14.6249 14.0024 14.6249 14.5151C14.6249 15.3402 14.4943 15.9578 14.2333 16.3727C13.9746 16.7875 13.5831 16.995 13.0587 16.995ZM13.1426 13.1261C12.8 13.1261 12.5296 13.3009 12.3268 13.6481C12.159 13.9395 12.0751 14.2704 12.0751 14.6457C12.0751 15.2516 12.1567 15.7061 12.3198 16.0091C12.483 16.3121 12.73 16.4659 13.0563 16.4659C13.4455 16.4659 13.7276 16.2422 13.8954 15.797C14.0142 15.487 14.0725 15.0955 14.0725 14.62C14.0725 14.1213 13.9956 13.7484 13.8394 13.499C13.6879 13.2496 13.4525 13.1261 13.1426 13.1261Z" fill="white"/>
<path d="M20.5068 16.8412C20.5068 16.9018 20.4788 16.9507 20.4229 16.9903C20.367 17.03 20.3064 17.0486 20.2411 17.0486C20.0826 17.0486 19.9661 16.9088 19.8869 16.6267C19.8682 16.5498 19.8402 16.4426 19.8006 16.3028C19.7284 16.0767 19.6305 15.6455 19.5023 15.0069C19.4044 15.2586 19.2529 15.6246 19.0455 16.107C18.9965 16.2282 18.9499 16.3494 18.901 16.4706C18.8427 16.6151 18.7845 16.734 18.7239 16.8202C18.6563 16.9204 18.563 16.9694 18.4442 16.9694C18.3463 16.9694 18.2694 16.9274 18.2111 16.8435C18.1901 16.8132 18.1365 16.6734 18.0456 16.4263C17.8965 16.0091 17.7613 15.55 17.6378 15.0419L17.5655 15.3286C17.4933 15.55 17.3931 15.8833 17.2625 16.3308C17.2485 16.4496 17.2066 16.6244 17.1413 16.8552C17.0971 16.9624 17.0155 17.0136 16.9013 17.0136C16.7288 17.0136 16.6426 16.9391 16.6426 16.7899C16.6426 16.5778 16.6985 16.3168 16.8081 16.0091C16.9712 15.5476 17.0574 15.2936 17.0668 15.247C17.1134 15.0442 17.16 14.8415 17.2043 14.6387C17.2742 14.3637 17.3488 14.1795 17.428 14.091C17.4933 14.0164 17.5772 13.9768 17.6727 13.9768C17.7799 13.9768 17.8592 14.0257 17.9128 14.1236C17.9757 14.2378 18.041 14.4686 18.1109 14.8158C18.1925 15.2144 18.3183 15.6525 18.4908 16.135C18.7239 15.6455 18.9196 15.1491 19.0851 14.6434C19.1061 14.5431 19.148 14.394 19.2086 14.1982C19.2809 14.0281 19.3881 13.9442 19.5326 13.9442C19.7167 13.9442 19.8426 14.1283 19.9125 14.4942C19.9125 14.4988 19.9242 14.5734 19.9475 14.7203C20.0384 15.2913 20.1549 15.7784 20.2947 16.1816C20.4369 16.5895 20.5068 16.8062 20.5068 16.8412Z" fill="white"/>
<path d="M23.831 16.1329C23.831 16.2051 23.8264 16.3123 23.8194 16.4522C23.8124 16.5944 23.8077 16.7016 23.8077 16.7738C23.8077 16.8507 23.7821 16.916 23.7285 16.9673C23.6772 17.0185 23.612 17.0465 23.5351 17.0465C23.4558 17.0465 23.3906 17.0209 23.3369 16.9673C23.2857 16.9137 23.2577 16.8507 23.2577 16.7738C23.2577 16.6549 23.2624 16.4755 23.274 16.2378C23.2857 16 23.2903 15.8206 23.2903 15.7017C23.2903 15.4756 23.2717 15.2589 23.2391 15.0561C23.0153 15.3871 22.8522 15.6178 22.7496 15.7483C22.5538 15.9977 22.3627 16.2051 22.1716 16.3659C21.9222 16.578 21.7358 16.7458 21.6146 16.874C21.5167 16.9742 21.4142 17.0255 21.3093 17.0255C21.2277 17.0255 21.1578 17.0045 21.0995 16.9626C21.0343 16.9137 21.0016 16.8507 21.0016 16.7715C21.0016 16.2471 20.9923 15.6994 20.9737 15.1307C20.9527 14.5387 20.9434 14.252 20.9434 14.266C20.9434 14.0772 21.0366 13.984 21.2184 13.984C21.3745 13.984 21.4654 14.0726 21.4911 14.2497C21.4957 14.2777 21.5004 14.4595 21.5097 14.7927L21.5423 16.1655C21.8197 15.9208 22.111 15.6108 22.4117 15.2379C22.5049 15.1214 22.7613 14.7858 23.1808 14.2264C23.2903 14.0819 23.4045 14.0073 23.5281 14.0073C23.605 14.0073 23.6702 14.033 23.7215 14.0842C23.7751 14.1355 23.8008 14.2008 23.8008 14.28C23.8008 14.4851 23.8054 14.7927 23.8124 15.2029C23.8264 15.6225 23.831 15.9301 23.831 16.1329Z" fill="white"/>
<path d="M27.1023 16.7133C27.1023 16.7949 27.0767 16.8601 27.0254 16.9114C26.9741 16.9627 26.9089 16.9883 26.8297 16.9883C26.7481 16.9883 26.6828 16.9627 26.6316 16.9114C26.5803 16.8601 26.5546 16.7949 26.5546 16.7133C26.5546 16.5711 26.55 16.2309 26.5407 15.6878C26.4055 15.6831 26.3379 15.6785 26.3426 15.6785C25.9091 15.6785 25.4873 15.7274 25.0841 15.8276C25.0841 15.9325 25.0748 16.0864 25.0561 16.2914C25.0375 16.4872 25.0281 16.6434 25.0281 16.7553C25.0281 16.8368 25.0025 16.9021 24.9512 16.9534C24.9 17.0046 24.8347 17.0303 24.7531 17.0303C24.6739 17.0303 24.6086 17.0046 24.5574 16.9534C24.5061 16.9021 24.4805 16.8368 24.4805 16.7553C24.4805 16.69 24.4898 16.5991 24.5061 16.4826C24.5247 16.3684 24.5317 16.2775 24.5317 16.2099C24.5317 16.1003 24.5294 15.9325 24.5224 15.7111C24.5178 15.4897 24.5131 15.3242 24.5131 15.2124C24.5131 15.0958 24.5131 14.9234 24.5131 14.6996C24.5154 14.4759 24.5154 14.3034 24.5154 14.1869C24.5154 14.1053 24.5411 14.04 24.5923 13.9888C24.6436 13.9375 24.7089 13.9118 24.7881 13.9118C24.8697 13.9118 24.9349 13.9375 24.9862 13.9888C25.0375 14.04 25.0631 14.1053 25.0631 14.1869C25.0631 14.3197 25.0654 14.4992 25.0678 14.7252C25.0724 14.9746 25.0771 15.1541 25.0794 15.2636C25.5315 15.1587 26.014 15.1168 26.5267 15.1378V14.9583C26.5267 14.8488 26.5313 14.7043 26.5383 14.5295C26.5453 14.3407 26.55 14.1962 26.55 14.1006C26.55 14.0214 26.5756 13.9561 26.6269 13.9049C26.6782 13.8536 26.7434 13.8279 26.825 13.8279C26.9042 13.8279 26.9695 13.8536 27.0208 13.9049C27.072 13.9561 27.0977 14.0214 27.0977 14.1006C27.0977 14.1985 27.093 14.3407 27.086 14.5271C27.079 14.7136 27.0744 14.8581 27.0744 14.956C27.0744 15.1564 27.079 15.4501 27.086 15.8323C27.0977 16.2215 27.1023 16.5129 27.1023 16.7133Z" fill="white"/>
<path d="M24.7217 35.072H11.3926V21.7429H24.7217V35.072ZM12.3551 34.1094H23.7591V22.7054H12.3551V34.1094Z" fill="white"/>
<path d="M24.3359 20.5753C23.9421 20.3142 23.4107 20.4214 23.1496 20.8153L17.5864 29.2081L15.1415 25.9079C14.8595 25.528 14.3258 25.4487 13.9459 25.7284C13.5636 26.0104 13.4844 26.5465 13.7664 26.9264L16.9361 31.2078C17.0992 31.4269 17.3533 31.5551 17.6236 31.5551C17.6306 31.5551 17.6376 31.5551 17.6446 31.5551C17.9243 31.5481 18.183 31.4059 18.3345 31.1728L24.5737 21.7639C24.837 21.3677 24.7298 20.8363 24.3359 20.5753Z" fill="#FF6B00"/>
<path d="M18.8059 66.1794C17.9249 66.1794 17.207 65.4616 17.207 64.5806C17.207 63.6996 17.9249 62.9818 18.8059 62.9818C19.6869 62.9818 20.4047 63.6996 20.4047 64.5806C20.4047 65.4616 19.6892 66.1794 18.8059 66.1794ZM18.8059 63.1659C18.0251 63.1659 17.3912 63.7998 17.3912 64.5806C17.3912 65.3614 18.0251 65.9953 18.8059 65.9953C19.5866 65.9953 20.2206 65.3614 20.2206 64.5806C20.2206 63.7998 19.5866 63.1659 18.8059 63.1659Z" fill="black"/>
<path d="M14.3738 93.9307V82.2377C14.3738 82.2377 7.99473 74.6444 9.66581 69.7849C11.3369 64.9255 17.2591 61.2803 17.2591 61.2803C17.2591 61.2803 18.6249 49.4359 19.69 44.5764C20.7528 39.717 23.4866 38.5027 24.7009 41.2366C25.9152 43.9705 26.978 57.6375 27.5863 58.7003C28.1946 59.7631 30.1687 58.7003 32.4457 59.0033C34.7228 59.3063 34.7228 60.9773 36.0909 62.1916C37.4566 63.4059 39.2792 61.7371 41.7101 63.1029C44.141 64.4687 44.8984 66.4428 45.2038 74.7959C45.5091 83.149 45.2038 95.145 45.2038 95.145L14.3738 93.9307Z" fill="#FEC8C1"/>
<path d="M48.241 91.9559H10.8828V112.002H48.241V91.9559Z" fill="#FF6B00"/>
<path d="M17.202 61.2825C17.1414 61.3198 14.7128 62.8277 12.543 65.1817L17.6355 63.7436C17.6355 63.7413 17.4257 62.576 17.202 61.2825Z" fill="#E49293"/>
</g>
<defs>
<clipPath id="clip0">
<rect width="48.2424" height="112" fill="white"/>
</clipPath>
</defs>
</svg>
