<svg width="170" height="112" viewBox="0 0 170 112" fill="none" xmlns="http://www.w3.org/2000/svg">
<g clip-path="url(#clip0)">
<path d="M49.572 112H2.98746C1.33591 112 0 110.66 0 109.011V38.2976C0 36.6453 1.33909 35.3089 2.98746 35.3089H49.572C51.2236 35.3089 52.5595 36.6485 52.5595 38.2976V109.008C52.5595 110.66 51.2204 112 49.572 112Z" fill="#4858CC"/>
<path d="M46.349 104.693H6.21121C4.81473 104.693 3.67969 103.56 3.67969 102.16V43.2129C3.67969 41.8159 4.81154 40.6804 6.21121 40.6804H46.349C47.7455 40.6804 48.8805 41.8127 48.8805 43.2129V102.16C48.8805 103.557 47.7487 104.693 46.349 104.693Z" fill="white"/>
<path d="M31.2131 39.0827H21.3452C20.7841 39.0827 20.3281 38.6266 20.3281 38.0652C20.3281 37.5038 20.7841 37.0477 21.3452 37.0477H31.2131C31.7742 37.0477 32.2301 37.5038 32.2301 38.0652C32.2301 38.6266 31.7742 39.0827 31.2131 39.0827ZM21.3452 37.3156C20.9339 37.3156 20.5959 37.6505 20.5959 38.0652C20.5959 38.4766 20.9307 38.8116 21.3452 38.8116H31.2131C31.6244 38.8116 31.9591 38.4766 31.9591 38.0652C31.9591 37.6537 31.6244 37.3156 31.2131 37.3156H21.3452Z" fill="#F3F3F3"/>
<path d="M26.2809 110.523C24.9896 110.523 23.9375 109.47 23.9375 108.179C23.9375 106.887 24.9896 105.834 26.2809 105.834C27.5722 105.834 28.6243 106.887 28.6243 108.179C28.6243 109.47 27.5722 110.523 26.2809 110.523ZM26.2809 106.108C25.1395 106.108 24.2085 107.04 24.2085 108.182C24.2085 109.324 25.1395 110.255 26.2809 110.255C27.4223 110.255 28.3533 109.324 28.3533 108.182C28.3533 107.04 27.4223 106.108 26.2809 106.108Z" fill="#F3F3F3"/>
<path d="M153.252 40.7377H77.7848C69.0169 40.7377 61.9102 47.8473 61.9102 56.6187V57.1004C61.9102 65.8718 69.0169 72.9814 77.7848 72.9814L74.6539 84.1738L91.2108 72.9814H153.249C162.017 72.9814 169.124 65.8718 169.124 57.1004V56.6187C169.124 47.8473 162.017 40.7377 153.252 40.7377Z" fill="#4858CC"/>
<path d="M75.3879 0H97.8879C105.329 0 111.362 6.03474 111.362 13.4793C111.362 20.9238 105.329 26.9586 97.8879 26.9586H80.3968L70.3153 37.3854L71.7309 26.4514C66.0684 24.8566 61.9141 19.6544 61.9141 13.4793C61.9141 6.03474 67.9464 0 75.3879 0Z" fill="#9BA9B4"/>
<path d="M79.6156 52.9187L84.2865 50.4627L83.3938 55.665L87.172 59.349L81.9527 60.1049L79.6156 64.8383L77.2818 60.1049L72.0625 59.349L75.8407 55.665L74.9479 50.4627L79.6156 52.9187Z" fill="#FBB900"/>
<path d="M97.5688 52.9187L102.236 50.4627L101.344 55.665L105.122 59.349L99.9026 60.1049L97.5688 64.8383L95.2349 60.1049L90.0156 59.349L93.7906 55.665L92.9011 50.4627L97.5688 52.9187Z" fill="#FBB900"/>
<path d="M115.52 52.9187L120.188 50.4627L119.298 55.665L123.073 59.349L117.854 60.1049L115.52 64.8383L113.186 60.1049L107.967 59.349L111.742 55.665L110.852 50.4627L115.52 52.9187Z" fill="#FBB900"/>
<path d="M133.469 52.9187L138.137 50.4627L137.247 55.665L141.022 59.349L135.803 60.1049L133.469 64.8383L131.135 60.1049L125.916 59.349L129.694 55.665L128.801 50.4627L133.469 52.9187Z" fill="#FBB900"/>
<path d="M151.422 52.9187L156.089 50.4627L155.197 55.665L158.975 59.349L153.755 60.1049L151.422 64.8383L149.085 60.1049L143.865 59.349L147.643 55.665L146.751 50.4627L151.422 52.9187Z" fill="#FBB900"/>
<path d="M15.7183 69.6772C18.3167 67.9835 20.4497 66.9309 22.3117 66.3281C20.386 65.0459 19.117 62.8546 19.117 60.3667C19.117 56.4116 22.3213 53.206 26.2748 53.206C30.2283 53.206 33.4326 56.4116 33.4326 60.3667C33.4326 62.7876 32.2274 64.9247 30.3877 66.2196C31.086 66.3951 31.7938 66.5992 32.5367 66.8097C36.098 67.8272 38.9324 68.9818 41.177 72.0853C42.2419 69.8941 42.8445 67.4349 42.8445 64.8354C42.8445 55.6812 35.4253 48.2589 26.2748 48.2589C17.1243 48.2589 9.70508 55.6812 9.70508 64.8354C9.70508 67.8527 10.5149 70.6787 11.9242 73.1188C13.0177 71.8078 14.2739 70.6213 15.7183 69.6772Z" fill="#E2E4E5"/>
<path d="M26.2818 81.4149C32.8338 81.4149 38.4962 77.6097 41.1872 72.0885C38.9426 68.985 36.1082 67.8303 32.5468 66.8129C31.8071 66.6023 31.0961 66.3982 30.3979 66.2228C32.2375 64.9278 33.4427 62.7908 33.4427 60.3698C33.4427 56.4147 30.2385 53.2092 26.2849 53.2092C22.3314 53.2092 19.1272 56.4147 19.1272 60.3698C19.1272 62.8577 20.3961 65.049 22.3219 66.3312C20.4599 66.9341 18.3269 67.9866 15.7284 69.6803C14.2841 70.6244 13.0279 71.8078 11.9375 73.1219C14.7942 78.0786 20.1442 81.4149 26.2818 81.4149Z" fill="#9BA9B4"/>
<path d="M84.6156 7.26242C84.8739 7.10932 85.1289 6.9913 85.3808 6.90199C82.5815 5.88131 80.3114 8.39154 79.8108 9.00075L79.6163 9.09006L79.4219 9.00075C78.8767 8.33413 76.2303 5.41244 73.0867 7.26242C69.554 9.34204 70.4914 14.7452 73.0867 16.8217C75.682 18.9013 80.1488 20.7704 80.1488 20.7704C80.1488 20.7704 82.9386 19.2362 85.3936 17.4022C85.1194 17.2108 84.8579 17.0162 84.6156 16.8217C82.0203 14.7452 81.0862 9.34204 84.6156 7.26242Z" fill="#FBB900"/>
<path d="M97.6789 7.26242C94.5352 5.41244 91.8889 8.33413 91.3437 9.00075L91.1493 9.09006L90.9548 9.00075C90.4542 8.39154 88.1841 5.88131 85.3848 6.90199C85.6366 6.99449 85.8917 7.10932 86.15 7.26242C89.6826 9.34204 88.7453 14.7452 86.15 16.8217C85.9045 17.0162 85.6526 17.2108 85.3975 17.4022C88.0183 19.2362 91.6817 20.7704 91.6817 20.7704C91.6817 20.7704 95.0836 18.9013 97.6789 16.8217C100.277 14.7452 101.212 9.34204 97.6789 7.26242Z" fill="#E2E4E5"/>
<path d="M86.1483 7.26292C85.8901 7.10982 85.635 6.99181 85.3831 6.9025C85.1312 6.995 84.8762 7.10982 84.6179 7.26292C81.0852 9.34255 82.0226 14.7457 84.6179 16.8222C84.8634 17.0168 85.1249 17.2113 85.3959 17.4027C85.6509 17.2113 85.9028 17.0168 86.1483 16.8222C88.7436 14.7457 89.681 9.34255 86.1483 7.26292Z" fill="white"/>
<path d="M38.1422 85.1816C41.324 85.1816 43.9034 82.6011 43.9034 79.418C43.9034 76.2348 41.324 73.6544 38.1422 73.6544C34.9603 73.6544 32.3809 76.2348 32.3809 79.418C32.3809 82.6011 34.9603 85.1816 38.1422 85.1816Z" fill="#4858CC"/>
<path d="M41.8139 79.3863C41.8139 79.5968 41.7438 79.7786 41.6067 79.9349C41.4664 80.0912 41.2942 80.1677 41.0838 80.1677C41.0168 80.1677 40.9148 80.155 40.7777 80.1327C40.6406 80.1103 40.5354 80.0976 40.4621 80.0976L39.614 80.1135C39.2696 80.1263 38.9859 80.1263 38.7659 80.1135V82.1102C38.7659 82.6205 38.514 82.8757 38.0103 82.8757C37.7616 82.8757 37.5735 82.8119 37.4459 82.6843C37.3184 82.5568 37.2546 82.3654 37.2546 82.1102L37.2451 81.1342L37.2355 80.1486C36.55 80.1869 36.0654 80.2092 35.7816 80.2092C34.9048 80.2092 34.4648 79.9477 34.4648 79.4278C34.4648 79.0609 34.6211 78.8313 34.9303 78.7388C35.0387 78.7101 35.3193 78.6973 35.7784 78.6973C36.0622 78.6973 36.5468 78.6782 37.2323 78.6367L37.2227 77.6416C37.2227 77.1249 37.2482 76.7708 37.2993 76.5699C37.3567 76.3657 37.4427 76.2126 37.5639 76.1106C37.6819 76.0085 37.8349 75.9575 38.023 75.9575C38.2366 75.9575 38.4216 76.0276 38.5714 76.1648C38.7213 76.3019 38.7978 76.4806 38.7978 76.6943C38.7978 76.7899 38.7882 76.943 38.7691 77.1536C38.7499 77.3641 38.7404 77.5204 38.7404 77.6288L38.75 78.5985L39.3876 78.624C39.5024 78.624 39.6746 78.6176 39.9041 78.6016C40.1369 78.5889 40.309 78.5793 40.4206 78.5793C41.3516 78.5857 41.8139 78.8536 41.8139 79.3863Z" fill="white"/>
</g>
<defs>
<clipPath id="clip0">
<rect width="169.124" height="112" fill="white"/>
</clipPath>
</defs>
</svg>
