<svg width="117" height="112" viewBox="0 0 117 112" fill="none" xmlns="http://www.w3.org/2000/svg">
<g clip-path="url(#clip0)">
<path d="M107.302 55.5697H41.2122C36.2806 55.5697 32.2832 51.5723 32.2832 46.6407V8.92897C32.286 3.99737 36.2834 0 41.2122 0H107.299C112.231 0 116.228 3.99737 116.228 8.92897V46.6435C116.231 51.5723 112.233 55.5697 107.302 55.5697Z" fill="#F4F5F7"/>
<path d="M59.7764 21.4847C59.7764 23.6938 57.9856 25.4847 55.7764 25.4847H47.5859C45.3768 25.4847 43.5859 23.6938 43.5859 21.4847V13.2942C43.5859 11.085 45.3768 9.29417 47.5859 9.29417H55.7764C57.9856 9.29417 59.7764 11.085 59.7764 13.2942V21.4847ZM44.7551 21.3154C44.7551 22.9723 46.0983 24.3154 47.7551 24.3154H55.6072C57.2641 24.3154 58.6072 22.9723 58.6072 21.3154V13.4634C58.6072 11.8065 57.2641 10.4634 55.6072 10.4634H47.7551C46.0983 10.4634 44.7551 11.8065 44.7551 13.4634V21.3154Z" fill="#7C3AA6"/>
<path d="M81.6339 21.4847C81.6339 23.6938 79.843 25.4847 77.6339 25.4847H69.4434C67.2342 25.4847 65.4434 23.6938 65.4434 21.4847V13.2942C65.4434 11.085 67.2342 9.29417 69.4434 9.29417H77.6339C79.843 9.29417 81.6339 11.085 81.6339 13.2942V21.4847ZM66.6126 21.3154C66.6126 22.9723 67.9557 24.3154 69.6126 24.3154H77.4646C79.1215 24.3154 80.4646 22.9723 80.4646 21.3154V13.4634C80.4646 11.8065 79.1215 10.4634 77.4646 10.4634H69.6126C67.9557 10.4634 66.6126 11.8065 66.6126 13.4634V21.3154Z" fill="#7C3AA6"/>
<path d="M103.472 21.4847C103.472 23.6938 101.681 25.4847 99.4717 25.4847H91.2812C89.0721 25.4847 87.2812 23.6938 87.2812 21.4847V13.2942C87.2812 11.085 89.0721 9.29417 91.2812 9.29417H99.4717C101.681 9.29417 103.472 11.085 103.472 13.2942V21.4847ZM88.4505 21.3154C88.4505 22.9723 89.7936 24.3154 91.4505 24.3154H99.3025C100.959 24.3154 102.303 22.9723 102.303 21.3154V13.4634C102.303 11.8065 100.959 10.4634 99.3025 10.4634H91.4505C89.7936 10.4634 88.4505 11.8065 88.4505 13.4634V21.3154Z" fill="#7C3AA6"/>
<path d="M59.7764 42.2755C59.7764 44.4847 57.9856 46.2755 55.7764 46.2755H47.5859C45.3768 46.2755 43.5859 44.4847 43.5859 42.2755V34.0851C43.5859 31.876 45.3768 30.0851 47.5859 30.0851H55.7764C57.9856 30.0851 59.7764 31.876 59.7764 34.0851V42.2755ZM44.7551 42.1063C44.7551 43.7632 46.0983 45.1063 47.7551 45.1063H55.6072C57.2641 45.1063 58.6072 43.7632 58.6072 42.1063V34.2543C58.6072 32.5974 57.2641 31.2543 55.6072 31.2543H47.7551C46.0983 31.2543 44.7551 32.5974 44.7551 34.2543V42.1063Z" fill="#7C3AA6"/>
<path d="M81.6339 42.2755C81.6339 44.4847 79.843 46.2755 77.6339 46.2755H69.4434C67.2342 46.2755 65.4434 44.4847 65.4434 42.2755V34.0851C65.4434 31.876 67.2342 30.0851 69.4434 30.0851H77.6339C79.843 30.0851 81.6339 31.876 81.6339 34.0851V42.2755ZM66.6126 42.1063C66.6126 43.7632 67.9557 45.1063 69.6126 45.1063H77.4646C79.1215 45.1063 80.4646 43.7632 80.4646 42.1063V34.2543C80.4646 32.5974 79.1215 31.2543 77.4646 31.2543H69.6126C67.9557 31.2543 66.6126 32.5974 66.6126 34.2543V42.1063Z" fill="#7C3AA6"/>
<path d="M103.472 42.2755C103.472 44.4847 101.681 46.2755 99.4717 46.2755H91.2812C89.0721 46.2755 87.2812 44.4847 87.2812 42.2755V34.0851C87.2812 31.876 89.0721 30.0851 91.2812 30.0851H99.4717C101.681 30.0851 103.472 31.876 103.472 34.0851V42.2755ZM88.4505 42.1063C88.4505 43.7632 89.7936 45.1063 91.4505 45.1063H99.3025C100.959 45.1063 102.303 43.7632 102.303 42.1063V34.2543C102.303 32.5974 100.959 31.2543 99.3025 31.2543H91.4505C89.7936 31.2543 88.4505 32.5974 88.4505 34.2543V42.1063Z" fill="#7C3AA6"/>
<path d="M103.862 28.4148C103.383 28.0977 102.738 28.2279 102.421 28.7064L95.6633 38.9008L92.6936 34.8921C92.3511 34.4306 91.7028 34.3344 91.2413 34.6741C90.777 35.0167 90.6808 35.6678 91.0233 36.1292L94.8735 41.3297C95.0717 41.5959 95.3802 41.7516 95.7086 41.7516C95.7171 41.7516 95.7256 41.7516 95.7341 41.7516C96.0738 41.7431 96.3881 41.5704 96.5721 41.2873L104.151 29.8586C104.471 29.3773 104.34 28.7319 103.862 28.4148Z" fill="#FF6B00"/>
<path d="M59.3093 7.87583C58.8308 7.55876 58.1854 7.68899 57.8683 8.16742L51.1107 18.3619L48.1409 14.3532C47.7984 13.8917 47.1501 13.7955 46.6886 14.1352C46.2243 14.4777 46.1281 15.1289 46.4706 15.5903L50.3208 20.7909C50.519 21.057 50.8275 21.2127 51.1559 21.2127C51.1644 21.2127 51.1729 21.2127 51.1814 21.2127C51.5211 21.2042 51.8354 21.0315 52.0194 20.7484L59.5981 9.31964C59.918 8.83837 59.7877 8.1929 59.3093 7.87583Z" fill="#FF6B00"/>
<path d="M28.7281 14.0021C28.128 14.6165 27.709 15.5224 27.709 16.6236C27.709 19.8623 27.709 30.9995 27.709 30.9995L27.7741 40.8428C27.7741 40.8428 27.7741 40.8428 29.8464 40.8428C31.9186 40.8428 36.9323 33.8503 36.9323 29.901V22.0309C36.2642 21.7223 28.864 14.373 28.7281 14.0021Z" fill="#FEC8C1"/>
<path d="M27.7155 30.9967C27.7155 30.9967 15.7375 30.9967 11.5278 30.9967C5.11562 30.9967 0 36.5653 0 43.9486C0 50.6835 0 57.4808 0 57.4808H20.3322V40.8401H27.7778L27.7155 30.9967Z" fill="#FF6B00"/>
<path d="M16.7072 85.4537L13.0156 95.3622H38.2512L36.5214 90.9572L30.3697 88.95L29.3986 85.4537H16.7072Z" fill="#1C1C21"/>
<path d="M12.4337 69.0709V103.261H0V56.8976L11.14 63.0494L12.4337 69.0709Z" fill="#0442EB"/>
<path d="M0 103.261V112H16.9011L16.0603 109.09L12.4337 106.627V103.261H0Z" fill="#1C1C21"/>
<path d="M0.00133713 57.4808C0.00133713 57.4808 29.0757 57.4808 33.0901 57.4808C37.1044 57.4808 39.3069 61.2375 37.7527 64.7337C36.1985 68.23 29.3984 85.4537 29.3984 85.4537H16.7099L22.9919 70.107C22.9919 70.107 18.3292 70.0418 12.3728 70.0418C6.41638 70.0418 1.49327 64.6686 0.714749 61.43C-0.0637759 58.1913 0.00133713 57.4808 0.00133713 57.4808Z" fill="#036CFA"/>
<path d="M28.7305 14.0021C28.7305 14.0021 41.8578 14.0021 44.3179 14.0021C46.778 14.0021 47.0385 17.6711 44.3179 17.6711C41.5973 17.6711 39.5958 17.6711 39.5958 17.6711L39.4854 22.4385C39.4712 23.2652 38.7975 23.9304 37.968 23.9304H28.7305V14.0021Z" fill="#FEC8C1"/>
<path d="M9.33866 24.1597C8.38745 23.3954 8.24023 21.1193 8.24023 19.6585C8.24023 18.1977 9.63026 16.3632 12.1187 15.412C14.6072 14.4608 16.5832 16.8756 17.8996 19.1432C18.1431 19.5622 18.3384 19.9189 18.497 20.2332C19.0292 19.9756 20.2295 19.4405 20.5324 19.7264C20.7759 19.9557 19.8247 20.9438 19.0745 21.6543C19.2557 22.2856 19.3293 22.9028 19.5076 23.8993C19.8728 25.9489 20.0936 27.9957 17.826 28.2902C15.5584 28.5817 15.046 27.3389 15.046 27.3389L13.4436 33.1198C13.4436 33.1198 12.1215 33.7794 10.7287 33.1198C9.39245 32.4857 9.19145 31.2174 9.19145 31.2174L10.7287 26.1697C10.7287 26.1697 10.2899 24.9269 9.33866 24.1597Z" fill="#FEC8C1"/>
<path d="M17.2966 17.8268C17.2966 17.8268 19.6152 15.9498 20.1531 13.2661C20.691 10.5823 19.9096 8.82706 16.6908 9.02239C13.4719 9.21773 12.399 10.6814 11.813 12.3884C11.227 14.0955 10.9835 15.2024 10.9835 15.2024C10.9835 15.2024 8.59413 14.2456 7.86091 16.148C7.12768 18.0504 7.86091 19.1234 7.86091 19.1234C7.86091 19.1234 5.71501 20.1963 5.47155 22.9764C5.22808 25.7564 7.22676 26.7812 8.25158 27.0728C9.2764 27.3644 11.0797 28.2448 11.0797 28.2448L10.8363 23.2679C10.8363 23.2679 11.7337 22.2969 12.5915 22.2969C13.4521 22.2969 11.8611 21.1221 12.1272 20.536C12.3962 19.95 13.019 20.1991 12.8774 19.6613C12.7359 19.1234 12.1527 18.2429 12.6396 17.9513C13.1266 17.6597 14.8336 16.6774 15.615 16.8303C16.3963 16.9831 17.2966 17.8268 17.2966 17.8268Z" fill="#FF6B00"/>
<path d="M11.7584 21.9998C11.7584 21.9998 10.3428 20.6834 8.9783 21.1703C7.61375 21.6572 7.22308 23.5427 7.75814 24.307C8.29603 25.0714 9.07456 25.6319 9.90404 25.9009C10.7335 26.1698 11.7584 25.9009 11.7584 25.9009L13.4485 26.4388L11.7584 21.9998Z" fill="#FEC8C1"/>
<path d="M15.224 21.6089C15.4663 21.6089 15.6628 21.4125 15.6628 21.1701C15.6628 20.9278 15.4663 20.7313 15.224 20.7313C14.9816 20.7313 14.7852 20.9278 14.7852 21.1701C14.7852 21.4125 14.9816 21.6089 15.224 21.6089Z" fill="black"/>
<path d="M17.8418 20.2247C17.981 20.2247 18.0938 20.1119 18.0938 19.9727C18.0938 19.8336 17.981 19.7207 17.8418 19.7207C17.7026 19.7207 17.5898 19.8336 17.5898 19.9727C17.5898 20.1119 17.7026 20.2247 17.8418 20.2247Z" fill="black"/>
<path d="M13.7975 20.6692L15.213 19.5396C15.3801 19.4065 15.4084 19.1602 15.2753 18.9932L15.2527 18.9677C15.1196 18.8007 14.8733 18.7724 14.7063 18.9054L13.2908 20.035C13.1237 20.1681 13.0954 20.4144 13.2285 20.5814L13.2483 20.6069C13.3842 20.7767 13.6277 20.8022 13.7975 20.6692Z" fill="#FF6B00"/>
<path d="M16.7429 19.047L17.8697 19.2621C18.0452 19.2961 18.2179 19.18 18.2519 19.0045L18.283 18.846C18.317 18.6705 18.2009 18.4978 18.0254 18.4638L16.8987 18.2486C16.7231 18.2147 16.5504 18.3307 16.5165 18.5063L16.4853 18.6648C16.4485 18.8432 16.5646 19.013 16.7429 19.047Z" fill="#FF6B00"/>
<path d="M15.9638 25.5724C15.8618 25.5724 15.7543 25.5667 15.6382 25.5498C14.4435 25.3941 14.2935 24.1711 14.2935 24.1569C14.2878 24.0946 14.3303 24.0408 14.3926 24.0323C14.452 24.021 14.5086 24.0691 14.5171 24.1314C14.5228 24.1739 14.6502 25.193 15.6693 25.3261C16.8952 25.4846 17.2462 24.6523 17.2604 24.6155C17.283 24.5589 17.3509 24.5306 17.4076 24.5532C17.4642 24.5759 17.4925 24.641 17.4698 24.6976C17.4614 24.7089 17.1046 25.5724 15.9638 25.5724Z" fill="black"/>
</g>
<defs>
<clipPath id="clip0">
<rect width="116.227" height="112" fill="white"/>
</clipPath>
</defs>
</svg>
