<svg width="156" height="112" viewBox="0 0 156 112" fill="none" xmlns="http://www.w3.org/2000/svg">
<path d="M108.989 111.841H52.6234C50.7332 111.841 49.2012 110.309 49.2012 108.419V31.5943C49.2012 29.7041 50.7332 28.172 52.6234 28.172H108.989C110.879 28.172 112.412 29.7041 112.412 31.5943V108.419C112.412 110.309 110.879 111.841 108.989 111.841Z" fill="#E1E6EA"/>
<path d="M108.989 111.841H52.6234C50.7332 111.841 49.2012 110.309 49.2012 108.419V31.5943C49.2012 29.7041 50.7332 28.172 52.6234 28.172H108.989C110.879 28.172 112.412 29.7041 112.412 31.5943V108.419C112.412 110.309 110.879 111.841 108.989 111.841Z" stroke="#E1E6EA"/>
<path d="M105.185 84.1738H56.3241C54.9664 84.1738 53.8672 83.0745 53.8672 81.7168V35.9291C53.8672 34.5714 54.9664 33.4722 56.3241 33.4722H105.185C106.543 33.4722 107.642 34.5714 107.642 35.9291V81.7168C107.642 83.0745 106.543 84.1738 105.185 84.1738Z" fill="#9933CC"/>
<path d="M35.1349 0H13.1596C5.89162 0 0 5.89162 0 13.1596C0 20.4276 5.89162 26.3223 13.1596 26.3223H30.2428L40.0892 36.5019L38.7066 25.8272C44.237 24.2702 48.2945 19.1914 48.2945 13.1627C48.2945 5.89162 42.4029 0 35.1349 0Z" fill="#9BA9B4"/>
<path d="M32.8556 14.7726C34.1782 14.7726 35.2503 13.7005 35.2503 12.378C35.2503 11.0554 34.1782 9.98334 32.8556 9.98334C31.5331 9.98334 30.4609 11.0554 30.4609 12.378C30.4609 13.7005 31.5331 14.7726 32.8556 14.7726Z" fill="white"/>
<path d="M23.922 14.7726C25.2445 14.7726 26.3166 13.7005 26.3166 12.378C26.3166 11.0554 25.2445 9.98334 23.922 9.98334C22.5995 9.98334 21.5273 11.0554 21.5273 12.378C21.5273 13.7005 22.5995 14.7726 23.922 14.7726Z" fill="white"/>
<path d="M14.9728 14.7726C16.2953 14.7726 17.3674 13.7005 17.3674 12.378C17.3674 11.0554 16.2953 9.98334 14.9728 9.98334C13.6502 9.98334 12.5781 11.0554 12.5781 12.378C12.5781 13.7005 13.6502 14.7726 14.9728 14.7726Z" fill="white"/>
<path d="M67.8094 106.958C72.8106 106.958 76.8649 102.904 76.8649 97.9029C76.8649 92.9018 72.8106 88.8475 67.8094 88.8475C62.8082 88.8475 58.7539 92.9018 58.7539 97.9029C58.7539 102.904 62.8082 106.958 67.8094 106.958Z" fill="#4858CC"/>
<path d="M93.3289 106.958C98.33 106.958 102.384 102.904 102.384 97.9029C102.384 92.9018 98.33 88.8475 93.3289 88.8475C88.3277 88.8475 84.2734 92.9018 84.2734 97.9029C84.2734 102.904 88.3277 106.958 93.3289 106.958Z" fill="#FF471F"/>
<path d="M88.9913 70.005C81.5863 67.0623 77.5288 69.2639 71.5407 73.9317C67.6731 76.946 64.9515 81.399 63.5098 84.1736H101.435C101.089 83.4449 100.669 82.6072 100.149 81.6419C97.3273 76.3949 96.3962 72.9477 88.9913 70.005Z" fill="#FF6B00"/>
<path d="M86.4486 61.4073C87.7689 60.3454 87.9713 57.191 87.9713 55.1669C87.9713 53.1428 86.0438 50.5987 82.5935 49.2784C79.1432 47.9581 76.406 51.3087 74.5781 54.4538C74.2418 55.0361 73.9709 55.5281 73.7498 55.9672C73.0118 55.6091 71.3458 54.8679 70.9285 55.2634C70.5922 55.581 71.9094 56.9512 72.9526 57.9352C72.7004 58.8102 72.5976 59.6666 72.3516 61.0492C71.844 63.8891 71.5389 66.729 74.684 67.137C77.8291 67.5449 78.5391 65.8166 78.5391 65.8166L80.7625 73.832C80.7625 73.832 82.5966 74.7444 84.5242 73.832C86.377 72.9539 86.6541 71.1945 86.6541 71.1945L84.5242 64.1943C84.5211 64.1943 85.1283 62.4691 86.4486 61.4073Z" fill="#FEC8C1"/>
<path d="M75.4137 52.6259C75.4137 52.6259 72.2001 50.0226 71.4559 46.3045C70.7116 42.5833 71.7953 40.1513 76.2575 40.4191C80.7198 40.69 82.2082 42.7172 83.021 45.0869C83.8337 47.4567 84.17 48.9857 84.17 48.9857C84.17 48.9857 87.4832 47.656 88.4984 50.2966C89.5135 52.9342 88.4984 54.4227 88.4984 54.4227C88.4984 54.4227 91.4753 55.9111 91.8116 59.7663C92.1479 63.6214 89.3765 65.0413 87.9565 65.4462C86.5366 65.851 84.033 67.0686 84.033 67.0686L84.3724 60.1711C84.3724 60.1711 83.13 58.8227 81.9373 58.8227C80.7447 58.8227 82.9525 57.1941 82.5788 56.3814C82.2082 55.5686 81.3426 55.9174 81.5388 55.1669C81.7349 54.4196 82.5446 53.202 81.8688 52.7972C81.1931 52.3923 78.8265 51.0284 77.7429 51.2402C76.6623 51.455 75.4137 52.6259 75.4137 52.6259Z" fill="#FF6B00"/>
<path d="M83.0975 58.412C83.0975 58.412 85.0593 56.5872 86.9526 57.2629C88.8458 57.9387 89.3877 60.5513 88.6434 61.6131C87.8992 62.675 86.8187 63.4504 85.6665 63.824C84.5175 64.1946 83.0975 63.824 83.0975 63.824L80.7559 64.5683L83.0975 58.412Z" fill="#FEC8C1"/>
<path d="M78.3006 57.8697C78.6359 57.8697 78.9078 57.5979 78.9078 57.2625C78.9078 56.9272 78.6359 56.6554 78.3006 56.6554C77.9652 56.6554 77.6934 56.9272 77.6934 57.2625C77.6934 57.5979 77.9652 57.8697 78.3006 57.8697Z" fill="black"/>
<path d="M74.6691 55.9487C74.8617 55.9487 75.0178 55.7925 75.0178 55.5999C75.0178 55.4073 74.8617 55.2512 74.6691 55.2512C74.4765 55.2512 74.3203 55.4073 74.3203 55.5999C74.3203 55.7925 74.4765 55.9487 74.6691 55.9487Z" fill="black"/>
<path d="M80.2792 56.5684L78.3143 55.0021C78.0807 54.8152 78.0434 54.4758 78.2302 54.2454L78.2582 54.208C78.4451 53.9745 78.7845 53.9371 79.0149 54.1239L80.9798 55.6902C81.2134 55.8771 81.2507 56.2165 81.0639 56.4469L81.0359 56.4843C80.849 56.7147 80.5127 56.7521 80.2792 56.5684Z" fill="#FF6B00"/>
<path d="M76.2075 54.3201L74.6443 54.6191C74.3983 54.6658 74.1616 54.5039 74.1149 54.261L74.0744 54.043C74.0277 53.797 74.1897 53.5603 74.4325 53.5136L75.9957 53.2147C76.2417 53.168 76.4784 53.3299 76.5251 53.5728L76.5656 53.7908C76.6123 54.0368 76.4504 54.2734 76.2075 54.3201Z" fill="#FF6B00"/>
<path d="M77.2543 63.363C75.6693 63.363 75.1773 62.1673 75.1711 62.1548C75.1399 62.0738 75.1773 61.9866 75.2583 61.9524C75.3361 61.9212 75.4264 61.9586 75.4607 62.0396C75.4794 62.0894 75.9714 63.2478 77.6653 63.0236C79.0821 62.8399 79.2596 61.3825 79.2627 61.3701C79.2721 61.2829 79.3499 61.2206 79.434 61.2331C79.5181 61.2424 79.5804 61.3203 79.571 61.4043C79.5679 61.423 79.3624 63.117 77.7058 63.335C77.547 63.3537 77.3975 63.363 77.2543 63.363Z" fill="black"/>
<path d="M67.8269 99.1175C68.4994 99.1175 69.0443 98.5725 69.0443 97.8999V94.6552C69.0443 93.9825 68.4994 93.4376 67.8269 93.4376C67.1543 93.4376 66.6094 93.9825 66.6094 94.6552V97.8999C66.6094 98.5725 67.1543 99.1175 67.8269 99.1175Z" fill="white"/>
<path d="M70.647 96.6573C70.4073 96.6573 70.2111 96.8535 70.2111 97.0933V97.9029C70.2111 99.2295 69.1337 100.307 67.8071 100.307C66.4806 100.307 65.4032 99.2295 65.4032 97.9029V97.0933C65.4032 96.8535 65.207 96.6573 64.9672 96.6573C64.7274 96.6573 64.5312 96.8535 64.5312 97.0933V97.9029C64.5312 99.5315 65.7675 100.93 67.3681 101.145V101.929H66.1816C65.9419 101.929 65.7457 102.125 65.7457 102.365C65.7457 102.605 65.9419 102.801 66.1816 102.801H69.4264C69.6661 102.801 69.8623 102.605 69.8623 102.365C69.8623 102.125 69.6661 101.929 69.4264 101.929H68.24V101.145C69.8436 100.93 71.0799 99.5315 71.0799 97.9029V97.0933C71.083 96.8504 70.8868 96.6573 70.647 96.6573Z" fill="white"/>
<path d="M94.952 98.0741L97.6985 100.036C97.8386 100.135 98.0348 100.036 98.0348 99.8646V95.9411C98.0348 95.7698 97.8386 95.6702 97.6985 95.7698L94.952 97.7316C94.8337 97.8125 94.8337 97.99 94.952 98.0741Z" fill="white"/>
<path d="M94.1419 95.0039H89.5861C89.1284 95.0039 88.7578 95.3744 88.7578 95.8322V99.9738C88.7578 100.432 89.1284 100.802 89.5861 100.802H94.1419C94.5996 100.802 94.9702 100.432 94.9702 99.9738V97.903V95.8322C94.9671 95.3744 94.5965 95.0039 94.1419 95.0039Z" fill="white"/>
</svg>
