<svg width="115" height="112" viewBox="0 0 115 112" fill="none" xmlns="http://www.w3.org/2000/svg">
<path d="M22.7695 42.2297C22.7695 28.314 33.4416 16.4316 47.554 15.1974C47.7809 15.1787 47.9829 15.3466 48.0016 15.5736C48.0233 15.8005 47.8524 16.0026 47.6255 16.0212C33.1682 17.2835 22.437 30.0799 23.6956 44.5397C23.7174 44.7666 23.5465 44.9687 23.3196 44.9873C23.0927 45.006 22.8907 44.8381 22.8721 44.6112C22.8037 43.8122 22.7695 43.0163 22.7695 42.2297Z" fill="#4858CC"/>
<path d="M23.2819 45.7674C23.0022 45.7674 22.7349 45.671 22.5205 45.4876C22.2781 45.2824 22.1289 44.9964 22.101 44.6792C22.0295 43.8678 21.9922 43.0439 21.9922 42.2294C21.9922 35.2778 24.5872 28.6029 29.2955 23.4327C34.0348 18.2314 40.4928 15.0323 47.4853 14.4229C47.8023 14.3918 48.1099 14.4913 48.3555 14.6965C48.5979 14.9017 48.747 15.1877 48.775 15.5048C48.8061 15.8126 48.7097 16.1235 48.5046 16.3691C48.2995 16.6147 48.0105 16.7671 47.6904 16.7951C33.665 18.02 23.2446 30.4371 24.4691 44.4741C24.4971 44.7881 24.4007 45.0958 24.1987 45.3414C23.9936 45.5871 23.7046 45.7363 23.3876 45.7643C23.3534 45.7643 23.3161 45.7674 23.2819 45.7674ZM22.9214 44.6077V44.6108V44.6077Z" fill="#4858CC"/>
<path d="M17.5273 40.4758C17.5273 40.3701 17.5677 40.2675 17.6454 40.1867C17.8039 40.0219 18.0681 40.0219 18.2297 40.1805L23.1959 45.0398L28.0534 40.0717C28.2119 39.9069 28.476 39.9069 28.6376 40.0654C28.7993 40.224 28.8024 40.4883 28.6439 40.6499L23.4974 45.9134C23.3389 46.0782 23.0747 46.0782 22.9131 45.9196L17.6517 40.7712C17.5709 40.6903 17.5273 40.5815 17.5273 40.4758Z" fill="#4858CC"/>
<path d="M23.2017 46.8116C22.9003 46.8116 22.6019 46.6996 22.3689 46.4727L17.1074 41.3243C16.8774 41.0973 16.75 40.7957 16.75 40.4724C16.75 40.1584 16.8712 39.8631 17.0887 39.6392C17.5487 39.1729 18.3008 39.1635 18.7701 39.6206L23.18 43.9358L27.4936 39.5242C27.9535 39.0547 28.7087 39.0454 29.178 39.5055C29.4049 39.7294 29.5323 40.0247 29.5354 40.3449C29.5385 40.6652 29.4173 40.9636 29.1966 41.1906L24.0533 46.454C23.8202 46.6934 23.5125 46.8116 23.2017 46.8116Z" fill="#4858CC"/>
<path d="M90.2437 64.9196C90.2437 78.8353 79.5716 90.7177 65.4592 91.9519C65.2323 91.9706 65.0303 91.8027 65.0116 91.5757C64.9899 91.3488 65.1608 91.1467 65.3877 91.1281C79.845 89.8658 90.5762 77.0694 89.3176 62.6096C89.2958 62.3827 89.4667 62.1806 89.6936 62.162C89.9205 62.1433 90.1225 62.3112 90.1411 62.5381C90.2095 63.334 90.2437 64.1299 90.2437 64.9196Z" fill="#4858CC"/>
<path d="M65.421 92.7288C65.1413 92.7288 64.8741 92.6325 64.6596 92.449C64.4141 92.2438 64.265 91.9578 64.2401 91.6407C64.209 91.3329 64.3054 91.022 64.5105 90.7764C64.7156 90.5308 65.0046 90.3785 65.3247 90.3505C79.3532 89.1256 89.7705 76.7084 88.546 62.6715C88.518 62.3606 88.6144 62.0497 88.8164 61.8072C89.0215 61.5616 89.3074 61.4124 89.6275 61.3844C89.9414 61.3564 90.2522 61.4528 90.4977 61.658C90.7432 61.8632 90.8893 62.1492 90.9172 62.4663C90.9887 63.2777 91.0229 64.1047 91.0229 64.9162C91.0229 71.8678 88.4279 78.5427 83.7196 83.7129C78.9803 88.9142 72.5223 92.1133 65.5298 92.7257C65.4894 92.7288 65.4552 92.7288 65.421 92.7288ZM90.0906 62.5347V62.5378C90.0906 62.5378 90.0906 62.5378 90.0906 62.5347Z" fill="#4858CC"/>
<path d="M95.4835 66.673C95.4835 66.7787 95.4431 66.8813 95.3654 66.9621C95.2069 67.1269 94.9427 67.1269 94.7811 66.9683L89.8149 62.109L84.9574 67.0771C84.7989 67.2419 84.5348 67.2419 84.3732 67.0833C84.2116 66.9248 84.2085 66.6605 84.367 66.4989L89.5134 61.2354C89.6719 61.0706 89.9361 61.0706 90.0977 61.2292L95.3592 66.3776C95.44 66.4553 95.4835 66.5642 95.4835 66.673Z" fill="#4858CC"/>
<path d="M84.6634 67.9781C84.3495 67.9781 84.0543 67.8568 83.8305 67.6392C83.3612 67.1791 83.3519 66.4236 83.8119 65.9542L88.9584 60.6907C89.179 60.4638 89.4774 60.3363 89.7975 60.3332C90.1207 60.327 90.4159 60.4513 90.6428 60.6721L95.9042 65.8205C96.1342 66.0474 96.2616 66.349 96.2616 66.6723C96.2616 66.9863 96.1404 67.2817 95.9229 67.5055C95.4629 67.975 94.7077 67.9843 94.2385 67.5242L89.8285 63.209L85.5149 67.6206C85.2943 67.8475 84.9959 67.975 84.6758 67.9781C84.6727 67.9781 84.6665 67.9781 84.6634 67.9781Z" fill="#4858CC"/>
<path d="M59.0352 42.4313C59.0352 29.6442 59.0352 16.8571 59.0352 4.06993C59.0538 3.9549 59.0662 3.83987 59.088 3.72484C59.4174 1.9403 60.4461 0.758901 62.1678 0.183745C62.4724 0.0811493 62.7925 0.0500598 63.1063 -0.00279236C75.8886 -0.00279236 88.6709 -0.00279236 101.453 -0.00279236C101.453 4.31865 101.453 8.63698 101.453 12.9584C101.453 13.0268 101.459 13.0952 101.459 13.1605C101.459 13.1667 101.456 13.1698 101.45 13.1698C101.41 13.1667 101.369 13.1636 101.329 13.1636C91.6668 13.1636 82.0078 13.1636 72.3458 13.1605C72.2308 13.1605 72.1935 13.1823 72.1935 13.3066C72.1966 23.0128 72.1966 32.7158 72.1966 42.422C72.1438 42.422 72.0878 42.4251 72.035 42.4251C70.652 42.4251 69.2691 42.4251 67.8861 42.4251C64.9368 42.4313 61.9844 42.4313 59.0352 42.4313Z" fill="#26A7FF"/>
<path d="M59.0344 42.4315C61.9836 42.4315 64.936 42.4315 67.8853 42.4315C69.2683 42.4315 70.6512 42.4315 72.0342 42.4315C72.087 42.4315 72.143 42.4284 72.1958 42.4284C72.2269 42.4284 72.2579 42.4315 72.289 42.4315C82.007 42.4315 91.7251 42.4315 101.443 42.4315L101.449 42.4346C101.449 42.4657 101.446 42.4968 101.446 42.531C101.446 46.84 101.446 51.1521 101.446 55.4611C101.446 55.5016 101.449 55.542 101.449 55.5824C101.452 55.5886 101.449 55.5948 101.446 55.5979C88.6732 55.5979 75.9003 55.5979 63.1273 55.5979C63.0776 55.5917 63.031 55.5824 62.9812 55.5762C61.1104 55.399 59.5409 54.0093 59.1369 52.1719C59.0965 51.9947 59.0654 51.8112 59.0312 51.634C59.0344 48.5686 59.0344 45.5001 59.0344 42.4315Z" fill="#A8D600"/>
<path d="M114.614 13.1672C114.614 22.9231 114.614 32.679 114.614 42.4318L114.608 42.4411L114.598 42.438C114.545 42.438 114.489 42.4349 114.437 42.4349C110.16 42.4349 105.881 42.4349 101.605 42.4349C101.555 42.4349 101.505 42.438 101.455 42.438L101.449 42.4349C101.449 42.3821 101.452 42.3261 101.452 42.2733C101.452 39.2576 101.452 36.2388 101.452 33.2231C101.452 26.542 101.452 19.8608 101.452 13.1797C101.459 13.1797 101.462 13.1766 101.462 13.1704C101.511 13.1704 101.561 13.1735 101.611 13.1735C103.062 13.1735 104.513 13.1735 105.965 13.1735C108.846 13.1672 111.73 13.1672 114.614 13.1672Z" fill="#F6C462"/>
<path d="M114.615 13.1664C111.731 13.1664 108.847 13.1664 105.962 13.1664C104.511 13.1664 103.06 13.1664 101.609 13.1664C101.559 13.1664 101.509 13.1633 101.459 13.1633C101.456 13.0949 101.453 13.0265 101.453 12.9612C101.453 8.63978 101.453 4.32144 101.453 0C104.474 0 107.495 0 110.518 0C110.671 0.0217627 110.823 0.0341985 110.975 0.062179C112.759 0.38551 114.117 1.68505 114.515 3.45094C114.555 3.62815 114.583 3.80847 114.618 3.98879C114.615 7.048 114.615 10.1072 114.615 13.1664Z" fill="#4858CC"/>
<path d="M114.598 42.4374C114.567 42.4716 114.539 42.5058 114.508 42.5369C110.194 46.8521 105.881 51.1674 101.567 55.4826C101.533 55.5168 101.492 55.5479 101.458 55.5821C101.458 55.5417 101.455 55.5012 101.455 55.4608C101.455 51.1518 101.455 46.8397 101.455 42.5307C101.455 42.4996 101.455 42.4685 101.458 42.4343C101.508 42.4343 101.558 42.4312 101.607 42.4312C105.884 42.4312 110.163 42.4312 114.439 42.4312C114.489 42.4312 114.542 42.4343 114.598 42.4374Z" fill="#FF4A00"/>
<path d="M80.0141 27.6826C80.0141 27.3064 80.0172 26.9302 80.011 26.5571C80.011 26.4608 80.042 26.4359 80.1353 26.4328C80.6512 26.4297 81.1671 26.4545 81.683 26.4172C82.3698 26.3644 82.9789 26.1219 83.5072 25.6742C84.4489 24.8783 84.6726 22.7642 82.9074 21.9963C82.1398 21.6605 81.3411 21.6388 80.5486 21.8937C79.8618 22.1144 79.436 22.6399 79.088 23.243C79.0041 23.3891 78.9357 23.5415 78.8829 23.7C78.858 23.7684 78.8331 23.7933 78.7585 23.7591C77.9785 23.4326 77.2015 23.1062 76.4184 22.786C76.3251 22.7487 76.35 22.702 76.3749 22.6399C76.6421 21.9372 77.0586 21.331 77.5776 20.7869C78.541 19.7796 79.7251 19.2666 81.1049 19.1858C82.5252 19.1019 83.8646 19.3444 85.0549 20.162C86.096 20.8771 86.7642 21.8502 86.9413 23.1124C87.1931 24.9032 86.5715 26.3955 84.8933 27.4183C84.8747 27.4308 84.856 27.4432 84.8343 27.4525C84.7783 27.4774 84.7534 27.5116 84.7534 27.5769C84.7503 27.6515 84.8032 27.667 84.8498 27.6857C85.5335 27.9841 86.1115 28.4194 86.5964 28.9852C87.3174 29.8278 87.625 30.8133 87.5877 31.9076C87.51 34.1305 86.3602 35.6477 84.3525 36.4623C82.1584 37.3545 80.0203 37.1462 78.0531 35.7659C77.0928 35.0912 76.465 34.1616 76.0734 33.0642C76.0299 32.946 75.9988 32.8217 75.9553 32.7035C75.9336 32.6445 75.946 32.6165 76.0051 32.5916C76.7975 32.2652 77.5931 31.9387 78.3856 31.6092C78.4757 31.5719 78.4819 31.6278 78.4975 31.6869C78.6187 32.1066 78.7803 32.5077 79.0227 32.8714C79.7499 33.9658 80.7848 34.4228 82.0776 34.3202C82.9292 34.2518 83.6409 33.9036 84.2096 33.2631C85.0238 32.346 85.0611 30.6174 83.8118 29.6692C83.1529 29.1718 82.4071 28.9604 81.5959 28.9417C81.1111 28.9324 80.6294 28.9355 80.1446 28.9417C80.0358 28.9417 80.0079 28.9075 80.011 28.8049C80.0203 28.4318 80.0141 28.0557 80.0141 27.6826Z" fill="#4858CC"/>
<path d="M93.7843 23.2709C93.4363 23.5228 93.1193 23.7528 92.7992 23.9829C92.2304 24.3933 91.6617 24.8037 91.0961 25.2171C91.0091 25.2793 90.978 25.2669 90.9221 25.183C90.5087 24.5456 90.0892 23.9114 89.6696 23.2803C89.6168 23.2025 89.6106 23.1621 89.6976 23.1C91.3012 21.9465 92.9048 20.79 94.5053 19.6335C94.5675 19.5899 94.6296 19.5682 94.7042 19.5682C95.2574 19.5713 95.8075 19.5744 96.3607 19.5651C96.4881 19.562 96.5161 19.6024 96.5161 19.7236C96.513 21.9279 96.513 24.129 96.513 26.3333C96.513 29.6754 96.513 33.0206 96.513 36.3627C96.513 36.6052 96.5471 36.5741 96.2954 36.5741C95.5216 36.5741 94.7478 36.5741 93.9739 36.5741C93.7595 36.5741 93.7812 36.599 93.7812 36.3752C93.7812 32.0786 93.7812 27.7789 93.7812 23.4824C93.7843 23.4264 93.7843 23.3673 93.7843 23.2709Z" fill="#4858CC"/>
<path d="M49.6094 112H5.97004C2.67269 112 0 109.327 0 106.028V62.3721C0 59.0735 2.67269 56.3998 5.97004 56.3998H49.6094C52.9068 56.3998 55.5795 59.0735 55.5795 62.3721V106.028C55.5795 109.327 52.9068 112 49.6094 112Z" fill="#4858CC"/>
<path d="M14.2691 87.7509C13.1783 88.8422 11.4597 88.9106 10.4528 87.9033C9.44275 86.8928 9.50801 85.1736 10.6019 84.0855L27.8408 66.9303C28.9316 65.839 30.6502 65.7706 31.6602 66.7779C32.6672 67.7883 32.5988 69.5076 31.508 70.5988L14.2691 87.7509Z" fill="#FF4A00"/>
<path d="M27.8516 101.337C26.7608 102.431 25.0422 102.496 24.0322 101.489C23.0252 100.479 23.0905 98.7625 24.1844 97.6712L41.4233 80.5191C42.511 79.4279 44.2296 79.3595 45.2396 80.3668C46.2465 81.3741 46.1813 83.0965 45.0904 84.1877L27.8516 101.337Z" fill="white"/>
<path d="M13.8645 74.6125C12.7736 75.7007 11.055 75.7691 10.0481 74.7587C9.04119 73.7514 9.10645 72.0321 10.1973 70.944L14.5233 66.6163C15.6141 65.5251 17.3327 65.4567 18.3397 66.464C19.3497 67.4713 19.2813 69.1905 18.1874 70.2818L13.8645 74.6125Z" fill="white"/>
<path d="M41.0297 101.788C39.9389 102.879 38.2234 102.947 37.2134 101.937C36.2034 100.93 36.2717 99.2104 37.3626 98.1191L41.6886 93.7946C42.7825 92.7033 44.498 92.635 45.508 93.6423C46.515 94.6496 46.4466 96.3719 45.3558 97.4631L41.0297 101.788Z" fill="#F6C435"/>
<path d="M45.5371 66.4606C45.5091 66.4327 45.4718 66.4109 45.4407 66.3829C45.0305 65.9943 44.4991 65.7487 43.9117 65.7487C43.8806 65.7487 43.8496 65.758 43.8154 65.7611C43.8061 65.7611 43.7967 65.7611 43.7905 65.7611C43.7563 65.758 43.7253 65.7518 43.6911 65.7518H36.5525C35.1664 65.7549 34.0321 66.7995 34.0321 68.0804C34.0321 69.3613 35.1633 70.4121 36.5525 70.4121H37.9293L10.3508 97.9948C9.26002 99.086 9.19165 100.805 10.2017 101.816C11.2086 102.823 12.9272 102.755 14.018 101.663L41.5871 74.0869V75.4082C41.5871 76.7948 42.6344 77.9296 43.9179 77.9296C45.1983 77.9296 46.2488 76.7979 46.2488 75.4082V68.3975C46.2861 67.6856 46.0561 66.9798 45.5371 66.4606Z" fill="#26A7FF"/>
</svg>
