<svg width="104" height="112" viewBox="0 0 104 112" fill="none" xmlns="http://www.w3.org/2000/svg">
<g clip-path="url(#clip0)">
<path d="M96.0712 111.832H51.4086C49.7773 111.832 48.4531 110.51 48.4531 108.877V36.8833C48.4531 35.2521 49.7749 33.9279 51.4086 33.9279H96.0712C97.7025 33.9279 99.0267 35.2497 99.0267 36.8833V108.879C99.0267 110.51 97.7025 111.832 96.0712 111.832Z" fill="#CFD2D3"/>
<path d="M77.3023 57.0842L95.4428 73.8621V41.5825C95.4428 40.2055 94.3274 39.0924 92.9528 39.0924H54.4432C53.0662 39.0924 51.9531 40.2079 51.9531 41.5825V101.001C51.9531 102.378 53.0686 103.491 54.4432 103.491H83.4459L60.5244 72.713L77.3023 57.0842Z" fill="#9933CC"/>
<path d="M78.4502 37.5568H68.9553C68.4156 37.5568 67.9766 37.1178 67.9766 36.5781C67.9766 36.0383 68.4156 35.5993 68.9553 35.5993H78.4502C78.9899 35.5993 79.4289 36.0383 79.4289 36.5781C79.4289 37.1154 78.9899 37.5568 78.4502 37.5568ZM68.9553 35.856C68.5595 35.856 68.2356 36.1798 68.2356 36.5757C68.2356 36.9715 68.5595 37.2953 68.9553 37.2953H78.4502C78.846 37.2953 79.1698 36.9715 79.1698 36.5757C79.1698 36.1798 78.846 35.856 78.4502 35.856H68.9553Z" fill="#7D36A8"/>
<path d="M73.7096 109.406C72.467 109.406 71.457 108.396 71.457 107.151C71.457 105.906 72.467 104.896 73.7096 104.896C74.9522 104.896 75.9646 105.906 75.9646 107.151C75.9646 108.396 74.9522 109.406 73.7096 109.406ZM73.7096 105.16C72.6109 105.16 71.7161 106.055 71.7161 107.154C71.7161 108.252 72.6109 109.147 73.7096 109.147C74.8083 109.147 75.7031 108.252 75.7031 107.154C75.7031 106.055 74.8083 105.16 73.7096 105.16Z" fill="#7D36A8"/>
<path d="M46.2636 46.0035C46.2636 46.0035 44.1789 45.2047 44.4932 43.7461C44.8075 42.2876 46.2636 41.8702 47.7246 41.8702C49.1856 41.8702 53.1438 43.12 53.1438 43.12L46.2636 46.0035Z" fill="#C06668"/>
<path d="M46.3616 48.9572C46.3616 48.9572 43.3941 48.9572 43.5764 47.6018C43.7563 46.2464 44.3057 45.4547 46.3616 44.2888C48.4198 43.123 51.0514 42.9143 53.1361 43.123C55.2208 43.3317 60.5344 46.8749 60.5344 46.8749L46.3616 48.9572Z" fill="#E49293"/>
<path d="M77.1104 59.2747C77.1104 59.2747 69.6066 49.2713 62.1052 46.04C54.6014 42.8087 50.0171 44.5814 46.5795 47.0811C43.1418 49.5831 42.9331 51.8957 44.6004 51.7805C46.2676 51.6654 49.1847 49.2689 51.8955 50.7274C54.6062 52.1859 55.0692 55.8347 53.0421 57.9169C51.0151 60.0016 48.6665 60.6253 46.0613 62.1893C43.4561 63.7534 42.5181 65.9412 45.7494 66.4618C48.9808 66.9823 50.648 65.3151 54.5031 66.4618C58.3581 67.6085 58.4637 68.129 60.5459 70.2664C62.6282 72.4039 64.401 73.8624 64.401 73.8624L77.1104 59.2747Z" fill="#FEC8C1"/>
<path d="M95.4657 84.2518C95.4657 84.4245 95.3506 84.8563 95.1562 85.4536C95.353 85.0962 95.4657 84.686 95.4657 84.2518Z" fill="#9933CC"/>
<path d="M95.4574 101.001V73.8625L77.3169 57.0846L60.5391 72.7158L83.4605 103.494H92.9649C94.3419 103.494 95.4574 102.378 95.4574 101.001Z" fill="#FF6B00"/>
<path d="M2.15662 84.4121H34.7673C35.9596 84.4121 36.9239 83.4454 36.9239 82.2555V29.6884C36.9239 28.4961 35.9572 27.5317 34.7673 27.5317H2.15662C0.964364 27.5317 4.45482e-06 28.4985 4.45482e-06 29.6884V82.2555C-0.00239445 83.4478 0.964364 84.4121 2.15662 84.4121Z" fill="#CFD2D3"/>
<path d="M4.53517 78.3241H32.6527C33.6579 78.3241 34.4711 77.5109 34.4711 76.5057V33.119C34.4711 32.1139 33.6579 31.3007 32.6527 31.3007H4.53517C3.53003 31.3007 2.7168 32.1139 2.7168 33.119V76.5057C2.7168 77.5109 3.53003 78.3241 4.53517 78.3241Z" fill="#4858CC"/>
<path d="M22.0481 30.1807H15.1153C14.7218 30.1807 14.4004 29.8592 14.4004 29.4658C14.4004 29.0723 14.7218 28.7509 15.1153 28.7509H22.0481C22.4415 28.7509 22.7629 29.0723 22.7629 29.4658C22.7629 29.8592 22.4415 30.1807 22.0481 30.1807ZM15.1153 28.9404C14.825 28.9404 14.5899 29.1755 14.5899 29.4658C14.5899 29.756 14.825 29.9911 15.1153 29.9911H22.0481C22.3383 29.9911 22.5734 29.756 22.5734 29.4658C22.5734 29.1755 22.3383 28.9404 22.0481 28.9404H15.1153Z" fill="#4858CC"/>
<path d="M18.5988 82.644C17.692 82.644 16.9531 81.9051 16.9531 80.9984C16.9531 80.0916 17.692 79.3527 18.5988 79.3527C19.5056 79.3527 20.2444 80.0916 20.2444 80.9984C20.2444 81.9051 19.5056 82.644 18.5988 82.644ZM18.5988 79.5422C17.7951 79.5422 17.1426 80.1947 17.1426 80.9984C17.1426 81.802 17.7951 82.4545 18.5988 82.4545C19.4024 82.4545 20.0549 81.802 20.0549 80.9984C20.0549 80.1947 19.4024 79.5422 18.5988 79.5422Z" fill="#4858CC"/>
<path d="M39.218 45.8474C39.218 45.8474 41.3026 45.0485 40.9884 43.59C40.6765 42.1315 39.218 41.7141 37.757 41.7141C36.2961 41.7141 32.3379 42.9639 32.3379 42.9639L39.218 45.8474Z" fill="#C06668"/>
<path d="M39.1103 48.801C39.1103 48.801 42.0777 48.801 41.8954 47.4456C41.7131 46.0902 41.1662 45.2986 39.1103 44.1328C37.052 42.9669 34.4204 42.7582 32.3357 42.9669C30.2511 43.1756 24.9375 46.7187 24.9375 46.7187L39.1103 48.801Z" fill="#E49293"/>
<path d="M8.36719 59.1163C8.36719 59.1163 15.871 49.1129 23.3723 45.8816C30.8737 42.6503 35.4604 44.4231 38.898 46.9227C42.3357 49.4247 42.5444 51.7373 40.8771 51.6221C39.2099 51.507 36.2928 49.1105 33.5821 50.569C30.8737 52.0275 30.4083 55.6763 32.4354 57.7585C34.4625 59.8407 36.811 60.4668 39.4162 62.0309C42.0214 63.595 42.9594 65.7828 39.7281 66.3034C36.4967 66.8239 34.8295 65.1567 30.9745 66.3034C27.1194 67.45 27.0139 67.9706 24.9316 70.108C22.847 72.243 21.0766 73.7039 21.0766 73.7039L8.36719 59.1163Z" fill="#FEC8C1"/>
<path d="M2.7168 76.5058V62.7146L8.1671 56.9285L24.945 72.5597L20.2984 78.3242H4.53756C3.53002 78.3242 2.7168 77.511 2.7168 76.5058Z" fill="#F6C462"/>
<path d="M94.0176 0H46.6129C41.105 0 36.6406 4.46436 36.6406 9.97224V10.2745C36.6406 15.7824 41.105 20.2467 46.6129 20.2467L44.6458 27.2731L55.0474 20.2467H94.0176C99.5255 20.2467 103.99 15.7824 103.99 10.2745V9.97224C103.987 4.46436 99.5255 0 94.0176 0Z" fill="#4858CC"/>
<path d="M47.7646 7.65041L50.6961 6.10791L50.1372 9.37282L52.5097 11.6854L49.2304 12.1627L47.7646 15.1326L46.2965 12.1627L43.0195 11.6854L45.3921 9.37282L44.8307 6.10791L47.7646 7.65041Z" fill="#FBB900"/>
<path d="M59.0478 7.65041L61.9816 6.10791L61.4203 9.37282L63.7928 11.6854L60.5135 12.1627L59.0478 15.1326L57.582 12.1627L54.3027 11.6854L56.6752 9.37282L56.1163 6.10791L59.0478 7.65041Z" fill="#FBB900"/>
<path d="M70.3153 7.65041L73.2468 6.10791L72.6879 9.37282L75.0604 11.6854L71.7811 12.1627L70.3153 15.1326L68.8472 12.1627L65.5703 11.6854L67.9428 9.37282L67.3815 6.10791L70.3153 7.65041Z" fill="#FBB900"/>
<path d="M81.5966 7.65041L84.5305 6.10791L83.9691 9.37282L86.3416 11.6854L83.0623 12.1627L81.5966 15.1326L80.1309 12.1627L76.8516 11.6854L79.2241 9.37282L78.6651 6.10791L81.5966 7.65041Z" fill="#FBB900"/>
<path d="M92.8817 7.65041L95.8132 6.10791L95.2543 9.37282L97.6268 11.6854L94.3475 12.1627L92.8817 15.1326L91.416 12.1627L88.1367 11.6854L90.5092 9.37282L89.9479 6.10791L92.8817 7.65041Z" fill="#FBB900"/>
</g>
<defs>
<clipPath id="clip0">
<rect width="103.976" height="112" fill="white"/>
</clipPath>
</defs>
</svg>
