<svg width="205" height="112" viewBox="0 0 205 112" fill="none" xmlns="http://www.w3.org/2000/svg">
<g clip-path="url(#clip0)">
<path d="M107.834 17.041H90.793V0H107.834V17.041ZM92.0218 15.8121H106.602V1.23216H92.0218V15.8121Z" fill="#7C3AA6"/>
<path d="M130.834 17.041H113.793V0H130.834V17.041ZM115.022 15.8121H129.602V1.23216H115.022V15.8121Z" fill="#7C3AA6"/>
<path d="M153.836 17.041H136.795V0H153.836V17.041ZM138.024 15.8121H152.604V1.23216H138.024V15.8121Z" fill="#7C3AA6"/>
<path d="M107.834 38.9275H90.793V21.8865H107.834V38.9275ZM92.0218 37.6986H106.602V23.1154H92.0218V37.6986Z" fill="#7C3AA6"/>
<path d="M130.834 38.9275H113.793V21.8865H130.834V38.9275ZM115.022 37.6986H129.602V23.1154H115.022V37.6986Z" fill="#7C3AA6"/>
<path d="M153.836 38.9275H136.795V21.8865H153.836V38.9275ZM138.024 37.6986H152.604V23.1154H138.024V37.6986Z" fill="#7C3AA6"/>
<path d="M153.25 21.1263C152.745 20.7909 152.068 20.9304 151.732 21.4319L144.619 32.1626L141.493 27.9414C141.135 27.4565 140.45 27.3535 139.966 27.7122C139.477 28.0709 139.378 28.7584 139.736 29.2433L143.788 34.7166C143.994 34.9956 144.323 35.1583 144.668 35.1583C144.678 35.1583 144.688 35.1583 144.695 35.1583C145.05 35.1483 145.382 34.9657 145.578 34.6701L153.556 22.6408C153.891 22.1393 153.752 21.4618 153.25 21.1263Z" fill="#A8D600"/>
<path d="M127.195 47.8913C127.195 47.8913 127.195 39.0703 127.195 36.5063C127.195 33.9424 124.322 32.7102 123.399 34.7627C122.475 36.8152 122.372 38.3529 120.014 37.4296C117.656 36.5063 119.194 33.7265 120.526 33.7332C121.858 33.7398 123.093 33.1221 122.99 31.3784C122.884 29.6348 120.639 29.4289 118.789 30.0467C116.939 30.6644 115.604 33.0224 115.604 33.0224C115.604 33.0224 114.936 32.305 113.81 31.3286C112.681 30.3555 108.732 31.7404 110.632 33.8926C112.528 36.048 114.375 37.6355 114.375 37.6355C114.375 37.6355 113.452 37.6853 111.861 37.7385C110.27 37.7916 109.606 41.6874 112.117 41.6874C114.631 41.6874 118.423 41.6874 118.423 41.6874C118.423 41.6874 118.423 43.8926 118.423 47.0212C118.423 50.1497 123.86 55.6894 125.501 55.6894C127.142 55.6894 127.142 55.6894 127.142 55.6894L127.195 47.8913Z" fill="#DE8C59"/>
<path d="M126.335 42.707L129.321 67.4066C129.321 67.4066 153.556 57.0412 156.794 55.4437C159.633 54.0422 164.838 51.4384 167.262 50.7243C168.461 50.3723 166.385 51.4218 168.116 51.4616C173.34 51.5845 152.46 82.1194 152.46 82.1194H125.017L113.393 72.2588L118.421 41.6841L126.335 42.707Z" fill="#DE8C59"/>
<path d="M113.394 88.1839L89.8802 76.1148L68.6048 93.9063L37.502 96.7691C37.502 96.7691 76.1936 62.1824 79.5514 59.5687C82.9091 56.9549 89.8769 52.4779 99.2094 56.3338C108.542 60.1897 149.346 83.3317 149.346 83.3317L141.259 91.5416L113.394 88.1839Z" fill="#DE8C59"/>
<path d="M182.941 31.9531C182.941 31.9531 188.165 33.5705 189.038 40.163C189.908 46.7555 188.915 46.8817 189.908 48.4992C190.905 50.1166 200.111 54.9688 203.346 66.0416C206.581 77.1144 203.469 83.2088 199.115 85.8225C194.761 88.4363 192.147 86.6927 192.147 86.6927L180.702 59.6052L177.095 55.6862L174.232 45.1381L182.941 31.9531Z" fill="#FF6B00"/>
<path d="M166.497 50.9767L164.378 52.0229L160.709 56.5862C160.709 56.5862 154.076 60.193 152.585 64.6733C151.094 69.1535 152.087 71.5149 152.087 71.5149L140.018 88.1872L135.664 87.4399C135.664 87.4399 81.8937 88.051 76.9684 88.8481C72.0431 89.6452 20.0534 96.7691 20.0534 96.7691C20.0534 96.7691 3.15858 81.5714 1.54117 81.9434C-0.0762407 82.3154 -0.574417 84.059 0.793907 86.9185C2.16223 89.7814 5.9052 95.4307 8.02079 98.6655C10.1364 101.9 11.6276 107.623 14.7395 108.868C17.8481 110.114 150.473 112.196 154.079 111.824C157.686 111.452 164.156 110.828 167.64 106.474C171.124 102.12 185.056 73.0061 185.056 73.0061L168.135 51.8569L166.497 50.9767Z" fill="#F69B62"/>
<path d="M149.35 83.3316C149.35 83.3316 139.208 77.5793 127.879 71.3322L114.365 88.3001L141.267 91.5415L149.35 83.3316Z" fill="#7C3AA6"/>
<path d="M180.453 69.0273L180.921 67.8417L173.12 58.0907C170.536 59.6649 168.018 60.5882 166.474 59.6085C163.452 57.6988 165.209 53.3613 166.501 50.9767L164.388 51.8303L160.712 56.5862C160.712 56.5862 154.079 60.193 152.588 64.6733C151.094 69.1535 152.09 71.5149 152.09 71.5149L140.021 88.1872L135.667 87.4399C135.667 87.4399 124.372 86.1247 113.531 85.2181L114.308 111.425C132.884 112.232 152.243 112.013 154.076 111.824C157.683 111.452 164.153 110.828 167.637 106.474C170.204 103.265 178.44 86.6196 182.602 78.0775L180.453 69.0273Z" fill="#7C3AA6"/>
<path d="M174.481 33.6933C174.481 33.6933 170.874 34.8126 168.632 38.9175C166.673 42.511 167.138 46.3835 170.748 48.4958C174.358 50.6081 182.691 48.2467 183.312 46.5064C183.933 44.7661 187.417 38.5456 183.933 35.0616C180.449 31.5777 174.481 33.6933 174.481 33.6933Z" fill="#F69B62"/>
<path d="M182.939 31.953C182.939 31.953 180.701 27.599 175.6 28.5953C170.498 29.5917 172.365 34.3177 173.733 35.8122C175.101 37.3067 178.459 37.0577 178.459 37.0577L180.947 37.0743C180.947 37.0743 177.091 41.787 180.199 44.1517C183.308 46.5164 182.149 48.5888 182.149 48.5888L187.705 43.9425L186.294 37.1839L182.939 31.953Z" fill="#FF6B00"/>
<path d="M176.1 39.4157L172.244 41.1958V42.707" stroke="#B87449" stroke-miterlimit="10" stroke-linecap="round" stroke-linejoin="round"/>
<path d="M94.2617 3.47067L104.361 13.5704" stroke="#E65300" stroke-width="2" stroke-miterlimit="10" stroke-linecap="round" stroke-linejoin="round"/>
<path d="M104.361 3.47067L94.2617 13.5704" stroke="#E65300" stroke-width="2" stroke-miterlimit="10" stroke-linecap="round" stroke-linejoin="round"/>
<path d="M94.2617 25.3572L104.361 35.4569" stroke="#E65300" stroke-width="2" stroke-miterlimit="10" stroke-linecap="round" stroke-linejoin="round"/>
<path d="M104.361 25.3572L94.2617 35.4569" stroke="#E65300" stroke-width="2" stroke-miterlimit="10" stroke-linecap="round" stroke-linejoin="round"/>
<path d="M117.264 3.47067L127.363 13.5704" stroke="#E65300" stroke-width="2" stroke-miterlimit="10" stroke-linecap="round" stroke-linejoin="round"/>
<path d="M127.363 3.47067L117.264 13.5704" stroke="#E65300" stroke-width="2" stroke-miterlimit="10" stroke-linecap="round" stroke-linejoin="round"/>
<path d="M140.268 3.47067L150.367 13.5704" stroke="#E65300" stroke-width="2" stroke-miterlimit="10" stroke-linecap="round" stroke-linejoin="round"/>
<path d="M150.367 3.47067L140.268 13.5704" stroke="#E65300" stroke-width="2" stroke-miterlimit="10" stroke-linecap="round" stroke-linejoin="round"/>
<path d="M126.488 83.0029C129.453 83.0029 131.858 80.5985 131.858 77.6325C131.858 74.6666 129.453 72.2622 126.488 72.2622C123.522 72.2622 121.117 74.6666 121.117 77.6325C121.117 80.5985 123.522 83.0029 126.488 83.0029Z" fill="#F6C462"/>
<path d="M128.087 97.0447L126.669 78.5092C126.623 77.9148 127.094 77.4066 127.692 77.4066H137.878C138.486 77.4066 138.961 77.9314 138.898 78.5358L137.028 97.0879C136.975 97.6126 136.533 98.0112 136.005 98.0112L129.107 97.9979C128.572 97.9913 128.127 97.5761 128.087 97.0447Z" fill="#4858CC"/>
<path d="M178.088 70.8904L179.015 75.5202C183.824 75.4438 188.633 75.2844 193.439 75.2711C192.632 71.6676 191.825 68.1438 191.277 65.6662C189.782 58.9475 189.536 56.8319 187.295 55.5898C185.056 54.3444 178.46 51.7339 178.46 51.7339L177.713 47.3799L169.128 46.5097V50.1165L166.494 50.9767L175.063 60.5217L178.088 70.8904Z" fill="#F69B62"/>
<path d="M179.184 52.0229C178.155 53.1621 176.72 54.7629 175.474 56.2109C174.591 57.2405 173.379 57.9313 172.568 58.4128L175.066 60.5218L178.088 70.8938L180.403 82.4747L183.063 76.8686C183.063 76.8686 181.695 70.648 180.825 64.4275C180.247 60.3059 182.472 56.2939 184.036 54.0554C182.21 53.2484 180.224 52.438 179.184 52.0229Z" fill="#7C3AA6"/>
<path d="M129.605 94.7432L136.796 71.3355L145.929 67.2472" stroke="#A8D600" stroke-width="2.8346" stroke-miterlimit="10" stroke-linecap="round" stroke-linejoin="round"/>
<path d="M191.276 65.6663C189.781 58.9475 189.536 56.832 187.294 55.5898C186.371 55.0751 184.703 54.3278 183.063 53.6303C182.219 53.9658 181.505 54.3643 181.053 54.8359C178.998 56.9781 177.809 65.6762 177.809 65.6762L181.053 84.8295L192.129 96.9385C195.673 95.1484 196.557 91.5582 196.374 89.5588C196.128 86.8155 192.77 72.385 191.276 65.6663Z" fill="#F69B62"/>
<path d="M193.968 77.6292C189.142 77.6292 184.625 77.3236 179.799 77.4033L180.703 83.9527L134.173 86.1912C134.173 86.1912 126.199 85.7959 126.212 87.1875C126.219 87.9348 127.581 88.433 127.581 88.433C127.581 88.433 125.521 89.1835 125.521 90.0537C125.521 91.5084 127.464 91.5416 127.464 91.5416C127.464 91.5416 125.458 91.96 125.525 92.8302C125.631 94.2018 127.249 94.2716 127.249 94.2716C127.249 94.2716 125.877 94.4144 126.093 95.6798C126.319 96.9883 129.231 96.7658 129.231 96.7658C129.231 96.7658 179.212 98.0112 187.05 98.0112C194.888 98.0112 196.628 92.2888 196.379 89.5522C196.243 88.0477 195.16 82.9896 193.968 77.6292Z" fill="#F69B62"/>
</g>
<defs>
<clipPath id="clip0">
<rect width="204.684" height="112" fill="white"/>
</clipPath>
</defs>
</svg>
