<svg width="32" height="32" viewBox="0 0 32 32" fill="none" xmlns="http://www.w3.org/2000/svg">
<path d="M18.5 32H12.5C11.95 32 11.5 31.55 11.5 31V20H8C7.45 20 7 19.55 7 19V13C7 12.45 7.45 12 8 12H11.5V8.5C11.5 3.81 15.31 0 20 0H24.5C25.05 0 25.5 0.45 25.5 1V7C25.5 7.55 25.05 8 24.5 8H20C19.72 8 19.5 8.22 19.5 8.5V12H24.5C24.81 12 25.1 12.14 25.29 12.38C25.48 12.62 25.55 12.94 25.47 13.24L23.97 19.24C23.86 19.69 23.46 20 23 20H19.5V31C19.5 31.55 19.05 32 18.5 32ZM13.5 30H17.5V19C17.5 18.45 17.95 18 18.5 18H22.22L23.22 14H18.5C17.95 14 17.5 13.55 17.5 13V8.5C17.5 7.12 18.62 6 20 6H23.5V2H20C16.42 2 13.5 4.92 13.5 8.5V13C13.5 13.55 13.05 14 12.5 14H9V18H12.5C13.05 18 13.5 18.45 13.5 19V30Z" fill="white"/>
</svg>
