<svg width="32" height="32" viewBox="0 0 32 32" fill="none" xmlns="http://www.w3.org/2000/svg">
<path d="M23.5 32H8.5C3.81 32 0 28.19 0 23.5V8.5C0 3.81 3.81 0 8.5 0H23.5C28.19 0 32 3.81 32 8.5V23.5C32 28.19 28.19 32 23.5 32ZM8.5 2C4.92 2 2 4.92 2 8.5V23.5C2 27.08 4.92 30 8.5 30H23.5C27.08 30 30 27.08 30 23.5V8.5C30 4.92 27.08 2 23.5 2H8.5Z" fill="white"/>
<path d="M16.05 22.9405C14.56 22.9405 13.11 22.4705 11.9 21.5605C10.4 20.4505 9.41998 18.8105 9.14998 16.9605C8.57998 13.1405 11.23 9.58055 15.05 9.01055C15.73 8.91055 16.42 8.91055 17.1 9.01055C20.17 9.47055 22.54 11.8405 23 14.9105C23.27 16.7605 22.81 18.6005 21.7 20.1105C20.59 21.6205 18.95 22.5905 17.1 22.8605C16.74 22.9105 16.4 22.9405 16.05 22.9405ZM16.07 10.9405C15.82 10.9405 15.58 10.9605 15.34 10.9905C12.61 11.3905 10.72 13.9405 11.13 16.6705C11.33 17.9905 12.02 19.1605 13.1 19.9505C14.17 20.7405 15.49 21.0805 16.81 20.8805C18.13 20.6805 19.3 19.9905 20.09 18.9105C20.89 17.8405 21.22 16.5205 21.02 15.2005C20.69 13.0105 19 11.3105 16.81 10.9905C16.56 10.9605 16.31 10.9405 16.07 10.9405Z" fill="white"/>
<path d="M24.27 8.75C23.72 8.75 23.26 8.3 23.26 7.75C23.26 7.2 23.7 6.75 24.25 6.75H24.27C24.82 6.75 25.27 7.2 25.27 7.75C25.27 8.3 24.82 8.75 24.27 8.75Z" fill="white"/>
</svg>
