<svg width="52" height="52" viewBox="0 0 52 52" xmlns="http://www.w3.org/2000/svg">
    <circle cx="26" cy="26" r="26" />
    <path d="M35 33V34H17V33L19 31V25C19 21.9 21.03 19.17 24 18.29V18C24 17.4696 24.2107 16.9609 24.5858 16.5858C24.9609 16.2107 25.4696 16 26 16C26.5305 16 27.0392 16.2107 27.4142 16.5858C27.7893 16.9609 28 17.4696 28 18V18.29C30.97 19.17 33 21.9 33 25V31L35 33ZM28 35C28 35.5304 27.7893 36.0391 27.4142 36.4142C27.0392 36.7893 26.5305 37 26 37C25.4696 37 24.9609 36.7893 24.5858 36.4142C24.2107 36.0391 24 35.5304 24 35H28ZM33.75 17.19L32.33 18.61C33.1758 19.4454 33.8473 20.4404 34.3056 21.5373C34.764 22.6342 35 23.8112 35 25H37C37 22.07 35.84 19.25 33.75 17.19ZM15 25H17C17 22.6 17.96 20.3 19.67 18.61L18.25 17.19C17.2179 18.2116 16.3991 19.4281 15.8412 20.7688C15.2832 22.1096 14.9973 23.5478 15 25Z" fill="white"/>
</svg>
