<svg width="14" height="8" viewBox="0 0 14 8" xmlns="http://www.w3.org/2000/svg">
<path d="M12.5894 1.40884L9.90138 3.00884V2.72884C9.90138 2.12839 9.66285 1.55254 9.23827 1.12795C8.81369 0.703372 8.23783 0.464844 7.63738 0.464844H2.59738C1.99693 0.464844 1.42107 0.703372 0.996484 1.12795C0.571902 1.55254 0.333374 2.12839 0.333374 2.72884V5.36084C0.333374 5.96129 0.571902 6.53715 0.996484 6.96173C1.42107 7.38631 1.99693 7.62484 2.59738 7.62484H7.63738C8.23783 7.62484 8.81369 7.38631 9.23827 6.96173C9.66285 6.53715 9.90138 5.96129 9.90138 5.36084V5.20084L12.5894 6.80084C12.9094 6.99284 13.1734 6.84084 13.1734 6.46484V1.73684C13.1734 1.36884 12.9094 1.20084 12.5894 1.40884ZM8.30138 5.35284C8.2993 5.5283 8.22868 5.69599 8.1046 5.82007C7.98053 5.94414 7.81284 6.01477 7.63738 6.01684H2.59738C2.42192 6.01477 2.25423 5.94414 2.13015 5.82007C2.00607 5.69599 1.93545 5.5283 1.93337 5.35284V2.72084C1.93545 2.54538 2.00607 2.3777 2.13015 2.25363C2.25423 2.12955 2.42192 2.05892 2.59738 2.05685H7.63738C7.81284 2.05892 7.98053 2.12955 8.1046 2.25363C8.22868 2.3777 8.2993 2.54538 8.30138 2.72084V5.35284Z" />
</svg>
