<svg width="64" height="64" viewBox="0 0 64 64" fill="none" xmlns="http://www.w3.org/2000/svg">
<path d="M30.7736 63.5709C38.9329 63.5709 45.5473 62.7716 45.5473 61.7855C45.5473 60.7994 38.9329 60 30.7736 60C22.6144 60 16 60.7994 16 61.7855C16 62.7716 22.6144 63.5709 30.7736 63.5709Z" fill="#E5E5E5"/>
<g clip-path="url(#clip0)">
<path d="M8.40005 9.12109C8.17005 9.42109 7.94005 9.72109 7.72005 10.0211C7.27005 10.6311 6.82005 11.2311 6.30005 11.7811L14.34 37.7611L41.6101 26.6711L8.40005 9.12109Z" fill="#D1BAE0"/>
<path d="M30.63 53.1589C39.1297 53.1589 46.02 46.2686 46.02 37.7689C46.02 29.2692 39.1297 22.3789 30.63 22.3789C22.1303 22.3789 15.24 29.2692 15.24 37.7689C15.24 46.2686 22.1303 53.1589 30.63 53.1589Z" fill="white"/>
<path d="M30.6301 54.0687C21.6401 54.0687 14.3301 46.7587 14.3301 37.7687C14.3301 28.7787 21.6401 21.4688 30.6301 21.4688C39.6201 21.4688 46.9301 28.7787 46.9301 37.7687C46.9301 46.7587 39.6201 54.0687 30.6301 54.0687ZM30.6301 23.2887C22.6501 23.2887 16.1501 29.7887 16.1501 37.7687C16.1501 45.7487 22.6501 52.2487 30.6301 52.2487C38.6101 52.2487 45.1101 45.7487 45.1101 37.7687C45.1101 29.7887 38.6101 23.2887 30.6301 23.2887Z" fill="#7C3AA6"/>
<path d="M30.91 35.7578C29.3 35.7578 27.99 37.0378 27.99 38.6178C27.99 40.1878 29.3 41.4778 30.91 41.4778C32.52 41.4778 33.83 40.1978 33.83 38.6178C33.83 37.0378 32.52 35.7578 30.91 35.7578ZM30.91 39.5678C30.34 39.5678 29.88 39.1378 29.88 38.6078C29.88 38.0778 30.34 37.6478 30.91 37.6478C31.48 37.6478 31.94 38.0778 31.94 38.6078C31.94 39.1378 31.48 39.5678 30.91 39.5678Z" fill="#7C3AA6"/>
<path d="M38.7701 34.0983C38.4001 33.7283 37.8 33.7283 37.43 34.0983L36.48 35.0483C35.23 33.8983 33.6201 33.1483 31.8601 32.9483V31.4383C31.8601 30.9183 31.44 30.4883 30.91 30.4883C30.38 30.4883 29.96 30.9083 29.96 31.4383V32.9483C28.16 33.1483 26.52 33.9383 25.26 35.1283L24.23 34.0983C23.86 33.7283 23.26 33.7283 22.89 34.0983C22.52 34.4683 22.52 35.0683 22.89 35.4383L24.0401 36.5883C23.8401 36.9083 23.65 37.2383 23.5 37.5883C23.22 38.2083 23.22 38.9383 23.5 39.5683C24.77 42.4283 27.68 44.2783 30.91 44.2783C34.13 44.2783 37.04 42.4283 38.32 39.5683C38.6 38.9383 38.6001 38.2083 38.3101 37.5683C38.1401 37.1883 37.94 36.8283 37.71 36.4883L38.76 35.4383C39.14 35.0683 39.1401 34.4683 38.7701 34.0983ZM36.6 38.7983C35.63 40.9783 33.4 42.3883 30.92 42.3883C28.44 42.3883 26.21 40.9783 25.24 38.7983C25.18 38.6583 25.18 38.4983 25.24 38.3583C26.21 36.1783 28.44 34.7683 30.91 34.7683H30.92C33.39 34.7683 35.62 36.1783 36.59 38.3583C36.66 38.4983 36.6601 38.6583 36.6 38.7983Z" fill="#7C3AA6"/>
<path d="M7.76 12.52C8.73202 12.52 9.52 11.732 9.52 10.76C9.52 9.78798 8.73202 9 7.76 9C6.78798 9 6 9.78798 6 10.76C6 11.732 6.78798 12.52 7.76 12.52Z" fill="#7C3AA6"/>
</g>
<defs>
<clipPath id="clip0">
<rect width="40.93" height="45.07" fill="white" transform="translate(6 9)"/>
</clipPath>
</defs>
</svg>
