<svg width="64" height="64" viewBox="0 0 64 64" fill="none" xmlns="http://www.w3.org/2000/svg">
<path d="M32.2282 59.2936C40.3875 59.2936 47.0019 58.4942 47.0019 57.5081C47.0019 56.522 40.3875 55.7227 32.2282 55.7227C24.069 55.7227 17.4546 56.522 17.4546 57.5081C17.4546 58.4942 24.069 59.2936 32.2282 59.2936Z" fill="#E5E5E5"/>
<g clip-path="url(#clip0)">
<path d="M14.61 40.0598L6.75 15.5898H20.45V40.0598H14.61Z" fill="#D2BCE1"/>
<path d="M20.4498 40.8081H14.6098C14.2798 40.8081 13.9998 40.5981 13.8998 40.2881L6.0398 15.8181C5.9598 15.5881 5.9998 15.3381 6.1398 15.1381C6.2798 14.9481 6.5098 14.8281 6.7498 14.8281H20.4498C20.8598 14.8281 21.1998 15.1681 21.1998 15.5781V40.0481C21.1998 40.4681 20.8598 40.8081 20.4498 40.8081ZM15.1598 39.3081H19.6998V16.3381H7.7798L15.1598 39.3081Z" fill="#7C3AA6"/>
<path d="M37.0599 10.75C27.8799 10.75 20.4399 18.19 20.4399 27.37C20.4399 36.55 27.8799 43.99 37.0599 43.99C46.2399 43.99 53.6799 36.55 53.6799 27.37C53.6799 18.19 46.2399 10.75 37.0599 10.75ZM37.0599 33.53C33.6499 33.53 30.8899 30.77 30.8899 27.36C30.8899 23.95 33.6499 21.19 37.0599 21.19C40.4699 21.19 43.2299 23.95 43.2299 27.36C43.2299 30.77 40.4699 33.53 37.0599 33.53Z" fill="#D2BCE1"/>
<path d="M37.0599 44.73C27.4799 44.73 19.6899 36.94 19.6899 27.36C19.6999 17.79 27.4899 10 37.0599 10C46.6299 10 54.4299 17.79 54.4299 27.37C54.4299 36.94 46.6399 44.73 37.0599 44.73ZM37.0599 11.5C28.3099 11.5 21.1899 18.62 21.1899 27.37C21.1899 36.12 28.3099 43.24 37.0599 43.24C45.8099 43.24 52.9299 36.12 52.9299 27.37C52.9299 18.62 45.8099 11.5 37.0599 11.5ZM37.0599 34.28C33.2499 34.28 30.1399 31.18 30.1399 27.36C30.1399 23.54 33.2399 20.44 37.0599 20.44C40.8699 20.44 43.9799 23.54 43.9799 27.36C43.9799 31.18 40.8699 34.28 37.0599 34.28ZM37.0599 21.95C34.0699 21.95 31.6399 24.38 31.6399 27.37C31.6399 30.36 34.0699 32.79 37.0599 32.79C40.0499 32.79 42.4799 30.36 42.4799 27.37C42.4799 24.38 40.0499 21.95 37.0599 21.95Z" fill="#7C3AA6"/>
</g>
<defs>
<clipPath id="clip0">
<rect width="48.43" height="34.73" fill="white" transform="translate(6 10)"/>
</clipPath>
</defs>
</svg>
