<svg width="36" height="36" viewBox="0 0 36 36" xmlns="http://www.w3.org/2000/svg">
<path d="M25.4625 27.2444C25.2256 27.2458 24.9908 27.2004 24.7715 27.1108C24.5522 27.0213 24.3527 26.8893 24.1845 26.7225L9.58649 12.1065C9.41866 11.9386 9.28553 11.7394 9.19471 11.5201C9.10388 11.3008 9.05713 11.0658 9.05713 10.8284C9.05713 10.5911 9.10388 10.3561 9.19471 10.1368C9.28553 9.91752 9.41866 9.71829 9.58649 9.55046C9.75432 9.38263 9.95357 9.24949 10.1728 9.15866C10.3921 9.06784 10.6271 9.02109 10.8645 9.02109C11.1018 9.02109 11.3369 9.06784 11.5561 9.15866C11.7754 9.24949 11.9747 9.38263 12.1425 9.55046L26.8125 24.1844C27.1477 24.5217 27.3359 24.9779 27.3359 25.4534C27.3359 25.929 27.1477 26.3852 26.8125 26.7225C26.6358 26.8982 26.4246 27.0353 26.1923 27.1251C25.9599 27.215 25.7114 27.2556 25.4625 27.2444Z" />
<path d="M10.7925 27.2804C10.4365 27.2789 10.0889 27.1719 9.79374 26.9729C9.49857 26.7739 9.26904 26.4918 9.13417 26.1624C8.99931 25.8329 8.96516 25.4709 9.03605 25.122C9.10695 24.7731 9.2797 24.4531 9.53246 24.2024L24.1484 9.53242C24.3158 9.36371 24.5149 9.22981 24.7342 9.13843C24.9536 9.04704 25.1888 9 25.4265 9C25.6641 9 25.8993 9.04704 26.1187 9.13843C26.338 9.22981 26.5371 9.36371 26.7045 9.53242C27.0397 9.86968 27.2279 10.3259 27.2279 10.8014C27.2279 11.277 27.0397 11.7332 26.7045 12.0704L12.0704 26.7584C11.9023 26.9253 11.7028 27.0573 11.4835 27.1468C11.2642 27.2364 11.0293 27.2818 10.7925 27.2804V27.2804Z" />
</svg>
