<svg width="24" height="24" viewBox="0 0 24 24"  >
<path d="M17.4329 11.334C18.2985 10.468 18.7861 9.29448 18.7889 8.07001C18.7889 6.16201 18.7889 2.59801 14.1809 2.51401C13.1707 2.4301 12.1654 2.72527 11.3609 3.34201C11.9022 3.39455 12.4257 3.56327 12.8958 3.83663C13.3659 4.11 13.7715 4.48159 14.0849 4.92602H14.1689C16.0409 4.92602 16.3889 5.47801 16.3889 8.08201C16.3824 8.66971 16.1505 9.23249 15.7409 9.65402C15.4509 9.94432 15.2401 10.3041 15.1288 10.6991C15.0174 11.0941 15.0092 11.511 15.1049 11.91C15.201 12.3072 15.3969 12.6734 15.6741 12.9737C15.9513 13.274 16.3006 13.4985 16.6889 13.626C17.471 13.8261 18.19 14.2202 18.7794 14.7718C19.3688 15.3235 19.8096 16.0148 20.0609 16.782H18.5129C18.9108 17.5243 19.1479 18.342 19.2089 19.182H20.6489C21.09 19.1788 21.5155 19.0189 21.8496 18.731C22.1837 18.4431 22.4046 18.0458 22.4729 17.61V17.31C22.4785 17.2461 22.4785 17.1819 22.4729 17.118C22.3057 15.7611 21.7364 14.4853 20.8383 13.4545C19.9401 12.4238 18.7542 11.6853 17.4329 11.334V11.334Z"  />
<path d="M12.6809 13.134C13.1133 12.7074 13.4569 12.1992 13.6917 11.639C13.9265 11.0787 14.0479 10.4775 14.0489 9.87002C14.0489 7.95002 14.0489 4.39801 9.38093 4.31401C4.71293 4.23001 4.70094 7.91402 4.70094 9.87002C4.70194 10.4775 4.82337 11.0787 5.05818 11.639C5.29299 12.1992 5.63652 12.7074 6.06894 13.134C3.03294 14.118 1.00494 16.482 1.00494 19.194V19.35C0.998354 19.4179 0.998354 19.4862 1.00494 19.554C1.10449 19.959 1.33728 20.3188 1.66589 20.5756C1.99451 20.8324 2.3999 20.9713 2.81695 20.97H15.9089C16.3521 20.9653 16.7797 20.8055 17.1173 20.5183C17.4549 20.2311 17.6812 19.8347 17.7569 19.398V19.086C17.763 19.0222 17.763 18.9579 17.7569 18.894C17.6849 16.326 15.6329 14.034 12.6809 13.134ZM3.46494 18.57C3.70045 17.8016 4.13184 17.1076 4.71674 16.5564C5.30164 16.0052 6.0199 15.6156 6.80094 15.426C7.19268 15.3 7.54545 15.0754 7.82536 14.7738C8.10527 14.4721 8.30292 14.1036 8.39932 13.7035C8.49572 13.3035 8.48762 12.8853 8.37583 12.4893C8.26404 12.0933 8.0523 11.7326 7.76094 11.442C7.3427 11.0252 7.10556 10.4604 7.10094 9.87002C7.10094 7.18202 7.66494 6.72601 9.36894 6.71401C11.3729 6.71401 11.6489 7.38602 11.6489 9.87002C11.6438 10.4568 11.4065 11.0177 10.9889 11.43C10.6947 11.7204 10.4804 12.0819 10.3669 12.4794C10.2534 12.8769 10.2445 13.297 10.341 13.699C10.4376 14.101 10.6364 14.4712 10.9181 14.7738C11.1998 15.0763 11.5549 15.301 11.9489 15.426C12.7385 15.6178 13.4665 16.0068 14.0646 16.5567C14.6628 17.1066 15.1116 17.7993 15.3689 18.57H3.46494Z"  />
</svg>
