<svg width="52" height="52" viewBox="0 0 52 52" fill="none" xmlns="http://www.w3.org/2000/svg">
<circle cx="26" cy="26" r="26" fill="white"/>
<path d="M39.576 20.174L33.528 23.774V23.144C33.528 21.793 32.9913 20.4973 32.036 19.542C31.0807 18.5867 29.785 18.05 28.434 18.05H17.094C15.743 18.05 14.4473 18.5867 13.492 19.542C12.5367 20.4973 12 21.793 12 23.144V29.066C12 30.417 12.5367 31.7127 13.492 32.668C14.4473 33.6233 15.743 34.16 17.094 34.16H28.434C29.785 34.16 31.0807 33.6233 32.036 32.668C32.9913 31.7127 33.528 30.417 33.528 29.066V28.706L39.576 32.306C40.296 32.738 40.89 32.396 40.89 31.55V20.912C40.89 20.084 40.296 19.706 39.576 20.174ZM29.928 29.048C29.9233 29.4428 29.7644 29.8201 29.4853 30.0992C29.2061 30.3784 28.8288 30.5373 28.434 30.542H17.094C16.6992 30.5373 16.3219 30.3784 16.0427 30.0992C15.7636 29.8201 15.6047 29.4428 15.6 29.048V23.126C15.6047 22.7312 15.7636 22.3539 16.0427 22.0747C16.3219 21.7956 16.6992 21.6367 17.094 21.632H28.434C28.8288 21.6367 29.2061 21.7956 29.4853 22.0747C29.7644 22.3539 29.9233 22.7312 29.928 23.126V29.048Z" fill="#4858CC"/>
<rect x="43.2843" y="6.39999" width="2" height="52" transform="rotate(45 43.2843 6.39999)" fill="#FF6B00"/>
</svg>
