<svg width="24" height="24" viewBox="0 0 24 24" fill="none" xmlns="http://www.w3.org/2000/svg">
<path d="M11.9919 18.0034V20" stroke="white" stroke-width="1.5" stroke-linecap="round" stroke-linejoin="round"/>
<path d="M17.7832 11.465C17.8181 12.2404 17.6956 13.0148 17.423 13.7415C17.1504 14.4682 16.7333 15.1322 16.197 15.6933C15.6607 16.2543 15.0162 16.7009 14.3025 17.006C13.5888 17.3111 12.8207 17.4684 12.0445 17.4684C11.2683 17.4684 10.5002 17.3111 9.78648 17.006C9.07278 16.7009 8.42831 16.2543 7.89198 15.6933C7.35565 15.1322 6.93859 14.4682 6.66597 13.7415C6.39336 13.0148 6.27084 12.2404 6.30583 11.465" stroke="white" stroke-width="1.5" stroke-linecap="round" stroke-linejoin="round"/>
<path d="M12.062 3H11.9336C10.4698 3 9.28314 4.18663 9.28314 5.65041V11.1964C9.28314 12.6602 10.4698 13.8468 11.9336 13.8468H12.062C13.5258 13.8468 14.7124 12.6602 14.7124 11.1964V5.65041C14.7124 4.18663 13.5258 3 12.062 3Z" stroke="white" stroke-width="1.5" stroke-linecap="round" stroke-linejoin="round"/>
<line x1="4" y1="19.91" x2="19.9099" y2="4.00014" stroke="white" stroke-width="1.5" stroke-linecap="round" stroke-linejoin="round"/>
</svg>
