<svg width="44" height="44" viewBox="0 0 44 44" fill="none" xmlns="http://www.w3.org/2000/svg">
<circle cx="22" cy="22" r="22" fill="white"/>
<path d="M33.4876 17.0703L28.3701 20.1164V19.5834C28.3701 18.4402 27.9159 17.3439 27.1076 16.5355C26.2993 15.7272 25.2029 15.2731 24.0598 15.2731H14.4644C13.3212 15.2731 12.2249 15.7272 11.4165 16.5355C10.6082 17.3439 10.1541 18.4402 10.1541 19.5834V24.5943C10.1541 25.7375 10.6082 26.8338 11.4165 27.6421C12.2249 28.4505 13.3212 28.9046 14.4644 28.9046H24.0598C25.2029 28.9046 26.2993 28.4505 27.1076 27.6421C27.9159 26.8338 28.3701 25.7375 28.3701 24.5943V24.2897L33.4876 27.3358C34.0968 27.7014 34.5994 27.412 34.5994 26.6961V17.6948C34.5994 16.9941 34.0968 16.6743 33.4876 17.0703ZM25.3239 24.5791C25.32 24.9131 25.1855 25.2324 24.9493 25.4686C24.7131 25.7048 24.3938 25.8393 24.0598 25.8432H14.4644C14.1303 25.8393 13.8111 25.7048 13.5748 25.4686C13.3386 25.2324 13.2042 24.9131 13.2002 24.5791V19.5681C13.2042 19.2341 13.3386 18.9149 13.5748 18.6786C13.8111 18.4424 14.1303 18.308 14.4644 18.304H24.0598C24.3938 18.308 24.7131 18.4424 24.9493 18.6786C25.1855 18.9149 25.32 19.2341 25.3239 19.5681V24.5791Z" fill="#424242"/>
<rect x="36.6252" y="5.41541" width="1.69231" height="44" transform="rotate(45 36.6252 5.41541)" fill="#FF6B00"/>
</svg>
