<svg width="52" height="52" viewBox="0 0 52 52" fill="none" xmlns="http://www.w3.org/2000/svg">
<circle cx="26" cy="26" r="26" fill="white"/>
<path d="M35.3276 15.05H16.6525C15.1515 15.0553 13.7138 15.6552 12.6543 16.7185C11.5949 17.7817 11 19.2215 11 20.7224V31.3283C11 32.8274 11.5955 34.2651 12.6556 35.3252C13.7156 36.3852 15.1533 36.9807 16.6525 36.9807H35.3276C36.8285 36.9808 38.2683 36.3859 39.3315 35.3264C40.3948 34.2669 40.9947 32.8292 41 31.3283V20.7224C40.9947 19.2196 40.3954 17.7799 39.3328 16.7172C38.2701 15.6546 36.8304 15.0553 35.3276 15.05ZM37.0053 31.3283C37.0001 31.7698 36.821 32.1914 36.5069 32.5018C36.1928 32.8121 35.7691 32.9861 35.3276 32.9861H16.6525C16.2144 32.9809 15.7957 32.8046 15.486 32.4948C15.1762 32.185 14.9999 31.7663 14.9947 31.3283V20.7224C14.9946 20.2809 15.1687 19.8571 15.479 19.5431C15.7893 19.229 16.211 19.0499 16.6525 19.0447H35.3276C35.7709 19.0498 36.1947 19.2283 36.5082 19.5418C36.8217 19.8553 37.0001 20.2791 37.0053 20.7224V31.3283Z" fill="#4858CC"/>
<path d="M23.9028 25.1964L17.6312 22.1804" stroke="#00B3AF" stroke-linecap="round" stroke-linejoin="round"/>
<path d="M22.8442 21.3815L24.2224 25.1765L20.4074 26.5546" stroke="#4858CC" stroke-linecap="round" stroke-linejoin="round"/>
<path d="M23.8429 24.9967L17.5513 21.9807" stroke="#4858CC" stroke-linecap="round" stroke-linejoin="round"/>
<path d="M29.1558 30.6492L27.7776 26.8542L31.5925 25.4761" stroke="#4858CC" stroke-linecap="round" stroke-linejoin="round"/>
<path d="M28.1571 27.034L34.4287 30.05" stroke="#4858CC" stroke-linecap="round" stroke-linejoin="round"/>
</svg>
