<svg width="52" height="52" viewBox="0 0 52 52" fill="none" xmlns="http://www.w3.org/2000/svg">
<circle cx="26" cy="26" r="26" fill="white"/>
<path d="M25.92 34.91V37.55" stroke="#4858CC" stroke-width="2.4" stroke-linecap="round" stroke-linejoin="round"/>
<path d="M33.54 26.27C33.54 28.2909 32.7372 30.2291 31.3081 31.6581C29.8791 33.0872 27.9409 33.89 25.92 33.89C23.899 33.89 21.9609 33.0872 20.5318 31.6581C19.1028 30.2291 18.3 28.2909 18.3 26.27" stroke="#4858CC" stroke-width="2.6" stroke-linecap="round" stroke-linejoin="round"/>
<path d="M26.01 15H25.83C23.8915 15 22.32 16.5715 22.32 18.51V25.89C22.32 27.8285 23.8915 29.4 25.83 29.4H26.01C27.9485 29.4 29.52 27.8285 29.52 25.89V18.51C29.52 16.5715 27.9485 15 26.01 15Z" stroke="#4858CC" stroke-width="2.6" stroke-linecap="round" stroke-linejoin="round"/>
<rect x="43.2843" y="6.39999" width="2" height="52" transform="rotate(45 43.2843 6.39999)" fill="#FF6B00"/>
</svg>
