<svg width="18" height="20" viewBox="0 0 18 20" fill="none" xmlns="http://www.w3.org/2000/svg">
    <path d="M8.9917 16.0039V18.0005" stroke="#4858CC" stroke-width="1.5" stroke-linecap="round" stroke-linejoin="round"/>
    <path d="M14.783 9.46484C14.818 10.2402 14.6954 11.0147 14.4228 11.7414C14.1502 12.4681 13.7331 13.1321 13.1968 13.6931C12.6605 14.2542 12.016 14.7008 11.3023 15.0059C10.5886 15.311 9.82048 15.4683 9.04431 15.4683C8.26813 15.4683 7.5 15.311 6.7863 15.0059C6.0726 14.7008 5.42813 14.2542 4.8918 13.6931C4.35547 13.1321 3.93841 12.4681 3.66579 11.7414C3.39317 11.0147 3.27066 10.2402 3.30564 9.46484" stroke="#4858CC" stroke-width="1.5" stroke-linecap="round" stroke-linejoin="round"/>
    <path d="M9.06204 1H8.93361C7.46983 1 6.2832 2.18663 6.2832 3.65041V9.19642C6.2832 10.6602 7.46983 11.8468 8.93361 11.8468H9.06204C10.5258 11.8468 11.7125 10.6602 11.7125 9.19642V3.65041C11.7125 2.18663 10.5258 1 9.06204 1Z" stroke="#4858CC" stroke-width="1.5" stroke-linecap="round" stroke-linejoin="round"/>
    <line x1="0.646447" y1="19.6171" x2="17.617" y2="2.64659" stroke="#FF6B00"/>
</svg>
