<svg width="11" height="12" viewBox="0 0 11 12" xmlns="http://www.w3.org/2000/svg">
<path d="M9.33862 4.52397L6.44263 1.46797C5.91868 0.985566 5.24199 0.702434 4.53063 0.667969H1.80263C1.50199 0.670064 1.21426 0.790426 1.00167 1.00302C0.78908 1.2156 0.668721 1.50333 0.666626 1.80397V10.26C0.668721 10.5606 0.78908 10.8483 1.00167 11.0609C1.21426 11.2735 1.50199 11.3939 1.80263 11.396H9.00263C9.30326 11.3939 9.59099 11.2735 9.80358 11.0609C10.0162 10.8483 10.1365 10.5606 10.1386 10.26V6.44397C10.0868 5.73426 9.80603 5.06054 9.33862 4.52397ZM6.18663 3.52397L7.53862 4.94797H6.18663V3.52397ZM2.26663 9.77197V2.24397H4.53063H4.58663V6.53197H8.51463V9.73197L2.26663 9.77197Z" />
</svg>
