<svg width="24" height="24" viewBox="0 0 24 24" fill="none" xmlns="http://www.w3.org/2000/svg">
<path d="M12 6C11.6318 6 11.3333 6.29848 11.3333 6.66667L11.3333 15.4467L9.41033 13.529C9.15047 13.2699 8.72983 13.2702 8.47033 13.5297C8.21057 13.7894 8.21057 14.2106 8.47033 14.4703L11.2929 17.2929C11.6834 17.6834 12.3166 17.6834 12.7071 17.2929L15.5297 14.4703C15.7894 14.2106 15.7894 13.7894 15.5297 13.5297C15.2702 13.2702 14.8495 13.2699 14.5897 13.529L12.6667 15.4467L12.6667 6.66667C12.6667 6.29848 12.3682 6 12 6Z" fill="#9AA0A6"/>
<rect x="0.75" y="0.75" width="22.5" height="22.5" rx="11.25" stroke="#9AA0A6" stroke-width="1.5"/>
</svg>
