<svg width="16" height="16" viewBox="0 0 16 16" xmlns="http://www.w3.org/2000/svg">
<path d="M15.2063 3.81096L11.7623 0.35495C11.6507 0.242476 11.518 0.153208 11.3718 0.0922852C11.2255 0.0313627 11.0687 0 10.9103 0C10.7518 0 10.595 0.0313627 10.4488 0.0922852C10.3025 0.153208 10.1698 0.242476 10.0583 0.35495L1.55026 8.87496C1.40295 9.03088 1.29587 9.22035 1.23826 9.42697L0.038264 14.047C-0.00843736 14.2274 -0.012448 14.4163 0.0265544 14.5986C0.0655567 14.7809 0.146493 14.9516 0.262953 15.0972C0.379412 15.2428 0.528187 15.3592 0.69748 15.4373C0.866773 15.5153 1.05193 15.5529 1.23826 15.547C1.33792 15.5587 1.43861 15.5587 1.53826 15.547L5.78626 14.431C5.95095 14.4439 6.11644 14.4193 6.27026 14.359C6.42407 14.2987 6.56221 14.2044 6.67426 14.083L15.1823 5.57496C15.4084 5.3534 15.5378 5.05148 15.5423 4.73496C15.5547 4.56595 15.5312 4.39623 15.4732 4.23697C15.4153 4.07771 15.3243 3.93251 15.2063 3.81096ZM5.29426 12.031H5.13826L2.88226 12.631L3.48226 10.303L10.9103 2.87496L12.6623 4.63896L5.29426 12.031Z" />
</svg>
