<svg width="40" height="40" viewBox="0 0 40 40" fill="none" xmlns="http://www.w3.org/2000/svg">
<circle cx="20" cy="20" r="20" fill="white"/>
<path d="M27.2153 11.5769H12.8153C11.6724 11.5808 10.5764 12.0323 9.76253 12.8347C8.94863 13.6371 8.48154 14.7265 8.46143 15.8692V24.0385C8.46545 25.1934 8.92496 26.3 9.74016 27.1181C10.5554 27.9362 11.6604 28.3996 12.8153 28.4077H27.2153C28.3555 28.3958 29.4458 27.9386 30.2535 27.1337C31.0613 26.3289 31.5224 25.2401 31.5383 24.1V15.8692C31.5223 14.7305 31.0607 13.6434 30.2526 12.8411C29.4444 12.0387 28.3541 11.5849 27.2153 11.5769ZM28.4614 24.1C28.4575 24.4389 28.3222 24.763 28.084 25.0041C27.8458 25.2452 27.5233 25.3843 27.1845 25.3923H12.8153C12.4765 25.3843 12.154 25.2452 11.9158 25.0041C11.6776 24.763 11.5422 24.4389 11.5383 24.1V15.8692C11.5423 15.5318 11.6782 15.2093 11.9168 14.9707C12.1554 14.7321 12.4779 14.5963 12.8153 14.5923H27.2153C27.5473 14.6041 27.862 14.7434 28.0941 14.9812C28.3261 15.219 28.4577 15.537 28.4614 15.8692V24.1Z" fill="#424242"/>
<path d="M25.2922 19.7923L26.4768 22.6538L23.5845 23.8538" stroke="#424242" stroke-linecap="round" stroke-linejoin="round"/>
<path d="M14.754 20.2538L13.5693 17.3769L16.4463 16.1923" stroke="#424242" stroke-linecap="round" stroke-linejoin="round"/>
<path d="M26.2616 22.5308L13.8154 17.5" stroke="#424242" stroke-linecap="round" stroke-linejoin="round"/>
</svg>
