<svg width="52" height="52" viewBox="0 0 52 52" fill="none" xmlns="http://www.w3.org/2000/svg">
<circle cx="26" cy="26" r="26" fill="white"/>
<path d="M35.38 15.05H16.66C15.1742 15.055 13.7495 15.642 12.6914 16.6851C11.6334 17.7282 11.0262 19.1444 11 20.63L11 31.25C11.0052 32.7514 11.6026 34.19 12.6624 35.2535C13.7221 36.317 15.1587 36.9195 16.66 36.93H35.38C36.8623 36.9145 38.2797 36.3201 39.3298 35.2738C40.3798 34.2275 40.9792 32.8122 41 31.33V20.63C40.9791 19.1497 40.379 17.7365 39.3285 16.6934C38.2779 15.6503 36.8604 15.0603 35.38 15.05ZM37 31.33C36.9949 31.7705 36.819 32.1919 36.5094 32.5053C36.1997 32.8187 35.7805 32.9996 35.34 33.01H16.66C16.2195 32.9996 15.8003 32.8187 15.4906 32.5053C15.181 32.1919 15.0051 31.7705 15 31.33V20.63C15.0052 20.1913 15.1818 19.7721 15.4919 19.4619C15.8021 19.1517 16.2214 18.9752 16.66 18.97H35.38C35.8116 18.9854 36.2208 19.1664 36.5224 19.4756C36.8241 19.7847 36.9951 20.1981 37 20.63V31.33Z" fill="#4858CC"/>
<path d="M32.88 25.73L34.42 29.45L30.66 31.01" stroke="#4858CC" stroke-linecap="round" stroke-linejoin="round"/>
<path d="M19.18 26.33L17.64 22.59L21.38 21.05" stroke="#4858CC" stroke-linecap="round" stroke-linejoin="round"/>
<path d="M34.1401 29.29L17.9601 22.75" stroke="#4858CC" stroke-linecap="round" stroke-linejoin="round"/>
</svg>
