<svg width="44" height="44" viewBox="0 0 44 44" fill="none" xmlns="http://www.w3.org/2000/svg">
<circle cx="22" cy="22" r="22" fill="white"/>
<path d="M33.4874 17.0703L28.3698 20.1164V19.5834C28.3698 18.4402 27.9157 17.3439 27.1074 16.5355C26.299 15.7272 25.2027 15.2731 24.0595 15.2731H14.4641C13.321 15.2731 12.2246 15.7272 11.4163 16.5355C10.6079 17.3439 10.1538 18.4402 10.1538 19.5834V24.5943C10.1538 25.7375 10.6079 26.8338 11.4163 27.6421C12.2246 28.4505 13.321 28.9046 14.4641 28.9046H24.0595C25.2027 28.9046 26.299 28.4505 27.1074 27.6421C27.9157 26.8338 28.3698 25.7375 28.3698 24.5943V24.2897L33.4874 27.3358C34.0966 27.7014 34.5992 27.412 34.5992 26.6961V17.6948C34.5992 16.9941 34.0966 16.6743 33.4874 17.0703ZM25.3237 24.5791C25.3197 24.9131 25.1853 25.2324 24.949 25.4686C24.7128 25.7048 24.3936 25.8393 24.0595 25.8432H14.4641C14.1301 25.8393 13.8108 25.7048 13.5746 25.4686C13.3384 25.2324 13.2039 24.9131 13.2 24.5791V19.5681C13.2039 19.2341 13.3384 18.9149 13.5746 18.6786C13.8108 18.4424 14.1301 18.308 14.4641 18.304H24.0595C24.3936 18.308 24.7128 18.4424 24.949 18.6786C25.1853 18.9149 25.3197 19.2341 25.3237 19.5681V24.5791Z" fill="#424242"/>
</svg>
