<svg width="36" height="36" viewBox="0 0 36 36" fill="none" xmlns="http://www.w3.org/2000/svg">
  <path d="M20.3296 13.86H21.2692C21.5556 13.86 21.8303 13.7462 22.0329 13.5436C22.2354 13.3411 22.3492 13.0664 22.3492 12.78C22.3492 12.4935 22.2354 12.2188 22.0329 12.0163C21.8303 11.8137 21.5556 11.7 21.2692 11.7H20.3296C17.878 11.7 16.4092 13.3092 16.4092 16.02H15.4804C15.194 16.02 14.9193 16.1337 14.7167 16.3363C14.5142 16.5388 14.4004 16.8135 14.4004 17.1C14.4004 17.3864 14.5142 17.6611 14.7167 17.8636C14.9193 18.0662 15.194 18.18 15.4804 18.18H16.3984V23.7528C16.3984 24.0392 16.5122 24.3139 16.7147 24.5164C16.9173 24.719 17.192 24.8328 17.4784 24.8328C17.7648 24.8328 18.0395 24.719 18.2421 24.5164C18.4446 24.3139 18.5584 24.0392 18.5584 23.7528V18.18H20.4592C20.7456 18.18 21.0203 18.0662 21.2229 17.8636C21.4254 17.6611 21.5392 17.3864 21.5392 17.1C21.5392 16.8135 21.4254 16.5388 21.2229 16.3363C21.0203 16.1337 20.7456 16.02 20.4592 16.02H18.5692C18.5692 14.1192 19.4116 13.86 20.3296 13.86Z" fill="white"/>
  <circle cx="18" cy="18" r="17.5" stroke="white"/>
</svg>
