<svg width="40" height="40" viewBox="0 0 40 40" fill="none" xmlns="http://www.w3.org/2000/svg">
<rect width="40" height="40" rx="2" fill="#919BE0"/>
<path d="M25.008 17.784L20.664 13.2C19.8781 12.4764 18.8631 12.0517 17.796 12H13.704C13.253 12.0031 12.8214 12.1837 12.5026 12.5026C12.1837 12.8215 12.0031 13.253 12 13.704V26.388C12.0031 26.839 12.1837 27.2706 12.5026 27.5894C12.8214 27.9083 13.253 28.0889 13.704 28.092H24.504C24.955 28.0889 25.3866 27.9083 25.7054 27.5894C26.0243 27.2706 26.2049 26.839 26.208 26.388V20.664C26.1302 19.5994 25.7091 18.5889 25.008 17.784ZM20.28 16.284L22.308 18.42H20.28V16.284ZM14.4 25.656V14.364H17.796H17.88V20.796H23.772V25.596L14.4 25.656Z" fill="white"/>
</svg>
