<svg width="15" height="17" viewBox="0 0 15 17" fill="none" xmlns="http://www.w3.org/2000/svg">
<path d="M13.008 5.78401L8.664 1.2C7.87808 0.476396 6.86305 0.0516975 5.796 0H1.704C1.25304 0.00314268 0.821448 0.183686 0.502565 0.50257C0.183682 0.821453 0.00314268 1.25304 0 1.704V14.388C0.00314268 14.839 0.183682 15.2706 0.502565 15.5894C0.821448 15.9083 1.25304 16.0889 1.704 16.092H12.504C12.955 16.0889 13.3866 15.9083 13.7054 15.5894C14.0243 15.2706 14.2049 14.839 14.208 14.388V8.664C14.1302 7.59944 13.7091 6.58886 13.008 5.78401ZM8.28 4.28401L10.308 6.42001H8.28V4.28401ZM2.4 13.656V2.364H5.796H5.88V8.796H11.772V13.596L2.4 13.656Z" fill="#4858CC"/>
</svg>
