<svg width="24" height="24" viewBox="0 0 24 24" xmlns="http://www.w3.org/2000/svg">
<path d="M3.65445 9.96401C3.79167 9.53523 4.04674 9.15369 4.39049 8.86298C4.73425 8.57227 5.15283 8.38411 5.59844 8.32L8.52645 7.90001L9.82245 5.31999C10.0228 4.92238 10.3298 4.58834 10.7092 4.35523C11.0885 4.12212 11.5252 3.99913 11.9705 4C12.4137 4.00135 12.8478 4.12539 13.2248 4.35838C13.6019 4.59137 13.907 4.9242 14.1065 5.31999L15.4145 7.90001L18.3425 8.32C18.7881 8.38411 19.2067 8.57227 19.5504 8.86298C19.8942 9.15369 20.1492 9.53523 20.2865 9.96401C20.4227 10.3914 20.4365 10.8484 20.3262 11.2832C20.2159 11.718 19.986 12.1132 19.6625 12.424L17.5745 14.416L18.0665 17.224C18.1265 17.5715 18.1091 17.928 18.0157 18.2681C17.9222 18.6082 17.755 18.9235 17.5258 19.1916C17.2967 19.4597 17.0113 19.674 16.6899 19.8192C16.3685 19.9645 16.0191 20.0372 15.6665 20.032C15.2827 20.0336 14.904 19.943 14.5625 19.768L11.9345 18.412L9.28245 19.768C8.88536 19.9737 8.43869 20.0643 7.99284 20.0297C7.54699 19.9951 7.11969 19.8366 6.75911 19.5721C6.39853 19.3075 6.11902 18.9476 5.95211 18.5327C5.7852 18.1178 5.73752 17.6645 5.81445 17.224L6.30646 14.416L4.21845 12.424C3.90525 12.1068 3.68659 11.7086 3.58697 11.2741C3.48735 10.8396 3.51072 10.386 3.65445 9.96401V9.96401ZM12.0545 15.736L15.7025 17.608L14.9825 13.54L17.9945 10.672L13.8304 10.072L12.0185 6.472L12.0545 15.736Z" />
</svg>
