<svg width="44" height="44" viewBox="0 0 44 44" fill="none" xmlns="http://www.w3.org/2000/svg">
<circle cx="22" cy="22" r="22" fill="white"/>
<g clip-path="url(#clip0)">
<path d="M8.78321 23.7871L12.3027 27.3066L18.4619 24.667L17.582 21.1475C20.4351 20.1791 23.5279 20.1791 26.3809 21.1475L25.501 24.667L31.6602 27.3066L35.1797 23.7871C35.6464 23.3204 35.9086 22.6874 35.9086 22.0273C35.9086 21.3673 35.6464 20.7343 35.1797 20.2676C31.539 17.044 26.8443 15.2643 21.9815 15.2643C17.1187 15.2643 12.424 17.044 8.78321 20.2676C8.31649 20.7343 8.05429 21.3673 8.05429 22.0273C8.05429 22.6874 8.31649 23.3204 8.78321 23.7871" stroke="#FF6B00" stroke-width="2.75" stroke-linecap="round" stroke-linejoin="round"/>
</g>
<defs>
<clipPath id="clip0">
<rect width="30.4615" height="30.4615" fill="white" transform="translate(6.76953 6.76953)"/>
</clipPath>
</defs>
</svg>
