<svg width="24" height="24" viewBox="0 0 24 24" xmlns="http://www.w3.org/2000/svg">
  <path d="M 19.531 5.474 C 19.086 4.996 18.544 4.618 17.943 4.363 C 17.341 4.109 16.692 3.985 16.039 3.998 C 14.46 4.017 12.945 4.625 11.791 5.702 C 10.651 4.633 9.154 4.025 7.591 3.998 C 6.938 3.985 6.289 4.109 5.688 4.363 C 5.086 4.618 4.545 4.996 4.099 5.474 C 1.939 7.874 2.299 11.102 5.083 14.39 C 6.869 16.295 8.937 17.914 11.215 19.19 L 11.803 19.514 L 12.379 19.19 C 14.657 17.914 16.726 16.295 18.511 14.39 C 21.391 11.102 21.691 7.85 19.531 5.474 Z" />
</svg>
