<svg width="24" height="24" viewBox="0 0 24 24"  >
<path d="M22.323 11.319L13.011 2.34303C12.7867 2.12316 12.4851 2 12.171 2C11.8569 2 11.5553 2.12316 11.331 2.34303L2.35497 11.331C2.18646 11.4982 2.0713 11.7115 2.02404 11.9441C1.97677 12.1766 1.99954 12.418 2.08945 12.6377C2.17936 12.8573 2.33238 13.0453 2.52916 13.178C2.72594 13.3107 2.95764 13.382 3.19497 13.383C3.39296 13.3784 3.58672 13.3248 3.75897 13.227V20.103C3.75897 20.4213 3.8854 20.7265 4.11044 20.9516C4.33548 21.1766 4.64071 21.303 4.95897 21.303H10.503C10.6267 21.3155 10.7513 21.3155 10.875 21.303H13.467C13.5867 21.3148 13.7073 21.3148 13.827 21.303H19.311C19.6292 21.303 19.9345 21.1766 20.1595 20.9516C20.3845 20.7265 20.511 20.4213 20.511 20.103V12.903L20.643 13.035C20.7545 13.1475 20.8872 13.2368 21.0335 13.2977C21.1797 13.3586 21.3366 13.39 21.495 13.39C21.6534 13.39 21.8102 13.3586 21.9565 13.2977C22.1027 13.2368 22.2354 13.1475 22.347 13.035C22.4597 12.9217 22.5487 12.7869 22.6086 12.6387C22.6686 12.4905 22.6983 12.3318 22.6961 12.172C22.6938 12.0121 22.6597 11.8543 22.5956 11.7078C22.5315 11.5614 22.4388 11.4292 22.323 11.319V11.319ZM13.467 18.891H10.875V14.007H13.467V18.891ZM18.111 18.891H15.867V14.007C15.867 13.3705 15.6141 12.7601 15.164 12.31C14.7139 11.8599 14.1035 11.607 13.467 11.607H10.875C10.2384 11.607 9.628 11.8599 9.17791 12.31C8.72783 12.7601 8.47497 13.3705 8.47497 14.007V18.807H6.17097V10.911L12.171 4.91103L18.087 10.611L18.111 18.891Z"  />
</svg>
