<svg width="20" height="17" viewBox="0 0 20 17" xmlns="http://www.w3.org/2000/svg">
<path d="M15.864 0H3.408C2.50621 -5.59025e-06 1.64119 0.357402 1.00241 0.993933C0.363631 1.63046 0.00317529 2.49421 0 3.39598V13.416C0.0031625 14.3189 0.363239 15.1839 1.00168 15.8223C1.64012 16.4607 2.50511 16.8208 3.408 16.824H15.864C16.7648 16.8177 17.6267 16.4562 18.2626 15.8181C18.8984 15.18 19.2569 14.3168 19.26 13.416V3.39598C19.2568 2.49628 18.898 1.63433 18.2618 0.998145C17.6257 0.361955 16.7637 0.00316243 15.864 0ZM3.408 2.4H15.864C16.1272 2.40312 16.3787 2.50905 16.5648 2.69517C16.751 2.88128 16.8569 3.1328 16.86 3.39598V9.91199L12.948 6.31199C12.7248 6.09925 12.4283 5.98055 12.12 5.98055C11.8117 5.98055 11.5152 6.09925 11.292 6.31199L7.128 10.488L5.35199 9.6C5.18449 9.5156 4.99955 9.47163 4.81199 9.47163C4.62444 9.47163 4.43949 9.5156 4.272 9.6L2.4 10.548V3.34799C2.41531 3.09119 2.52823 2.84995 2.71564 2.67371C2.90304 2.49746 3.15074 2.39954 3.408 2.4ZM15.864 14.4H3.408C3.14162 14.3969 2.88705 14.2897 2.69868 14.1013C2.51032 13.913 2.40312 13.6584 2.4 13.392V13.26C2.82 13.068 3.528 12.732 4.8 12.06L6.804 13.08C7.03038 13.1938 7.28699 13.2331 7.53704 13.1921C7.7871 13.1512 8.01777 13.0321 8.196 12.852L12.156 8.868L16.668 12.984C16.7197 13.0229 16.7762 13.0552 16.836 13.08V13.392C16.8394 13.6565 16.7399 13.9119 16.5586 14.1045C16.3772 14.297 16.1282 14.4116 15.864 14.424V14.4Z" />
</svg>
