<svg width="32" height="25" viewBox="0 0 32 25" fill="none" xmlns="http://www.w3.org/2000/svg">
<path d="M20.3246 4.39453H11.6711V19.9461H20.3246V4.39453Z" fill="#7673C0"/>
<path d="M12.2233 12.1696C12.2221 10.6721 12.5616 9.19398 13.216 7.84707C13.8705 6.50015 14.8227 5.31975 16.0006 4.39518C14.5417 3.24859 12.7895 2.53558 10.9445 2.33767C9.0995 2.13975 7.23601 2.46491 5.56704 3.27597C3.89807 4.08704 2.49095 5.35129 1.5065 6.92423C0.522055 8.49718 0 10.3154 0 12.171C0 14.0266 0.522055 15.8448 1.5065 17.4177C2.49095 18.9906 3.89807 20.2549 5.56704 21.066C7.23601 21.877 9.0995 22.2022 10.9445 22.0043C12.7895 21.8063 14.5417 21.0933 16.0006 19.9467C14.8223 19.0219 13.8699 17.841 13.2154 16.4936C12.561 15.1462 12.2217 13.6675 12.2233 12.1696Z" fill="#EB001B"/>
<path d="M31.9999 12.1696C31.9999 14.0253 31.4777 15.8436 30.4931 17.4166C29.5084 18.9896 28.1011 20.2538 26.4319 21.0648C24.7627 21.8757 22.8991 22.2007 21.054 22.0025C19.2088 21.8043 17.4567 21.0909 15.9978 19.944C17.1753 19.0186 18.1273 17.8379 18.7819 16.4909C19.4364 15.1439 19.7766 13.6658 19.7766 12.1682C19.7766 10.6706 19.4364 9.19252 18.7819 7.84553C18.1273 6.49854 17.1753 5.31781 15.9978 4.39242C17.4569 3.24532 19.2093 2.53194 21.0546 2.33384C22.9 2.13575 24.7639 2.46094 26.4332 3.27222C28.1024 4.0835 29.5097 5.34814 30.4942 6.92154C31.4786 8.49494 32.0004 10.3136 31.9999 12.1696Z" fill="#00A1DF"/>
</svg>
