<svg width="64" height="64" viewBox="0 0 64 64" fill="none" xmlns="http://www.w3.org/2000/svg">
<path d="M28.9155 30.1197C28.9155 38.0064 35.2595 44.4034 43.0809 44.4034C45.5956 44.4034 47.9529 43.7462 50.0006 42.5851L54.5359 43.5983L53.9384 39.288C56.0024 36.807 57.2462 33.6085 57.2462 30.1197C57.2462 22.233 50.9022 15.8359 43.0809 15.8359C35.2595 15.8359 28.9155 22.2275 28.9155 30.1197Z" fill="#DFD0E7"/>
<path d="M43.0809 45.2035C34.8305 45.2035 28.1172 38.434 28.1172 30.1146C28.1172 21.7952 34.8305 15.0312 43.0809 15.0312C51.3314 15.0312 58.0393 21.8007 58.0393 30.1201C58.0393 33.5377 56.8824 36.8676 54.7749 39.5294L55.3235 43.4892C55.3615 43.7521 55.2692 44.0095 55.0737 44.1903C54.8836 44.371 54.6174 44.4422 54.3621 44.3819L50.1202 43.4344C47.9639 44.5901 45.536 45.2035 43.0809 45.2035ZM43.0809 16.636C35.7104 16.636 29.714 22.6825 29.714 30.1146C29.714 37.5468 35.7104 43.5933 43.0809 43.5933C45.3676 43.5933 47.6271 43.0018 49.6096 41.879C49.7834 41.7804 49.9844 41.753 50.169 41.7969L53.5854 42.5636L53.1455 39.398C53.1129 39.1734 53.1781 38.9434 53.3247 38.7736C55.3344 36.3528 56.4424 33.2803 56.4424 30.1201C56.4478 22.6825 50.4515 16.636 43.0809 16.636Z" fill="#783D9D"/>
<path d="M49.6863 31.6906C50.5472 31.6906 51.2451 30.9869 51.2451 30.1187C51.2451 29.2506 50.5472 28.5469 49.6863 28.5469C48.8254 28.5469 48.1274 29.2506 48.1274 30.1187C48.1274 30.9869 48.8254 31.6906 49.6863 31.6906Z" fill="#783D9D"/>
<path d="M43.3364 31.6906C44.1973 31.6906 44.8953 30.9869 44.8953 30.1187C44.8953 29.2506 44.1973 28.5469 43.3364 28.5469C42.4755 28.5469 41.7776 29.2506 41.7776 30.1187C41.7776 30.9869 42.4755 31.6906 43.3364 31.6906Z" fill="#783D9D"/>
<path d="M36.7537 31.6906C37.6146 31.6906 38.3125 30.9869 38.3125 30.1187C38.3125 29.2506 37.6146 28.5469 36.7537 28.5469C35.8927 28.5469 35.1948 29.2506 35.1948 30.1187C35.1948 30.9869 35.8927 31.6906 36.7537 31.6906Z" fill="#783D9D"/>
<path d="M37.7147 21.2735C37.7147 29.9817 30.7135 37.0415 22.0774 37.0415C19.302 37.0415 16.7003 36.313 14.4408 35.0369L9.43294 36.1542L10.0901 31.3948C7.81435 28.6563 6.44019 25.1237 6.44019 21.268C6.44019 12.5597 13.4414 5.5 22.0774 5.5C30.7135 5.5 37.7147 12.5707 37.7147 21.2735Z" fill="white"/>
<path d="M22.0772 37.8477C19.3669 37.8477 16.6892 37.1686 14.3211 35.887L9.60653 36.9386C9.35125 36.9933 9.08511 36.9221 8.895 36.7469C8.7049 36.5661 8.61257 36.3087 8.64516 36.0458L9.25348 31.6369C6.9288 28.7068 5.64697 25.0427 5.64697 21.2746C5.64697 12.1392 13.0175 4.70703 22.0772 4.70703C31.137 4.70703 38.5075 12.1392 38.5075 21.2746C38.5075 30.4101 31.1424 37.8477 22.0772 37.8477ZM14.4406 34.2385C14.5763 34.2385 14.7121 34.2713 14.8316 34.3425C17.0314 35.5858 19.5407 36.2485 22.0827 36.2485C30.2679 36.2485 36.9215 29.5338 36.9215 21.2856C36.9215 13.0374 30.2625 6.31176 22.0772 6.31176C13.892 6.31176 7.2384 13.0264 7.2384 21.2746C7.2384 24.7853 8.46592 28.1974 10.7037 30.8811C10.8503 31.0564 10.9155 31.2809 10.8829 31.5055L10.3832 35.1148L14.2722 34.2439C14.3265 34.2439 14.3862 34.2385 14.4406 34.2385Z" fill="#783D9D"/>
<path d="M18.7262 26.2468C18.5252 26.2468 18.3188 26.1701 18.1613 26.0168C17.8354 25.7046 17.8245 25.1843 18.1341 24.8557C19.1715 23.7603 20.5729 23.1523 22.0774 23.1523C23.5276 23.1523 24.8909 23.7165 25.9174 24.7461C26.2379 25.0638 26.2379 25.5841 25.9229 25.9072C25.6079 26.2304 25.0919 26.2304 24.7714 25.9127C24.049 25.1898 23.0931 24.7954 22.0774 24.7954C21.0237 24.7954 20.0406 25.2171 19.3128 25.9894C19.1552 26.1592 18.938 26.2468 18.7262 26.2468Z" fill="#783D9D"/>
<path d="M15.44 21.7739C16.3879 21.7739 17.1563 20.999 17.1563 20.0432C17.1563 19.0874 16.3879 18.3125 15.44 18.3125C14.4921 18.3125 13.7236 19.0874 13.7236 20.0432C13.7236 20.999 14.4921 21.7739 15.44 21.7739Z" fill="#783D9D"/>
<path d="M28.6551 21.9497C29.603 21.9497 30.3714 21.1748 30.3714 20.219C30.3714 19.2631 29.603 18.4883 28.6551 18.4883C27.7072 18.4883 26.9387 19.2631 26.9387 20.219C26.9387 21.1748 27.7072 21.9497 28.6551 21.9497Z" fill="#783D9D"/>
<path d="M32.2282 59.2975C40.3875 59.2975 47.0019 58.4981 47.0019 57.512C47.0019 56.5259 40.3875 55.7266 32.2282 55.7266C24.069 55.7266 17.4546 56.5259 17.4546 57.512C17.4546 58.4981 24.069 59.2975 32.2282 59.2975Z" fill="#E5E5E5"/>
</svg>
