<svg width="295" height="423" viewBox="0 0 295 423" xmlns="http://www.w3.org/2000/svg">
<path d="M70.5677 10.9714C69.6775 11.0032 68.7975 10.7724 68.0376 10.3076C67.3592 9.86575 66.8279 9.23177 66.5115 8.4866C66.1593 7.65648 65.9854 6.76164 66.001 5.86002V5.71819C65.9865 4.81073 66.1684 3.91087 66.5342 3.08026C66.8655 2.34416 67.3961 1.71537 68.0659 1.26492C68.7755 0.809415 69.6057 0.578128 70.4486 0.601179C71.0573 0.594655 71.6624 0.696463 72.2355 0.901846C72.7283 1.07836 73.1856 1.34157 73.5857 1.67904V3.85179H72.4965L72.349 2.26336C72.1952 2.14207 72.0253 2.04279 71.8441 1.96836C71.6367 1.88897 71.422 1.83007 71.2031 1.7925C70.9541 1.74772 70.7015 1.72682 70.4486 1.7301C69.8412 1.70702 69.2432 1.88444 68.7467 2.23499C68.2765 2.59826 67.917 3.08549 67.7085 3.64189C67.4639 4.30038 67.3446 4.99882 67.3568 5.70117V5.86002C67.3382 6.59995 67.4654 7.3363 67.7312 8.02709C67.9514 8.58525 68.3375 9.06243 68.8374 9.39427C69.3649 9.72005 69.9764 9.88377 70.5961 9.86513C70.9156 9.8657 71.234 9.82567 71.5434 9.746C71.8139 9.68405 72.0739 9.58275 72.315 9.44533L72.4681 8.03843H73.5347V10.2225C73.1155 10.4819 72.6579 10.6734 72.1788 10.7898C71.6515 10.9174 71.1102 10.9784 70.5677 10.9714Z" fill="#76777A"/>
<path d="M76.8533 10.8299V9.95629L77.9878 9.76341V4.39678H76.4221L76.3143 5.56541H75.1514V3.33594H82.2426V5.56541H81.0739L80.9605 4.39678H79.3494V9.76341L80.484 9.95629V10.8299H76.8533Z" fill="#76777A"/>
<path d="M83.116 13.7061V12.8268L84.1712 12.634V4.40816L83.0366 4.21528V3.33597H85.3398L85.4987 4.24932C85.7347 3.91987 86.0458 3.65148 86.4064 3.46645C86.793 3.27826 87.2189 3.18492 87.6487 3.19414C88.2198 3.17999 88.7791 3.35776 89.2372 3.69904C89.6963 4.06536 90.0441 4.55262 90.2413 5.10593C90.4833 5.78463 90.6005 6.50151 90.5873 7.22195V7.36377C90.5999 8.01269 90.4802 8.65736 90.2356 9.25854C90.0284 9.76421 89.6822 10.2009 89.2372 10.5179C88.7758 10.8297 88.228 10.9884 87.6714 10.9718C87.2547 10.9824 86.8407 10.9031 86.4574 10.7392C86.0961 10.5897 85.7795 10.3493 85.5384 10.0414V12.6226L86.7297 12.8155V13.6948L83.116 13.7061ZM87.2176 9.90526C87.5018 9.9202 87.7852 9.86364 88.0419 9.74075C88.2986 9.61786 88.5203 9.43256 88.6869 9.20181C89.0419 8.65661 89.2165 8.01364 89.1861 7.36377V7.20493C89.1951 6.69137 89.1203 6.17979 88.9649 5.69025C88.8485 5.30363 88.6312 4.95504 88.3352 4.68046C88.017 4.41837 87.6123 4.28481 87.2006 4.30605C86.8496 4.29558 86.5031 4.38616 86.2021 4.567C85.9212 4.74607 85.6907 4.9941 85.5327 5.28747V8.93518C85.6894 9.24646 85.9345 9.50456 86.2372 9.67713C86.54 9.8497 86.8869 9.92906 87.2346 9.90526H87.2176Z" fill="#76777A"/>
<path d="M94.3318 10.9717C93.6873 11.0175 93.0497 10.8145 92.5504 10.4044C92.3423 10.1932 92.1807 9.94068 92.0762 9.66318C91.9716 9.38568 91.9264 9.08934 91.9434 8.79328C91.9336 8.34735 92.0712 7.91062 92.3349 7.5509C92.6258 7.17167 93.0196 6.88414 93.4695 6.72265C94.036 6.51522 94.6362 6.41518 95.2394 6.42766H96.5783V5.69584C96.589 5.50139 96.5576 5.30692 96.4861 5.12576C96.4146 4.94461 96.3048 4.78106 96.1641 4.64634C95.8454 4.38523 95.4411 4.2518 95.0295 4.27193C94.751 4.2646 94.4731 4.30293 94.207 4.38539C93.9835 4.45932 93.7715 4.56435 93.5773 4.6974L93.4411 5.7469H92.3859V4.04501C92.736 3.76525 93.1366 3.55533 93.5659 3.42666C94.0473 3.27878 94.5486 3.20607 95.0522 3.21108C95.8199 3.1683 96.5778 3.3995 97.1909 3.86348C97.4536 4.09524 97.66 4.38373 97.7947 4.70709C97.9293 5.03045 97.9887 5.38021 97.9681 5.72988V9.33789C97.9681 9.43433 97.9681 9.52509 97.9681 9.62153C97.9625 9.71221 97.9625 9.80316 97.9681 9.89384L98.6943 9.97326V10.8469H96.7314C96.6917 10.6427 96.6577 10.4611 96.635 10.2796C96.6114 10.1198 96.5963 9.95881 96.5896 9.7974C96.3174 10.1379 95.9823 10.4229 95.6025 10.637C95.2163 10.8598 94.7776 10.9754 94.3318 10.9717ZM94.5303 9.83711C94.9667 9.84272 95.3963 9.72894 95.7727 9.50807C96.1082 9.32884 96.3871 9.05972 96.5783 8.73088V7.36937H95.1884C94.6766 7.33243 94.1703 7.49508 93.7758 7.8232C93.6318 7.94862 93.5156 8.1027 93.4345 8.2756C93.3534 8.4485 93.3093 8.63641 93.305 8.82732C93.2959 8.96719 93.3188 9.10729 93.3719 9.23702C93.425 9.36674 93.5068 9.48271 93.6113 9.57615C93.8775 9.76789 94.2034 9.85841 94.5303 9.83143V9.83711Z" fill="#76777A"/>
<path d="M99.9082 10.8299V9.95629L101.043 9.76341V4.40813L99.9082 4.21525V3.33594H103.528V4.21525L102.393 4.40813V6.5752H105.723V4.40813L104.588 4.21525V3.33594H108.219V4.21525L107.084 4.40813V9.76341L108.219 9.95629V10.8299H104.588V9.95629L105.723 9.76341V7.64172H102.393V9.76341L103.528 9.95629V10.8299H99.9082Z" fill="#76777A"/>
<path d="M109.569 10.8295V9.95591L110.704 9.76303V4.40775L109.569 4.21487V3.33556H113.183V4.21487L112.048 4.40775V8.63979H112.088L115.39 3.32422H117.886V4.21487L116.751 4.40775V9.76303L117.886 9.95591V10.8295H114.267V9.95591L115.401 9.76303V5.50264H115.361L112.06 10.8239L109.569 10.8295Z" fill="#76777A"/>
<path d="M125.811 13.0481V10.8299H119.049V9.95629L120.183 9.76341V4.40813L119.049 4.21525V3.33594H122.668V4.21525L121.534 4.40813V9.76341H124.875V4.40813L123.74 4.21525V3.33594H127.36V4.21525L126.225 4.4138V9.76341H127.144L127.014 13.0481H125.811Z" fill="#76777A"/>
<path d="M130.934 10.9717C130.289 11.0193 129.651 10.8161 129.152 10.4044C128.942 10.1943 128.779 9.94212 128.674 9.66444C128.568 9.38675 128.522 9.08986 128.54 8.79328C128.53 8.34735 128.667 7.91062 128.931 7.5509C129.223 7.17303 129.617 6.88583 130.066 6.72265C130.632 6.51522 131.233 6.41518 131.836 6.42766H133.152V5.69584C133.164 5.50127 133.133 5.30645 133.061 5.12512C132.99 4.94379 132.879 4.78036 132.738 4.64634C132.42 4.38426 132.015 4.2507 131.603 4.27193C131.326 4.26492 131.051 4.30324 130.786 4.38539C130.562 4.45698 130.349 4.56218 130.157 4.6974L130.009 5.7469H128.96V4.04501C129.307 3.76384 129.706 3.55373 130.134 3.42666C130.617 3.27882 131.12 3.20612 131.626 3.21108C132.394 3.1683 133.151 3.3995 133.765 3.86348C134.027 4.09524 134.234 4.38373 134.368 4.70709C134.503 5.03045 134.562 5.38021 134.542 5.72988V9.62153V9.89384L135.268 9.97326V10.8469H133.311C133.271 10.6427 133.237 10.4611 133.214 10.2796C133.192 10.0981 133.175 9.95624 133.163 9.7974C132.894 10.1409 132.558 10.4265 132.176 10.637C131.799 10.856 131.37 10.9714 130.934 10.9717ZM131.132 9.83711C131.567 9.84343 131.995 9.72956 132.369 9.50807C132.698 9.32538 132.969 9.05418 133.152 8.72521V7.36369H131.79C131.278 7.32434 130.771 7.48727 130.378 7.81753C130.233 7.94202 130.116 8.09591 130.034 8.26901C129.953 8.44211 129.91 8.63048 129.907 8.82165C129.898 8.96152 129.921 9.10161 129.974 9.23134C130.027 9.36107 130.109 9.47704 130.213 9.57048C130.478 9.76608 130.804 9.85883 131.132 9.83143V9.83711Z" fill="#76777A"/>
<path d="M140.033 10.8299V9.95629L141.168 9.76341V4.40813L140.033 4.21525V3.33594H143.653V4.21525L142.518 4.40813V6.5752H145.848V4.40813L144.713 4.21525V3.33594H148.344V4.21525L147.209 4.40813V9.76341L148.344 9.95629V10.8299H144.713V9.95629L145.848 9.76341V7.64172H142.518V9.76341L143.653 9.95629V10.8299H140.033Z" fill="#76777A"/>
<path d="M152.945 10.9721C152.311 10.9861 151.687 10.823 151.141 10.5012C150.625 10.1836 150.212 9.72489 149.949 9.17945C149.66 8.57027 149.516 7.90219 149.53 7.22795V6.92161C149.519 6.25957 149.671 5.60499 149.972 5.01549C150.243 4.47987 150.645 4.02134 151.141 3.68234C151.613 3.36263 152.17 3.19261 152.741 3.19447C153.336 3.17294 153.925 3.31835 154.442 3.61427C154.895 3.88803 155.254 4.29385 155.469 4.77723C155.712 5.33512 155.83 5.93908 155.815 6.54719V7.39814H150.954V7.43785C150.953 7.87555 151.037 8.3092 151.203 8.71426C151.341 9.06198 151.573 9.36449 151.873 9.5879C152.189 9.80658 152.566 9.91794 152.95 9.90559C153.363 9.9145 153.775 9.84917 154.164 9.7127C154.499 9.58054 154.807 9.38828 155.072 9.14541L155.605 10.0304C155.296 10.3149 154.933 10.5365 154.539 10.6828C154.032 10.8828 153.49 10.9811 152.945 10.9721ZM150.988 6.33162H154.442V6.15576C154.45 5.82215 154.384 5.49092 154.25 5.18568C154.13 4.91164 153.933 4.6788 153.682 4.51627C153.399 4.34507 153.071 4.26029 152.741 4.27233C152.441 4.26823 152.148 4.36183 151.907 4.53896C151.654 4.73037 151.448 4.97675 151.305 5.25943C151.14 5.58434 151.032 5.93567 150.988 6.29758V6.33162Z" fill="#76777A"/>
<path d="M160.547 10.8299V9.95629L161.681 9.76341V4.40813L160.547 4.21525V3.33594H164.172V4.21525L163.037 4.40813V6.5752H166.367V4.40813L165.233 4.21525V3.33594H168.892V4.21525L167.757 4.40813V9.76341L168.892 9.95629V10.8299H165.261V9.95629L166.396 9.76341V7.64172H163.066V9.76341L164.2 9.95629V10.8299H160.547Z" fill="#76777A"/>
<path d="M172.477 10.9717C171.832 11.0193 171.194 10.8161 170.696 10.4044C170.486 10.1943 170.323 9.94212 170.217 9.66444C170.111 9.38675 170.066 9.08986 170.083 8.79328C170.073 8.34735 170.211 7.91062 170.475 7.5509C170.767 7.17303 171.16 6.88583 171.609 6.72265C172.176 6.51522 172.776 6.41518 173.379 6.42766H174.718V5.69584C174.73 5.50127 174.699 5.30645 174.627 5.12512C174.556 4.94379 174.445 4.78036 174.304 4.64634C173.986 4.38426 173.581 4.2507 173.169 4.27193C172.893 4.26492 172.617 4.30324 172.352 4.38539C172.128 4.45698 171.916 4.56218 171.723 4.6974L171.575 5.7469H170.526V4.04501C170.873 3.76384 171.272 3.55373 171.7 3.42666C172.183 3.27882 172.687 3.20612 173.192 3.21108C173.96 3.1683 174.718 3.3995 175.331 3.86348C175.593 4.09552 175.798 4.38421 175.932 4.70761C176.066 5.031 176.124 5.38061 176.102 5.72988V9.33789C176.102 9.43433 176.102 9.52509 176.102 9.62153V9.89384L176.828 9.97326V10.8469H174.871C174.831 10.6427 174.797 10.4611 174.775 10.2796C174.752 10.0981 174.735 9.95624 174.724 9.7974C174.455 10.1409 174.119 10.4265 173.737 10.637C173.354 10.8589 172.919 10.9744 172.477 10.9717ZM172.676 9.83711C173.11 9.84343 173.538 9.72956 173.912 9.50807C174.249 9.33034 174.528 9.06086 174.718 8.73088V7.36937H173.334C172.822 7.33001 172.315 7.49294 171.921 7.8232C171.776 7.9477 171.659 8.10158 171.578 8.27469C171.497 8.44779 171.453 8.63615 171.45 8.82732C171.441 8.96719 171.464 9.10729 171.517 9.23702C171.57 9.36674 171.652 9.48271 171.757 9.57615C172.022 9.76975 172.349 9.86046 172.676 9.83143V9.83711Z" fill="#76777A"/>
<path d="M178.048 10.8297V9.95605L179.182 9.76317V4.40789L178.048 4.21501V3.3357H181.662V4.21501L180.527 4.40789V8.63992H180.572L183.874 3.32436H186.364V4.21501L185.23 4.40789V9.76317L186.364 9.95605V10.8297H182.745V9.95605L183.88 9.76317V5.50277H183.84L180.533 10.824L178.048 10.8297ZM182.252 2.01958C181.671 2.04647 181.104 1.84249 180.674 1.45228C180.485 1.27143 180.337 1.05245 180.239 0.809879C180.142 0.567312 180.096 0.306711 180.107 0.0453838V0H181.145C181.132 0.293922 181.227 0.582541 181.412 0.811234C181.641 1.01266 181.935 1.12378 182.24 1.12378C182.545 1.12378 182.84 1.01266 183.068 0.811234C183.257 0.58442 183.355 0.294957 183.341 0H184.385V0.0453838C184.392 0.306363 184.346 0.566125 184.248 0.808275C184.151 1.05043 184.004 1.26971 183.817 1.45228C183.39 1.83967 182.828 2.04344 182.252 2.01958Z" fill="#76777A"/>
<path d="M187.612 13.031L187.476 9.76341H188.043C188.228 9.55477 188.396 9.33293 188.548 9.09967C188.699 8.87178 188.824 8.62832 188.923 8.37353C189.04 8.07069 189.127 7.75721 189.184 7.43749C189.261 7.01378 189.31 6.58551 189.331 6.1554L189.399 4.40245L188.316 4.21525V3.33594H195.469V4.21525L194.335 4.40813V9.76341H195.333L195.191 13.031H193.966V10.8299H188.86V13.031H187.612ZM189.637 9.76341H192.996V4.54428H190.783L190.721 6.1554C190.689 6.87458 190.569 7.58712 190.364 8.27709C190.211 8.80728 189.973 9.30923 189.66 9.76341H189.637Z" fill="#76777A"/>
<path d="M200.002 10.9719C199.367 10.987 198.74 10.8239 198.192 10.5011C197.68 10.1817 197.269 9.72327 197.007 9.17929C196.717 8.57011 196.574 7.90203 196.587 7.22779V6.92145C196.576 6.25941 196.728 5.60483 197.029 5.01533C197.299 4.47845 197.701 4.01949 198.198 3.68218C198.668 3.36355 199.224 3.19359 199.792 3.19431C200.387 3.17369 200.976 3.31904 201.494 3.61411C201.945 3.88953 202.303 4.29487 202.521 4.77707C202.763 5.33496 202.881 5.93892 202.867 6.54703V7.39797H198.005V7.43769C198.008 7.87549 198.095 8.30865 198.26 8.7141C198.402 9.06423 198.64 9.3671 198.947 9.58774C199.265 9.80649 199.644 9.9178 200.03 9.90543C200.443 9.91434 200.854 9.84901 201.244 9.71254C201.577 9.58034 201.883 9.38804 202.146 9.14525L202.68 10.0302C202.373 10.3159 202.012 10.5377 201.619 10.6826C201.104 10.8852 200.555 10.9835 200.002 10.9719ZM198.039 6.33146H201.494V6.1556C201.5 5.82272 201.436 5.4923 201.307 5.18552C201.187 4.91148 200.99 4.67864 200.739 4.51611C200.454 4.34383 200.125 4.25901 199.792 4.27217C199.494 4.26806 199.203 4.36172 198.964 4.5388C198.705 4.72828 198.493 4.97481 198.345 5.25927C198.18 5.58418 198.072 5.93551 198.028 6.29742L198.039 6.33146Z" fill="#76777A"/>
<path d="M204.064 10.8299V9.95629L205.199 9.76341V4.40813L204.064 4.21525V3.33594H207.683V4.21525L206.549 4.40813V6.5752H209.879V4.40813L208.744 4.21525V3.33594H212.375V4.21525L211.24 4.40813V9.76341L212.375 9.95629V10.8299H208.744V9.95629L209.879 9.76341V7.64172H206.549V9.76341L207.683 9.95629V10.8299H204.064Z" fill="#76777A"/>
<path d="M216.006 10.9713C215.361 11.0177 214.723 10.8146 214.224 10.404C214.016 10.1928 213.855 9.94029 213.75 9.66279C213.645 9.38528 213.6 9.08894 213.617 8.79289C213.607 8.34696 213.745 7.91023 214.009 7.55051C214.3 7.17173 214.694 6.88432 215.143 6.72226C215.712 6.51439 216.314 6.41435 216.919 6.42726H218.246V5.69545C218.258 5.50139 218.228 5.30706 218.157 5.12587C218.087 4.94469 217.978 4.78095 217.838 4.64595C217.517 4.38813 217.114 4.25512 216.703 4.27154C216.427 4.26452 216.151 4.30285 215.886 4.38499C215.662 4.45659 215.45 4.56179 215.257 4.69701L215.109 5.74651H214.06V4.04462C214.408 3.76491 214.807 3.55495 215.234 3.42626C215.717 3.27843 216.221 3.20573 216.726 3.21069C217.474 3.17513 218.212 3.39962 218.814 3.84606C219.076 4.07783 219.283 4.36632 219.417 4.68968C219.552 5.01304 219.611 5.36279 219.591 5.71247V9.60412C219.591 9.69489 219.591 9.78566 219.591 9.87642L220.317 9.95585V10.8295H218.354C218.314 10.6253 218.28 10.4437 218.258 10.2622C218.234 10.1024 218.219 9.9414 218.212 9.77998C217.94 10.1205 217.605 10.4055 217.225 10.6196C216.856 10.8397 216.436 10.9609 216.006 10.9713ZM216.204 9.83671C216.641 9.84233 217.07 9.72855 217.447 9.50768C217.782 9.32831 218.06 9.05668 218.246 8.72481V7.3633H216.862C216.35 7.32636 215.844 7.48901 215.45 7.81714C215.306 7.94256 215.189 8.09664 215.108 8.26953C215.027 8.44243 214.983 8.63034 214.979 8.82125C214.97 8.96113 214.993 9.10122 215.046 9.23095C215.099 9.36068 215.181 9.47665 215.285 9.57008C215.551 9.76383 215.876 9.85638 216.204 9.83104V9.83671Z" fill="#76777A"/>
<path d="M118.867 55.5888V53.1892L121.97 52.6559V49.184H109.49V47.0737L121.715 27.8594H125.686V46.2568H129.515V49.184H125.686V52.6502L128.789 53.1835V55.5831L118.867 55.5888ZM113.512 46.2568H121.97V33.209L121.857 33.1693L121.477 34.1791L113.512 46.2568Z" />
<path d="M142.064 55.9919C140.843 56.0456 139.625 55.8177 138.506 55.3258C137.386 54.834 136.395 54.0914 135.608 53.1554C134.02 51.2644 133.226 48.5547 133.226 45.0261V38.4511C133.226 34.9225 134.012 32.209 135.586 30.3104C136.405 29.4132 137.402 28.6967 138.513 28.2064C139.625 27.7161 140.827 27.4629 142.041 27.4629C143.256 27.4629 144.458 27.7161 145.569 28.2064C146.681 28.6967 147.678 29.4132 148.497 30.3104C150.086 32.2014 150.88 34.915 150.88 38.4511V45.0204C150.88 48.5603 150.093 51.2739 148.52 53.1611C147.733 54.096 146.741 54.8376 145.622 55.3284C144.502 55.8192 143.285 56.0462 142.064 55.9919ZM142.064 53.059C142.798 53.0998 143.53 52.953 144.191 52.6324C144.852 52.3118 145.42 51.8279 145.842 51.2266C146.697 50.0088 147.124 48.1935 147.124 45.7806V37.6512C147.124 35.2516 146.693 33.4419 145.825 32.2335C145.395 31.6356 144.822 31.1554 144.158 30.8372C143.493 30.519 142.76 30.3729 142.024 30.4125C141.294 30.3713 140.564 30.5169 139.905 30.8355C139.246 31.1541 138.679 31.6352 138.258 32.2335C137.39 33.4419 136.958 35.2516 136.958 37.6512V45.7806C136.958 48.1783 137.397 49.9918 138.275 51.2209C138.699 51.8231 139.269 52.3076 139.932 52.629C140.595 52.9505 141.328 53.0985 142.064 53.059Z" />
<path d="M163.712 55.5888V53.1892L166.821 52.6559V49.184H154.34V47.0737L166.566 27.8594H170.537V46.2568H174.36V49.184H170.537V52.6502L173.64 53.1835V55.5831L163.712 55.5888ZM158.362 46.2568H166.821V33.209L166.702 33.1693L166.322 34.1791L158.362 46.2568Z" />
<path fill-rule="evenodd" clip-rule="evenodd" d="M38.6571 86.474C30.1818 86.474 21.7064 86.4288 13.231 86.474C7.44165 86.5143 3.67426 83.5114 1.26495 78.6073C-1.01862 73.9446 -0.0528824 69.4982 2.89966 65.3888C5.59065 61.6465 9.48881 60.3186 13.8799 60.1225C16.6312 60.0118 60.5824 60.0672 63.0722 60.1225C66.4673 60.1828 69.7116 60.877 72.3322 63.1907C78.1216 68.3061 79.2181 75.9364 73.9669 82.0377C71.2005 85.2518 67.7148 86.6149 63.4444 86.5646C55.1853 86.3936 46.9162 86.474 38.6571 86.474Z" fill="#92C0E9"/>
<path fill-rule="evenodd" clip-rule="evenodd" d="M27.7019 63.1307C27.7059 64.6864 27.2482 66.2084 26.3868 67.5039C25.5253 68.7993 24.2989 69.8101 22.8627 70.4083C21.4265 71.0064 19.8452 71.1649 18.3188 70.8639C16.7925 70.5628 15.3898 69.8156 14.2883 68.717C13.1868 67.6183 12.436 66.2175 12.1311 64.6919C11.8261 63.1664 11.9806 61.5846 12.575 60.1469C13.1695 58.7092 14.1771 57.4802 15.4704 56.6154C16.7637 55.7507 18.2844 55.2891 19.8402 55.2891C21.9222 55.2877 23.9196 56.1128 25.3936 57.5831C26.8677 59.0534 27.6979 61.0487 27.7019 63.1307Z" fill="#92C0E9"/>
<path fill-rule="evenodd" clip-rule="evenodd" d="M67.6645 60.0576C67.6645 62.2372 67.0182 64.3679 65.8072 66.1802C64.5963 67.9925 62.8751 69.4051 60.8614 70.2392C58.8476 71.0733 56.6318 71.2915 54.494 70.8663C52.3563 70.4411 50.3926 69.3915 48.8514 67.8502C47.3101 66.309 46.2605 64.3453 45.8353 62.2076C45.4101 60.0698 45.6283 57.854 46.4624 55.8402C47.2965 53.8265 48.7091 52.1053 50.5214 50.8944C52.3337 49.6834 54.4644 49.0371 56.644 49.0371C59.5668 49.0371 62.3699 50.1982 64.4367 52.2649C66.5034 54.3317 67.6645 57.1348 67.6645 60.0576Z" fill="#92C0E9"/>
<path d="M37.4098 72.7326C45.8963 72.7326 52.7761 65.8529 52.7761 57.3663C52.7761 48.8797 45.8963 42 37.4098 42C28.9232 42 22.0435 48.8797 22.0435 57.3663C22.0435 65.8529 28.9232 72.7326 37.4098 72.7326Z" fill="#92C0E9"/>
<path fill-rule="evenodd" clip-rule="evenodd" d="M105.188 108.711C101.279 108.711 97.3762 108.711 93.4679 108.711C90.8021 108.711 89.0668 107.343 87.9351 105.084C86.8687 102.921 87.3264 100.869 88.6895 98.978C89.9269 97.2528 91.7075 96.629 93.7496 96.5486C95.0171 96.4983 115.272 96.5234 116.419 96.5486C117.984 96.5788 119.482 96.8956 120.69 97.962C123.356 100.321 123.858 103.837 121.439 106.649C120.85 107.35 120.104 107.903 119.262 108.264C118.42 108.624 117.505 108.783 116.59 108.726C112.803 108.666 108.995 108.711 105.188 108.711Z" fill="#92C0E9"/>
<path fill-rule="evenodd" clip-rule="evenodd" d="M113.753 96.9918C113.753 98.7992 113.217 100.566 112.213 102.069C111.209 103.572 109.782 104.743 108.113 105.435C106.443 106.127 104.605 106.308 102.833 105.956C101.06 105.604 99.4316 104.734 98.1532 103.456C96.8749 102.178 96.004 100.55 95.6508 98.7779C95.2976 97.0054 95.4779 95.1679 96.1689 93.4979C96.8598 91.8278 98.0304 90.4001 99.5327 89.3952C101.035 88.3904 102.802 87.8535 104.609 87.8525C105.809 87.8519 106.998 88.0878 108.108 88.5468C109.217 89.0058 110.225 89.6789 111.075 90.5276C111.924 91.3763 112.597 92.3841 113.057 93.4932C113.517 94.6024 113.753 95.7912 113.753 96.9918Z" fill="#92C0E9"/>
<path fill-rule="evenodd" clip-rule="evenodd" d="M271.01 57.0707C265.756 57.0707 260.495 57.0707 255.241 57.0707C251.646 57.0707 249.31 55.2359 247.793 52.1959C246.358 49.2777 246.974 46.5221 248.809 43.9695C250.481 41.6472 252.871 40.8144 255.62 40.7061C257.326 40.6384 284.599 40.6722 286.142 40.7061C288.248 40.7399 290.259 41.1733 291.884 42.6086C295.479 45.7773 296.156 50.5168 292.899 54.3015C292.103 55.2425 291.099 55.9851 289.966 56.4705C288.833 56.9558 287.603 57.1706 286.372 57.0978C281.267 57.0098 276.135 57.0707 271.01 57.0707Z" fill="#92C0E9"/>
<path fill-rule="evenodd" clip-rule="evenodd" d="M282.541 41.3023C282.541 43.7354 281.819 46.1139 280.467 48.137C279.116 50.1601 277.194 51.737 274.946 52.6681C272.698 53.5992 270.225 53.8428 267.838 53.3682C265.452 52.8935 263.26 51.7218 261.539 50.0013C259.819 48.2808 258.647 46.0887 258.172 43.7023C257.698 41.3159 257.941 38.8423 258.873 36.5944C259.804 34.3464 261.38 32.4251 263.404 31.0733C265.427 29.7215 267.805 29 270.238 29C271.854 28.9991 273.454 29.3167 274.947 29.9346C276.44 30.5526 277.797 31.4587 278.939 32.6013C280.082 33.7438 280.988 35.1004 281.606 36.5933C282.224 38.0863 282.541 39.6865 282.541 41.3023Z" fill="#92C0E9"/>
<path d="M153.992 228.231C153.458 229.052 152.742 229.739 151.899 230.237C151.056 230.734 150.109 231.03 149.132 231.101C147.344 231.299 145.534 231.055 143.862 230.391C143.326 228.651 142.991 226.856 142.862 225.041C142.942 223.291 145.182 221.531 145.182 221.531L152.602 221.131L153.152 222.331C153.152 222.331 150.202 223.051 150.152 224.401C150.102 225.751 150.232 227.591 150.712 227.751C151.192 227.911 153.992 228.231 153.992 228.231Z" fill="white"/>
<path d="M199.725 85.0003L44 418.648L52.971 422.835L208.695 89.1873L199.725 85.0003Z" />
<path d="M86.3921 262.831L89.5721 257.741C89.5721 257.741 92.2721 247.571 96.2521 247.251C100.232 246.931 101.972 246.931 103.252 249.161C104.532 251.391 106.752 255.671 106.752 255.671L103.252 257.101C103.252 257.101 104.202 260.441 102.772 262.031C101.342 263.621 96.5821 265.691 96.5821 265.691L89.9021 268.231L86.3921 262.831Z" fill="white"/>
<path d="M88.4021 260.431L87.6821 258.991V251.771L93.3221 246.261H96.9921C96.9921 246.261 98.7721 247.581 98.3721 248.261C97.8356 248.982 97.233 249.652 96.5721 250.261L98.7721 250.911V254.831L100.012 257.701L98.7021 258.701C98.7021 258.701 98.0421 256.511 96.5721 256.511C95.1021 256.511 94.6321 257.421 95.2221 258.701C95.6332 259.525 96.2164 260.251 96.9321 260.831L96.5721 261.351L88.4021 260.431Z" fill="#231F20"/>
<path d="M102.642 253.831C102.642 254.096 102.537 254.351 102.349 254.538C102.162 254.726 101.907 254.831 101.642 254.831C101.377 254.831 101.123 254.726 100.935 254.538C100.747 254.351 100.642 254.096 100.642 253.831C100.642 253.566 100.747 253.311 100.935 253.124C101.123 252.936 101.377 252.831 101.642 252.831C101.907 252.831 102.162 252.936 102.349 253.124C102.537 253.311 102.642 253.566 102.642 253.831Z" fill="#231F20"/>
<path d="M190.132 233.101C189.753 231.655 189.46 230.19 189.252 228.711C189.457 228.209 189.756 227.751 190.132 227.361L193.882 225.681L200.262 220.021L206.962 224.48L205.232 227.831L204.762 231.98C204.762 231.98 201.962 240.361 200.372 241.081C198.782 241.801 191.912 242.191 191.912 242.191L186.332 235.09C186.332 235.09 185.612 234.571 186.332 234.311C187.052 234.051 190.132 233.101 190.132 233.101Z" fill="white"/>
<path d="M195.072 232.22L196.472 231.1C196.472 231.1 198.902 234.69 200.262 233.66C201.622 232.63 199.462 229.11 199.462 229.11L200.712 228.23L205.712 229.59C205.712 229.59 206.192 235.89 205.392 237.81C204.353 239.828 202.604 241.388 200.482 242.19C199.326 242.49 198.135 242.624 196.942 242.59L196.502 241C196.502 241 198.502 240 198.132 239.32C197.762 238.64 196.502 238.52 196.502 238.52C196.788 237.504 196.788 236.427 196.502 235.41C195.952 234.13 195.072 232.22 195.072 232.22Z" fill="#231F20"/>
<path d="M194.232 236.411C194.232 236.609 194.173 236.802 194.063 236.967C193.954 237.131 193.797 237.259 193.615 237.335C193.432 237.411 193.231 237.431 193.037 237.392C192.843 237.353 192.665 237.258 192.525 237.118C192.385 236.978 192.29 236.8 192.251 236.606C192.213 236.412 192.232 236.211 192.308 236.028C192.384 235.846 192.512 235.69 192.676 235.58C192.841 235.47 193.034 235.411 193.232 235.411C193.497 235.411 193.751 235.516 193.939 235.704C194.127 235.892 194.232 236.146 194.232 236.411Z" fill="#231F20"/>
<path d="M153.992 220.571L154.992 229.511L178.042 224.511L195.992 225.071L205.782 228.901L208.782 226.171C208.782 226.171 218.992 222.441 220.272 221.171C221.552 219.901 227.212 207.771 227.212 207.771L237.582 186.231L234.072 185.671L204.232 188.271L204.632 195.211L192.342 188.661L187.952 194.891L199.602 203.981L193.782 213.241L179.982 213.391L169.452 215.391L153.992 220.571Z" fill="#231F20"/>
<path d="M233.602 188.901L234.322 177.501L225.552 151.571L228.232 122.621L226.952 122.141L227.352 120.941C227.903 120.161 228.384 119.335 228.792 118.471C229.262 117.351 226.392 116.001 226.392 116.001L218.342 112.001H207.762V115.351C209.806 116.074 211.781 116.981 213.662 118.061C214.807 118.841 216.038 119.485 217.332 119.981L216.532 120.611L212.462 120.291L212.062 127.231C212.062 127.231 212.622 153.801 212.622 154.041C212.622 154.281 215.622 172.461 215.622 172.461L197.682 175.731L196.482 153.481L193.772 153.001V150.831C193.772 150.831 178.212 151.071 177.092 150.991C176.782 150.94 176.465 150.952 176.16 151.025C175.855 151.099 175.567 151.233 175.315 151.419C175.062 151.605 174.849 151.841 174.689 152.111C174.529 152.381 174.424 152.68 174.382 152.991C174.394 153.471 174.524 153.94 174.762 154.357C174.999 154.774 175.336 155.126 175.742 155.381L181.562 155.621L181.802 156.901L180.052 157.141L182.952 183.831L195.832 187.341L206.402 189.491L233.602 188.901Z" fill="#231F20"/>
<path d="M232.048 85.0042L76.3237 418.652L85.2947 422.839L241.019 89.1912L232.048 85.0042Z" />
<path d="M100.672 377.371H67.4722V382.731H100.672V377.371Z" />
<path d="M119.362 338.761H86.1621V344.121H119.362V338.761Z" />
<path d="M132.562 300.161H99.3618V305.521H132.562V300.161Z" />
<path d="M153.222 261.551H120.022V266.911H153.222V261.551Z" />
<path d="M169.822 222.94H136.622V228.3H169.822V222.94Z" />
<path d="M188.942 184.331H155.742V189.691H188.942V184.331Z" />
<path d="M208.802 145.73H175.602V151.09H208.802V145.73Z" />
<path d="M225.402 107.121H192.202V112.481H225.402V107.121Z" />
<path d="M102.762 299.701C102.762 299.701 104.032 300.65 107.692 301.29C110.437 301.65 113.217 301.65 115.962 301.29V298.751C114.548 298.043 113.054 297.509 111.512 297.16C109.602 296.84 105.152 296.521 105.152 296.521L102.762 299.701Z" fill="white"/>
<path d="M136.622 262.03L142.022 258.69C142.022 258.69 147.742 258.69 147.902 259.33C147.985 260.229 147.985 261.132 147.902 262.03H145.362C145.362 262.03 145.202 265.21 143.772 265.69C142.342 266.17 136.622 267.44 136.622 267.44V262.03Z" fill="white"/>
<path d="M64.1422 305.421L55.7222 302.881C55.7222 302.881 70.2322 270.141 72.5722 268.231C74.9122 266.321 84.0122 263.831 84.0122 263.831L86.3922 260.651L94.9822 263.991L115.982 265.261L136.642 259.541L140.452 263.111L139.342 269.231L118.522 276.231L98.1022 276.701L92.9322 285.451L106.762 296.571C106.691 297.85 106.12 299.049 105.172 299.911C103.582 301.341 100.402 300.911 100.402 300.911L88.6422 293.911V304.401L64.1422 305.421Z" fill="#020100"/>
<path d="M186.942 183.001H179.042C179.042 183.001 176.332 188.001 175.932 188.901C175.532 189.801 176.172 190.181 177.522 190.901C179.046 191.541 180.621 192.049 182.232 192.421L186.942 183.321" fill="white"/>
<path d="M68.2322 374.4L63.4722 372.02L65.8522 366.61L78.0922 365.98C78.0922 365.98 76.1822 368.52 78.0922 370.19C80.0022 371.86 81.2722 373.29 83.4922 373.29C85.7122 373.29 85.4022 375.04 85.7222 376.15C85.9129 376.773 85.9129 377.438 85.7222 378.06H74.7022C74.7022 378.06 71.4522 373.45 70.8222 372.81C70.1922 372.17 69.7022 373.13 69.7022 373.13L68.2322 374.4Z" fill="#010200"/>
<path d="M63.5117 367.091L80.5117 369.631V334.031L77.0217 317.341L98.3117 313.341L96.5617 336.341L112.782 332.211L109.362 303.921L88.7817 301.501L85.9017 294.501L59.2317 302.721C59.2317 302.721 59.0817 306.221 59.2317 310.831C59.3817 315.441 59.3917 314.481 61.4617 319.881C63.5317 325.281 67.0217 336.261 67.0217 336.261L63.5117 367.091Z" fill="#010200"/>
<path d="M98.772 334.531V340.451L104.612 341.081L105.242 339.651H107.932L109.362 341.451L119.782 339.451C119.782 339.451 120.502 334.961 118.972 334.511C117.442 334.061 110.262 333.701 110.262 333.701L109.362 331.101L98.772 334.531Z" fill="#010200"/>
</svg>
