<svg width="692" height="411" viewBox="0 0 692 411" xmlns="http://www.w3.org/2000/svg">
<g clip-path="url(#clip0)">
<path d="M208.68 19.2999C207.111 19.356 205.56 18.9491 204.22 18.1299C203.024 17.351 202.088 16.2334 201.53 14.9199C200.909 13.4566 200.602 11.8792 200.63 10.2899V10.0399C200.605 8.44023 200.925 6.854 201.57 5.38986C202.154 4.09229 203.089 2.98389 204.27 2.18986C205.521 1.38692 206.984 0.979224 208.47 1.01986C209.543 1.00836 210.61 1.18782 211.62 1.54986C212.489 1.86101 213.295 2.32498 214 2.91986V6.74986H212.08L211.82 3.94986C211.549 3.73606 211.249 3.56105 210.93 3.42986C210.564 3.2899 210.186 3.18607 209.8 3.11986C209.361 3.04092 208.916 3.00408 208.47 3.00986C207.399 2.96917 206.345 3.28192 205.47 3.89986C204.641 4.54021 204.007 5.39906 203.64 6.37986C203.209 7.54062 202.999 8.77178 203.02 10.0099V10.2899C202.987 11.5942 203.211 12.8922 203.68 14.1099C204.068 15.0937 204.749 15.9349 205.63 16.5199C206.56 17.0941 207.638 17.3827 208.73 17.3499C209.293 17.3509 209.854 17.2803 210.4 17.1399C210.877 17.0307 211.335 16.8521 211.76 16.6099L212.03 14.1299H213.91V17.9799C213.171 18.4371 212.364 18.7746 211.52 18.9799C210.59 19.2047 209.636 19.3122 208.68 19.2999Z" fill="#76777A"/>
<path d="M219.76 19.0498V17.5098L221.76 17.1698V7.70984H219L218.81 9.76984H216.76V5.83984H229.26V9.76984H227.2L227 7.70984H224.16V17.1698L226.16 17.5098V19.0498H219.76Z" fill="#76777A"/>
<path d="M230.8 24.1198V22.5698L232.66 22.2298V7.72976L230.66 7.38976V5.83976H234.72L235 7.44976C235.416 6.86904 235.965 6.39594 236.6 6.06976C237.282 5.73804 238.032 5.5735 238.79 5.58976C239.797 5.56481 240.783 5.87818 241.59 6.47976C242.399 7.12549 243.012 7.98441 243.36 8.95976C243.787 10.1561 243.993 11.4198 243.97 12.6898V12.9398C243.992 14.0836 243.781 15.22 243.35 16.2798C242.985 17.1711 242.375 17.9408 241.59 18.4998C240.777 19.0493 239.811 19.3291 238.83 19.2998C238.096 19.3185 237.366 19.1787 236.69 18.8898C236.053 18.6262 235.495 18.2025 235.07 17.6598V22.2098L237.17 22.5498V24.0998L230.8 24.1198ZM238.03 17.4198C238.531 17.4461 239.031 17.3464 239.483 17.1298C239.936 16.9131 240.326 16.5865 240.62 16.1798C241.246 15.2187 241.554 14.0853 241.5 12.9398V12.6598C241.516 11.7545 241.384 10.8527 241.11 9.98976C240.905 9.30825 240.522 8.69378 240 8.20976C239.439 7.74777 238.726 7.51234 238 7.54976C237.381 7.53131 236.771 7.69098 236.24 8.00976C235.745 8.32542 235.338 8.76264 235.06 9.27976V15.7098C235.336 16.2585 235.768 16.7134 236.302 17.0176C236.836 17.3218 237.447 17.4617 238.06 17.4198H238.03Z" fill="#76777A"/>
<path d="M250.57 19.3002C249.434 19.381 248.31 19.0231 247.43 18.3002C247.063 17.9279 246.778 17.4828 246.594 16.9936C246.41 16.5044 246.33 15.9821 246.36 15.4602C246.343 14.6741 246.585 13.9043 247.05 13.2702C247.563 12.6017 248.257 12.0949 249.05 11.8102C250.049 11.4446 251.107 11.2682 252.17 11.2902H254.53V10.0002C254.549 9.65743 254.494 9.31462 254.368 8.99529C254.242 8.67596 254.048 8.38767 253.8 8.15019C253.238 7.68992 252.525 7.45471 251.8 7.49019C251.309 7.47728 250.819 7.54484 250.35 7.69019C249.956 7.82051 249.582 8.00566 249.24 8.24019L249 10.0902H247.14V7.0902C247.757 6.59705 248.463 6.22702 249.22 6.00019C250.069 5.73953 250.952 5.61135 251.84 5.62019C253.193 5.54478 254.529 5.95233 255.61 6.77019C256.073 7.17874 256.437 7.68727 256.674 8.25727C256.912 8.82727 257.016 9.44381 256.98 10.0602V16.4202C256.98 16.5902 256.98 16.7502 256.98 16.9202C256.97 17.08 256.97 17.2403 256.98 17.4002L258.26 17.5402V19.0802H254.8C254.73 18.7202 254.67 18.4002 254.63 18.0802C254.589 17.7985 254.562 17.5147 254.55 17.2302C254.07 17.8304 253.479 18.3328 252.81 18.7102C252.129 19.1029 251.356 19.3066 250.57 19.3002ZM250.92 17.3002C251.689 17.3101 252.447 17.1095 253.11 16.7202C253.701 16.4043 254.193 15.9299 254.53 15.3502V12.9502H252.08C251.178 12.8851 250.285 13.1718 249.59 13.7502C249.336 13.9713 249.131 14.2429 248.988 14.5477C248.845 14.8524 248.768 15.1837 248.76 15.5202C248.744 15.7668 248.784 16.0137 248.878 16.2424C248.972 16.4711 249.116 16.6755 249.3 16.8402C249.769 17.1782 250.344 17.3377 250.92 17.2902V17.3002Z" fill="#76777A"/>
<path d="M260.4 19.0498V17.5098L262.4 17.1698V7.72984L260.4 7.38984V5.83984H266.78V7.38984L264.78 7.72984V11.5498H270.65V7.72984L268.65 7.38984V5.83984H275.05V7.38984L273.05 7.72984V17.1698L275.05 17.5098V19.0498H268.65V17.5098L270.65 17.1698V13.4298H264.78V17.1698L266.78 17.5098V19.0498H260.4Z" fill="#76777A"/>
<path d="M277.43 19.0498V17.5098L279.43 17.1698V7.72982L277.43 7.38982V5.83982H283.8V7.38982L281.8 7.72982V15.1898H281.87L287.69 5.81982H292.09V7.38982L290.09 7.72982V17.1698L292.09 17.5098V19.0498H285.71V17.5098L287.71 17.1698V9.65982H287.64L281.82 19.0398L277.43 19.0498Z" fill="#76777A"/>
<path d="M306.06 22.9598V19.0498H294.14V17.5098L296.14 17.1698V7.72984L294.14 7.38984V5.83984H300.52V7.38984L298.52 7.72984V17.1698H304.41V7.72984L302.41 7.38984V5.83984H308.79V7.38984L306.79 7.73984V17.1698H308.41L308.18 22.9598H306.06Z" fill="#76777A"/>
<path d="M315.09 19.3002C313.954 19.3841 312.829 19.0258 311.95 18.3002C311.58 17.9299 311.292 17.4853 311.106 16.9958C310.92 16.5063 310.839 15.983 310.87 15.4602C310.853 14.6741 311.095 13.9043 311.56 13.2702C312.075 12.6041 312.769 12.0978 313.56 11.8102C314.559 11.4446 315.617 11.2682 316.68 11.2902H319V10.0002C319.021 9.65721 318.966 9.3138 318.84 8.99416C318.714 8.67452 318.52 8.38643 318.27 8.15019C317.709 7.6882 316.996 7.45277 316.27 7.49019C315.782 7.47783 315.296 7.54539 314.83 7.69019C314.434 7.81639 314.06 8.00183 313.72 8.24019L313.46 10.0902H311.61V7.0902C312.222 6.59456 312.925 6.22419 313.68 6.00019C314.532 5.7396 315.419 5.61144 316.31 5.62019C317.663 5.54478 318.999 5.95233 320.08 6.77019C320.543 7.17874 320.907 7.68727 321.144 8.25727C321.382 8.82727 321.486 9.44381 321.45 10.0602V16.9202V17.4002L322.73 17.5402V19.0802H319.28C319.21 18.7202 319.15 18.4002 319.11 18.0802C319.07 17.7602 319.04 17.5102 319.02 17.2302C318.546 17.8357 317.954 18.3391 317.28 18.7102C316.615 19.0962 315.859 19.2997 315.09 19.3002ZM315.44 17.3002C316.206 17.3113 316.961 17.1106 317.62 16.7202C318.2 16.3982 318.678 15.9201 319 15.3402V12.9402H316.6C315.697 12.8708 314.803 13.158 314.11 13.7402C313.854 13.9596 313.648 14.2309 313.505 14.536C313.362 14.8412 313.285 15.1732 313.28 15.5102C313.264 15.7568 313.304 16.0037 313.398 16.2324C313.492 16.4611 313.636 16.6655 313.82 16.8302C314.286 17.175 314.862 17.3385 315.44 17.2902V17.3002Z" fill="#76777A"/>
<path d="M331.13 19.0498V17.5098L333.13 17.1698V7.72984L331.13 7.38984V5.83984H337.51V7.38984L335.51 7.72984V11.5498H341.38V7.72984L339.38 7.38984V5.83984H345.78V7.38984L343.78 7.72984V17.1698L345.78 17.5098V19.0498H339.38V17.5098L341.38 17.1698V13.4298H335.51V17.1698L337.51 17.5098V19.0498H331.13Z" fill="#76777A"/>
<path d="M353.89 19.3001C352.773 19.3248 351.672 19.0373 350.71 18.4701C349.802 17.9102 349.073 17.1016 348.61 16.1401C348.1 15.0663 347.847 13.8886 347.87 12.7001V12.1601C347.851 10.9931 348.119 9.83924 348.65 8.8001C349.128 7.85595 349.837 7.04767 350.71 6.4501C351.542 5.88652 352.525 5.58682 353.53 5.5901C354.579 5.55216 355.619 5.80848 356.53 6.3301C357.328 6.81267 357.96 7.52804 358.34 8.3801C358.767 9.36354 358.975 10.4282 358.95 11.5001V13.0001H350.38V13.0701C350.378 13.8417 350.528 14.6061 350.82 15.3201C351.063 15.933 351.471 16.4663 352 16.8601C352.557 17.2456 353.223 17.4419 353.9 17.4201C354.628 17.4358 355.353 17.3207 356.04 17.0801C356.63 16.8471 357.172 16.5082 357.64 16.0801L358.58 17.6401C358.034 18.1417 357.395 18.5323 356.7 18.7901C355.806 19.1427 354.851 19.316 353.89 19.3001ZM350.44 11.1201H356.53V10.8101C356.544 10.222 356.428 9.63817 356.19 9.1001C355.98 8.61704 355.632 8.20661 355.19 7.9201C354.69 7.61831 354.113 7.46887 353.53 7.4901C353.002 7.48287 352.486 7.64786 352.06 7.9601C351.615 8.29751 351.252 8.73181 351 9.2301C350.708 9.80285 350.519 10.4222 350.44 11.0601V11.1201Z" fill="#76777A"/>
<path d="M367.29 19.0498V17.5098L369.29 17.1698V7.72984L367.29 7.38984V5.83984H373.68V7.38984L371.68 7.72984V11.5498H377.55V7.72984L375.55 7.38984V5.83984H382V7.38984L380 7.72984V17.1698L382 17.5098V19.0498H375.6V17.5098L377.6 17.1698V13.4298H371.73V17.1698L373.73 17.5098V19.0498H367.29Z" fill="#76777A"/>
<path d="M388.32 19.3002C387.184 19.3841 386.059 19.0258 385.18 18.3002C384.81 17.9299 384.522 17.4853 384.336 16.9958C384.15 16.5063 384.069 15.983 384.1 15.4602C384.083 14.6741 384.325 13.9043 384.79 13.2702C385.305 12.6041 385.999 12.0978 386.79 11.8102C387.789 11.4446 388.847 11.2682 389.91 11.2902H392.27V10.0002C392.291 9.65721 392.236 9.3138 392.11 8.99416C391.984 8.67452 391.79 8.38643 391.54 8.15019C390.979 7.6882 390.266 7.45277 389.54 7.49019C389.052 7.47783 388.566 7.54539 388.1 7.69019C387.704 7.81639 387.33 8.00183 386.99 8.24019L386.73 10.0902H384.88V7.0902C385.492 6.59456 386.195 6.22419 386.95 6.00019C387.802 5.7396 388.689 5.61144 389.58 5.62019C390.933 5.54478 392.269 5.95233 393.35 6.77019C393.812 7.17924 394.174 7.68811 394.41 8.25818C394.645 8.82825 394.748 9.44452 394.71 10.0602V16.4202C394.71 16.5902 394.71 16.7502 394.71 16.9202V17.4002L395.99 17.5402V19.0802H392.54C392.47 18.7202 392.41 18.4002 392.37 18.0802C392.33 17.7602 392.3 17.5102 392.28 17.2302C391.806 17.8357 391.214 18.3391 390.54 18.7102C389.866 19.1013 389.099 19.305 388.32 19.3002ZM388.67 17.3002C389.436 17.3113 390.191 17.1106 390.85 16.7202C391.443 16.4069 391.936 15.9319 392.27 15.3502V12.9502H389.83C388.927 12.8808 388.033 13.168 387.34 13.7502C387.084 13.9696 386.878 14.2409 386.735 14.546C386.592 14.8512 386.515 15.1832 386.51 15.5202C386.494 15.7668 386.534 16.0137 386.628 16.2424C386.721 16.4711 386.866 16.6755 387.05 16.8402C387.518 17.1815 388.093 17.3414 388.67 17.2902V17.3002Z" fill="#76777A"/>
<path d="M398.14 19.05V17.51L400.14 17.17V7.72996L398.14 7.38996V5.83996H404.51V7.38996L402.51 7.72996V15.19H402.59L408.41 5.81996H412.8V7.38996L410.8 7.72996V17.17L412.8 17.51V19.05H406.42V17.51L408.42 17.17V9.65996H408.35L402.52 19.04L398.14 19.05ZM405.55 3.51996C404.528 3.56737 403.528 3.20781 402.77 2.51996C402.437 2.20116 402.176 1.81516 402.003 1.38757C401.831 0.959988 401.751 0.500615 401.77 0.0399611V-0.0400391H403.6C403.576 0.478071 403.744 0.986833 404.07 1.38996C404.473 1.74503 404.993 1.94089 405.53 1.94089C406.067 1.94089 406.587 1.74503 406.99 1.38996C407.323 0.990145 407.495 0.479896 407.47 -0.0400391H409.31V0.0399611C409.324 0.500001 409.242 0.957895 409.07 1.38475C408.898 1.8116 408.639 2.19813 408.31 2.51996C407.557 3.20283 406.566 3.56204 405.55 3.51996Z" fill="#76777A"/>
<path d="M415 22.9298L414.76 17.1698H415.76C416.085 16.8021 416.382 16.411 416.65 15.9998C416.915 15.5981 417.137 15.169 417.31 14.7198C417.516 14.186 417.67 13.6334 417.77 13.0698C417.906 12.323 417.992 11.568 418.03 10.8098L418.15 7.71984L416.24 7.38984V5.83984H428.85V7.38984L426.85 7.72984V17.1698H428.61L428.36 22.9298H426.2V19.0498H417.2V22.9298H415ZM418.57 17.1698H424.49V7.96984H420.59L420.48 10.8098C420.424 12.0776 420.212 13.3336 419.85 14.5498C419.581 15.4844 419.162 16.3692 418.61 17.1698H418.57Z" fill="#76777A"/>
<path d="M436.84 19.2998C435.72 19.3264 434.615 19.0389 433.65 18.4698C432.747 17.9067 432.022 17.0987 431.56 16.1398C431.05 15.066 430.797 13.8883 430.82 12.6998V12.1598C430.801 10.9928 431.069 9.83896 431.6 8.79982C432.075 7.85344 432.784 7.04441 433.66 6.44982C434.489 5.88816 435.468 5.58855 436.47 5.58982C437.519 5.55347 438.558 5.80968 439.47 6.32982C440.266 6.81532 440.897 7.52983 441.28 8.37982C441.707 9.36325 441.915 10.4279 441.89 11.4998V12.9998H433.32V13.0698C433.326 13.8416 433.479 14.6051 433.77 15.3198C434.02 15.937 434.44 16.4709 434.98 16.8598C435.541 17.2454 436.21 17.4416 436.89 17.4198C437.618 17.4355 438.343 17.3204 439.03 17.0798C439.617 16.8468 440.156 16.5078 440.62 16.0798L441.56 17.6398C441.019 18.1434 440.384 18.5343 439.69 18.7898C438.783 19.1468 437.814 19.3202 436.84 19.2998ZM433.38 11.1198H439.47V10.8098C439.48 10.2231 439.368 9.64059 439.14 9.09982C438.93 8.61675 438.582 8.20632 438.14 7.91982C437.637 7.61614 437.057 7.46662 436.47 7.48982C435.945 7.48257 435.432 7.64768 435.01 7.95982C434.554 8.29382 434.181 8.72839 433.92 9.22982C433.628 9.80256 433.439 10.4219 433.36 11.0598L433.38 11.1198Z" fill="#76777A"/>
<path d="M444 19.0498V17.5098L446 17.1698V7.72984L444 7.38984V5.83984H450.38V7.38984L448.38 7.72984V11.5498H454.25V7.72984L452.25 7.38984V5.83984H458.65V7.38984L456.65 7.72984V17.1698L458.65 17.5098V19.0498H452.25V17.5098L454.25 17.1698V13.4298H448.38V17.1698L450.38 17.5098V19.0498H444Z" fill="#76777A"/>
<path d="M465.05 19.2997C463.914 19.3815 462.79 19.0235 461.91 18.2997C461.543 17.9274 461.258 17.4823 461.074 16.9931C460.89 16.504 460.81 15.9816 460.84 15.4597C460.823 14.6737 461.065 13.9038 461.53 13.2697C462.044 12.602 462.738 12.0954 463.53 11.8097C464.532 11.4433 465.593 11.267 466.66 11.2897H469V9.99973C469.021 9.65765 468.967 9.3151 468.843 8.99571C468.719 8.67633 468.527 8.3877 468.28 8.14973C467.715 7.69526 467.005 7.4608 466.28 7.48973C465.792 7.47737 465.306 7.54493 464.84 7.68973C464.444 7.81593 464.07 8.00137 463.73 8.23973L463.47 10.0897H461.62V7.08973C462.234 6.59667 462.936 6.22658 463.69 5.99973C464.542 5.73914 465.429 5.61098 466.32 5.61973C467.639 5.55704 468.939 5.95276 470 6.73973C470.463 7.14828 470.827 7.65681 471.064 8.22681C471.302 8.79681 471.406 9.41335 471.37 10.0297V16.8897C471.37 17.0497 471.37 17.2097 471.37 17.3697L472.65 17.5097V19.0497H469.19C469.12 18.6897 469.06 18.3697 469.02 18.0497C468.979 17.768 468.952 17.4843 468.94 17.1997C468.46 17.7999 467.869 18.3024 467.2 18.6797C466.549 19.0678 465.808 19.2813 465.05 19.2997ZM465.4 17.2997C466.169 17.3096 466.927 17.1091 467.59 16.7197C468.182 16.4035 468.671 15.9247 469 15.3397V12.9397H466.56C465.658 12.8746 464.765 13.1613 464.07 13.7397C463.816 13.9608 463.611 14.2324 463.468 14.5372C463.325 14.842 463.248 15.1732 463.24 15.5097C463.224 15.7563 463.264 16.0032 463.358 16.2319C463.452 16.4606 463.596 16.665 463.78 16.8297C464.248 17.1713 464.822 17.3344 465.4 17.2897V17.2997Z" fill="#76777A"/>
<path d="M293.82 97.9493V93.7193L299.29 92.7793V86.6593H277.29V82.9393L298.84 49.0693H305.84V81.4993H312.59V86.6593H305.84V92.7693L311.31 93.7093V97.9393L293.82 97.9493ZM284.38 81.4993H299.29V58.4993L299.09 58.4293L298.42 60.2093L284.38 81.4993Z" />
<path d="M334.71 98.6596C332.557 98.7541 330.411 98.3524 328.437 97.4854C326.464 96.6185 324.717 95.3095 323.33 93.6596C320.53 90.3262 319.13 85.5496 319.13 79.3296V67.7396C319.13 61.5196 320.517 56.7362 323.29 53.3896C324.734 51.8081 326.492 50.5449 328.451 49.6807C330.41 48.8165 332.528 48.3701 334.67 48.3701C336.811 48.3701 338.929 48.8165 340.889 49.6807C342.848 50.5449 344.606 51.8081 346.05 53.3896C348.85 56.7229 350.25 61.5062 350.25 67.7396V79.3196C350.25 85.5596 348.863 90.3429 346.09 93.6696C344.702 95.3176 342.954 96.6247 340.981 97.4899C339.008 98.3552 336.862 98.7553 334.71 98.6596ZM334.71 93.4896C336.003 93.5615 337.293 93.3027 338.458 92.7375C339.624 92.1724 340.626 91.3195 341.37 90.2596C342.877 88.1129 343.63 84.9129 343.63 80.6596V66.3296C343.63 62.0996 342.87 58.9096 341.34 56.7796C340.582 55.7255 339.571 54.8791 338.4 54.3181C337.229 53.7572 335.936 53.4998 334.64 53.5696C333.352 53.497 332.066 53.7535 330.904 54.3151C329.743 54.8767 328.743 55.7248 328 56.7796C326.47 58.9096 325.71 62.0996 325.71 66.3296V80.6596C325.71 84.8862 326.483 88.0829 328.03 90.2496C328.778 91.3109 329.783 92.165 330.952 92.7317C332.12 93.2983 333.413 93.5591 334.71 93.4896Z" />
<path d="M372.87 97.9493V93.7193L378.35 92.7793V86.6593H356.35V82.9393L377.9 49.0693H384.9V81.4993H391.64V86.6593H384.9V92.7693L390.37 93.7093V97.9393L372.87 97.9493ZM363.44 81.4993H378.35V58.4993L378.14 58.4293L377.47 60.2093L363.44 81.4993Z" />
<path d="M481.76 216.06C481.227 216.881 480.51 217.568 479.667 218.066C478.824 218.564 477.877 218.859 476.9 218.93C475.112 219.128 473.302 218.884 471.63 218.22C471.094 216.48 470.759 214.686 470.63 212.87C470.71 211.12 472.95 209.36 472.95 209.36L480.37 208.96L480.92 210.16C480.92 210.16 477.97 210.88 477.92 212.23C477.87 213.58 478 215.42 478.48 215.58C478.96 215.74 481.76 216.06 481.76 216.06Z" fill="white"/>
<path d="M527.493 72.8294L371.768 406.478L380.739 410.665L536.464 77.0164L527.493 72.8294Z" />
<path d="M414.16 250.66L417.34 245.57C417.34 245.57 420.04 235.4 424.02 235.08C428 234.76 429.74 234.76 431.02 236.99C432.3 239.22 434.52 243.5 434.52 243.5L431.02 244.93C431.02 244.93 431.97 248.27 430.54 249.86C429.11 251.45 424.35 253.52 424.35 253.52L417.67 256.06L414.16 250.66Z" fill="white"/>
<path d="M416.17 248.26L415.45 246.82V239.6L421.09 234.09H424.76C424.76 234.09 426.54 235.41 426.14 236.09C425.603 236.811 425.001 237.481 424.34 238.09L426.54 238.74V242.66L427.78 245.53L426.47 246.53C426.47 246.53 425.81 244.34 424.34 244.34C422.87 244.34 422.4 245.25 422.99 246.53C423.401 247.354 423.984 248.08 424.7 248.66L424.34 249.18L416.17 248.26Z" fill="#231F20"/>
<path d="M430.41 241.66C430.41 241.925 430.305 242.18 430.117 242.367C429.93 242.555 429.675 242.66 429.41 242.66C429.145 242.66 428.89 242.555 428.703 242.367C428.515 242.18 428.41 241.925 428.41 241.66C428.41 241.395 428.515 241.141 428.703 240.953C428.89 240.766 429.145 240.66 429.41 240.66C429.675 240.66 429.93 240.766 430.117 240.953C430.305 241.141 430.41 241.395 430.41 241.66Z" fill="#231F20"/>
<path d="M517.9 220.93C517.522 219.485 517.228 218.019 517.02 216.54C517.225 216.039 517.524 215.58 517.9 215.19L521.65 213.51L528.03 207.85L534.73 212.31L533 215.66L532.53 219.81C532.53 219.81 529.73 228.19 528.14 228.91C526.55 229.63 519.68 230.02 519.68 230.02L514.1 222.92C514.1 222.92 513.38 222.4 514.1 222.14C514.82 221.88 517.9 220.93 517.9 220.93Z" fill="white"/>
<path d="M522.84 220.05L524.24 218.93C524.24 218.93 526.67 222.52 528.03 221.49C529.39 220.46 527.23 216.94 527.23 216.94L528.48 216.06L533.48 217.42C533.48 217.42 533.96 223.72 533.16 225.64C532.122 227.657 530.372 229.218 528.25 230.02C527.095 230.319 525.903 230.454 524.71 230.42L524.27 228.83C524.27 228.83 526.27 227.83 525.9 227.15C525.53 226.47 524.27 226.35 524.27 226.35C524.557 225.333 524.557 224.257 524.27 223.24C523.72 221.96 522.84 220.05 522.84 220.05Z" fill="#231F20"/>
<path d="M522 224.24C522 224.438 521.941 224.631 521.831 224.795C521.722 224.96 521.565 225.088 521.383 225.164C521.2 225.239 520.999 225.259 520.805 225.221C520.611 225.182 520.433 225.087 520.293 224.947C520.153 224.807 520.058 224.629 520.019 224.435C519.981 224.241 520 224.04 520.076 223.857C520.152 223.674 520.28 223.518 520.444 223.408C520.609 223.298 520.802 223.24 521 223.24C521.265 223.24 521.52 223.345 521.707 223.533C521.895 223.72 522 223.975 522 224.24Z" fill="#231F20"/>
<path d="M481.76 208.4L482.76 217.34L505.81 212.34L523.76 212.9L533.55 216.73L536.55 214C536.55 214 546.76 210.27 548.04 209C549.32 207.73 554.98 195.6 554.98 195.6L565.35 174.06L561.84 173.5L532 176.1L532.4 183.04L520.11 176.49L515.72 182.72L527.37 191.81L521.55 201.07L507.75 201.22L497.22 203.22L481.76 208.4Z" fill="#231F20"/>
<path d="M561.37 176.73L562.09 165.33L553.32 139.4L556 110.45L554.72 109.97L555.12 108.77C555.671 107.99 556.153 107.164 556.56 106.3C557.03 105.18 554.16 103.83 554.16 103.83L546.11 99.8301H535.53V103.18C537.575 103.903 539.549 104.81 541.43 105.89C542.575 106.67 543.806 107.314 545.1 107.81L544.3 108.44L540.23 108.12L539.83 115.06C539.83 115.06 540.39 141.63 540.39 141.87C540.39 142.11 543.39 160.29 543.39 160.29L525.45 163.56L524.25 141.31L521.54 140.83V138.66C521.54 138.66 505.98 138.9 504.86 138.82C504.55 138.769 504.233 138.781 503.928 138.854C503.623 138.928 503.335 139.062 503.083 139.248C502.83 139.434 502.618 139.67 502.457 139.94C502.297 140.21 502.193 140.509 502.15 140.82C502.162 141.3 502.293 141.769 502.53 142.186C502.767 142.603 503.104 142.955 503.51 143.21L509.33 143.45L509.57 144.73L507.82 144.97L510.72 171.66L523.6 175.17L534.17 177.32L561.37 176.73Z" fill="#231F20"/>
<path d="M559.816 72.8333L404.092 406.481L413.063 410.668L568.787 77.0203L559.816 72.8333Z" />
<path d="M428.44 365.2H395.24V370.56H428.44V365.2Z" />
<path d="M447.13 326.59H413.93V331.95H447.13V326.59Z" />
<path d="M460.33 287.99H427.13V293.35H460.33V287.99Z" />
<path d="M480.99 249.38H447.79V254.74H480.99V249.38Z" />
<path d="M497.59 210.77H464.39V216.13H497.59V210.77Z" />
<path d="M516.71 172.16H483.51V177.52H516.71V172.16Z" />
<path d="M536.57 133.56H503.37V138.92H536.57V133.56Z" />
<path d="M553.17 94.9502H519.97V100.31H553.17V94.9502Z" />
<path d="M430.53 287.53C430.53 287.53 431.8 288.48 435.46 289.12C438.205 289.479 440.985 289.479 443.73 289.12V286.58C442.316 285.872 440.822 285.338 439.28 284.99C437.37 284.67 432.92 284.35 432.92 284.35L430.53 287.53Z" fill="white"/>
<path d="M464.39 249.86L469.79 246.52C469.79 246.52 475.51 246.52 475.67 247.16C475.753 248.058 475.753 248.962 475.67 249.86H473.13C473.13 249.86 472.97 253.04 471.54 253.52C470.11 254 464.39 255.27 464.39 255.27V249.86Z" fill="white"/>
<path d="M391.91 293.25L383.49 290.71C383.49 290.71 398 257.97 400.34 256.06C402.68 254.15 411.78 251.66 411.78 251.66L414.16 248.48L422.75 251.82L443.75 253.09L464.41 247.37L468.22 250.94L467.11 257.06L446.29 264.06L425.87 264.53L420.7 273.28L434.53 284.4C434.459 285.679 433.888 286.879 432.94 287.74C431.35 289.17 428.17 288.74 428.17 288.74L416.41 281.74V292.23L391.91 293.25Z" fill="#020100"/>
<path d="M514.71 170.83H506.81C506.81 170.83 504.1 175.83 503.7 176.73C503.3 177.63 503.94 178.01 505.29 178.73C506.814 179.37 508.39 179.879 510 180.25L514.71 171.15" fill="white"/>
<path d="M396 362.23L391.24 359.85L393.62 354.44L405.86 353.81C405.86 353.81 403.95 356.35 405.86 358.02C407.77 359.69 409.04 361.12 411.26 361.12C413.48 361.12 413.17 362.87 413.49 363.98C413.681 364.602 413.681 365.268 413.49 365.89H402.47C402.47 365.89 399.22 361.28 398.59 360.64C397.96 360 397.47 360.96 397.47 360.96L396 362.23Z" fill="#010200"/>
<path d="M391.28 354.92L408.28 357.46V321.86L404.79 305.17L426.08 301.17L424.33 324.17L440.55 320.04L437.13 291.75L416.55 289.33L413.67 282.33L387 290.55C387 290.55 386.85 294.05 387 298.66C387.15 303.27 387.16 302.31 389.23 307.71C391.3 313.11 394.79 324.09 394.79 324.09L391.28 354.92Z" fill="#010200"/>
<path d="M426.54 322.36V328.28L432.38 328.91L433.01 327.48H435.7L437.13 329.28L447.55 327.28C447.55 327.28 448.27 322.79 446.74 322.34C445.21 321.89 438.03 321.53 438.03 321.53L437.13 318.93L426.54 322.36Z" fill="#010200"/>
<path fill-rule="evenodd" clip-rule="evenodd" d="M76.88 120.66C60.03 120.66 43.18 120.57 26.33 120.66C14.82 120.74 7.33001 114.77 2.54001 105.02C-1.99999 95.7501 -0.0799899 86.9101 5.79001 78.7401C11.14 71.3001 18.89 68.6601 27.62 68.2701C33.09 68.0501 120.47 68.1601 125.42 68.2701C132.17 68.3901 138.62 69.7701 143.83 74.3701C155.34 84.5401 157.52 99.7101 147.08 111.84C141.58 118.23 134.65 120.94 126.16 120.84C109.74 120.5 93.3 120.66 76.88 120.66Z" fill="#92C0E9"/>
<path fill-rule="evenodd" clip-rule="evenodd" d="M55.1 74.2502C55.108 77.3432 54.198 80.369 52.4854 82.9446C50.7728 85.5202 48.3345 87.5298 45.4792 88.7189C42.6239 89.908 39.4799 90.2233 36.4454 89.6247C33.4108 89.0261 30.6221 87.5407 28.4322 85.3564C26.2423 83.1721 24.7497 80.3872 24.1434 77.3542C23.537 74.3212 23.8442 71.1764 25.026 68.3181C26.2078 65.4598 28.2111 63.0163 30.7823 61.2971C33.3535 59.5779 36.377 58.6602 39.47 58.6602C43.6093 58.6575 47.5803 60.2979 50.5109 63.221C53.4415 66.1441 55.0921 70.1109 55.1 74.2502Z" fill="#92C0E9"/>
<path fill-rule="evenodd" clip-rule="evenodd" d="M134.55 68.14C134.55 72.4734 133.265 76.7094 130.857 80.3125C128.45 83.9156 125.028 86.7239 121.025 88.3822C117.021 90.0405 112.616 90.4744 108.366 89.629C104.115 88.7836 100.211 86.6969 97.1473 83.6327C94.0831 80.5685 91.9964 76.6645 91.151 72.4144C90.3056 68.1643 90.7395 63.7589 92.3978 59.7554C94.0561 55.7519 96.8644 52.33 100.467 49.9225C104.071 47.515 108.307 46.23 112.64 46.23C118.451 46.23 124.024 48.5383 128.133 52.6473C132.242 56.7562 134.55 62.3291 134.55 68.14Z" fill="#92C0E9"/>
<path d="M74.4 93.3397C91.2723 93.3397 104.95 79.662 104.95 62.7897C104.95 45.9174 91.2723 32.2397 74.4 32.2397C57.5277 32.2397 43.85 45.9174 43.85 62.7897C43.85 79.662 57.5277 93.3397 74.4 93.3397Z" fill="#92C0E9"/>
<path fill-rule="evenodd" clip-rule="evenodd" d="M209.15 164.87C201.38 164.87 193.62 164.87 185.85 164.87C180.55 164.87 177.1 162.15 174.85 157.66C172.73 153.36 173.64 149.28 176.35 145.52C178.81 142.09 182.35 140.85 186.41 140.69C188.93 140.59 229.2 140.64 231.48 140.69C234.59 140.75 237.57 141.38 239.97 143.5C245.27 148.19 246.27 155.18 241.46 160.77C240.288 162.164 238.805 163.264 237.131 163.981C235.457 164.698 233.638 165.013 231.82 164.9C224.29 164.78 216.72 164.87 209.15 164.87Z" fill="#92C0E9"/>
<path fill-rule="evenodd" clip-rule="evenodd" d="M226.18 141.57C226.18 145.163 225.115 148.676 223.118 151.664C221.122 154.651 218.285 156.98 214.966 158.356C211.646 159.731 207.993 160.092 204.469 159.392C200.944 158.691 197.707 156.962 195.165 154.422C192.624 151.881 190.893 148.645 190.19 145.121C189.488 141.597 189.847 137.944 191.22 134.623C192.594 131.303 194.921 128.465 197.908 126.467C200.895 124.469 204.407 123.402 208 123.4C210.387 123.399 212.751 123.868 214.956 124.78C217.162 125.693 219.166 127.031 220.855 128.718C222.543 130.406 223.882 132.409 224.796 134.614C225.71 136.819 226.18 139.183 226.18 141.57Z" fill="#92C0E9"/>
<path fill-rule="evenodd" clip-rule="evenodd" d="M655.68 66.9499C647.92 66.9499 640.15 66.9499 632.39 66.9499C627.08 66.9499 623.63 64.2399 621.39 59.7499C619.27 55.4399 620.18 51.3699 622.89 47.5999C625.36 44.1699 628.89 42.9399 632.95 42.7799C635.47 42.6799 675.75 42.7299 678.03 42.7799C681.14 42.8299 684.11 43.4699 686.51 45.5899C691.82 50.2699 692.82 57.2699 688.01 62.8599C686.834 64.2497 685.351 65.3465 683.678 66.0633C682.004 66.7802 680.187 67.0974 678.37 66.9899C670.83 66.8599 663.25 66.9499 655.68 66.9499Z" fill="#92C0E9"/>
<path fill-rule="evenodd" clip-rule="evenodd" d="M672.71 43.6597C672.71 47.2534 671.644 50.7664 669.648 53.7545C667.651 56.7425 664.813 59.0714 661.493 60.4466C658.173 61.8219 654.52 62.1817 650.995 61.4806C647.471 60.7795 644.233 59.049 641.692 56.5079C639.151 53.9668 637.42 50.7292 636.719 47.2045C636.018 43.6799 636.378 40.0265 637.753 36.7064C639.128 33.3863 641.457 30.5485 644.445 28.5519C647.433 26.5554 650.946 25.4897 654.54 25.4897C656.926 25.4884 659.29 25.9575 661.495 26.8702C663.7 27.7828 665.704 29.1212 667.391 30.8087C669.079 32.4962 670.417 34.4998 671.33 36.7048C672.242 38.9099 672.711 41.2733 672.71 43.6597Z" fill="#92C0E9"/>
</g>
<defs>
<clipPath id="clip0">
<rect width="691.14" height="410.67" fill="white"/>
</clipPath>
</defs>
</svg>
