
<svg width="692" height="411" viewBox="0 0 692 411" xmlns="http://www.w3.org/2000/svg">
    <g clip-path="url(#clip0)">
        <path d="M208.68 19.3023C207.11 19.3585 205.559 18.9516 204.22 18.1323C203.024 17.3534 202.087 16.2358 201.53 14.9223C200.909 13.459 200.602 11.8816 200.63 10.2923V10.0423C200.604 8.44267 200.925 6.85645 201.57 5.3923C202.154 4.09474 203.089 2.98633 204.27 2.1923C205.52 1.38936 206.984 0.981665 208.47 1.0223C209.543 1.0108 210.609 1.19026 211.62 1.5523C212.488 1.86345 213.294 2.32742 214 2.9223V6.7523H212.08L211.82 3.9523C211.549 3.7385 211.249 3.56349 210.93 3.4323C210.564 3.29234 210.186 3.18852 209.8 3.1223C209.361 3.04336 208.915 3.00652 208.47 3.0123C207.399 2.97161 206.345 3.28436 205.47 3.9023C204.641 4.54265 204.007 5.4015 203.64 6.3823C203.208 7.54306 202.998 8.77423 203.02 10.0123V10.2923C202.987 11.5966 203.211 12.8946 203.68 14.1123C204.068 15.0962 204.748 15.9373 205.63 16.5223C206.559 17.0966 207.637 17.3852 208.73 17.3523C209.293 17.3533 209.854 17.2827 210.4 17.1423C210.876 17.0331 211.335 16.8545 211.76 16.6123L212.03 14.1323H213.91V17.9823C213.171 18.4396 212.364 18.7771 211.52 18.9823C210.59 19.2072 209.636 19.3147 208.68 19.3023Z" fill="#76777A"/>
        <path d="M219.76 19.0498V17.5098L221.76 17.1698V7.70984H219L218.81 9.76984H216.76V5.83984H229.26V9.76984H227.2L227 7.70984H224.16V17.1698L226.16 17.5098V19.0498H219.76Z" fill="#76777A"/>
        <path d="M230.8 24.1212V22.5712L232.66 22.2312V7.73123L230.66 7.39123V5.84123H234.72L235 7.45123C235.416 6.8705 235.964 6.3974 236.6 6.07123C237.281 5.73951 238.032 5.57496 238.79 5.59123C239.796 5.56627 240.782 5.87965 241.59 6.48123C242.399 7.12695 243.012 7.98588 243.36 8.96123C243.786 10.1576 243.993 11.4213 243.97 12.6912V12.9412C243.992 14.0851 243.781 15.2215 243.35 16.2812C242.984 17.1726 242.374 17.9423 241.59 18.5012C240.776 19.0507 239.811 19.3306 238.83 19.3012C238.095 19.32 237.365 19.1802 236.69 18.8912C236.053 18.6277 235.495 18.204 235.07 17.6612V22.2112L237.17 22.5512V24.1012L230.8 24.1212ZM238.03 17.4212C238.531 17.4476 239.03 17.3479 239.483 17.1312C239.935 16.9146 240.326 16.588 240.62 16.1812C241.245 15.2202 241.553 14.0868 241.5 12.9412V12.6612C241.515 11.756 241.384 10.8542 241.11 9.99123C240.905 9.30971 240.521 8.69525 240 8.21123C239.439 7.74923 238.725 7.5138 238 7.55123C237.381 7.53278 236.77 7.69245 236.24 8.01123C235.744 8.32688 235.338 8.7641 235.06 9.28123V15.7112C235.336 16.2599 235.768 16.7149 236.302 17.0191C236.835 17.3233 237.447 17.4632 238.06 17.4212H238.03Z" fill="#76777A"/>
        <path d="M250.57 19.3021C249.434 19.3829 248.31 19.025 247.43 18.3021C247.063 17.9298 246.778 17.4847 246.594 16.9956C246.409 16.5064 246.33 15.984 246.36 15.4621C246.342 14.6761 246.585 13.9062 247.05 13.2721C247.562 12.6036 248.257 12.0968 249.05 11.8121C250.048 11.4465 251.106 11.2702 252.17 11.2921H254.53V10.0021C254.549 9.65938 254.493 9.31657 254.367 8.99724C254.241 8.67791 254.048 8.38962 253.8 8.15215C253.238 7.69187 252.525 7.45666 251.8 7.49215C251.309 7.47923 250.819 7.54679 250.35 7.69215C249.956 7.82246 249.582 8.00762 249.24 8.24215L249 10.0921H247.14V7.09215C247.757 6.59901 248.463 6.22897 249.22 6.00215C250.068 5.74148 250.952 5.61331 251.84 5.62215C253.193 5.54673 254.529 5.95428 255.61 6.77215C256.073 7.1807 256.437 7.68922 256.674 8.25922C256.911 8.82923 257.016 9.44576 256.98 10.0621V16.4221C256.98 16.5921 256.98 16.7521 256.98 16.9221C256.97 17.082 256.97 17.2423 256.98 17.4021L258.26 17.5421V19.0821H254.8C254.73 18.7221 254.67 18.4021 254.63 18.0821C254.588 17.8004 254.561 17.5167 254.55 17.2321C254.07 17.8324 253.479 18.3348 252.81 18.7121C252.129 19.1049 251.356 19.3086 250.57 19.3021ZM250.92 17.3021C251.689 17.312 252.446 17.1115 253.11 16.7221C253.701 16.4062 254.193 15.9318 254.53 15.3521V12.9521H252.08C251.177 12.887 250.285 13.1737 249.59 13.7521C249.336 13.9732 249.131 14.2448 248.988 14.5496C248.845 14.8544 248.767 15.1856 248.76 15.5221C248.744 15.7687 248.784 16.0157 248.878 16.2443C248.971 16.473 249.116 16.6774 249.3 16.8421C249.769 17.1801 250.343 17.3397 250.92 17.2921V17.3021Z" fill="#76777A"/>
        <path d="M260.4 19.0498V17.5098L262.4 17.1698V7.72984L260.4 7.38984V5.83984H266.78V7.38984L264.78 7.72984V11.5498H270.65V7.72984L268.65 7.38984V5.83984H275.05V7.38984L273.05 7.72984V17.1698L275.05 17.5098V19.0498H268.65V17.5098L270.65 17.1698V13.4298H264.78V17.1698L266.78 17.5098V19.0498H260.4Z" fill="#76777A"/>
        <path d="M277.43 19.0503V17.5103L279.43 17.1703V7.73031L277.43 7.39031V5.84031H283.8V7.39031L281.8 7.73031V15.1903H281.87L287.69 5.82031H292.09V7.39031L290.09 7.73031V17.1703L292.09 17.5103V19.0503H285.71V17.5103L287.71 17.1703V9.66031H287.64L281.82 19.0403L277.43 19.0503Z" fill="#76777A"/>
        <path d="M306.06 22.9598V19.0498H294.14V17.5098L296.14 17.1698V7.72984L294.14 7.38984V5.83984H300.52V7.38984L298.52 7.72984V17.1698H304.41V7.72984L302.41 7.38984V5.83984H308.79V7.38984L306.79 7.73984V17.1698H308.41L308.18 22.9598H306.06Z" fill="#76777A"/>
        <path d="M315.09 19.3021C313.953 19.386 312.828 19.0278 311.95 18.3021C311.579 17.9318 311.292 17.4873 311.106 16.9978C310.919 16.5083 310.839 15.9849 310.87 15.4621C310.852 14.6761 311.095 13.9062 311.56 13.2721C312.075 12.6061 312.768 12.0998 313.56 11.8121C314.558 11.4465 315.616 11.2702 316.68 11.2921H319V10.0021C319.021 9.65917 318.966 9.31575 318.84 8.99612C318.714 8.67648 318.519 8.38839 318.27 8.15215C317.709 7.69016 316.995 7.45472 316.27 7.49215C315.782 7.47979 315.295 7.54735 314.83 7.69215C314.434 7.81835 314.06 8.00379 313.72 8.24215L313.46 10.0921H311.61V7.09215C312.221 6.59651 312.925 6.22614 313.68 6.00215C314.532 5.74156 315.419 5.61339 316.31 5.62215C317.663 5.54673 318.999 5.95428 320.08 6.77215C320.543 7.1807 320.907 7.68922 321.144 8.25922C321.381 8.82923 321.486 9.44576 321.45 10.0621V16.9221V17.4021L322.73 17.5421V19.0821H319.28C319.21 18.7221 319.15 18.4021 319.11 18.0821C319.07 17.7621 319.04 17.5121 319.02 17.2321C318.545 17.8376 317.953 18.341 317.28 18.7121C316.614 19.0981 315.859 19.3016 315.09 19.3021ZM315.44 17.3021C316.206 17.3133 316.96 17.1126 317.62 16.7221C318.2 16.4001 318.678 15.922 319 15.3421V12.9421H316.6C315.697 12.8728 314.803 13.16 314.11 13.7421C313.854 13.9616 313.648 14.2329 313.505 14.538C313.361 14.8431 313.285 15.1752 313.28 15.5121C313.264 15.7587 313.304 16.0057 313.398 16.2343C313.491 16.463 313.635 16.6674 313.82 16.8321C314.286 17.177 314.862 17.3404 315.44 17.2921V17.3021Z" fill="#76777A"/>
        <path d="M331.13 19.0498V17.5098L333.13 17.1698V7.72984L331.13 7.38984V5.83984H337.51V7.38984L335.51 7.72984V11.5498H341.38V7.72984L339.38 7.38984V5.83984H345.78V7.38984L343.78 7.72984V17.1698L345.78 17.5098V19.0498H339.38V17.5098L341.38 17.1698V13.4298H335.51V17.1698L337.51 17.5098V19.0498H331.13Z" fill="#76777A"/>
        <path d="M353.89 19.2996C352.773 19.3243 351.672 19.0369 350.71 18.4696C349.801 17.9097 349.072 17.1011 348.61 16.1396C348.1 15.0658 347.846 13.8881 347.87 12.6996V12.1596C347.85 10.9926 348.118 9.83875 348.65 8.79962C349.128 7.85546 349.836 7.04718 350.71 6.44962C351.542 5.88603 352.525 5.58633 353.53 5.58962C354.579 5.55167 355.618 5.80799 356.53 6.32962C357.328 6.81218 357.96 7.52755 358.34 8.37962C358.767 9.36305 358.975 10.4277 358.95 11.4996V12.9996H350.38V13.0696C350.378 13.8412 350.527 14.6056 350.82 15.3196C351.062 15.9326 351.471 16.4658 352 16.8596C352.557 17.2451 353.223 17.4414 353.9 17.4196C354.628 17.4353 355.352 17.3202 356.04 17.0796C356.629 16.8466 357.172 16.5077 357.64 16.0796L358.58 17.6396C358.033 18.1412 357.395 18.5318 356.7 18.7896C355.805 19.1422 354.851 19.3155 353.89 19.2996ZM350.44 11.1196H356.53V10.8096C356.543 10.2215 356.427 9.63768 356.19 9.09962C355.98 8.61655 355.632 8.20612 355.19 7.91962C354.69 7.61783 354.113 7.46839 353.53 7.48962C353.002 7.48238 352.486 7.64738 352.06 7.95962C351.614 8.29702 351.252 8.73132 351 9.22962C350.708 9.80236 350.518 10.4217 350.44 11.0596V11.1196Z" fill="#76777A"/>
        <path d="M367.29 19.0498V17.5098L369.29 17.1698V7.72984L367.29 7.38984V5.83984H373.68V7.38984L371.68 7.72984V11.5498H377.55V7.72984L375.55 7.38984V5.83984H382V7.38984L380 7.72984V17.1698L382 17.5098V19.0498H375.6V17.5098L377.6 17.1698V13.4298H371.73V17.1698L373.73 17.5098V19.0498H367.29Z" fill="#76777A"/>
        <path d="M388.32 19.3021C387.183 19.386 386.058 19.0278 385.18 18.3021C384.809 17.9318 384.522 17.4873 384.336 16.9978C384.149 16.5083 384.069 15.9849 384.1 15.4621C384.082 14.6761 384.325 13.9062 384.79 13.2721C385.305 12.6061 385.998 12.0998 386.79 11.8121C387.788 11.4465 388.846 11.2702 389.91 11.2921H392.27V10.0021C392.291 9.65917 392.236 9.31575 392.11 8.99612C391.984 8.67648 391.789 8.38839 391.54 8.15215C390.979 7.69016 390.265 7.45472 389.54 7.49215C389.052 7.47979 388.565 7.54735 388.1 7.69215C387.704 7.81835 387.33 8.00379 386.99 8.24215L386.73 10.0921H384.88V7.09215C385.491 6.59651 386.195 6.22614 386.95 6.00215C387.802 5.74156 388.689 5.61339 389.58 5.62215C390.933 5.54673 392.269 5.95428 393.35 6.77215C393.811 7.18119 394.174 7.69007 394.409 8.26014C394.645 8.8302 394.748 9.44647 394.71 10.0621V16.4221C394.71 16.5921 394.71 16.7521 394.71 16.9221V17.4021L395.99 17.5421V19.0821H392.54C392.47 18.7221 392.41 18.4021 392.37 18.0821C392.33 17.7621 392.3 17.5121 392.28 17.2321C391.805 17.8376 391.213 18.341 390.54 18.7121C389.865 19.1033 389.099 19.307 388.32 19.3021ZM388.67 17.3021C389.436 17.3133 390.19 17.1126 390.85 16.7221C391.443 16.4088 391.935 15.9338 392.27 15.3521V12.9521H389.83C388.927 12.8828 388.033 13.17 387.34 13.7521C387.084 13.9716 386.878 14.2429 386.734 14.548C386.591 14.8531 386.515 15.1852 386.51 15.5221C386.494 15.7687 386.534 16.0157 386.628 16.2443C386.721 16.473 386.865 16.6774 387.05 16.8421C387.517 17.1834 388.093 17.3433 388.67 17.2921V17.3021Z" fill="#76777A"/>
        <path d="M398.14 19.0509V17.5109L400.14 17.1709V7.73094L398.14 7.39094V5.84094H404.51V7.39094L402.51 7.73094V15.1909H402.59L408.41 5.82094H412.8V7.39094L410.8 7.73094V17.1709L412.8 17.5109V19.0509H406.42V17.5109L408.42 17.1709V9.66094H408.35L402.52 19.0409L398.14 19.0509ZM405.55 3.52094C404.527 3.56835 403.528 3.20879 402.77 2.52094C402.437 2.20214 402.175 1.81613 402.003 1.38855C401.83 0.960965 401.751 0.501592 401.77 0.0409377V-0.0390625H403.6C403.576 0.479048 403.743 0.98781 404.07 1.39094C404.473 1.74601 404.992 1.94187 405.53 1.94187C406.067 1.94187 406.586 1.74601 406.99 1.39094C407.323 0.991121 407.494 0.480873 407.47 -0.0390625H409.31V0.0409377C409.323 0.500977 409.242 0.958872 409.069 1.38572C408.897 1.81257 408.639 2.19911 408.31 2.52094C407.557 3.20381 406.565 3.56301 405.55 3.52094Z" fill="#76777A"/>
        <path d="M415 22.9298L414.76 17.1698H415.76C416.085 16.8021 416.382 16.411 416.65 15.9998C416.915 15.5981 417.136 15.169 417.31 14.7198C417.516 14.186 417.67 13.6334 417.77 13.0698C417.905 12.323 417.992 11.568 418.03 10.8098L418.15 7.71984L416.24 7.38984V5.83984H428.85V7.38984L426.85 7.72984V17.1698H428.61L428.36 22.9298H426.2V19.0498H417.2V22.9298H415ZM418.57 17.1698H424.49V7.96984H420.59L420.48 10.8098C420.423 12.0776 420.212 13.3336 419.85 14.5498C419.581 15.4844 419.162 16.3692 418.61 17.1698H418.57Z" fill="#76777A"/>
        <path d="M436.84 19.2993C435.72 19.3259 434.615 19.0384 433.65 18.4693C432.747 17.9063 432.022 17.0982 431.56 16.1393C431.05 15.0655 430.797 13.8879 430.82 12.6993V12.1593C430.8 10.9923 431.068 9.83847 431.6 8.79933C432.075 7.85295 432.784 7.04392 433.66 6.44933C434.489 5.88767 435.468 5.58806 436.47 5.58933C437.519 5.55298 438.558 5.8092 439.47 6.32933C440.266 6.81484 440.897 7.52934 441.28 8.37933C441.707 9.36276 441.915 10.4274 441.89 11.4993V12.9993H433.32V13.0693C433.326 13.8411 433.479 14.6046 433.77 15.3193C434.02 15.9365 434.439 16.4704 434.98 16.8593C435.54 17.2449 436.21 17.4412 436.89 17.4193C437.618 17.4351 438.343 17.3199 439.03 17.0793C439.617 16.8463 440.156 16.5073 440.62 16.0793L441.56 17.6393C441.019 18.1429 440.383 18.5338 439.69 18.7893C438.783 19.1464 437.814 19.3197 436.84 19.2993ZM433.38 11.1193H439.47V10.8093C439.48 10.2226 439.368 9.6401 439.14 9.09933C438.93 8.61627 438.582 8.20584 438.14 7.91933C437.637 7.61565 437.057 7.46614 436.47 7.48933C435.945 7.48209 435.432 7.64719 435.01 7.95933C434.554 8.29333 434.181 8.7279 433.92 9.22933C433.628 9.80207 433.438 10.4214 433.36 11.0593L433.38 11.1193Z" fill="#76777A"/>
        <path d="M444 19.0498V17.5098L446 17.1698V7.72984L444 7.38984V5.83984H450.38V7.38984L448.38 7.72984V11.5498H454.25V7.72984L452.25 7.38984V5.83984H458.65V7.38984L456.65 7.72984V17.1698L458.65 17.5098V19.0498H452.25V17.5098L454.25 17.1698V13.4298H448.38V17.1698L450.38 17.5098V19.0498H444Z" fill="#76777A"/>
        <path d="M465.05 19.2997C463.913 19.3815 462.789 19.0235 461.91 18.2997C461.543 17.9274 461.258 17.4823 461.074 16.9931C460.889 16.504 460.81 15.9816 460.84 15.4597C460.822 14.6737 461.065 13.9038 461.53 13.2697C462.043 12.602 462.737 12.0954 463.53 11.8097C464.532 11.4433 465.593 11.267 466.66 11.2897H469V9.99973C469.021 9.65765 468.967 9.3151 468.843 8.99571C468.718 8.67633 468.526 8.3877 468.28 8.14973C467.715 7.69526 467.004 7.4608 466.28 7.48973C465.792 7.47737 465.306 7.54493 464.84 7.68973C464.444 7.81593 464.07 8.00137 463.73 8.23973L463.47 10.0897H461.62V7.08973C462.233 6.59667 462.936 6.22658 463.69 5.99973C464.542 5.73914 465.429 5.61098 466.32 5.61973C467.639 5.55704 468.939 5.95276 470 6.73973C470.463 7.14828 470.827 7.65681 471.064 8.22681C471.301 8.79681 471.406 9.41335 471.37 10.0297V16.8897C471.37 17.0497 471.37 17.2097 471.37 17.3697L472.65 17.5097V19.0497H469.19C469.12 18.6897 469.06 18.3697 469.02 18.0497C468.978 17.768 468.951 17.4843 468.94 17.1997C468.46 17.7999 467.869 18.3024 467.2 18.6797C466.548 19.0678 465.808 19.2813 465.05 19.2997ZM465.4 17.2997C466.169 17.3096 466.926 17.1091 467.59 16.7197C468.182 16.4035 468.671 15.9247 469 15.3397V12.9397H466.56C465.657 12.8746 464.765 13.1613 464.07 13.7397C463.816 13.9608 463.611 14.2324 463.468 14.5372C463.325 14.842 463.247 15.1732 463.24 15.5097C463.224 15.7563 463.264 16.0032 463.358 16.2319C463.451 16.4606 463.596 16.665 463.78 16.8297C464.248 17.1713 464.822 17.3344 465.4 17.2897V17.2997Z" fill="#76777A"/>
        <path d="M293.82 97.9503V93.7203L299.29 92.7803V86.6603H277.29V82.9403L298.84 49.0703H305.84V81.5003H312.59V86.6603H305.84V92.7703L311.31 93.7103V97.9403L293.82 97.9503ZM284.38 81.5003H299.29V58.5003L299.09 58.4303L298.42 60.2103L284.38 81.5003Z" />
        <path d="M334.71 98.6605C332.557 98.7551 330.411 98.3534 328.437 97.4864C326.464 96.6194 324.717 95.3104 323.33 93.6605C320.53 90.3272 319.13 85.5505 319.13 79.3305V67.7405C319.13 61.5205 320.517 56.7372 323.29 53.3905C324.734 51.8091 326.492 50.5459 328.451 49.6817C330.41 48.8174 332.528 48.3711 334.67 48.3711C336.811 48.3711 338.929 48.8174 340.889 49.6817C342.848 50.5459 344.606 51.8091 346.05 53.3905C348.85 56.7239 350.25 61.5072 350.25 67.7405V79.3205C350.25 85.5605 348.863 90.3439 346.09 93.6705C344.702 95.3186 342.954 96.6257 340.981 97.4909C339.008 98.3561 336.862 98.7563 334.71 98.6605ZM334.71 93.4905C336.003 93.5625 337.293 93.3037 338.458 92.7385C339.624 92.1734 340.626 91.3205 341.37 90.2605C342.877 88.1139 343.63 84.9139 343.63 80.6605V66.3305C343.63 62.1005 342.87 58.9105 341.34 56.7805C340.582 55.7265 339.571 54.8801 338.4 54.3191C337.229 53.7582 335.936 53.5007 334.64 53.5705C333.352 53.4979 332.066 53.7545 330.904 54.3161C329.743 54.8777 328.743 55.7258 328 56.7805C326.47 58.9105 325.71 62.1005 325.71 66.3305V80.6605C325.71 84.8872 326.483 88.0839 328.03 90.2505C328.778 91.3119 329.783 92.1659 330.952 92.7326C332.12 93.2993 333.413 93.5601 334.71 93.4905Z" />
        <path d="M372.87 97.9503V93.7203L378.35 92.7803V86.6603H356.35V82.9403L377.9 49.0703H384.9V81.5003H391.64V86.6603H384.9V92.7703L390.37 93.7103V97.9403L372.87 97.9503ZM363.44 81.5003H378.35V58.5003L378.14 58.4303L377.47 60.2103L363.44 81.5003Z" />
        <path d="M481.76 216.061C481.226 216.882 480.51 217.569 479.667 218.067C478.824 218.565 477.877 218.86 476.9 218.931C475.112 219.129 473.302 218.885 471.63 218.221C471.094 216.481 470.759 214.686 470.63 212.871C470.71 211.121 472.95 209.361 472.95 209.361L480.37 208.961L480.92 210.161C480.92 210.161 477.97 210.881 477.92 212.231C477.87 213.581 478 215.421 478.48 215.581C478.96 215.741 481.76 216.061 481.76 216.061Z" fill="white"/>
        <path d="M527.492 72.8323L371.768 406.48L380.739 410.668L536.463 77.0193L527.492 72.8323Z" />
        <path d="M414.16 250.661L417.34 245.571C417.34 245.571 420.04 235.401 424.02 235.081C428 234.761 429.74 234.761 431.02 236.991C432.3 239.221 434.52 243.501 434.52 243.501L431.02 244.931C431.02 244.931 431.97 248.271 430.54 249.861C429.11 251.451 424.35 253.521 424.35 253.521L417.67 256.061L414.16 250.661Z" fill="white"/>
        <path d="M416.17 248.26L415.45 246.82V239.6L421.09 234.09H424.76C424.76 234.09 426.54 235.41 426.14 236.09C425.603 236.811 425.001 237.481 424.34 238.09L426.54 238.74V242.66L427.78 245.53L426.47 246.53C426.47 246.53 425.81 244.34 424.34 244.34C422.87 244.34 422.4 245.25 422.99 246.53C423.401 247.354 423.984 248.08 424.7 248.66L424.34 249.18L416.17 248.26Z" fill="#231F20"/>
        <path d="M430.41 241.66C430.41 241.925 430.304 242.18 430.117 242.367C429.929 242.555 429.675 242.66 429.41 242.66C429.144 242.66 428.89 242.555 428.703 242.367C428.515 242.18 428.41 241.925 428.41 241.66C428.41 241.395 428.515 241.141 428.703 240.953C428.89 240.766 429.144 240.66 429.41 240.66C429.675 240.66 429.929 240.766 430.117 240.953C430.304 241.141 430.41 241.395 430.41 241.66Z" fill="#231F20"/>
        <path d="M517.9 220.932C517.522 219.487 517.228 218.021 517.02 216.542C517.225 216.04 517.524 215.582 517.9 215.192L521.65 213.512L528.03 207.852L534.73 212.312L533 215.662L532.53 219.812C532.53 219.812 529.73 228.192 528.14 228.912C526.55 229.632 519.68 230.022 519.68 230.022L514.1 222.922C514.1 222.922 513.38 222.402 514.1 222.142C514.82 221.882 517.9 220.932 517.9 220.932Z" fill="white"/>
        <path d="M522.84 220.053L524.24 218.933C524.24 218.933 526.67 222.523 528.03 221.493C529.39 220.463 527.23 216.943 527.23 216.943L528.48 216.062L533.48 217.423C533.48 217.423 533.96 223.723 533.16 225.643C532.121 227.66 530.372 229.22 528.25 230.023C527.095 230.322 525.903 230.456 524.71 230.423L524.27 228.833C524.27 228.833 526.27 227.833 525.9 227.153C525.53 226.473 524.27 226.353 524.27 226.353C524.557 225.336 524.557 224.259 524.27 223.243C523.72 221.963 522.84 220.053 522.84 220.053Z" fill="#231F20"/>
        <path d="M522 224.242C522 224.44 521.941 224.633 521.831 224.798C521.722 224.962 521.565 225.09 521.383 225.166C521.2 225.242 520.999 225.262 520.805 225.223C520.611 225.184 520.433 225.089 520.293 224.949C520.153 224.809 520.058 224.631 520.019 224.437C519.981 224.243 520 224.042 520.076 223.859C520.152 223.677 520.28 223.521 520.444 223.411C520.609 223.301 520.802 223.242 521 223.242C521.265 223.242 521.52 223.348 521.707 223.535C521.895 223.723 522 223.977 522 224.242Z" fill="#231F20"/>
        <path d="M481.76 208.4L482.76 217.34L505.81 212.34L523.76 212.9L533.55 216.73L536.55 214C536.55 214 546.76 210.27 548.04 209C549.32 207.73 554.98 195.6 554.98 195.6L565.35 174.06L561.84 173.5L532 176.1L532.4 183.04L520.11 176.49L515.72 182.72L527.37 191.81L521.55 201.07L507.75 201.22L497.22 203.22L481.76 208.4Z" fill="#231F20"/>
        <path d="M561.37 176.732L562.09 165.332L553.32 139.402L556 110.452L554.72 109.972L555.12 108.772C555.671 107.992 556.153 107.166 556.56 106.302C557.03 105.182 554.16 103.832 554.16 103.832L546.11 99.832H535.53V103.182C537.574 103.905 539.549 104.812 541.43 105.892C542.575 106.672 543.806 107.316 545.1 107.812L544.3 108.442L540.23 108.122L539.83 115.062C539.83 115.062 540.39 141.632 540.39 141.872C540.39 142.112 543.39 160.292 543.39 160.292L525.45 163.562L524.25 141.312L521.54 140.832V138.662C521.54 138.662 505.98 138.902 504.86 138.822C504.55 138.771 504.233 138.783 503.928 138.856C503.623 138.93 503.335 139.064 503.083 139.25C502.83 139.436 502.617 139.672 502.457 139.942C502.297 140.212 502.192 140.511 502.15 140.822C502.162 141.302 502.293 141.771 502.53 142.188C502.767 142.605 503.104 142.957 503.51 143.212L509.33 143.452L509.57 144.732L507.82 144.972L510.72 171.662L523.6 175.172L534.17 177.322L561.37 176.732Z" fill="#231F20"/>
        <path d="M559.816 72.8362L404.091 406.484L413.062 410.671L568.787 77.0232L559.816 72.8362Z" />
        <path d="M428.44 365.199H395.24V370.559H428.44V365.199Z" />
        <path d="M447.13 326.59H413.93V331.95H447.13V326.59Z" />
        <path d="M460.33 287.992H427.13V293.352H460.33V287.992Z" />
        <path d="M480.99 249.383H447.79V254.743H480.99V249.383Z" />
        <path d="M497.59 210.77H464.39V216.13H497.59V210.77Z" />
        <path d="M516.71 172.16H483.51V177.52H516.71V172.16Z" />
        <path d="M536.57 133.562H503.37V138.923H536.57V133.562Z" />
        <path d="M553.17 94.9492H519.97V100.309H553.17V94.9492Z" />
        <path d="M430.53 287.532C430.53 287.532 431.8 288.482 435.46 289.122C438.205 289.481 440.985 289.481 443.73 289.122V286.582C442.316 285.874 440.822 285.34 439.28 284.992C437.37 284.672 432.92 284.352 432.92 284.352L430.53 287.532Z" fill="white"/>
        <path d="M464.39 249.86L469.79 246.52C469.79 246.52 475.51 246.52 475.67 247.16C475.752 248.058 475.752 248.961 475.67 249.86H473.13C473.13 249.86 472.97 253.04 471.54 253.52C470.11 254 464.39 255.27 464.39 255.27V249.86Z" fill="white"/>
        <path d="M391.91 293.251L383.49 290.711C383.49 290.711 398 257.971 400.34 256.061C402.68 254.151 411.78 251.661 411.78 251.661L414.16 248.481L422.75 251.821L443.75 253.091L464.41 247.371L468.22 250.941L467.11 257.061L446.29 264.061L425.87 264.531L420.7 273.281L434.53 284.401C434.459 285.68 433.888 286.88 432.94 287.741C431.35 289.171 428.17 288.741 428.17 288.741L416.41 281.741V292.231L391.91 293.251Z" fill="#020100"/>
        <path d="M514.71 170.832H506.81C506.81 170.832 504.1 175.832 503.7 176.732C503.3 177.632 503.94 178.012 505.29 178.732C506.814 179.372 508.389 179.881 510 180.252L514.71 171.152" fill="white"/>
        <path d="M396 362.233L391.24 359.853L393.62 354.443L405.86 353.812C405.86 353.812 403.95 356.352 405.86 358.022C407.77 359.692 409.04 361.122 411.26 361.122C413.48 361.122 413.17 362.873 413.49 363.983C413.68 364.605 413.68 365.27 413.49 365.893H402.47C402.47 365.893 399.22 361.283 398.59 360.643C397.96 360.003 397.47 360.962 397.47 360.962L396 362.233Z" fill="#010200"/>
        <path d="M391.28 354.922L408.28 357.462V321.862L404.79 305.172L426.08 301.172L424.33 324.172L440.55 320.042L437.13 291.752L416.55 289.332L413.67 282.332L387 290.552C387 290.552 386.85 294.052 387 298.662C387.15 303.272 387.16 302.312 389.23 307.712C391.3 313.112 394.79 324.092 394.79 324.092L391.28 354.922Z" fill="#010200"/>
        <path d="M426.54 322.36V328.28L432.38 328.91L433.01 327.48H435.7L437.13 329.28L447.55 327.28C447.55 327.28 448.27 322.79 446.74 322.34C445.21 321.89 438.03 321.53 438.03 321.53L437.13 318.93L426.54 322.36Z" fill="#010200"/>
        <path fill-rule="evenodd" clip-rule="evenodd" d="M76.8798 120.662C60.0298 120.662 43.1798 120.572 26.3298 120.662C14.8198 120.742 7.32977 114.772 2.53977 105.022C-2.00023 95.7515 -0.0802341 86.9115 5.78977 78.7415C11.1398 71.3015 18.8898 68.6615 27.6198 68.2715C33.0898 68.0515 120.47 68.1615 125.42 68.2715C132.17 68.3915 138.62 69.7715 143.83 74.3715C155.34 84.5415 157.52 99.7115 147.08 111.842C141.58 118.232 134.65 120.942 126.16 120.842C109.74 120.502 93.2998 120.662 76.8798 120.662Z" fill="#92C0E9"/>
        <path fill-rule="evenodd" clip-rule="evenodd" d="M55.0998 74.2502C55.1077 77.3432 54.1978 80.369 52.4851 82.9446C50.7725 85.5202 48.3342 87.5298 45.4789 88.7189C42.6236 89.908 39.4797 90.2233 36.4451 89.6247C33.4106 89.0261 30.6218 87.5407 28.4319 85.3564C26.242 83.1721 24.7495 80.3872 24.1431 77.3542C23.5368 74.3212 23.844 71.1764 25.0258 68.3181C26.2076 65.4598 28.2109 63.0163 30.7821 61.2971C33.3533 59.5779 36.3768 58.6602 39.4698 58.6602C43.609 58.6575 47.5801 60.2979 50.5107 63.221C53.4413 66.1441 55.0918 70.1109 55.0998 74.2502Z" fill="#92C0E9"/>
        <path fill-rule="evenodd" clip-rule="evenodd" d="M134.55 68.1405C134.55 72.4739 133.265 76.7099 130.857 80.313C128.45 83.9161 125.028 86.7243 121.025 88.3827C117.021 90.041 112.616 90.4749 108.366 89.6295C104.115 88.7841 100.211 86.6973 97.1473 83.6332C94.0831 80.569 91.9964 76.665 91.151 72.4149C90.3056 68.1648 90.7395 63.7594 92.3978 59.7559C94.0561 55.7523 96.8644 52.3305 100.467 49.923C104.071 47.5155 108.307 46.2305 112.64 46.2305C118.451 46.2305 124.024 48.5388 128.133 52.6478C132.242 56.7567 134.55 62.3296 134.55 68.1405Z" fill="#92C0E9"/>
        <path d="M74.3996 93.3422C91.2719 93.3422 104.95 79.6645 104.95 62.7922C104.95 45.9199 91.2719 32.2422 74.3996 32.2422C57.5273 32.2422 43.8496 45.9199 43.8496 62.7922C43.8496 79.6645 57.5273 93.3422 74.3996 93.3422Z" fill="#92C0E9"/>
        <path fill-rule="evenodd" clip-rule="evenodd" d="M209.15 164.871C201.38 164.871 193.62 164.871 185.85 164.871C180.55 164.871 177.1 162.151 174.85 157.661C172.73 153.361 173.64 149.281 176.35 145.521C178.81 142.091 182.35 140.851 186.41 140.691C188.93 140.591 229.2 140.641 231.48 140.691C234.59 140.751 237.57 141.381 239.97 143.501C245.27 148.191 246.27 155.181 241.46 160.771C240.288 162.165 238.805 163.264 237.131 163.982C235.457 164.699 233.638 165.014 231.82 164.901C224.29 164.781 216.72 164.871 209.15 164.871Z" fill="#92C0E9"/>
        <path fill-rule="evenodd" clip-rule="evenodd" d="M226.18 141.572C226.18 145.166 225.114 148.678 223.118 151.666C221.122 154.654 218.285 156.983 214.966 158.358C211.646 159.734 207.993 160.094 204.469 159.394C200.944 158.694 197.707 156.964 195.165 154.424C192.624 151.884 190.892 148.647 190.19 145.123C189.488 141.599 189.846 137.946 191.22 134.626C192.594 131.306 194.921 128.467 197.908 126.469C200.895 124.472 204.407 123.404 208 123.402C210.387 123.401 212.751 123.87 214.956 124.783C217.162 125.695 219.166 127.033 220.854 128.721C222.543 130.408 223.882 132.412 224.796 134.617C225.71 136.822 226.18 139.185 226.18 141.572Z" fill="#92C0E9"/>
        <path fill-rule="evenodd" clip-rule="evenodd" d="M655.68 66.9504C647.92 66.9504 640.15 66.9504 632.39 66.9504C627.08 66.9504 623.63 64.2404 621.39 59.7504C619.27 55.4404 620.18 51.3704 622.89 47.6004C625.36 44.1704 628.89 42.9404 632.95 42.7804C635.47 42.6804 675.75 42.7304 678.03 42.7804C681.14 42.8304 684.11 43.4704 686.51 45.5904C691.82 50.2704 692.82 57.2704 688.01 62.8604C686.834 64.2502 685.351 65.347 683.678 66.0638C682.004 66.7807 680.187 67.0979 678.37 66.9904C670.83 66.8604 663.25 66.9504 655.68 66.9504Z" fill="#92C0E9"/>
        <path fill-rule="evenodd" clip-rule="evenodd" d="M672.71 43.6622C672.71 47.2559 671.644 50.7689 669.647 53.7569C667.651 56.7449 664.813 59.0738 661.493 60.4491C658.173 61.8243 654.52 62.1842 650.995 61.4831C647.47 60.782 644.233 59.0514 641.692 56.5103C639.15 53.9692 637.42 50.7316 636.719 47.207C636.018 43.6823 636.378 40.029 637.753 36.7088C639.128 33.3887 641.457 30.5509 644.445 28.5544C647.433 26.5578 650.946 25.4922 654.54 25.4922C656.926 25.4909 659.29 25.96 661.495 26.8726C663.7 27.7853 665.703 29.1236 667.391 30.8111C669.078 32.4986 670.417 34.5022 671.329 36.7073C672.242 38.9124 672.711 41.2757 672.71 43.6622Z" fill="#92C0E9"/>
    </g>
    <defs>
        <clipPath id="clip0">
            <rect width="691.14" height="410.67" fill="white"/>
        </clipPath>
    </defs>
</svg>
