<svg width="36" height="36" viewBox="0 0 36 36" xmlns="http://www.w3.org/2000/svg">
<path d="M33 18C33 26.2842 26.2842 33 18 33C9.71573 33 3 26.2842 3 18C3 9.71573 9.71573 3 18 3C26.2842 3 33 9.71573 33 18Z" fill="white"/>
<path d="M15 24.75V11.25L24 18L15 24.75ZM18 3C16.0302 3 14.0796 3.38799 12.2598 4.1418C10.4399 4.89563 8.78628 6.00052 7.3934 7.39339C4.58035 10.2065 3 14.0218 3 18C3 21.9783 4.58035 25.7936 7.3934 28.6067C8.78628 29.9996 10.4399 31.1045 12.2598 31.8582C14.0796 32.612 16.0302 33 18 33C21.9783 33 25.7936 31.4196 28.6067 28.6067C31.4196 25.7936 33 21.9783 33 18C33 16.0302 32.612 14.0796 31.8582 12.2598C31.1045 10.4399 29.9996 8.78628 28.6067 7.39339C27.2138 6.00052 25.5602 4.89563 23.7402 4.1418C21.9204 3.38799 19.9698 3 18 3Z" />
</svg>
