<svg width="16" height="16" viewBox="0 0 16 16" xmlns="http://www.w3.org/2000/svg">
<path d="M14.0008 6.80078H9.20078V2.00078C9.20078 1.68252 9.07435 1.3773 8.84931 1.15225C8.62427 0.927209 8.31904 0.800781 8.00078 0.800781C7.68252 0.800781 7.3773 0.927209 7.15225 1.15225C6.92721 1.3773 6.80078 1.68252 6.80078 2.00078V6.80078H2.00078C1.68252 6.80078 1.3773 6.92721 1.15225 7.15225C0.927209 7.3773 0.800781 7.68252 0.800781 8.00078C0.800781 8.31904 0.927209 8.62427 1.15225 8.84931C1.3773 9.07435 1.68252 9.20078 2.00078 9.20078H6.80078V14.0008C6.80078 14.319 6.92721 14.6243 7.15225 14.8493C7.3773 15.0744 7.68252 15.2008 8.00078 15.2008C8.31904 15.2008 8.62427 15.0744 8.84931 14.8493C9.07435 14.6243 9.20078 14.319 9.20078 14.0008V9.20078H14.0008C14.319 9.20078 14.6243 9.07435 14.8493 8.84931C15.0744 8.62427 15.2008 8.31904 15.2008 8.00078C15.2008 7.68252 15.0744 7.3773 14.8493 7.15225C14.6243 6.92721 14.319 6.80078 14.0008 6.80078Z" />
</svg>
