<svg width="16" height="16" viewBox="0 0 16 16" xmlns="http://www.w3.org/2000/svg">
<path d="M7.43785 14.5403C7.0565 14.9796 6.58885 15.3357 6.06398 15.5863C5.53911 15.837 4.96825 15.9769 4.38697 15.9974C3.8057 16.0178 3.22645 15.9184 2.68526 15.7053C2.14407 15.4921 1.65252 15.1698 1.24124 14.7585C0.829966 14.3471 0.507763 13.8555 0.294668 13.3142C0.0815725 12.7729 -0.0178355 12.1935 0.00262262 11.6121C0.0230808 11.0308 0.16297 10.4598 0.413585 9.93483C0.664201 9.40985 1.02017 8.94208 1.45934 8.56066L8.51109 1.50753C8.88993 1.0585 9.35782 0.693015 9.88517 0.434181C10.4125 0.175347 10.9878 0.0288178 11.5747 0.00383904C12.1616 -0.0211397 12.7473 0.0759844 13.2947 0.289075C13.8421 0.502165 14.3394 0.826568 14.755 1.24178C15.1706 1.65699 15.4955 2.15398 15.7092 2.70126C15.9229 3.24855 16.0207 3.83424 15.9964 4.42127C15.9721 5.0083 15.8262 5.5839 15.568 6.11164C15.3099 6.63939 14.945 7.10778 14.4965 7.48721L7.43785 14.5403Z" />
</svg>
