<svg width="21" height="16" viewBox="0 0 21 16" xmlns="http://www.w3.org/2000/svg">
<path d="M14.628 0H3.396C2.4952 0.00631609 1.63327 0.367771 0.997412 1.00587C0.361559 1.64397 0.00313864 2.50718 0 3.408V9.77999C0.00316243 10.6797 0.361974 11.5416 0.998163 12.1778C1.63435 12.814 2.4963 13.1728 3.396 13.176H14.628C15.5287 13.176 16.3925 12.8182 17.0293 12.1813C17.6662 11.5445 18.024 10.6807 18.024 9.77999V3.468C18.032 3.01644 17.9501 2.5678 17.7831 2.14816C17.6162 1.72852 17.3675 1.34626 17.0515 1.02358C16.7355 0.700895 16.3585 0.444224 15.9425 0.268506C15.5265 0.092788 15.0796 0.0015202 14.628 0V0ZM15.624 9.77999C15.6209 10.0432 15.515 10.2947 15.3288 10.4808C15.1427 10.6669 14.8912 10.7729 14.628 10.776H3.396C3.13281 10.7729 2.88128 10.6669 2.69517 10.4808C2.50905 10.2947 2.40312 10.0432 2.4 9.77999V3.468C2.40304 3.20367 2.50858 2.95084 2.69438 2.7628C2.88018 2.57477 3.13173 2.46621 3.396 2.46H14.628C14.8923 2.46621 15.1438 2.57477 15.3296 2.7628C15.5154 2.95084 15.621 3.20367 15.624 3.468V9.77999Z" />
<path d="M11.7478 6.19187L7.69178 4.13986C7.59914 4.07048 7.48774 4.03062 7.37211 4.02547C7.25649 4.02033 7.14199 4.05014 7.04355 4.11102C6.94511 4.1719 6.86728 4.26101 6.82023 4.36676C6.77319 4.47251 6.7591 4.58998 6.77979 4.70386V8.61585C6.76208 8.72878 6.77837 8.84444 6.82659 8.94808C6.87481 9.05172 6.95277 9.13866 7.05056 9.19785C7.14836 9.25704 7.26156 9.28579 7.37574 9.28045C7.48993 9.27511 7.59994 9.23592 7.69178 9.16786L11.7478 7.06786C12.2278 6.86386 12.2278 6.44387 11.7478 6.19187Z" />
</svg>
