<svg width="36" height="36" viewBox="0 0 36 36" fill="none" xmlns="http://www.w3.org/2000/svg">
  <path d="M25.9923 21.3047L23.1195 16.9199L25.5495 14.3603C25.6687 14.2611 25.7651 14.1374 25.8322 13.9976C25.8993 13.8579 25.9355 13.7053 25.9384 13.5503C25.9065 13.2869 25.7788 13.0444 25.5796 12.8691C25.3804 12.6938 25.1237 12.598 24.8584 12.5999C24.6733 12.612 24.4932 12.6648 24.3308 12.7544C24.1684 12.844 24.0277 12.9682 23.9188 13.1183L20.1928 17.2331V13.7879C20.1885 13.5856 20.1406 13.3867 20.0523 13.2047C20.0164 13.1446 19.9768 13.0869 19.9336 13.0319C19.9005 12.9799 19.8605 12.9327 19.8148 12.8915L19.6095 12.7511L19.426 12.6755C19.3326 12.6652 19.2385 12.6652 19.1451 12.6755H19.0048H18.94C18.7999 12.6778 18.6612 12.7033 18.5295 12.7511C18.3447 12.8235 18.1834 12.9455 18.0634 13.1037C17.9433 13.2618 17.8692 13.45 17.8492 13.6475C17.8538 13.6688 17.8538 13.6909 17.8492 13.7123L14.5336 20.8079L11.7579 13.7123C11.5419 13.0103 11.1964 12.6323 10.5592 12.6323C9.92195 12.6323 9.36035 12.8915 9.36035 13.7123C9.36896 13.9488 9.4164 14.1823 9.50075 14.4035L13.0539 22.6223C13.3023 23.3027 13.7667 23.4431 14.5012 23.4431C15.2355 23.4431 15.7 23.3027 15.9483 22.6223L17.86 18.7775V22.2551C17.86 22.5702 17.9851 22.8723 18.2079 23.0951C18.4307 23.3179 18.7329 23.4431 19.0479 23.4431C19.363 23.4431 19.6652 23.3179 19.888 23.0951C20.1108 22.8723 20.236 22.5702 20.236 22.2551V19.9007L21.532 18.5939L24.2751 22.8275C24.3698 23.0289 24.5244 23.1961 24.7177 23.3063C24.911 23.4164 25.1336 23.4642 25.3551 23.4431C25.5139 23.4643 25.6754 23.4499 25.8279 23.401C25.9804 23.3521 26.1202 23.2699 26.237 23.1603C26.3538 23.0507 26.4448 22.9165 26.5034 22.7674C26.5619 22.6183 26.5866 22.4581 26.5756 22.2983C26.4812 21.9177 26.2786 21.5726 25.9923 21.3047Z" fill="white"/>
  <circle cx="18" cy="18" r="17.5" stroke="white"/>
</svg>
