<svg width="200" height="91" viewBox="0 0 200 91" fill="none" xmlns="http://www.w3.org/2000/svg">
<g clip-path="url(#clip0)">
<path d="M154.902 12.8672C158.455 12.8672 161.335 9.98679 161.335 6.43361C161.335 2.88042 158.455 0 154.902 0C151.349 0 148.468 2.88042 148.468 6.43361C148.468 9.98679 151.349 12.8672 154.902 12.8672Z" fill="#FEAA61"/>
<path d="M160.561 9.48992C161.057 8.58279 161.336 7.54309 161.336 6.43361C161.336 2.88186 158.454 0 154.902 0C153.304 0 151.839 0.586142 150.715 1.54909C151.839 2.51901 153.304 3.09818 154.902 3.09818C154.902 6.39174 157.372 9.10613 160.561 9.48992Z" fill="#1C1C21"/>
<path d="M115.819 25.8322V3.07732C115.819 3.07732 120.271 2.58189 121.59 6.70581C122.908 10.8297 123.236 13.1394 123.236 13.1394H141.539V25.8392H115.819V25.8322Z" fill="#FEAA61"/>
<path d="M141.539 25.8321V13.1323C141.539 13.1323 154.239 13.1323 159.842 13.1323C165.445 13.1323 170.393 17.005 174.021 25.8321C177.65 34.6521 180.531 41.9928 180.531 41.9928H158.607L153.988 25.8321H141.539Z" fill="#76777A"/>
<path d="M169.576 55.4323L178.724 77.615H194.724L180.538 41.9929L169.576 55.4323Z" fill="#7C3AA6"/>
<path d="M146.326 77.6149L144.512 82.8902L136.103 85.1999L135.029 90.2309H167.511L162.403 77.6149H146.326Z" fill="#303032"/>
<path d="M178.808 77.6149L176.994 82.8902L168.585 85.1999L167.511 90.2309H200L194.885 77.6149H178.808Z" fill="#303032"/>
<path d="M158.607 41.9927C158.607 41.9927 146.899 41.9927 141.54 41.9927C136.18 41.9927 134.61 47.4355 135.936 51.3082C137.255 55.1809 146.326 77.6078 146.326 77.6078H162.403L154.49 57.9093C154.49 57.9093 164.385 57.993 170.484 57.993C176.582 57.993 181.941 50.9035 181.286 45.377C180.623 39.8505 180.546 41.9997 180.546 41.9997H158.607V41.9927Z" fill="#7C3AA6"/>
<path d="M116.091 13.3763H0V90.2307H116.091V13.3763Z" fill="#E5E5E5"/>
<path d="M116.091 3.57253H0V13.3764H116.091V3.57253Z" fill="#1C1C21"/>
<path d="M30.3956 13.3763H0V90.2307H30.3956V13.3763Z" fill="#7C3AA6"/>
<path d="M98.6742 31.9586C97.0344 31.9586 96.211 31.505 95.4085 31.0654C94.613 30.6258 93.8524 30.2141 92.3103 30.2141C90.7612 30.2141 90.0076 30.6258 89.2122 31.0654C88.4097 31.505 87.5793 31.9586 85.9465 31.9586C84.3067 31.9586 83.4833 31.505 82.6809 31.0654C81.8854 30.6258 81.1248 30.2141 79.5827 30.2141C78.0336 30.2141 77.28 30.6258 76.4845 31.0654C75.6821 31.505 74.8517 31.9586 73.2189 31.9586C71.586 31.9586 70.7557 31.505 69.9532 31.0654C69.1577 30.6258 68.3971 30.2141 66.855 30.2141C65.3059 30.2141 64.5523 30.6258 63.7569 31.0654C62.9544 31.505 62.124 31.9586 60.4912 31.9586V31.6097C62.0403 31.6097 62.7939 31.198 63.5894 30.7584C64.3918 30.3188 65.2222 29.8652 66.855 29.8652C68.4948 29.8652 69.3182 30.3188 70.1207 30.7584C70.9162 31.198 71.6768 31.6097 73.2189 31.6097C74.768 31.6097 75.5216 31.198 76.317 30.7584C77.1195 30.3188 77.9499 29.8652 79.5827 29.8652C81.2155 29.8652 82.0459 30.3188 82.8483 30.7584C83.6438 31.198 84.4044 31.6097 85.9465 31.6097C87.4886 31.6097 88.2492 31.198 89.0447 30.7584C89.8472 30.3188 90.6775 29.8652 92.3103 29.8652C93.9501 29.8652 94.7735 30.3188 95.576 30.7584C96.3715 31.198 97.1321 31.6097 98.6742 31.6097C100.216 31.6097 100.977 31.198 101.772 30.7584C102.575 30.3188 103.405 29.8652 105.038 29.8652V30.2141C103.489 30.2141 102.735 30.6258 101.94 31.0654C101.137 31.505 100.314 31.9586 98.6742 31.9586Z" fill="#7C3AA6"/>
<path d="M98.6742 48.4054C97.0344 48.4054 96.211 47.9518 95.4085 47.5122C94.613 47.0726 93.8524 46.6609 92.3103 46.6609C90.7612 46.6609 90.0076 47.0726 89.2122 47.5122C88.4097 47.9518 87.5793 48.4054 85.9465 48.4054C84.3067 48.4054 83.4833 47.9518 82.6809 47.5122C81.8854 47.0726 81.1248 46.6609 79.5827 46.6609C78.0336 46.6609 77.28 47.0726 76.4845 47.5122C75.6821 47.9518 74.8517 48.4054 73.2189 48.4054C71.586 48.4054 70.7557 47.9518 69.9532 47.5122C69.1577 47.0726 68.3971 46.6609 66.855 46.6609C65.3059 46.6609 64.5523 47.0726 63.7569 47.5122C62.9544 47.9518 62.124 48.4054 60.4912 48.4054V48.0565C62.0403 48.0565 62.7939 47.6448 63.5894 47.2052C64.3918 46.7656 65.2222 46.312 66.855 46.312C68.4948 46.312 69.3182 46.7656 70.1207 47.2052C70.9162 47.6448 71.6768 48.0565 73.2189 48.0565C74.768 48.0565 75.5216 47.6448 76.317 47.2052C77.1195 46.7656 77.9499 46.312 79.5827 46.312C81.2155 46.312 82.0459 46.7656 82.8483 47.2052C83.6438 47.6448 84.4044 48.0565 85.9465 48.0565C87.4886 48.0565 88.2492 47.6448 89.0447 47.2052C89.8472 46.7656 90.6775 46.312 92.3103 46.312C93.9501 46.312 94.7735 46.7656 95.576 47.2052C96.3715 47.6448 97.1321 48.0565 98.6742 48.0565C100.216 48.0565 100.977 47.6448 101.772 47.2052C102.575 46.7656 103.405 46.312 105.038 46.312V46.6609C103.489 46.6609 102.735 47.0726 101.94 47.5122C101.137 47.9518 100.314 48.4054 98.6742 48.4054Z" fill="#7C3AA6"/>
<path d="M98.6742 40.1856C97.0344 40.1856 96.211 39.7321 95.4085 39.2925C94.613 38.8529 93.8524 38.4412 92.3103 38.4412C90.7612 38.4412 90.0076 38.8529 89.2122 39.2925C88.4097 39.7321 87.5793 40.1856 85.9465 40.1856C84.3067 40.1856 83.4833 39.7321 82.6809 39.2925C81.8854 38.8529 81.1248 38.4412 79.5827 38.4412C78.0336 38.4412 77.28 38.8529 76.4845 39.2925C75.6821 39.7321 74.8517 40.1856 73.2189 40.1856C71.586 40.1856 70.7557 39.7321 69.9532 39.2925C69.1577 38.8529 68.3971 38.4412 66.855 38.4412C65.3059 38.4412 64.5523 38.8529 63.7569 39.2925C62.9544 39.7321 62.124 40.1856 60.4912 40.1856V39.8367C62.0403 39.8367 62.7939 39.425 63.5894 38.9854C64.3918 38.5458 65.2222 38.0923 66.855 38.0923C68.4948 38.0923 69.3182 38.5458 70.1207 38.9854C70.9162 39.425 71.6768 39.8367 73.2189 39.8367C74.768 39.8367 75.5216 39.425 76.317 38.9854C77.1195 38.5458 77.9499 38.0923 79.5827 38.0923C81.2155 38.0923 82.0459 38.5458 82.8483 38.9854C83.6438 39.425 84.4044 39.8367 85.9465 39.8367C87.4886 39.8367 88.2492 39.425 89.0447 38.9854C89.8472 38.5458 90.6775 38.0923 92.3103 38.0923C93.9501 38.0923 94.7735 38.5458 95.576 38.9854C96.3715 39.425 97.1321 39.8367 98.6742 39.8367C100.216 39.8367 100.977 39.425 101.772 38.9854C102.575 38.5458 103.405 38.0923 105.038 38.0923V38.4412C103.489 38.4412 102.735 38.8529 101.94 39.2925C101.137 39.7321 100.314 40.1856 98.6742 40.1856Z" fill="#7C3AA6"/>
<path d="M52.8364 43.2767H41.2042L38.5596 49.7034H37.5967L46.4865 28.1836H47.5611L56.4509 49.7034H55.488L52.8364 43.2767ZM41.5322 42.4813H52.5084L47.0308 29.1465L41.5322 42.4813Z" fill="#7C3AA6"/>
</g>
<defs>
<clipPath id="clip0">
<rect width="200" height="90.231" fill="white"/>
</clipPath>
</defs>
</svg>
