<svg width="36" height="36" viewBox="0 0 36 36" xmlns="http://www.w3.org/2000/svg">
<path d="M7.25613 11.3621H28.8177C29.3895 11.3621 29.938 11.135 30.3423 10.7306C30.7467 10.3262 30.9738 9.77781 30.9738 9.20596C30.9738 8.63411 30.7467 8.08568 30.3423 7.68133C29.938 7.27697 29.3895 7.0498 28.8177 7.0498H7.25613C6.68428 7.0498 6.13586 7.27697 5.7315 7.68133C5.32714 8.08568 5.09998 8.63411 5.09998 9.20596C5.09998 9.77781 5.32714 10.3262 5.7315 10.7306C6.13586 11.135 6.68428 11.3621 7.25613 11.3621Z" />
<path d="M28.8608 15.8472H7.29922C6.72737 15.8472 6.17895 16.0743 5.77459 16.4787C5.37023 16.883 5.14307 17.4315 5.14307 18.0033C5.14307 18.5752 5.37023 19.1236 5.77459 19.528C6.17895 19.9323 6.72737 20.1595 7.29922 20.1595H28.8608C29.4326 20.1595 29.9811 19.9323 30.3854 19.528C30.7898 19.1236 31.0169 18.5752 31.0169 18.0033C31.0169 17.4315 30.7898 16.883 30.3854 16.4787C29.9811 16.0743 29.4326 15.8472 28.8608 15.8472Z" />
<path d="M28.8608 24.4717H7.29922C6.72737 24.4717 6.17895 24.6988 5.77459 25.1032C5.37023 25.5076 5.14307 26.056 5.14307 26.6278C5.14307 27.1997 5.37023 27.7481 5.77459 28.1525C6.17895 28.5568 6.72737 28.784 7.29922 28.784H28.8608C29.4326 28.784 29.9811 28.5568 30.3854 28.1525C30.7898 27.7481 31.0169 27.1997 31.0169 26.6278C31.0169 26.056 30.7898 25.5076 30.3854 25.1032C29.9811 24.6988 29.4326 24.4717 28.8608 24.4717Z" />
</svg>
