<svg width="24" height="24" viewBox="0 0 24 24"  >
<path d="M18.848 4.896H17.648V4.2C17.648 3.88174 17.5216 3.57651 17.2965 3.35147C17.0715 3.12643 16.7663 3 16.448 3C16.1297 3 15.8245 3.12643 15.5995 3.35147C15.3744 3.57651 15.248 3.88174 15.248 4.2V4.896H8V4.2C8 3.88174 7.87357 3.57651 7.64853 3.35147C7.42348 3.12643 7.11826 3 6.8 3C6.48174 3 6.17652 3.12643 5.95147 3.35147C5.72643 3.57651 5.6 3.88174 5.6 4.2V4.896H4.4C3.76348 4.896 3.15303 5.14886 2.70294 5.59894C2.25286 6.04903 2 6.65948 2 7.296V19.296C2 19.9325 2.25286 20.543 2.70294 20.9931C3.15303 21.4431 3.76348 21.696 4.4 21.696H18.8C19.4365 21.696 20.047 21.4431 20.4971 20.9931C20.9471 20.543 21.2 19.9325 21.2 19.296V7.296C21.2001 6.66771 20.9539 6.06442 20.5141 5.61569C20.0744 5.16696 19.4762 4.90857 18.848 4.896ZM4.448 19.296V10.98H18.848V19.296H4.448Z"  />
<path d="M15.8 13.248H7.40001C7.08175 13.248 6.77653 13.3744 6.55148 13.5995C6.32644 13.8245 6.20001 14.1297 6.20001 14.448C6.20001 14.7663 6.32644 15.0715 6.55148 15.2965C6.77653 15.5216 7.08175 15.648 7.40001 15.648H15.8C16.1183 15.648 16.4235 15.5216 16.6485 15.2965C16.8736 15.0715 17 14.7663 17 14.448C17 14.1297 16.8736 13.8245 16.6485 13.5995C16.4235 13.3744 16.1183 13.248 15.8 13.248Z"  />
</svg>
