<svg width="14" height="14" viewBox="0 0 14 14" xmlns="http://www.w3.org/2000/svg">
    <path d="M11.8853 5.896V3.384C11.8853 2.95965 11.7168 2.55268 11.4167 2.25262C11.1167 1.95257 10.7097 1.784 10.2853 1.784H9.70934V1.6C9.70934 1.38783 9.62506 1.18434 9.47503 1.03431C9.325 0.884284 9.12152 0.799999 8.90935 0.799999C8.69717 0.799999 8.49369 0.884284 8.34366 1.03431C8.19363 1.18434 8.10934 1.38783 8.10934 1.6V1.784H4.10934V1.6C4.10934 1.38783 4.02506 1.18434 3.87503 1.03431C3.725 0.884284 3.52152 0.799999 3.30934 0.799999C3.09717 0.799999 2.89369 0.884284 2.74366 1.03431C2.59363 1.18434 2.50934 1.38783 2.50934 1.6V1.784H1.93334C1.509 1.784 1.10203 1.95257 0.801971 2.25262C0.501913 2.55268 0.333344 2.95965 0.333344 3.384V10.288C0.333344 10.7123 0.501913 11.1193 0.801971 11.4194C1.10203 11.7194 1.509 11.888 1.93334 11.888H6.61334C6.99287 12.3044 7.4561 12.636 7.97269 12.861C8.48927 13.0859 9.04756 13.1992 9.61098 13.1934C10.1744 13.1876 10.7302 13.0629 11.2421 12.8273C11.7539 12.5917 12.2102 12.2507 12.5811 11.8265C12.9519 11.4023 13.229 10.9046 13.3941 10.3659C13.5593 9.82719 13.6087 9.25967 13.5393 8.70052C13.4698 8.14138 13.283 7.60322 12.9911 7.12129C12.6992 6.63936 12.3087 6.22453 11.8453 5.90399L11.8853 5.896ZM5.72534 9.32799C5.7283 9.65154 5.75257 9.97368 5.82935 10.288H1.97335V5.488H8.51735C7.70689 5.75252 7.00063 6.26616 6.49928 6.9557C5.99793 7.64524 5.72707 8.47546 5.72534 9.32799ZM9.73334 11.776C9.24918 11.776 8.77588 11.6324 8.37331 11.3634C7.97074 11.0944 7.65697 10.7121 7.47169 10.2648C7.2864 9.81749 7.23792 9.32528 7.33238 8.85041C7.42684 8.37555 7.65999 7.93935 8.00234 7.597C8.3447 7.25464 8.7809 7.02148 9.25576 6.92703C9.73063 6.83257 10.2228 6.88105 10.6702 7.06633C11.1175 7.25162 11.4998 7.56538 11.7688 7.96796C12.0378 8.37053 12.1813 8.84382 12.1813 9.32799C12.1814 9.97037 11.929 10.587 11.4785 11.045C11.0281 11.503 10.4156 11.7655 9.77335 11.776H9.73334Z" />
    <path d="M11.1974 9.81599L10.1734 9.25599V7.72C10.1734 7.61391 10.1312 7.51216 10.0562 7.43715C9.98118 7.36213 9.87944 7.31999 9.77335 7.31999C9.66727 7.31999 9.56553 7.36213 9.49051 7.43715C9.4155 7.51216 9.37335 7.61391 9.37335 7.72V9.488C9.37335 9.488 9.37335 9.52799 9.37335 9.55199C9.37335 9.57599 9.37335 9.6 9.37335 9.624C9.37071 9.64793 9.37071 9.67207 9.37335 9.696C9.36969 9.71448 9.36969 9.7335 9.37335 9.75199L9.43735 9.81599L10.6694 10.488C10.7155 10.5133 10.7663 10.5293 10.8187 10.535C10.8711 10.5406 10.9241 10.5359 10.9746 10.521C11.0251 10.5062 11.0723 10.4815 11.1132 10.4483C11.1542 10.4152 11.1882 10.3743 11.2134 10.328C11.2725 10.2549 11.3035 10.163 11.3006 10.069C11.2976 9.97503 11.261 9.88523 11.1974 9.81599Z" />
</svg>
