<svg width="12" height="12" viewBox="0 0 12 12" xmlns="http://www.w3.org/2000/svg">
<path d="M8.63999 2.544H7.43999V2.00999C7.43999 1.87473 7.38626 1.74502 7.29062 1.64938C7.19497 1.55373 7.06526 1.5 6.93 1.5H5.00999C4.87473 1.5 4.74502 1.55373 4.64937 1.64938C4.55373 1.74502 4.5 1.87473 4.5 2.00999V2.544H3.3C3.14087 2.544 2.98825 2.60722 2.87573 2.71974C2.76321 2.83226 2.7 2.98487 2.7 3.144C2.7 3.30313 2.76321 3.45574 2.87573 3.56826C2.98825 3.68078 3.14087 3.744 3.3 3.744H8.664C8.82313 3.744 8.97574 3.68078 9.08826 3.56826C9.20079 3.45574 9.264 3.30313 9.264 3.144C9.264 2.98487 9.20079 2.83226 9.08826 2.71974C8.97574 2.60722 8.82313 2.544 8.664 2.544H8.63999Z" />
<path d="M3.27599 4.52399V8.79C3.27757 9.23985 3.45697 9.67082 3.77507 9.98892C4.09316 10.307 4.52414 10.4864 4.97399 10.488H6.93599C7.3864 10.4864 7.818 10.3072 8.13705 9.98929C8.4561 9.67136 8.63683 9.2404 8.63999 8.79V4.52399H3.27599V4.52399ZM7.43999 5.67599V8.79C7.43688 8.92213 7.3826 9.04791 7.28859 9.14081C7.19457 9.23371 7.06815 9.28648 6.93599 9.288H4.97399C4.84239 9.28644 4.71663 9.23347 4.62357 9.14041C4.53051 9.04736 4.47754 8.92159 4.47599 8.79V5.652L7.43999 5.67599Z" />
</svg>
