<svg width="24" height="24" viewBox="0 0 24 24" xmlns="http://www.w3.org/2000/svg">
<path d="M12.0011 9.87118C11.2935 9.89005 10.6071 10.1171 10.0278 10.524C9.44859 10.9309 9.00215 11.4995 8.74433 12.1587C8.48652 12.818 8.42878 13.5386 8.57834 14.2305C8.7279 14.9224 9.07812 15.5548 9.5852 16.0488C10.0923 16.5427 10.7337 16.8761 11.4293 17.0074C12.1249 17.1387 12.8438 17.0621 13.496 16.787C14.1482 16.5119 14.7049 16.0507 15.0964 15.4609C15.4879 14.8711 15.6968 14.179 15.6971 13.4712C15.6782 12.5057 15.2797 11.5865 14.5879 10.9127C13.8961 10.2389 12.9667 9.86468 12.0011 9.87118ZM12.0011 14.6712C11.7687 14.6525 11.5469 14.5666 11.3625 14.424C11.1782 14.2813 11.0395 14.088 10.9632 13.8678C10.8869 13.6475 10.8764 13.4098 10.933 13.1837C10.9896 12.9576 11.1108 12.7529 11.2818 12.5945C11.4528 12.4362 11.6663 12.331 11.896 12.292C12.1258 12.2529 12.362 12.2817 12.5758 12.3746C12.7895 12.4676 12.9715 12.6208 13.0996 12.8156C13.2277 13.0103 13.2963 13.2381 13.2971 13.4712C13.3044 13.6412 13.2756 13.8108 13.2124 13.9688C13.1492 14.1267 13.0531 14.2695 12.9306 14.3875C12.808 14.5055 12.6617 14.5961 12.5015 14.6533C12.3412 14.7105 12.1707 14.7329 12.0011 14.7192V14.6712Z" />
<path d="M21.973 7.78322C21.8614 7.67074 21.7287 7.58148 21.5824 7.52055C21.4362 7.45963 21.2794 7.42826 21.121 7.42826C20.9625 7.42826 20.8057 7.45963 20.6595 7.52055C20.5132 7.58148 20.3805 7.67074 20.269 7.78322L19.069 8.98322C17.4507 7.49392 15.3989 6.56055 13.213 6.31922V4.39922C13.213 4.08096 13.0865 3.77573 12.8615 3.55069C12.6364 3.32565 12.3312 3.19922 12.013 3.19922C11.6947 3.19922 11.3895 3.32565 11.1644 3.55069C10.9394 3.77573 10.813 4.08096 10.813 4.39922V6.31922C8.56291 6.5596 6.45448 7.5337 4.81295 9.09122L3.55295 7.78322C3.4414 7.67074 3.30867 7.58148 3.16244 7.52055C3.01621 7.45963 2.85937 7.42826 2.70095 7.42826C2.54254 7.42826 2.38569 7.45963 2.23946 7.52055C2.09323 7.58148 1.96051 7.67074 1.84895 7.78322C1.62545 8.00805 1.5 8.3122 1.5 8.62922C1.5 8.94624 1.62545 9.25039 1.84895 9.47522L3.30095 10.9272C3.04501 11.3356 2.81651 11.7605 2.61695 12.1992C2.43905 12.5933 2.34704 13.0208 2.34704 13.4532C2.34704 13.8856 2.43905 14.3131 2.61695 14.7072C3.43692 16.5075 4.76042 18.032 6.4277 19.0967C8.09498 20.1613 10.0348 20.7207 12.013 20.7072C13.9911 20.7207 15.9309 20.1613 17.5982 19.0967C19.2655 18.032 20.589 16.5075 21.409 14.7072C21.5896 14.3096 21.6831 13.878 21.6831 13.4412C21.6831 13.0045 21.5896 12.5728 21.409 12.1752C21.2075 11.7021 20.9709 11.2449 20.701 10.8072L22.033 9.47522C22.2487 9.24255 22.3635 8.93392 22.3522 8.61683C22.341 8.29975 22.2046 8.00002 21.973 7.78322ZM19.213 13.7832C18.5803 15.1557 17.5637 16.3155 16.2859 17.1226C15.0082 17.9297 13.5241 18.3495 12.013 18.3312C10.5018 18.3495 9.01768 17.9297 7.73996 17.1226C6.46225 16.3155 5.44563 15.1557 4.81295 13.7832C4.77128 13.695 4.74967 13.5987 4.74967 13.5012C4.74967 13.4037 4.77128 13.3074 4.81295 13.2192C5.44685 11.8477 6.46376 10.6887 7.74119 9.88174C9.01863 9.07483 10.5021 8.65445 12.013 8.67122C13.5238 8.65445 15.0073 9.07483 16.2847 9.88174C17.5621 10.6887 18.5791 11.8477 19.213 13.2192C19.2493 13.3025 19.2681 13.3924 19.2681 13.4832C19.2681 13.5741 19.2493 13.664 19.213 13.7472V13.7832Z" />
</svg>
