<svg width="24" height="24" viewBox="0 0 24 24"  xmlns="http://www.w3.org/2000/svg">
<path d="M14.588 7.4H15.632C15.9503 7.4 16.2555 7.27357 16.4805 7.04853C16.7056 6.82349 16.832 6.51826 16.832 6.2C16.832 5.88174 16.7056 5.57651 16.4805 5.35147C16.2555 5.12643 15.9503 5 15.632 5H14.588C11.864 5 10.232 6.788 10.232 9.8H9.2C8.88174 9.8 8.57651 9.92643 8.35147 10.1515C8.12643 10.3765 8 10.6817 8 11C8 11.3183 8.12643 11.6235 8.35147 11.8485C8.57651 12.0736 8.88174 12.2 9.2 12.2H10.22V18.392C10.22 18.7103 10.3464 19.0155 10.5715 19.2405C10.7965 19.4656 11.1017 19.592 11.42 19.592C11.7383 19.592 12.0435 19.4656 12.2685 19.2405C12.4936 19.0155 12.62 18.7103 12.62 18.392V12.2H14.732C15.0503 12.2 15.3555 12.0736 15.5805 11.8485C15.8056 11.6235 15.932 11.3183 15.932 11C15.932 10.6817 15.8056 10.3765 15.5805 10.1515C15.3555 9.92643 15.0503 9.8 14.732 9.8H12.632C12.632 7.688 13.568 7.4 14.588 7.4Z" />
</svg>
