<svg width="24" height="24" viewBox="0 0 24 24" xmlns="http://www.w3.org/2000/svg">
<path d="M20.3485 9.96149C20.2113 9.53272 19.9562 9.15117 19.6124 8.86046C19.2687 8.56975 18.8501 8.3816 18.4045 8.31748L15.4765 7.89749L14.1805 5.31748C13.9802 4.92125 13.674 4.58833 13.2958 4.35574C12.9177 4.12314 12.4824 4 12.0385 4C11.5945 4 11.1593 4.12314 10.7811 4.35574C10.403 4.58833 10.0967 4.92125 9.89648 5.31748L8.58848 7.90948L5.66048 8.32949C5.21487 8.39361 4.79627 8.58177 4.45251 8.87247C4.10876 9.16318 3.85371 9.54471 3.71649 9.97349C3.57777 10.4025 3.56273 10.862 3.67309 11.2992C3.78345 11.7364 4.01476 12.1337 4.34049 12.4455L6.42848 14.4375L5.93647 17.2335C5.84952 17.6823 5.89255 18.1466 6.06049 18.5717C6.22843 18.9969 6.51431 19.3653 6.88448 19.6335C7.29705 19.9315 7.79155 20.095 8.30048 20.1015C8.68528 20.0993 9.06394 20.0047 9.40449 19.8255L12.0325 18.4815L14.6605 19.8255C15.001 20.0047 15.3797 20.0993 15.7645 20.1015C16.2775 20.0975 16.7766 19.9339 17.1925 19.6335C17.5605 19.3638 17.844 18.9948 18.0098 18.5697C18.1755 18.1446 18.2167 17.6811 18.1285 17.2335L17.6365 14.4375L19.7245 12.4455C20.0524 12.1326 20.2851 11.7333 20.3955 11.2937C20.506 10.8541 20.4897 10.3922 20.3485 9.96149Z" />
</svg>
