<svg width="24" height="24" viewBox="0 0 24 24"  >
<path d="M14.857 9.92413C15.6322 9.06746 16.1225 7.99126 16.26 6.84409C16.3975 5.69692 16.1755 4.53536 15.6247 3.51974C15.0738 2.50412 14.2213 1.68452 13.1848 1.17408C12.1483 0.663649 10.9789 0.487546 9.83803 0.670085C8.69717 0.852624 7.64109 1.3848 6.81559 2.19316C5.99008 3.00152 5.43586 4.04619 5.22942 5.18298C5.02297 6.31976 5.17449 7.4926 5.66306 8.5396C6.15163 9.58659 6.95316 10.4561 7.957 11.0281V13.5481C7.68842 13.2478 7.35911 13.008 6.99087 12.8446C6.62263 12.6812 6.22387 12.5978 5.821 12.6001C5.30715 12.6037 4.80361 12.7446 4.36261 13.0084C3.92161 13.2722 3.55921 13.6491 3.313 14.1001C3.08002 14.5559 2.97381 15.0659 3.00547 15.5768C3.03714 16.0876 3.20552 16.5806 3.493 17.0041C4.38138 18.3366 5.36388 19.6038 6.433 20.7961C7.06307 21.5522 7.83983 22.1728 8.71638 22.6203C9.59292 23.0679 10.5511 23.3332 11.533 23.4001H15.265C17.161 23.4001 20.857 20.6161 20.857 17.2441V13.6441C20.857 11.2441 17.521 10.3081 14.857 9.92413ZM7.537 6.18013C7.537 5.33674 7.87203 4.5279 8.4684 3.93153C9.06477 3.33517 9.87361 3.00013 10.717 3.00013C11.5604 3.00013 12.3692 3.33517 12.9656 3.93153C13.562 4.5279 13.897 5.33674 13.897 6.18013C13.8965 6.44777 13.8602 6.71413 13.789 6.97213C13.6308 6.26705 13.2194 5.64449 12.6329 5.22241C12.0463 4.80033 11.3254 4.60806 10.6065 4.68201C9.8877 4.75596 9.22097 5.09101 8.73265 5.62367C8.24433 6.15633 7.96835 6.8496 7.957 7.57213V7.80013C7.66859 7.3099 7.5231 6.74874 7.537 6.18013ZM18.457 17.2081C18.457 19.2121 15.913 20.9281 15.253 20.9641H11.533C10.2411 20.8398 9.05071 20.2101 8.221 19.2121C7.22489 18.1123 6.31046 16.9412 5.485 15.7081C5.42694 15.6393 5.38941 15.5556 5.37667 15.4665C5.36394 15.3773 5.37653 15.2864 5.413 15.2041C5.45472 15.1315 5.51387 15.0705 5.58511 15.0265C5.65634 14.9825 5.73741 14.9569 5.821 14.9521C5.88954 14.9566 5.95625 14.9762 6.01639 15.0094C6.07654 15.0425 6.12864 15.0886 6.169 15.1441C7.141 16.2121 8.245 17.5441 8.245 17.5441C8.40593 17.7297 8.61996 17.8615 8.85816 17.9216C9.09637 17.9817 9.34728 17.9672 9.577 17.8801C9.80668 17.7943 10.0046 17.6402 10.144 17.4385C10.2835 17.2369 10.3578 16.9973 10.357 16.7521V7.58413C10.357 7.27213 10.537 7.11613 10.897 7.11613C11.101 7.11613 11.449 7.17613 11.449 7.58413C11.449 8.35213 11.449 9.12013 11.449 9.72013V13.8481C11.449 14.1664 11.5754 14.4716 11.8005 14.6967C12.0255 14.9217 12.3307 15.0481 12.649 15.0481C12.9673 15.0481 13.2725 14.9217 13.4975 14.6967C13.7226 14.4716 13.849 14.1664 13.849 13.8481V12.2281C14.209 12.2281 14.557 12.3241 14.893 12.3721V13.8841C14.893 14.2024 15.0194 14.5076 15.2445 14.7327C15.4695 14.9577 15.7747 15.0841 16.093 15.0841C16.4113 15.0841 16.7165 14.9577 16.9415 14.7327C17.1666 14.5076 17.293 14.2024 17.293 13.8841V12.9481C17.7432 13.0334 18.1596 13.2458 18.493 13.5601L18.457 17.2081Z"  />
</svg>
