<svg width="24" height="24" viewBox="0 0 24 24" xmlns="http://www.w3.org/2000/svg">
  <path d="M19.6282 5.67698C19.1827 5.19918 18.6414 4.82075 18.0397 4.56642C17.438 4.31208 16.7894 4.18755 16.1362 4.20098C14.5574 4.21982 13.0424 4.82751 11.8882 5.90498C10.7481 4.8356 9.25114 4.22826 7.68823 4.20098C7.03509 4.18755 6.38648 4.31208 5.78475 4.56642C5.18303 4.82075 4.64173 5.19918 4.19622 5.67698C2.03622 8.07698 2.39623 11.305 5.18023 14.593C6.96578 16.4982 9.034 18.1172 11.3122 19.393L11.9002 19.717L12.4762 19.393C14.7544 18.1172 16.8227 16.4982 18.6082 14.593C21.4882 11.305 21.7882 8.05298 19.6282 5.67698ZM16.8202 13.033C15.3774 14.5722 13.7155 15.8904 11.8882 16.945C10.1057 15.8825 8.48853 14.5645 7.08823 13.033C5.08423 10.633 4.68823 8.73698 6.05623 7.28498C6.28002 7.05933 6.54786 6.88216 6.84308 6.76448C7.13829 6.64681 7.45457 6.59115 7.77223 6.60098C8.33421 6.63635 8.88296 6.78665 9.38452 7.0426C9.88609 7.29854 10.3298 7.65468 10.6882 8.08898L11.8882 9.28898L13.0882 8.08898C13.4506 7.65304 13.9007 7.2984 14.4094 7.04821C14.9181 6.79802 15.4738 6.65789 16.0402 6.63698C16.3769 6.60345 16.7168 6.64409 17.0361 6.75604C17.3554 6.868 17.6462 7.04854 17.8882 7.28498C19.1722 8.68898 18.8242 10.669 16.8202 13.033Z"/>
</svg>
