<svg width="24" height="24" viewBox="0 0 24 24" xmlns="http://www.w3.org/2000/svg">
<path d="M12 2.4C10.1013 2.4 8.24524 2.96302 6.66653 4.01788C5.08781 5.07274 3.85736 6.57206 3.13075 8.32623C2.40415 10.0804 2.21404 12.0106 2.58446 13.8729C2.95488 15.7351 3.86919 17.4456 5.21178 18.7882C6.55436 20.1308 8.26492 21.0451 10.1271 21.4155C11.9894 21.7859 13.9196 21.5958 15.6738 20.8692C17.4279 20.1426 18.9272 18.9122 19.9821 17.3335C21.037 15.7547 21.6 13.8987 21.6 12C21.6 9.45392 20.5886 7.01212 18.7882 5.21177C16.9879 3.41142 14.5461 2.4 12 2.4ZM12 19.2C10.576 19.2 9.18393 18.7777 7.9999 17.9866C6.81586 17.1954 5.89302 16.0709 5.34807 14.7553C4.80312 13.4397 4.66053 11.992 4.93834 10.5953C5.21616 9.19868 5.90189 7.91576 6.90883 6.90883C7.91577 5.90189 9.19868 5.21615 10.5953 4.93834C11.992 4.66052 13.4397 4.8031 14.7553 5.34805C16.071 5.893 17.1954 6.81584 17.9866 7.99988C18.7777 9.18391 19.2 10.576 19.2 12C19.2047 12.9485 19.022 13.8887 18.6623 14.7664C18.3026 15.6441 17.773 16.442 17.1039 17.1144C16.4349 17.7868 15.6396 18.3204 14.7637 18.6845C13.8878 19.0486 12.9486 19.236 12 19.236V19.2Z" />
<path d="M12 10.368C11.6817 10.368 11.3765 10.4944 11.1515 10.7195C10.9264 10.9445 10.8 11.2497 10.8 11.568V16.368C10.8 16.6863 10.9264 16.9915 11.1515 17.2165C11.3765 17.4416 11.6817 17.568 12 17.568C12.3183 17.568 12.6235 17.4416 12.8485 17.2165C13.0736 16.9915 13.2 16.6863 13.2 16.368V11.568C13.2 11.2497 13.0736 10.9445 12.8485 10.7195C12.6235 10.4944 12.3183 10.368 12 10.368Z" />
<path d="M12 6.68399C11.6706 6.68399 11.3547 6.81485 11.1218 7.04777C10.8888 7.28069 10.758 7.5966 10.758 7.92599C10.758 8.25539 10.8888 8.5713 11.1218 8.80422C11.3547 9.03714 11.6706 9.168 12 9.168C12.3294 9.168 12.6453 9.03714 12.8782 8.80422C13.1111 8.5713 13.242 8.25539 13.242 7.92599C13.242 7.5966 13.1111 7.28069 12.8782 7.04777C12.6453 6.81485 12.3294 6.68399 12 6.68399Z" />
</svg>
