<svg width="6" height="10" viewBox="0 0 6 10" xmlns="http://www.w3.org/2000/svg">
<path d="M4.76533 0.306659C4.87061 0.30605 4.97498 0.326234 5.07245 0.366046C5.16992 0.405858 5.25857 0.46452 5.33333 0.538666C5.48233 0.688556 5.56596 0.891307 5.56596 1.10266C5.56596 1.314 5.48233 1.51677 5.33333 1.66666L1.99999 4.99999L5.37003 8.29821C5.52067 8.44779 5.60572 8.65109 5.60647 8.86338C5.60722 9.07567 5.52361 9.27956 5.37403 9.4302C5.22444 9.58084 5.02115 9.6659 4.80885 9.66665C4.59656 9.6674 4.39267 9.58379 4.24203 9.43421L0.333326 5.66666C0.258343 5.59229 0.171527 5.50537 0.130912 5.40789C0.0902967 5.3104 0.0693884 5.1056 0.0693884 4.99999C0.0693884 4.89438 0.0902967 4.72004 0.130912 4.62255C0.171527 4.52506 0.231045 4.43658 0.306028 4.36221L4.20533 0.538666C4.35433 0.39087 4.55545 0.307543 4.76533 0.306659Z" />
</svg>
