<svg width="24" height="24" viewBox="0 0 24 24"  xmlns="http://www.w3.org/2000/svg">
<path d="M9.64202 19.6373C9.45573 19.6373 9.27199 19.5939 9.10537 19.5106C8.93874 19.4273 8.7938 19.3063 8.68202 19.1573L4.23002 13.1573C4.0441 12.902 3.9663 12.5838 4.01347 12.2716C4.06064 11.9593 4.229 11.6782 4.48202 11.4893C4.60809 11.3948 4.75155 11.326 4.9042 11.2869C5.05686 11.2478 5.21573 11.2391 5.37173 11.2614C5.52773 11.2837 5.67782 11.3365 5.81341 11.4167C5.94901 11.497 6.06747 11.6033 6.16202 11.7293L9.58202 16.3613L17.394 4.58931C17.4771 4.44883 17.5879 4.32677 17.7197 4.23058C17.8516 4.1344 18.0016 4.06613 18.1607 4.02992C18.3199 3.99371 18.4847 3.99033 18.6452 4.01999C18.8056 4.04966 18.9584 4.11175 19.094 4.20246C19.2297 4.29317 19.3454 4.4106 19.4342 4.54756C19.5229 4.68452 19.5827 4.83814 19.6101 4.99902C19.6374 5.15991 19.6316 5.32468 19.5931 5.48326C19.5546 5.64184 19.4841 5.79089 19.386 5.92131L10.638 19.1213C10.5314 19.2792 10.3887 19.4095 10.2218 19.5013C10.0549 19.5931 9.86846 19.6438 9.67802 19.6493L9.64202 19.6373Z" />
</svg>
