<svg width="24" height="24" viewBox="0 0 24 24"  >
<path d="M13.652 10.4922C13.6508 11.021 13.4443 11.5287 13.076 11.9082C13.6447 12.064 14.154 12.3858 14.5387 12.8326C14.9235 13.2794 15.1663 13.8307 15.236 14.4162V14.5002V14.6322C15.2051 14.821 15.1089 14.9929 14.9641 15.1179C14.8194 15.2429 14.6353 15.3131 14.444 15.3162H8.81604C8.63414 15.3176 8.45731 15.2563 8.31526 15.1427C8.17322 15.029 8.07462 14.87 8.03604 14.6922V14.6082V14.5362C8.07372 13.923 8.30572 13.3377 8.69841 12.8652C9.09109 12.3926 9.62406 12.0575 10.22 11.9082C10.0334 11.7227 9.88527 11.5021 9.78435 11.259C9.68342 11.016 9.63166 10.7554 9.63204 10.4922C9.63204 9.6642 9.63204 8.0922 11.576 8.0922H11.66C13.652 8.0922 13.652 9.6642 13.652 10.4922Z"  />
<path d="M19.196 17.5842C20.4836 16.0274 21.1918 14.0724 21.2 12.0522C21.1643 10.8276 20.8876 9.62202 20.3857 8.50441C19.8838 7.38679 19.1666 6.37903 18.2751 5.53875C17.3835 4.69846 16.3351 4.04211 15.1898 3.60722C14.0444 3.17233 12.8246 2.96742 11.6 3.0042C9.1277 2.93312 6.72822 3.84597 4.92834 5.54236C3.12846 7.23875 2.07528 9.58003 2 12.0522C2.02633 13.2866 2.29726 14.5035 2.79709 15.6325C3.29693 16.7615 4.01574 17.7802 4.91192 18.6295C5.8081 19.4788 6.86385 20.1419 8.01804 20.5804C9.17224 21.0189 10.402 21.2242 11.636 21.1842C12.9562 21.1697 14.2608 20.8965 15.476 20.3802L18.704 21.4602C18.8154 21.476 18.9286 21.476 19.04 21.4602C19.1797 21.4618 19.3183 21.4356 19.4478 21.3833C19.5773 21.3309 19.6951 21.2534 19.7945 21.1552C19.8938 21.057 19.9727 20.94 20.0265 20.8111C20.0803 20.6822 20.108 20.5439 20.108 20.4042C20.1102 20.2182 20.0604 20.0353 19.964 19.8762L19.196 17.5842ZM17.348 16.0602L16.508 17.0922L16.916 18.2922L16.208 18.0522L15.356 17.7642L14.54 18.1122C13.6248 18.5225 12.6384 18.7508 11.636 18.7842C9.80125 18.8589 8.01196 18.2018 6.66171 16.9573C5.31146 15.7128 4.51086 13.9829 4.436 12.1482C4.5109 10.3124 5.3111 8.58139 6.66098 7.33501C8.01085 6.08863 9.8001 5.42875 11.636 5.5002C13.4719 5.42875 15.2611 6.08863 16.611 7.33501C17.9609 8.58139 18.7611 10.3124 18.836 12.1482C18.8027 13.595 18.2779 14.9874 17.348 16.0962V16.0602Z"  />
</svg>
