<svg width="24" height="24" viewBox="0 0 24 24"  >
<path d="M19.2 5H4.79999C4.16347 5 3.55302 5.25285 3.10294 5.70294C2.65285 6.15303 2.39999 6.76348 2.39999 7.4V17.084C2.39999 17.7205 2.65285 18.331 3.10294 18.7811C3.55302 19.2311 4.16347 19.484 4.79999 19.484H19.2C19.5152 19.484 19.8273 19.4219 20.1184 19.3013C20.4096 19.1807 20.6742 19.0039 20.897 18.7811C21.1199 18.5582 21.2967 18.2936 21.4173 18.0024C21.5379 17.7113 21.6 17.3992 21.6 17.084V7.4C21.6 7.08483 21.5379 6.77274 21.4173 6.48156C21.2967 6.19038 21.1199 5.9258 20.897 5.70294C20.6742 5.48008 20.4096 5.3033 20.1184 5.18269C19.8273 5.06208 19.5152 5 19.2 5ZM19.2 7.4V9.716H4.79999V7.4H19.2ZM4.79999 17.084V13.316H19.2V17.096L4.79999 17.084Z"  />
</svg>
