<svg width="12" height="12" viewBox="0 0 12 12"  xmlns="http://www.w3.org/2000/svg">
<path d="M5.99999 0.400002C4.89242 0.400002 3.80972 0.728428 2.88881 1.34376C1.96789 1.9591 1.25012 2.83371 0.82627 3.85697C0.402419 4.88024 0.291522 6.00621 0.507599 7.09251C0.723677 8.1788 1.25702 9.17662 2.0402 9.95979C2.82337 10.743 3.8212 11.2763 4.90749 11.4924C5.99378 11.7085 7.11976 11.5976 8.14302 11.1737C9.16629 10.7499 10.0409 10.0321 10.6562 9.1112C11.2716 8.19028 11.6 7.10758 11.6 6C11.6 4.51479 11.01 3.0904 9.9598 2.0402C8.90959 0.989996 7.48521 0.400002 5.99999 0.400002ZM5.99999 2C6.81354 1.99943 7.60727 2.25096 8.272 2.72L2.728 8.256C2.31897 7.65717 2.08043 6.95841 2.0379 6.23447C1.99537 5.51054 2.15044 4.78866 2.48654 4.14606C2.82263 3.50346 3.32709 2.96431 3.94597 2.58629C4.56484 2.20828 5.27483 2.00562 5.99999 2ZM5.99999 10C5.2546 9.9972 4.5252 9.78364 3.896 9.384L9.384 3.87999C9.75317 4.48313 9.95585 5.17336 9.97139 5.88034C9.98693 6.58732 9.81477 7.28578 9.47246 7.90455C9.13014 8.52333 8.6299 9.04029 8.02272 9.40277C7.41553 9.76525 6.72311 9.96028 6.016 9.96799L5.99999 10Z" />
</svg>
