<svg width="6" height="10" viewBox="0 0 6 10" xmlns="http://www.w3.org/2000/svg">
<path d="M1.23467 9.69334C1.12939 9.69395 1.02502 9.67377 0.927549 9.63395C0.830079 9.59414 0.741426 9.53548 0.666674 9.46133C0.517674 9.31144 0.43404 9.10869 0.43404 8.89734C0.43404 8.686 0.517674 8.48323 0.666674 8.33334L4.00001 5.00001L0.629975 1.70179C0.479332 1.55221 0.394279 1.34891 0.393529 1.13662C0.392779 0.924329 0.476392 0.720442 0.625974 0.569799C0.775556 0.419156 0.978854 0.334099 1.19115 0.333349C1.40344 0.332598 1.60733 0.416213 1.75797 0.565795L5.66667 4.33334C5.74166 4.40771 5.82847 4.49463 5.86909 4.59211C5.9097 4.6896 5.93061 4.8944 5.93061 5.00001C5.93061 5.10562 5.9097 5.27996 5.86909 5.37745C5.82847 5.47494 5.76895 5.56342 5.69397 5.63779L1.79467 9.46133C1.64567 9.60913 1.44455 9.69246 1.23467 9.69334Z" />
</svg>
