<svg width="24" height="24" viewBox="0 0 24 24"  xmlns="http://www.w3.org/2000/svg">
<path d="M11.9416 20.1892C11.1518 20.188 10.3668 20.0666 9.61356 19.8292C8.6544 19.5268 7.76483 19.037 6.99647 18.3881C6.22811 17.7392 5.59625 16.9442 5.13756 16.0492C4.98966 15.7675 4.95966 15.4387 5.05417 15.1349C5.14868 14.8311 5.35996 14.5773 5.64156 14.4292C5.78175 14.3564 5.93493 14.312 6.09232 14.2986C6.2497 14.2851 6.40819 14.3029 6.5587 14.3508C6.70921 14.3988 6.84878 14.476 6.96939 14.578C7.09 14.68 7.18929 14.8048 7.26155 14.9452C7.73797 15.8731 8.47914 16.6387 9.39112 17.145C10.3031 17.6513 11.3448 17.8754 12.3843 17.789C13.4238 17.7026 14.4143 17.3095 15.2301 16.6596C16.046 16.0098 16.6506 15.1323 16.9673 14.1385C17.284 13.1446 17.2985 12.0791 17.009 11.077C16.7195 10.0749 16.1391 9.18134 15.3412 8.50947C14.5433 7.8376 13.564 7.41772 12.5272 7.30302C11.4905 7.18833 10.443 7.38399 9.51756 7.86521C9.23558 7.999 8.91256 8.01768 8.61705 7.91725C8.32153 7.81682 8.07677 7.60521 7.9347 7.3273C7.79262 7.0494 7.76442 6.72707 7.85606 6.42871C7.9477 6.13036 8.15198 5.87945 8.42556 5.72921C10.2301 4.7983 12.3305 4.62238 14.2648 5.24012C16.199 5.85787 17.8086 7.21869 18.7396 9.02323C19.6705 10.8278 19.8464 12.9282 19.2287 14.8624C18.6109 16.7967 17.2501 18.4063 15.4456 19.3372C14.3619 19.8957 13.1607 20.1878 11.9416 20.1892Z" />
<path d="M9.90152 11.0692C9.67685 11.0699 9.45649 11.0076 9.26552 10.8892L6.18152 8.98122C5.98221 8.85713 5.82367 8.6773 5.72555 8.464C5.62743 8.2507 5.59405 8.01331 5.62952 7.78122L6.28952 4.01322C6.31631 3.85563 6.37387 3.70486 6.45893 3.56952C6.54398 3.43418 6.65486 3.31692 6.78524 3.22444C6.91561 3.13195 7.06293 3.06605 7.21877 3.03049C7.37461 2.99494 7.53593 2.99043 7.69351 3.01722C7.8511 3.04401 8.00187 3.10157 8.13721 3.18663C8.27255 3.27168 8.38981 3.38257 8.4823 3.51294C8.57478 3.64331 8.64069 3.79062 8.67624 3.94646C8.7118 4.1023 8.71631 4.26363 8.68952 4.42122L8.16151 7.39721L10.5615 8.86121C10.7885 8.99588 10.9648 9.20165 11.063 9.44664C11.1613 9.69162 11.176 9.96217 11.1049 10.2164C11.0339 10.4706 10.881 10.6943 10.6699 10.8528C10.4589 11.0113 10.2015 11.0958 9.93752 11.0932L9.90152 11.0692Z" />
</svg>
