<svg width="12" height="13" viewBox="0 0 12 13" xmlns="http://www.w3.org/2000/svg">
<path d="M6.74799 7.29787C8.18799 7.29787 9.31599 6.32587 9.31599 5.07787C9.27429 4.4368 8.98104 3.83816 8.50008 3.41226C8.01912 2.98637 7.3894 2.7677 6.74799 2.80387H4.66599C4.50686 2.80387 4.35425 2.86708 4.24173 2.97961C4.12921 3.09213 4.06599 3.24474 4.06599 3.40387V6.09787H3.352C3.19287 6.09787 3.04025 6.16108 2.92773 6.2736C2.81521 6.38613 2.752 6.53874 2.752 6.69787C2.752 6.857 2.81521 7.00961 2.92773 7.12213C3.04025 7.23465 3.19287 7.29787 3.352 7.29787H4.06599V8.15587H3.24999C3.09086 8.15587 2.93825 8.21908 2.82573 8.3316C2.71321 8.44413 2.64999 8.59674 2.64999 8.75587C2.64999 8.915 2.71321 9.06761 2.82573 9.18013C2.93825 9.29265 3.09086 9.35587 3.24999 9.35587H4.06599V9.61986C4.06599 9.77899 4.12921 9.93161 4.24173 10.0441C4.35425 10.1567 4.50686 10.2199 4.66599 10.2199C4.82512 10.2199 4.97774 10.1567 5.09026 10.0441C5.20278 9.93161 5.26599 9.77899 5.26599 9.61986V9.35587H6.46599C6.62512 9.35587 6.77774 9.29265 6.89026 9.18013C7.00278 9.06761 7.06599 8.915 7.06599 8.75587C7.06599 8.59674 7.00278 8.44413 6.89026 8.3316C6.77774 8.21908 6.62512 8.15587 6.46599 8.15587H5.26599V7.29787H6.74799ZM5.26599 4.00387H6.74799C7.07064 3.97126 7.39337 4.06492 7.64844 4.26517C7.90351 4.46542 8.07109 4.7567 8.11599 5.07787C8.11599 5.67787 7.51599 6.09787 6.74799 6.09787H5.26599V4.00387Z" />
</svg>
