<svg width="36" height="36" viewBox="0 0 36 36"  >
<path d="M30.6699 28.3839L22.8219 20.2659C22.7134 20.1716 22.5922 20.0928 22.4619 20.0319C23.7129 18.1768 24.228 15.9222 23.9068 13.7078C23.5855 11.4935 22.451 9.47822 20.7243 8.05508C18.9977 6.63193 16.8029 5.90297 14.568 6.01038C12.333 6.1178 10.2182 7.05389 8.63606 8.63606C7.05389 10.2182 6.1178 12.333 6.01038 14.568C5.90297 16.8029 6.63193 18.9977 8.05508 20.7243C9.47822 22.4509 11.4935 23.5855 13.7078 23.9068C15.9222 24.228 18.1768 23.7129 20.0319 22.4619C20.0912 22.5779 20.1637 22.6866 20.2479 22.7859L28.0959 30.8499C28.4332 31.1852 28.8894 31.3733 29.3649 31.3733C29.8405 31.3733 30.2967 31.1852 30.6339 30.8499C30.9527 30.5207 31.1339 30.0823 31.1406 29.624C31.1473 29.1658 30.979 28.7223 30.6699 28.3839ZM14.9739 20.4459C13.9059 20.4459 12.8619 20.1292 11.9738 19.5358C11.0858 18.9425 10.3937 18.0991 9.98496 17.1124C9.57625 16.1257 9.46932 15.0399 9.67768 13.9924C9.88604 12.9449 10.4004 11.9827 11.1556 11.2275C11.9108 10.4723 12.8729 9.95802 13.9204 9.74966C14.9679 9.5413 16.0537 9.64824 17.0404 10.057C18.0271 10.4657 18.8705 11.1578 19.4639 12.0458C20.0572 12.9339 20.3739 13.9779 20.3739 15.0459C20.3739 16.4781 19.805 17.8516 18.7923 18.8643C17.7796 19.877 16.4061 20.4459 14.9739 20.4459Z"  />
</svg>
