<svg width="24" height="24" viewBox="0 0 24 24"  >
<path d="M20.528 9.08002L18.932 8.63602L19.736 7.18401C19.8515 6.98296 19.8977 6.74947 19.8673 6.51958C19.837 6.28969 19.7318 6.07618 19.568 5.91202L17.396 3.74002C17.2293 3.57678 17.0147 3.47122 16.7836 3.43883C16.5525 3.40644 16.3172 3.4489 16.112 3.56001L14.672 4.36401L14.216 2.78002C14.153 2.55501 14.0179 2.35689 13.8315 2.216C13.6451 2.07511 13.4177 1.99923 13.184 2.00001H10.124C9.89034 1.99923 9.66288 2.07511 9.47647 2.216C9.29007 2.35689 9.15501 2.55501 9.092 2.78002L8.636 4.35201L7.196 3.54802C6.99083 3.43691 6.75546 3.39444 6.52439 3.42684C6.29333 3.45923 6.07871 3.56477 5.912 3.72801L3.74 5.91202C3.57622 6.07618 3.47103 6.28969 3.44067 6.51958C3.41031 6.74947 3.45646 6.98296 3.572 7.18401L4.376 8.63602L2.78 9.08002C2.55601 9.14478 2.35899 9.2803 2.2184 9.46631C2.0778 9.65233 2.00119 9.87885 2 10.112V13.184C2.00119 13.4172 2.0778 13.6437 2.2184 13.8297C2.35899 14.0157 2.55601 14.1512 2.78 14.216L4.376 14.66L3.572 16.112C3.45646 16.3131 3.41031 16.5466 3.44067 16.7765C3.47103 17.0063 3.57622 17.2199 3.74 17.384L5.9 19.556C5.99934 19.6551 6.11723 19.7337 6.24695 19.7873C6.37667 19.8408 6.51567 19.8682 6.656 19.868C6.83979 19.865 7.02043 19.8199 7.184 19.736L8.624 18.932L9.08 20.516C9.14301 20.741 9.27807 20.9391 9.46447 21.08C9.65088 21.2209 9.87834 21.2968 10.112 21.296H13.172C13.4057 21.2968 13.6331 21.2209 13.8195 21.08C14.0059 20.9391 14.141 20.741 14.204 20.516L14.66 18.932L16.1 19.736C16.2636 19.8199 16.4442 19.865 16.628 19.868C16.7683 19.8682 16.9073 19.8408 17.037 19.7873C17.1668 19.7337 17.2847 19.6551 17.384 19.556L19.556 17.384C19.7198 17.2199 19.825 17.0063 19.8553 16.7765C19.8857 16.5466 19.8395 16.3131 19.724 16.112L18.92 14.66L20.516 14.216C20.74 14.1512 20.937 14.0157 21.0776 13.8297C21.2182 13.6437 21.2948 13.4172 21.296 13.184V10.112C21.2956 9.88038 21.2207 9.65501 21.0824 9.46919C20.9441 9.28337 20.7498 9.14693 20.528 9.08002V9.08002ZM19.16 12.368L17.792 12.764C17.5557 12.8328 17.3508 12.9819 17.2128 13.1857C17.0747 13.3895 17.0122 13.6351 17.036 13.88C16.8492 14.0379 16.7222 14.2552 16.6764 14.4954C16.6305 14.7357 16.6685 14.9844 16.784 15.2L17.468 16.4L16.448 17.42L15.248 16.724C15.0298 16.6067 14.7776 16.5689 14.5346 16.6171C14.2916 16.6652 14.073 16.7964 13.916 16.988C13.673 16.9659 13.4297 17.0276 13.2266 17.163C13.0236 17.2983 12.873 17.4992 12.8 17.732L12.416 19.1H10.928L10.544 17.732C10.4729 17.4979 10.3228 17.2958 10.1193 17.1601C9.91574 17.0244 9.6714 16.9636 9.428 16.988C9.27105 16.7964 9.05235 16.6652 8.80936 16.6171C8.56637 16.5689 8.31419 16.6067 8.096 16.724L6.896 17.42L5.9 16.448L6.584 15.248C6.70413 15.0335 6.74472 14.7835 6.69862 14.5421C6.65252 14.3006 6.52269 14.0832 6.332 13.928C6.35579 13.683 6.29326 13.4375 6.15523 13.2337C6.01719 13.0299 5.81232 12.8808 5.576 12.812L4.208 12.416V10.976L5.576 10.58C5.81109 10.5092 6.01461 10.3596 6.1523 10.1563C6.29 9.95308 6.35346 9.70858 6.332 9.46401C6.51881 9.30611 6.64576 9.08887 6.69163 8.84861C6.7375 8.60835 6.69951 8.35963 6.584 8.14402L5.9 6.94402L6.92 5.92401L8.12 6.62001C8.33819 6.73731 8.59037 6.77513 8.83336 6.72697C9.07635 6.6788 9.29505 6.54767 9.452 6.35601C9.69697 6.3798 9.94255 6.31728 10.1463 6.17924C10.3501 6.04121 10.4992 5.83632 10.568 5.60001L10.952 4.24402H12.38L12.764 5.55201C12.827 5.77702 12.9621 5.97515 13.1485 6.11603C13.3349 6.25692 13.5623 6.33279 13.796 6.33201H13.892C14.0499 6.51882 14.2671 6.64578 14.5074 6.69164C14.7477 6.73751 14.9964 6.69952 15.212 6.58401L16.412 5.88801L17.432 6.90802L16.748 8.10802C16.6279 8.3225 16.5873 8.57248 16.6334 8.81395C16.6795 9.05541 16.8093 9.27287 17 9.42801C16.9762 9.67298 17.0387 9.91856 17.1768 10.1223C17.3148 10.3261 17.5197 10.4753 17.756 10.544L19.124 10.94L19.16 12.368Z"  />
<path d="M11.648 7.364C10.8012 7.36637 9.97411 7.61965 9.27119 8.09182C8.56827 8.564 8.02105 9.23388 7.69864 10.0169C7.37624 10.7999 7.29311 11.6609 7.45976 12.4911C7.62641 13.3213 8.03537 14.0835 8.63497 14.6815C9.23458 15.2794 9.99793 15.6862 10.8286 15.8506C11.6593 16.0149 12.5201 15.9293 13.3022 15.6048C14.0843 15.2802 14.7526 14.7311 15.2228 14.0268C15.693 13.3226 15.944 12.4948 15.944 11.648C15.9408 10.5107 15.4868 9.4211 14.6815 8.61803C13.8762 7.81497 12.7853 7.36399 11.648 7.364V7.364ZM11.648 13.796C11.2231 13.796 10.8079 13.67 10.4546 13.434C10.1014 13.198 9.82606 12.8625 9.66349 12.47C9.50091 12.0775 9.45837 11.6456 9.54125 11.229C9.62413 10.8123 9.82871 10.4296 10.1291 10.1291C10.4295 9.82874 10.8123 9.62417 11.2289 9.54129C11.6456 9.45841 12.0775 9.50093 12.47 9.66351C12.8625 9.82609 13.198 10.1014 13.434 10.4546C13.67 10.8079 13.796 11.2232 13.796 11.648C13.796 12.2177 13.5697 12.764 13.1668 13.1669C12.764 13.5697 12.2177 13.796 11.648 13.796Z"  />
</svg>
