<svg width="24" height="24" viewBox="0 0 24 24" xmlns="http://www.w3.org/2000/svg">
<path d="M20.3484 9.96149C20.2112 9.53272 19.9561 9.15119 19.6123 8.86048C19.2686 8.56977 18.85 8.38161 18.4044 8.3175L15.4764 7.89749L14.1804 5.3175C13.9801 4.92127 13.6739 4.58833 13.2958 4.35574C12.9176 4.12314 12.4823 4 12.0384 4C11.5944 4 11.1592 4.12314 10.781 4.35574C10.4029 4.58833 10.0966 4.92127 9.89638 5.3175L8.58838 7.89749L5.66038 8.3175C5.21477 8.38161 4.79617 8.56977 4.45242 8.86048C4.10866 9.15119 3.85361 9.53272 3.71639 9.96149C3.57767 10.3905 3.56263 10.85 3.67299 11.2872C3.78335 11.7244 4.01466 12.1217 4.34039 12.4335L6.42838 14.4135L5.93638 17.2215C5.85944 17.662 5.90712 18.1153 6.07404 18.5302C6.24095 18.945 6.52046 19.305 6.88104 19.5695C7.24162 19.834 7.66893 19.9925 8.11478 20.0272C8.56063 20.0618 9.0073 19.9712 9.40439 19.7655L12.0324 18.4095L14.6604 19.7655C15.0575 19.9712 15.5041 20.0618 15.95 20.0272C16.3958 19.9925 16.8231 19.834 17.1837 19.5695C17.5443 19.305 17.8238 18.945 17.9907 18.5302C18.1576 18.1153 18.2053 17.662 18.1284 17.2215L17.6364 14.4255L19.7244 12.4335C20.0501 12.1217 20.2814 11.7244 20.3918 11.2872C20.5021 10.85 20.4871 10.3905 20.3484 9.96149ZM15.0564 13.5615L15.7644 17.6175L12.0324 15.6975L8.30038 17.6175L9.02039 13.5615L6.00839 10.6815L10.1724 10.0815L12.0324 6.3855L13.9044 10.0815L18.0684 10.6815L15.0564 13.5615Z" />
</svg>
