<svg width="60" height="60" viewBox="0 0 60 60" xmlns="http://www.w3.org/2000/svg">
<circle cx="30" cy="30" r="29.5" fill="white" />
<path d="M29.8799 19.5019C34.6258 19.592 35.0013 22.5056 35.0013 26.005C34.9968 27.3711 34.4577 28.6811 33.4994 29.6546C33.3192 29.837 33.1887 30.0625 33.1204 30.3096C33.052 30.5567 33.0481 30.8173 33.1089 31.0663C33.1702 31.3135 33.2933 31.5411 33.4667 31.7276C33.6401 31.9142 33.8581 32.0536 34.1001 32.1327C37.7197 33.3191 40.1076 36.0225 40.378 39.0713V39.5069C40.3327 39.779 40.1939 40.0269 39.9856 40.2078C39.7773 40.3887 39.5124 40.4914 39.2366 40.4981H20.6133C20.3624 40.4954 20.119 40.4123 19.9189 40.2609C19.7188 40.1094 19.5726 39.8978 19.5019 39.6571V39.4318C19.5019 36.2328 21.9199 33.4243 25.6596 32.1477C25.9035 32.0672 26.1227 31.9256 26.2962 31.7363C26.4698 31.5469 26.5918 31.3163 26.6508 31.0663C26.7117 30.8173 26.7077 30.5567 26.6394 30.3096C26.571 30.0625 26.4405 29.837 26.2603 29.6546C25.3006 28.682 24.7613 27.3714 24.7585 26.005C24.7434 21.995 25.5995 19.5019 29.8799 19.5019ZM29.8799 18C23.4518 18 23.2416 23.1965 23.2416 26.005C23.2452 27.7685 23.9472 29.4587 25.194 30.7059C20.8686 32.1327 18 35.5269 18 39.4318V39.6721C17.9856 39.7667 17.9856 39.8629 18 39.9574C18.1311 40.5506 18.4625 41.0805 18.9385 41.458C19.4144 41.8354 20.0059 42.0375 20.6133 42.03H39.1765C39.8128 42.0267 40.427 41.7965 40.9088 41.3808C41.3906 40.9651 41.7083 40.3912 41.8048 39.7622V39.3267C41.8197 39.2321 41.8197 39.1358 41.8048 39.0413C41.5945 35.3317 38.6809 32.1026 34.4906 30.7359C35.7333 29.4872 36.4301 27.7967 36.4281 26.035C36.4281 23.2716 36.4281 18.1502 29.8198 18.03L29.8799 18Z" stroke="none"/>
</svg>
