<svg width="24" height="24" viewBox="0 0 24 24" xmlns="http://www.w3.org/2000/svg">
<path d="M15.2409 12.1536C16.2283 11.1522 16.784 9.80388 16.7889 8.3976C16.7889 6.1896 16.7889 2.0976 11.5089 2.0016C6.22889 1.9056 6.19289 6.1656 6.19289 8.3976C6.19719 9.80752 6.75276 11.1599 7.74089 12.1656C4.29689 13.2936 2.00489 16.0056 2.00489 19.1256V19.3176C1.99837 19.3934 1.99837 19.4697 2.00489 19.5456C2.11547 20.01 2.37927 20.4236 2.75374 20.7197C3.12821 21.0158 3.5915 21.1771 4.06889 21.1776H18.9249C19.4326 21.177 19.9231 20.9935 20.3066 20.6607C20.69 20.3279 20.9408 19.8682 21.0129 19.3656V19.0176C21.0188 18.9457 21.0188 18.8735 21.0129 18.8016C20.9169 15.8376 18.5889 13.2456 15.2409 12.1536ZM4.44089 18.7776C4.62764 17.7377 5.11276 16.7745 5.83716 16.0053C6.56157 15.2362 7.494 14.6943 8.52089 14.4456C8.90918 14.3181 9.25848 14.0935 9.53568 13.7932C9.81288 13.4929 10.0088 13.1268 10.1049 12.7296C10.1931 12.3255 10.1754 11.9054 10.0535 11.5101C9.93153 11.1148 9.70948 10.7578 9.40889 10.4736C8.86702 9.91787 8.56164 9.17376 8.55689 8.3976C8.55689 5.2776 9.18089 4.4136 11.4489 4.4016C13.9569 4.4016 14.3529 5.3976 14.3529 8.3976C14.3481 9.17376 14.0428 9.91787 13.5009 10.4736C13.2128 10.7627 13.0032 11.1205 12.892 11.5131C12.7807 11.9058 12.7714 12.3203 12.8649 12.7176C12.9602 13.1184 13.1571 13.4879 13.4367 13.7905C13.7162 14.0932 14.0689 14.3188 14.4609 14.4456C15.4975 14.6945 16.4413 15.2345 17.1812 16.002C17.9211 16.7696 18.4261 17.7326 18.6369 18.7776H4.44089Z" />
</svg>
