<svg width="24" height="24" viewBox="0 0 24 24" xmlns="http://www.w3.org/2000/svg">
<path d="M20.88 15.672L17.688 10.8L20.388 7.95604C20.5204 7.84582 20.6275 7.70838 20.702 7.55309C20.7766 7.39779 20.8168 7.22827 20.82 7.05604C20.7846 6.76335 20.6427 6.49391 20.4214 6.29914C20.2001 6.10438 19.9148 5.9979 19.62 6.00003C19.4144 6.01354 19.2142 6.07215 19.0338 6.1717C18.8534 6.27125 18.6971 6.40929 18.576 6.57604L14.436 11.148V7.32003C14.4313 7.09531 14.3781 6.87428 14.28 6.67204C14.2401 6.60531 14.196 6.54117 14.148 6.48003C14.1113 6.4223 14.0669 6.36982 14.016 6.32404L13.788 6.16803L13.584 6.08403C13.4803 6.07264 13.3757 6.07264 13.272 6.08403H13.116H13.044C12.8884 6.08656 12.7343 6.11495 12.588 6.16803C12.3826 6.24852 12.2034 6.38407 12.07 6.55978C11.9366 6.7355 11.8543 6.94457 11.832 7.16403C11.8372 7.18775 11.8372 7.21231 11.832 7.23603L8.14799 15.12L5.06399 7.23603C4.82399 6.45603 4.43999 6.03603 3.73199 6.03603C3.02399 6.03603 2.39999 6.32403 2.39999 7.23603C2.40956 7.49885 2.46227 7.75831 2.556 8.00404L6.50399 17.136C6.77999 17.892 7.29599 18.048 8.11199 18.048C8.92799 18.048 9.44399 17.892 9.71999 17.136L11.844 12.864V16.728C11.844 17.0781 11.9831 17.4139 12.2306 17.6614C12.4782 17.909 12.8139 18.048 13.164 18.048C13.5141 18.048 13.8498 17.909 14.0974 17.6614C14.3449 17.4139 14.484 17.0781 14.484 16.728V14.112L15.924 12.66L18.972 17.364C19.0772 17.5878 19.2489 17.7736 19.4637 17.896C19.6785 18.0184 19.9259 18.0715 20.172 18.048C20.3484 18.0716 20.5278 18.0556 20.6973 18.0013C20.8668 17.9469 21.022 17.8556 21.1518 17.7338C21.2816 17.612 21.3827 17.4629 21.4478 17.2973C21.5128 17.1316 21.5402 16.9536 21.528 16.776C21.4231 16.3532 21.1981 15.9697 20.88 15.672Z" />
</svg>
