<svg width="24" height="24" viewBox="0 0 24 24" fill="none" xmlns="http://www.w3.org/2000/svg">
<path d="M15.468 8.92864L11.988 13.6326L8.50804 8.92864C8.41427 8.80178 8.29644 8.69463 8.16127 8.61331C8.0261 8.53199 7.87623 8.4781 7.72023 8.4547C7.56422 8.4313 7.40514 8.43885 7.25206 8.47693C7.09898 8.51501 6.9549 8.58287 6.82804 8.67664C6.70119 8.7704 6.59404 8.88823 6.51272 9.0234C6.4314 9.15858 6.37751 9.30845 6.35411 9.46445C6.33071 9.62045 6.33826 9.77953 6.37634 9.93261C6.41442 10.0857 6.48227 10.2298 6.57604 10.3566L11.0161 16.3566C11.1276 16.508 11.2731 16.631 11.4409 16.7158C11.6087 16.8005 11.794 16.8447 11.982 16.8447C12.17 16.8447 12.3554 16.8005 12.5232 16.7158C12.691 16.631 12.8365 16.508 12.9481 16.3566L17.4 10.3566C17.4938 10.2298 17.5617 10.0857 17.5998 9.93261C17.6378 9.77953 17.6454 9.62045 17.622 9.46445C17.5986 9.30845 17.5447 9.15858 17.4634 9.0234C17.382 8.88823 17.2749 8.7704 17.1481 8.67664C17.0212 8.58287 16.8771 8.51501 16.724 8.47693C16.5709 8.43885 16.4119 8.4313 16.2559 8.4547C16.0998 8.4781 15.95 8.53199 15.8148 8.61331C15.6796 8.69463 15.5618 8.80178 15.468 8.92864Z" fill="#A8D600"/>
<path d="M17.568 3H6.396C5.4963 3.00316 4.63435 3.36197 3.99816 3.99816C3.36197 4.63435 3.00316 5.4963 3 6.396V17.64C3 18.5407 3.35779 19.4045 3.99467 20.0413C4.63154 20.6782 5.49533 21.036 6.396 21.036H17.568C18.014 21.036 18.4556 20.9482 18.8676 20.7775C19.2796 20.6068 19.654 20.3567 19.9693 20.0413C20.2847 19.726 20.5348 19.3516 20.7055 18.9396C20.8762 18.5276 20.964 18.086 20.964 17.64V6.396C20.9608 5.4963 20.602 4.63435 19.9658 3.99816C19.3296 3.36197 18.4677 3.00316 17.568 3ZM18.564 17.64C18.5609 17.9032 18.4549 18.1547 18.2688 18.3408C18.0827 18.527 17.8312 18.6329 17.568 18.636H6.396C6.13281 18.6329 5.88128 18.527 5.69517 18.3408C5.50905 18.1547 5.40311 17.9032 5.4 17.64V6.396C5.40311 6.13281 5.50905 5.88128 5.69517 5.69517C5.88128 5.50905 6.13281 5.40312 6.396 5.4H17.568C17.8312 5.40312 18.0827 5.50905 18.2688 5.69517C18.4549 5.88128 18.5609 6.13281 18.564 6.396V17.64Z" fill="#7D36A8"/>
</svg>
