<svg width="24" height="24" viewBox="0 0 24 24" fill="none" xmlns="http://www.w3.org/2000/svg">
<path d="M13.4164 11.493C13.4164 10.737 13.4164 9.35697 11.7004 9.32097C9.98439 9.28497 9.9844 10.725 9.9844 11.493C9.98099 11.9663 10.1617 12.4224 10.4884 12.765C9.96349 12.9153 9.50017 13.2291 9.1657 13.6606C8.83123 14.0922 8.64301 14.6192 8.62839 15.165V15.225C8.62257 15.2527 8.62257 15.2813 8.62839 15.309C8.65859 15.4626 8.74061 15.6013 8.86074 15.7018C8.98086 15.8022 9.13182 15.8584 9.2884 15.861H14.0884C14.2572 15.8593 14.4197 15.7963 14.5456 15.6837C14.6714 15.5711 14.752 15.4166 14.7724 15.249V15.129C14.779 15.1014 14.779 15.0726 14.7724 15.045C14.7127 14.5257 14.5008 14.0357 14.1635 13.6365C13.8262 13.2372 13.3784 12.9466 12.8764 12.801C13.049 12.6299 13.1857 12.4261 13.2784 12.2015C13.3711 11.9769 13.4181 11.736 13.4164 11.493Z" fill="#5B6670"/>
<path d="M21.3365 9.75405C21.1994 9.31973 20.9415 8.9334 20.5931 8.64016C20.2446 8.34693 19.8198 8.15891 19.3685 8.09806L15.5405 7.57006L13.8485 4.29406C13.646 3.90401 13.3402 3.57707 12.9646 3.34887C12.589 3.12068 12.158 3 11.7185 3C11.279 3 10.8479 3.12068 10.4723 3.34887C10.0967 3.57707 9.79101 3.90401 9.58849 4.29406L7.89648 7.57006L4.05649 8.09806C3.60898 8.16278 3.18887 8.35259 2.84453 8.64564C2.50019 8.93869 2.24564 9.32305 2.1102 9.75445C1.97477 10.1858 1.96394 10.6467 2.07899 11.084C2.19403 11.5213 2.43028 11.9172 2.76049 12.2261L5.46049 14.7461L4.82449 18.2621C4.74688 18.6994 4.79216 19.1497 4.9553 19.5628C5.11843 19.976 5.39302 20.3357 5.74849 20.6021C6.16392 20.9136 6.6692 21.0821 7.18849 21.0821C7.56322 21.0835 7.93309 20.9972 8.26848 20.8301L11.7125 19.1021L15.1685 20.8301C15.5039 20.9972 15.8738 21.0835 16.2485 21.0821C16.7678 21.0821 17.2731 20.9136 17.6885 20.6021C18.044 20.3357 18.3185 19.976 18.4817 19.5628C18.6448 19.1497 18.6901 18.6994 18.6125 18.2621L17.9765 14.7461L20.6765 12.2261C21.0085 11.9182 21.2466 11.5227 21.3634 11.0853C21.4802 10.6479 21.4708 10.1864 21.3365 9.75405ZM15.3365 13.882L16.2005 18.682L11.6645 16.4141L7.1405 18.682L8.00448 13.882L4.34449 10.4741L9.40849 9.76606L11.6645 5.39806L13.9325 9.76606L18.9965 10.4741L15.3365 13.882Z" fill="#7D36A8"/>
</svg>
