<svg width="32" height="24" viewBox="0 0 32 24" fill="none" xmlns="http://www.w3.org/2000/svg">
<path d="M11.6737 4.11914H20.326V19.696H11.6737V4.11914Z" fill="#FF5F00"/>
<path d="M12.2233 11.9076C12.2233 8.74269 13.7065 5.93549 15.9862 4.11906C14.3108 2.79808 12.1959 2 9.88856 2C4.42226 2 0 6.43081 0 11.9076C0 17.3842 4.42226 21.8151 9.88844 21.8151C12.1957 21.8151 14.3107 21.017 15.9862 19.6959C13.7065 17.9071 12.2233 15.0724 12.2233 11.9076Z" fill="#EB001B"/>
<path d="M31.9999 11.9076C31.9999 17.3842 27.5776 21.8151 22.1115 21.8151C19.8042 21.8151 17.6892 21.017 16.0137 19.6959C18.321 17.8796 19.7768 15.0724 19.7768 11.9076C19.7768 8.74269 18.2934 5.93549 16.0137 4.11906C17.6891 2.79808 19.8042 2 22.1115 2C27.5776 2 32 6.45839 32 11.9076H31.9999Z" fill="#F79E1B"/>
</svg>
