<svg width="51" height="60" viewBox="0 0 51 60" fill="none" xmlns="http://www.w3.org/2000/svg">
<g clip-path="url(#clip0)">
<path d="M22.0514 18.0635C20.2314 17.3073 19.3826 15.1771 20.1578 13.3115C20.3474 12.8553 20.8643 12.6301 21.3143 12.8171C21.7643 13.0041 21.9716 13.5242 21.7799 13.9855C21.386 14.9335 21.8175 16.0165 22.7423 16.4007C23.6671 16.785 24.739 16.3268 25.1329 15.3788L28.4317 7.43986C28.8256 6.49186 28.3941 5.40894 27.4693 5.02466C26.5445 4.64039 25.4726 5.09861 25.0787 6.04662L23.1344 10.7258C22.9448 11.1821 22.4279 11.4072 21.9778 11.2202C21.5278 11.0332 21.3276 10.5101 21.5172 10.0538L23.4615 5.37465C24.2367 3.50906 26.3452 2.60769 28.1602 3.36185C29.9752 4.11601 30.829 6.24829 30.0538 8.11388L26.7529 16.0579C25.9798 17.9184 23.8713 18.8198 22.0514 18.0635Z" fill="#FF6B00"/>
<path d="M28.0859 58.5587L3.38822 48.2964C1.79579 47.6347 1.04987 45.7732 1.73027 44.1357L16.3135 9.03923C16.9939 7.40177 18.8394 6.61701 20.4319 7.27869L45.1295 17.541C46.7269 18.2048 47.4657 20.0693 46.7875 21.7017L32.2042 56.7982C31.5238 58.4357 29.6833 59.2225 28.0859 58.5587Z" fill="url(#paint0_linear)"/>
<path d="M30.4575 43.0112L12.7329 35.6463C12.1889 35.4203 11.9334 34.7791 12.1651 34.2214C12.3968 33.6638 13.0315 33.3925 13.5755 33.6185L31.3001 40.9834C31.8441 41.2094 32.0996 41.8506 31.8679 42.4083C31.6361 42.9659 31.0015 43.2372 30.4575 43.0112Z" fill="#EBEBEC"/>
<path d="M25.27 33.5558L15.3197 29.4212C14.7757 29.1952 14.5202 28.554 14.7519 27.9963C14.9836 27.4387 15.6183 27.1674 16.1623 27.3934L26.1126 31.5279C26.6566 31.754 26.9121 32.3952 26.6804 32.9528C26.4487 33.5105 25.8189 33.7839 25.27 33.5558Z" fill="#EBEBEC"/>
<path d="M27.8686 49.2417L10.1441 41.8768C9.60005 41.6507 9.34455 41.0095 9.57626 40.4519C9.80797 39.8942 10.4427 39.6229 10.9867 39.849L28.7112 47.2139C29.2552 47.4399 29.5107 48.0811 29.279 48.6387C29.0473 49.1964 28.4126 49.4677 27.8686 49.2417Z" fill="#EBEBEC"/>
<path d="M22.0514 18.0635C20.2314 17.3073 19.3826 15.1771 20.1578 13.3115C20.3474 12.8553 20.8643 12.6301 21.3143 12.8171C21.7643 13.0041 21.9716 13.5242 21.7799 13.9855C21.386 14.9335 21.8175 16.0165 22.7423 16.4007C23.6671 16.785 24.739 16.3268 25.1329 15.3788L28.4317 7.43986C28.8256 6.49186 28.3941 5.40894 27.4693 5.02466C27.0242 4.83972 26.812 4.31758 27.0037 3.85625C27.1954 3.39492 27.7151 3.17691 28.1602 3.36185C29.9801 4.11807 30.829 6.24829 30.0538 8.11388L26.7529 16.0579C25.9798 17.9184 23.8713 18.8198 22.0514 18.0635Z" fill="#FF6B00"/>
</g>
<defs>
<linearGradient id="paint0_linear" x1="15.0482" y1="-15.022" x2="37.0261" y2="86.6879" gradientUnits="userSpaceOnUse">
<stop stop-color="#F6C462"/>
<stop offset="1" stop-color="#FF6B00"/>
</linearGradient>
<clipPath id="clip0">
<rect width="33" height="51" fill="white" transform="translate(20.0693) rotate(22.5638)"/>
</clipPath>
</defs>
</svg>
