<svg width="36" height="36" viewBox="0 0 36 36" fill="none" xmlns="http://www.w3.org/2000/svg">
<path d="M5.74497 21.0513C5.53321 21.3181 5.26529 21.5379 4.95908 21.6962C4.65288 21.8545 4.31543 21.9476 3.96924 21.9692C3.62305 21.9909 3.27607 21.9407 2.95146 21.8219C2.62685 21.7031 2.33207 21.5185 2.08677 21.2803C1.84146 21.0422 1.65128 20.756 1.52891 20.4409C1.40654 20.1258 1.3548 19.7889 1.37713 19.4528C1.39945 19.1168 1.49532 18.7892 1.65837 18.4919C1.82142 18.1947 2.0479 17.9346 2.32268 17.729L18.4032 2.20115C18.615 1.9344 18.8829 1.71456 19.1891 1.55628C19.4953 1.39799 19.8328 1.3049 20.179 1.28323C20.5252 1.26156 20.8721 1.31179 21.1967 1.43059C21.5213 1.54938 21.8161 1.73401 22.0614 1.97214C22.3067 2.21028 22.4969 2.49645 22.6193 2.81158C22.7417 3.1267 22.7934 3.46354 22.7711 3.79961C22.7488 4.13569 22.6529 4.46328 22.4898 4.76054C22.3268 5.0578 22.1003 5.31789 21.8255 5.52347L5.74497 21.0513Z" fill="#FF6B00"/>
<path d="M18.4214 33.3577C18.2096 33.6245 17.9417 33.8443 17.6355 34.0026C17.3293 34.1609 16.9918 34.254 16.6456 34.2756C16.2994 34.2973 15.9525 34.2471 15.6279 34.1283C15.3032 34.0095 15.0085 33.8249 14.7632 33.5867C14.5179 33.3486 14.3277 33.0624 14.2053 32.7473C14.0829 32.4322 14.0312 32.0953 14.0535 31.7592C14.0758 31.4232 14.1717 31.0956 14.3348 30.7983C14.4978 30.5011 14.7243 30.241 14.9991 30.0354L31.0796 14.5076C31.2914 14.2408 31.5593 14.021 31.8655 13.8627C32.1717 13.7044 32.5092 13.6113 32.8554 13.5896C33.2016 13.568 33.5485 13.6182 33.8731 13.737C34.1977 13.8558 34.4925 14.0404 34.7378 14.2785C34.9831 14.5167 35.1733 14.8028 35.2957 15.118C35.418 15.4331 35.4698 15.7699 35.4475 16.106C35.4251 16.4421 35.3293 16.7697 35.1662 17.0669C35.0032 17.3642 34.7767 17.6243 34.5019 17.8299L18.4214 33.3577Z" fill="white"/>
<path d="M5.37292 9.15968C5.16115 9.42643 4.89323 9.64628 4.58703 9.80457C4.28082 9.96286 3.94336 10.0559 3.59717 10.0776C3.25098 10.0993 2.90402 10.049 2.57941 9.93025C2.2548 9.81145 1.96 9.62684 1.71469 9.3887C1.46939 9.15057 1.27923 8.86439 1.15686 8.54926C1.03449 8.23413 0.982733 7.8973 1.00506 7.56122C1.02738 7.22515 1.12327 6.89755 1.28632 6.6003C1.44937 6.30304 1.67583 6.04294 1.95061 5.83737L5.98295 1.92283C6.19472 1.65608 6.46264 1.43624 6.76884 1.27796C7.07505 1.11967 7.41249 1.02658 7.75868 1.00491C8.10487 0.983238 8.45185 1.03347 8.77646 1.15227C9.10107 1.27106 9.39586 1.45569 9.64116 1.69382C9.88646 1.93196 10.0766 2.21813 10.199 2.53326C10.3214 2.84838 10.3731 3.18523 10.3508 3.5213C10.3285 3.85738 10.2326 4.18497 10.0696 4.48223C9.9065 4.77949 9.68002 5.03957 9.40525 5.24515L5.37292 9.15968Z" fill="white"/>
<path d="M30.7138 33.7663C30.5021 34.033 30.2342 34.2529 29.928 34.4112C29.6218 34.5694 29.2843 34.6625 28.9381 34.6842C28.5919 34.7059 28.2449 34.6556 27.9203 34.5368C27.5957 34.418 27.3009 34.2334 27.0556 33.9953C26.8103 33.7572 26.6202 33.471 26.4978 33.1559C26.3754 32.8407 26.3237 32.5039 26.346 32.1678C26.3683 31.8317 26.4642 31.5041 26.6273 31.2069C26.7903 30.9096 27.0168 30.6495 27.2915 30.444L31.3239 26.5294C31.5356 26.2627 31.8036 26.0428 32.1098 25.8845C32.416 25.7263 32.7534 25.6332 33.0996 25.6115C33.4458 25.5898 33.7928 25.6401 34.1174 25.7589C34.442 25.8777 34.7368 26.0623 34.9821 26.3004C35.2274 26.5386 35.4176 26.8247 35.5399 27.1399C35.6623 27.455 35.7141 27.7918 35.6917 28.1279C35.6694 28.464 35.5735 28.7916 35.4105 29.0888C35.2474 29.3861 35.021 29.6462 34.7462 29.8517L30.7138 33.7663Z" fill="#FF9E18"/>
<path d="M34.9229 1.78078L34.8314 1.70971C34.4544 1.34125 33.9449 1.12898 33.41 1.11749H33.3185H33.227H26.5349C26.236 1.09573 25.9358 1.13409 25.6528 1.23018C25.3699 1.32627 25.1105 1.47801 24.8908 1.67591C24.6711 1.87381 24.4958 2.11361 24.3759 2.38029C24.2561 2.64698 24.1942 2.93482 24.1942 3.22578C24.1942 3.51675 24.2561 3.80457 24.3759 4.07126C24.4958 4.33795 24.6711 4.57774 24.8908 4.77564C25.1105 4.97354 25.3699 5.12529 25.6528 5.22138C25.9358 5.31746 26.236 5.35582 26.5349 5.33406H27.816L2.09078 30.3136C1.81368 30.5185 1.58495 30.7785 1.41998 31.0763C1.25501 31.3741 1.15763 31.7027 1.13436 32.04C1.11109 32.3774 1.16248 32.7157 1.28508 33.0321C1.40768 33.3486 1.59865 33.636 1.84515 33.8748C2.09165 34.1137 2.38797 34.2986 2.71418 34.417C3.0404 34.5355 3.38894 34.5848 3.73641 34.5616C4.08388 34.5384 4.42222 34.4432 4.72867 34.2826C5.03512 34.1219 5.30257 33.8994 5.51307 33.63L31.2322 8.6623V9.84672C31.2098 10.1369 31.2493 10.4284 31.3483 10.703C31.4472 10.9777 31.6036 11.2295 31.8074 11.4428C32.0113 11.6561 32.2583 11.8263 32.533 11.9426C32.8077 12.059 33.1042 12.1191 33.4039 12.1191C33.7036 12.1191 34.0001 12.059 34.2749 11.9426C34.5496 11.8263 34.7966 11.6561 35.0004 11.4428C35.2043 11.2295 35.3606 10.9777 35.4596 10.703C35.5585 10.4284 35.5981 10.1369 35.5756 9.84672V3.53373C35.6014 3.21329 35.5564 2.89122 35.4439 2.58896C35.3313 2.28669 35.1538 2.01119 34.9229 1.78078V1.78078Z" fill="#26A7FF"/>
</svg>
