<svg width="1024" height="476" viewBox="0 0 1024 476" fill="none" xmlns="http://www.w3.org/2000/svg">
<mask id="mask0" mask-type="alpha" maskUnits="userSpaceOnUse" x="0" y="0" width="1024" height="476">
<rect width="1024" height="476" fill="#C4C4C4"/>
</mask>
<g mask="url(#mask0)">
<path d="M0 454.954C0 454.954 79.3157 449.244 163.358 422.583C292.39 381.687 405.386 387.308 497.369 390.389C669.457 396.158 684.107 351.248 843.076 340.28C1002.04 329.312 1096 335.17 1096 335.17V-92.9995H0V454.954Z" fill="#EBEBEB"/>
<path d="M0 388.33C0 388.33 53.1016 361.854 280.496 372.296C428.776 379.095 524.763 360.736 648.552 322.788C772.34 284.839 869.202 273.642 969.98 293.038C1070.76 312.434 1096 305.687 1096 305.687V-92.9993H0.00961986L0 388.33Z" fill="url(#paint0_linear)"/>
<path opacity="0.7" d="M0 414.473C0 414.473 94.5385 420.879 160.659 408.378C282.836 385.271 351.929 348.123 472.019 336.999C617.728 323.505 653.438 347.041 758.598 329.267C863.757 311.493 894.243 278.492 979.797 257.74C1032.47 244.972 1096 262.273 1096 262.273V-94H0.00962028L0 414.473Z" fill="url(#paint1_linear)"/>
</g>
<defs>
<linearGradient id="paint0_linear" x1="0" y1="203.64" x2="1095.95" y2="203.64" gradientUnits="userSpaceOnUse">
<stop stop-color="#7D36A8"/>
<stop offset="0.67" stop-color="#7D36A8"/>
<stop offset="1" stop-color="#7D36A8"/>
</linearGradient>
<linearGradient id="paint1_linear" x1="-51.3915" y1="314.366" x2="1028.97" y2="-214.032" gradientUnits="userSpaceOnUse">
<stop stop-color="#4858CC"/>
<stop offset="0.572917" stop-color="#8B58CC"/>
<stop offset="1" stop-color="#9F58CC"/>
</linearGradient>
</defs>
</svg>
