<svg width="1140" height="592" viewBox="0 0 1140 592" fill="none" xmlns="http://www.w3.org/2000/svg">
<path d="M0 591.71C0 591.71 82.4999 583.961 169.916 547.777C304.128 492.276 421.66 499.905 517.336 504.086C696.333 511.915 711.571 450.966 876.922 436.081C1042.27 421.195 1140 429.146 1140 429.146V0H0V591.71Z" fill="#EBEBEB"/>
<path d="M0 501.292C0 501.292 55.2334 465.359 291.757 479.531C445.99 488.758 545.83 463.842 674.588 412.341C803.346 360.839 904.097 345.642 1008.92 371.966C1113.74 398.289 1140 389.133 1140 389.133V0H0.0100061L0 501.292Z" fill="url(#paint0_linear)"/>
<path opacity="0.7" d="M0 536.771C0 536.771 98.3338 545.466 167.108 528.5C294.191 497.141 366.058 446.725 490.969 431.628C642.527 413.316 679.671 445.257 789.052 421.135C898.433 397.013 930.144 352.226 1019.13 324.063C1073.92 306.735 1140 330.214 1140 330.214V0H0.0100065L0 536.771Z" fill="url(#paint1_linear)"/>
<defs>
<linearGradient id="paint0_linear" x1="0" y1="250.641" x2="1139.95" y2="250.641" gradientUnits="userSpaceOnUse">
<stop stop-color="#7D36A8"/>
<stop offset="0.67" stop-color="#7D36A8"/>
<stop offset="1" stop-color="#7D36A8"/>
</linearGradient>
<linearGradient id="paint1_linear" x1="-53.4547" y1="400.913" x2="1167.53" y2="-56.7757" gradientUnits="userSpaceOnUse">
<stop stop-color="#4858CC"/>
<stop offset="0.572917" stop-color="#8B58CC"/>
<stop offset="1" stop-color="#9F58CC"/>
</linearGradient>
</defs>
</svg>
