<svg width="1024" height="482" viewBox="0 0 1024 482" fill="none" xmlns="http://www.w3.org/2000/svg">
<path d="M0 482C0 482 110 474.246 226.554 438.041C405.504 382.506 562.214 390.139 689.782 394.323C862.784 400.002 1024 346.643 1024 346.643V0H0V482Z" fill="#CFD2D3"/>
<path d="M0 401.533C0 401.533 73.7091 365.579 389.35 379.76C595.175 388.992 728.412 364.061 900.24 312.529C943.649 299.51 1024 280.512 1024 280.512V0H0.0133531L0 401.533Z" fill="url(#paint0_linear)"/>
<path opacity="0.7" d="M0 427.028C0 427.028 131.227 435.728 223.007 418.752C392.599 387.374 488.505 336.928 655.199 321.822C843.462 304.766 1024 315.562 1024 315.562V0H0.0133537L0 427.028Z" fill="url(#paint1_linear)"/>
<defs>
<linearGradient id="paint0_linear" x1="0" y1="250.792" x2="1521.27" y2="250.792" gradientUnits="userSpaceOnUse">
<stop stop-color="#0058CC"/>
<stop offset="0.01" stop-color="#0158CC"/>
<stop offset="0.67" stop-color="#3458CC"/>
<stop offset="1" stop-color="#4858CC"/>
</linearGradient>
<linearGradient id="paint1_linear" x1="-71.3354" y1="401.154" x2="1415.42" y2="-342.137" gradientUnits="userSpaceOnUse">
<stop stop-color="#0058CC"/>
<stop offset="0.03" stop-color="#0458CC"/>
<stop offset="0.5" stop-color="#5758CC"/>
<stop offset="0.84" stop-color="#8B58CC"/>
<stop offset="1" stop-color="#9F58CC"/>
</linearGradient>
</defs>
</svg>
