<svg width="672" height="506" viewBox="0 0 672 506" fill="none" xmlns="http://www.w3.org/2000/svg">
<g clip-path="url(#clip0)">
<g clip-path="url(#clip1)">
<g clip-path="url(#clip2)">
<path opacity="0.21" d="M401.022 471.465C498.789 471.465 578.044 392.261 578.044 294.557C578.044 196.853 498.789 117.648 401.022 117.648C303.256 117.648 224 196.853 224 294.557C224 392.261 303.256 471.465 401.022 471.465Z" fill="white"/>
<path fill-rule="evenodd" clip-rule="evenodd" d="M358.384 330.404C358.572 330.164 358.761 329.913 358.949 329.672C358.75 329.923 358.572 330.164 358.384 330.404Z" fill="#B5D1F3"/>
<path d="M367.295 326.743C367.295 326.743 370.143 325.645 371.138 323.897C372.122 322.139 375.526 319.073 378.06 319.292C380.583 319.512 382.887 320.81 382.667 323.018C382.447 325.216 380.468 327.193 379.704 329.056C378.939 330.919 376.081 332.782 376.081 332.782L372.939 329.82L370.154 332.782L367.295 326.743Z" fill="#F9BBA5"/>
<path d="M350.383 339.186C350.383 339.186 360.038 328.428 363.661 327.005C367.284 325.581 368.709 326.126 368.709 326.126L372.217 331.389C372.217 331.389 372.876 333.911 372.656 336.329C372.437 338.746 369.913 342.807 369.913 342.807L350.383 339.186Z" fill="#4858CC"/>
<path d="M370.363 324.597C370.363 324.597 370.803 317.679 375.086 317.25C379.368 316.811 382.437 319.553 382.657 320.923C382.876 322.294 380.018 321.855 379.033 322.075C378.049 322.294 374.866 325.591 374.751 326.794C374.635 327.998 376.834 328.217 378.039 329.431C379.243 330.635 378.583 331.514 377.159 333.052C375.735 334.591 371.106 334.182 371.777 332.393C372.436 330.635 373.64 327.443 373.421 326.302C373.222 325.141 370.227 325.706 370.363 324.597Z" fill="#425668"/>
<path fill-rule="evenodd" clip-rule="evenodd" d="M369.243 335.04C370.29 335.155 371.337 335.26 372.385 335.364C371.494 345.672 370.594 355.991 369.704 366.298C369.452 369.218 367.819 370.589 364.939 370.579C358.258 370.568 351.577 370.537 344.907 370.6C341.546 370.631 340.017 368.988 339.745 365.744C338.875 355.425 337.933 345.118 337.022 334.799C337.577 334.747 365.316 335.04 369.243 335.04Z" fill="#556677"/>
<path opacity="0.72" fill-rule="evenodd" clip-rule="evenodd" d="M519.185 243.642C519.185 243.642 537.255 242.13 534.764 228.796C532.274 215.462 516.385 212.432 508.901 216.071C501.424 219.71 499.554 227.893 499.554 227.893C499.554 227.893 490.515 219.102 474.316 225.163C458.117 231.225 470.575 243.648 470.575 243.648H519.185V243.642Z" fill="url(#paint0_linear)"/>
<path opacity="0.7" fill-rule="evenodd" clip-rule="evenodd" d="M101.78 337.354H82.5333C82.5333 337.354 66.7526 338.128 70.6062 326.198C74.4597 314.279 94.8479 318.12 94.8479 318.12C94.8479 318.12 89.1723 306.64 99.8009 301.324C114.43 294.019 121.99 309.015 121.99 309.015C121.99 309.015 132.765 291.832 147.185 301.711C159.772 310.323 151.803 321.583 151.803 321.583C151.803 321.583 162.4 318.507 165.866 327.737C169.332 336.967 154.505 337.365 154.505 337.365L101.78 337.354Z" fill="url(#paint1_linear)"/>
<path d="M450.492 62.9754C425.297 42.3178 400.249 34.4796 376.552 30.6076C363.117 28.117 348.656 27.8867 333.231 30.6076C314.089 33.8099 284.486 42.3178 259.291 62.9754C220.4 94.8618 207.74 144.444 232.264 195.502C258.673 250.506 331.147 314.896 331.147 314.896H333.242H376.562H378.657C378.657 314.896 451.131 250.506 477.54 195.502C502.044 144.444 489.383 94.8618 450.492 62.9754Z" fill="url(#paint2_radial)"/>
<path d="M384.605 32.6797C381.264 31.8739 377.955 31.1936 374.667 30.6076C362.405 28.117 349.2 27.8867 335.105 30.6076C332.467 31.089 329.597 31.696 326.571 32.4494C315.524 37.9016 303.994 45.4258 293.334 55.7965C257.825 90.2992 246.264 143.952 268.653 199.196C286.308 242.751 326.487 291.758 346.76 314.896H363.044C383.317 291.758 423.496 242.762 441.151 199.196C463.539 143.942 451.979 90.2992 416.47 55.7965C405.768 45.4154 395.118 38.0377 384.605 32.6797Z" fill="#515FF9"/>
<path d="M256.579 218.009C276.653 218.564 285.303 223.346 285.303 223.346L261.553 158.024C261.553 158.024 253.448 154.341 237.615 153.608C229.185 153.221 223.573 153.242 220.169 153.347C221.447 167.045 225.395 181.215 232.254 195.489C235.877 203.034 240.369 210.746 245.416 218.459C248.401 218.103 252.097 217.883 256.579 218.009Z" fill="url(#paint3_radial)"/>
<path d="M489.614 153.357C486.232 153.242 480.567 153.211 471.99 153.608C456.157 154.341 448.052 158.025 448.052 158.025L424.303 223.346C424.303 223.346 432.952 218.564 453.026 218.009C457.602 217.884 461.351 218.103 464.367 218.48C469.425 210.767 473.917 203.044 477.54 195.489C484.378 181.215 488.326 167.045 489.614 153.357Z" fill="url(#paint4_radial)"/>
<path d="M427.622 192.393C410.312 192.759 399.39 195.679 399.39 195.679L408.102 132.314C408.102 132.314 419.883 127.846 434.983 127.48C442.167 127.302 447.769 127.291 451.664 127.333C448.313 99.6326 436.02 74.7994 416.448 55.7848C405.767 45.4037 395.118 38.0259 384.604 32.6679C381.264 31.8621 377.955 31.1819 374.667 30.5959C362.404 28.1053 349.2 27.875 335.105 30.5959C332.466 31.0773 329.597 31.6842 326.571 32.4377C315.523 37.8899 303.994 45.4141 293.334 55.7848C273.762 74.789 261.479 99.6221 258.128 127.323C261.951 127.291 267.176 127.312 273.721 127.48C288.821 127.846 300.601 132.314 300.601 132.314L309.314 195.679C309.314 195.679 298.392 192.759 281.082 192.393C275.208 192.267 270.234 192.466 266.212 192.78C266.977 194.915 267.783 197.05 268.652 199.185C286.307 242.739 326.487 291.746 346.76 314.884H363.043C383.316 291.746 423.496 242.75 441.151 199.185C442.009 197.071 442.805 194.967 443.559 192.864C439.35 192.508 434.009 192.257 427.622 192.393Z" fill="url(#paint5_radial)"/>
<path d="M281.072 192.394C298.381 192.76 309.303 195.68 309.303 195.68L300.591 132.315C300.591 132.315 288.81 127.846 273.71 127.48C267.166 127.323 261.94 127.302 258.118 127.323C255.626 147.949 258.087 170.177 266.202 192.781C270.223 192.467 275.197 192.268 281.072 192.394Z" fill="url(#paint6_radial)"/>
<path d="M451.664 127.333C447.769 127.291 442.167 127.302 434.983 127.479C419.883 127.846 408.102 132.314 408.102 132.314L399.39 195.679C399.39 195.679 410.312 192.759 427.622 192.393C434.02 192.257 439.36 192.508 443.549 192.864C451.685 170.239 454.157 147.991 451.664 127.333Z" fill="url(#paint7_radial)"/>
<path d="M301.785 166.516C302.811 177.253 304.539 188.189 307.01 199.187C316.811 242.742 339.116 291.749 350.373 314.887H359.41C370.667 291.749 392.971 242.753 402.773 199.187C405.254 188.137 406.993 177.148 408.008 166.37C397.82 164.465 377.672 161.305 356.352 161.305C334.508 161.315 312.497 164.633 301.785 166.516Z" fill="url(#paint8_radial)"/>
<path d="M405.297 101.517C401.935 84.2187 396.427 68.668 389.066 55.7857C381.84 43.1442 374.636 34.9293 367.567 29.4352C359.682 28.4306 351.441 28.3573 342.844 29.3934C335.64 34.9607 327.838 43.3325 320.718 55.7857C313.367 68.6575 307.858 84.1873 304.497 101.486C315.398 99.5707 334.404 96.8498 354.248 96.8498C374.196 96.8498 393.977 99.6125 405.297 101.517Z" fill="url(#paint9_radial)"/>
<path d="M405.297 101.519C393.977 99.6038 374.196 96.8516 354.237 96.8516C334.393 96.8516 315.387 99.5724 304.487 101.487C300.623 121.318 299.586 143.452 301.785 166.516C312.497 164.632 334.509 161.315 356.363 161.315C377.672 161.315 397.82 164.475 408.019 166.38C410.187 143.378 409.14 121.297 405.297 101.519Z" fill="url(#paint10_radial)"/>
<path d="M373.651 340.133H335.765C335.514 340.133 335.315 339.935 335.315 339.684V334.786C335.315 334.535 335.514 334.336 335.765 334.336H373.651C373.903 334.336 374.102 334.535 374.102 334.786V339.684C374.102 339.935 373.892 340.133 373.651 340.133ZM336.215 339.234H373.191V335.236H336.215V339.234Z" fill="#394249"/>
<path d="M354.708 335.237H336.833C336.655 335.237 336.488 335.133 336.414 334.965L326.299 311.775C326.236 311.639 326.257 311.472 326.341 311.346C326.424 311.22 326.571 311.137 326.718 311.137H354.708C354.959 311.137 355.158 311.336 355.158 311.587V334.777C355.158 335.038 354.959 335.237 354.708 335.237ZM337.126 334.327H354.247V312.047H327.398L337.126 334.327Z" fill="#394249"/>
<path d="M372.185 335.239H354.708C354.457 335.239 354.258 335.04 354.258 334.789V311.598C354.258 311.347 354.457 311.148 354.708 311.148H382.699C382.856 311.148 382.992 311.232 383.076 311.358C383.159 311.483 383.17 311.651 383.107 311.787L372.594 334.977C372.531 335.134 372.363 335.239 372.185 335.239ZM355.158 334.328H371.892L381.987 312.048H355.148V334.328H355.158Z" fill="#394249"/>
<path d="M346.1 334.859C345.901 334.859 345.713 334.723 345.661 334.524L339.493 311.711C339.43 311.47 339.566 311.219 339.817 311.156C340.058 311.093 340.31 311.229 340.372 311.47L346.54 334.283C346.603 334.524 346.467 334.775 346.216 334.838C346.174 334.859 346.132 334.859 346.1 334.859Z" fill="#394249"/>
<path d="M362.823 334.862C362.782 334.862 362.74 334.862 362.708 334.842C362.467 334.779 362.321 334.528 362.384 334.287L368.551 311.474C368.614 311.233 368.866 311.086 369.106 311.16C369.347 311.222 369.494 311.474 369.431 311.714L363.263 334.528C363.211 334.737 363.022 334.862 362.823 334.862Z" fill="#394249"/>
<path d="M326.456 107.375C325.838 107.375 325.356 107.825 325.356 108.411V116.846C325.356 117.421 325.838 117.882 326.456 117.882C327.063 117.882 327.545 117.432 327.545 116.846V108.411C327.545 107.835 327.063 107.375 326.456 107.375Z" fill="white"/>
<path d="M337.284 116.847C337.284 117.412 337.776 117.883 338.383 117.883C338.99 117.883 339.483 117.422 339.483 116.847V109.396H341.933C342.488 109.396 342.949 108.956 342.949 108.422C342.949 107.889 342.498 107.449 341.933 107.449H334.844C334.278 107.449 333.817 107.889 333.817 108.422C333.817 108.956 334.278 109.396 334.844 109.396H337.284V116.847Z" fill="white"/>
<path d="M351.86 117.359C352.132 117.715 352.467 117.883 352.897 117.883C353.41 117.883 353.954 117.506 353.954 116.909C353.954 116.564 353.787 116.334 353.609 116.135L351.713 113.885C353.211 113.372 354.028 112.284 354.028 110.777C354.028 109.877 353.703 109.082 353.096 108.496C352.352 107.815 351.253 107.449 349.902 107.449H346.09C345.472 107.449 344.991 107.91 344.991 108.496V116.847C344.991 117.422 345.472 117.883 346.09 117.883C346.698 117.883 347.179 117.433 347.179 116.847V114.304H349.315L351.86 117.359ZM349.766 112.43H347.179V109.375H349.755C350.52 109.375 351.808 109.574 351.808 110.913C351.808 111.844 351.022 112.43 349.766 112.43Z" fill="white"/>
<path d="M356.75 117.882C357.211 117.882 357.588 117.641 357.766 117.233L358.624 115.381H363.609L364.436 117.17C364.646 117.631 365.012 117.882 365.494 117.882C366.08 117.882 366.531 117.442 366.531 116.877C366.531 116.72 366.489 116.563 366.405 116.438L362.436 108.118C362.185 107.595 361.745 107.312 361.18 107.312H361.085C360.52 107.312 360.07 107.595 359.818 108.118L355.85 116.438C355.755 116.616 355.713 116.762 355.713 116.909C355.724 117.453 356.174 117.882 356.75 117.882ZM359.483 113.508L361.117 109.971L362.75 113.508H359.483Z" fill="white"/>
<path d="M369.463 117.882C370.07 117.882 370.552 117.432 370.552 116.846V108.411C370.552 107.835 370.07 107.375 369.463 107.375C368.845 107.375 368.363 107.825 368.363 108.411V116.846C368.363 117.421 368.845 117.882 369.463 117.882Z" fill="white"/>
<path d="M382.06 107.375C381.474 107.375 380.992 107.835 380.992 108.39V114.125L375.924 107.961C375.631 107.616 375.327 107.385 374.824 107.385H374.625C374.018 107.385 373.526 107.856 373.526 108.432V116.856C373.526 117.421 374.018 117.871 374.615 117.871C375.201 117.871 375.683 117.411 375.683 116.856V110.923L380.898 117.275C381.139 117.568 381.453 117.861 381.997 117.861H382.071C382.668 117.861 383.139 117.411 383.139 116.825V108.39C383.149 107.835 382.668 107.375 382.06 107.375Z" fill="white"/>
<path d="M345.661 121.941C345.252 121.941 344.928 122.13 344.635 122.538L341.744 126.42L338.896 122.559C338.708 122.308 338.404 121.962 337.849 121.962C337.231 121.962 336.75 122.402 336.75 122.967C336.75 123.218 336.833 123.448 337.001 123.679L340.645 128.388V131.433C340.645 132.009 341.127 132.469 341.734 132.469C342.352 132.469 342.833 132.019 342.833 131.433V128.346L346.446 123.7C346.645 123.448 346.739 123.218 346.739 122.967C346.729 122.381 346.268 121.941 345.661 121.941Z" fill="white"/>
<path d="M353.316 121.859C350.09 121.859 347.556 124.204 347.556 127.238C347.556 130.273 350.017 132.554 353.284 132.554C356.509 132.554 359.043 130.2 359.043 127.176C359.043 124.151 356.583 121.859 353.316 121.859ZM353.284 123.795C355.263 123.795 356.761 125.26 356.761 127.238C356.761 129.164 355.284 130.608 353.316 130.608C351.336 130.608 349.839 129.143 349.839 127.176C349.839 125.25 351.315 123.795 353.284 123.795Z" fill="white"/>
<path d="M369.201 121.965C368.583 121.965 368.101 122.415 368.101 123.001V127.982C368.101 129.677 367.201 130.609 365.567 130.609C363.923 130.609 363.023 129.646 363.023 127.909V123.001C363.023 122.425 362.541 121.965 361.933 121.965C361.316 121.965 360.834 122.415 360.834 123.001V127.982C360.834 130.891 362.551 132.555 365.536 132.555C368.552 132.555 370.279 130.86 370.279 127.898V123.001C370.279 122.415 369.808 121.965 369.201 121.965Z" fill="white"/>
</g>
</g>
</g>
<defs>
<linearGradient id="paint0_linear" x1="499.717" y1="207.151" x2="501.193" y2="257.975" gradientUnits="userSpaceOnUse">
<stop stop-color="white"/>
<stop offset="0.233" stop-color="#FDFDFE"/>
<stop offset="0.3169" stop-color="#F6F8F9"/>
<stop offset="0.3765" stop-color="#EBEEF1"/>
<stop offset="0.412" stop-color="#DFE5E9"/>
<stop offset="1" stop-color="#48A8F4"/>
</linearGradient>
<linearGradient id="paint1_linear" x1="118.204" y1="294.278" x2="118.204" y2="361.012" gradientUnits="userSpaceOnUse">
<stop stop-color="white"/>
<stop offset="0.233" stop-color="#FDFDFE"/>
<stop offset="0.3169" stop-color="#F6F8F9"/>
<stop offset="0.3765" stop-color="#EBEEF1"/>
<stop offset="0.412" stop-color="#DFE5E9"/>
<stop offset="1" stop-color="#48A8F4"/>
</linearGradient>
<radialGradient id="paint2_radial" cx="0" cy="0" r="1" gradientUnits="userSpaceOnUse" gradientTransform="translate(345.749 83.6132) scale(173.184 173.073)">
<stop offset="0.001715" stop-color="#48A8F4"/>
<stop offset="0.045" stop-color="#44A3F2"/>
<stop offset="0.4646" stop-color="#1F7BDD"/>
<stop offset="0.796" stop-color="#0861D1"/>
<stop offset="0.9961" stop-color="#0058CC"/>
</radialGradient>
<radialGradient id="paint3_radial" cx="0" cy="0" r="1" gradientUnits="userSpaceOnUse" gradientTransform="translate(318.63 -26.0474) scale(379.003 378.76)">
<stop offset="0.001715" stop-color="#58A8F4"/>
<stop offset="0.2946" stop-color="#55A6F3"/>
<stop offset="0.489" stop-color="#4C9DEF"/>
<stop offset="0.6549" stop-color="#3D90E8"/>
<stop offset="0.8047" stop-color="#287CDE"/>
<stop offset="0.9424" stop-color="#0D64D2"/>
<stop offset="0.9961" stop-color="#0058CC"/>
</radialGradient>
<radialGradient id="paint4_radial" cx="0" cy="0" r="1" gradientUnits="userSpaceOnUse" gradientTransform="translate(318.631 -26.0472) scale(379.004 378.76)">
<stop offset="0.001715" stop-color="#58A8F4"/>
<stop offset="0.2946" stop-color="#55A6F3"/>
<stop offset="0.489" stop-color="#4C9DEF"/>
<stop offset="0.6549" stop-color="#3D90E8"/>
<stop offset="0.8047" stop-color="#287CDE"/>
<stop offset="0.9424" stop-color="#0D64D2"/>
<stop offset="0.9961" stop-color="#0058CC"/>
</radialGradient>
<radialGradient id="paint5_radial" cx="0" cy="0" r="1" gradientUnits="userSpaceOnUse" gradientTransform="translate(349.297 32.1954) scale(341.637 341.418)">
<stop offset="0.001715" stop-color="#48A8F4"/>
<stop offset="0.045" stop-color="#44A3F2"/>
<stop offset="0.4646" stop-color="#1F7BDD"/>
<stop offset="0.796" stop-color="#0861D1"/>
<stop offset="0.9961" stop-color="#0058CC"/>
</radialGradient>
<radialGradient id="paint6_radial" cx="0" cy="0" r="1" gradientUnits="userSpaceOnUse" gradientTransform="translate(362.298 61.2349) scale(727.477 727.01)">
<stop offset="0.001715" stop-color="#58A8F4"/>
<stop offset="0.2946" stop-color="#55A6F3"/>
<stop offset="0.489" stop-color="#4C9DEF"/>
<stop offset="0.6549" stop-color="#3D90E8"/>
<stop offset="0.8047" stop-color="#287CDE"/>
<stop offset="0.9424" stop-color="#0D64D2"/>
<stop offset="0.9961" stop-color="#0058CC"/>
</radialGradient>
<radialGradient id="paint7_radial" cx="0" cy="0" r="1" gradientUnits="userSpaceOnUse" gradientTransform="translate(362.298 61.2342) scale(727.477 727.009)">
<stop offset="0.001715" stop-color="#58A8F4"/>
<stop offset="0.2946" stop-color="#55A6F3"/>
<stop offset="0.489" stop-color="#4C9DEF"/>
<stop offset="0.6549" stop-color="#3D90E8"/>
<stop offset="0.8047" stop-color="#287CDE"/>
<stop offset="0.9424" stop-color="#0D64D2"/>
<stop offset="0.9961" stop-color="#0058CC"/>
</radialGradient>
<radialGradient id="paint8_radial" cx="0" cy="0" r="1" gradientUnits="userSpaceOnUse" gradientTransform="translate(351.071 108.436) scale(163.624 163.519)">
<stop offset="0.001715" stop-color="#B0CEED"/>
<stop offset="0.1494" stop-color="#A0C4EB"/>
<stop offset="0.4379" stop-color="#76ABE5"/>
<stop offset="0.8352" stop-color="#3482DC"/>
<stop offset="1" stop-color="#1670D8"/>
</radialGradient>
<radialGradient id="paint9_radial" cx="0" cy="0" r="1" gradientUnits="userSpaceOnUse" gradientTransform="translate(351.071 108.435) scale(163.624 163.519)">
<stop offset="0.001715" stop-color="#B0CEED"/>
<stop offset="0.1494" stop-color="#A0C4EB"/>
<stop offset="0.4379" stop-color="#76ABE5"/>
<stop offset="0.8352" stop-color="#3482DC"/>
<stop offset="1" stop-color="#1670D8"/>
</radialGradient>
<radialGradient id="paint10_radial" cx="0" cy="0" r="1" gradientUnits="userSpaceOnUse" gradientTransform="translate(386.179 65.3281) scale(534.312 533.968)">
<stop offset="0.001715" stop-color="#B0CEED"/>
<stop offset="0.1494" stop-color="#A0C4EB"/>
<stop offset="0.4379" stop-color="#76ABE5"/>
<stop offset="0.8352" stop-color="#3482DC"/>
<stop offset="1" stop-color="#1670D8"/>
</radialGradient>
<clipPath id="clip0">
<rect width="672" height="505.205" fill="white" transform="translate(0 0.648438)"/>
</clipPath>
<clipPath id="clip1">
<rect width="740" height="470" fill="white" transform="translate(-28 28.6484)"/>
</clipPath>
<clipPath id="clip2">
<rect width="572" height="423" fill="white" transform="translate(35 28.6484)"/>
</clipPath>
</defs>
</svg>
