<svg width="509" height="424" viewBox="0 0 509 424" fill="none" xmlns="http://www.w3.org/2000/svg">
<path opacity="0.21" d="M331.022 443.465C428.789 443.465 508.044 364.261 508.044 266.557C508.044 168.853 428.789 89.6484 331.022 89.6484C233.256 89.6484 154 168.853 154 266.557C154 364.261 233.256 443.465 331.022 443.465Z" fill="white"/>
<path fill-rule="evenodd" clip-rule="evenodd" d="M288.384 302.404C288.572 302.164 288.761 301.913 288.949 301.672C288.75 301.923 288.572 302.164 288.384 302.404Z" fill="#B5D1F3"/>
<path d="M297.295 298.743C297.295 298.743 300.143 297.645 301.138 295.897C302.122 294.139 305.526 291.073 308.06 291.292C310.583 291.512 312.887 292.81 312.667 295.018C312.447 297.216 310.468 299.193 309.704 301.056C308.939 302.919 306.081 304.782 306.081 304.782L302.939 301.82L300.154 304.782L297.295 298.743Z" fill="#F9BBA5"/>
<path d="M280.383 311.186C280.383 311.186 290.038 300.428 293.661 299.005C297.284 297.581 298.709 298.126 298.709 298.126L302.217 303.389C302.217 303.389 302.876 305.911 302.656 308.329C302.437 310.746 299.913 314.807 299.913 314.807L280.383 311.186Z" fill="#4858CC"/>
<path d="M300.363 296.597C300.363 296.597 300.803 289.679 305.086 289.25C309.368 288.811 312.437 291.553 312.657 292.923C312.876 294.294 310.018 293.855 309.033 294.075C308.049 294.294 304.866 297.591 304.751 298.794C304.635 299.998 306.834 300.217 308.039 301.431C309.243 302.635 308.583 303.514 307.159 305.052C305.735 306.591 301.106 306.182 301.777 304.393C302.436 302.635 303.64 299.443 303.421 298.302C303.222 297.141 300.227 297.706 300.363 296.597Z" fill="#425668"/>
<path fill-rule="evenodd" clip-rule="evenodd" d="M299.243 307.04C300.29 307.155 301.337 307.26 302.385 307.364C301.494 317.672 300.594 327.991 299.704 338.298C299.452 341.218 297.819 342.589 294.939 342.579C288.258 342.568 281.577 342.537 274.907 342.6C271.546 342.631 270.017 340.988 269.745 337.744C268.875 327.425 267.933 317.118 267.022 306.799C267.577 306.747 295.316 307.04 299.243 307.04Z" fill="#556677"/>
<path opacity="0.72" fill-rule="evenodd" clip-rule="evenodd" d="M449.185 215.642C449.185 215.642 467.255 214.13 464.764 200.796C462.274 187.462 446.385 184.432 438.901 188.071C431.424 191.71 429.554 199.893 429.554 199.893C429.554 199.893 420.515 191.102 404.316 197.163C388.117 203.225 400.575 215.648 400.575 215.648H449.185V215.642Z" fill="url(#paint0_linear)"/>
<path opacity="0.7" fill-rule="evenodd" clip-rule="evenodd" d="M31.7801 309.354H12.5333C12.5333 309.354 -3.24739 310.128 0.606151 298.198C4.4597 286.279 24.8479 290.12 24.8479 290.12C24.8479 290.12 19.1723 278.64 29.8009 273.324C44.4298 266.019 51.9902 281.015 51.9902 281.015C51.9902 281.015 62.7655 263.832 77.1849 273.711C89.7717 282.323 81.8028 293.583 81.8028 293.583C81.8028 293.583 92.4001 290.507 95.8662 299.737C99.3323 308.967 84.5045 309.365 84.5045 309.365L31.7801 309.354Z" fill="url(#paint1_linear)"/>
<path d="M380.492 34.9754C355.297 14.3178 330.249 6.47961 306.552 2.60761C293.117 0.116972 278.656 -0.113254 263.231 2.60761C244.089 5.80985 214.486 14.3178 189.291 34.9754C150.4 66.8618 137.74 116.444 162.264 167.502C188.673 222.506 261.147 286.896 261.147 286.896H263.242H306.562H308.657C308.657 286.896 381.131 222.506 407.54 167.502C432.044 116.444 419.383 66.8618 380.492 34.9754Z" fill="url(#paint2_radial)"/>
<path d="M314.605 4.67965C311.264 3.87386 307.955 3.19364 304.667 2.60761C292.405 0.116972 279.2 -0.113254 265.105 2.60761C262.467 3.08899 259.597 3.69595 256.571 4.44942C245.524 9.90161 233.994 17.4258 223.334 27.7965C187.825 62.2992 176.264 115.952 198.653 171.196C216.308 214.751 256.487 263.758 276.76 286.896H293.044C313.317 263.758 353.496 214.762 371.151 171.196C393.539 115.942 381.979 62.2992 346.47 27.7965C335.768 17.4154 325.118 10.0377 314.605 4.67965Z" fill="#515FF9"/>
<path d="M186.579 190.009C206.653 190.564 215.303 195.346 215.303 195.346L191.553 130.024C191.553 130.024 183.448 126.341 167.615 125.608C159.185 125.221 153.573 125.242 150.169 125.347C151.447 139.045 155.395 153.215 162.254 167.489C165.877 175.034 170.369 182.746 175.416 190.459C178.401 190.103 182.097 189.883 186.579 190.009Z" fill="url(#paint3_radial)"/>
<path d="M419.614 125.357C416.232 125.242 410.567 125.211 401.99 125.608C386.157 126.341 378.052 130.025 378.052 130.025L354.303 195.346C354.303 195.346 362.952 190.564 383.026 190.009C387.602 189.884 391.351 190.103 394.367 190.48C399.425 182.767 403.917 175.044 407.54 167.489C414.378 153.215 418.326 139.045 419.614 125.357Z" fill="url(#paint4_radial)"/>
<path d="M357.622 164.393C340.312 164.759 329.39 167.679 329.39 167.679L338.102 104.314C338.102 104.314 349.883 99.8458 364.983 99.4795C372.167 99.3016 377.769 99.2912 381.664 99.333C378.313 71.6326 366.02 46.7994 346.448 27.7848C335.767 17.4037 325.118 10.0259 314.604 4.66793C311.264 3.86214 307.955 3.18192 304.667 2.59589C292.404 0.105254 279.2 -0.124973 265.105 2.59589C262.466 3.07727 259.597 3.68423 256.571 4.4377C245.523 9.88989 233.994 17.4141 223.334 27.7848C203.762 46.789 191.479 71.6221 188.128 99.3226C191.951 99.2912 197.176 99.3121 203.721 99.4795C218.821 99.8458 230.601 104.314 230.601 104.314L239.314 167.679C239.314 167.679 228.392 164.759 211.082 164.393C205.208 164.267 200.234 164.466 196.212 164.78C196.977 166.915 197.783 169.05 198.652 171.185C216.307 214.739 256.487 263.746 276.76 286.884H293.043C313.316 263.746 353.496 214.75 371.151 171.185C372.009 169.071 372.805 166.967 373.559 164.864C369.35 164.508 364.009 164.257 357.622 164.393Z" fill="url(#paint5_radial)"/>
<path d="M211.072 164.394C228.381 164.76 239.303 167.68 239.303 167.68L230.591 104.315C230.591 104.315 218.81 99.8464 203.71 99.4802C197.166 99.3232 191.94 99.3023 188.118 99.3232C185.626 119.949 188.087 142.177 196.202 164.781C200.223 164.467 205.197 164.268 211.072 164.394Z" fill="url(#paint6_radial)"/>
<path d="M381.664 99.3329C377.769 99.2911 372.167 99.3015 364.983 99.4794C349.883 99.8457 338.102 104.314 338.102 104.314L329.39 167.679C329.39 167.679 340.312 164.759 357.622 164.393C364.02 164.257 369.36 164.508 373.549 164.864C381.685 142.239 384.157 119.991 381.664 99.3329Z" fill="url(#paint7_radial)"/>
<path d="M231.785 138.516C232.811 149.253 234.539 160.189 237.01 171.187C246.811 214.742 269.116 263.749 280.373 286.887H289.41C300.667 263.749 322.971 214.753 332.773 171.187C335.254 160.137 336.993 149.148 338.008 138.37C327.82 136.465 307.672 133.305 286.352 133.305C264.508 133.315 242.497 136.633 231.785 138.516Z" fill="url(#paint8_radial)"/>
<path d="M335.297 73.5172C331.935 56.2187 326.427 40.668 319.066 27.7857C311.84 15.1442 304.636 6.92927 297.567 1.43522C289.682 0.430592 281.441 0.357338 272.844 1.39336C265.64 6.96066 257.838 15.3325 250.718 27.7857C243.367 40.6575 237.858 56.1873 234.497 73.4858C245.398 71.5707 264.404 68.8498 284.248 68.8498C304.196 68.8498 323.977 71.6125 335.297 73.5172Z" fill="url(#paint9_radial)"/>
<path d="M335.297 73.5189C323.977 71.6038 304.196 68.8516 284.237 68.8516C264.393 68.8516 245.387 71.5724 234.487 73.4875C230.623 93.3184 229.586 115.452 231.785 138.516C242.497 136.632 264.509 133.315 286.363 133.315C307.672 133.315 327.82 136.475 338.019 138.38C340.187 115.378 339.14 93.2975 335.297 73.5189Z" fill="url(#paint10_radial)"/>
<path d="M303.651 312.133H265.765C265.514 312.133 265.315 311.935 265.315 311.684V306.786C265.315 306.535 265.514 306.336 265.765 306.336H303.651C303.903 306.336 304.102 306.535 304.102 306.786V311.684C304.102 311.935 303.892 312.133 303.651 312.133ZM266.215 311.234H303.191V307.236H266.215V311.234Z" fill="#394249"/>
<path d="M284.708 307.237H266.833C266.655 307.237 266.488 307.133 266.414 306.965L256.299 283.775C256.236 283.639 256.257 283.472 256.341 283.346C256.424 283.22 256.571 283.137 256.718 283.137H284.708C284.959 283.137 285.158 283.336 285.158 283.587V306.777C285.158 307.038 284.959 307.237 284.708 307.237ZM267.126 306.327H284.247V284.047H257.398L267.126 306.327Z" fill="#394249"/>
<path d="M302.185 307.239H284.708C284.457 307.239 284.258 307.04 284.258 306.789V283.598C284.258 283.347 284.457 283.148 284.708 283.148H312.699C312.856 283.148 312.992 283.232 313.076 283.358C313.159 283.483 313.17 283.651 313.107 283.787L302.594 306.977C302.531 307.134 302.363 307.239 302.185 307.239ZM285.158 306.328H301.892L311.987 284.048H285.148V306.328H285.158Z" fill="#394249"/>
<path d="M276.1 306.859C275.901 306.859 275.713 306.723 275.661 306.524L269.493 283.711C269.43 283.47 269.566 283.219 269.817 283.156C270.058 283.093 270.31 283.229 270.372 283.47L276.54 306.283C276.603 306.524 276.467 306.775 276.216 306.838C276.174 306.859 276.132 306.859 276.1 306.859Z" fill="#394249"/>
<path d="M292.823 306.862C292.782 306.862 292.74 306.862 292.708 306.842C292.467 306.779 292.321 306.528 292.384 306.287L298.551 283.474C298.614 283.233 298.866 283.086 299.106 283.16C299.347 283.222 299.494 283.474 299.431 283.714L293.263 306.528C293.211 306.737 293.022 306.862 292.823 306.862Z" fill="#394249"/>
<path d="M256.456 79.375C255.838 79.375 255.356 79.825 255.356 80.411V88.8457C255.356 89.4213 255.838 89.8817 256.456 89.8817C257.063 89.8817 257.545 89.4317 257.545 88.8457V80.411C257.545 79.8355 257.063 79.375 256.456 79.375Z" fill="white"/>
<path d="M267.284 88.8466C267.284 89.4118 267.776 89.8827 268.383 89.8827C268.99 89.8827 269.483 89.4222 269.483 88.8466V81.3957H271.933C272.488 81.3957 272.949 80.9562 272.949 80.4225C272.949 79.8887 272.498 79.4492 271.933 79.4492H264.844C264.278 79.4492 263.817 79.8887 263.817 80.4225C263.817 80.9562 264.278 81.3957 264.844 81.3957H267.284V88.8466Z" fill="white"/>
<path d="M281.86 89.3594C282.132 89.7152 282.467 89.8827 282.897 89.8827C283.41 89.8827 283.954 89.5059 283.954 88.9094C283.954 88.5641 283.787 88.3339 283.609 88.135L281.713 85.8851C283.211 85.3723 284.028 84.284 284.028 82.777C284.028 81.8771 283.703 81.0817 283.096 80.4957C282.352 79.8155 281.253 79.4492 279.902 79.4492H276.09C275.472 79.4492 274.991 79.9097 274.991 80.4957V88.8466C274.991 89.4222 275.472 89.8827 276.09 89.8827C276.698 89.8827 277.179 89.4327 277.179 88.8466V86.3037H279.315L281.86 89.3594ZM279.766 84.4305H277.179V81.3747H279.755C280.52 81.3747 281.808 81.5736 281.808 82.9131C281.808 83.8445 281.022 84.4305 279.766 84.4305Z" fill="white"/>
<path d="M286.75 89.882C287.211 89.882 287.588 89.6413 287.766 89.2332L288.624 87.3809H293.609L294.436 89.1704C294.646 89.6309 295.012 89.882 295.494 89.882C296.08 89.882 296.531 89.4425 296.531 88.8774C296.531 88.7204 296.489 88.5634 296.405 88.4379L292.436 80.1183C292.185 79.5951 291.745 79.3125 291.18 79.3125H291.085C290.52 79.3125 290.07 79.5951 289.818 80.1183L285.85 88.4379C285.755 88.6158 285.713 88.7623 285.713 88.9088C285.724 89.453 286.174 89.882 286.75 89.882ZM289.483 85.5077L291.117 81.9706L292.75 85.5077H289.483Z" fill="white"/>
<path d="M299.463 89.8817C300.07 89.8817 300.552 89.4317 300.552 88.8457V80.411C300.552 79.8355 300.07 79.375 299.463 79.375C298.845 79.375 298.363 79.825 298.363 80.411V88.8457C298.363 89.4213 298.845 89.8817 299.463 89.8817Z" fill="white"/>
<path d="M312.06 79.375C311.474 79.375 310.992 79.8354 310.992 80.3901V86.1248L305.924 79.961C305.631 79.6157 305.327 79.3855 304.824 79.3855H304.625C304.018 79.3855 303.526 79.8564 303.526 80.4319V88.8562C303.526 89.4213 304.018 89.8713 304.615 89.8713C305.201 89.8713 305.683 89.4108 305.683 88.8562V82.9226L310.898 89.2748C311.139 89.5678 311.453 89.8608 311.997 89.8608H312.071C312.668 89.8608 313.139 89.4108 313.139 88.8248V80.3901C313.149 79.8354 312.668 79.375 312.06 79.375Z" fill="white"/>
<path d="M275.661 93.9414C275.252 93.9414 274.928 94.1298 274.635 94.5379L271.744 98.4204L268.896 94.5588C268.708 94.3077 268.404 93.9623 267.849 93.9623C267.231 93.9623 266.75 94.4019 266.75 94.967C266.75 95.2181 266.833 95.4483 267.001 95.6786L270.645 100.388V103.433C270.645 104.009 271.127 104.469 271.734 104.469C272.352 104.469 272.833 104.019 272.833 103.433V100.346L276.446 95.6995C276.645 95.4483 276.739 95.2181 276.739 94.967C276.729 94.3809 276.268 93.9414 275.661 93.9414Z" fill="white"/>
<path d="M283.316 93.8594C280.09 93.8594 277.556 96.2035 277.556 99.2383C277.556 102.273 280.017 104.554 283.284 104.554C286.509 104.554 289.043 102.2 289.043 99.1755C289.043 96.1512 286.583 93.8594 283.316 93.8594ZM283.284 95.7954C285.263 95.7954 286.761 97.2605 286.761 99.2383C286.761 101.164 285.284 102.608 283.316 102.608C281.336 102.608 279.839 101.143 279.839 99.1755C279.839 97.25 281.315 95.7954 283.284 95.7954Z" fill="white"/>
<path d="M299.201 93.9648C298.583 93.9648 298.101 94.4148 298.101 95.0009V99.9821C298.101 101.677 297.201 102.609 295.567 102.609C293.923 102.609 293.023 101.646 293.023 99.9089V95.0009C293.023 94.4253 292.541 93.9648 291.933 93.9648C291.316 93.9648 290.834 94.4148 290.834 95.0009V99.9821C290.834 102.891 292.551 104.555 295.536 104.555C298.552 104.555 300.279 102.86 300.279 99.8984V95.0009C300.279 94.4148 299.808 93.9648 299.201 93.9648Z" fill="white"/>
<defs>
<linearGradient id="paint0_linear" x1="429.717" y1="179.151" x2="431.193" y2="229.975" gradientUnits="userSpaceOnUse">
<stop stop-color="white"/>
<stop offset="0.233" stop-color="#FDFDFE"/>
<stop offset="0.3169" stop-color="#F6F8F9"/>
<stop offset="0.3765" stop-color="#EBEEF1"/>
<stop offset="0.412" stop-color="#DFE5E9"/>
<stop offset="1" stop-color="#48A8F4"/>
</linearGradient>
<linearGradient id="paint1_linear" x1="48.2038" y1="266.278" x2="48.2038" y2="333.012" gradientUnits="userSpaceOnUse">
<stop stop-color="white"/>
<stop offset="0.233" stop-color="#FDFDFE"/>
<stop offset="0.3169" stop-color="#F6F8F9"/>
<stop offset="0.3765" stop-color="#EBEEF1"/>
<stop offset="0.412" stop-color="#DFE5E9"/>
<stop offset="1" stop-color="#48A8F4"/>
</linearGradient>
<radialGradient id="paint2_radial" cx="0" cy="0" r="1" gradientUnits="userSpaceOnUse" gradientTransform="translate(275.749 55.6132) scale(173.184 173.073)">
<stop offset="0.001715" stop-color="#48A8F4"/>
<stop offset="0.045" stop-color="#44A3F2"/>
<stop offset="0.4646" stop-color="#1F7BDD"/>
<stop offset="0.796" stop-color="#0861D1"/>
<stop offset="0.9961" stop-color="#0058CC"/>
</radialGradient>
<radialGradient id="paint3_radial" cx="0" cy="0" r="1" gradientUnits="userSpaceOnUse" gradientTransform="translate(248.63 -54.0474) scale(379.003 378.76)">
<stop offset="0.001715" stop-color="#58A8F4"/>
<stop offset="0.2946" stop-color="#55A6F3"/>
<stop offset="0.489" stop-color="#4C9DEF"/>
<stop offset="0.6549" stop-color="#3D90E8"/>
<stop offset="0.8047" stop-color="#287CDE"/>
<stop offset="0.9424" stop-color="#0D64D2"/>
<stop offset="0.9961" stop-color="#0058CC"/>
</radialGradient>
<radialGradient id="paint4_radial" cx="0" cy="0" r="1" gradientUnits="userSpaceOnUse" gradientTransform="translate(248.631 -54.0472) scale(379.004 378.76)">
<stop offset="0.001715" stop-color="#58A8F4"/>
<stop offset="0.2946" stop-color="#55A6F3"/>
<stop offset="0.489" stop-color="#4C9DEF"/>
<stop offset="0.6549" stop-color="#3D90E8"/>
<stop offset="0.8047" stop-color="#287CDE"/>
<stop offset="0.9424" stop-color="#0D64D2"/>
<stop offset="0.9961" stop-color="#0058CC"/>
</radialGradient>
<radialGradient id="paint5_radial" cx="0" cy="0" r="1" gradientUnits="userSpaceOnUse" gradientTransform="translate(279.297 4.19544) scale(341.637 341.418)">
<stop offset="0.001715" stop-color="#48A8F4"/>
<stop offset="0.045" stop-color="#44A3F2"/>
<stop offset="0.4646" stop-color="#1F7BDD"/>
<stop offset="0.796" stop-color="#0861D1"/>
<stop offset="0.9961" stop-color="#0058CC"/>
</radialGradient>
<radialGradient id="paint6_radial" cx="0" cy="0" r="1" gradientUnits="userSpaceOnUse" gradientTransform="translate(292.298 33.2349) scale(727.477 727.01)">
<stop offset="0.001715" stop-color="#58A8F4"/>
<stop offset="0.2946" stop-color="#55A6F3"/>
<stop offset="0.489" stop-color="#4C9DEF"/>
<stop offset="0.6549" stop-color="#3D90E8"/>
<stop offset="0.8047" stop-color="#287CDE"/>
<stop offset="0.9424" stop-color="#0D64D2"/>
<stop offset="0.9961" stop-color="#0058CC"/>
</radialGradient>
<radialGradient id="paint7_radial" cx="0" cy="0" r="1" gradientUnits="userSpaceOnUse" gradientTransform="translate(292.298 33.2342) scale(727.477 727.009)">
<stop offset="0.001715" stop-color="#58A8F4"/>
<stop offset="0.2946" stop-color="#55A6F3"/>
<stop offset="0.489" stop-color="#4C9DEF"/>
<stop offset="0.6549" stop-color="#3D90E8"/>
<stop offset="0.8047" stop-color="#287CDE"/>
<stop offset="0.9424" stop-color="#0D64D2"/>
<stop offset="0.9961" stop-color="#0058CC"/>
</radialGradient>
<radialGradient id="paint8_radial" cx="0" cy="0" r="1" gradientUnits="userSpaceOnUse" gradientTransform="translate(281.071 80.4363) scale(163.624 163.519)">
<stop offset="0.001715" stop-color="#B0CEED"/>
<stop offset="0.1494" stop-color="#A0C4EB"/>
<stop offset="0.4379" stop-color="#76ABE5"/>
<stop offset="0.8352" stop-color="#3482DC"/>
<stop offset="1" stop-color="#1670D8"/>
</radialGradient>
<radialGradient id="paint9_radial" cx="0" cy="0" r="1" gradientUnits="userSpaceOnUse" gradientTransform="translate(281.071 80.4345) scale(163.624 163.519)">
<stop offset="0.001715" stop-color="#B0CEED"/>
<stop offset="0.1494" stop-color="#A0C4EB"/>
<stop offset="0.4379" stop-color="#76ABE5"/>
<stop offset="0.8352" stop-color="#3482DC"/>
<stop offset="1" stop-color="#1670D8"/>
</radialGradient>
<radialGradient id="paint10_radial" cx="0" cy="0" r="1" gradientUnits="userSpaceOnUse" gradientTransform="translate(316.179 37.3281) scale(534.312 533.968)">
<stop offset="0.001715" stop-color="#B0CEED"/>
<stop offset="0.1494" stop-color="#A0C4EB"/>
<stop offset="0.4379" stop-color="#76ABE5"/>
<stop offset="0.8352" stop-color="#3482DC"/>
<stop offset="1" stop-color="#1670D8"/>
</radialGradient>
</defs>
</svg>
