<svg width="80" height="103" viewBox="0 0 80 103" fill="none" xmlns="http://www.w3.org/2000/svg">
<path d="M1.52509 69.1013C1.3308 69.0934 1.13681 69.1232 0.954485 69.1888C0.772158 69.2545 0.605144 69.3547 0.463168 69.4837C0.321192 69.6127 0.207104 69.7679 0.127581 69.9402C0.048058 70.1125 0.00469039 70.2984 0 70.4871V81.8339C0 82.2266 0.160682 82.6032 0.446692 82.8808C0.732702 83.1585 1.12061 83.3145 1.52509 83.3145C1.92957 83.3145 2.31748 83.1585 2.60349 82.8808C2.8895 82.6032 3.05018 82.2266 3.05018 81.8339V70.4871C3.04715 70.2979 3.0049 70.1112 2.92595 69.9382C2.847 69.7651 2.73295 69.6093 2.59062 69.48C2.4483 69.3507 2.28061 69.2505 2.09754 69.1854C1.91447 69.1204 1.71979 69.0918 1.52509 69.1013V69.1013Z" fill="white"/>
<path d="M16.5198 81.8341C16.5539 82.2039 16.7293 82.5479 17.0116 82.7985C17.2938 83.049 17.6624 83.188 18.0449 83.188C18.4273 83.188 18.7959 83.049 19.0782 82.7985C19.3604 82.5479 19.5358 82.2039 19.5699 81.8341V71.8197H22.9679C23.1449 71.8197 23.3202 71.7859 23.4838 71.7201C23.6474 71.6543 23.796 71.5579 23.9212 71.4364C24.0464 71.3149 24.1457 71.1706 24.2134 71.0118C24.2812 70.853 24.316 70.6828 24.316 70.5109C24.316 70.3391 24.2812 70.1689 24.2134 70.0101C24.1457 69.8513 24.0464 69.707 23.9212 69.5855C23.796 69.464 23.6474 69.3675 23.4838 69.3018C23.3202 69.236 23.1449 69.2021 22.9679 69.2021H13.1463C12.9692 69.2021 12.7939 69.236 12.6303 69.3018C12.4668 69.3675 12.3181 69.464 12.193 69.5855C12.0678 69.707 11.9685 69.8513 11.9007 70.0101C11.833 70.1689 11.7981 70.3391 11.7981 70.5109C11.7981 70.6828 11.833 70.853 11.9007 71.0118C11.9685 71.1706 12.0678 71.3149 12.193 71.4364C12.3181 71.5579 12.4668 71.6543 12.6303 71.7201C12.7939 71.7859 12.9692 71.8197 13.1463 71.8197H16.5198V81.8341V81.8341Z" fill="white"/>
<path d="M36.6874 82.5209C36.8501 82.7429 37.0664 82.9227 37.3175 83.0446C37.5685 83.1664 37.8465 83.2266 38.127 83.2197C38.4994 83.2326 38.862 83.1024 39.1361 82.8574C39.4102 82.6123 39.5737 82.2723 39.5911 81.9109C39.5745 81.5175 39.4044 81.1449 39.1153 80.8686L36.4921 77.8484C38.5602 77.1614 39.6948 75.7045 39.6948 73.6733C39.7082 73.1031 39.6003 72.5363 39.3778 72.0085C39.1552 71.4806 38.8229 71.003 38.4016 70.6056C37.1647 69.6174 35.5905 69.1164 33.991 69.202H28.7142C28.5183 69.1957 28.323 69.2273 28.1399 69.2951C27.9567 69.3628 27.7892 69.4652 27.6473 69.5964C27.5053 69.7276 27.3917 69.8849 27.313 70.0592C27.2344 70.2335 27.1922 70.4213 27.1891 70.6115V81.8636C27.1891 82.2562 27.3498 82.6328 27.6358 82.9105C27.9218 83.1881 28.3097 83.3441 28.7142 83.3441C29.1187 83.3441 29.5066 83.1881 29.7926 82.9105C30.0786 82.6328 30.2393 82.2562 30.2393 81.8636V78.4465H33.1979L36.6874 82.5209ZM33.7958 75.8941H30.2088V71.7782H33.7714C34.8328 71.7782 36.6203 72.0387 36.6203 73.845C36.6203 75.1064 35.5405 75.8941 33.7958 75.8941Z" fill="white"/>
<path d="M43.4711 83.2198C43.7678 83.2277 44.0602 83.1482 44.3095 82.9918C44.5589 82.8353 44.7536 82.6093 44.868 82.3433L46.0576 79.8619H52.9632L54.1101 82.2663C54.2254 82.5509 54.4273 82.7946 54.6888 82.9649C54.9504 83.1352 55.2592 83.2242 55.5742 83.2198C55.7605 83.2245 55.9459 83.1932 56.1195 83.1276C56.2932 83.062 56.4517 82.9635 56.5857 82.8378C56.7197 82.7121 56.8266 82.5617 56.9001 82.3955C56.9736 82.2292 57.0123 82.0504 57.0139 81.8695C57.0116 81.661 56.9527 81.4567 56.8431 81.2773L51.3527 70.0845C51.2091 69.7549 50.9663 69.475 50.656 69.2817C50.3458 69.0883 49.9826 68.9904 49.6141 69.0007H49.486C49.1154 68.9916 48.7504 69.0898 48.4375 69.2828C48.1246 69.4758 47.878 69.7549 47.7291 70.0845L42.2388 81.2655C42.1084 81.4672 42.0385 81.7002 42.0371 81.9384C42.0357 82.1765 42.1029 82.4103 42.231 82.6134C42.359 82.8165 42.543 82.9809 42.7621 83.088C42.9811 83.1952 43.2267 83.2408 43.4711 83.2198V83.2198ZM47.2533 77.3391L49.5165 72.6014L51.7737 77.3391H47.2533V77.3391Z" fill="white"/>
<path d="M61.0645 83.2189C61.2577 83.226 61.4504 83.1956 61.6314 83.1295C61.8123 83.0633 61.9778 82.9628 62.1181 82.8337C62.2585 82.7046 62.3709 82.5496 62.4487 82.3778C62.5265 82.206 62.5682 82.0208 62.5713 81.8331V70.4863C62.5713 70.0937 62.4106 69.7171 62.1246 69.4394C61.8386 69.1618 61.4507 69.0058 61.0462 69.0058C60.6417 69.0058 60.2538 69.1618 59.9678 69.4394C59.6818 69.7171 59.5211 70.0937 59.5211 70.4863V81.8331C59.5257 82.0234 59.5697 82.2109 59.6503 82.3844C59.731 82.5579 59.8467 82.7139 59.9907 82.8431C60.1346 82.9724 60.3039 83.0723 60.4883 83.1368C60.6728 83.2014 60.8687 83.2293 61.0645 83.2189V83.2189Z" fill="white"/>
<path d="M78.5176 69.1014C78.1346 69.0934 77.7638 69.2327 77.4861 69.489C77.2085 69.7452 77.0464 70.0976 77.0352 70.4694V78.1682L70.0259 69.8772C69.855 69.6413 69.6286 69.4483 69.3655 69.3144C69.1023 69.1805 68.8101 69.1095 68.513 69.1073H68.2385C67.8447 69.0978 67.4631 69.2401 67.1772 69.5032C66.8914 69.7663 66.7246 70.1286 66.7134 70.5109V81.834C66.7134 82.2188 66.8708 82.5878 67.1511 82.8599C67.4314 83.132 67.8116 83.2849 68.208 83.2849C68.6044 83.2849 68.9845 83.132 69.2648 82.8599C69.5451 82.5878 69.7026 82.2188 69.7026 81.834V73.8746L76.9193 82.4143C77.0902 82.653 77.317 82.8488 77.5811 82.9858C77.8451 83.1227 78.1389 83.1968 78.4383 83.202H78.5176C78.7092 83.2075 78.9 83.1758 79.0788 83.1088C79.2576 83.0418 79.4209 82.9408 79.5589 82.8117C79.697 82.6826 79.8072 82.5281 79.8829 82.3571C79.9586 82.1862 79.9984 82.0023 80 81.8162V70.4872C79.9904 70.1133 79.8294 69.7582 79.5519 69.4988C79.2744 69.2394 78.9028 69.0966 78.5176 69.1014V69.1014Z" fill="white"/>
<path d="M27.9519 88.6859C27.6644 88.6908 27.3831 88.7668 27.1344 88.9067C26.8857 89.0465 26.6778 89.2457 26.5305 89.4853L22.5225 94.6968L18.5756 89.5031C18.4232 89.264 18.2117 89.0656 17.9603 88.926C17.7089 88.7863 17.4255 88.7099 17.1359 88.7036C16.944 88.6933 16.7519 88.7202 16.5709 88.7827C16.3898 88.8453 16.2234 88.9423 16.0814 89.068C15.9394 89.1937 15.8247 89.3456 15.7439 89.5149C15.6631 89.6842 15.6178 89.8674 15.6108 90.0539C15.6157 90.401 15.7354 90.7374 15.9525 91.0133L20.9975 97.344V101.442C20.9975 101.835 21.1581 102.211 21.4441 102.489C21.7302 102.767 22.1181 102.923 22.5225 102.923C22.927 102.923 23.3149 102.767 23.6009 102.489C23.8869 102.211 24.0476 101.835 24.0476 101.442V97.2966L29.0499 91.0488C29.2986 90.7789 29.4431 90.4335 29.4586 90.0716C29.4607 89.8825 29.4226 89.695 29.3466 89.5208C29.2705 89.3466 29.1583 89.1896 29.0168 89.0595C28.8754 88.9294 28.7078 88.8291 28.5245 88.7648C28.3413 88.7005 28.1463 88.6736 27.9519 88.6859V88.6859Z" fill="white"/>
<path d="M38.5481 88.5735C34.0827 88.5735 30.5811 91.7359 30.5811 95.8044C30.5811 99.8729 33.9912 102.958 38.5115 102.958C43.0319 102.958 46.4786 99.7959 46.4786 95.7274C46.4786 91.6589 43.0685 88.5735 38.5481 88.5735ZM38.5054 91.1733C39.1386 91.1555 39.7688 91.2629 40.3579 91.4888C40.947 91.7148 41.4826 92.0547 41.9323 92.4878C42.3819 92.921 42.7361 93.4383 42.9733 94.0085C43.2106 94.5786 43.326 95.1896 43.3125 95.8044C43.3203 96.4103 43.2014 97.0114 42.9632 97.5714C42.725 98.1314 42.3722 98.6388 41.9264 99.0628C41.4805 99.4867 40.9507 99.8186 40.369 100.038C39.7873 100.258 39.1658 100.361 38.542 100.341C37.922 100.343 37.3075 100.227 36.7337 99.9986C36.1599 99.7704 35.6381 99.4348 35.1979 99.0108C34.7578 98.5868 34.408 98.0828 34.1685 97.5276C33.929 96.9723 33.8044 96.3768 33.802 95.7748C33.7996 95.1729 33.9194 94.5763 34.1544 94.0193C34.3895 93.4623 34.7353 92.9557 35.172 92.5284C35.6088 92.1011 36.128 91.7615 36.6999 91.529C37.2718 91.2965 37.8854 91.1756 38.5054 91.1733Z" fill="white"/>
<path d="M60.5338 88.7096C60.3395 88.7017 60.1455 88.7314 59.9632 88.7971C59.7809 88.8627 59.6138 88.963 59.4719 89.092C59.3299 89.221 59.2158 89.3762 59.1363 89.5485C59.0568 89.7207 59.0134 89.9067 59.0087 90.0954V96.7874C59.0087 99.0674 57.7886 100.341 55.5071 100.341C53.2256 100.341 51.9872 99.0497 51.9872 96.7104V90.0954C51.9872 89.7027 51.8265 89.3262 51.5405 89.0485C51.2545 88.7709 50.8666 88.6149 50.4621 88.6149C50.0576 88.6149 49.6697 88.7709 49.3837 89.0485C49.0977 89.3262 48.937 89.7027 48.937 90.0954V96.7874C48.937 100.696 51.31 102.941 55.4461 102.941C59.5821 102.941 62.0467 100.655 62.0467 96.6749V90.0954C62.0436 89.9072 62.0017 89.7215 61.9235 89.5493C61.8453 89.3771 61.7324 89.2218 61.5914 89.0927C61.4504 88.9635 61.2842 88.8631 61.1025 88.7973C60.9209 88.7315 60.7275 88.7017 60.5338 88.7096V88.7096Z" fill="white"/>
<path d="M21.7601 28.5686C21.4584 28.9487 21.0767 29.262 20.6404 29.4875C20.2041 29.713 19.7233 29.8456 19.2301 29.8765C18.7368 29.9074 18.2425 29.8358 17.78 29.6665C17.3175 29.4973 16.8975 29.2342 16.548 28.895C16.1985 28.5557 15.9275 28.1479 15.7531 27.6989C15.5788 27.2499 15.5051 26.77 15.5369 26.2912C15.5687 25.8123 15.7053 25.3456 15.9376 24.922C16.1699 24.4985 16.4926 24.1279 16.8841 23.835L39.7955 1.71109C40.0972 1.33102 40.479 1.01779 40.9153 0.79227C41.3515 0.566746 41.8323 0.434116 42.3256 0.403237C42.8188 0.372358 43.3132 0.443933 43.7757 0.613191C44.2382 0.782448 44.6582 1.0455 45.0077 1.38479C45.3572 1.72409 45.6282 2.13182 45.8025 2.58081C45.9769 3.0298 46.0506 3.50972 46.0188 3.98856C45.987 4.4674 45.8504 4.93415 45.6181 5.35768C45.3858 5.78122 45.0631 6.1518 44.6716 6.4447L21.7601 28.5686Z" fill="#FF6B00"/>
<path d="M39.8218 46.103C39.5201 46.4831 39.1383 46.7963 38.7021 47.0218C38.2658 47.2474 37.785 47.38 37.2917 47.4109C36.7985 47.4417 36.3041 47.3702 35.8416 47.2009C35.3791 47.0316 34.9591 46.7686 34.6096 46.4293C34.2601 46.09 33.9891 45.6823 33.8148 45.2333C33.6404 44.7843 33.5667 44.3044 33.5985 43.8255C33.6303 43.3467 33.7669 42.8799 33.9992 42.4564C34.2315 42.0329 34.5542 41.6623 34.9457 41.3694L57.8572 19.2455C58.1589 18.8654 58.5406 18.5522 58.9769 18.3266C59.4132 18.1011 59.894 17.9685 60.3872 17.9376C60.8805 17.9067 61.3748 17.9783 61.8373 18.1476C62.2998 18.3168 62.7198 18.5799 63.0694 18.9192C63.4189 19.2585 63.6898 19.6662 63.8642 20.1152C64.0385 20.5642 64.1123 21.0441 64.0805 21.5229C64.0487 22.0018 63.912 22.4685 63.6797 22.8921C63.4474 23.3156 63.1248 23.6862 62.7333 23.9791L39.8218 46.103Z" fill="white"/>
<path d="M21.2305 11.6259C20.9288 12.0059 20.547 12.3192 20.1108 12.5447C19.6745 12.7702 19.1937 12.9028 18.7004 12.9337C18.2072 12.9646 17.7128 12.893 17.2503 12.7238C16.7878 12.5545 16.3678 12.2915 16.0183 11.9522C15.6688 11.6129 15.3978 11.2051 15.2235 10.7561C15.0491 10.3071 14.9754 9.82722 15.0072 9.34838C15.039 8.86954 15.1756 8.40279 15.4079 7.97926C15.6403 7.55573 15.9629 7.18515 16.3544 6.89224L22.0997 1.31485C22.4014 0.934785 22.7831 0.621554 23.2194 0.39603C23.6557 0.170506 24.1365 0.0378755 24.6297 0.00699646C25.123 -0.0238825 25.6173 0.0476926 26.0798 0.21695C26.5424 0.386208 26.9624 0.64926 27.3119 0.988554C27.6614 1.32785 27.9323 1.73558 28.1067 2.18457C28.281 2.63356 28.3548 3.11349 28.3229 3.59233C28.2911 4.07117 28.1545 4.53792 27.9222 4.96146C27.6899 5.38499 27.3672 5.75556 26.9757 6.04846L21.2305 11.6259Z" fill="white"/>
<path d="M57.3361 46.6852C57.0344 47.0652 56.6526 47.3785 56.2164 47.604C55.7801 47.8295 55.2993 47.9621 54.806 47.993C54.3128 48.0239 53.8184 47.9523 53.3559 47.7831C52.8934 47.6138 52.4734 47.3508 52.1239 47.0115C51.7744 46.6722 51.5034 46.2644 51.3291 45.8155C51.1547 45.3665 51.081 44.8865 51.1128 44.4077C51.1446 43.9289 51.2812 43.4621 51.5135 43.0386C51.7459 42.6151 52.0685 42.2445 52.46 41.9516L58.2052 36.3742C58.507 35.9941 58.8887 35.6809 59.325 35.4553C59.7613 35.2298 60.2421 35.0972 60.7353 35.0663C61.2286 35.0354 61.7229 35.107 62.1854 35.2763C62.6479 35.4455 63.068 35.7086 63.4175 36.0479C63.767 36.3872 64.0379 36.7949 64.2123 37.2439C64.3866 37.6929 64.4604 38.1728 64.4285 38.6516C64.3967 39.1305 64.2601 39.5972 64.0278 40.0208C63.7955 40.4443 63.4728 40.8149 63.0813 41.1078L57.3361 46.6852Z" fill="#FF9E18"/>
<path d="M63.3329 1.1123L63.2025 1.01103C62.6653 0.486057 61.9394 0.18362 61.1774 0.167252H61.047H60.9166H51.3818C50.9559 0.136244 50.5281 0.190901 50.125 0.327804C49.7219 0.464707 49.3523 0.680914 49.0392 0.96288C48.7262 1.24485 48.4764 1.58651 48.3057 1.96648C48.1349 2.34645 48.0467 2.75656 48.0467 3.17112C48.0467 3.58569 48.1349 3.99578 48.3057 4.37575C48.4764 4.75573 48.7262 5.09739 49.0392 5.37935C49.3523 5.66132 49.7219 5.87753 50.125 6.01443C50.5281 6.15133 50.9559 6.20599 51.3818 6.17498H53.207L16.5539 41.7657C16.1591 42.0575 15.8332 42.428 15.5982 42.8523C15.3631 43.2766 15.2244 43.7448 15.1912 44.2255C15.1581 44.7061 15.2313 45.1881 15.406 45.639C15.5807 46.0899 15.8528 46.4993 16.204 46.8397C16.5552 47.18 16.9774 47.4434 17.4422 47.6122C17.907 47.7809 18.4036 47.8512 18.8986 47.8181C19.3937 47.7851 19.8758 47.6495 20.3124 47.4206C20.749 47.1917 21.1301 46.8747 21.43 46.4909L58.0744 10.917V12.6046C58.0425 13.018 58.0988 13.4334 58.2398 13.8247C58.3808 14.216 58.6035 14.5748 58.894 14.8787C59.1844 15.1826 59.5364 15.4251 59.9278 15.5908C60.3192 15.7566 60.7416 15.8422 61.1687 15.8422C61.5957 15.8422 62.0182 15.7566 62.4096 15.5908C62.801 15.4251 63.1529 15.1826 63.4434 14.8787C63.7338 14.5748 63.9565 14.216 64.0976 13.8247C64.2386 13.4334 64.2949 13.018 64.2629 12.6046V3.60988C64.2996 3.15333 64.2356 2.69444 64.0752 2.26378C63.9149 1.83312 63.6618 1.44058 63.3329 1.1123V1.1123Z" fill="#26A7FF"/>
</svg>
