<svg width="1140" height="700" viewBox="0 0 1140 700" fill="none" xmlns="http://www.w3.org/2000/svg">
<g clip-path="url(#clip0)">
<rect width="1140" height="700" fill="white"/>
<path d="M1144 0H0V703H1144V0Z" fill="#4858CC"/>
<path d="M0.621094 692.296C0.621094 692.296 55.9866 656.511 293.097 670.617C447.705 679.811 547.8 655 676.866 603.698C805.932 552.396 906.939 537.27 1012.03 563.491C1117.11 589.712 1143.35 580.588 1143.35 580.588V1.37109H0.621094V692.296Z" fill="#7C3AA6"/>
<path opacity="0.7" d="M0 681.561C0 681.561 98.3607 690.214 167.179 673.327C294.34 642.114 366.206 591.933 491.152 576.906C642.753 558.678 679.904 590.422 789.332 566.502C898.76 542.582 930.467 497.912 1019.5 469.88C1074.29 452.633 1140.4 476.003 1140.4 476.003V0H0V681.561Z" fill="url(#paint0_linear)"/>
<path d="M367.289 538.659H367.229C366.985 538.42 366.659 538.284 366.317 538.279H361.886C361.516 538.279 361.162 538.426 360.901 538.687C360.639 538.947 360.492 539.301 360.492 539.67C360.492 540.039 360.639 540.392 360.901 540.653C361.162 540.914 361.516 541.061 361.886 541.061H362.708L346.248 557.467C346.093 557.609 345.969 557.78 345.882 557.971C345.796 558.161 345.749 558.368 345.745 558.577C345.74 558.786 345.778 558.994 345.856 559.188C345.934 559.382 346.051 559.559 346.199 559.707C346.347 559.855 346.524 559.971 346.719 560.049C346.913 560.127 347.122 560.165 347.331 560.16C347.541 560.156 347.748 560.109 347.939 560.023C348.13 559.937 348.301 559.813 348.443 559.658L364.893 543.231V544.022C364.893 544.391 365.04 544.744 365.301 545.005C365.563 545.266 365.917 545.412 366.287 545.412C366.656 545.412 367.011 545.266 367.272 545.005C367.533 544.744 367.68 544.391 367.68 544.022V539.84C367.705 539.627 367.683 539.41 367.616 539.206C367.548 539.003 367.437 538.816 367.289 538.659Z" fill="#FF6B00"/>
<path d="M124.685 588.991H124.625C124.38 588.754 124.054 588.618 123.713 588.611H119.292C119.109 588.611 118.928 588.647 118.759 588.717C118.59 588.787 118.436 588.89 118.307 589.019C118.177 589.148 118.074 589.301 118.004 589.47C117.934 589.639 117.898 589.819 117.898 590.002C117.898 590.185 117.934 590.365 118.004 590.534C118.074 590.703 118.177 590.856 118.307 590.985C118.436 591.114 118.59 591.217 118.759 591.287C118.928 591.357 119.109 591.393 119.292 591.393H120.114L103.623 607.85C103.46 607.988 103.327 608.159 103.232 608.351C103.138 608.543 103.085 608.753 103.076 608.967C103.067 609.181 103.102 609.394 103.18 609.594C103.257 609.793 103.375 609.975 103.527 610.126C103.678 610.278 103.859 610.397 104.059 610.475C104.259 610.554 104.472 610.59 104.687 610.582C104.901 610.574 105.111 610.522 105.305 610.428C105.498 610.335 105.669 610.203 105.809 610.041L122.299 593.533V594.324C122.299 594.693 122.446 595.046 122.707 595.307C122.969 595.568 123.323 595.714 123.693 595.714C124.062 595.714 124.417 595.568 124.678 595.307C124.939 595.046 125.086 594.693 125.086 594.324V590.142C125.103 589.933 125.077 589.722 125.008 589.524C124.939 589.326 124.829 589.145 124.685 588.991Z" fill="#F6C435"/>
<path d="M319.472 336.414C319.472 337.53 319.14 338.621 318.519 339.549C317.898 340.477 317.015 341.2 315.982 341.627C314.948 342.054 313.812 342.166 312.715 341.948C311.618 341.73 310.611 341.193 309.82 340.404C309.029 339.615 308.491 338.609 308.273 337.515C308.055 336.42 308.167 335.286 308.594 334.255C309.022 333.224 309.747 332.342 310.677 331.722C311.607 331.102 312.7 330.771 313.818 330.771C315.317 330.774 316.753 331.369 317.813 332.427C318.873 333.485 319.469 334.918 319.472 336.414Z" fill="#FCCD06"/>
<path d="M833.59 664.613C833.59 665.729 833.259 666.82 832.638 667.748C832.016 668.676 831.133 669.399 830.1 669.826C829.067 670.253 827.93 670.365 826.834 670.147C825.737 669.929 824.729 669.392 823.939 668.603C823.148 667.814 822.609 666.808 822.391 665.714C822.173 664.619 822.285 663.485 822.713 662.454C823.141 661.423 823.866 660.542 824.795 659.922C825.725 659.302 826.818 658.971 827.937 658.971C829.436 658.971 830.874 659.565 831.934 660.623C832.995 661.681 833.59 663.117 833.59 664.613Z" fill="#FF6B00"/>
<path d="M65.0992 429.724C65.1012 430.841 64.7713 431.932 64.1512 432.862C63.5312 433.791 62.6488 434.516 61.6159 434.944C60.583 435.373 59.4459 435.486 58.3485 435.269C57.2511 435.053 56.2427 434.516 55.451 433.728C54.6593 432.939 54.1198 431.933 53.9009 430.839C53.6819 429.744 53.7933 428.609 54.2209 427.577C54.6485 426.546 55.3732 425.664 56.3032 425.043C57.2332 424.423 58.3267 424.092 59.4453 424.092C60.1873 424.09 60.9223 424.235 61.6082 424.518C62.2941 424.8 62.9175 425.215 63.4426 425.738C63.9677 426.261 64.3844 426.882 64.6686 427.566C64.9529 428.25 65.0992 428.984 65.0992 429.724Z" fill="#FF6B00"/>
<path d="M981.502 615.262C981.502 616.378 981.171 617.468 980.55 618.396C979.928 619.324 979.045 620.047 978.012 620.474C976.979 620.902 975.842 621.013 974.746 620.796C973.649 620.578 972.642 620.04 971.851 619.251C971.06 618.462 970.522 617.457 970.303 616.362C970.085 615.268 970.197 614.133 970.625 613.102C971.053 612.071 971.778 611.19 972.708 610.57C973.637 609.95 974.73 609.619 975.849 609.619C977.348 609.619 978.786 610.214 979.847 611.272C980.907 612.33 981.502 613.765 981.502 615.262Z" fill="white"/>
<path d="M1104.04 387.045C1104.04 388.161 1103.71 389.252 1103.09 390.18C1102.47 391.107 1101.58 391.831 1100.55 392.258C1099.52 392.685 1098.38 392.796 1097.29 392.579C1096.19 392.361 1095.18 391.824 1094.39 391.035C1093.6 390.245 1093.06 389.24 1092.84 388.146C1092.62 387.051 1092.74 385.917 1093.16 384.886C1093.59 383.855 1094.32 382.973 1095.25 382.353C1096.18 381.733 1097.27 381.402 1098.39 381.402C1099.13 381.401 1099.87 381.546 1100.55 381.829C1101.24 382.112 1101.86 382.528 1102.39 383.052C1102.91 383.576 1103.33 384.199 1103.61 384.884C1103.9 385.569 1104.04 386.303 1104.04 387.045Z" fill="#FCCD06"/>
<path d="M835.955 401.135C836.067 401.248 836.199 401.337 836.346 401.398C836.492 401.459 836.649 401.49 836.807 401.49C836.965 401.49 837.122 401.459 837.269 401.398C837.415 401.337 837.547 401.248 837.659 401.135L838.859 399.935C840.477 401.425 842.529 402.358 844.715 402.599V404.531C844.715 404.85 844.841 405.155 845.067 405.38C845.292 405.605 845.597 405.731 845.915 405.731C846.233 405.731 846.539 405.605 846.764 405.38C846.989 405.155 847.115 404.85 847.115 404.531V402.599C849.362 402.358 851.469 401.389 853.115 399.839L854.411 401.135C854.523 401.248 854.655 401.337 854.802 401.398C854.948 401.459 855.105 401.49 855.263 401.49C855.421 401.49 855.578 401.459 855.725 401.398C855.871 401.337 856.003 401.248 856.115 401.135C856.339 400.911 856.464 400.606 856.464 400.289C856.464 399.972 856.339 399.668 856.115 399.443L854.627 397.991C854.881 397.582 855.109 397.157 855.311 396.719C855.489 396.323 855.581 395.894 855.581 395.459C855.581 395.025 855.489 394.596 855.311 394.199C854.491 392.399 853.168 390.875 851.5 389.81C849.833 388.745 847.893 388.186 845.915 388.199C843.937 388.186 841.997 388.745 840.33 389.81C838.663 390.875 837.339 392.399 836.519 394.199C836.338 394.597 836.245 395.029 836.245 395.465C836.245 395.902 836.338 396.334 836.519 396.731C836.734 397.213 836.991 397.675 837.287 398.111L835.955 399.431C835.843 399.543 835.753 399.676 835.692 399.822C835.631 399.968 835.6 400.125 835.6 400.283C835.6 400.442 835.631 400.599 835.692 400.745C835.753 400.891 835.843 401.024 835.955 401.135ZM838.715 395.135C839.346 393.761 840.362 392.598 841.64 391.789C842.918 390.98 844.403 390.558 845.915 390.575C847.428 390.557 848.914 390.978 850.192 391.787C851.47 392.597 852.485 393.76 853.115 395.135C853.157 395.222 853.178 395.316 853.178 395.411C853.178 395.507 853.157 395.601 853.115 395.687C852.482 397.06 851.465 398.221 850.188 399.03C848.911 399.839 847.427 400.262 845.915 400.247C844.403 400.262 842.919 399.839 841.642 399.03C840.365 398.221 839.348 397.06 838.715 395.687C838.681 395.608 838.663 395.522 838.663 395.435C838.663 395.349 838.681 395.263 838.715 395.183V395.135Z" fill="#3358D4"/>
</g>
<defs>
<linearGradient id="paint0_linear" x1="-78.0811" y1="481.596" x2="1192.15" y2="2.35622" gradientUnits="userSpaceOnUse">
<stop stop-color="#0058CC"/>
<stop offset="0.03" stop-color="#0458CC"/>
<stop offset="0.5" stop-color="#5758CC"/>
<stop offset="0.84" stop-color="#8B58CC"/>
<stop offset="1" stop-color="#9F58CC"/>
</linearGradient>
<clipPath id="clip0">
<rect width="1140" height="700" fill="white"/>
</clipPath>
</defs>
</svg>
