<svg width="80" height="81" viewBox="0 0 80 81" fill="none" xmlns="http://www.w3.org/2000/svg">
<path d="M1.52509 46.3983C1.3308 46.3904 1.13681 46.4201 0.954485 46.4857C0.772158 46.5514 0.605144 46.6517 0.463168 46.7807C0.321192 46.9097 0.207104 47.0648 0.127581 47.2371C0.048058 47.4094 0.00469039 47.5953 0 47.7841V59.1309C0 59.5235 0.160682 59.9001 0.446692 60.1778C0.732702 60.4554 1.12061 60.6114 1.52509 60.6114C1.92957 60.6114 2.31748 60.4554 2.60349 60.1778C2.8895 59.9001 3.05018 59.5235 3.05018 59.1309V47.7841C3.04715 47.5948 3.0049 47.4081 2.92595 47.2351C2.847 47.0621 2.73295 46.9062 2.59062 46.7769C2.4483 46.6476 2.28061 46.5474 2.09754 46.4824C1.91447 46.4173 1.71979 46.3887 1.52509 46.3983V46.3983Z" fill="#544274"/>
<path d="M16.5198 59.13C16.5539 59.4998 16.7293 59.8438 17.0116 60.0944C17.2938 60.3449 17.6624 60.4839 18.0449 60.4839C18.4273 60.4839 18.7959 60.3449 19.0782 60.0944C19.3604 59.8438 19.5358 59.4998 19.5699 59.13V49.1156H22.9679C23.1449 49.1156 23.3202 49.0818 23.4838 49.016C23.6474 48.9502 23.796 48.8538 23.9212 48.7323C24.0464 48.6108 24.1457 48.4665 24.2134 48.3077C24.2812 48.1489 24.316 47.9787 24.316 47.8068C24.316 47.635 24.2812 47.4648 24.2134 47.306C24.1457 47.1472 24.0464 47.0029 23.9212 46.8814C23.796 46.7599 23.6474 46.6634 23.4838 46.5977C23.3202 46.5319 23.1449 46.498 22.9679 46.498H13.1463C12.9692 46.498 12.7939 46.5319 12.6303 46.5977C12.4668 46.6634 12.3181 46.7599 12.193 46.8814C12.0678 47.0029 11.9685 47.1472 11.9007 47.306C11.833 47.4648 11.7981 47.635 11.7981 47.8068C11.7981 47.9787 11.833 48.1489 11.9007 48.3077C11.9685 48.4665 12.0678 48.6108 12.193 48.7323C12.3181 48.8538 12.4668 48.9502 12.6303 49.016C12.7939 49.0818 12.9692 49.1156 13.1463 49.1156H16.5198V59.13V59.13Z" fill="#544274"/>
<path d="M36.6872 59.8185C36.8499 60.0405 37.0663 60.2203 37.3173 60.3422C37.5684 60.464 37.8464 60.5242 38.1269 60.5173C38.4993 60.5302 38.8619 60.4 39.136 60.155C39.4101 59.91 39.5736 59.5699 39.591 59.2085C39.5744 58.8151 39.4043 58.4425 39.1152 58.1663L36.492 55.146C38.56 54.459 39.6947 53.0022 39.6947 50.9709C39.7081 50.4007 39.6002 49.8339 39.3776 49.3061C39.1551 48.7782 38.8228 48.3007 38.4014 47.9032C37.1646 46.915 35.5904 46.414 33.9909 46.4997H28.7141C28.5182 46.4933 28.3229 46.525 28.1397 46.5927C27.9566 46.6604 27.7891 46.7628 27.6472 46.894C27.5052 47.0252 27.3916 47.1825 27.3129 47.3568C27.2342 47.5311 27.1921 47.7189 27.189 47.9091V59.1612C27.189 59.5538 27.3496 59.9304 27.6357 60.2081C27.9217 60.4857 28.3096 60.6417 28.7141 60.6417C29.1185 60.6417 29.5065 60.4857 29.7925 60.2081C30.0785 59.9304 30.2391 59.5538 30.2391 59.1612V55.7441H33.1978L36.6872 59.8185ZM33.7957 53.1917H30.2087V49.0758H33.7713C34.8327 49.0758 36.6201 49.3364 36.6201 51.1426C36.6201 52.404 35.5404 53.1917 33.7957 53.1917Z" fill="#544274"/>
<path d="M43.4711 60.5167C43.7678 60.5246 44.0602 60.4451 44.3095 60.2887C44.5589 60.1322 44.7536 59.9061 44.868 59.6402L46.0576 57.1588H52.9632L54.1101 59.5632C54.2254 59.8478 54.4273 60.0914 54.6888 60.2618C54.9504 60.4321 55.2592 60.521 55.5742 60.5167C55.7605 60.5214 55.9459 60.49 56.1195 60.4245C56.2932 60.3589 56.4517 60.2603 56.5857 60.1346C56.7197 60.0089 56.8266 59.8586 56.9001 59.6924C56.9736 59.5261 57.0123 59.3473 57.0139 59.1664C57.0116 58.9579 56.9527 58.7536 56.8431 58.5742L51.3527 47.3814C51.2091 47.0517 50.9663 46.7719 50.656 46.5785C50.3458 46.3852 49.9826 46.2872 49.6141 46.2976H49.486C49.1154 46.2885 48.7504 46.3867 48.4375 46.5797C48.1246 46.7727 47.878 47.0518 47.7291 47.3814L42.2388 58.5624C42.1084 58.7641 42.0385 58.9971 42.0371 59.2353C42.0357 59.4734 42.1029 59.7072 42.231 59.9103C42.359 60.1134 42.543 60.2778 42.7621 60.3849C42.9811 60.4921 43.2267 60.5377 43.4711 60.5167V60.5167ZM47.2533 54.636L49.5165 49.8983L51.7737 54.636H47.2533V54.636Z" fill="#544274"/>
<path d="M61.0644 60.5159C61.2576 60.523 61.4503 60.4926 61.6312 60.4264C61.8122 60.3603 61.9777 60.2597 62.118 60.1306C62.2584 60.0015 62.3707 59.8465 62.4486 59.6747C62.5264 59.5029 62.5681 59.3177 62.5712 59.1301V47.7833C62.5712 47.3906 62.4105 47.014 62.1245 46.7364C61.8385 46.4587 61.4506 46.3027 61.0461 46.3027C60.6416 46.3027 60.2537 46.4587 59.9677 46.7364C59.6817 47.014 59.521 47.3906 59.521 47.7833V59.1301C59.5256 59.3204 59.5696 59.5078 59.6502 59.6813C59.7309 59.8548 59.8466 60.0108 59.9906 60.1401C60.1345 60.2693 60.3038 60.3692 60.4882 60.4337C60.6727 60.4983 60.8686 60.5262 61.0644 60.5159V60.5159Z" fill="#544274"/>
<path d="M78.5176 46.3988C78.1346 46.3908 77.7638 46.5301 77.4861 46.7864C77.2085 47.0426 77.0464 47.395 77.0352 47.7668V55.4655L70.0259 47.1746C69.855 46.9386 69.6286 46.7457 69.3655 46.6118C69.1023 46.4779 68.8101 46.4069 68.513 46.4047H68.2385C67.8447 46.3951 67.4631 46.5375 67.1772 46.8006C66.8914 47.0636 66.7246 47.426 66.7134 47.8082V59.1313C66.7134 59.5161 66.8708 59.8852 67.1511 60.1573C67.4314 60.4294 67.8116 60.5823 68.208 60.5823C68.6044 60.5823 68.9845 60.4294 69.2648 60.1573C69.5451 59.8852 69.7026 59.5161 69.7026 59.1313V51.172L76.9193 59.7117C77.0902 59.9503 77.317 60.1462 77.5811 60.2831C77.8451 60.42 78.1389 60.4942 78.4383 60.4993H78.5176C78.7092 60.5049 78.9 60.4732 79.0788 60.4062C79.2576 60.3392 79.4209 60.2382 79.5589 60.1091C79.697 59.98 79.8072 59.8255 79.8829 59.6545C79.9586 59.4836 79.9984 59.2997 80 59.1136V47.7845C79.9904 47.4107 79.8294 47.0556 79.5519 46.7962C79.2744 46.5368 78.9028 46.394 78.5176 46.3988V46.3988Z" fill="#544274"/>
<path d="M27.9519 65.9833C27.6644 65.9882 27.3831 66.0642 27.1344 66.2041C26.8857 66.344 26.6778 66.5432 26.5305 66.7828L22.5225 71.9943L18.5756 66.8006C18.4232 66.5615 18.2117 66.3631 17.9603 66.2235C17.7089 66.0838 17.4255 66.0074 17.1359 66.0011C16.944 65.9908 16.7519 66.0176 16.5709 66.0802C16.3898 66.1428 16.2234 66.2397 16.0814 66.3655C15.9394 66.4912 15.8247 66.6431 15.7439 66.8124C15.6631 66.9817 15.6178 67.1649 15.6108 67.3514C15.6157 67.6985 15.7354 68.0349 15.9525 68.3108L20.9975 74.6415V78.7396C20.9975 79.1323 21.1581 79.5089 21.4441 79.7865C21.7302 80.0642 22.1181 80.2202 22.5225 80.2202C22.927 80.2202 23.3149 80.0642 23.6009 79.7865C23.8869 79.5089 24.0476 79.1323 24.0476 78.7396V74.5941L29.0499 68.3463C29.2986 68.0764 29.4431 67.731 29.4586 67.3691C29.4607 67.18 29.4226 66.9925 29.3466 66.8183C29.2705 66.6441 29.1583 66.4871 29.0168 66.357C28.8754 66.2269 28.7078 66.1266 28.5245 66.0623C28.3413 65.998 28.1463 65.9711 27.9519 65.9833V65.9833Z" fill="#544274"/>
<path d="M38.5481 65.8711C34.0827 65.8711 30.5811 69.0335 30.5811 73.102C30.5811 77.1705 33.9912 80.2559 38.5115 80.2559C43.0319 80.2559 46.4786 77.0935 46.4786 73.025C46.4786 68.9565 43.0685 65.8711 38.5481 65.8711ZM38.5054 68.4709C39.1386 68.4531 39.7688 68.5605 40.3579 68.7864C40.947 69.0124 41.4826 69.3523 41.9323 69.7854C42.3819 70.2186 42.7361 70.7359 42.9733 71.3061C43.2106 71.8762 43.326 72.4872 43.3125 73.102C43.3203 73.7079 43.2014 74.309 42.9632 74.869C42.725 75.429 42.3722 75.9364 41.9264 76.3604C41.4805 76.7844 40.9507 77.1162 40.369 77.3359C39.7873 77.5555 39.1658 77.6584 38.542 77.6384C37.922 77.6407 37.3075 77.5245 36.7337 77.2963C36.1599 77.0681 35.6381 76.7324 35.1979 76.3084C34.7578 75.8844 34.408 75.3804 34.1685 74.8252C33.929 74.27 33.8044 73.6744 33.802 73.0724C33.7996 72.4705 33.9194 71.874 34.1544 71.3169C34.3895 70.7599 34.7353 70.2533 35.172 69.826C35.6088 69.3987 36.128 69.0591 36.6999 68.8266C37.2718 68.5941 37.8854 68.4732 38.5054 68.4709Z" fill="#544274"/>
<path d="M60.5338 66.0069C60.3395 65.9989 60.1455 66.0287 59.9632 66.0943C59.7809 66.16 59.6138 66.2602 59.4719 66.3892C59.3299 66.5183 59.2158 66.6734 59.1363 66.8457C59.0568 67.018 59.0134 67.2039 59.0087 67.3926V74.0847C59.0087 76.3647 57.7886 77.6379 55.5071 77.6379C53.2256 77.6379 51.9872 76.3469 51.9872 74.0077V67.3926C51.9872 67 51.8265 66.6234 51.5405 66.3458C51.2545 66.0681 50.8666 65.9121 50.4621 65.9121C50.0576 65.9121 49.6697 66.0681 49.3837 66.3458C49.0977 66.6234 48.937 67 48.937 67.3926V74.0847C48.937 77.9933 51.31 80.2378 55.4461 80.2378C59.5821 80.2378 62.0467 77.9518 62.0467 73.9721V67.3926C62.0436 67.2045 62.0017 67.0188 61.9235 66.8466C61.8453 66.6743 61.7324 66.5191 61.5914 66.3899C61.4504 66.2608 61.2842 66.1603 61.1025 66.0945C60.9209 66.0287 60.7275 65.9989 60.5338 66.0069V66.0069Z" fill="#544274"/>
<path d="M27.348 20.0523C27.1362 20.319 26.8683 20.5389 26.5621 20.6972C26.2559 20.8555 25.9185 20.9485 25.5723 20.9702C25.2261 20.9919 24.8791 20.9416 24.5545 20.8228C24.2299 20.7041 23.9351 20.5194 23.6898 20.2813C23.4445 20.0432 23.2543 19.757 23.1319 19.4419C23.0096 19.1267 22.9578 18.7899 22.9802 18.4538C23.0025 18.1177 23.0984 17.7902 23.2614 17.4929C23.4245 17.1956 23.6509 16.9355 23.9257 16.73L40.0062 1.20213C40.218 0.935381 40.4859 0.715539 40.7921 0.557253C41.0983 0.398967 41.4358 0.30588 41.782 0.284207C42.1282 0.262535 42.4751 0.31277 42.7998 0.431565C43.1244 0.55036 43.4192 0.734984 43.6645 0.97312C43.9098 1.21126 44.0999 1.49743 44.2223 1.81255C44.3447 2.12768 44.3964 2.46451 44.3741 2.80059C44.3518 3.13667 44.2559 3.46426 44.0928 3.76152C43.9298 4.05878 43.7033 4.31887 43.4286 4.52445L27.348 20.0523Z" fill="#D5584D"/>
<path d="M40.0243 32.357C39.8125 32.6237 39.5446 32.8436 39.2384 33.0019C38.9322 33.1601 38.5947 33.2532 38.2485 33.2749C37.9023 33.2966 37.5554 33.2463 37.2308 33.1275C36.9061 33.0087 36.6114 32.8241 36.3661 32.586C36.1208 32.3479 35.9306 32.0617 35.8082 31.7466C35.6858 31.4314 35.6341 31.0946 35.6564 30.7585C35.6788 30.4224 35.7746 30.0948 35.9377 29.7976C36.1007 29.5003 36.3272 29.2402 36.602 29.0347L52.6825 13.5068C52.8943 13.2401 53.1622 13.0202 53.4684 12.8619C53.7746 12.7037 54.1121 12.6106 54.4583 12.5889C54.8045 12.5672 55.1514 12.6175 55.476 12.7363C55.8006 12.855 56.0954 13.0397 56.3407 13.2778C56.586 13.5159 56.7762 13.8021 56.8986 14.1172C57.0209 14.4324 57.0727 14.7692 57.0504 15.1053C57.0281 15.4414 56.9322 15.769 56.7691 16.0662C56.6061 16.3635 56.3796 16.6236 56.1048 16.8291L40.0243 32.357Z" fill="#544274"/>
<path d="M26.9759 8.15968C26.7642 8.42643 26.4963 8.64628 26.1901 8.80457C25.8838 8.96286 25.5464 9.05594 25.2002 9.07762C24.854 9.09929 24.507 9.04904 24.1824 8.93025C23.8578 8.81145 23.563 8.62684 23.3177 8.3887C23.0724 8.15057 22.8823 7.86439 22.7599 7.54926C22.6375 7.23413 22.5858 6.8973 22.6081 6.56122C22.6304 6.22515 22.7263 5.89755 22.8893 5.6003C23.0524 5.30304 23.2789 5.04294 23.5536 4.83737L27.586 0.922834C27.7977 0.656085 28.0657 0.436242 28.3719 0.277956C28.6781 0.11967 29.0155 0.0265831 29.3617 0.00491051C29.7079 -0.0167621 30.0549 0.0334734 30.3795 0.152268C30.7041 0.271063 30.9989 0.455687 31.2442 0.693823C31.4895 0.931959 31.6797 1.21813 31.802 1.53326C31.9244 1.84838 31.9761 2.18523 31.9538 2.5213C31.9315 2.85738 31.8356 3.18497 31.6726 3.48223C31.5095 3.77949 31.2831 4.03957 31.0083 4.24515L26.9759 8.15968Z" fill="#544274"/>
<path d="M52.3167 32.7671C52.105 33.0339 51.8371 33.2537 51.5309 33.412C51.2247 33.5703 50.8872 33.6634 50.541 33.685C50.1948 33.7067 49.8478 33.6565 49.5232 33.5377C49.1986 33.4189 48.9038 33.2343 48.6585 32.9961C48.4132 32.758 48.2231 32.4718 48.1007 32.1567C47.9783 31.8416 47.9266 31.5047 47.9489 31.1686C47.9712 30.8326 48.0671 30.505 48.2302 30.2077C48.3932 29.9105 48.6197 29.6504 48.8945 29.4448L52.9268 25.5303C53.1386 25.2635 53.4065 25.0437 53.7127 24.8854C54.0189 24.7271 54.3563 24.634 54.7025 24.6123C55.0487 24.5907 55.3957 24.6409 55.7203 24.7597C56.0449 24.8785 56.3397 25.0631 56.585 25.3012C56.8303 25.5394 57.0205 25.8256 57.1428 26.1407C57.2652 26.4558 57.317 26.7926 57.2946 27.1287C57.2723 27.4648 57.1764 27.7924 57.0134 28.0896C56.8503 28.3869 56.6239 28.647 56.3491 28.8526L52.3167 32.7671Z" fill="#449BD9"/>
<path d="M56.5259 0.780536L56.4344 0.709464C56.0574 0.341006 55.5479 0.128739 55.0131 0.117251H54.9216H54.8301H48.138C47.8391 0.0954876 47.5388 0.133849 47.2559 0.229935C46.973 0.326021 46.7135 0.477768 46.4938 0.675668C46.2741 0.873567 46.0988 1.11336 45.979 1.38005C45.8591 1.64674 45.7972 1.93457 45.7972 2.22554C45.7972 2.5165 45.8591 2.80433 45.979 3.07102C46.0988 3.3377 46.2741 3.5775 46.4938 3.7754C46.7135 3.9733 46.973 4.12505 47.2559 4.22113C47.5388 4.31722 47.8391 4.35558 48.138 4.33382H49.419L23.6938 29.3134C23.4167 29.5182 23.188 29.7783 23.023 30.076C22.858 30.3738 22.7607 30.7024 22.7374 31.0398C22.7141 31.3772 22.7655 31.7154 22.8881 32.0319C23.0107 32.3484 23.2017 32.6357 23.4482 32.8746C23.6947 33.1135 23.991 33.2983 24.3172 33.4168C24.6434 33.5352 24.992 33.5845 25.3394 33.5613C25.6869 33.5381 26.0253 33.443 26.3317 33.2823C26.6381 33.1216 26.9056 32.8991 27.1161 32.6298L52.8352 7.66205V8.84648C52.8128 9.13663 52.8523 9.42815 52.9513 9.70279C53.0503 9.97743 53.2066 10.2293 53.4104 10.4426C53.6143 10.6559 53.8613 10.826 54.136 10.9424C54.4107 11.0588 54.7072 11.1188 55.0069 11.1188C55.3067 11.1188 55.6032 11.0588 55.8779 10.9424C56.1526 10.826 56.3996 10.6559 56.6035 10.4426C56.8073 10.2293 56.9636 9.97743 57.0626 9.70279C57.1616 9.42815 57.2011 9.13663 57.1787 8.84648V2.53348C57.2044 2.21305 57.1595 1.89097 57.0469 1.58871C56.9344 1.28645 56.7568 1.01094 56.5259 0.780536V0.780536Z" fill="#449BD9"/>
</svg>
