<svg width="320" height="640" viewBox="0 0 320 640" fill="none" xmlns="http://www.w3.org/2000/svg">
<path d="M320 0H0V642.36H320V0Z" fill="#4858CC"/>
<path opacity="0.7" d="M213 508.42C107.3 528.58 85.4 481.57 8.27 498.45C5.44 499.07 2.69 499.71 0 500.36V642.36H320V457.52C275.72 491.79 265.3 498.44 213 508.42Z" fill="url(#paint0_linear)"/>
<g style="mix-blend-mode:screen" opacity="0.2">
<path d="M320 515.1C267.37 567.74 203.84 534.89 144.6 547.85C78.24 562.36 80.92 578.16 26.93 595.17C18.1949 597.784 9.11754 599.075 0 599L0 642.34H320V515.1Z" fill="white"/>
</g>
<path d="M151.117 458.615L152.523 456.3H153.789L151.715 459.435L153.854 462.64H152.6L151.135 460.267L149.67 462.64H148.41L150.549 459.435L148.475 456.3H149.729L151.117 458.615ZM154.539 459.412C154.539 458.791 154.66 458.232 154.902 457.736C155.148 457.24 155.488 456.857 155.922 456.587C156.359 456.318 156.857 456.183 157.416 456.183C158.279 456.183 158.977 456.482 159.508 457.08C160.043 457.677 160.311 458.472 160.311 459.464V459.541C160.311 460.158 160.191 460.712 159.953 461.205C159.719 461.693 159.381 462.074 158.939 462.347C158.502 462.621 157.998 462.757 157.428 462.757C156.568 462.757 155.871 462.458 155.336 461.861C154.805 461.263 154.539 460.472 154.539 459.488V459.412ZM155.629 459.541C155.629 460.244 155.791 460.808 156.115 461.234C156.443 461.66 156.881 461.873 157.428 461.873C157.979 461.873 158.416 461.658 158.74 461.228C159.064 460.794 159.227 460.189 159.227 459.412C159.227 458.716 159.061 458.154 158.729 457.724C158.4 457.291 157.963 457.074 157.416 457.074C156.881 457.074 156.449 457.287 156.121 457.712C155.793 458.138 155.629 458.748 155.629 459.541ZM161.195 461.755L161.57 461.292C161.992 460.746 162.232 459.925 162.291 458.832L162.391 456.3H166.475V461.755H167.289V464.503H166.205V462.64H161.781V464.503H160.697L160.703 461.755H161.195ZM162.479 461.755H165.391V457.302H163.439L163.375 458.814C163.309 460.076 163.01 461.056 162.479 461.755Z" fill="#4858CC"/>
<path d="M59.1296 519.72C59.1296 520.836 58.7988 521.926 58.1791 522.853C57.5594 523.781 56.6785 524.504 55.6479 524.931C54.6174 525.358 53.4834 525.469 52.3893 525.252C51.2952 525.034 50.2903 524.497 49.5015 523.708C48.7128 522.919 48.1756 521.914 47.958 520.82C47.7404 519.726 47.8521 518.592 48.2789 517.562C48.7058 516.531 49.4287 515.65 50.3562 515.031C51.2837 514.411 52.3741 514.08 53.4896 514.08C54.9854 514.08 56.42 514.674 57.4777 515.732C58.5354 516.79 59.1296 518.224 59.1296 519.72Z" fill="#FF6B00"/>
<path d="M281 426C281 427.115 280.669 428.206 280.049 429.133C279.429 430.061 278.549 430.784 277.518 431.211C276.487 431.637 275.353 431.749 274.259 431.531C273.165 431.314 272.16 430.777 271.372 429.988C270.583 429.199 270.046 428.194 269.828 427.1C269.61 426.006 269.722 424.872 270.149 423.842C270.576 422.811 271.299 421.93 272.226 421.31C273.154 420.691 274.244 420.36 275.36 420.36C276.856 420.36 278.29 420.954 279.348 422.012C280.406 423.07 281 424.504 281 426Z" fill="#FCCD06"/>
<path d="M241.66 95.4501C241.66 96.5648 241.33 97.6544 240.711 98.5815C240.092 99.5085 239.212 100.231 238.183 100.659C237.153 101.086 236.02 101.199 234.927 100.983C233.833 100.767 232.828 100.232 232.039 99.4452C231.249 98.6585 230.711 97.6554 230.491 96.5627C230.271 95.4699 230.38 94.3365 230.803 93.3056C231.227 92.2747 231.947 91.3925 232.872 90.7704C233.797 90.1482 234.885 89.8141 236 89.8101C236.743 89.8062 237.479 89.9492 238.166 90.231C238.853 90.5128 239.478 90.9278 240.004 91.452C240.53 91.9763 240.947 92.5994 241.231 93.2856C241.516 93.9718 241.661 94.7074 241.66 95.4501Z" fill="#26A7FF"/>
<defs>
<linearGradient id="paint0_linear" x1="61.71" y1="767.94" x2="209.97" y2="471.42" gradientUnits="userSpaceOnUse">
<stop stop-color="#0058CC"/>
<stop offset="0.03" stop-color="#0458CC"/>
<stop offset="0.5" stop-color="#5758CC"/>
<stop offset="0.84" stop-color="#8B58CC"/>
<stop offset="1" stop-color="#9F58CC"/>
</linearGradient>
</defs>
</svg>
