<svg width="768" height="1024" viewBox="0 0 768 1024" fill="none" xmlns="http://www.w3.org/2000/svg">
<path d="M768 0H0V1024H768V0Z" fill="#4858CC"/>
<path d="M767.73 0H0.27002V944.42C0.27002 944.42 42.09 917.16 221.2 927.91C338 934.91 413.61 916.01 511.11 876.91C608.61 837.81 684.91 826.3 764.29 846.27C765.45 846.57 766.6 846.85 767.73 847.13V0Z" fill="#7C3AA6"/>
<path opacity="0.7" d="M768 0H0V875C0 875 77.7 881.89 132.05 868.44C232.49 843.58 289.25 803.61 387.95 791.65C507.69 777.13 537.03 802.41 623.46 783.36C692.79 768.09 722.62 742.18 768 721V0Z" fill="url(#paint0_linear)"/>
<path d="M673.82 904.81H673.76C673.518 904.569 673.192 904.432 672.85 904.43H668.46C668.091 904.43 667.738 904.576 667.477 904.837C667.217 905.098 667.07 905.451 667.07 905.82C667.07 906.189 667.217 906.542 667.477 906.803C667.738 907.064 668.091 907.21 668.46 907.21H669.28L652.83 923.66C652.667 923.798 652.534 923.969 652.44 924.161C652.346 924.353 652.293 924.563 652.284 924.777C652.275 924.991 652.31 925.204 652.387 925.404C652.465 925.603 652.583 925.784 652.734 925.936C652.885 926.088 653.065 926.206 653.265 926.285C653.464 926.363 653.677 926.399 653.891 926.391C654.105 926.383 654.314 926.331 654.507 926.238C654.7 926.145 654.871 926.013 655.01 925.85L671.46 909.4V910.19C671.46 910.559 671.607 910.912 671.867 911.173C672.128 911.434 672.481 911.58 672.85 911.58C673.219 911.58 673.572 911.434 673.833 911.173C674.094 910.912 674.24 910.559 674.24 910.19V906C674.26 905.783 674.233 905.564 674.16 905.359C674.088 905.154 673.972 904.966 673.82 904.81Z" fill="#F6C435"/>
<path d="M112.87 791H112.81C112.566 790.762 112.241 790.626 111.9 790.62H107.51C107.141 790.62 106.788 790.766 106.527 791.027C106.267 791.288 106.12 791.641 106.12 792.01C106.12 792.379 106.267 792.732 106.527 792.993C106.788 793.254 107.141 793.4 107.51 793.4H108.33L91.8801 809.82C91.7113 809.957 91.573 810.127 91.4744 810.321C91.3758 810.514 91.3189 810.727 91.3075 810.943C91.2962 811.16 91.3305 811.377 91.4084 811.58C91.4862 811.783 91.6058 811.967 91.7594 812.121C91.913 812.274 92.0972 812.394 92.3 812.472C92.5028 812.55 92.7197 812.584 92.9366 812.573C93.1535 812.561 93.3657 812.504 93.5592 812.406C93.7527 812.307 93.9234 812.169 94.0601 812L110.51 795.55V796.34C110.51 796.709 110.657 797.062 110.917 797.323C111.178 797.584 111.531 797.73 111.9 797.73C112.269 797.73 112.622 797.584 112.883 797.323C113.144 797.062 113.29 796.709 113.29 796.34V792.16C113.306 791.948 113.277 791.735 113.205 791.535C113.132 791.335 113.018 791.153 112.87 791Z" fill="#FF6B00"/>
<path d="M525.1 177.06C525.1 178.176 524.769 179.266 524.15 180.193C523.53 181.121 522.649 181.844 521.618 182.271C520.588 182.698 519.454 182.809 518.36 182.592C517.266 182.374 516.261 181.837 515.472 181.048C514.683 180.259 514.146 179.254 513.928 178.16C513.711 177.066 513.823 175.932 514.249 174.902C514.676 173.871 515.399 172.99 516.327 172.371C517.254 171.751 518.345 171.42 519.46 171.42C520.956 171.42 522.39 172.014 523.448 173.072C524.506 174.13 525.1 175.564 525.1 177.06Z" fill="#FF6B00"/>
<path d="M463.1 853.74C463.1 854.855 462.769 855.946 462.15 856.873C461.53 857.801 460.649 858.524 459.618 858.951C458.588 859.378 457.454 859.489 456.36 859.272C455.266 859.054 454.261 858.517 453.472 857.728C452.683 856.939 452.146 855.934 451.928 854.84C451.711 853.746 451.823 852.612 452.249 851.582C452.676 850.551 453.399 849.67 454.327 849.051C455.254 848.431 456.345 848.1 457.46 848.1C458.955 848.103 460.388 848.698 461.445 849.755C462.502 850.812 463.097 852.245 463.1 853.74Z" fill="#FCCD06"/>
<defs>
<linearGradient id="paint0_linear" x1="-121.85" y1="556.89" x2="876.14" y2="181.13" gradientUnits="userSpaceOnUse">
<stop stop-color="#0058CC"/>
<stop offset="0.03" stop-color="#0458CC"/>
<stop offset="0.5" stop-color="#5758CC"/>
<stop offset="0.84" stop-color="#8B58CC"/>
<stop offset="1" stop-color="#9F58CC"/>
</linearGradient>
</defs>
</svg>
