<svg width="110" height="145" viewBox="0 0 110 145" fill="none" xmlns="http://www.w3.org/2000/svg">
<g clip-path="url(#clip0)">
<path fill-rule="evenodd" clip-rule="evenodd" d="M85.7799 85.6201C85.3581 85.6083 84.9374 85.5715 84.5199 85.5101C84.0764 85.5356 83.6316 85.4952 83.1999 85.3901C82.7799 85.2401 82.78 84.9001 82.73 84.4901C82.51 82.7401 82.2499 81.0001 81.9999 79.2601H81.8399C81.4699 81.2601 81.1099 83.2601 80.7399 85.2601C80.6271 85.2756 80.5128 85.2756 80.4 85.2601H79.9999H79.3099C79.1074 85.2349 78.9025 85.2349 78.6999 85.2601C78.499 85.2999 78.2947 85.32 78.0899 85.3201C77.6704 85.3037 77.2527 85.2569 76.8399 85.1801C76.6099 85.1801 76.38 85.1801 76.15 85.1801C75.987 85.1651 75.8229 85.1651 75.66 85.1801C75.2273 85.2151 74.7926 85.2151 74.3599 85.1801C73.8599 85.1801 73.36 85.1801 72.83 85.1801C72.384 85.1451 71.9359 85.1451 71.4899 85.1801C70.9899 85.1801 70.4099 85.3501 70.0899 84.9001C69.7828 84.5993 69.448 84.3281 69.0899 84.0901C68.7399 83.7601 68.7999 83.4101 68.8899 82.9801C69.0299 82.2901 69.15 81.6001 69.26 80.9101C69.48 79.5101 69.7399 78.1301 69.9499 76.7301C70.3958 74.9751 70.6606 73.1791 70.7399 71.3701C70.6299 68.9601 70.3699 66.5701 70.1099 64.1701C70.0685 63.8819 70.0851 63.5882 70.159 63.3066C70.2328 63.0249 70.3624 62.7609 70.5399 62.5301C72.8699 59.3901 75.1699 56.2301 77.4699 53.0701C78.9399 53.0701 80.4099 53.0701 81.8899 53.0701L91.65 52.9801C92.91 52.9801 94.1799 52.8801 95.4499 53.0401C95.5499 53.3301 95.2999 53.5701 95.3099 53.8501C95.3099 55.7701 95.4399 57.6801 95.4499 59.5901C95.4499 68.0968 95.4499 76.6034 95.4499 85.1101C94.6505 85.2066 93.8449 85.2433 93.0399 85.2201H92.3899C91.1605 85.135 89.926 85.155 88.6999 85.2801C87.6999 85.4401 86.78 85.3601 85.83 85.4701L85.7799 85.6201ZM82.7799 67.4001C82.4499 66.7701 82.2099 66.2601 81.9299 65.7801C80.9299 64.0801 79.9899 62.3401 78.1799 61.3301C77.8529 61.1421 77.4916 61.0213 77.1172 60.9749C76.7428 60.9286 76.363 60.9575 75.9999 61.0601C75.5809 61.197 75.1942 61.4182 74.8639 61.7102C74.5335 62.0022 74.2664 62.3587 74.0791 62.7578C73.8917 63.1568 73.788 63.5901 73.7744 64.0307C73.7608 64.4714 73.8376 64.9102 73.9999 65.3201C74.6254 67.1169 75.6513 68.748 76.9999 70.0901C78.2299 71.4401 79.5599 72.7101 80.8499 74.0101C81.6699 74.8401 82.2 74.8901 83.08 74.1701C84.9976 72.7278 86.8213 71.1646 88.5399 69.4901C89.6697 68.4018 90.5826 67.1089 91.23 65.6801C91.94 63.9301 91.3399 62.4201 89.5999 61.3501C88.1499 60.4601 86.9099 60.6801 85.5999 62.0901C85.3174 62.4052 85.0568 62.7393 84.8199 63.0901C83.9511 64.4281 83.2681 65.8781 82.7899 67.4001H82.7799Z" fill="#C028B9"/>
<path fill-rule="evenodd" clip-rule="evenodd" d="M9.0001 97.5098C9.0001 96.3598 9.0001 95.2098 9.0001 94.0598C9.01559 94.0417 9.0241 94.0187 9.0241 93.9949C9.0241 93.971 9.01559 93.948 9.0001 93.9298C9.0001 93.2898 9.0001 92.6498 9.0001 92.0098C9.01486 91.9933 9.02302 91.972 9.02302 91.9498C9.02302 91.9277 9.01486 91.9063 9.0001 91.8898V90.6498C9.01259 90.6305 9.01923 90.6079 9.01923 90.5848C9.01923 90.5618 9.01259 90.5392 9.0001 90.5198C9.0001 90.2198 9.0001 89.9199 9.0001 89.6199C9.0001 89.6199 9.0001 89.5498 9.0001 89.5098V87.9198C9.01486 87.9033 9.02302 87.882 9.02302 87.8598C9.02302 87.8377 9.01486 87.8164 9.0001 87.7999V85.9998C9.01146 85.9857 9.01765 85.968 9.01765 85.9498C9.01765 85.9317 9.01146 85.914 9.0001 85.8998V75.8098C9.00861 75.8023 9.01543 75.7931 9.0201 75.7828C9.02477 75.7724 9.02718 75.7612 9.02718 75.7498C9.02718 75.7385 9.02477 75.7273 9.0201 75.7169C9.01543 75.7066 9.00861 75.6974 9.0001 75.6898L9.0601 74.8398H12.4701L12.9801 75.6998C13.0647 76.0857 13.2282 76.45 13.4601 76.7698C13.4616 76.855 13.4821 76.9387 13.5202 77.0148C13.5583 77.0909 13.6129 77.1576 13.6801 77.2098C13.6801 77.3398 13.6801 77.4998 13.8201 77.5698C14.3856 78.8616 15.0544 80.1057 15.8201 81.2898C15.8617 81.5193 15.9908 81.7237 16.1801 81.8598C16.2601 81.9798 16.3301 82.1099 16.4001 82.2299C16.447 82.4252 16.56 82.5984 16.7201 82.7198L16.8501 82.9498V82.8998L17.2801 83.5198C18.2801 85.3998 19.9201 86.8598 21.1801 88.5898C21.0701 89.5898 20.1801 143.59 20.1801 143.59L6.3501 144.43V140.87L9.1001 136.51V134C9.1001 134 9.0001 101.35 9.0001 100.87C9.0001 100.66 9.0001 100.46 9.0001 100.25V97.9998C9.0001 97.8198 9.0001 97.6698 9.0001 97.5098Z" fill="#4858CC"/>
<path fill-rule="evenodd" clip-rule="evenodd" d="M92.4899 85.3487H92.6699C93.6319 85.3975 94.5963 85.354 95.5499 85.2188C95.5499 87.4188 95.5499 91.8288 95.5499 91.8288C95.5499 91.8288 95.7199 96.0187 95.5499 98.0887C95.4499 99.1987 95.6399 131.719 95.6399 131.719L101.85 137.949L100.85 142.629H85.8599L83.6799 93.3887L82.9299 85.3887H85.8599C85.8599 85.3887 91.6799 85.3387 92.4899 85.3487Z" fill="#7C3AA6"/>
<path fill-rule="evenodd" clip-rule="evenodd" d="M33 97.0898C33.09 98.4198 38.64 134.2 38.64 134.2L44.24 137.56L46.67 143.56H32.45C32.45 143.56 24 102.19 23.94 101.81C23.48 99.0798 23.03 96.3498 22.65 93.6098C22.45 92.1798 21.85 90.8198 21.92 89.3398L23.6 90.8398L23.91 91.0798H23.85L24.25 91.4198C25.0823 92.2383 26.0049 92.9596 27 93.5698L28 94.2999C29.6 95.3899 31.36 96.1398 33 97.0898Z" fill="#4858CC"/>
<path fill-rule="evenodd" clip-rule="evenodd" d="M79.35 85.3682H78.61C78.3406 85.393 78.0695 85.393 77.8 85.3682C77.47 85.2982 77.55 85.1482 77.71 84.9382C77.87 84.7282 78.1 84.3482 78.29 84.0582C78.6219 83.5797 78.8626 83.0441 79 82.4782C79.0549 82.2989 79.0549 82.1074 79 81.9282C78.9487 81.8551 78.8794 81.7965 78.7989 81.7579C78.7183 81.7194 78.6292 81.7023 78.54 81.7082C78.3646 81.7259 78.1955 81.7827 78.0449 81.8744C77.8943 81.9662 77.7663 82.0905 77.67 82.2382C77.02 83.2382 76.34 84.2382 75.67 85.2982H77.35C76.9183 86.1498 76.2857 86.8834 75.5069 87.4357C74.7281 87.988 73.8265 88.3424 72.88 88.4682C71.2905 88.6714 69.6919 88.7949 68.09 88.8382L67.31 94.7182C67.06 96.5682 66.45 134.248 66.45 134.248L61.04 139.308L61.82 142.628H75.25C75.34 142.098 75.6 140.698 75.25 142.628H77.46C77.46 142.628 78.11 99.7282 78.46 98.1182C79.26 93.8582 80.1 89.6082 80.75 85.3282L79.35 85.3682Z" fill="#7C3AA6"/>
<path fill-rule="evenodd" clip-rule="evenodd" d="M28.2801 55.4906C28.2201 55.4906 28.1901 55.3906 28.1901 55.3906L25.6101 55.4906C25.6101 55.4906 26.4301 57.5806 26.5001 57.8406C27.4101 61.3406 28.0701 64.9006 28.7001 68.4706C29.0801 70.5806 29.5401 72.6806 29.7001 74.8306C29.9501 75.1706 29.8501 75.6106 30.0301 75.9806C32.9661 78.4373 36.3525 80.2986 40.0001 81.4606C41.1268 81.8509 42.3004 82.0897 43.4901 82.1706C44.2146 81.1969 45.0172 80.2839 45.8901 79.4406L28.2801 55.4906Z" fill="#CDCDCD"/>
<path fill-rule="evenodd" clip-rule="evenodd" d="M31.8001 81.5384C30.3301 79.6084 28.8001 77.7484 27.2801 75.8484C27.0625 75.5279 26.8655 75.1939 26.6901 74.8484C24.5768 72.1818 22.4701 69.5151 20.3701 66.8484C18.3701 64.2684 13.6101 58.1984 13.2801 57.7384C13.2001 57.6484 11.8501 55.5084 11.7701 55.3984C11.3201 55.3984 10.3801 55.4584 9.09009 55.3984V55.4584C9.09009 57.1984 9.09009 58.9284 9.09009 60.6684C9.32365 61.6846 9.42781 62.7262 9.40009 63.7684C9.77258 66.5115 10.426 69.209 11.3501 71.8184C11.9201 73.4684 12.7001 74.9984 13.2801 76.6384C13.611 77.3838 13.9989 78.1026 14.4401 78.7884C15.1401 80.1284 15.8501 81.4784 16.6601 82.7884C17.9901 84.8584 19.7301 86.6184 21.1901 88.6284L21.9301 89.3884C22.6901 90.1684 23.7101 90.8184 24.5101 91.6184C25.2276 92.4142 26.0683 93.0895 27.0001 93.6184L37.4601 91.4084L39.1101 90.9984C38.1101 89.7084 37.0001 88.4084 36.0201 87.0684C34.6501 85.1984 33.2101 83.3784 31.8001 81.5384Z" fill="#CDCDCD"/>
<path fill-rule="evenodd" clip-rule="evenodd" d="M9.09 55.4503C7.25 55.3903 5.41 55.3803 3.56 55.4503C2.56 55.4503 1.47 55.4503 0.42 55.4503C-0.18 55.4503 0.04 54.9803 0.04 54.7003C0 51.3203 0 48.0003 0 44.6203C0 36.8737 0 29.1303 0 21.3903C0 20.2703 0 20.2703 1.11 20.2703C6.84 20.2703 12.59 20.0703 18.31 20.3603C19.9341 20.4903 21.5659 20.4903 23.19 20.3603C24.5844 20.262 25.9831 20.2387 27.38 20.2903C29.21 20.2903 31.03 20.2903 32.86 20.2903C33.41 20.2903 33.79 20.3503 33.79 21.0503C33.79 24.6303 33.79 28.2003 33.79 31.7703L31.11 26.4803C30.9208 26.0331 30.6215 25.6409 30.24 25.3403C30.0479 25.1907 29.8079 25.1163 29.5649 25.131C29.3219 25.1457 29.0926 25.2486 28.92 25.4203C28.8278 25.4842 28.7501 25.5668 28.6919 25.6627C28.6337 25.7586 28.5963 25.8657 28.5822 25.9769C28.568 26.0882 28.5774 26.2012 28.6098 26.3086C28.6422 26.416 28.6967 26.5154 28.77 26.6003L29.15 27.2603C29.58 28.0403 29.96 28.8503 30.39 29.6303C30.5 29.8203 30.6 30.0303 30.71 30.2303C30.82 30.4303 30.88 30.5003 30.98 30.6403C31.08 30.7803 31.22 30.9503 31.16 31.0903C31.05 31.0903 30.99 30.9603 30.92 30.8803C30.7893 30.7418 30.6721 30.5911 30.57 30.4303C30.48 30.2803 30.42 30.1303 30.34 29.9703L30 29.3403C29.54 28.5303 29.1 27.7103 28.63 26.9103C28.44 26.5803 28.24 26.2103 27.72 26.3703C27.5011 26.4335 27.3079 26.5642 27.1678 26.7438C27.0277 26.9234 26.9479 27.1427 26.94 27.3703C26.8968 27.9465 27.0482 28.5205 27.37 29.0003C27.83 29.7503 28.28 30.5103 28.76 31.2503C28.9 31.4703 29.08 31.6603 29.22 31.8803C29.36 32.1003 29.4 32.1503 29.48 32.3003C29.56 32.4503 29.64 32.5503 29.6 32.6503C29.56 32.7503 29.41 32.5203 29.32 32.4203C29.1521 32.2576 29.0074 32.0725 28.89 31.8703C28.38 31.0303 27.84 30.2003 27.28 29.3803C27.15 29.1903 27.07 28.8403 26.73 28.9903C26.581 29.0486 26.4577 29.1582 26.3825 29.2995C26.3073 29.4407 26.2851 29.6042 26.32 29.7603C26.3764 30.007 26.4637 30.2456 26.58 30.4703C27.58 32.6903 28.85 34.7803 30.07 36.8903C30.2973 37.2813 30.4468 37.7126 30.51 38.1603C31.2149 43.3269 32.2741 48.439 33.68 53.4603L33.83 54.0503C33.83 55.4303 33.83 55.4103 32.4 55.4303C31.0263 55.377 29.6506 55.4037 28.28 55.5103C28.2673 55.5104 28.2547 55.5078 28.2431 55.5027C28.2315 55.4975 28.221 55.49 28.2125 55.4805C28.204 55.4711 28.1976 55.46 28.1938 55.4479C28.1899 55.4358 28.1886 55.423 28.19 55.4103C25.65 52.0003 23.84 48.0003 20 45.5903C21.0815 45.1123 21.9995 44.3284 22.6409 43.3352C23.2824 42.3419 23.6192 41.1827 23.61 40.0003C23.61 39.5503 23.81 39.4303 24.23 39.4403C25.31 39.4403 26.39 39.4403 27.47 39.4403C27.93 39.4403 28.01 39.3103 27.85 38.9003C26.5975 35.2782 24.6816 31.921 22.2 29.0003C19.83 26.3903 16.98 25.3703 13.52 26.4003C13.08 26.5303 12.64 26.7003 12.19 26.8603C11.92 23.6803 9.98 21.8603 7.19 21.9503C5.99975 22.0194 4.88124 22.5421 4.06463 23.4108C3.24803 24.2794 2.79544 25.4281 2.8 26.6203C2.8 29.5003 4.8 31.1203 8.46 31.2803C7.8274 33.136 7.53603 35.0909 7.6 37.0503C7.6 37.4603 7.33 37.3803 7.09 37.4303C6.77842 37.4496 6.47499 37.5377 6.20159 37.6884C5.92818 37.8391 5.69162 38.0485 5.50896 38.3017C5.3263 38.5549 5.20208 38.8454 5.14527 39.1524C5.08846 39.4593 5.10048 39.7751 5.18044 40.0768C5.26041 40.3786 5.40634 40.6588 5.60771 40.8974C5.80907 41.1359 6.06087 41.3268 6.34493 41.4563C6.62899 41.5858 6.93824 41.6506 7.25038 41.6461C7.56252 41.6416 7.86978 41.5679 8.15 41.4303C8.48 41.3203 8.62 41.3103 8.8 41.6503C9.61098 43.3429 10.9717 44.7106 12.66 45.5303L11.94 46.0703C11.1557 46.6175 10.4962 47.3245 10.005 48.145C9.51378 48.9654 9.20193 49.8806 9.09 50.8303C8.97 52.3203 9.09 53.8303 9.09 55.3403V55.4503Z" fill="#7C3AA6"/>
<path fill-rule="evenodd" clip-rule="evenodd" d="M66.1401 2.89844C72.2095 5.06165 77.7151 8.56121 82.2501 13.1384C86.5808 17.5155 89.9524 22.7466 92.1501 28.4984L92.4501 29.1984C93.2429 31.6191 93.9105 34.079 94.4501 36.5684C94.8101 38.8384 95.0901 41.1084 95.3601 43.3884C95.6801 46.0684 95.3601 48.7584 95.4701 51.3884C94.9901 50.9884 95.1801 50.3884 95.2401 49.9684C95.2701 49.4182 95.1861 48.8677 94.9934 48.3515C94.8007 47.8352 94.5033 47.3644 94.1201 46.9684C93.1201 45.6784 92.0401 44.6584 90.3201 44.5884C90.2401 44.5884 90.1701 44.5184 90.1001 44.4684C90.7301 44.2684 91.2901 44.6684 91.8901 44.6884H92.0901C92.0711 44.6268 92.0477 44.5667 92.0201 44.5084C91.0201 43.3084 90.0201 42.0984 89.0201 40.9284C88.0499 39.6584 86.9799 38.468 85.8201 37.3684C85.8201 36.9284 85.4101 36.7784 85.1401 36.5384C84.6401 35.9284 84.1401 35.3384 83.6401 34.7084C82.1901 32.7784 80.5801 30.9984 78.9901 29.1784L77.6201 27.5984L68.7501 17.0684L59.3301 5.87844L66.1401 2.89844Z" fill="#CDCDCD"/>
<path fill-rule="evenodd" clip-rule="evenodd" d="M24.2101 20.25C23.0975 20.5697 21.9475 20.7412 20.7901 20.76C20.4301 20.76 20.0501 20.32 19.7901 20.63C19.5301 20.94 19.7101 21.39 19.6901 21.79C19.7133 22.5494 19.6664 23.3092 19.5501 24.06C19.3801 24.7 19.1701 25.35 18.4101 25.32C17.6501 25.29 17.4101 24.64 17.3101 24C17.3101 23.89 17.3101 23.77 17.3101 23.66C17.1898 22.4167 17.2301 21.163 17.4301 19.93C17.7201 18.66 18.9701 18.01 19.5501 16.93C19.0463 17.329 18.5809 17.7743 18.1601 18.26C17.7802 18.5929 17.4764 19.0036 17.2694 19.4643C17.0623 19.925 16.9568 20.4249 16.9601 20.93C17.0401 21.86 16.9601 22.8 16.9601 23.73C16.8801 24.15 16.6401 24.42 16.2101 24.36C16.012 24.3355 15.8284 24.2436 15.69 24.0998C15.5516 23.9559 15.4669 23.7689 15.4501 23.57C15.4152 23.2913 15.3951 23.0109 15.3901 22.73C15.1919 21.8678 15.1868 20.9724 15.3753 20.108C15.5637 19.2436 15.941 18.4315 16.4801 17.73L18.1001 16.21C17.4014 16.4965 16.7982 16.975 16.3601 17.59C16.0089 17.9171 15.7326 18.3162 15.5501 18.76C15.205 19.6523 15.0058 20.5944 14.9601 21.55C14.9601 22.08 14.9601 22.97 14.3801 23.25C13.6401 23.62 12.9501 22.78 12.9001 22.12C12.7595 20.2666 13.1961 18.4152 14.1501 16.82C15.158 14.8376 16.576 13.0924 18.3101 11.7C20.9901 9.84 23.4701 7.7 26.3101 6.07C31.8632 2.98672 37.9892 1.07405 44.3101 0.45C46.8001 0.14 49.3501 0.14 51.9001 0C52.7486 0.00204824 53.5964 0.0487796 54.4401 0.14C54.5201 0.29 54.5801 0.47 54.8001 0.28C54.6101 0.56 54.8601 0.69 54.9901 0.84C56.3901 2.53 57.8001 4.2 59.2101 5.84C57.4301 6.71 55.5401 7.33 53.7301 8.13C47.4901 10.9 41.1801 13.45 34.8801 16C31.3301 17.44 27.7701 18.84 24.2101 20.25Z" fill="#FEAA61"/>
<path fill-rule="evenodd" clip-rule="evenodd" d="M95.4599 51.44C95.3499 48.76 95.6699 46.07 95.3499 43.44C95.0799 41.16 94.7999 38.89 94.4399 36.62C93.9003 34.1306 93.2328 31.6707 92.4399 29.25C98.3499 32.14 103.44 35.99 107.12 41.56C108.179 43.1274 108.825 44.9365 109 46.82C109.138 47.9557 109.044 49.1078 108.722 50.2056C108.399 51.3035 107.857 52.324 107.127 53.2049C106.396 54.0858 105.494 54.8084 104.475 55.3285C103.456 55.8487 102.342 56.1554 101.2 56.23C100.81 56.23 100.41 56.29 100.01 56.32H98.4499C98.4499 56.19 98.3899 56.05 98.3799 55.91C98.3199 55.02 98.7699 53.82 98.1899 53.33C97.6099 52.84 96.4099 53.18 95.4799 53.21C95.4999 52.58 95.4799 52 95.4599 51.44Z" fill="black"/>
<path fill-rule="evenodd" clip-rule="evenodd" d="M95.5299 53.1582C96.4599 53.1582 97.6299 52.7682 98.2399 53.2782C98.8499 53.7882 98.3699 54.9682 98.4299 55.8582C98.4299 55.9982 98.4299 56.1382 98.4999 56.2682C98.3834 57.0828 98.3566 57.9078 98.4199 58.7282C98.4199 67.2582 98.4199 75.7782 98.4199 84.2982C98.4199 85.2082 98.1099 85.4382 97.2999 85.2982C96.7039 85.3283 96.1064 85.288 95.5199 85.1782C95.5199 76.6715 95.5199 68.1649 95.5199 59.6582C95.5199 57.7482 95.4299 55.8382 95.3799 53.9182C95.3799 53.6882 95.6299 53.4482 95.5299 53.1582Z" fill="#7C3AA6"/>
<path fill-rule="evenodd" clip-rule="evenodd" d="M9.08008 60.6602C9.31364 61.6763 9.4178 62.7179 9.39008 63.7602C9.76257 66.5032 10.416 69.2007 11.3401 71.8102C11.6901 72.8102 12.1101 73.8102 12.5001 74.8102H9.09008C9.09008 70.1035 9.08674 65.3868 9.08008 60.6602Z" fill="#76777A"/>
<path fill-rule="evenodd" clip-rule="evenodd" d="M9 75.6914C9.00851 75.6989 9.01533 75.7081 9.02 75.7185C9.02467 75.7288 9.02709 75.7401 9.02709 75.7514C9.02709 75.7628 9.02467 75.774 9.02 75.7843C9.01533 75.7947 9.00851 75.8039 9 75.8114V75.7514V75.6914Z" fill="#B95743"/>
<path fill-rule="evenodd" clip-rule="evenodd" d="M9 85.9297C9.00531 85.9406 9.00806 85.9526 9.00806 85.9647C9.00806 85.9768 9.00531 85.9888 9 85.9997V85.9297Z" fill="#B95743"/>
<path fill-rule="evenodd" clip-rule="evenodd" d="M75.66 85.3104H77.36C76.9207 86.1671 76.2798 86.9041 75.4924 87.4581C74.705 88.0121 73.7947 88.3663 72.84 88.4904C71.23 88.6604 69.61 88.8604 67.99 88.8704C67.1 88.8704 66.21 88.9904 65.32 89.0004C64.84 89.0004 64.61 89.3204 64.32 89.6004C60.6411 93.6176 55.9929 96.6235 50.82 98.3304C49.0971 98.8777 47.314 99.2135 45.51 99.3304C44.31 97.7104 43.12 96.0804 41.76 94.5804C41 93.3004 39.88 92.2204 39 91.0004C39.28 91.0004 39.57 90.9304 39.85 90.8704L65.14 85.6604C65.3502 85.6417 65.5506 85.563 65.7173 85.4335C65.8839 85.3041 66.0098 85.1294 66.08 84.9304C66.7704 84.134 67.7333 83.6241 68.78 83.5004C69.8904 83.2803 70.9833 82.9795 72.05 82.6004C72.2592 82.5135 72.4835 82.4688 72.71 82.4688C72.9365 82.4688 73.1608 82.5135 73.37 82.6004C73.83 83.5504 72.93 83.7904 72.47 84.2704L70.47 85.2704L70.54 85.4004L72 85.2904C72.2897 85.3558 72.5903 85.3558 72.88 85.2904H73.25C73.9149 85.3583 74.5851 85.3583 75.25 85.2904L75.66 85.3104Z" fill="#FEAA61"/>
<path fill-rule="evenodd" clip-rule="evenodd" d="M68.9199 83.45C67.8836 83.5726 66.9309 84.0793 66.2499 84.87C66.2499 84.65 66.2499 84.42 66.2499 84.2C66.2499 79.14 66.2499 74.0867 66.2499 69.04C66.2499 67.78 66.2499 66.52 66.2499 65.26C66.1199 64.34 66.4999 63.4 66.1299 62.5C66.2878 62.2879 66.3944 62.042 66.4412 61.7817C66.4881 61.5215 66.4739 61.2539 66.3999 61C67.0799 60.21 67.7699 59.42 68.3999 58.62C68.8533 58.1147 69.2124 57.5322 69.4599 56.9C69.5899 56.49 69.6599 56.03 69.2599 55.73C68.8599 55.43 68.5199 55.8 68.2599 56.03C67.6299 56.53 67.0199 57.03 66.3799 57.59C66.1499 57.17 66.4799 56.72 66.1299 56.42C66.1899 55.42 66.2399 54.42 66.2899 53.42C66.2899 53.04 66.5899 53.08 66.8399 53.07L69.1499 53C69.5899 53 70.0499 53.06 70.4999 53.07H71.8599H73.2399C73.573 53.0515 73.9068 53.0515 74.2399 53.07H74.2999C74.2999 53.07 74.3999 53.07 74.4499 53.07C74.496 53.0603 74.5437 53.0603 74.5899 53.07H74.6499H76.0999H76.2099H77.3099C77.3099 53.07 77.4299 53.07 77.4199 53.14C77.4099 53.21 77.3199 53.3 77.2699 53.36C77.2199 53.42 77.0399 53.68 76.9299 53.83L76.2299 54.83C76.0099 55.15 75.7699 55.46 75.5399 55.77L74.8499 56.77C74.6299 57.08 74.3899 57.4 74.1599 57.71L73.4699 58.71L72.7799 59.65L72.0899 60.59L71.3999 61.53C71.1699 61.85 70.9299 62.16 70.6999 62.47C70.6499 62.55 70.5899 62.62 70.5299 62.7C70.3523 62.9308 70.2228 63.1948 70.1489 63.4765C70.0751 63.7582 70.0584 64.0518 70.0999 64.34C70.3599 66.74 70.6199 69.13 70.7299 71.54C70.6654 73.3234 70.4209 75.0958 69.9999 76.83C69.6999 79 69.2899 81.24 68.9199 83.45Z" fill="#7C3AA6"/>
<path fill-rule="evenodd" clip-rule="evenodd" d="M82.79 67.4005C83.2588 65.88 83.9316 64.4301 84.79 63.0905C85.0269 62.7397 85.2875 62.4056 85.57 62.0905C86.89 60.6805 88.13 60.4605 89.57 61.3505C91.31 62.4205 91.91 63.9305 91.2 65.6805C90.5526 67.1093 89.6398 68.4022 88.51 69.4905C86.7914 71.165 84.9677 72.7282 83.05 74.1705C82.17 74.8905 81.64 74.8405 80.82 74.0105C79.53 72.7105 78.2 71.4405 76.97 70.0905C75.6213 68.7484 74.5955 67.1173 73.97 65.3205C73.8076 64.9106 73.7309 64.4718 73.7445 64.0311C73.7581 63.5904 73.8617 63.1572 74.0491 62.7581C74.2365 62.359 74.5036 62.0025 74.8339 61.7106C75.1643 61.4186 75.5509 61.1974 75.97 61.0605C76.339 60.9523 76.7261 60.9205 77.1078 60.9669C77.4895 61.0133 77.8577 61.137 78.19 61.3305C80 62.3305 80.95 64.0805 81.94 65.7805C82.22 66.2605 82.46 66.7705 82.79 67.4005Z" fill="#EBEBEB"/>
<path fill-rule="evenodd" clip-rule="evenodd" d="M75.3001 85.3005C75.3001 85.3005 74.9201 85.3005 74.8701 85.3005H74.0001C73.8649 85.2721 73.7253 85.2721 73.5901 85.3005C73.5901 85.1205 73.7101 84.9005 73.7901 84.7405C73.9459 84.3927 74.1298 84.0583 74.3401 83.7405C74.4201 83.6105 74.4901 83.4705 74.5601 83.3405C74.6301 83.2105 74.6701 83.1905 74.7201 83.1205C74.751 83.0556 74.7778 82.9888 74.8001 82.9205C74.8971 82.7382 75.004 82.5612 75.1201 82.3905C75.3201 82.0405 75.5201 81.6905 75.7601 81.3905C76.0249 80.9199 76.4119 80.5295 76.8801 80.2605C77.1401 80.1405 77.6801 80.0805 77.8801 80.4005C77.8953 80.5066 77.8953 80.6143 77.8801 80.7205C77.9001 80.8597 77.9001 81.0012 77.8801 81.1405C77.716 81.7205 77.4141 82.2523 77.0001 82.6905C76.6301 83.2505 76.2601 83.8005 75.9001 84.3605L75.3001 85.3005Z" fill="#7C3AA6"/>
<path fill-rule="evenodd" clip-rule="evenodd" d="M82.93 85.3791L80.74 85.2891C81.11 83.2891 81.47 81.2891 81.84 79.2891H82C82.25 81.0291 82.51 82.7691 82.73 84.5191C82.7678 84.8117 82.8348 85.0998 82.93 85.3791Z" fill="#7C3AA6"/>
<path fill-rule="evenodd" clip-rule="evenodd" d="M72.9299 85.3512H72.7599H72.3999C72.3299 85.3512 72.1599 85.3512 72.1099 85.3512C72.0599 85.3512 72.1799 85.1012 72.2199 85.0212L72.5699 84.2712C73.0199 83.8012 73.9099 83.5612 73.4499 82.6112C73.6383 82.1426 73.9055 81.7097 74.2399 81.3312C74.4899 81.0912 75.1499 80.8712 75.3099 81.3312C75.3999 81.6312 74.9299 82.2112 74.7999 82.4712C74.6699 82.7312 74.5199 82.9912 74.3699 83.2512C74.1373 83.6614 73.9303 84.0855 73.7499 84.5212C73.7019 84.6711 73.6452 84.818 73.5799 84.9612C73.5383 85.0958 73.4777 85.2237 73.3999 85.3412C73.2999 85.3912 73.0999 85.3712 72.9299 85.3512Z" fill="#7C3AA6"/>
<path fill-rule="evenodd" clip-rule="evenodd" d="M77.5599 53.1719L75.3999 53.1019C76.1199 52.2119 76.8299 51.3119 77.5399 50.4219C78.6399 51.1819 78.1999 52.1119 77.8399 53.0419L77.5499 53.1719H77.5599Z" fill="#EBEBEB"/>
<path fill-rule="evenodd" clip-rule="evenodd" d="M95.5599 51.451C95.5701 51.2712 95.5701 51.0909 95.5599 50.911C95.5549 50.8345 95.5549 50.7576 95.5599 50.681C95.5645 50.6412 95.5645 50.6009 95.5599 50.561C95.5599 50.481 95.5599 50.391 95.5599 50.311V50.161C95.5703 50.0379 95.5703 49.9142 95.5599 49.791V49.641C95.5136 49.2692 95.4265 48.9037 95.2999 48.551C95.1693 48.2077 95.0156 47.8736 94.8399 47.551C94.6637 47.2019 94.4597 46.8675 94.2299 46.551C94.0096 46.249 93.7582 45.9708 93.4799 45.721C93.2028 45.4567 92.9015 45.219 92.5799 45.011C91.8345 44.6675 91.0428 44.435 90.2299 44.321C89.0811 44.0777 87.9135 43.9338 86.7399 43.891C85.4099 43.776 84.0741 43.7426 82.7399 43.791C82.6634 43.7964 82.5865 43.7964 82.5099 43.791H82.4399C82.4034 43.7955 82.3665 43.7955 82.3299 43.791H82.1599C82.0799 43.791 81.9899 43.791 81.8999 43.791H81.7799H81.6599C81.5159 43.7519 81.364 43.7519 81.2199 43.791C80.8917 43.869 80.5569 43.9158 80.2199 43.931H79.7099C79.5469 43.9161 79.3829 43.9161 79.2199 43.931L74.7299 44.931C73.4599 45.481 72.1599 45.931 70.9299 46.601C67.0499 48.601 63.7099 51.321 60.2999 53.971C56.2999 57.061 52.4799 60.281 48.6799 63.581C48.6849 63.6142 48.6849 63.6479 48.6799 63.681C49.8999 66.311 51.1299 68.931 52.3599 71.561L52.4899 71.751C53.3999 71.271 53.8599 70.361 54.4899 69.641C55.7699 68.251 56.9899 66.811 58.2299 65.401L65.8299 56.731C65.9515 56.5744 66.0586 56.4071 66.1499 56.231C66.2099 55.231 66.2599 54.231 66.3099 53.231C66.3099 52.851 66.6099 52.891 66.8599 52.881H67.9199H68.9899H69.1399H69.2599H69.5499H69.7699C69.863 52.891 69.9569 52.891 70.0499 52.881C70.4799 52.881 70.9099 52.881 71.3399 52.881H72.6299C72.8599 52.881 73.0799 52.881 73.2999 52.881H73.6699H73.9999H74.5099H74.8999C75.2299 52.881 75.5499 52.881 75.8999 52.881C76.0963 52.8661 76.2935 52.8661 76.4899 52.881H76.6499C76.7165 52.8858 76.7833 52.8858 76.8499 52.881H77.0299C77.1431 52.8907 77.2568 52.8907 77.3699 52.881H77.5999C77.6173 52.8736 77.636 52.8698 77.6549 52.8698C77.6738 52.8698 77.6925 52.8736 77.7099 52.881C77.7099 52.881 77.7899 52.941 77.8399 52.941C77.8965 52.9463 77.9534 52.9463 78.0099 52.941H81.9999L91.7599 52.851C93.0199 52.851 94.2899 52.751 95.5599 52.851C95.4499 52.851 95.4999 52.501 95.5599 52.441C95.5599 52.201 95.6399 51.971 95.6399 51.741V51.151L95.5599 51.451Z" fill="#CDCDCD"/>
<path fill-rule="evenodd" clip-rule="evenodd" d="M16.1899 81.8086C16.2581 81.8429 16.315 81.8959 16.354 81.9615C16.3929 82.027 16.4124 82.1024 16.4099 82.1786C16.3399 82.0586 16.2699 81.9286 16.1899 81.8086Z" fill="#EBEBEB"/>
<path fill-rule="evenodd" clip-rule="evenodd" d="M27 93.57L37.46 91.36L39.11 91C39.6815 91.5937 40.2001 92.2361 40.66 92.92C41.23 93.63 41.8 94.33 42.34 95.05C43.4 96.49 44.4733 97.92 45.56 99.34C41.2554 99.5913 36.9523 98.8238 33 97.1C31.34 96.1 29.58 95.39 28 94.3L27 93.57Z" fill="#76777A"/>
<path fill-rule="evenodd" clip-rule="evenodd" d="M23.6001 90.8398L23.9101 91.0798L23.6001 90.8398Z" fill="#EBEBEB"/>
<path fill-rule="evenodd" clip-rule="evenodd" d="M9.09009 55.3886C9.09009 53.8886 8.97009 52.3886 9.09009 50.8786C9.20201 49.9289 9.51386 49.0137 10.0051 48.1932C10.4963 47.3728 11.1558 46.6657 11.9401 46.1186L12.6601 45.5786C10.9718 44.7589 9.61107 43.3911 8.80009 41.6986C8.62009 41.3586 8.48009 41.3686 8.15009 41.4786C7.86987 41.6162 7.56261 41.6899 7.25047 41.6944C6.93832 41.6988 6.62907 41.634 6.34501 41.5045C6.06095 41.3751 5.80916 41.1842 5.60779 40.9456C5.40642 40.7071 5.2605 40.4268 5.18053 40.1251C5.10056 39.8233 5.08855 39.5076 5.14536 39.2006C5.20217 38.8936 5.32638 38.6031 5.50905 38.3499C5.69171 38.0968 5.92827 37.8873 6.20167 37.7366C6.47508 37.586 6.77851 37.4978 7.09009 37.4786C7.33009 37.4786 7.61009 37.4786 7.60009 37.0986C7.53612 35.1391 7.82749 33.1842 8.46009 31.3286C4.76009 31.1686 2.82009 29.5486 2.80009 26.6686C2.79523 25.4796 3.24505 24.3337 4.05745 23.4655C4.86986 22.5974 5.98339 22.0726 7.17009 21.9986C9.98009 21.8686 11.9201 23.7286 12.1701 26.9086C12.6201 26.7486 13.0601 26.5786 13.5001 26.4486C16.9601 25.4486 19.8101 26.4486 22.1801 29.0486C24.6659 31.9812 26.5821 35.3523 27.8301 38.9886C27.9901 39.3986 27.9101 39.5386 27.4501 39.5286C26.3701 39.5286 25.2901 39.5286 24.2101 39.5286C23.7901 39.5286 23.6201 39.6386 23.5901 40.0886C23.5836 41.2534 23.2415 42.3917 22.6048 43.3671C21.9681 44.3426 21.0638 45.1138 20.0001 45.5886C23.8401 47.9686 25.6501 51.9786 28.1901 55.3886C27.5401 55.5886 10.0001 55.4386 9.09009 55.3886ZM21.7001 31.5086C20.6236 31.7114 19.5664 32.0058 18.5401 32.3886C17.9901 32.5686 17.7501 32.4586 17.5401 31.9486C16.9001 30.5786 16.2001 29.2386 15.4501 27.7286C14.9501 29.5686 14.4501 31.2186 14.0801 32.8886C14.0564 33.17 13.9358 33.4345 13.7388 33.6369C13.5418 33.8393 13.2808 33.9672 13.0001 33.9986C11.6801 34.3086 10.3801 34.7486 8.92009 35.1886L12.0401 36.3286C13.2601 36.7686 13.2401 36.7586 12.8201 37.9686C12.4199 39.1421 12.1712 40.362 12.0801 41.5986C13.2301 40.3886 14.2501 39.3886 15.1801 38.3086C15.3386 38.0782 15.5795 37.9176 15.8532 37.8599C16.1268 37.8022 16.4121 37.8518 16.6501 37.9986C18.1201 38.5886 19.6501 39.0986 21.1201 39.6386H21.3201L21.2601 39.4486C20.5601 38.0286 19.8801 36.6086 19.1401 35.2086C19.0094 35.0336 18.952 34.8147 18.98 34.5982C19.008 34.3816 19.1192 34.1845 19.2901 34.0486C20.1734 33.2737 20.9774 32.4128 21.6901 31.4786H21.7501L21.7001 31.5086Z" fill="#D73EAF"/>
<path fill-rule="evenodd" clip-rule="evenodd" d="M25.89 55.4708C25.89 55.4708 26.49 57.7308 26.62 58.3008C26.83 59.3008 27.08 60.2008 27.29 61.1508C27.82 63.5808 28.29 66.0208 28.7 68.4708C29.08 70.5808 29.54 72.6808 29.7 74.8308H26.7C24.5867 72.1641 22.48 69.4974 20.38 66.8308L14.29 59.0908C13.39 57.9408 12.29 56.2208 11.78 55.3808C13.09 55.3008 25.89 55.4708 25.89 55.4708Z" fill="#76777A"/>
<path fill-rule="evenodd" clip-rule="evenodd" d="M30 75.9987C30 76.3087 29.9999 76.6287 30.0599 76.8787C30.1399 77.3687 30.22 77.8787 30.27 78.3587C30.27 78.6387 30.7299 79.9587 30.07 79.3587C29.6748 78.937 29.3169 78.4819 29 77.9987C28.43 77.2987 27.8699 76.5887 27.3099 75.8887C27.1269 75.5786 26.9231 75.2813 26.7 74.9987C26.93 74.6687 27.5099 74.7987 27.8899 74.7987C28.2699 74.7987 28.5999 74.7987 28.9599 74.7987C29.3199 74.7987 29.5599 74.7087 29.7199 74.9587C29.8943 75.2783 29.9902 75.6347 30 75.9987Z" fill="#4858CC"/>
<path fill-rule="evenodd" clip-rule="evenodd" d="M45.85 79.4414L48 82.3314C46.4953 82.5385 44.9662 82.4844 43.48 82.1714C44.1949 81.1988 44.9875 80.2859 45.85 79.4414Z" fill="#76777A"/>
<path fill-rule="evenodd" clip-rule="evenodd" d="M16.9399 82.6589L16.9599 82.6289L16.9299 82.6589H16.9399Z" fill="#EBEBEB"/>
<path fill-rule="evenodd" clip-rule="evenodd" d="M33.8599 32.1404C35.1699 34.5604 36.2299 37.1404 37.3799 39.6004C40.9933 47.4004 44.5933 55.2004 48.1799 63.0004C48.2999 63.2504 48.4499 63.5004 48.5799 63.7504C48.5849 63.7835 48.5849 63.8172 48.5799 63.8504C46.4708 65.9277 44.4683 68.1105 42.5799 70.3904C40.6646 68.6373 39.109 66.528 37.9999 64.1804C36.4046 61.1691 35.1212 58.0026 34.1699 54.7304C34.0999 54.4904 33.9699 54.2604 33.8799 54.0304L33.7299 53.4404C33.9899 53.1104 33.8699 52.7304 33.8499 52.3704C33.8499 51.2104 33.7299 50.0404 33.7099 48.8704C33.7099 47.4804 33.7099 46.0904 33.7099 44.7004C33.6148 43.6525 33.6857 42.5961 33.9199 41.5704C34.4399 41.7604 34.8499 42.1504 35.5199 41.9604C33.5199 40.9604 33.2799 40.6304 33.7199 38.5104C33.7381 38.3584 33.7244 38.2043 33.6796 38.0579C33.6348 37.9116 33.56 37.7762 33.4599 37.6604C32.5978 36.1926 31.8133 34.6805 31.1099 33.1304C30.9199 32.6804 30.7899 32.1304 31.3199 31.8404C31.8499 31.5504 32.2199 31.7904 32.6099 32.1404C32.9999 32.4904 33.2699 33.0204 33.7999 33.3204C33.8099 32.8704 33.8299 32.5104 33.8599 32.1404Z" fill="#FEAA61"/>
<path fill-rule="evenodd" clip-rule="evenodd" d="M33.8601 32.1401C33.8601 32.5101 33.8601 32.8701 33.7801 33.3201C33.2501 33.0201 32.9801 32.5101 32.5901 32.1401C32.2001 31.7701 31.8101 31.5301 31.3001 31.8401C30.7901 32.1501 30.9001 32.6801 31.0901 33.1301C31.7935 34.6802 32.5779 36.1923 33.4401 37.6601C33.5402 37.7759 33.615 37.9113 33.6598 38.0576C33.7045 38.204 33.7183 38.3581 33.7001 38.5101C33.2601 40.6301 33.4501 41.0001 35.5001 41.9601C34.8301 42.1501 34.4201 41.7601 33.9001 41.5701C33.6658 42.5959 33.595 43.6522 33.6901 44.7001C33.6301 46.0901 33.6901 47.4801 33.6901 48.8701C33.6901 50.0401 33.7901 51.2101 33.8301 52.3701C33.8301 52.7301 33.9701 53.1101 33.7101 53.4401C32.3042 48.4187 31.245 43.3067 30.5401 38.1401C30.4768 37.6923 30.3274 37.261 30.1001 36.8701C28.8801 34.7601 27.6301 32.6701 26.6101 30.4501C26.4938 30.2253 26.4065 29.9868 26.3501 29.7401C26.3152 29.5839 26.3374 29.4204 26.4126 29.2792C26.4878 29.138 26.6111 29.0283 26.7601 28.9701C27.1001 28.8201 27.1801 29.1701 27.3101 29.3601C27.7301 29.9601 28.1201 30.5801 28.5201 31.2001C28.7324 31.7702 29.1258 32.255 29.6401 32.5801L28.6401 31.0701L27.3701 29.0001C27.0526 28.5258 26.9014 27.9595 26.9401 27.3901C26.948 27.1624 27.0277 26.9431 27.1678 26.7635C27.3079 26.5839 27.5012 26.4532 27.7201 26.3901C28.2401 26.2301 28.4401 26.6001 28.6301 26.9301C29.1401 27.8101 29.6301 28.7001 30.1201 29.5901C30.3355 30.1824 30.7175 30.6998 31.2201 31.0801L30.2801 29.4401C29.7701 28.4401 29.2801 27.5301 28.7501 26.6001C28.6768 26.5151 28.6222 26.4157 28.5899 26.3083C28.5575 26.2009 28.5481 26.0879 28.5622 25.9767C28.5764 25.8654 28.6138 25.7583 28.672 25.6625C28.7302 25.5666 28.8079 25.484 28.9001 25.4201C29.0727 25.2483 29.3019 25.1455 29.545 25.1307C29.788 25.116 30.028 25.1904 30.2201 25.3401C30.6016 25.6406 30.9008 26.0328 31.0901 26.4801L33.7701 31.7701L33.8601 32.1401Z" fill="#D73EAF"/>
<path fill-rule="evenodd" clip-rule="evenodd" d="M81.8501 43.6314C83.4528 42.9013 84.7806 41.6786 85.6401 40.1414C86.0901 39.2614 86.4601 38.3914 85.8401 37.4414C86.9861 38.5425 88.0427 39.7329 89.0001 41.0014L89.8201 42.0014C90.3101 42.5814 90.7601 43.1814 91.2601 43.7514C91.3901 43.8914 91.5001 44.0514 91.6201 44.2014C91.7263 44.3343 91.8434 44.458 91.9701 44.5714C92.0401 44.6314 92.1501 44.7514 92.0901 44.8514C92.0301 44.9514 91.9001 44.8514 91.8301 44.8514C91.7601 44.8514 91.7501 44.7814 91.7001 44.7614C91.6546 44.7469 91.6056 44.7469 91.5601 44.7614C91.4501 44.7614 91.3401 44.7614 91.2301 44.7014C91.1702 44.696 91.11 44.696 91.0501 44.7014H90.8901C90.7717 44.6886 90.6566 44.6547 90.5501 44.6014C90.3767 44.5527 90.1993 44.5193 90.0201 44.5014C89.8544 44.5265 89.6858 44.5265 89.5201 44.5014C89.4441 44.4871 89.3661 44.4871 89.2901 44.5014C89.1927 44.4718 89.0988 44.4315 89.0101 44.3814C88.8937 44.3308 88.7665 44.3102 88.6401 44.3214C88.4701 44.3214 88.3101 44.2614 88.1301 44.3214C87.9501 44.3814 87.9801 44.3214 87.8901 44.3214C87.7226 44.3147 87.5556 44.298 87.3901 44.2714L86.8001 44.2014C86.1001 44.1414 85.3901 44.0914 84.6901 44.0714C83.9901 44.0514 83.2901 44.0714 82.5801 44.0714C82.3701 43.7914 82.0501 44.0014 81.8501 43.6314Z" fill="black"/>
<path fill-rule="evenodd" clip-rule="evenodd" d="M79 29.2716C75.27 29.5616 73 31.4216 71.89 35.1016C71.71 35.6916 71.53 35.5016 71.25 35.2416C71.56 31.1916 73.93 28.8616 77.59 27.6016L79 29.2716Z" fill="black"/>
<path fill-rule="evenodd" clip-rule="evenodd" d="M52.3701 72.0019C52.2101 72.2119 52.0501 72.4319 51.8801 72.6419C51.7101 72.8519 51.6201 72.9619 51.4901 73.1319L50.8401 73.8019C48.7686 73.6872 46.7461 73.1279 44.9101 72.1619C44.0621 71.7192 43.2892 71.1455 42.6201 70.4619C44.5085 68.182 46.511 65.9992 48.6201 63.9219C49.8401 66.5519 51.0701 69.1719 52.3001 71.8019L52.4401 72.0119L52.3701 72.0019ZM48.5201 68.2219C48.5255 68.1148 48.5091 68.0078 48.4719 67.9073C48.4346 67.8067 48.3773 67.7149 48.3034 67.6372C48.2295 67.5596 48.1405 67.4978 48.042 67.4556C47.9434 67.4134 47.8373 67.3917 47.7301 67.3919C47.6232 67.3845 47.5158 67.4001 47.4154 67.4377C47.315 67.4753 47.2238 67.5339 47.148 67.6098C47.0722 67.6856 47.0135 67.7768 46.9759 67.8772C46.9383 67.9776 46.9227 68.0849 46.9301 68.1919C46.9233 68.2919 46.937 68.3922 46.9706 68.4866C47.0042 68.581 47.0569 68.6675 47.1254 68.7407C47.1939 68.8139 47.2767 68.8722 47.3687 68.9119C47.4607 68.9517 47.5599 68.9721 47.6601 68.9719C47.7704 68.9817 47.8816 68.9682 47.9864 68.9323C48.0911 68.8964 48.1872 68.8389 48.2683 68.7634C48.3494 68.688 48.4137 68.5963 48.4571 68.4944C48.5005 68.3925 48.522 68.2826 48.5201 68.1719V68.2219Z" fill="#76777A"/>
<path fill-rule="evenodd" clip-rule="evenodd" d="M74.23 53.0683H73.5H72.44H71.44H70.38L69.32 53.0183H69.2C70.01 51.8083 71.11 50.8183 72.02 49.6883C72.47 49.1483 72.96 48.6383 73.43 48.1183C73.68 47.8383 73.96 47.5583 74.43 47.7783C74.5978 47.8764 74.7265 48.0297 74.794 48.2121C74.8614 48.3944 74.8636 48.5945 74.8 48.7783C74.6873 49.2066 74.5157 49.6172 74.29 49.9983L74.01 50.5383L73.85 50.7983C73.8098 50.8903 73.7595 50.9775 73.7 51.0583L73.61 51.1583L73.53 51.2883C73.4815 51.3864 73.4246 51.48 73.36 51.5683C73.3011 51.6374 73.2476 51.711 73.2 51.7883C73.2 51.8683 73.2 51.9083 73.3 51.8883C73.4095 51.8552 73.5114 51.8008 73.6 51.7283L73.82 51.5583L74.05 51.3183C74.181 51.2125 74.2956 51.0878 74.39 50.9483C74.4352 50.8755 74.4889 50.8084 74.55 50.7483L74.77 50.4983L74.99 50.1983C75.5171 49.6095 76.078 49.0519 76.67 48.5283C76.7948 48.3946 76.9539 48.2978 77.13 48.2483C77.3001 48.1989 77.4827 48.2168 77.64 48.2983C77.7 48.2983 77.81 48.3683 77.84 48.4383C77.8486 48.4778 77.8486 48.5188 77.84 48.5583C77.84 48.6583 77.84 48.7583 77.89 48.8583C77.895 48.8948 77.895 48.9318 77.89 48.9683C77.89 48.9683 77.89 49.0583 77.89 49.0983V49.1883C77.9002 49.2613 77.9002 49.3353 77.89 49.4083C77.819 49.6355 77.7034 49.8463 77.55 50.0283L77.33 50.2883C77.26 50.3883 77.21 50.4983 77.14 50.5983L76.94 50.9083L76.72 51.1483C76.65 51.2183 76.55 51.2783 76.48 51.3583C76.41 51.4383 76.42 51.4683 76.38 51.5183C76.34 51.5683 76.24 51.6883 76.17 51.7783C76.1681 51.8083 76.1681 51.8383 76.17 51.8683L76.1 51.9283L76.01 52.0383C75.9356 52.1115 75.8686 52.1919 75.81 52.2783C75.81 52.2783 75.75 52.3483 75.72 52.3983C75.7251 52.4213 75.7251 52.4452 75.72 52.4683L75.44 52.8283C75.3833 52.9133 75.3122 52.9877 75.23 53.0483C75.1713 53.0661 75.1086 53.0661 75.05 53.0483L74.23 53.0683Z" fill="#FEAA61"/>
<path fill-rule="evenodd" clip-rule="evenodd" d="M71.44 39.001C71.4354 38.9712 71.4354 38.9408 71.44 38.911C71.4344 38.8847 71.4344 38.8574 71.44 38.831C71.4443 38.7974 71.4554 38.765 71.4726 38.7357C71.4898 38.7065 71.5127 38.6811 71.54 38.661C71.54 38.661 71.65 38.561 71.71 38.571H71.8C71.8 38.571 71.89 38.571 71.92 38.571L71.9801 38.631C72.0294 38.6916 72.0698 38.759 72.1 38.831C72.1 38.891 72.1 38.951 72.18 39.001C72.6142 40.4114 73.4777 41.6512 74.65 42.5474C75.8224 43.4437 77.2452 43.9519 78.72 44.001C78.8564 44.0156 78.9906 44.0458 79.12 44.091L74.63 45.091C74.6281 45.0677 74.6281 45.0443 74.63 45.021L74.52 45.001L74.4 44.861L74.18 44.591C74.03 44.411 73.88 44.231 73.74 44.041C73.6 43.851 73.46 43.671 73.33 43.481C73.2 43.291 73.07 43.091 72.95 42.891C72.83 42.691 72.72 42.491 72.61 42.291L72.29 41.681C72.19 41.471 72.1 41.261 72.01 41.041C71.92 40.821 71.85 40.611 71.78 40.391C71.71 40.171 71.64 39.931 71.59 39.701C71.54 39.471 71.48 39.221 71.44 39.001Z" fill="black"/>
<path fill-rule="evenodd" clip-rule="evenodd" d="M52.39 71.9991L52.25 71.7891L52.39 71.9991Z" fill="#EBEBEB"/>
<path fill-rule="evenodd" clip-rule="evenodd" d="M69.2299 55.7304C68.7999 55.4104 68.4899 55.8004 68.2299 56.0304C67.5999 56.5304 66.9899 57.0304 66.3499 57.5904C66.1199 57.1704 66.4499 56.7204 66.0999 56.4204C66.0086 56.5964 65.9015 56.7638 65.7799 56.9204L58.1799 65.5904C56.9399 67.0004 55.7199 68.4404 54.4399 69.8304C53.7799 70.5504 53.3099 71.4704 52.4399 71.9504C52.2799 72.1604 52.1199 72.3804 51.9499 72.5904C51.7799 72.8004 51.8599 73.0504 51.5599 73.0804L50.9099 73.7504L45.9099 79.4204L47.9999 82.3304C48.7661 82.3471 49.5307 82.2528 50.2699 82.0504C53.7591 81.1115 56.9392 79.2697 59.4899 76.7104C61.3014 75.043 62.9551 73.2119 64.4299 71.2404C64.4299 71.2404 64.4299 71.2404 64.3799 71.2404H64.4599C64.4681 71.2287 64.4725 71.2147 64.4725 71.2004C64.4725 71.1861 64.4681 71.1722 64.4599 71.1604C65.0399 70.4604 65.6099 69.7604 66.1899 69.0704C66.1899 67.8104 66.1899 66.5504 66.1899 65.2904C66.0599 64.3704 66.4399 63.4304 66.0699 62.5304C65.8626 62.8731 65.5498 63.1393 65.1783 63.2889C64.8069 63.4386 64.3969 63.4637 64.0099 63.3604C65.6199 63.3604 65.9399 62.1704 66.3399 61.0304C67.0199 60.2404 67.7099 59.4504 68.3399 58.6504C68.7934 58.1452 69.1524 57.5626 69.3999 56.9304C69.5599 56.4904 69.6299 56.0004 69.2299 55.7304Z" fill="#FEAA61"/>
<path fill-rule="evenodd" clip-rule="evenodd" d="M21.6899 31.4895C20.9772 32.4237 20.1733 33.2847 19.2899 34.0595C19.1191 34.1955 19.0079 34.3926 18.9799 34.6091C18.9519 34.8257 19.0093 35.0446 19.1399 35.2195C19.8799 36.6195 20.5599 38.0395 21.2599 39.4595L21.1199 39.5995C19.6299 39.0595 18.1199 38.5495 16.6499 37.9595C16.4137 37.8188 16.133 37.7725 15.8641 37.83C15.5952 37.8875 15.358 38.0445 15.1999 38.2695C14.2699 39.3495 13.2499 40.3495 12.0999 41.5595C12.191 40.323 12.4397 39.1031 12.8399 37.9295C13.2599 36.7195 13.2799 36.7295 12.0599 36.2895L8.93994 35.1495C10.3999 34.7095 11.6999 34.2695 12.9999 33.9995C13.26 33.9534 13.498 33.8242 13.6784 33.6313C13.8587 33.4383 13.9715 33.1921 13.9999 32.9295C14.4099 31.2595 14.8699 29.6095 15.3699 27.7695C16.1199 29.2795 16.8199 30.6195 17.4599 31.9895C17.6999 32.4995 17.9399 32.6095 18.4599 32.4295C19.4863 32.0467 20.5435 31.7523 21.6199 31.5495L21.6899 31.4895Z" fill="#EBEBEB"/>
<path fill-rule="evenodd" clip-rule="evenodd" d="M21.6999 31.5105L21.7499 31.4805L21.6899 31.4905L21.6999 31.5105Z" fill="#EBEBEB"/>
<path fill-rule="evenodd" clip-rule="evenodd" d="M21.2601 39.4609L21.3201 39.6509H21.1201L21.2601 39.4609Z" fill="#EBEBEB"/>
<path fill-rule="evenodd" clip-rule="evenodd" d="M80.3099 36.7684C80.1441 36.7539 79.98 36.7238 79.8199 36.6784C79.3399 36.4684 78.6599 36.2184 78.7599 35.6784C78.8184 35.3553 78.9954 35.0655 79.2561 34.8658C79.5168 34.6661 79.8426 34.5708 80.1699 34.5984C80.9999 35.3784 81.0599 35.6784 80.3099 36.7684Z" fill="#2D1B2D"/>
<path fill-rule="evenodd" clip-rule="evenodd" d="M74.42 36.7586C73.75 36.7586 73.35 36.3186 72.88 35.9686C72.71 35.8286 72.67 35.7286 72.82 35.5586C73.21 35.1286 73.5 34.5586 74.2 34.5586C75.15 35.3086 75.2 35.8586 74.42 36.7586Z" fill="#2D1B2D"/>
<path fill-rule="evenodd" clip-rule="evenodd" d="M77.4799 39.2489C76.7115 39.319 75.9383 39.319 75.1699 39.2489C74.9499 39.2489 74.8799 39.0989 74.9799 38.8989L77.4599 33.6289L77.6999 33.7389L75.2799 38.9989H77.4799V39.2489Z" fill="#2D1B2D"/>
<path fill-rule="evenodd" clip-rule="evenodd" d="M74.42 36.7597C75.2 35.8597 75.15 35.3097 74.2 34.5597C74.98 34.3997 75.45 34.8597 75.91 35.3697C76.19 35.6797 75.91 35.8997 75.79 36.0997C75.6477 36.3282 75.4433 36.5117 75.2008 36.6285C74.9582 36.7454 74.6874 36.7908 74.42 36.7597Z" fill="#EBEBEB"/>
<path fill-rule="evenodd" clip-rule="evenodd" d="M80.3099 36.7698C81.0599 35.6798 81.0399 35.3798 80.1699 34.5898C80.9199 34.5898 81.8599 35.1098 81.9299 35.5898C81.9999 36.0698 81.1199 36.7098 80.3099 36.7698Z" fill="#EBEBEB"/>
<path fill-rule="evenodd" clip-rule="evenodd" d="M77.7 41.0687C79.42 41.4087 80.91 41.2587 81.7 39.2188C81.8 40.9987 79.5 41.9987 77.7 41.0687Z" fill="#2D1B2D"/>
<path fill-rule="evenodd" clip-rule="evenodd" d="M85.9301 37.4395V37.3795L85.8401 37.2795L85.6701 37.0995L85.3801 36.7595C85.3183 36.6944 85.2514 36.6342 85.1801 36.5795C85.1415 36.5442 85.1079 36.5039 85.0801 36.4595L84.9801 36.3395C84.7601 36.0895 84.5501 35.8295 84.3401 35.5795C84.1301 35.3295 83.9201 35.0595 83.7201 34.7995C82.2701 32.8695 80.6601 31.0895 79.0701 29.2695C75.3401 29.5595 73.0701 31.4195 71.9601 35.0995C71.9329 35.1979 71.8926 35.292 71.8401 35.3795C71.8224 35.4205 71.79 35.4535 71.7494 35.4719C71.7087 35.4904 71.6627 35.4931 71.6201 35.4795C71.5734 35.4588 71.5297 35.4319 71.4901 35.3995L71.4101 35.3295C71.389 35.295 71.3619 35.2645 71.3301 35.2395H71.2001H71.1301H71.0001C70.9703 35.2446 70.9399 35.2446 70.9101 35.2395H70.6601L70.1701 35.3095C70.0132 35.3302 69.861 35.3776 69.7201 35.4495C69.5745 35.5172 69.437 35.6011 69.3101 35.6995C69.182 35.8009 69.0678 35.9186 68.9701 36.0495C68.8657 36.1831 68.7814 36.3314 68.7201 36.4895C68.6492 36.6492 68.5988 36.8172 68.5701 36.9895C68.5453 37.1553 68.5453 37.3238 68.5701 37.4895C68.591 37.654 68.6419 37.8133 68.7201 37.9595C68.7918 38.1212 68.8898 38.2699 69.0101 38.3995C69.1241 38.5353 69.2514 38.6592 69.3901 38.7695L69.4601 38.8495L69.5501 38.9395C69.631 39.0136 69.7318 39.0623 69.8401 39.0795L70.2001 39.1695C70.4582 39.1794 70.7166 39.1592 70.9701 39.1095C71.0364 39.1195 71.1038 39.1195 71.1701 39.1095L71.3501 39.0295C71.4297 39.0123 71.507 38.9855 71.5801 38.9495C71.6377 38.9236 71.6915 38.8899 71.7401 38.8495C71.7401 38.8495 71.7401 38.7795 71.8301 38.7595C71.9201 38.7395 71.8301 38.6995 71.9201 38.7095C72.0101 38.7195 71.9201 38.7095 71.9901 38.7695C72.0413 38.8308 72.0849 38.8979 72.1201 38.9695L72.2001 39.1495C72.6587 40.5288 73.5301 41.7338 74.6963 42.6013C75.8626 43.4688 77.2672 43.9569 78.7201 43.9995C78.8564 44.0141 78.9907 44.0443 79.1201 44.0895C80.0542 44.1457 80.9886 43.9849 81.8501 43.6195C83.4528 42.8894 84.7806 41.6667 85.6401 40.1295V40.0595C85.7335 39.8878 85.817 39.7108 85.8901 39.5295C85.9776 39.3603 86.048 39.1828 86.1001 38.9995C86.1001 38.9195 86.1001 38.8395 86.1501 38.7695C86.1403 38.7032 86.1403 38.6358 86.1501 38.5695V38.4595C86.1599 38.3966 86.1599 38.3325 86.1501 38.2695C86.159 38.2032 86.159 38.1359 86.1501 38.0695V37.9295V37.8595C86.1546 37.7996 86.1546 37.7394 86.1501 37.6795L86.0001 37.5395C86.0032 37.513 86.0032 37.4861 86.0001 37.4595L85.9301 37.4395ZM74.4201 36.7595C73.7501 36.7595 73.3501 36.3195 72.8801 35.9695C72.7101 35.8295 72.6701 35.7295 72.8201 35.5595C73.2101 35.1295 73.5001 34.5595 74.2001 34.5595C74.9801 34.3995 75.4501 34.8595 75.9101 35.3695C76.1901 35.6795 75.9101 35.8995 75.7901 36.0995C75.6478 36.3281 75.4435 36.5115 75.2009 36.6284C74.9583 36.7452 74.6875 36.7907 74.4201 36.7595ZM75.1701 39.2895C74.9501 39.2895 74.8801 39.1395 74.9801 38.9395L77.4601 33.6695L77.7001 33.7795L75.2801 38.9995H77.4801V39.2495C76.7129 39.3329 75.9397 39.3463 75.1701 39.2895ZM77.7001 41.0695C79.4201 41.4095 80.9101 41.2595 81.7001 39.2195C81.8001 40.9995 79.5001 41.9995 77.7001 41.0695ZM80.3101 36.7695C80.1443 36.755 79.9803 36.7249 79.8201 36.6795C79.3401 36.4695 78.6601 36.2195 78.7601 35.6795C78.8187 35.3564 78.9956 35.0666 79.2563 34.8669C79.517 34.6672 79.8428 34.5719 80.1701 34.5995C80.9201 34.5995 81.8601 35.1195 81.9301 35.5995C82.0001 36.0795 81.1201 36.7095 80.3101 36.7695Z" fill="#FEAA61"/>
<path fill-rule="evenodd" clip-rule="evenodd" d="M51.49 73.0798C51.62 72.9098 51.65 72.6698 51.88 72.5898C51.84 72.8198 51.79 73.0498 51.49 73.0798Z" fill="#CDCDCD"/>
<path fill-rule="evenodd" clip-rule="evenodd" d="M73.5699 51.4888L73.3799 51.8088C73.4399 51.6988 73.4899 51.5787 73.5499 51.4688L73.5699 51.4888Z" fill="#CDCDCD"/>
<path fill-rule="evenodd" clip-rule="evenodd" d="M75 53L74.8 53.12L75 53Z" fill="#CDCDCD"/>
<path fill-rule="evenodd" clip-rule="evenodd" d="M78.21 52.3983C78.1565 52.5747 78.0862 52.7455 78 52.9083C77.88 53.0783 77.76 53.0483 77.56 53.0483C77.36 53.0483 76.91 53.0483 76.56 53.0483C76.39 53.0483 76.23 53.0483 76.07 53.1083C75.91 53.1683 75.63 53.1083 75.7 53.0083C75.9751 52.7831 76.2175 52.5206 76.42 52.2283C76.68 51.9083 76.93 51.5783 77.2 51.2283C77.4349 50.943 77.7074 50.6907 78.01 50.4783C78.17 50.3683 78.34 50.1683 78.56 50.1983C79.46 50.3283 78.39 52.0483 78.21 52.3983Z" fill="#FEAA61"/>
</g>
<defs>
<clipPath id="clip0">
<rect width="109.08" height="144.37" fill="white"/>
</clipPath>
</defs>
</svg>
