<svg width="116" height="340" viewBox="0 0 116 340" fill="none" xmlns="http://www.w3.org/2000/svg">
<path d="M59.6251 340.001C90.6641 340.001 115.826 334.675 115.826 328.107C115.826 321.538 90.6641 316.213 59.6251 316.213C28.586 316.213 3.42383 321.538 3.42383 328.107C3.42383 334.675 28.586 340.001 59.6251 340.001Z" fill="#EFEFEF"/>
<path d="M47.687 27.4912C47.687 27.4912 53.8274 50.3991 59.0455 51.9216C64.2637 53.4442 31.2116 58.1978 31.2116 58.1978L30.4824 37.6687L47.687 27.4912Z" fill="#FFCDCD"/>
<path d="M20.6938 170.386L26.806 183.484L33.7919 176.498L29.4255 166.02L20.6938 170.386Z" fill="#A0616A"/>
<path d="M96.6632 162.526L94.9162 174.751L89.6772 171.258V158.16L96.6632 162.526Z" fill="#A0616A"/>
<path d="M21.5668 294.381L18.9473 315.338L32.9185 316.211L31.1721 294.381H21.5668Z" fill="#FFCDCD"/>
<path d="M98.4093 294.381L101.029 315.338L87.0576 316.211L88.8039 294.381H98.4093Z" fill="#FFCDCD"/>
<path d="M27.6791 163.4C27.6791 163.4 21.5666 179.991 22.4398 186.977C23.313 193.963 16.7747 231.736 17.5138 233.215V240.237C17.5138 240.237 16.3273 242.863 17.2005 247.229C18.0737 251.595 16.3273 273.425 17.2005 276.918C18.0737 280.411 14.5809 281.284 16.3273 284.777C18.0737 288.269 20.6934 298.748 20.6934 298.748L32.0451 297.875L33.7915 288.269C33.7915 288.269 39.0308 287.396 38.1576 282.157C37.2844 276.918 42.5236 241.989 42.5236 241.989L57.3682 193.09L78.3252 237.623C78.3252 237.623 79.1984 269.059 81.8181 272.552C84.4377 276.044 79.1984 285.65 81.8181 289.143C84.4377 292.635 87.0573 298.748 87.0573 298.748H100.155V291.762C100.155 291.762 108.014 287.396 100.155 274.298L98.409 199.202L93.1698 163.4H27.6791Z" fill="#424242"/>
<path d="M34.6647 312.717C34.6647 312.717 28.5522 310.097 25.9326 311.844C23.3129 313.59 21.5665 310.971 21.5665 310.971C21.5665 310.971 18.0737 309.224 17.2005 311.844C16.5291 313.684 15.6502 315.442 14.5809 317.083C14.5809 317.083 9.34161 326.688 12.8345 329.308C16.3273 331.928 18.9469 333.674 18.9469 335.421C18.9469 337.167 35.5379 338.04 35.5379 335.421C35.5379 332.801 34.6647 312.717 34.6647 312.717Z" fill="#424242"/>
<path d="M85.3112 312.717C85.3112 312.717 91.4237 310.097 94.0433 311.844C96.6629 313.59 98.4094 310.971 98.4094 310.971C98.4094 310.971 101.902 309.224 102.775 311.844C103.447 313.684 104.326 315.442 105.395 317.083C105.395 317.083 110.634 326.688 107.141 329.308C103.649 331.928 101.029 333.674 101.029 335.421C101.029 337.167 84.438 338.04 84.438 335.421C84.438 332.801 85.3112 312.717 85.3112 312.717Z" fill="#424242"/>
<path d="M79.635 56.4309C79.635 56.4309 55.1851 46.8256 42.087 50.3184C28.9888 53.8113 7.15855 69.529 8.03176 73.0219C8.90497 76.5147 17.2005 117.119 17.2005 117.119C17.2005 117.119 17.2005 141.569 21.5665 149.428C25.9326 157.287 26.8058 163.399 26.8058 163.399L25.9326 172.131C25.9326 172.131 48.6361 173.878 60.861 168.638C73.0859 163.399 93.1698 166.892 93.1698 166.892C93.1698 166.892 82.6912 123.231 77.452 116.246C72.2127 109.26 79.635 56.4309 79.635 56.4309Z" fill="#449BD9"/>
<path d="M15.4543 70.8389L7.59542 73.4585C7.59542 73.4585 0.609713 83.937 0.609713 90.9227C0.609713 97.9083 -0.263474 141.569 3.22937 147.681C6.72221 153.794 10.215 166.019 15.4543 166.892L21.5668 174.751L32.0453 167.765L28.5525 159.906L15.4543 70.8389Z" fill="#449BD9"/>
<path d="M67.8472 57.7404L76.5332 55.3008L80.0721 56.8672C80.0721 56.8672 93.1703 69.9653 97.5363 83.0635C101.902 96.1616 102.776 146.808 102.776 146.808C102.776 146.808 103.649 149.427 102.776 150.301C101.902 151.174 101.029 152.047 101.029 153.793C101.029 155.54 99.2827 159.033 99.2827 159.033L98.4095 166.018L89.6774 165.145C89.6774 165.145 73.0864 116.245 73.0864 104.894C73.0864 93.5419 67.8472 57.7404 67.8472 57.7404Z" fill="#449BD9"/>
<path d="M65.4112 51.9754C65.4112 51.9754 65.664 47.6993 63.0444 46.826C60.4248 45.9528 56.9319 41.5868 49.9463 43.3332C42.9606 45.0796 24.6232 47.6993 23.75 49.4457C22.8768 51.1921 20.2571 52.0653 21.1303 53.8117C22.0035 55.5582 23.75 53.8117 22.0035 55.5581C20.2571 57.3046 19.3839 56.4314 20.2571 57.3046C21.1303 58.1778 21.1303 62.5438 21.1303 62.5438C21.1303 62.5438 34.2285 71.2759 37.7213 70.4027C41.2142 69.5295 62.0601 51.1944 62.0601 51.1944L65.4112 51.9754Z" fill="#367CAE"/>
<path opacity="0.2" d="M21.0828 109.111L20.1978 138.856L27.1836 159.812L21.0828 109.111Z" fill="black"/>
<path opacity="0.2" d="M81.3481 96.1182L89.2494 124.808L87.4235 146.823L81.3481 96.1182Z" fill="black"/>
<path d="M38.3813 44.3857C48.6177 44.3857 56.916 36.0875 56.916 25.8511C56.916 15.6147 48.6177 7.31641 38.3813 7.31641C28.1449 7.31641 19.8467 15.6147 19.8467 25.8511C19.8467 36.0875 28.1449 44.3857 38.3813 44.3857Z" fill="#FFCDCD"/>
<path d="M22.6084 24.5724C23.9163 27.9139 25.2242 31.2554 26.532 34.5969C28.1399 38.7048 29.9814 43.0998 33.7502 45.3923C38.4034 48.2229 44.6174 46.8427 49.1189 43.7765C57.1537 38.3035 61.2394 27.6177 58.9055 18.1803C56.5716 8.74281 47.9763 1.19304 38.3167 0.095865L38.1304 3.45107L34.0132 0C32.9179 2.20559 29.4552 2.69529 27.7912 0.879925C28.8727 3.12176 27.6245 5.85599 25.822 7.57335C23.6074 9.68304 17.2734 12.2185 17.5363 15.99C17.7116 18.5068 21.5876 21.9642 22.6084 24.5724Z" fill="#424242"/>
</svg>
