<svg width="1164" height="329" viewBox="0 0 1164 329" fill="none" xmlns="http://www.w3.org/2000/svg">
<rect x="702" y="93.9492" width="58" height="10" rx="5" transform="rotate(-45 702 93.9492)" fill="#0095D7"/>
<rect x="753.504" y="41.0117" width="58" height="10" rx="5" transform="rotate(-45 753.504 41.0117)" fill="#0095D7"/>
<rect x="750" y="320.971" width="24" height="10" rx="5" transform="rotate(-45 750 320.971)" fill="#544274"/>
<rect x="771.43" y="300.971" width="24" height="10" rx="5" transform="rotate(-45 771.43 300.971)" fill="#544274"/>
<rect x="867" y="144.883" width="96" height="10" rx="5" transform="rotate(-45 867 144.883)" fill="#663A86"/>
<rect y="89.0117" width="58" height="10" rx="5" transform="rotate(-45 0 89.0117)" fill="#CF4239"/>
<rect x="924" y="315.012" width="58" height="10" rx="5" transform="rotate(-45 924 315.012)" fill="#CF4239"/>
<rect x="975.504" y="262.012" width="58" height="10" rx="5" transform="rotate(-45 975.504 262.012)" fill="#CF4239"/>
<rect x="430" y="88.0117" width="58" height="10" rx="5" transform="rotate(-45 430 88.0117)" fill="#544274"/>
<rect x="204" y="51.9707" width="24" height="10" rx="5" transform="rotate(-45 204 51.9707)" fill="#0095D7"/>
<rect x="12" y="320.996" width="24" height="10" rx="5" transform="rotate(-45 12 320.996)" fill="#0095D7"/>
<rect x="31.5684" y="300.971" width="24" height="10" rx="5" transform="rotate(-45 31.5684 300.971)" fill="#0095D7"/>
<rect x="1039" y="109.947" width="24" height="10" rx="5" transform="rotate(-45 1039 109.947)" fill="#0095D7"/>
<rect x="1058.57" y="89.9219" width="24" height="10" rx="5" transform="rotate(-45 1058.57 89.9219)" fill="#0095D7"/>
<rect x="1110.29" y="36.9961" width="24" height="10" rx="5" transform="rotate(-45 1110.29 36.9961)" fill="#0095D7"/>
<rect x="1129.86" y="16.9707" width="24" height="10" rx="5" transform="rotate(-45 1129.86 16.9707)" fill="#0095D7"/>
<rect x="1115" y="315.012" width="58" height="10" rx="5" transform="rotate(-45 1115 315.012)" fill="#CF4239"/>
</svg>
