<svg width="320" height="365" viewBox="0 0 320 365" fill="none" xmlns="http://www.w3.org/2000/svg">
<path d="M320 0H0.0366211V266.658H320V0Z" fill="#4858CC"/>
<path fill-rule="evenodd" clip-rule="evenodd" d="M112.671 116.746C111.086 115.514 110.095 113.556 108.034 112.882C106.329 112.249 104.688 111.458 103.13 110.52C103.684 110.091 104.633 110.258 105.311 110.275H106.385L107.493 110.237L109.116 110.267H109.39C110.49 110.288 111.593 110.306 112.697 110.34C113.869 110.374 113.371 103.831 113.405 102.946C113.426 102.375 113.469 101.817 113.474 101.229C113.509 100.565 113.46 99.9002 113.328 99.2493C113.229 98.9833 113.191 98.6989 113.216 98.4164C113.228 98.1572 113.199 97.8979 113.13 97.6478C113.108 97.5585 113.079 97.471 113.044 97.3859C112.84 96.7467 112.536 96.1437 112.143 95.5997C111.854 95.1674 111.542 94.7517 111.207 94.3545C110.893 94.0199 110.543 93.7216 110.163 93.4656C106.247 90.7391 101.228 92.7744 99.8584 97.3085C99.7181 97.7902 99.6034 98.279 99.5149 98.7728C99.4407 98.7642 99.3658 98.7642 99.2916 98.7728C97.2778 99.1291 97.2564 109.541 98.6905 110.366C99.1198 110.606 99.5492 110.834 99.9786 111.053C100.837 111.482 101.696 111.911 102.581 112.289L103.323 112.603L103.693 112.757C103.809 112.818 103.931 112.867 104.058 112.903C104.448 113.118 104.835 113.333 105.234 113.539C106.162 113.998 107.66 114.264 107.875 114.947C108.128 115.741 106.642 116.39 106.119 117.27C106.123 117.331 106.123 117.393 106.119 117.455C106.123 117.393 106.123 117.331 106.119 117.27C105.565 117.678 105.419 118.073 106.183 118.395C106.748 118.65 107.362 118.779 107.982 118.773C108.9 118.954 109.843 118.965 110.764 118.803C111.254 118.738 111.743 118.7 112.229 118.61C112.714 118.519 113.319 118.446 113.405 117.893C113.418 117.649 113.355 117.406 113.223 117.201C113.091 116.995 112.898 116.836 112.671 116.746ZM100.794 98.8413V98.8027V98.8413ZM101.34 98.704H101.069C101.396 97.1067 102.014 95.7199 103.495 94.8397C105.522 93.6245 108.261 93.6117 109.846 95.5095C110.618 96.4327 111.31 97.4115 111.357 98.6524C110.769 98.8886 110 98.7812 109.382 98.7598C108.094 98.7125 106.806 98.8671 105.517 98.8757C104.599 98.8757 103.748 98.8285 102.821 98.7598C102.323 98.6782 101.825 98.7169 101.34 98.704Z" fill="#02242A"/>
<path fill-rule="evenodd" clip-rule="evenodd" d="M113.434 90.5202C113.447 90.5099 113.458 90.4983 113.469 90.4858C113.57 90.3687 113.645 90.2321 113.691 90.0843C113.737 89.9366 113.752 89.7808 113.735 89.6271C113.728 89.4562 113.687 89.2883 113.615 89.1334C113.554 88.996 113.43 88.8543 113.46 88.704C113.493 88.5628 113.493 88.4158 113.46 88.2746C113.357 87.9439 113.223 87.6234 113.061 87.3171C112.887 86.745 112.665 86.189 112.395 85.6554C112.03 85.1015 110.248 84.3115 109.621 84.0625C107.977 83.4184 94.8339 87.9612 94.7094 88.1931C94.061 89.3824 94.6579 93.1265 94.6579 93.1608C94.9756 93.135 102.099 91.1427 102.279 91.1771C102.46 91.2114 102.417 91.3661 102.451 91.4777C102.571 91.8047 102.753 92.1051 102.988 92.3622C103.409 92.8466 103.943 93.2209 104.542 93.4529C104.852 93.5731 105.169 93.6749 105.491 93.7577C105.867 93.8341 106.252 93.8529 106.633 93.8135H107.084C107.234 93.7906 107.374 93.7216 107.483 93.616C107.595 93.5144 107.665 93.3753 107.681 93.2252C107.728 93.0517 107.737 92.8701 107.706 92.6929C107.582 92.0746 106.848 91.7053 106.35 91.4047C105.933 91.1704 105.503 90.9611 105.061 90.7779C105.323 90.662 105.564 90.5718 105.787 90.4473C106.279 90.1802 106.732 89.8479 107.135 89.4596C107.167 89.4199 107.211 89.3926 107.26 89.3824C107.31 89.3722 107.361 89.3798 107.406 89.4038C108.02 89.6314 108.638 89.8332 109.256 90.0651V90.0908C108.926 90.3571 108.934 90.6662 109.256 90.8165C109.259 90.835 109.259 90.8537 109.256 90.8722C109.169 90.9045 109.09 90.9539 109.022 91.0175C108.955 91.0812 108.901 91.1578 108.864 91.2427C108.826 91.3276 108.807 91.4193 108.806 91.5121C108.804 91.6048 108.822 91.6967 108.857 91.7825C108.857 91.7825 108.857 91.8082 108.857 91.8211C108.658 91.8966 108.469 91.9963 108.295 92.1176C108.164 92.2122 108.07 92.3485 108.028 92.504C108.002 92.5827 107.99 92.6656 107.994 92.7486C107.994 92.8302 107.994 92.9161 107.994 92.9977C108.002 93.0648 108.016 93.1309 108.037 93.1952C108.072 93.3168 108.131 93.4304 108.209 93.53C108.599 93.9379 109.183 93.8821 109.69 93.7619C109.764 93.7348 109.84 93.7161 109.918 93.7061C109.979 93.7146 110.041 93.7146 110.102 93.7061C110.18 93.6761 110.248 93.6288 110.326 93.5988C110.403 93.5687 110.467 93.5687 110.536 93.5472C110.716 93.4914 110.897 93.4485 111.077 93.3841C111.431 93.2645 111.773 93.1121 112.099 92.9289C112.286 92.8246 112.467 92.7084 112.64 92.5811C112.85 92.4488 113.03 92.2726 113.165 92.0643C113.301 91.856 113.39 91.6208 113.426 91.3748C113.43 91.0356 113.258 90.7306 113.434 90.5202Z" fill="#FEAA61"/>
<path fill-rule="evenodd" clip-rule="evenodd" d="M117.568 96.5575C117.581 96.5437 117.596 96.5325 117.613 96.525C117.63 96.5174 117.648 96.5137 117.667 96.5137C117.686 96.5137 117.704 96.5174 117.721 96.525C117.738 96.5325 117.753 96.5437 117.766 96.5575L117.663 96.6219L117.568 96.5575Z" fill="#266347"/>
<path fill-rule="evenodd" clip-rule="evenodd" d="M107.839 92.8473C107.795 92.7086 107.773 92.5636 107.775 92.418C106.785 92.2058 105.76 92.2213 104.776 92.463C103.793 92.7048 102.877 93.1664 102.099 93.8134C102.528 94.1 102.906 94.4555 103.219 94.8654C103.691 94.5504 104.208 94.3087 104.752 94.1484C105.587 93.9379 106.457 93.9128 107.303 94.0753C107.375 94.0444 107.45 94.0187 107.526 93.9981C107.552 93.8564 107.582 93.7147 107.62 93.5687C107.678 93.3416 107.76 93.1213 107.865 92.9117L107.839 92.8473Z" fill="#02242A"/>
<path fill-rule="evenodd" clip-rule="evenodd" d="M82.7349 116.952H82.7607C82.7607 116.853 82.7307 116.759 82.7178 116.66C82.7349 116.75 82.7349 116.853 82.7349 116.952Z" fill="white"/>
<path fill-rule="evenodd" clip-rule="evenodd" d="M53.1071 171.186C52.4201 171.062 51.8189 170.757 51.8189 169.967C51.8069 169.8 51.8307 169.633 51.8887 169.477C51.9467 169.32 52.0376 169.178 52.1552 169.06C52.2727 168.941 52.4143 168.85 52.5704 168.791C52.7264 168.732 52.8933 168.707 53.0598 168.717C53.2259 168.699 53.3941 168.715 53.5533 168.766C53.7125 168.817 53.8592 168.901 53.9836 169.012C54.1081 169.124 54.2076 169.26 54.2756 169.413C54.3436 169.566 54.3785 169.731 54.378 169.898C54.4209 170.688 53.8413 171.027 53.1071 171.186Z" fill="#EBECE6"/>
<path fill-rule="evenodd" clip-rule="evenodd" d="M107.639 139.743C107.179 137.713 105.47 138.593 103.993 138.288C105.93 136.12 107.373 133.719 109.515 132.002C111.885 130.1 115.634 130.246 118.214 133.071C118.678 132.796 118.712 132.264 118.905 131.847C119.713 130.13 120.533 128.391 121.765 126.914C122.899 125.557 125.578 124.81 126.978 125.445C127.567 125.703 128.066 126.13 128.412 126.672C128.757 127.214 128.934 127.847 128.918 128.49C128.984 129.196 128.85 129.907 128.532 130.542C128.214 131.176 127.725 131.709 127.119 132.079C125.075 133.337 122.757 133.797 120.451 134.226C119.537 134.406 119.073 134.518 119.373 135.729C120.026 138.365 118.897 140.843 116.522 142.225C115.737 142.685 115.737 143.084 115.956 143.827C119.153 154.518 122.337 165.212 125.509 175.909C126.467 179.125 127.42 182.35 128.588 185.54C129.071 181.896 129.555 178.254 130.039 174.613C130.134 174.708 130.209 174.822 130.259 174.948C130.309 175.073 130.334 175.207 130.331 175.342C130.885 180.1 131.078 184.887 131.422 189.662C131.558 190.746 131.422 191.847 131.027 192.865C130.831 193.378 130.831 193.945 131.027 194.458C131.456 195.845 131.829 197.24 132.255 198.623C133.221 201.779 133.229 201.818 130.013 201.805C128.841 201.805 128.725 202.127 128.923 203.239C129.743 207.339 131.271 211.341 130.881 215.635C130.782 216.76 130.717 217.889 130.631 219.014H129C129.137 212.685 129.253 206.36 127.364 200.212C126.84 197.704 126.346 195.188 125.38 192.801C125.2 192.346 125.14 191.556 124.461 191.689C123.783 191.822 123.813 192.547 123.805 193.157C123.775 195.006 124.135 196.841 124.861 198.541C125.084 200.98 125.75 203.333 126.175 205.738C126.604 208.245 127.136 210.744 127.647 213.389C127.068 212.99 127.081 212.492 126.926 212.101C126.016 209.684 125.209 207.232 124.221 204.844C122.345 200.276 120.932 195.635 121.336 190.615C121.383 190.439 121.387 190.254 121.349 190.076C121.311 189.897 121.232 189.731 121.117 189.589V189.078C121.387 188.855 121.357 188.546 121.357 188.219C121.357 187.635 121.391 187.043 121.357 186.459C121.306 185.467 121.327 184.437 120.249 183.883C118.807 183.573 118.197 184.269 117.999 185.63C117.744 187.645 117.727 189.683 117.948 191.701C118.231 194.836 118.579 197.962 118.901 201.096C116.291 201.697 113.633 201.495 110.988 201.525C111.98 197.541 112.894 193.535 113.993 189.576C115.423 184.389 116.75 179.185 117.317 173.818C118.605 173.818 119.803 173.659 120.408 172.337C120.73 171.683 120.877 170.957 120.836 170.23C120.794 169.502 120.566 168.798 120.172 168.185C119.813 167.603 119.279 167.15 118.646 166.892C118.013 166.634 117.314 166.584 116.651 166.75C115.988 166.915 115.394 167.287 114.957 167.812C114.519 168.338 114.26 168.988 114.217 169.67C114.101 170.937 114.646 171.946 115.372 172.904C114.749 174.698 114.148 176.502 113.508 178.292C111.124 184.947 108.731 191.599 106.329 198.245C105.732 199.894 105.088 201.53 104.345 203.496C104.056 201.839 104.273 200.133 104.968 198.602C105.621 197.062 106.182 195.485 106.647 193.878C108.09 188.902 108.412 183.724 109.382 178.661C110.485 172.891 110.67 166.974 112.156 161.263C112.603 161.207 113.045 161.116 113.478 160.993C114.186 160.724 114.782 160.225 115.171 159.577C115.561 158.928 115.721 158.167 115.625 157.416C115.551 156.687 115.228 156.006 114.71 155.488C114.192 154.97 113.511 154.647 112.783 154.574C111.426 154.462 109.987 155.476 109.506 156.965C109.234 157.671 109.208 158.449 109.434 159.171C109.661 159.893 110.125 160.517 110.752 160.941C109.794 164.179 108.862 167.421 108.424 170.783C108.27 171.972 108.077 173.161 107.901 174.346C107.566 173.729 107.308 173.073 107.132 172.393C106.767 171.41 106.655 170.267 105.612 169.653H105.586V169.383C103.95 169.318 104.431 170.611 104.547 171.315C104.951 173.788 105.763 176.177 106.952 178.382C106.926 179.026 107.497 179.49 107.381 180.199C106.999 182.882 106.922 185.609 106.368 188.271C105.857 190.727 105.419 193.209 104.277 195.501C104.277 191.229 103.95 186.987 103.701 182.728C99.9272 188.554 101.426 194.965 101.623 201.255C101.044 199.593 100.619 197.893 100.052 196.24C99.412 194.372 99.193 192.376 98.1797 190.615C100.724 181.169 103.269 171.723 105.814 162.277C107.433 156.266 109.026 150.229 110.683 144.222C110.941 143.277 111.009 142.685 109.94 142.225C109.057 141.835 108.354 141.125 107.974 140.237C108.541 140.259 109.103 140.11 109.584 139.808C109.713 139.718 109.983 139.619 110.013 139.451C110.023 139.411 110.022 139.369 110.011 139.328C109.999 139.288 109.978 139.251 109.949 139.221C109.92 139.192 109.884 139.169 109.844 139.157C109.804 139.145 109.762 139.142 109.721 139.151C109.532 139.185 109.318 139.396 109.116 139.46C108.64 139.625 108.142 139.721 107.639 139.743Z" fill="#DBDEE0"/>
<path fill-rule="evenodd" clip-rule="evenodd" d="M162.943 200.551C162.943 199.864 162.789 199.593 162.046 199.606C159.65 199.653 157.254 199.632 154.854 199.636C154.749 199.391 154.667 199.137 154.609 198.876C153.974 193.343 153.343 187.808 152.716 182.272C152.261 178.176 151.917 174.067 151.346 169.988C150.955 167.227 149.538 165.089 146.679 164.222C145.983 164.037 146.164 163.466 146.159 162.998C146.142 160.422 146.134 157.856 146.134 155.3C145.966 155.385 145.786 155.45 145.64 155.514C145.494 155.579 145.404 155.604 145.283 155.643L145.202 155.665C145.137 155.665 145.073 155.703 145.004 155.716H144.91L144.725 155.75H144.618L144.386 155.772C143.776 155.81 142.527 155.806 142.48 155.312C142.644 155.363 142.812 155.401 142.982 155.428C143.611 155.501 144.247 155.464 144.863 155.317L144.961 155.287C145.223 155.198 145.466 155.063 145.678 154.887C145.727 154.846 145.772 154.8 145.812 154.75C146.043 154.411 146.086 153.969 146.344 153.634C146.374 153.672 146.404 153.711 146.434 153.758L146.473 153.655C146.554 152.934 146.846 152.543 147.679 152.607C148.108 152.646 148.539 152.646 148.967 152.607C149.53 152.56 149.826 152.607 149.581 151.993C149.199 150.997 148.469 150.044 147.967 149.095C147.404 148.022 146.833 146.948 146.292 145.858C145.751 144.767 145.103 143.925 144.025 143.47C139.809 141.701 135.717 143.951 135.992 148.095C136.082 149.438 135.992 150.795 135.992 152.075C135.614 152.268 135.447 152.075 135.24 151.998C133.815 151.547 132.505 151.899 131.724 153.002C131.35 153.464 131.133 154.033 131.103 154.626C131.073 155.219 131.232 155.807 131.556 156.304C132.338 157.545 133.738 157.94 135.262 157.451C136.121 157.18 136.232 157.678 136.292 158.477C136.312 159.075 136.298 159.675 136.249 160.272C136.215 161.208 136.249 162.148 136.249 163.084C136.249 163.638 136.327 163.968 135.82 164.23C135.313 164.492 134.601 164.625 134.03 164.896C132.827 165.414 131.834 166.321 131.209 167.472C131.904 168.988 131.784 170.645 131.964 172.234C132.577 177.572 133.114 182.919 133.574 188.275C133.785 190.658 134.077 193.045 134.163 195.497C134.549 193.818 134.867 192.122 135.352 190.469C135.554 189.786 135.292 188.46 136.43 188.619C137.46 188.765 136.919 189.941 136.859 190.594C136.43 195.677 135.872 200.753 135.365 205.832C135.056 208.932 134.757 212.034 134.468 215.136C134.347 216.425 133.042 224.316 132.948 225.604C133.858 225.604 135.322 223.492 136.232 223.492C135.953 222.148 137.241 216.403 137.563 215.201C138.851 210.452 139.976 205.665 141.243 200.907C141.243 200.83 141.333 200.765 141.471 200.559C142.046 204.479 142.591 208.288 143.162 212.079C143.51 214.389 144.055 222.337 144.652 224.608C146.924 224.608 150.157 226.326 152.428 226.326C152.093 223.75 149.77 214.003 149.062 211.53C146.915 203.956 144.618 196.416 142.381 188.863C139.663 188.795 138.087 187.335 137.173 184.844C135.751 180.92 135.296 176.837 134.863 172.461C135.906 173.062 136.773 173.518 137.598 174.041C138.216 174.436 138.542 174.445 138.65 173.612C138.757 172.779 138.976 171.83 139.195 170.645L143.308 176.927C143.785 174.664 144.206 172.689 144.691 170.387C145.313 172.418 145.824 174.481 146.224 176.566C146.723 178.758 147.067 180.982 147.254 183.221C147.49 186.416 146.507 187.743 143.441 188.777L152.458 218.988H153.003C152.42 215.553 151.81 212.118 151.26 208.683C150.59 204.488 150.006 200.284 149.684 196.042C149.551 194.235 149.444 192.431 149.435 190.619V190.108C149.435 189.924 149.405 189.735 149.388 189.55C148.959 187.494 149.259 185.42 149.199 183.35C149.187 183.271 149.194 183.19 149.219 183.114C149.245 183.037 149.288 182.968 149.346 182.913C149.403 182.857 149.474 182.815 149.55 182.792C149.627 182.769 149.709 182.765 149.787 182.779C150.277 182.805 150.483 183.097 150.552 183.561C150.814 185.278 151.097 187.034 151.359 188.769C151.479 189.567 151.75 190.353 151.63 191.182C152.817 199.417 154.01 207.654 155.206 215.892C155.356 216.923 157.731 230.237 157.907 231.264C158.272 231.264 160.264 234.978 160.629 234.978C160.629 234.218 156.816 217.451 156.816 216.691L159.822 216.648C159.916 216.532 160.007 216.528 160.101 216.648C160.732 216.648 161.389 216.609 161.999 216.674C162.767 216.747 163.008 216.485 162.999 215.699C162.933 210.678 162.915 205.629 162.943 200.551Z" fill="#DBDEE0"/>
<path fill-rule="evenodd" clip-rule="evenodd" d="M134.113 131.311C134.01 131.199 133.826 131.1 134.032 130.92L134.234 131.216L134.113 131.311Z" fill="#FEF2F0"/>
<path fill-rule="evenodd" clip-rule="evenodd" d="M159.768 216.699C159.863 216.583 159.953 216.579 160.047 216.699H159.768Z" fill="#266347"/>
<path fill-rule="evenodd" clip-rule="evenodd" d="M101.46 143.547L101.507 143.461C101.486 143.487 101.469 143.513 101.447 143.534L101.46 143.547Z" fill="#FEF2F0"/>
<path fill-rule="evenodd" clip-rule="evenodd" d="M122.433 119.018L122.339 118.949L122.438 119.014L122.433 119.018Z" fill="#FEF2F0"/>
<path fill-rule="evenodd" clip-rule="evenodd" d="M153.22 159.898L153.121 159.82L153.246 159.872L153.22 159.898Z" fill="#FEF2F0"/>
<path fill-rule="evenodd" clip-rule="evenodd" d="M143.408 188.811L142.348 188.901C139.63 188.833 138.054 187.373 137.14 184.883C135.718 180.958 135.263 176.875 134.83 172.5C135.873 173.101 136.74 173.556 137.565 174.08C138.183 174.475 138.509 174.483 138.617 173.65C138.724 172.817 138.943 171.869 139.162 170.683L143.275 176.965C143.752 174.702 144.173 172.727 144.658 170.426C145.28 172.456 145.791 174.519 146.191 176.604C146.69 178.796 147.034 181.02 147.221 183.26C147.457 186.45 146.474 187.777 143.408 188.811Z" fill="#D589E1"/>
<path fill-rule="evenodd" clip-rule="evenodd" d="M149.342 189.602C149.669 189.76 149.651 189.949 149.39 190.16C149.377 189.975 149.359 189.786 149.342 189.602Z" fill="#02242A"/>
<path fill-rule="evenodd" clip-rule="evenodd" d="M117.29 173.848C116.594 173.655 115.936 173.346 115.345 172.933C114.619 171.976 114.056 170.967 114.19 169.7C114.233 169.018 114.492 168.367 114.93 167.842C115.367 167.317 115.961 166.945 116.624 166.779C117.287 166.614 117.986 166.664 118.619 166.922C119.252 167.18 119.786 167.633 120.145 168.215C120.539 168.828 120.767 169.532 120.809 170.26C120.85 170.987 120.703 171.713 120.381 172.367C119.776 173.689 118.565 173.856 117.29 173.848Z" fill="#D589E1"/>
<path fill-rule="evenodd" clip-rule="evenodd" d="M112.129 161.28C111.661 161.168 111.189 161.061 110.721 160.958C110.094 160.534 109.63 159.91 109.403 159.187C109.177 158.465 109.203 157.688 109.475 156.982C109.956 155.492 111.395 154.479 112.752 154.59C113.48 154.664 114.161 154.987 114.679 155.505C115.197 156.023 115.52 156.704 115.594 157.433C115.69 158.183 115.53 158.944 115.14 159.593C114.751 160.242 114.155 160.741 113.447 161.009C113.015 161.133 112.575 161.223 112.129 161.28Z" fill="#D589E1"/>
<path fill-rule="evenodd" clip-rule="evenodd" d="M142.348 188.902C144.585 196.455 146.865 203.994 149.029 211.568C149.737 214.042 150.712 216.446 151.047 219.022C153.485 230.572 156.169 231.315 156.628 231.315C153.623 221.247 146.414 198.885 143.412 188.808L142.348 188.902Z" fill="#24C488"/>
<path fill-rule="evenodd" clip-rule="evenodd" d="M113.481 178.323C111.097 184.978 108.704 191.629 106.302 198.275C105.705 199.924 105.061 201.56 104.318 203.527C104.028 201.869 104.245 200.163 104.941 198.632C105.594 197.092 106.155 195.515 106.62 193.909C108.063 188.932 108.385 183.754 109.355 178.692C110.458 172.921 110.643 167.004 112.129 161.294C111.661 161.182 111.188 161.075 110.72 160.972C109.763 164.209 108.831 167.451 108.393 170.813C108.239 172.002 108.045 173.191 107.869 174.377C107.535 173.759 107.277 173.103 107.101 172.423C106.736 171.44 106.624 170.298 105.581 169.684H105.555C105.52 169.623 105.49 169.56 105.465 169.495C105.465 169.495 105.521 169.439 105.555 169.413C103.919 169.349 104.4 170.641 104.516 171.345C104.919 173.818 105.732 176.207 106.92 178.413C106.895 179.057 107.466 179.521 107.35 180.229C106.968 182.913 106.89 185.639 106.336 188.301C105.825 190.757 105.388 193.239 104.245 195.532C104.245 191.259 103.919 187.017 103.67 182.758C99.8959 188.584 101.394 194.995 101.592 201.285C101.012 199.624 100.587 197.923 100.02 196.27C99.3806 194.402 99.1617 192.406 98.1484 190.645C97.9466 191.448 97.749 192.256 97.5386 193.059C96.8516 195.635 96.1904 198.185 95.4605 200.731C95.2115 201.59 95.4047 201.856 96.3192 201.788C97.2338 201.719 98.1269 201.788 99.0286 201.788C99.6383 201.762 99.8014 201.912 99.6597 202.556C99.2561 204.364 98.9556 206.197 98.5777 208.009C97.822 211.672 96.9933 215.308 96.5511 219.04H105.817C106.693 214.042 107.57 209.044 108.449 204.046C108.827 201.899 108.835 201.899 110.974 201.573C111.965 197.588 112.88 193.582 113.979 189.624C115.409 184.437 116.736 179.233 117.303 173.866C116.607 173.673 115.949 173.364 115.357 172.951C114.722 174.729 114.121 176.532 113.481 178.323Z" fill="#24C488"/>
<path fill-rule="evenodd" clip-rule="evenodd" d="M136.405 188.645C135.267 188.486 135.546 189.812 135.327 190.495C134.842 192.148 134.524 193.844 134.138 195.523C134.052 193.071 133.76 190.684 133.55 188.301C133.08 182.948 132.544 177.601 131.94 172.26C131.759 170.671 131.879 169.014 131.184 167.498C130.428 168.846 130.471 170.371 130.377 171.831C130.317 172.775 129.411 173.612 130.037 174.621C130.133 174.717 130.208 174.831 130.258 174.957C130.308 175.082 130.332 175.216 130.329 175.351C130.883 180.109 131.077 184.896 131.42 189.671C131.556 190.755 131.42 191.855 131.025 192.874C130.83 193.387 130.83 193.954 131.025 194.467C131.454 195.854 131.828 197.249 132.253 198.632C133.219 201.788 133.228 201.826 130.012 201.813C128.839 201.813 128.724 202.135 128.921 203.248C129.741 207.348 131.27 211.35 130.879 215.643C130.78 216.768 130.716 217.898 130.63 219.022C131.811 219.022 132.073 223.273 133.253 223.273C133.344 221.985 134.335 216.446 134.456 215.163C134.742 212.06 135.041 208.958 135.353 205.858C135.86 200.779 136.401 195.703 136.847 190.62C136.882 189.967 137.423 188.791 136.405 188.645Z" fill="#24C488"/>
<path fill-rule="evenodd" clip-rule="evenodd" d="M155.16 215.944C153.964 207.708 152.772 199.472 151.584 191.233C151.704 190.405 151.433 189.619 151.313 188.82C151.051 187.103 150.768 185.351 150.506 183.612C150.437 183.148 150.231 182.856 149.742 182.831C149.663 182.816 149.581 182.821 149.505 182.844C149.428 182.867 149.358 182.908 149.3 182.964C149.242 183.02 149.199 183.089 149.173 183.165C149.148 183.241 149.141 183.322 149.153 183.402C149.214 185.471 148.917 187.545 149.342 189.602C149.669 189.761 149.651 189.95 149.39 190.16V190.671C149.39 192.483 149.506 194.286 149.639 196.094C149.961 200.336 150.545 204.54 151.214 208.734C151.764 212.169 154.649 227.146 155.229 230.572C156.139 230.572 156.946 231.315 157.861 231.315C157.685 230.289 155.298 216.974 155.16 215.944Z" fill="#24C488"/>
<path fill-rule="evenodd" clip-rule="evenodd" d="M125.357 192.809C125.177 192.354 125.117 191.564 124.438 191.697C123.76 191.831 123.79 192.556 123.781 193.166C123.752 195.015 124.112 196.849 124.838 198.55C125.061 200.989 125.726 203.342 126.151 205.746C126.581 208.254 127.113 210.753 127.624 213.398C127.045 212.999 127.057 212.501 126.903 212.11C125.993 209.692 125.185 207.241 124.198 204.853C123.721 203.694 123.266 202.526 122.875 201.337C122.161 199.247 121.659 197.091 121.377 194.901C121.244 193.794 121.201 192.678 121.248 191.564C121.3 190.538 121.355 189.503 121.308 188.477C121.282 187.812 121.36 187.142 121.308 186.472C121.257 185.48 121.278 184.45 120.2 183.896C118.758 183.587 118.148 184.282 117.951 185.643C117.695 187.658 117.678 189.696 117.899 191.715C118.182 194.849 118.53 197.975 118.852 201.109C119.625 201.195 119.526 201.861 119.625 202.35C120.084 204.63 120.192 206.983 121.008 209.194C121.068 209.684 121.102 210.178 121.184 210.663C121.679 213.448 122.177 216.234 122.678 219.022H128.947C129.084 212.694 129.2 206.369 127.311 200.221C126.817 197.713 126.323 195.197 125.357 192.809Z" fill="#24C488"/>
<path fill-rule="evenodd" clip-rule="evenodd" d="M105.555 169.687C105.519 169.627 105.489 169.564 105.464 169.499C105.464 169.499 105.52 169.443 105.555 169.417V169.687Z" fill="#02242A"/>
<path fill-rule="evenodd" clip-rule="evenodd" d="M103.344 135.931C103.64 136.283 104.048 136.579 104.507 136.36C104.902 136.21 105.244 135.948 105.491 135.604C105.589 135.45 105.667 135.252 105.422 135.381C105.177 135.51 105.134 135.665 104.902 135.75C104.447 135.922 103.769 136.081 103.391 135.677C103.271 135.544 103.181 135.274 102.987 135.248C103.01 135.302 103.037 135.353 103.069 135.403C103.076 135.393 103.085 135.384 103.095 135.377L103.069 135.403C103.163 135.574 103.254 135.755 103.344 135.931Z" fill="#4858CC"/>
<path fill-rule="evenodd" clip-rule="evenodd" d="M142.081 150.288C142.377 150.64 142.785 150.941 143.249 150.718C143.648 150.554 143.99 150.276 144.232 149.919C144.331 149.764 144.413 149.567 144.168 149.7C143.923 149.833 143.88 149.979 143.648 150.065C143.193 150.237 142.51 150.4 142.137 149.992C142.017 149.863 141.926 149.593 141.708 149.562L141.789 149.721L141.815 149.696L141.789 149.721C141.905 149.928 141.987 150.108 142.081 150.288Z" fill="#4858CC"/>
<path fill-rule="evenodd" clip-rule="evenodd" d="M97.1952 158.635C97.0968 158.778 97.0348 158.942 97.0146 159.113C96.9944 159.285 97.0166 159.459 97.0793 159.62C97.1421 159.781 97.2434 159.924 97.3744 160.037C97.5054 160.15 97.6621 160.229 97.8307 160.267C98.6293 160.563 98.9728 160.009 99.1531 159.322C99.5267 157.901 99.3635 156.458 99.0587 154.917L97.1952 158.635Z" fill="#92C0E9"/>
<path fill-rule="evenodd" clip-rule="evenodd" d="M90.6605 165.974C89.7872 166.944 89.1119 168.076 88.6725 169.306C88.4492 169.847 88.1057 170.37 88.7154 170.886C89.0374 171.156 89.3552 171.427 89.7974 171.178C90.0775 171.032 90.3084 170.806 90.4612 170.53C90.6139 170.254 90.6817 169.938 90.6562 169.623C90.6433 168.404 90.6605 167.189 90.6605 165.974Z" fill="#92C0E9"/>
<path fill-rule="evenodd" clip-rule="evenodd" d="M114.993 119.773L114.649 119.846C114.83 121.216 114.426 122.599 114.911 123.964C115.169 124.69 115.585 125.252 116.406 124.904C117.226 124.557 117.264 123.926 116.886 123.187C116.26 122.058 115.624 120.916 114.993 119.773Z" fill="#92C0E9"/>
<path fill-rule="evenodd" clip-rule="evenodd" d="M120.974 154.561L120.639 154.741C121.017 156.076 121.36 157.425 121.79 158.743C122.013 159.43 122.537 159.82 123.267 159.378C123.898 159 124.126 158.425 123.606 157.781C122.743 156.699 121.854 155.634 120.974 154.561Z" fill="#92C0E9"/>
<path fill-rule="evenodd" clip-rule="evenodd" d="M159.162 191.474C158.03 190.55 156.802 189.75 155.499 189.087C156.066 190.433 156.786 191.71 157.646 192.891C157.721 193.034 157.831 193.157 157.964 193.249C158.097 193.341 158.251 193.399 158.411 193.419C158.572 193.439 158.735 193.419 158.886 193.363C159.038 193.306 159.174 193.213 159.282 193.093C159.934 192.539 159.703 191.916 159.162 191.474Z" fill="#92C0E9"/>
<path fill-rule="evenodd" clip-rule="evenodd" d="M97.7625 143.547L97.8097 143.461C97.8097 143.487 97.771 143.513 97.7496 143.534V143.564L97.6079 143.736C97.0411 144.436 96.4658 145.127 95.8904 145.831L95.6972 146.076C95.4739 146.359 95.2678 146.643 95.036 146.935C94.5723 147.549 94.4821 148.278 95.3236 148.631C95.4796 148.712 95.6532 148.754 95.829 148.752C96.0049 148.749 96.1775 148.704 96.3315 148.619C96.4854 148.534 96.6159 148.412 96.7113 148.264C96.8066 148.116 96.8639 147.947 96.878 147.772C97.1785 146.372 97.6465 145.002 97.7367 143.555L97.7625 143.547Z" fill="#92C0E9"/>
<path fill-rule="evenodd" clip-rule="evenodd" d="M121.593 137.957C121.747 139.37 121.88 140.774 122.589 142.015C122.649 142.125 122.732 142.22 122.833 142.295C122.933 142.369 123.049 142.421 123.172 142.446C123.295 142.47 123.421 142.468 123.543 142.439C123.665 142.41 123.779 142.354 123.877 142.277C124.397 141.946 124.663 141.469 124.306 140.898C123.586 139.763 122.667 138.766 121.593 137.957Z" fill="#92C0E9"/>
<path fill-rule="evenodd" clip-rule="evenodd" d="M133.873 133.204C132.86 132.393 131.863 131.529 130.55 131.207L130.352 130.911C130.146 131.091 130.352 131.19 130.434 131.302C131.065 132.393 131.662 133.5 132.336 134.561C132.411 134.701 132.517 134.823 132.646 134.916C132.775 135.01 132.923 135.073 133.08 135.101C133.237 135.129 133.398 135.122 133.551 135.079C133.705 135.036 133.846 134.959 133.966 134.853C134.085 134.748 134.179 134.617 134.241 134.47C134.302 134.323 134.33 134.164 134.321 134.005C134.313 133.846 134.268 133.691 134.191 133.552C134.115 133.412 134.007 133.292 133.877 133.2L133.873 133.204Z" fill="#92C0E9"/>
<path fill-rule="evenodd" clip-rule="evenodd" d="M153.206 162.109C153.06 162.006 152.914 161.903 152.776 161.795C151.767 161.057 150.797 160.237 149.56 159.872L149.44 159.82L149.534 159.898C150.138 161.156 150.857 162.356 151.681 163.483C151.757 163.625 151.867 163.746 152.001 163.835C152.135 163.924 152.29 163.978 152.45 163.992C152.61 164.006 152.772 163.98 152.92 163.916C153.067 163.851 153.197 163.751 153.296 163.624C153.794 163.118 153.772 162.5 153.206 162.109Z" fill="#92C0E9"/>
<path fill-rule="evenodd" clip-rule="evenodd" d="M121.76 122.01C121.855 121.927 121.929 121.821 121.975 121.703C122.021 121.585 122.038 121.458 122.025 121.332C122.012 121.206 121.969 121.085 121.9 120.979C121.831 120.873 121.737 120.785 121.626 120.722C120.708 120.095 119.909 119.262 118.75 119.005L118.651 118.94L118.75 119.009C119.286 119.941 119.797 120.903 120.386 121.804C120.72 122.328 121.266 122.508 121.76 122.01Z" fill="#92C0E9"/>
<path fill-rule="evenodd" clip-rule="evenodd" d="M109.355 122.822C109.136 123.453 109.355 123.973 109.965 124.076C110.574 124.179 110.853 123.646 110.875 123.037C110.888 121.877 110.743 120.722 110.445 119.602C110.033 120.821 109.694 121.821 109.355 122.822Z" fill="#92C0E9"/>
<path fill-rule="evenodd" clip-rule="evenodd" d="M105.117 122.006C103.979 122.865 103.224 124.05 102.275 125.072C102.153 125.178 102.058 125.312 101.999 125.463C101.94 125.614 101.918 125.778 101.936 125.939C101.954 126.1 102.01 126.254 102.101 126.389C102.191 126.523 102.313 126.634 102.455 126.712C103.138 127.18 103.743 126.802 103.992 126.162L104.194 125.664C104.671 124.5 105.152 123.324 105.134 122.023C105.156 121.98 105.173 121.941 105.19 121.898C105.168 121.936 105.144 121.972 105.117 122.006Z" fill="#92C0E9"/>
<path fill-rule="evenodd" clip-rule="evenodd" d="M91.7845 134.441C91.1619 135.128 91.3122 135.682 91.9734 136.133C92.6346 136.583 93.1928 136.18 93.5062 135.575C94.1724 134.23 94.6271 132.79 94.8544 131.307C93.7504 132.269 92.724 133.317 91.7845 134.441Z" fill="#92C0E9"/>
<path fill-rule="evenodd" clip-rule="evenodd" d="M27.4526 225.686C27.4526 226.055 23 238.679 23 238.679L45.4475 239.297C45.4475 239.297 47.7317 233.136 43.1546 230.164C38.5776 227.193 37.8219 227.541 37.8219 227.541L38.5904 223.333L27.4526 225.686Z" fill="black"/>
<path fill-rule="evenodd" clip-rule="evenodd" d="M53.8932 217.704L52.3389 228.751L71.8881 231.328C71.8881 231.328 77.7662 224.668 73.1762 221.697C70.551 219.939 67.3809 219.185 64.2453 219.572L63.8717 216.398L53.8932 217.704Z" fill="black"/>
<path d="M91.3208 220.508C91.3208 220.508 92.8708 215.69 97.2762 214.329C99.746 213.542 102.29 213.009 104.867 212.736L105.46 219.022L91.3208 220.508Z" fill="#24C488"/>
<path d="M111.931 219.611C111.931 219.611 113.481 214.793 117.891 213.432C120.359 212.645 122.901 212.111 125.478 211.839L126.07 218.125L111.931 219.611Z" fill="#24C488"/>
<path fill-rule="evenodd" clip-rule="evenodd" d="M65.1511 209.31C65.1569 208.737 65.1326 208.164 65.0781 207.593C64.434 203.166 63.8844 198.718 63.3606 194.282C62.9012 190.418 62.5018 186.519 62.1154 182.629C61.613 177.374 60.7844 172.157 60.1789 166.91C59.9002 166.849 59.6433 166.713 59.436 166.517C59.2287 166.321 59.0788 166.073 59.0025 165.798C58.762 165.089 58.4915 164.398 58.294 163.677C58.2337 163.452 58.2264 163.217 58.2726 162.99C58.1523 162.672 58.0235 162.363 57.8818 162.054L54.9965 163.093C51.9112 164.916 48.5048 166.13 44.9621 166.669C42.0982 167.683 39.0024 168.692 35.9453 169.117C35.9453 175.742 37.4782 184.377 32.3472 188.666C32.4245 188.881 32.4975 189.095 32.5747 189.302C32.8632 189.896 32.9477 190.569 32.8152 191.217C32.0595 194.471 31.4111 197.751 30.7242 201.023V201.045L30.5696 201.766C29.084 207.468 27.8731 221.904 26.8169 227.696L38.9809 227.541C38.8435 226.683 46.5465 200.598 48.367 192.638L48.5731 192.599C48.8393 194.342 49.1184 196.086 49.376 197.829C50.3292 204.269 52.0982 217.648 52.1154 218.271H66.2545C65.7908 215.038 65.7994 212.518 65.1511 209.31Z" fill="black"/>
<path fill-rule="evenodd" clip-rule="evenodd" d="M67.3028 136.845C67.0838 135.694 66.311 134.904 65.156 134.913C64.2457 134.913 63.9065 134.514 63.5201 133.831C62.9715 132.814 62.2113 131.926 61.2906 131.228C60.3699 130.529 59.3103 130.036 58.183 129.782C52.8846 128.494 48.2345 131.267 46.59 136.729C46.3538 137.511 46.1606 138.017 45.1387 138.142C44.0138 138.271 43.2151 139 43.4212 140.469C43.4434 141.084 43.64 141.679 43.988 142.186C44.5805 142.916 45.4994 142.912 46.3839 142.951C46.225 143.698 45.6754 143.977 45.2847 144.372C41.1408 148.458 37.582 153.098 34.7093 158.159C34.1726 159.133 33.6616 160.125 33.1936 161.134C32.7256 162.143 32.3005 163.165 31.9313 164.204C31.5542 165.244 31.2388 166.305 30.9867 167.382C30.7287 168.463 30.5409 169.561 30.4242 170.667C30.3126 171.779 30.2782 172.895 30.2095 174.011C30.2095 174.157 30.1837 174.303 30.1794 174.441C30.1794 174.827 30.1537 175.201 30.1494 175.587C30.1494 176.214 30.1494 176.837 30.1494 177.463C30.1494 177.846 30.2439 178.219 30.2568 178.601C30.2696 178.983 30.2567 179.391 30.2997 179.786C30.3469 180.581 30.4371 181.371 30.5616 182.152C30.8158 183.715 31.1876 185.257 31.6737 186.764C31.9442 187.622 32.2404 188.481 32.5582 189.305C32.8467 189.9 32.9312 190.573 32.7986 191.22L42.9017 183.827C42.9017 183.827 40.2009 175.02 41.4762 172.122C42.5238 169.739 55.7613 168.975 60.4028 168.777C60.3127 168.06 60.2268 167.339 60.1452 166.63L60.2526 166.562C59.6929 162.283 59.7406 157.946 60.3942 153.681C60.4551 152.511 60.6746 151.356 61.0469 150.246L58.1658 149.954C58.2287 149.64 58.3764 149.35 58.593 149.114C58.8095 148.879 59.0865 148.707 59.3938 148.618C62.8288 147.236 64.5462 144.522 64.9413 140.89C65.0229 140.112 65.1774 139.601 66.0233 139.267C66.4973 139.091 66.89 138.747 67.1261 138.3C67.3622 137.854 67.4251 137.335 67.3028 136.845Z" fill="#92C0E9"/>
<path d="M56.018 162.423L55.4641 151.689H55.3911C56.4259 151.603 65.55 150.495 68.006 137.309C68.9219 132.275 69.5811 127.198 69.9811 122.096C70.6724 114.368 71.222 108.275 75.8592 99.4128C82.5574 86.609 94.7515 84.1915 95.2753 84.0928L97.2504 94.6425H97.3019C96.9885 94.7069 89.5733 96.3341 85.3697 104.398C81.7244 111.371 81.3251 115.772 80.6724 123.067C80.2414 128.505 79.5349 133.918 78.5556 139.284C76.4603 150.529 70.6037 156.214 66.061 159.005C63.028 160.917 59.5875 162.088 56.018 162.423Z" fill="#92C0E9"/>
<path fill-rule="evenodd" clip-rule="evenodd" d="M49.93 147.583C50.2692 147.768 50.6127 147.948 50.9519 148.124C52.5191 148.927 54.2237 149.189 55.9326 149.412C56.7376 149.523 57.5508 149.564 58.3628 149.533C58.5242 149.256 58.7253 149.004 58.9597 148.786C59.5136 148.421 60.192 148.305 60.763 147.927C61.4804 147.485 62.1322 146.944 62.6995 146.321C64.003 144.787 64.7862 142.879 64.9365 140.872C65.0181 140.095 65.1727 139.584 66.0185 139.249C66.4969 139.075 66.8936 138.73 67.1316 138.28C67.3696 137.83 67.432 137.308 67.3066 136.815C67.0877 135.664 66.3148 134.874 65.1598 134.882C64.2495 134.882 63.9103 134.483 63.5239 133.8C62.9753 132.783 62.2151 131.896 61.2944 131.197C60.3738 130.499 59.3141 130.006 58.1868 129.752C52.8884 128.463 48.2383 131.237 46.5938 136.699C46.3577 137.48 46.1644 137.987 45.1425 138.111C44.0176 138.24 43.219 138.97 43.4251 140.438C43.4472 141.053 43.6438 141.649 43.9918 142.156C44.5887 142.899 45.5547 142.779 46.3834 142.98C45.8725 144.093 44.3954 144.629 44.0477 145.776C44.1292 145.505 45.8853 145.531 46.1215 145.582C46.6807 145.757 47.2148 146.004 47.7102 146.317C48.4358 146.768 49.1829 147.197 49.93 147.583Z" fill="#FEAA61"/>
<path fill-rule="evenodd" clip-rule="evenodd" d="M61.926 139.773C61.7844 139.773 61.6427 140.035 61.5697 140.138C61.4185 140.335 61.2357 140.505 61.0287 140.641C60.9013 140.747 60.768 140.846 60.6294 140.937C60.4653 141.006 60.2975 141.066 60.127 141.117C59.6884 141.288 59.2267 141.392 58.7573 141.427C58.1562 141.478 57.0398 141.426 56.6491 140.868C56.6389 140.853 56.6251 140.841 56.609 140.832C56.5929 140.824 56.575 140.819 56.5568 140.819C56.5386 140.819 56.5207 140.824 56.5046 140.832C56.4885 140.841 56.4747 140.853 56.4645 140.868C56.4258 140.933 56.4645 141.049 56.4945 141.117C56.808 141.976 57.7569 142.229 58.5684 142.217C59.1405 142.219 59.7043 142.079 60.2086 141.809C60.6059 141.576 60.9674 141.286 61.282 140.95C61.4655 140.733 61.6334 140.504 61.7844 140.263C61.8058 140.242 62.1236 139.778 61.926 139.773Z" fill="#4858CC"/>
<path fill-rule="evenodd" clip-rule="evenodd" d="M59.9138 138.112C60.0936 138.041 60.2771 137.979 60.4634 137.927C60.5641 137.906 60.654 137.85 60.7167 137.768C60.7429 137.727 60.7564 137.68 60.7553 137.631C60.7553 137.099 60.1027 136.489 59.7764 136.128C59.5961 135.926 58.9176 134.96 58.7545 135.415C58.6815 135.634 59.1066 136.214 59.2268 136.39C59.4501 136.729 59.9868 137.154 59.5746 137.507C59.3341 137.721 58.4196 137.691 58.4582 138.159C58.4883 138.503 59.7163 138.18 59.9138 138.112Z" fill="#4858CC"/>
<path fill-rule="evenodd" clip-rule="evenodd" d="M54.395 134.942C54.2547 134.942 54.1175 134.984 54.0009 135.062C53.8843 135.14 53.7935 135.251 53.74 135.381C53.6866 135.51 53.6728 135.653 53.7005 135.791C53.7281 135.928 53.796 136.054 53.8956 136.153C53.9951 136.252 54.1217 136.319 54.2594 136.346C54.3971 136.373 54.5397 136.358 54.6691 136.304C54.7985 136.25 54.9088 136.158 54.9861 136.041C55.0635 135.924 55.1043 135.787 55.1035 135.647C55.1035 135.554 55.0851 135.462 55.0494 135.376C55.0138 135.29 54.9615 135.213 54.8957 135.147C54.8298 135.082 54.7517 135.03 54.6658 134.995C54.5798 134.96 54.4878 134.942 54.395 134.942Z" fill="black"/>
<path fill-rule="evenodd" clip-rule="evenodd" d="M44.6487 144.359C46.2621 144.774 47.8411 145.312 49.3718 145.97C51.8793 147.056 55.7651 148.421 55.7651 148.421V149.937C55.7651 149.937 49.1872 148.309 46.6152 147.683C45.1706 147.321 43.7051 147.049 42.2271 146.867L44.6487 144.359Z" fill="#DBDEE0"/>
<path fill-rule="evenodd" clip-rule="evenodd" d="M56.4395 148.498L56.7443 149.936L58.4575 149.979L59.2175 148.996L56.4395 148.498Z" fill="#DBDEE0"/>
<path d="M245.829 198.971C199.429 203.129 195.141 220.168 144.896 217.98C118.058 216.811 85.0662 214.676 47.3976 230.192C24.466 239.629 2.7428 242.141 0 242.439V365H320L319.668 197.042C319.668 197.042 292.229 194.814 245.829 198.971Z" fill="#515FF9"/>
<path d="M285 88C285 88.7911 284.765 89.5644 284.326 90.2221C283.886 90.8799 283.261 91.3929 282.531 91.6956C281.8 91.9983 280.995 92.0775 280.22 91.9231C279.444 91.7688 278.731 91.3879 278.172 90.8285C277.612 90.2691 277.231 89.5564 277.077 88.7805C276.923 88.0046 277.002 87.2003 277.304 86.4694C277.607 85.7385 278.12 85.1137 278.778 84.6742C279.435 84.2347 280.209 84 281 84C281.525 83.9991 282.046 84.102 282.532 84.3027C283.017 84.5033 283.459 84.7982 283.83 85.1698C284.202 85.5414 284.497 85.9826 284.697 86.4684C284.898 86.9541 285.001 87.4745 285 88Z" fill="#FBBE45"/>
<path d="M222 142.993C222.001 143.784 221.768 144.558 221.329 145.217C220.891 145.876 220.266 146.39 219.536 146.693C218.805 146.997 218 147.078 217.224 146.924C216.448 146.77 215.734 146.39 215.174 145.831C214.614 145.272 214.232 144.559 214.077 143.783C213.922 143.007 214.001 142.202 214.304 141.471C214.606 140.74 215.119 140.114 215.777 139.675C216.435 139.235 217.209 139 218 139C218.525 138.999 219.045 139.102 219.53 139.302C220.015 139.502 220.457 139.796 220.828 140.167C221.2 140.538 221.494 140.978 221.695 141.463C221.897 141.948 222 142.468 222 142.993Z" fill="white"/>
</svg>
