<svg width="132" height="36" viewBox="0 0 132 36" fill="none" xmlns="http://www.w3.org/2000/svg">
<path d="M53.5251 1.10141C53.3308 1.09349 53.1368 1.12322 52.9545 1.18887C52.7722 1.25453 52.6051 1.35478 52.4632 1.48379C52.3212 1.6128 52.2071 1.76797 52.1276 1.94025C52.0481 2.11253 52.0047 2.29846 52 2.48719V13.834C52 14.2267 52.1607 14.6032 52.4467 14.8809C52.7327 15.1586 53.1206 15.3145 53.5251 15.3145C53.9296 15.3145 54.3175 15.1586 54.6035 14.8809C54.8895 14.6032 55.0502 14.2267 55.0502 13.834V2.48719C55.0472 2.29796 55.0049 2.11127 54.926 1.93823C54.847 1.7652 54.733 1.60937 54.5906 1.48005C54.4483 1.35072 54.2806 1.25055 54.0975 1.1855C53.9145 1.12044 53.7198 1.09185 53.5251 1.10141Z" fill="white"/>
<path d="M68.5198 13.8341C68.5539 14.2039 68.7293 14.5479 69.0116 14.7985C69.2938 15.049 69.6624 15.188 70.0449 15.188C70.4273 15.188 70.7959 15.049 71.0782 14.7985C71.3604 14.5479 71.5358 14.2039 71.5699 13.8341V3.81973H74.9679C75.1449 3.81973 75.3202 3.78588 75.4838 3.7201C75.6474 3.65433 75.796 3.55793 75.9212 3.4364C76.0464 3.31486 76.1457 3.17058 76.2134 3.01179C76.2812 2.853 76.316 2.68281 76.316 2.51094C76.316 2.33906 76.2812 2.16888 76.2134 2.01009C76.1457 1.8513 76.0464 1.70702 75.9212 1.58548C75.796 1.46395 75.6474 1.36755 75.4838 1.30178C75.3202 1.236 75.1449 1.20215 74.9679 1.20215H65.1463C64.9692 1.20215 64.7939 1.236 64.6303 1.30178C64.4668 1.36755 64.3181 1.46395 64.193 1.58548C64.0678 1.70702 63.9685 1.8513 63.9007 2.01009C63.833 2.16888 63.7981 2.33906 63.7981 2.51094C63.7981 2.68281 63.833 2.853 63.9007 3.01179C63.9685 3.17058 64.0678 3.31486 64.193 3.4364C64.3181 3.55793 64.4668 3.65433 64.6303 3.7201C64.7939 3.78588 64.9692 3.81973 65.1463 3.81973H68.5198V13.8341Z" fill="white"/>
<path d="M88.6874 14.5207C88.8501 14.7427 89.0664 14.9225 89.3175 15.0443C89.5685 15.1662 89.8465 15.2263 90.127 15.2195C90.4994 15.2324 90.862 15.1022 91.1361 14.8571C91.4102 14.6121 91.5737 14.272 91.5911 13.9107C91.5745 13.5172 91.4044 13.1446 91.1153 12.8684L88.4921 9.84811C90.5602 9.16114 91.6948 7.7043 91.6948 5.67301C91.7082 5.10282 91.6003 4.53608 91.3778 4.00823C91.1552 3.48039 90.8229 3.0028 90.4016 2.60534C89.1647 1.61711 87.5905 1.11616 85.991 1.2018H80.7142C80.5183 1.19548 80.323 1.2271 80.1399 1.29481C79.9567 1.36252 79.7892 1.46497 79.6473 1.59617C79.5053 1.72737 79.3917 1.8847 79.313 2.05898C79.2344 2.23326 79.1922 2.42101 79.1891 2.61127V13.8633C79.1891 14.256 79.3498 14.6326 79.6358 14.9102C79.9218 15.1879 80.3097 15.3439 80.7142 15.3439C81.1187 15.3439 81.5066 15.1879 81.7926 14.9102C82.0786 14.6326 82.2393 14.256 82.2393 13.8633V10.4462H85.1979L88.6874 14.5207ZM85.7958 7.89381H82.2088V3.77792H85.7714C86.8328 3.77792 88.6203 4.0385 88.6203 5.84475C88.6203 7.10616 87.5405 7.89381 85.7958 7.89381Z" fill="white"/>
<path d="M95.4711 15.2198C95.7678 15.2277 96.0602 15.1482 96.3095 14.9918C96.5589 14.8353 96.7536 14.6093 96.868 14.3433L98.0576 11.8619H104.963L106.11 14.2663C106.225 14.5509 106.427 14.7946 106.689 14.9649C106.95 15.1352 107.259 15.2242 107.574 15.2198C107.76 15.2245 107.946 15.1932 108.12 15.1276C108.293 15.062 108.452 14.9635 108.586 14.8378C108.72 14.7121 108.827 14.5617 108.9 14.3955C108.974 14.2292 109.012 14.0504 109.014 13.8695C109.012 13.661 108.953 13.4567 108.843 13.2773L103.353 2.0845C103.209 1.75487 102.966 1.47504 102.656 1.28166C102.346 1.08828 101.983 0.990366 101.614 1.00075H101.486C101.115 0.991615 100.75 1.08981 100.438 1.28282C100.125 1.47583 99.878 1.75492 99.7291 2.0845L94.2388 13.2655C94.1084 13.4672 94.0385 13.7002 94.0371 13.9384C94.0357 14.1765 94.1029 14.4103 94.231 14.6134C94.359 14.8165 94.543 14.9809 94.7621 15.088C94.9811 15.1952 95.2267 15.2408 95.4711 15.2198ZM99.2533 9.33912L101.517 4.60141L103.774 9.33912H99.2533Z" fill="white"/>
<path d="M113.065 15.219C113.258 15.2261 113.45 15.1957 113.631 15.1295C113.812 15.0634 113.978 14.9628 114.118 14.8337C114.258 14.7047 114.371 14.5497 114.449 14.3778C114.527 14.206 114.568 14.0209 114.571 13.8332V2.48639C114.571 2.09373 114.411 1.71715 114.125 1.4395C113.839 1.16185 113.451 1.00586 113.046 1.00586C112.642 1.00586 112.254 1.16185 111.968 1.4395C111.682 1.71715 111.521 2.09373 111.521 2.48639V13.8332C111.526 14.0235 111.57 14.211 111.65 14.3845C111.731 14.558 111.847 14.714 111.991 14.8432C112.135 14.9725 112.304 15.0723 112.488 15.1369C112.673 15.2014 112.869 15.2293 113.065 15.219Z" fill="white"/>
<path d="M130.518 1.1014C130.135 1.09343 129.764 1.23274 129.486 1.48899C129.208 1.74524 129.046 2.09765 129.035 2.46941V10.1682L122.026 1.8772C121.855 1.64126 121.629 1.44832 121.365 1.31441C121.102 1.18051 120.81 1.10951 120.513 1.10732H120.238C119.845 1.09776 119.463 1.24012 119.177 1.5032C118.891 1.76627 118.725 2.12862 118.713 2.51086V13.834C118.713 14.2188 118.871 14.5878 119.151 14.8599C119.431 15.132 119.812 15.2849 120.208 15.2849C120.604 15.2849 120.985 15.132 121.265 14.8599C121.545 14.5878 121.703 14.2188 121.703 13.834V5.87463L128.919 14.4143C129.09 14.653 129.317 14.8488 129.581 14.9858C129.845 15.1227 130.139 15.1968 130.438 15.202H130.518C130.709 15.2075 130.9 15.1758 131.079 15.1088C131.258 15.0418 131.421 14.9408 131.559 14.8117C131.697 14.6826 131.807 14.5281 131.883 14.3571C131.959 14.1862 131.998 14.0023 132 13.8162V2.48717C131.99 2.11332 131.829 1.7582 131.552 1.49879C131.274 1.23939 130.903 1.09661 130.518 1.1014Z" fill="white"/>
<path d="M64.341 20.686C64.0536 20.6909 63.7723 20.7669 63.5235 20.9068C63.2748 21.0467 63.067 21.2458 62.9196 21.4855L58.9117 26.697L54.9648 21.5032C54.8124 21.2641 54.6009 21.0657 54.3495 20.9261C54.098 20.7865 53.8147 20.71 53.5251 20.7038C53.3332 20.6934 53.1411 20.7203 52.96 20.7828C52.779 20.8454 52.6126 20.9424 52.4706 21.0681C52.3286 21.1938 52.2138 21.3458 52.133 21.5151C52.0522 21.6843 52.007 21.8676 52 22.054C52.0048 22.4011 52.1246 22.7375 52.3416 23.0134L57.3866 29.3442V33.4423C57.3866 33.8349 57.5473 34.2115 57.8333 34.4892C58.1193 34.7668 58.5072 34.9228 58.9117 34.9228C59.3162 34.9228 59.7041 34.7668 59.9901 34.4892C60.2761 34.2115 60.4368 33.8349 60.4368 33.4423V29.2968L65.4391 23.0489C65.6878 22.779 65.8323 22.4336 65.8478 22.0718C65.8499 21.8826 65.8117 21.6951 65.7357 21.5209C65.6597 21.3468 65.5474 21.1897 65.406 21.0596C65.2645 20.9295 65.0969 20.8292 64.9137 20.7649C64.7304 20.7006 64.5355 20.6737 64.341 20.686Z" fill="white"/>
<path d="M74.9373 20.5737C70.4718 20.5737 66.9702 23.7362 66.9702 27.8047C66.9702 31.8732 70.3803 34.9586 74.9007 34.9586C79.4211 34.9586 82.8678 31.7962 82.8678 27.7277C82.8678 23.6592 79.4577 20.5737 74.9373 20.5737ZM74.8946 23.1735C75.5277 23.1557 76.158 23.2631 76.7471 23.4891C77.3362 23.7151 77.8718 24.0549 78.3214 24.4881C78.771 24.9212 79.1252 25.4386 79.3625 26.0087C79.5998 26.5789 79.7152 27.1899 79.7017 27.8047C79.7094 28.4105 79.5906 29.0116 79.3524 29.5716C79.1141 30.1317 78.7614 30.639 78.3155 31.063C77.8696 31.487 77.3399 31.8188 76.7582 32.0385C76.1765 32.2582 75.555 32.3611 74.9312 32.341C74.3111 32.3433 73.6967 32.2271 73.1229 31.9989C72.5491 31.7707 72.0272 31.435 71.5871 31.011C71.1469 30.587 70.7971 30.083 70.5576 29.5278C70.3181 28.9726 70.1936 28.377 70.1912 27.7751C70.1888 27.1731 70.3085 26.5766 70.5436 26.0196C70.7787 25.4626 71.1244 24.9559 71.5612 24.5287C71.9979 24.1014 72.5171 23.7618 73.0891 23.5293C73.661 23.2967 74.2745 23.1759 74.8946 23.1735Z" fill="white"/>
<path d="M96.9229 20.71C96.7287 20.7021 96.5347 20.7318 96.3524 20.7975C96.17 20.8631 96.003 20.9634 95.861 21.0924C95.719 21.2214 95.605 21.3766 95.5255 21.5488C95.4459 21.7211 95.4025 21.907 95.3979 22.0958V28.7878C95.3979 31.0678 94.1778 32.3411 91.8963 32.3411C89.6147 32.3411 88.3764 31.05 88.3764 28.7108V22.0958C88.3764 21.7031 88.2157 21.3265 87.9297 21.0489C87.6437 20.7712 87.2557 20.6152 86.8513 20.6152C86.4468 20.6152 86.0589 20.7712 85.7728 21.0489C85.4868 21.3265 85.3262 21.7031 85.3262 22.0958V28.7878C85.3262 32.6964 87.6992 34.9409 91.8352 34.9409C95.9713 34.9409 98.4358 32.6549 98.4358 28.6753V22.0958C98.4328 21.9076 98.3909 21.7219 98.3127 21.5497C98.2345 21.3775 98.1215 21.2222 97.9805 21.093C97.8395 20.9639 97.6733 20.8634 97.4917 20.7977C97.31 20.7319 97.1166 20.7021 96.9229 20.71Z" fill="white"/>
<path d="M5.74497 21.0513C5.53321 21.3181 5.26529 21.5379 4.95908 21.6962C4.65288 21.8545 4.31543 21.9476 3.96924 21.9692C3.62305 21.9909 3.27607 21.9407 2.95146 21.8219C2.62685 21.7031 2.33207 21.5185 2.08677 21.2803C1.84146 21.0422 1.65128 20.756 1.52891 20.4409C1.40654 20.1258 1.3548 19.7889 1.37713 19.4528C1.39945 19.1168 1.49532 18.7892 1.65837 18.4919C1.82142 18.1947 2.0479 17.9346 2.32268 17.729L18.4032 2.20115C18.615 1.9344 18.8829 1.71456 19.1891 1.55628C19.4953 1.39799 19.8328 1.3049 20.179 1.28323C20.5252 1.26156 20.8721 1.31179 21.1967 1.43059C21.5213 1.54938 21.8161 1.73401 22.0614 1.97214C22.3067 2.21028 22.4969 2.49645 22.6193 2.81158C22.7417 3.1267 22.7934 3.46354 22.7711 3.79961C22.7488 4.13569 22.6529 4.46328 22.4898 4.76054C22.3268 5.0578 22.1003 5.31789 21.8255 5.52347L5.74497 21.0513Z" fill="#FF6B00"/>
<path d="M18.4214 33.3579C18.2096 33.6247 17.9417 33.8446 17.6355 34.0028C17.3293 34.1611 16.9918 34.2542 16.6456 34.2759C16.2994 34.2975 15.9525 34.2473 15.6279 34.1285C15.3032 34.0097 15.0085 33.8251 14.7632 33.587C14.5179 33.3488 14.3277 33.0627 14.2053 32.7475C14.0829 32.4324 14.0312 32.0956 14.0535 31.7595C14.0758 31.4234 14.1717 31.0958 14.3348 30.7986C14.4978 30.5013 14.7243 30.2412 14.9991 30.0356L31.0796 14.5078C31.2914 14.241 31.5593 14.0212 31.8655 13.8629C32.1717 13.7046 32.5092 13.6115 32.8554 13.5899C33.2016 13.5682 33.5485 13.6184 33.8731 13.7372C34.1977 13.856 34.4925 14.0406 34.7378 14.2788C34.9831 14.5169 35.1733 14.8031 35.2957 15.1182C35.418 15.4333 35.4698 15.7702 35.4475 16.1063C35.4251 16.4423 35.3293 16.7699 35.1662 17.0672C35.0032 17.3645 34.7767 17.6245 34.5019 17.8301L18.4214 33.3579Z" fill="white"/>
<path d="M5.37292 9.15968C5.16115 9.42643 4.89323 9.64629 4.58703 9.80457C4.28082 9.96286 3.94336 10.0559 3.59717 10.0776C3.25098 10.0993 2.90402 10.049 2.57941 9.93025C2.2548 9.81145 1.96 9.62684 1.71469 9.3887C1.46939 9.15057 1.27923 8.86439 1.15686 8.54926C1.03449 8.23413 0.982733 7.8973 1.00506 7.56122C1.02738 7.22515 1.12327 6.89755 1.28632 6.6003C1.44937 6.30304 1.67583 6.04294 1.95061 5.83737L5.98295 1.92283C6.19472 1.65608 6.46264 1.43624 6.76884 1.27796C7.07505 1.11967 7.41249 1.02658 7.75868 1.00491C8.10487 0.983238 8.45185 1.03347 8.77646 1.15227C9.10108 1.27106 9.39586 1.45569 9.64116 1.69382C9.88646 1.93196 10.0766 2.21813 10.199 2.53326C10.3214 2.84838 10.3731 3.18523 10.3508 3.5213C10.3285 3.85738 10.2326 4.18497 10.0696 4.48223C9.9065 4.77949 9.68002 5.03957 9.40525 5.24515L5.37292 9.15968Z" fill="white"/>
<path d="M30.7138 33.7661C30.5021 34.0329 30.2342 34.2527 29.928 34.411C29.6218 34.5693 29.2843 34.6624 28.9381 34.684C28.5919 34.7057 28.2449 34.6555 27.9203 34.5367C27.5957 34.4179 27.3009 34.2333 27.0556 33.9951C26.8103 33.757 26.6202 33.4708 26.4978 33.1557C26.3754 32.8406 26.3237 32.5037 26.346 32.1677C26.3683 31.8316 26.4642 31.504 26.6273 31.2067C26.7903 30.9095 27.0168 30.6494 27.2915 30.4438L31.3239 26.5293C31.5356 26.2625 31.8036 26.0427 32.1098 25.8844C32.416 25.7261 32.7534 25.633 33.0996 25.6114C33.4458 25.5897 33.7928 25.6399 34.1174 25.7587C34.442 25.8775 34.7368 26.0621 34.9821 26.3003C35.2274 26.5384 35.4176 26.8246 35.5399 27.1397C35.6623 27.4548 35.7141 27.7917 35.6917 28.1277C35.6694 28.4638 35.5735 28.7914 35.4105 29.0887C35.2474 29.3859 35.021 29.646 34.7462 29.8516L30.7138 33.7661Z" fill="#FF9E18"/>
<path d="M34.9229 1.78054L34.8314 1.70946C34.4544 1.34101 33.9449 1.12874 33.41 1.11725H33.3185H33.227H26.5349C26.236 1.09549 25.9358 1.13385 25.6528 1.22994C25.3699 1.32602 25.1105 1.47777 24.8908 1.67567C24.6711 1.87357 24.4958 2.11336 24.3759 2.38005C24.2561 2.64674 24.1942 2.93457 24.1942 3.22554C24.1942 3.5165 24.2561 3.80433 24.3759 4.07102C24.4958 4.3377 24.6711 4.5775 24.8908 4.7754C25.1105 4.9733 25.3699 5.12505 25.6528 5.22113C25.9358 5.31722 26.236 5.35558 26.5349 5.33382H27.816L2.09078 30.3134C1.81368 30.5182 1.58495 30.7783 1.41998 31.076C1.25501 31.3738 1.15763 31.7024 1.13436 32.0398C1.11109 32.3771 1.16248 32.7154 1.28508 33.0319C1.40768 33.3484 1.59865 33.6357 1.84515 33.8746C2.09165 34.1135 2.38797 34.2983 2.71418 34.4168C3.0404 34.5352 3.38894 34.5845 3.73641 34.5613C4.08388 34.5381 4.42222 34.443 4.72867 34.2823C5.03512 34.1216 5.30257 33.8991 5.51307 33.6298L31.2322 8.66205V9.84648C31.2098 10.1366 31.2493 10.4282 31.3483 10.7028C31.4472 10.9774 31.6036 11.2293 31.8074 11.4426C32.0113 11.6559 32.2583 11.826 32.533 11.9424C32.8077 12.0588 33.1042 12.1188 33.4039 12.1188C33.7036 12.1188 34.0001 12.0588 34.2749 11.9424C34.5496 11.826 34.7966 11.6559 35.0004 11.4426C35.2043 11.2293 35.3606 10.9774 35.4596 10.7028C35.5585 10.4282 35.5981 10.1366 35.5756 9.84648V3.53348C35.6014 3.21305 35.5564 2.89097 35.4439 2.58871C35.3313 2.28645 35.1538 2.01094 34.9229 1.78054Z" fill="#26A7FF"/>
</svg>
