<svg width="751" height="358" viewBox="0 0 751 358" fill="none" xmlns="http://www.w3.org/2000/svg">
<path d="M58.4626 244.145L58.3026 244.015C57.6339 243.377 56.7466 243.02 55.8226 243.015H55.6626H43.8426C43.3173 242.968 42.7879 243.031 42.2882 243.2C41.7886 243.369 41.3295 243.64 40.9404 243.996C40.5512 244.352 40.2404 244.785 40.0278 245.268C39.8151 245.751 39.7053 246.272 39.7053 246.8C39.7053 247.327 39.8151 247.849 40.0278 248.332C40.2404 248.815 40.5512 249.248 40.9404 249.604C41.3295 249.96 41.7886 250.231 42.2882 250.4C42.7879 250.569 43.3173 250.632 43.8426 250.585H46.0826L1.24263 295.425C0.848664 295.819 0.536165 296.287 0.322952 296.801C0.10974 297.316 0 297.868 0 298.425C0 299.55 0.446981 300.629 1.24263 301.425C2.03828 302.221 3.11741 302.668 4.24263 302.668C5.36785 302.668 6.44698 302.221 7.24263 301.425L52.0526 256.605V258.755C52.0148 259.276 52.0847 259.799 52.258 260.292C52.4313 260.784 52.7043 261.236 53.0599 261.618C53.4156 262.001 53.8462 262.306 54.325 262.514C54.8038 262.723 55.3204 262.83 55.8426 262.83C56.3649 262.83 56.8815 262.723 57.3603 262.514C57.8391 262.306 58.2697 262.001 58.6253 261.618C58.981 261.236 59.254 260.784 59.4273 260.292C59.6006 259.799 59.6705 259.276 59.6326 258.755V247.295C59.6718 246.717 59.5878 246.137 59.3861 245.594C59.1844 245.051 58.8696 244.557 58.4626 244.145Z" fill="#FF6B00"/>
<path d="M695.28 5.63989C695.28 6.75538 694.949 7.84594 694.33 8.77344C693.71 9.70093 692.829 10.4237 691.798 10.8506C690.768 11.2775 689.634 11.3893 688.54 11.1716C687.446 10.954 686.441 10.4167 685.652 9.62793C684.863 8.83916 684.326 7.83429 684.108 6.74023C683.891 5.64618 684.002 4.51226 684.429 3.48169C684.856 2.45111 685.579 1.57017 686.507 0.950439C687.434 0.330708 688.525 0 689.64 0C691.136 0 692.57 0.59415 693.628 1.65186C694.686 2.70956 695.28 4.14407 695.28 5.63989Z" fill="#4858CC"/>
<path d="M750.28 351.64C750.28 352.755 749.949 353.846 749.33 354.773C748.71 355.701 747.829 356.424 746.798 356.851C745.768 357.277 744.634 357.389 743.54 357.172C742.446 356.954 741.441 356.417 740.652 355.628C739.863 354.839 739.326 353.834 739.108 352.74C738.891 351.646 739.002 350.512 739.429 349.482C739.856 348.451 740.579 347.57 741.507 346.95C742.434 346.331 743.525 346 744.64 346C746.135 346.003 747.568 346.598 748.625 347.655C749.682 348.712 750.277 350.145 750.28 351.64Z" fill="#FCCD06"/>
</svg>
