<svg width="57" height="60" viewBox="0 0 57 60" fill="none" xmlns="http://www.w3.org/2000/svg">
<path d="M20.6231 57C32.0129 57 41.2461 47.7632 41.2461 36.3689C41.2461 24.9747 32.0129 15.7378 20.6231 15.7378C9.23326 15.7378 0 24.9747 0 36.3689C0 47.7632 9.23326 57 20.6231 57Z" fill="url(#paint0_linear)"/>
<path d="M20.6231 51.0355C12.5374 51.0355 5.96216 44.4577 5.96216 36.3688C5.96216 28.2799 12.5374 21.7021 20.6231 21.7021C28.7088 21.7021 35.2841 28.2799 35.2841 36.3688C35.2841 44.4577 28.7 51.0355 20.6231 51.0355ZM20.6231 24.3688C14.0124 24.3688 8.62779 29.7555 8.62779 36.3688C8.62779 42.9821 14.0124 48.3688 20.6231 48.3688C27.2339 48.3688 32.6184 42.9821 32.6184 36.3688C32.6184 29.7555 27.2339 24.3688 20.6231 24.3688Z" fill="white"/>
<path d="M20.623 43.0356C16.669 43.0356 14.3233 39.9689 14.2255 39.8356C13.7813 39.2489 13.9057 38.4134 14.4921 37.9689C15.0785 37.5245 15.9138 37.6489 16.358 38.2267C16.3847 38.2623 18.0374 40.3689 20.623 40.3689C23.2176 40.3689 24.8792 38.2534 24.8881 38.2267C25.3323 37.6489 26.1676 37.5334 26.754 37.9689C27.3404 38.4134 27.4559 39.24 27.0206 39.8267C26.9228 39.9689 24.5771 43.0356 20.623 43.0356Z" fill="white"/>
<path d="M16.6336 33.7023C15.8961 33.7023 15.2919 33.1068 15.2919 32.369C15.2919 31.6312 15.8783 31.0356 16.6158 31.0356H16.6247C17.3622 31.0356 17.9575 31.6312 17.9575 32.369C17.9575 33.1068 17.3711 33.7023 16.6336 33.7023Z" fill="white"/>
<path d="M24.6304 33.7023C23.8929 33.7023 23.2887 33.1068 23.2887 32.369C23.2887 31.6312 23.8751 31.0356 24.6126 31.0356H24.6215C25.359 31.0356 25.9543 31.6312 25.9543 32.369C25.9543 33.1068 25.3679 33.7023 24.6304 33.7023Z" fill="white"/>
<path d="M46.6928 23.6222C52.3853 23.6222 56.9999 19.0058 56.9999 13.3111C56.9999 7.61644 52.3853 3 46.6928 3C41.0004 3 36.3857 7.61644 36.3857 13.3111C36.3857 19.0058 41.0004 23.6222 46.6928 23.6222Z" fill="url(#paint1_linear)"/>
<path d="M46.6928 20.342C45.8575 20.342 45.1823 19.6665 45.1823 18.8309V7.7909C45.1823 6.95534 45.8575 6.27979 46.6928 6.27979C47.528 6.27979 48.2033 6.95534 48.2033 7.7909V18.8309C48.2033 19.6665 47.528 20.342 46.6928 20.342Z" fill="white"/>
<path d="M52.2106 14.822H41.175C40.3397 14.822 39.6644 14.1465 39.6644 13.3109C39.6644 12.4754 40.3397 11.7998 41.175 11.7998H52.2106C53.0459 11.7998 53.7212 12.4754 53.7212 13.3109C53.7212 14.1465 53.0459 14.822 52.2106 14.822Z" fill="white"/>
<defs>
<linearGradient id="paint0_linear" x1="-48.4631" y1="-2.63038" x2="49.8057" y2="52.8067" gradientUnits="userSpaceOnUse">
<stop stop-color="#F6C462"/>
<stop offset="1" stop-color="#FF6B00"/>
</linearGradient>
<linearGradient id="paint1_linear" x1="12.1507" y1="-6.18729" x2="61.2851" y2="21.5312" gradientUnits="userSpaceOnUse">
<stop stop-color="#F6C462"/>
<stop offset="1" stop-color="#FF6B00"/>
</linearGradient>
</defs>
</svg>
