<svg width="72" height="60" viewBox="0 0 72 60" fill="none" xmlns="http://www.w3.org/2000/svg">
<g clip-path="url(#clip0)">
<path d="M66.3402 43.122L9.7128 51.5306C7.07843 51.9218 4.61851 50.1032 4.22647 47.463L0.709337 23.777C0.317289 21.1368 2.13677 18.6827 4.777 18.2907L61.4044 9.88207C64.0388 9.49089 66.4987 11.3095 66.8907 13.9497L70.4087 37.6416C70.794 40.2768 68.9746 42.7309 66.3402 43.122Z" fill="url(#paint0_linear)"/>
<path d="M21.7026 36.2937C19.2321 36.6606 16.9319 34.9499 16.565 32.4794C16.1982 30.009 17.9089 27.7087 20.3735 27.3427C22.8381 26.9767 25.1501 28.6857 25.516 31.1503C25.877 33.6216 24.1672 35.9278 21.7026 36.2937ZM20.7099 29.6083C19.4922 29.7891 18.6439 30.9262 18.8256 32.1497C19.0073 33.3733 20.1435 34.2157 21.3671 34.034C22.5906 33.8523 23.433 32.7161 23.2513 31.4926C23.0697 30.269 21.9275 29.4275 20.7099 29.6083Z" fill="#EBEBEC"/>
<path d="M22.0528 38.6529C23.7915 38.3947 25.4481 39.1958 26.3697 40.5667C26.994 40.0971 27.54 39.5433 28.0112 38.9289C26.5747 37.072 24.1994 36.0246 21.7173 36.3932C19.2351 36.7618 17.2733 38.4591 16.4317 40.6483C17.0552 41.1002 17.7444 41.4706 18.4783 41.7385C18.9617 40.159 20.3083 38.912 22.0528 38.6529Z" fill="#EBEBEC"/>
<path d="M31.896 32.2912C31.031 26.4663 25.5918 22.4336 19.7669 23.2985C13.9478 24.1626 9.90918 29.6027 10.7741 35.4276C11.2705 38.7703 13.276 41.518 15.9932 43.095C15.986 42.2405 16.133 41.4169 16.4259 40.6494C14.6569 39.3744 13.3848 37.4153 13.0397 35.0912C12.3608 30.5191 15.5312 26.243 20.1033 25.5641C24.6754 24.8852 28.9515 28.0555 29.6304 32.6277C29.9755 34.9518 29.3266 37.1901 28.0054 38.93C28.5087 39.5792 28.8944 40.3237 29.13 41.1443C31.2776 38.845 32.3915 35.6281 31.896 32.2912Z" fill="#EBEBEC"/>
<path d="M18.4783 41.7388C18.2933 42.3466 18.23 43.0082 18.3299 43.6814L18.3943 44.1146C19.8194 44.5253 21.3518 44.6507 22.909 44.4195C24.4721 44.1874 25.9019 43.6221 27.1404 42.8159L27.0761 42.3827C26.9761 41.7095 26.7242 41.1007 26.3697 40.567C25.2877 41.3798 24.001 41.9418 22.5726 42.154C21.1442 42.3661 19.7438 42.203 18.4783 41.7388Z" fill="#EBEBEC"/>
<path d="M26.3698 40.5671C26.7234 41.095 26.9762 41.7096 27.0762 42.3829L27.1405 42.8161C27.8769 42.3358 28.5418 41.7763 29.1359 41.1436C28.8945 40.3239 28.5146 39.5785 28.0113 38.9293C27.5401 39.5437 26.9941 40.0975 26.3698 40.5671Z" fill="#EBEBEC"/>
<path d="M18.3233 43.6765C18.2233 43.0033 18.2875 42.3476 18.4716 41.7339C17.7377 41.4659 17.0544 41.0947 16.425 40.6437C16.1321 41.4111 15.9793 42.2356 15.9923 43.0892C16.7388 43.5229 17.5442 43.87 18.3876 44.1097L18.3233 43.6765Z" fill="#EBEBEC"/>
<path d="M61.5337 29.087L40.5524 32.2025C39.9084 32.2981 39.3033 31.8495 39.2077 31.2055C39.112 30.5615 39.5607 29.9564 40.2046 29.8608L61.186 26.7453C61.8299 26.6497 62.4351 27.0983 62.5307 27.7423C62.6263 28.3862 62.1777 28.9913 61.5337 29.087Z" fill="#EBEBEC"/>
<path d="M55.821 35.2606L41.326 37.4129C40.6821 37.5085 40.077 37.0599 39.9814 36.416C39.8857 35.772 40.3344 35.1669 40.9783 35.0713L55.4733 32.9189C56.1172 32.8233 56.7223 33.2719 56.8179 33.9159C56.9136 34.5598 56.4649 35.165 55.821 35.2606Z" fill="#EBEBEC"/>
<path d="M32.521 18.0061L34.3789 20.686L37.6448 20.6797L35.6671 23.2769L36.6835 26.3749L33.6033 25.2946L30.9699 27.2233L31.0423 23.9637L28.3952 22.0532L31.522 21.1102L32.521 18.0061Z" fill="#F6C462"/>
</g>
<defs>
<linearGradient id="paint0_linear" x1="2.98423" y1="14.1467" x2="75.0936" y2="50.807" gradientUnits="userSpaceOnUse">
<stop stop-color="#D73EAF"/>
<stop offset="1" stop-color="#9A3BA9"/>
</linearGradient>
<clipPath id="clip0">
<rect width="66.9011" height="33.6044" fill="white" transform="translate(0 19) rotate(-8.44613)"/>
</clipPath>
</defs>
</svg>
